<?xml version="1.0" encoding="UTF-8"?>
<svg xmlns="http://www.w3.org/2000/svg" version="1.1" viewBox="0 0 600 600">
  <!-- Generator: Adobe Illustrator 29.3.1, SVG Export Plug-In . SVG Version: 2.1.0 Build 151)  -->
  <defs>
    <style>
      .st0 {
        fill: #e9ebed;
      }

      .st1 {
        fill: #f4ad2f;
      }

      .st2 {
        display: none;
      }
    </style>
  </defs>
  <g id="Layer_1" class="st2">
    <polygon id="Background" class="st0" points="0 0 0 258.1 0 341.9 0 600 600 600 600 341.9 600 258.1 600 0 0 0"/>
  </g>
  <g id="Layer_2">
    <g>
      <rect class="st1" y="0" width="596.5" height="596.5"/>
      <g>
        <path d="M0,600h600V0H0v600.1ZM23.5,103.5v-20.8h.2l.4-.7h1.2v-7.5c-.4.2-.8.4-1.6.5l-.2-1.6c.6-.1,1.2-.2,1.8-.3v-3.1h0s-1.8.6-1.8.6v-15.9h1.8V19.1h89.3c0,0,1.2-.3,1.2-.3l.4-.8h38.4v.2h-.2v.9h12.3c0,0,.2,0,.2,0v-.3h.2l.2-.7h31.2c0,.4,0,.7,0,1.1h23.7c.1-.2.3-.4.5-.6h.2v-.5c1.5,0,2,0,3.6,0v1.1h4.1l1.3-1.1h29v.2h-.2l-.6.9h12l.3-.3.8-.8h21.1v.8l-.4.3h13.6c0,0,1.4-.3,1.4-.3l.4-.8c1.4,0,2.9,0,4.8,0l-.2.8-.4.3h16.9c.5-.5,1-.1,1.2-1.1h49.9v.7c-.7,0-1.3.3-1.9.4h196.5v559H25.3V191.5h0v.2h-1.8v-25.7c.8-.1,1.4-.2,1.8-.3v-16.9l-1.8.5c0-3.8-.6-27.2.2-30.9l.8-.2.2.3h.6c0,.1,0-15.3,0-15.3l-1.8.2Z"/>
        <path d="M114.2,20l-.4.5h-.4v.2h-.4l-.2.3h-.4l-.6.7h-.4l-.2.3h-.4l-.8.8h-.4v.2h-.4v.2h-.4v.2h-.4v.2h-.4l-.2.3h-.2l-.2.3h-.4l-.4.5h-.4v.2l-.8.5-.8.8h-.2l-.2.3h-.4l-.2.3h-.4l-.2.3h-.4l-.4.5h-.4l-1.4.7v.2l-1.2.3v.2h-.4l-.8.8h-.4v.2l-.6.5-.6.2v.2l-.6.2-.2.3h-.4l-.2.3h-.4l-.6.7h-.4l-.3.2h37.4v-.2h.5l.2-.3.8-.2,1.8-1.1h.4l.2-.3,1.2-.3.2-.3,1.4-.7h.6v-.2h.4l.2-.3h.4l.2-.3h.4l.2-.3h.4l.4-.5h.4l1.6-1.5h.4v-.2h.4v-.2h.4v-.2h.4v-.2h.4l.6-.7h.4l.8-.5v-.2h.4l.4-.5h.4l.2-.3.8-.2v-.2l.8-.5h.4l.8-.8h.6l.4-.5h.4l.2-.3h.4v-.2l.6-.2.6-.7v-.2l.6-.2h0v-1h.2v-.2h-38.4l-.4.8-1.2.2h0c0,0-.2,1-.2,1h-.2Z"/>
        <path d="M27.1,73.8c2.9-.5,5.6-1,8.6-1v-.2h.4v-.2h.6v-.2c1.4,0,2.8-.1,4.2-.2v-.2h.8v-.2h.4v-.2h.6v-.2h.3v-3.3h-.3v.2h-.4v.2h-1.2v.2h-.8v.2c-1.5.1-3.1.2-4.6.3v.2h-1.8v.2h-.2v-.2h-3.8v-.2h-1v-.2h-.2c.2-1.4,1.4-1,2-2h.4v-.2h.4v-.2h.6v-.2h.4v-.2h.4l.2-.3h.4l.4-.5h.6l.4-.5h.4l.2-.3h.4l2.8-1,1.4-.7v-.2h.4v-.2l1.2-.3v-.2h.6v-.2h.4v-.2h.3v-13.3h-.7v.3l-.8.2v.2l-1.4.2v.2h-.4v.2l-1.2.2v.2h-.4v.2l-.6-.2v.2h-.4v.2h-.4v.2h-.4v.2h-.4v.2h-.4v.2h-.4l-.2.3h-.4l-.2.3-2.8.5v.2h-.4l-.2.3h-.6l-.2.3h-.6v.2h-.4v.2h-.6l-.2.3-1.6.8h-.4v.2h-1c0,0-1.8.2-1.8.2v15.9l1.8-.7h0s1.2.2,1.2.2v.2h1.2v.2h.4v.2c1.9.1,3.8.2,5.8.3v.3c-2.1.1-3.9.8-5.8.8v.2l-.8.2v.3c-.7.1-1.3.2-2,.3-.6.1-1.2.2-1.8.3l.2,1.6c.8,0,1.2-.3,1.6-.5.4-.2.8-.3,1.6-.3l.2-.5Z"/>
        <path d="M25.9,103.1h1v-.2h.6v-.2l1.4.2v-.2h.4v-.2h.4v-.2h.6v-.2h.4v-.2h1v-.2h.4v-.2l2.8.2v-.2h.4v-.2l1.8-.2v-.2h.6v-.2l1.8-.2.2-.3h.8v-.2l1.2-.3v-.2h1.3v-22.3l-1.9.4v.2h-.8v.2h-.8v.2h-.4v.2l-1,.2v-.2l-.4.2v.2c-1-.3-2,.5-3.2.5l-.4.2v.3l-3.2.5v.2h-.4v.2h-.6v.2h-.8v.2h-.8v.2h-.6v.2l-.6-.2v.2h-.4v.2h-.4v.2h-.4l-.2.3h-1.6l-.4.7h-.2v20.8l1.8-.2h.6v-.2Z"/>
        <path d="M329.6,54.6h-.2s.3.8.3.8l1.5-1c-.5,0-1,0-1.5,0h0v.2Z"/>
        <path d="M341.2,55.8v-.2h1.4v-.2h3v-.2h1.2v-.2h2.8v-.2h1.8v-.2h1.4v-.2h.8v-.2c1.2,0,2-.6,3.2-.8v-1l-.4-.2-2,.3v.2h-.6v.2h-.6v.2h-.8v.2h-.8v.2h-4.2v.2h-1.2v.2h-3.6v.2h-1.6v.2c-2.4,0-4.8,0-7.2.1v1.5c2.5,0,5-.1,7.4-.1Z"/>
        <path d="M166.5,19.6v.3h-.2v.3l-1.4.8.2.3-.4.2-.8,1v.3l-.4.2v.3l-.4.2-.2.7-.4.2v.3l-1,.7v.3l-.4.2-1,1.6h-.4l-.4.7h-.2l-.4,1h-.2l-.6.7-1,1.1v.3l-1,1h34v-.4l.4-.2v-.3h.2l.2-.7h.2l.2-1h.2l.2-.7h.2l.2-.7.4-.2v-.3h.2v-.3h.2v-.5l.4-.2v-.3h.2v-.3h.2l.2-1,1-.5v-.5h.2v-.3h.2v-.5h.2l.2-.7h.2l.4-1h.2v-.3h.2l.2-.3.6-.2v-.3c.7-.3,1-.9,1.1-1.7,0-.3,0-.7,0-1.1h-31.2l-.2.7h-.2v.3h-.2v.7h-.2Z"/>
        <polygon points="251.1 29.8 251.1 29.6 250.7 29.6 251.1 29.8"/>
        <path d="M304.9,57.9c1.3,0,2.7,0,4,0v-.2h1.2v-.2h1v-.2h.8v-.2h.8v-.2c3.4,0,7-.5,11.1-.5v-.2h.6l.4-1.1.4-.4h-.6v.2h-2.4c.3-1,1.6-1.2,2.6-1.6v-.2h.4v-.2h.6v-.2h2v-.2c.7,0,1.1,0,1.5-.2l.5-.6h2.1v.2c.9-.1,2.2-.2,4-.2v-.2h.2v.2c1.6.3,3.6-.4,4.6-.7l-.4-1c-3.1,0-6,.3-9.2.3v.2h-.6v.2h-.6v.2l-1.6.2v.2l-3.6.2v.2h-.6v.2l-.8.2v.2h-.4l-.8.8h-.4v.2l-.8.2v.2l-1.2.2v.2h-.8v.2h-1.4v.2h-7.8v.2h-.6v.2l-5.4-.2v-.2h-.5l.9,1.6.5,1.9Z"/>
        <path d="M217,21.1l-.2.5c-1.3.2-3.4.5-4,1.5h-.6v.2l-.8.2v.2h-.4v.2h-.4v.2h-.4v.2h-.4v.2h-.4v.2h-.6l-.2.3h-.6v.2h-.4v.2l-1.4.2-.2.3h-.4l-.8.8c-1.4,0-3.7,2.5-4.8,3.3l.4.2-.6.8h-.2l-.2.5c-2.5.4-2,.5-5,.7v.5c0,0,51.1,0,51.1,0v-.2h.2v-.3l.4-.2.2-.7.4-.2v-.3l.4-.2.8-1v-.2h.4l1.2-1.1v-.3l.6-.3v-.3l.4-.2.2-.7.4-.2v-.3l2.8-2.5h.4l.2-.3h.4l1.8-1.8h.6l.4-.5h.4l.2-.3h.4l.4-.5h.4v-.2l.4-.6.6-.9h.2v-.2h-29l-1.3,1.1h0v.6h-.2l-1.4,1.5v.2h.6l-1.6,2.1v.3l-.4.2v.5h-.2l-.4.5c-4.2.7-7.7,1.9-11.7,2.1v.2l-1,.2v.2l-.8.2v.2l-2.6.3v.2h-.4l-.4.5h-2v.2h-.4v.2l-1,.2-.2.3h-.4v.2l-.6.2v.2l-.8-.2v-1.5l1.8-.3,1.4-1.3h.4v-.2h.4v-.2h.4v-.2h.4v-.2l.6-.2v-.3l1.8-.5v-.2h.6v-.2h.4v-.2h.4l.2-.3h.4l1.2-.7v-.2l3.4-.7v-.2l1.2-.3v-.2l1.4-.7h.4l.4-.5h.4v-.2h.8v-.2h.6v-.2l.8-.2v-.2h.4l.6-.7h.4l.8-.5h0v-1.1c-1.6,0-2.1,0-3.6,0v.5h-.2c-.2.2-.3.4-.5.6-.6.8-1.2,1-5.1,2Z"/>
        <path d="M49.7,181.4v-.2h.4v-.2h.4v-.2h.6v-.2h.6v-.2h.6v-.2h.6v-.2h.8v-.2h.4v-.2h.6v-.2h.4v-.2h.8v-.2c2.4,0,6.2-.8,9-1v-.2h.6v-.2h.6v-.2h1v-.2h.6v-.2h.6v-.2l.8-.2v-.2h.4v-.2h.6l.2-.3.8-.2.2-.3h.6l.2-.3.8-.2.2-.3.6-.2v-.2l.8-.2v-.2h.4v-.2l1.2-.3v-.2l1.2-.2v-.2h1.6v-.2h.8v-.2h1.8v-.2h2v-.2c2.3,0,4.6-.2,7-.2v-.2c2.2,0,4.4.1,6.6.2v.2h1.4v.2h1.2v.2h.8v.2h.6v.2h.8v.2h.4v.2c1.7,0,2.5.6,4.4.3.3-1.4-.3-1.6-1.4-2.6h-.4l-.8-.5v-.2l-.8-.2-.2-.3h-.4l-.2-.3h-.4v-.2h-.8v-.2h-.4v-.2h-.8v-.2h-.4v-.2h-1v-.2h-1v-.2h-.6v-.2l-1.8-.2v-.2h-.6v-.2h-.4v-.2h-1.2v-.2h-.4v-.2h-1.8v.2h-.4l-.4.5h-1.4l1.8-1v-.2l.8-.2v-.2l1-.2v-.2l1.4-.2v-.2h1v-.2h.8v-.2h1v-.2h.4v-.2l1.2-.2v-.2h.4v-.2h1.2v-.2h.4l.2-.3,1-.2v-.2h.4l.2-.3h.4l.2-.3.8-.2v-.2h1v-.2h.8v-.2h1.2v-.2h1.4v-.2h3.8v-.2h1.2v-.2h.8v-.2h1.8v-.2h1.4v-.2h1.8v-.2h.8v-.2l2.6-.2v-.2h1.8v-.2l2-.3.6-1.5-.4-.5c-1.9-.3-4.5-.2-6.6-.2v.2h-.4l-1,1.1h-.6v.2c-3.7.1-7.4.2-11.1.3v.2h-.4l-.2.3h-.6v.2h-.6v.2h-1.2v.2h-.6v.2h-1v.2h-1.2v.2h-3.6v-.2h-.8v-.2h-6v.2l-.8.3-.2,1.1-1.2.3v.2c-1.2.3-2-.4-3.6.3v.5c-2,.1-3.5.7-5.6.7l1.4-1.3.2-.3h.4l.2-.3h.4l.6-.7h.4l.6-.7h.4l.8-.8h.4l.2-.3.6-.2v-.2h.4l2.4-1.6.2-.3h.4l2.4-1.6.2-.3h.4l1.6-1.5h.4l.4-.5h.4l1.4-1.1v-.2h.4l.6-.7h.4l.4-.5h.4l.8-.8h.4v-.2l1.2-1h.4l.2-.3.8-.2v-.2l.8-.8h.2l.4-.5h.4l.2-.3h.4l.2-.3h.4l1-1.1h.4l.2-.3,1.6-.8h.4l.2-.3,1-.2v-.2h.4v-.2l1.2-.2v-.2h.4v-.2h1v-.2h.8v-.2h.6v-.2c2.7-.4,1.9-.9,3.6-1.1v-.2l1.4-.8h.4l.2-.3h.4l2.8-2.9-.4-1h-.8l-.2.3h-.2v.3l-3.2,2.6h-.4l-.4.5h-.4v.2h-.4v.2h-.4v.2h-.4v.2h-.4v.2h-.4v.2h-.6v.2l-2,.7.2-.7h.2v-.5l.4-.2v-.3h.2l.2-.7.6-.7h.2l.2-.5h.4l.8-.8v-.3l.4-.2v-.5l1.4-1v-.3l.4-.2,1.2-1v-.2h.2v.2l.4,1.1h.2l.4.7,1.2-.2v-1.5h-.2l-.2-1.6h.2l2.8-1.1v-.2h.4l.2-.3h.6v-.2l.6-.2.2-.5h.2v-.5h.2l-.2-1.1-1.4.5h-.2l-.2.5h-.4v.2l-.6.3h-.2l.4-.7.4-.2v-.3l2.6-2.3v-.3l1.2-1h.4l1-.8v-.3l1.6-1.3h.4v-.2l4-3.1h.4v-.3l1.8-.8v-.3l1.6-.8.6-.7h.4v-.3c1.3-.2,2.3-1,3-1.8h.4l.2-.3h.4v-.2l2.4-1,.2-.3h.4v-.2l2.8-1.6h.4l.2-.3h.4l.2-.3,2-1.1h.4l.2-.3h2.2v-.2l1.2-.3v-.2h.4v-.2l1.8-.3v-.2l2.2-1.3h.4l.4-.5h.4v-.2l1.2-.2v-.2h.4v-.2h.4v-.2l1.2-.3v-.2l3.4-.5v-.2l1.2-.3v-.2h1v-.2h.6v-.2h.6v-.2h.6v-.2l.8-.2v-.2l.8-.2.2-.3,1.4-.2v-.2h.6v-.2h.6v-.2h.6v-.2h.4v-.2h.8v-.2l.6-.2,1-.7v-.2c2.1-.5,4.2-1.7,6.2-2v-.2h.6v-.2h.4v-.2h.6v-.2h.6v-.2h1.2v-.2h.6v-.2l1.4-.2.2-.3h.4l.4-.5h.4v-.2h.4v-.2h.4v-.2h.4v-.2h.6l.2-.3h1.8v-.2h1.2v-.2h2.6v-.2h1.2v-.2h1v-.2h.4v-.2h.6v-.2c1.5-.2,2.3-.6,3.6-1.3l-.4-1.3c-1.4.1-1.4,1.1-3.8,1.3v.2h-.6v.2l-1.8.2v.2l-4.4.3-.2-.5,1.6-2.3h.2v-.3l.8-.5v-.3l.4-.2.2-.8h.2v-.3h.2v-.7h.2v-.8h.2v-.7h.2v-.3h.2v-.3h.2l2-1.5h.4l2.6-1.3,1.4-.7h.6c.6-1,4.4-.7,5.6-.7v-.2l.6-.3v-.3h.2c0-1.2-.5-1.1-1-1.8-1.4,0-1.8-.3-2.8,0v1l-1,.2v.2h-1.4v.2h-.6v.2h-.4v.2h-.4l-.6.7h-.4l-.2.3-2,.3v.2h-.4l-.4.5h-.4l-.4.5h-.4l-.2.3h-.4l-.6.7h-.4l-.6.7h-.2v.3h-.2v.3l-.4.2v.5h-.2v.5h-.2v1h-.2v.8h-.2l-.2.7h-.2v.3l-.4.2v.3l-.8.5v.3l-.4.2v.3h-.2v.3h-.2v.3h-.2v.3h-.2v.3l-2.2,1.1v.2h-.6v.2h-.6v.2h-1v.2h-.6v.2h-1v.2h-.6v.2h-1v.2h-.6v.2h-.4v.2h-.6v.2h-.4v.2h-.4l-.4.5h-.4v.2l-.8.2v.2l-1.2.2v.2h-.4v.2l-1.8.2v.2l-1,.2,1.4-1.8v-.3l.6-.3v-.3h.2l.2-.7h.2v-.7h.2l.4-1h.2v-.3h.2v-.3l3.2-1.5v-.2h.6v-.2h.4l1.8-1.3.2-.3-.2-1.1h-1.2l-2,1.3v.2l-1.2.7-2.6,1.1v.3l-.8,1h-.2v.5l-.4.2v.3l-.4.2v.3h-.2c-.8,2.2-1.6,2.1-3,4.1h-.4l-.2.3h-.4v.2h-.4v.2h-.4v.2h-.4v.2h-.4v.2h-.4l-.2.3h-.4v.2l-1.8.2v.2h-.4v.2h-1.2v.2h-.6v.2h-1.2v.2l-1.4.2v.2h-.4v.2h-.4v.2c-.9,0-1.4.5-2.6.5l1.2-1.6v-.2h.4l.6-.7h.2v-.3l.6-.3v-.3l2.6-2.5h.4l2.2-1.8v-.3l2.6-2v-.3l1-.7v-.2l.6-.2v-.3l2.8-2.3h.4l1.6-1.3.2-.5.6-.2v-.2l.6-.3v-.3h.2l.4-.5h.4l.8-.8h.4l.6-.8h.2l.4-.5h.4l.4-.5h.4v-.2l.8-.5v-.3l6.2-4.4h.4l.4-.5h.4v-.2l1.4-1.1,1.6-1h.4l.4-.5h.4v-.2l.6-.2.2-.3h.4l.8-.8h.4l.2-.3h.4l.2-.3,2.2-1.5h.4l.2-.3,3.4-1.8h.4l.4-.5h.4v-.2h.4v-.2h.4v-.2h.4l.2-.3,2.4-1.1v-.2h.4l.2-.3.8-.2.2-.3h.4v-.2h.4v-.2h.4v-.2h.4l.4-.5h.4l.2-.3,1.8-.5.2-.3.6-.2v-.2h.4v-.2h.4v-.2h.6l.2-.3h.6l.2-.3,1.8-.3v-.2l1.2-.3v-.2c2.5-.9,6.8-2.6,9.7-2v.2h2.2v-.2h.8l1.2-.7.2-.3h.8v-.2l.8-.2v-.2h1.6l.2-.3h2.8v-.2h.4v-.2h.8v-.2h.4v-.2c2,0,4.9.6,6.8.2v-.2l2-.2v.2h1.8v.2l1.6-.2v.2h.4v.2h1v.2h.6v.2h2v.2h.8v.2l2,.2v.2h.4v.2h2.2v.2c4.2-.2,8.4-.2,12.5-.2v.2h1.6v.2h1.6v.2l1.8.7h.4v.2l2.2.2v.2h3.2l-1.5-2.4-2.4-3.4h-2.9v.2h-.8v.2h-.2v-.2l-1.8-.5v-.2h-.4v-.2h-1v-.2l-3-.5v-.3l1.2-.2.2-.3h.4v-.2l3.8.3v.2l1.2.3,1.8-1,.8-.2.2-.3h.6l.2-.3h.4v-1.1h1.2l.8.8h.2v-.2h.6c0,0-.7-1-.7-1v-1.2c0,0,1.3,0,1.3,0l1.1,1.4.2-.3h.6l.2-.3h.4l.2-.3h.8v-.2h.4v-.2h2v-.2h.5v-.9c0,0,1,0,1,0l.5.8h2.5v-.2h.4v-.2h.8v-.2h.4l1-1h1v-.2l.8-.2v-.2h.4l.2-.3c1.4-.2,1.7-.5,2.6-1.3h.4v-.2h.4v-.2h.6v-.2h.6l.2-.3h.4v-.2h.4v-.2h1v-.2h1v-.2h1.4v-.2h2.6v-.2h1.2v-.2h1l.2-.3c2,0,4.5,0,6.4-.2v-.2h.2v-.5h.2v-.2h1.2l.2-.3h.6v-.2h.4v-.2l1.2-.2v-.2l2.2-.2v-.2h1v-.2h1.2v-.2h.4v-.2h1.2v-.2c1.2-.3,2.5,0,3.3-.6h-11.4l.6.3v.3l-2.4,1-.2.3v.2l-1.2-.8-2,.2v-.2h.6l.2-.3h.2l.2-.3h.2v-.3h.2l.6-.3h-174.6l-1,1.1-.4.2v.3l-.8.5v.2l-.4.2v.3c-.9.5-2.1,1.5-2.4,2.5l-1.8,1.3v.3l-.4.2v.3l-2.2,2-1.4,1.1h-.4l-.2.3h-.2v.3l-.4.2v.3l-1.2,1h-.4l-1,.8-1,1.3h-.4l-.8.5-.8.8v.3l-.6.2-.2.3h-.4l-1.6,1.3v.3l-.4.2v.2h-.4l-.2.3h-.4l-1.2,1v.3l-.4.2v.2l-2.4.3v.2h-.8v.2h-1.4v.2h-.6v.2h-1.2v.2h-.6v.2h-.4v.2h-.8v.2l-1.8.2v.2h-.4v.2h-1v.2h-.8v.2h-1v.2h-.6v.2h-1.4v.2h-.8v.2h-1.2v.2h-.6v.2l-2.4.3v.2h-.6v.2h-.4v.2h-.8v.2h-.6v.2h-.8v.2l-2.2.2v.2h-.8v.2l-1.4.2v.2h-.6v.2h-.6v.2l-1.8.2v.2h-.4v.2l-1.2.2v.2h-1v.2h-.8v.2h-.6v.2h-1.2v.2l-1.4.2v.2h-.6v.2h-.8v.2h-.4v.2h-.6v.2h-.6v.2h-.6v.2l-1.2.2v.2l-1.8-.2c0-1.6,1.3-1.1,2-2.1h.4v-.2h.4v-.2h.4v-.2l.8-.2,1.2-1h.4l.2-.3,1.8-1.1h.4l.2-.3.8-.2.2-.3.8-.2,1.6-1h.6l.2-.3.8-.2v-.2l.8-.2v-.2h.8v-.2h.4v-.2h.8v-.2h.8v-.2l2-.5-.8-1.5,2.2-.7v-.2l.8-.2v-.2h.4v-.2l1.8-.3v-.2h.4v-.2l1.2-.2v-.2l1.2-.3,2.8-1.5v-.2h.4v-.2h.4l.2-.3h.4v-.2h.4l.2-.3h.4l1.2-1.1h.4l.2-.3h.2l.4-1.6h.2l.4-.7c2.6-.4,5.2-1,7.8-1v-.2h.8v-.2h.8v-.2h1l.2-.3,2.4-1.3h.6v-.2h.6v-.2h.6v-.2h1.2l.4-.3-.2-.8h-2.6v.2h-.6v.2h-.4v.2h-.8v.2l-.8.2v.2h-.4l-2.2,1v.2h-.6v.2h-.4v.2l-4.4.2-.2-.8-1.4-.2.8-1h.2v-.3l.4-.2v-.5h.2l1-1.8h.4l.2-.5h.2l.2-.8h.2v-.5h.2v-.5h.2v-.3h.2l.3-.3h-2.1v.4h-.3v.5l-.4.2v.3l-.4.2-.2.7h-.2v.3h-.2v.3h-.2v.3h-.2v.3l-.4.2v.3l-.4.2v.3l-2.2,1.8h-.4l-.2.3h-.4l-1.6,1.5h-.4v.2l-.6.3v.3h-.2c-.9,1.2-3.5,1.1-4.2,2.3h-.4l-.2.3h-.4l-.8.8h-.4l-.2.3-.6.2v.2h-.4l-.2.3h-.4c-1.4,1.4-2.5,1.1-3.2,2h-.4l-.2.3c-1.5.4-3,1-4.6,1l-.2.3h-.4v.2h-.4v.2h-.4v.2h-.4l-.2.3h-.4l-3.2,1.6v.3l-.6.2v.2h-.6v.2l-.8.2-.2.3h-.4v.2h-.4v.2l-2.4,1.1h-.4l-.2.3-1.2.3-.2.3h-.4v.2h-.4v.2l-2.2,1h-.4v.2h-.4v.2l-2.8.7v.2l-.6-.2v-.2h-.6v-.2h-.8v-.2h-.2l1-1.5v-.3l.6-.3v-.3l.8-.5v-.3l.4-.2v-.3h.2v-.3h.2v-.3h.2v-.3h.2v-.3h.2v-.3l.4-.2v-.3l.8-.3v-.3l.4-.2v-.3l2.4-2h.2v-.3h.2v-.3l3.4-1.8,1.2-.3.2-.3h.4l.2-.3.8-.2v-.2h1v-.2h.4v-.2h.6v-.2h.4v-.2l.8-.2v-.2h.6v-.2h.6v-.2l.8-.2v-.2h.4v-.2h.6v-.2h.4v-.2h.6v-.2l1-.2v-.2l.8-.2v-.2h.6v-.2h.4l1.4-.7v-.2h.6v-.2l1-.2v-.2h.4v-.2h.6v-.2h.4l.2-.3h.6l.2-.3,1.4-.7h.6v-.2h.4v-.2l1.2-.3v-.2h.8v-.2h.4v-.2h.4l.6-.7h.6v-.2h.4v-.2h.4v-.2h.4v-.2h.4v-.2h.4v-.2l.8-.2v-.2l2-.8v-.2c1.8-.6,3.2-1.4,4.8-2.1h-36.2c0,.1-.6.1-.6.1v.2h-.6v.2h-.6v.2h-.6v.2h-.6v.2h-.4v.2h-.6v.2c-1.3.2-2.7.4-4,.7v.2h-.6v.2h-.6v.2h-.4v.2h-.8v.2h-.6v.2h-.6v.2h-.4v.2l-1.2.2v.2h-.8v.2h-.8v.2h-.6v.2h-1v.2h-.6v.2h-.4v.2h-.6v.2h-.8l-.2.3c-1.8.4-3.6.8-5.4,1.1v.2l-.8.2v.2l-1.8.3v.2h-.4v.2h-.6l-.2.3h-.8v.2h-.4v.2h-1v.2h-.4v.2l-1.6.2v.2l-.8.2v.2l-2,.5v.2l-.8.2v.2c0,0-.1,0-.2,0v12.9h.2v-.2l.8-.2v-.2h.4l.2-.3h.6v-.2h.4v-.2h.6v-.2l.8-.2v-.2l1.4-.2v-.2h.6v-.2h.4v-.2h.8v-.2h.4v-.2h.6v-.2h.4v-.2l1.2-.2v-.2h1v-.2h.6v-.2h.6v-.2h1v-.2h1v-.2h1.6v-.2h.6v-.2h.8v-.2h.4v-.2c2.6-.3,14-3,15.1-2.9-.4,1.6-2.8,1.8-2.8,3.3l-.4.2v.3l-.8.5v.3h-.2v.3l-.4.2-1,1.1v.3h-.2v.3h-.2v.3h-.2v.3h-.2v.3l-.8.5v.3l-.8.8-.6.2-.2.3h-.4l-.2.3-1,.3-.2,2,.8.2.8-.8.4-.2v-.2l2-1-1.8,2h-.4l-.4.5h-.4c-.7,1.2-2.5,1.7-3,2.1l-1.4-.2,1.4-2.3v-.3h.2l-.2-1.6h.2v-.3h.2l-.2-1.3h-.8v.2l-.4.2v.3l-.4.2v.3l-.6.3v.3h-.2l-.6.7v.3l-2,1.1-.2.3-1,.2v.2l-.8.2v.2h-.8v.2h-.6v.2h-.6v.2h-2.4v.2c-2.9.1-5.8.6-8.7.8v2.2h1.2v-.3c4.6-.4,10.1-1.1,14.7-.3v.3l-1,.7h-.4v.2h-.4l-2.6,1.1-.4,1.5c-1.5.3-3.1.7-4.6,1v.2h-.4v.2l-1.8.3v.2h-.4v.2h-.6v.2h-.4v.2l-1.2.2v.2h-1v.2h-.6v.2h-.2v22.9l.8-.8h.6v-.2h.4v-.2h.6v-.2h.4l.2-.3,1.2-.2v-.2h.4v-.2l1.2.3v.2h2.4v.2h.2v-.2h1l2.2-1,1-.2v-.2l1.4.2v.5l-.6.3v.2h-.4l-.2.3h-.4l-.2.3h-.6l-.4.5h-.4l-.4.5h-.4l-.6.7h-.4l-.2.3h-.4l-.2.3h-.4v.2l-.8.5h-.4l-.8.8h-.4l-.2.3h-.6v.2h-.4v.2h-.4l-.2.3h-.4l-.6.7h-.4l-.2.3-1.4.8h-.4l-.2.2v39.5h.4l.2.2c-.1.3-.3.6-.6.8v1.6h.4l.4-.5h.4l1.2-1v-.3h.2v-.3l.4-.2.4-1c3.6-.6,6.8-2.1,10.5-2.6l.2.5h-.2v.3h-.2l-.2.5h-.4l-4.8,4.1h-.4l-2.6,2.3h-.4l-2,1.8h-.4l-.8.8h-.4l-.4.5h-.2v.3h-.2l-.6.4v29.4l.4-.2.6-.2ZM289.5,56.3v.2l.6.2v.2l-.6.2-.6-.7h.6ZM280.9,55v.3c-1.1,0-6.4.6-6.8-.5,2-.6,4.4.1,6.8.2ZM268.8,52.7c1.8-.3,1.1-.7,3.6-.7v-.2c1.3,0,2.5.1,3.8.2v.2l1.4.2v.2h.4v.2l1.6.3v.3h-10.9l.2-.7ZM149.4,80.3l-2,.8,1.4-1h.6v.2ZM149.2,76.7v-.3h.2v-.5l.4-.2v-.3h.2v-.8h.2v-.3h.2v-.7h.2v-.3h.2v-.7h.2v-.5h.2v-1h.2l-.4-2c.3-1.1,2.6-2.5,3.8-2.8v-.2h.4l2-1.3h.4v-.2h.4l.2-.3,1-.7h.4l.2-.3h.4l.8-.8h.4v-.2h.4v-.2h.6l.2-.3h.4l.8-.8h.6l.2-.3.8-.2v-.2h.4v-.2h.4v-.2h.4v-.2h.4v-.2h.4v-.2h.4v-.2h.4v-.2h.4l1.2-.7v-.2h.8v-.2l.8-.2v-.2l2-.3v-.2h.6l.2-.3h.6v-.2h.4v-.2h1v-.2h.4v-.2h.8v-.2h.8v-.2h.4v-.2l.4.2v-.2h1.4v-.2l1.2.3c-.2,1.2-2.1,1.9-3,2.8h-.4l-1.6,1.5h-.4l-.4.5h-.4l-3,2.5h-.4v.3h-.2l-1.8,1.1-.2.3h-.4l-1.6,1.6-2.4,1.8h-.4v.2l-.6.2-.2.3h-.4l-1.6,1.6h-.4l-1.4,1v.3h-.2l-.4.5h-.4l-.4.5h-.4l-1.8,1.6h-.4l-1.8,1.6h-.4l-1.4,1.3h-.4v.2h-.4v.2h-.6v.2l-1.2.3-1.8-.2c0-1.1.6-1,.6-1.8h.2ZM143.4,74.1l1.4-1.8c1-.4,1.3-1.1,2.6-1.3l.4-.7.6-.2-.4.8h-.2v.3l-.4.2-.4,1-.4.2v.3l-.4.2v.3h-.2l-.2.7h-.2v2.3h.2c-.1,1.3-.1,2.1-1.2,3.1h-1v.2l-1.2-.2c-.3-1.2-.3-4.9,1-5.4ZM135.1,78.5l1.2-1.3h.6v.5l-1.4,1.3h-.4v-.5ZM136.1,86.5h.4l3-2.6v-.3h.2l1.2-1.5c.9,0,1.6-1.2,4.2-1.1l-.2,2.1-1.6,1.3h-.2v.3l-.6.3v.2h-.4l-1.2.7-.2.3h-.4v.2h-.4v.2h-.4v.2h-.4l-.2.3h-.6v.2h-.4v.2h-.4l-.2.3c-1.2,0-1.5,1.1-3.2,1.1.2-1.4,1.3-1.4,2-2.3ZM125.9,92.9h-.2l2.4-1.8v-.2h1c-.4,1.2-2.3,1.2-3.2,2ZM104.8,94.2v-.3l.4-.2v-.2h.4v-.2h.4l.2-.3,1.6-.8h.4l.2-.3h.2l.2-.3h.6l1.6-1,.2-.3h.4v-.2h.4v-.2l.6-.2v-.3l.8-.3v-.2c1.6-.8,3.7-2.6,5.8-2.9.3-1.1,2.1-2,3.4-2l.2-.3h.4v-.2h.6c1.1-1.1,1.9-1.4,3.6-1.8v-.2l.6-.2,2.2-1.5h.4l.2-.3h.6v-.2l.4-.7h.2l.2-.3h.4v-.2l.8.2-.2.8-.4.2v.8h-.2l-1,1.1v.3l-1.6,1.1v.3h-.2l-.2.7h-.2v.7h-.2v.7h-.2l-.2.7-1.4,1.1h-.4v.2l-1.8,1.6v.2l-2.2,1.3h-.4l-2.4,1.3v.2h-.4l-1,1h-.4l-1.4,1.1v.3h-.2v.3h-.2v.3h-.2v.3h-.2v.3h-.2v.3l-.4.2-.2.7h-.2l-.4.7-2.6,1.3h-.4l-.4.5h-.4l-.6.7h-.4l-.2.3-.8.2-.2.3h-.4v.2h-.4l-.6.7h-.4l-.2.3h-.6v.2l-1,.2v.2l-1-.5c-.5-1.9-.8-4-.8-6.4l1.4-1.1ZM109.6,50.2l1.2-1h.4v-.2h.4v-.2h.4l.2-.3,3.6-1.8.4.3-.6,1.5h-2.8l-.2.3h-.4l-.2.3h-.8l-1.6,1.1h-.2l.2-.2ZM97.7,55.1l3-.7v.3l-1,.5v.2l-2.2.2.2-.5ZM70.8,174.7l-.8.3v.2l-2.4,1v.2l-2.8.3v.2h-.4l1-.8h.6v-.2h.4v-.2h.8v-.2h.4v-.2c1.1,0,1.8-.9,3.2-1v.3ZM79.4,169.9l-.2-.2c.1-1.3,1.1-.7,2-1.1v-.2l1.2.3-3,1.1ZM92.3,169.8c2.3.3,4.6.7,7,1v.2h.4l.2.3,1.6.7-.4.3v-.2h-.4v-.2h-1v-.2l-2.8-.2v-.2c-4.2,0-8.5.2-12.5.2v.2h-2.6v.2h-.2v-.2h-.2v.2h-1.6v-.2l-.2-.2,1.6-.8,1.6-.2v-.2h.6v-.2h.4v-.2l3.6.2v-.2c1.6-.4,4,.5,5-.3ZM83.6,166l.6.5v.3h1l.2-.5h.2v-.3h.2l1-.8v-.2l1.8.8.8-.7h.2l.2-.5c1.9-.3,3.4-.7,5.2-.7v-.2h.8v-.2h.6v-.2l1.8.2c-.6.8-4.9,2.2-6,1.1l-1.4.7v.2l-1,.2c-1.5,1.9-9.4,1.6-12.3,1.6v.2l-2.2.5h-1v-.2l1.4-.5v-.2h.4v-.2c2.4-.2,5.3-.5,7.6-1.1ZM81.2,63.2v-.2l1.2-.3v-.2h.4v-.2h.6l.6-.7,2.4-.8v-.3l3.2-1.5h.4v-.2l.8-.2v-.2l1-.3h.2l-4,2.6-.2.3h-.4v.2h-.4l-.6.7h-.4l-.2.3h-.4v.2h-.6l-.2.3h-.6v.2l-.8.2v.2h-1v.2h-.4v.2h-.6v.2h-.4v.2h-.6v.2h-1v.2h-.8l2.8-1.1ZM82.6,65.9l-.2.5-1.4.3v-.3l1.6-.5ZM73.6,115.2l.4-.5h.4l.6-.7h.4l.6-.8h.4l.2-.3c1.7-.5,2.2-1.8,3.8-2.1l.2-.3h.4l1.8-1.1v-.2l.6-.2.2-.3h.4l.2-.3h.4l2.4-1.8h.4v-.2h.4v-.2h.4v-.2h.4l2-1.3.2-.3.8-.2.2-.3h.4l.4-.5h.4l.4-.5h.4l.2-.3h.4l.4-.5h.4l.2-.3c1.4-.3,2.5-1.5,3.6-2.3v-.3h.2v-.3l.4-.2.2-.7,1.4-1.1.8.2c.3,1.6.6,3.7.6,5.2h.2v1.1l-.4.2-.2.5h-.4v.2h-.6v.2l-.8.2v.2h-.4v.2h-.4l-.4.5h-.4v.2h-.4v.2h-.4v.2h-.4l-2,.8v.2h-.4l-.2.3h-.4l-.2.3h-.4l-.2.3h-.4v.2h-.4v.2h-.4v.2h-.4l-.2.3h-.4v.2h-.4v.2h-.6v.2h-.6l-.2.3h-.4l-.2.3h-.4l-.2.3h-.4v.2h-.4v.2h-.4v.2h-.4v.2h-.4v.2h-.4l-.2.3h-.6v.2h-.4v.2h-.4l-.2.3h-.4l-.4.5h-.4v.2h-.4v.2h-.6v.2l-1.2.3v.2l-1.2.3v.2h-.4v.2h-.4l-.2.3h-.4l-2,.8v.2h-.4v.2h-.6v.2h-.4v.2l-2.2.7-.2-.7,1-.7ZM70.8,69.5v-.2h1.2l-.4.7-2,.5,1.2-1ZM65.1,71.2l1-.5h.4l-.4.7h-.4v.2h-.4v.2h-.4l.2-.5ZM57.3,177.1l.8-.3v-.2h.4v-.2h.4v-.2h.4v-.2h.4l.6-.7h.4l.2-.3.8-.2.2-.3h.4l.4-.5h.4v-.2h.4v-.2h.4v-.2h.4l1.8-1.1h.6v-.2h.4v-.2l.8-.2v-.2l1.4-.2v-.2h.6v-.2h1v-.2h.8v-.2h1.4v-.2h.6v-.2l2.6-.2c-.4,1.2-2.1,1.2-3.4,1.6v.2h-.4v.2h-1.2v.2h-.8v.2h-.4v.2h-.6v.2h-.4v.2h-.4v.2l-1.2.3v.2l-2,.3v.2l-.8.2v.2h-.6v.2l-1,.2v.2l-.8.3-.2,1.5c-1.8,0-3.1.7-4.8.7v.2h-.2l.2-.8Z"/>
        <rect x="321.9" y="21.1" width="1" height=".2"/>
        <path d="M271.4,20c-1.6,1-3,2-4.4,3.3h-.4l-1.6,1.3h-.4l-2.6,2.3h-.4l-.2.3-1,.2-.4.5h-.4l-1,1.1h-.4l-.6.7h-.4l-.6.7h-.4l-.6.7h-.4l-.2.3h-.2l-.2.3-.8.2-.2.3h-.4l-.2.2h23.1l.7-.7h.4l2.4-2v-.3l.8-.3v-.2h.4v-.2l.8-.7h.4l.4-.5h.4l.4-.5h.4v-.2l.4-.2v-.3l.4-.2v-.2l1.2-1h.4l.8-.8h.4l1.4-1.3h.4l2.6-2.3h.4l.8-.7v-.3l.9-.6.4-.3v-.8h-21.1l-.8.8-.3.3-.7.6v.3Z"/>
        <path d="M306.6,20.3v.3l-.4.2v.2l-1.2.7h-.4l-1,1h-.4l-.2.3h-.4v.2l-3.6.7-.2.3h-.4l-.2.3h-.4l-.8.8h-.4l-.8.5v.3l-1,1.1-1.8,1.5h-.4l-.2.3h-.4l-.2.3h-.4v.2l-1.6.2.2.5h-.2l-1.4,1-.8.2-.2.3-1.6.2v.2h-.6v.2l-1.4.2h0s58.3,0,58.3,0h0s-.2,0-.2,0v-.2l.8-.2v-.2h1.6v-.2h.2v-.2h.2v-.3h.2v-.3l1.6-1.5h.6v-.2h.6l.2-.3,1.2-.2v-.2h.4v-.2h.4l.2-.3h.4l.2-.3h.4v-.2h1.6v-.2c2.6-.6,3.1.7,3.6.8v.2h-.6l-.2.3-1,.2v.3l-1.8.5v.2h-.8l-.2.3-1.8.5v.2l-.8.2v.2h-.6v.2h-.6v.2l-.8.2v.2h-1v.2l-2.4.3h0s12.5,0,12.5,0h.2v-.2l1.2-.3v-.2h.4l1.4-.7v-.2h.4v-.2l1.2-.3v-.2h.6v-.2h.4v-.2h.6v-.2l.8-.2v-.2h.4v-.2l1-.2v-.2h.4v-.2h1v-.2l.8-.2v-.3h.2l1,.2v-.2l2-1.5h.4v-.2h.4v-.2h.4v-.2h.4v-.2h.4l.2-.3h.6v-.2h.6v-.2h.6v-.2h12.3v.2h1.8v.2h1.4v.2h.8v.2h.8v.2h.6v.2l5.4.2-.4-1.1c-7.5-1.1-15.5-1.7-23.5-1.3v.2l-1.2.2v.2h-.4v.2h-.6l-.2.3h-.4l-.2.3h-.4v.2h-.6v.2h-.4v.2h-.4l-.2.3-.6.2v.2h-.4v.2h-.4v.2h-.6v.2h-.4v.2l-1.8-.2v.2h-.6v.2l-.8.2v.2l-2,.2v.2h-.4v.2l-.8.2v.2h-.8v.2l-1.4.2v-.8l.4-.2v-.8l.6-.2v-.2h.4v-.2h.4l.2-.3.8-.2.2-.3h.6l.2-.3h1v-.2h1v-.2l.8-.2v-.2h.4l1.6-1,1.8-.8h.8v-.2h.4v-.2l1.6-.2v-.2h.4v-.2l3.2-.8.2-.5,2-.5v-.2h.4v-.2c.9,0,1.8-.3,2.6-.6.6-.2,1.2-.3,1.9-.4v-.7h-49.9c-.2.9-.8.6-1.2,1.1,0,0-.1.1-.2.2h-.6l-1.4,1.1h-.6l-.2.3h-.4l-.4.5h-.4l-.2.3h-.4v.2l-1.4.2v.2l-.8.2v.2l-.8.2-.2.3h-.4v.2h-.6v.2h-.4v.2h-.6v.2l-1.2.3v.2h-.4v.2h-.4v.2l-.8.2-.2.3-.8.2v.2l-1.6.2v.2l-.8.2v.2h-.6l-.2.3h-.4v.2l-1.2.2-.2.3-2.8.5-.2.3h-.4v.2l-1.6.2c-.9,1.1-2,1.1-3.4,1.5v.2h-.4v.2h-2l.2-1h.4v-.3l1-.5v-.2l.8-.2.2-.3h.4v-.2h.4l.6-.8h.4l.2-.3h.4v-.2l.4.2v-.2h.4l.4-.5h.4l.2-.3h.4v-.2l1-.7v-.3h.2l.4-.5-2-.3-1-.5c.9-.5,1.3-1.3,2.6-1.5v-.2l.4.3,3.7-2.2.4-.3.2-.8c-1.8,0-3.4,0-4.8,0l-.4.8-1.4.2h0c0,0-.4,1.1-.4,1.1l-.4.2ZM297.8,30l-1.6.7.2-.5,1.4-.5v.3ZM357.3,29.5v.2h.2v.3l-.6.2-.2.3c-1.3,0-1.9,1.1-3.6,1.1.4-1.1,3-1.2,3.8-2.1h.4ZM301.4,27.2l-.6.3h-.2l.6-.5v-.2h.2v.3Z"/>
        <path d="M25.9,191.4h.4l.2-.3.8-.2v-.2l.8-.2v-.2l1.4-.2v-.2l1.2-.2v-.2h.4v-.2h.8v-.2l.8-.2v-.2h.4l.2-.3h.4l.2-.3h.4l.2-.3h.4l.2-.3h.4v-.2h.4v-.2h.6v-.2l.8-.2v-.2h.4v-.2h.6v-.2h.4v-.2h.4l.2-.3,1-.2.2-.3h.4v-.2h.4v-.2h.4v-.2h.6l.2-.3h.5v-28.6l-.9.6-.2.3h-.4l-.6.7h-.4l-.6.7h-.4l-.2.3h-.4l-.4.5h-.4l-.2.5h-.2c-.8,1-2.2.4-2.6,1.6l-2.2.5c0-2.8.8-4,1-6.1l.2.3h.2v-.7h.2l.2-.7.4-.2v-.3l.4-.2v-.3l2-1.5v-.3h.2v-.3h.2v-.3h.2v-.3h.2v-.3l.4-.2v-.3l.6-.3v-.2h.4l1.4-1.3h.4c.2-.4.8-.7,1.5-.9v-1.5c-.3,0-.6.1-.9.2v.2l-.8.2-.2.3-.8.2v.2l-.6.2-.2.3h-.4l-.6.8h-.4l-2,1.6v.3h-.2v.3h-.2v.3l-1.6,1.1v-.2h-.2c0-1.3.6-1.7.6-2.9h.2l.2-1.1h.2v-.7h.2v-.3l.6-.3v-.2l1.6-.2v-.2h.6v-.2h.8v-.2h.8v-.2h1.6v-.2l1.7-.2v-37.3h-.3l-1.6,1h-.4l-.4.5h-.4l-.4.5h-.4l-.6.7c-1.5.2-1.8.4-2.8,1.3h-.4l-.2.3h-.4c-1.2,1.1-2.4,1.6-3,2.3h-.4l-.2.3-.8.2-.2.3c-1.4.3-2.2,1.4-3.2,2.3h-.4l-.8.8h-.4c0,0-.6-.2-.6-.2l-.2-.3-.8.2c-.8,3.7-.2,27.1-.2,30.9l1.8-.5h.4c0-.1.4-.1.4-.1v-.2l1.8.2v-.2l1-.2v-.2h.4v-.2h1.6v-.2h.4v-.2l1.2-.2v-.2l1,.2c-.8,2.4-1.3,4.7-1.6,7.2h-.2v.3h-.2v.5h-.2v.3h-.2v.5h-.2v.3h-.2v.5h-.2v3.4h-.2v1h-.2v1h-.2l-1,1.3h-.4l-.2.3h-.4v.2h-.6c-.7.8-1.2,1.1-2,1.3-.5.1-1,.2-1.8.3v25.7h1.8v-.2h.6v-.2Z"/>
        <path d="M215.1,521.8l15.4-.6-41.7-32.5h-14.3l-39.8,32.5,15.5.2,10.8-9.2,44.2.5,9.9,9.2ZM164.1,508.1l18.2-13.9,17.2,14.2-35.4-.3Z"/>
        <path d="M306.4,520c9.5-2.1,15.2-4.3,19.3-9l-13-.5c-3.5,2.4-6.4,4.6-11.7,5.8-5.4,1.3-11.5,1.9-18.4,1.9-9.9,0-15.9-1.6-22.4-4-6.5-2.5-9.7-5.7-9.7-9.5s3.2-7,9.7-9.5c6.5-2.5,12.5-3.4,22.4-3.4s12.3.5,17.5,1.6c5.2,1.1,8.7,2.2,11.3,5l12.7-1c-4.8-4.6-12.5-6.2-19.2-7.5-6.7-1.3-14.1-2-22.2-2-13.1,0-24,1.6-32.6,4.8-8.6,3.2-12.9,7.3-12.9,12.2s4.3,9,12.9,12.2c8.6,3.2,19.5,4.8,32.7,4.8s16.9-.4,23.9-2Z"/>
        <rect x="345.6" y="488.7" width="11.9" height="32.6"/>
        <path d="M452.8,493.2c-8.5-3-19.7-4.5-33.5-4.5h-37.7v32.5h37.7c14.1,0,25.4-1.5,33.7-4.4,8.4-2.9,12.5-6.9,12.5-11.7s-4.2-8.8-12.7-11.8ZM442.5,515c-6.2,2.2-12.4,2.4-23.2,2.4h-24.3v-25h24.3c10.6,0,16.7.7,23.1,3,6.3,2.3,9.3,5.8,9.3,9.5s-2.9,7.8-9.2,10Z"/>
        <path d="M298.1,45.7v.9c0,0,0,.1,0,.1l1.2,1.3v1.8l-1.1-1.6-.5-.6-.4-.4h-1.3l-.4,2.4-.4-1.5h-.9l.5,1.7-.9-.5-1-1.2-1.1-1.4h-1.4c0,0,0,1.1,0,1.1l.7.9.8,1-.4.5-1.1-1.2-.8-.8h-1.1v1.1c-.1,0-.2.5-.2.5l-1.4.3-.2,1.1,1,1.4,2.4,3.4,1.5,2.4.4.6,1.3.5.6,1.6,1.1.9.4,1.1.4,1.6-6,1.6-4,2.4-5.2,3.6-2.3.5-2.4,1-1.4.5-.9,1-.7.3-1.1,1.2-1.1,1v1.5c0,0,0,.5,0,.5h2.3l.5,2.2.5,1.2h1c0,0,.5-1.6.5-1.6l1.9-2.5.5-.7.4-.2v1.7c0,0-.6.4-.6.4l.3.8h.5c0,0,2.7-3.1,2.7-3.1h1l1.1.2,2.3-2.6h.9v.6c0,0-2.9,2-3.3,3.7l-.4,2-.3,1.2-.4,1h-.5c0,0,0,2.6,0,2.6l.7.5v2.2l-5.3,6.8s-2.1,3.5,0,3l1.8.3.6.5s-.7,3.7.3,4.8l1.2,1.6v.5c0,0-20.3,6.9-20.3,6.9,0,0-1.6,3.8.4,4.4l2.6-.5,17.3-5.9s-.3,3.1,2.2,2.4l-.3,4.1s-.7,4.3,3.6,3.3l1.6.2h2.4c0,0,5.8-.5,5.8-.5l6.7,7.2v1.1s-8.9,12.5-8.7,15.5l-.3,10.7s-3.3,2-4.1,4.6v2.8c-.1,0-2,.8-3,3l-.2,1.4s-2.4.9-3.6,3.3h-1.4c0,0-2.8.5-2.8.5l-.2,3.6s-3.7-4-5.7-.9l-4.3.4-4.3.2-4.2.5s-1,2.1-3.6,0l-10.3-.2s-4.2-5.9-7.5-1.1h-1.4c0,0-.3-.6-.3-.6h-3.5c0,0-.7.7-.7.7h-1c0,0-3.9,0-3.9,0l-.9.5-.5,2.4-2.2.7-4.4,1.5-4.6.9s-3.1-.2-3.5,1.3l-4.2,4.3s-2.3,1.6-3.2,6l-.4,7.2s1,3.4,2.3-.8l.4-1.8.4-1.2.7.3v.9l-.5.8-.5,1.3v3.7c0,0,.3.7.3.7l.2.5c-11.9,1-24.6,2.4-27,3.8,0,.2-3-1-18.3,26.2l-8.3-6.9.2-.7s5.8.4,4.7-5.4c0,0-1-8.8-7.7-12.8,0,0-11.9-1.6-15.2,7.7,0,0-1.8,9,8.5,12l4.7.3,2.7,7.7,2.3,1.9.2,2.2s-12.9,11.8-1.3,30.2c0,0-1.4,5.5,0,9.9,0,0-.2,2.2,3.4,6.2,0,.3,2.8,9.2,5.5,14.1,0,0-26,10.5-13.4,14.5v1.1s-22.2,25.3,7.3,56.4c.2.2,28.4,30.2,62.8,8.3l5.9,4.3s-15.4,32.9-12.6,44.1l-2.3,6.2s-2.3,2.3-4,7.4c0,0-5.9,3.3-8,5.6.2.2-8.6,2.3-10.5,4.8-.2,0-5.7,1.5-8.6,4.4l-7,1.4s-6.3.4-7.4,3.7l-3.3,6.5s-2.5,6.7,28.4,10.3c0,0,6.1,3.6,29.4-7.7l1,2.6s16.2,2.6,22.8-4.6l-1-4.6s7.9-1-1.5-24.2v-5.2l19.5-36.6.2-3.4-3-2.1v-2.3s2.5-.8,1.8-3.1l1.5-1.5,1.8-.3.5,1.5s-.5,2.3.5,3.6v3.9l-4.6,9.5-4.3,8.8-4.1,9s.2,2.3-1.5,3.1l-2.3.8s-2.3,4.1,3.3,3.1c0,.3,6.9.3,2.8-3.1,0,.3-3.8,2.1,2-6.2l5.1-8.2,2-3.1,2,.5,4.1-4.9,2.8-4.9s2.8-11.9,10.9-12.1c0,0,3.8,5.7,6.3-.5l2.3-2.6,6.8,1.8s6.6-2.6,13.5,4.6h2.8s.3,2.3,4.3,2.3-1.3,1.6,4.3,2.6c0,.3,1.3,1.8,2.8,1.8,0,.3.8,2.1,3.3,1.8,0,0,3,3.1,5.6,2.8,0,0,2,2.3,3.8,1.8l2,.3s15.5,51.8,73.6,53.9c0,0,49.7,1.3,52.3-61.6,0,0-2.5-72.7-74.4-77.6,0,0-17.5-1.5-37.6,13.4l.5-9.5-1-1.8-8.6-3.1s4.8,1.8,16.8-8c-.3.3,25.4-20.4,59.6-30.2.2,0,10.4-1.8,11.4-8.5.2.3,15.7-3.6,23.3-10.6,0,.3,5.3-6.2-3.8-17l.5-2.3-.5-2.6s10.4-15.7-.8-14.4c0,0-5.3-4.1-65,7.5l-.8-4.4s14.5-2.8,13.5-29.4l-.5-33s1.8-2.8-5.6-10c0,.3-6.3-6.7-9.9-8.2,0,.3-13.2-14.4-18-16.7,0-.3-13.7-10.6-17.8-12.9l-2-.5-4.6-3.3-6.1-.3-1.3-.8v-1c0,0,.6-.6.6-.6l.9.7.7.8v-6.1c0,0-.4-1.6-.4-1.6l-.5-.4v-.8h.8l.3,1.1.4-.2.3,1.9.6.3v.5c0,0,.5,0,.5,0v-4.3l-.8-.3-.4-.8-.2-.8-.7-1.5-.2-1.6.5-.2.4,1.1.6,1.3,1.3,2.3.2,3.1h.8c0,0,0-5.5,0-5.5l-.2-1.9h-.6v-1h-.4v-.9l-.7-.6v-.7h.8l.3.5.4.9.7,1.1.4.3.2,2.7h.7c0,0,.2-3.2.2-3.2v-2c0,0-2.2-2.4-2.2-2.4v-1.3h.8l1.4,1.2,1,1.8.5,1.7,1.3,1.6,1,.6.2-1.8-1.1-1.3-1.4-2.1-.5-1.6-.7-.9-.4-.3-1.5-1.5-.9-.5-1.5-1.3-.8-1-.2-2.2-.8-1.4-.3-1.3h.7l.7,1.9.4,2.1.5,1.2h1v-1.7l-.2-1.8.8,1,.4,1.2v1l.4,1.7,1.2.5v-4l-.5-1.2-.5-1.6-1.3-1.2-.2-.8-1.5-.9-.8-1.5-1.3-.5-.2-2.1s-4.9-4.1-8.9-4.8v-1c0,0,.4-.5.4-.5l2.2-2.3,1.3-.2,2.2-2.6,2.9-2.5h.9c0,0,.6-1.8.6-1.8l.2-.9h-.9v-.2s-.2-1.5-.2-1.5v-.2s-2.4,0-2.4,0h-.2c0,.1-1.5,1.1-1.5,1.1l-.3-.7h0s.1-.2.1-.2h0s.7-.6.7-.6l.9-.6.7-.3v-1h-2.1l-.5.6-.2.3-1.5,1.3-1.4.2-.9.4-.2.2-.4.4-.4,1.1v.3c0,0-1.3,1.1-1.3,1.1l-1.1.9-.9,1.5-1.9,2.6-.5,2.9s-4.7-2.8-13.7-2v-5.1l-.2-.6-.5-1.9-.9-1.6-.5-.9.2-2.8-2.7-2.7-.8-1.4-.5-.8h-1.1ZM159.1,338.3s-.5-9.8,6.3-17c-.3,0,2-1.8,6.1,1.5,0,.3-3.6,1.8-2.5,5.2.3,0-7.6.5-9.9,10.3ZM166.4,343.1v4.8c0,0-.7,0-.7,0v-1l-.5-.2v-4.4h1.4c0-.1,0,.5,0,.5l-.4.3ZM171.8,348.3c-4.8-.2-2.8-4.4-2.8-4.4l1.5-.2c-.7,2.3,2,3.9,2,3.9l-.8.7ZM180.3,361.3c.2.2-4.4-.6-2.7-4.4,0,0,1.3,2.1,3-1,0,0,3.2,2.9-.4,5.4ZM185.1,359.6v-1.5c0,0,.4-.7.4-.7v.3s1.4,1.6,4,1.7v1.9c0,0-2.6,2.1-4.4-1.7ZM186.6,364.9v-.8c0,0,2.7-.1,2.7-.1l1-.6.8-.6h.9l.2,1.2c-2.3,1.7-5.5.9-5.5.9ZM195.3,359.9h1.5c0,.1-.2.7-.2.7h-1.4v-.7ZM205.2,367.6l-2.1-1.5h-.9c0,0,0,1.3,0,1.3l.4,1.5h-.9c0,0-.2-.6-.2-.6h-1.1s-.9,1.9-4.1,1c0,0,3.4,0,5.9-4.4l3.3,2.6-.4.2ZM209.2,202.1l.2-2.7.4-1,.6-1.2.9-.4.3,2.6,1.1,1.4.2.9c-1.2,0-2.4.2-3.6.3ZM227,231.1h-.4c0,.1-.2.8-.2.8l-.2-.6h-.3v.8c-1-3.3-4-3.4-4-3.4l.6-.2c1.4-1.6,3.2-1.8,3.2-1.8l.7.9.6,1v2.4ZM228.6,226.2v.5c-.1,0-1-.1-1-.1v-.3c0,0,.5-.4.5-.4v-.3c0,0,.5-.5.5-.5l.5.5v.6c0,0-.5,0-.5,0ZM228.9,200.6s-5.8.4-13.4.9h0c0,0,.4-1.2.4-1.2l.3-3.5s.5-5.2,3.1-4.2l.5-.6.5-.5.7-.6,1.5-.2.7-.5,1.2-.2,1.1-.3.9-.7.7-.4.7-.4h.7l.3.6h1.2l.2-.6h1v.6c0,0,2.7,0,2.7,0l.5.2,1.5.3,1.1.4.3.4s-.4,3.7,3.2,4.2h4.8c0,0,0,1.2,0,1.2l-11.6.8s-3.7.2-4.6,4.2ZM242.8,221.1l-7.4-5.2,8.6-4.1,3,2.1-4.3,7.2ZM429.7,385.9c4.5,12.6,2.8,20.3,2.9,20.2-1.4,1.3-7-6.8-7-6.8l-.2-1.4c4.1-.5,4.5-12.1,4.4-12.1ZM416.3,374.9c-1.3-3.3-5.2-3.7-5.2-3.7,4.4-2.6,5.1,3.3,5.2,3.7ZM403.6,352c3.4.9,5,3.9,4.9,3.9-1.5-1.8-6.1-1.6-6.1-1.6l1.1-2.2ZM401.4,420.8c5.1-1,6.5-7,6.5-7l.7-.7,1-.4c4,1.8,7.9-1.3,7.9-1.4,6.3,7.8,4.3,11.3,4.3,11.2-3.7,4.7-11,2.7-11,2.7v-2.2c-.1,0-.7-.3-.7-.3l-.2-.5h-.6v.6h-.6v2.2c-4.6-.3-7.7-2.7-7.7-2.7l.5-1.6ZM398.7,412.5v2.5c-5.6,5.6-12.1-1-12.1-1v-2.8c5.4,2.8,12.1,1.3,12.1,1.3ZM388,351.3l-2.5,7.5-9.8-3.1c6.8-5.8,12.3-4.4,12.3-4.4ZM364.7,195l2.1.7c-5,4.4-1.1,15.3-1.1,15.3l-.5.9v2.2l-.7,1.1-.4.7,2,2.9-.2,2.5v4.2l-.7.9-1.1.3c-4.3-18.5.5-31.8.5-31.8ZM325.7,329.8s.8,3.1,3,5l-4.9,2.3-.8-6.1,2.7-1.3Z"/>
        <path d="M42.9,146.2v418.7h518.5V32.3H42.9v113.9ZM48.8,181.7V37h506.8v523.1H48.8V181.7Z"/>
      </g>
    </g>
  </g>
</svg>