<?xml version="1.0" encoding="UTF-8"?>
<svg xmlns="http://www.w3.org/2000/svg" version="1.1" viewBox="0 0 600 600">
  <!-- Generator: Adobe Illustrator 29.3.1, SVG Export Plug-In . SVG Version: 2.1.0 Build 151)  -->
  <defs>
    <style>
      .st0 {
        fill: none;
      }

      .st1 {
        fill: #fd4521;
      }

      .st2 {
        fill: #e9ebed;
      }

      .st3 {
        display: none;
      }
    </style>
  </defs>
  <g id="Layer_1" class="st3">
    <polygon id="Background" class="st2" points="0 0 0 258.1 0 341.9 0 600 600 600 600 341.9 600 258.1 600 0 0 0"/>
  </g>
  <g id="Layer_2">
    <rect class="st1" x="-8.5" y="-8.5" width="617" height="617"/>
  </g>
  <g id="Layer_3">
    <g>
      <path class="st0" d="M177.1,340.4c-4-.1-7.4,1.4-10,4.5-.4.5-.6,1.1-.7,1.9,0,3.4,0,13.8,0,31.4,0,0,0,0,0,0,0,0,0,0,0,0,0,0,0,0,0,0,0,0,0,0,0,0,0,0,0,0,0,0,0,0,0,0,0,0,0,0,0,0,0,0,0,0,0,0,0,0s0,0,0,0c5.9-.1,11.4-.5,16.6-1.1,4.3-.5,7.7-3,8.8-7.2,1.1-4,1.7-8.3,1.2-12.3-1.2-8.5-6.3-17.3-16-17.5Z"/>
      <path class="st0" d="M199.4,247.1c-1.6-1.1-3-2.1-4.3-3.1-.2-.2-.3-.4-.1-.7,1.1-1.6,2.9-2.3,4.8-3,0,0,0,0,0-.1l-7-22.2s0,0,0,0c0,0,0,0,0,0,0,0,0,0,0,0,0,0,0,0,0,0,0,0,0,0,0,0,0,0,0,0,0,0,0,0,0,0,0,0,0,0,0,0,0,0,0,0,0,0,0,0,0,0,0,0,0,0,0,0,0,0,0,0-.3.5-.6,1-.8,1.6-3.5,10.1-6,17.6-7.5,22.4-.5,1.7-1.3,4-.2,5.3.6.7,1.3,1.3,2.2,1.8,5,3.1,9,6.1,14.4,3.7.3-.1.8-.5,1.4-1.1.1-.1.2-.2.2-.4.4-1.7-1.3-3.3-2.6-4.2Z"/>
      <path class="st0" d="M213.3,303.9c-7.2-.2-14.8,0-22.8.7-7.9.7-15.5,1.7-22.6,3.1,0,0-.1,0-.2,0,0,0,0,0,0,0,0,0,0,0,0,0,0,0,0,0,0,0,0,0,0,0,0,0,0,0,0,0,0,0,7.7.7,15.3.8,22.9.1,7.6-.6,15.2-2,22.6-4,0,0,0,0,0,0,0,0,0,0,0,0,0,0,0,0,0,0,0,0,0,0,0,0,0,0,0,0,0,0,0,0,0,0-.2,0Z"/>
      <path class="st0" d="M445.1,268c.3,1,1.2,2,2.4,1.6,1.2-.3,2-.4,2.6-.3,0,0,.2,0,.2-.1h0c0-.1,0-.1,0-.2,0,0,0,0,0,0,0,0,0,0,0,0,0,0,0,0,0,0,0,0,0,0,0,0,0,0,0,0,0,0,0,0,0,0,0,0,0,0,0,0,0,0,0,0,0,0,0,0l-4.7-1s0,0-.1,0c0,0,0,0,0,0,0,0,0,0,0,0,0,0,0,0,0,0,0,0,0,0,0,0,0,0,0,0,0,0,0,0,0,0,0,0,0,0,0,0,0,0,0,0,0,0,0,.1Z"/>
      <path class="st0" d="M451.3,309.4c4.1,4,9.8,5.7,15.5,5.5,7.4-.2,14.2-1.9,20.4-5.1,2-1,2.7-3.8,2.4-5.6-.4-2.1-1.4-3.8-3.1-5-1-.7-2.8-1.3-5.3-1.7-3.8-.7-7.6-1.3-11.6-1.9-1.5-.2-2.9-.3-4.2-.2-3.7.4-7.8,1-11.4,2.6-1.3.6-2.3,1.3-3,2-2.7,2.9-2.6,6.7.2,9.5Z"/>
      <path class="st0" d="M339.9,306.3c1.5.4,2.5.6,3,.6,6.2.3,11.8.5,16.9.8,7.8.4,12.6.4,21.4.7,2.6,0,4.8,0,6.7-.4,9.1-1.7,18.5-4,28.3-7.1,3.2-1,5.9-1.9,8-2.8,4.2-1.7,9.4-3.9,15.6-6.6,0,0,.1,0,0-.2,0,0,0,0,0-.1,0,0,0,0,0,0-.7-.3-1.5-.9-2.6-1.8-2.2-1.9-3.3-4.3-3.3-7.2,0-3.3,1-6,3.7-8.1,1.6-1.2,3.4-2.3,5.5-3.2.3-.1.4-.4.4-.7-.4-1.4-.7-3.9-2-5.3-2.6-2.9-6.3-5.3-10.3-6-1.3-.2-1.2-1.3-.8-2.3,0,0,0,0,0,0,0,0,0,0,0,0,0,0,0,0,0,0,0,0,0,0,0,0,0,0,0,0,0,0,0,0,0,0,0,0,0,0,0,0,0,0,0,0,0,0,0,0,0,0,0,0,0,0,0,0,0,0,0,0,0,0,0,0,0,0-3,.6-5.9,3.1-5.9,6.2,0,3.4,0,9.3,0,17.6,0,2.7.6,5.3,3.7,5.5,2.1.1,3.4.2,3.8.3,1.7.2,2.1,1.4,2,3.1,0,1,.2,2.8-.2,3.6-.4.7-1.1,1.1-2.1,1.1-6.5,0-12.1,0-16.9,0-1.4,0-2.9,0-4.7-.2-2.5-.2-4.1-.3-4.7-.3-4.4.3-7.2.4-8.4.4-.6,0-1.1-.2-1.6-.5-.3-.2-.5-.5-.5-.9-.1-1.7-.3-4.1.3-5.7,0-.1.2-.2.3-.3.9-.2,2.4-.3,4.5-.5,3.4-.3,4.3-2.4,4.3-5.4,0-9.9,0-16.1,0-18.6,0-1.8-.8-3.1-2.2-3.8-.5-.3-2.4-1.3-5.7-3.1,0,0,0,0,0,0,0,0,0,0,0,0,0,0,0,0,0,0,0,0,0,0,0,0,0,0,0,0,0,0,0,0,0,0,0,0,0,0,0,0,0,0,0,0,0,0,0,0,0,0,0,0,0,0,0,0,0,0,0,0,0,0,0,0,0,0l7.7-3.6c.1,0,.2-.2.2-.3,0-2.5,0-4.8-.1-6.7-.2-2.9-1.2-5.5-3.9-6.7-2.7-1.2-6.6-1.5-9.3-1.1-2.9.5-5.6,2.2-7,4.8-1.6,2.9-2.7,6.2-3.9,9.6,0,.1,0,.3.1.3,2.2.9,4.3,1.8,6.1,2.8.4.2.8.5,1.1.9.2.3.2.7,0,.9-.9.8-2.2,1.1-3.2,1.6-2.6,1.3-4,3.6-4,6.9,0,1.1,0,3.9.2,8.4,0,.7-.1,3.7-.5,9,0,.7,0,1.4.2,2.1.9,3,7.4,1.6,9.2,3.6,1.1,1.3.7,4.1.3,5.6-.1.4-.4.7-.8.9-1.1.3-2.2.5-3.2.5-9.6,0-21,0-34.2,0-1.6,0-3.1.2-4.4.5,0,0,0,0,0,0,0,0,0,0,0,0,0,0,0,0,0,0,0,0,0,0,0,0,0,0,0,0,0,0,0,0,0,0,0,0,0,0,0,0,0,0,0,0,0,0,0,0,0,0,0,0,0,0,0,0,0,0,0,0,0,0,0,0,0,0l2,1.5c.1,0,.2.3,0,.4-.6,1-.9,1.7-1.3,2.9-.5,1.8-1.2,3.2-3,3.8,0,0,0,0-.1,0,0,0,0,0,0,0,0,0,0,0,0,0,0,0,0,0,0,0,0,0,0,0,0,0,0,0,0,0,0,0,0,0,0,0,0,0,0,0,0,0,0,0,0,0,0,0,0,0,0,0,0,0,0,0,0,0,0,0,0,0,0,0,0,0,0,0,0,0,0,0,0,0,0,0,0,0,0,0,0,0,0,0,0,0,0,0,0,0,0,0,0,0,0,0,0-.1l-.3-2s0,0,0,0c0,0,0,0,0,0,0,0,0,0,0,0,0,0,0,0,0,0,0,0,0,0,0,0,0,0,0,0,0,0,0,0,0,0,0,0,0,0,0,0,0,0,0,0,0,0,0,0-2.2,1.4-3.7,2.5-3.1,5.5,0,.1.1.2.3.3Z"/>
      <path class="st0" d="M280.4,263.3c3.8-1.1,5.4-3.5,6.3-7.6,1.5-6.7,1.4-12.9-1.8-19.1-2.3-4.4-7.8-7.5-12.7-5-3.9,2.1-6.4,6.4-7.4,10.6-.4,1.9-.6,3.3-.7,4.2,0,5.1,1.5,11.1,4.9,14.7,2.9,3.1,7.3,3.4,11.3,2.2Z"/>
      <path class="st0" d="M144.8,233.8c5.2,1,10.8-1.8,13.2-6.5.6-1.2.9-2.3.9-3.3,0-1.8.2-3.5-.1-4.9-1.1-5.1-6.6-10.7-12.1-10.2-3.8.3-6.9,2-9.4,4.9-2.9,3.4-3.6,7.3-2.2,11.7,1.5,4.5,4.7,7.3,9.7,8.3Z"/>
      <path class="st0" d="M110.8,235.2c5.2,2.7,10.7.6,14.2-3.6,2.6-3.2,3.1-7.2,2.2-11.2-1.3-5.9-7-9.9-13-8.9-4,.7-7.4,3.2-9.6,6.6-2.2,3.3-2.4,6.6-.8,10,1.6,3.2,3.9,5.6,6.9,7.1Z"/>
      <path class="st0" d="M70.8,278.3c3.5-.4,6.4-1.8,8.6-4.3,5-5.8,2.6-13.8-2.9-18.1-2.7-2.1-5.9-2.8-9.2-1.9-4.6,1.2-8.9,4.8-9.9,9.6-.8,3.7.5,7.8,3,10.7,2.7,3.1,6.2,4.5,10.5,4Z"/>
      <path class="st0" d="M89,259.4c0,.3.2.8.6,1.6,2.7,5.8,7.3,8.8,13.7,8.9,10.5.2,19.1-3.5,25.9-11.2,3.9-4.5,6.8-9.5,5.9-15.6-.4-3-1.7-5.8-3.5-8.3,0,0,0,0,0,0,0,0,0,0,0,0,0,0,0,0,0,0,0,0,0,0,0,0,0,0,0,0,0,0-2.4,3-5.2,5.5-8.7,6.9-4.9,2-10.2,1.7-15.2.2,0,0,0,0,0,0,0,0,0,0,0,0,0,0,0,0,0,0,0,0,0,0,0,0,0,0,0,0,0,0,0,0,0,0,0,0,0,0,0,0,0,0,0,0,0,0,0,0,0,0,0,0,0,0-.6,2.7-1.5,5.3-2.9,7.6-3.3,5.6-8.6,8.6-15,9.4-.1,0-.2.1-.2.2Z"/>
      <path class="st0" d="M467.8,263.8c3.3.2,6.9-.6,9.2-2.9,1.5-1.5,2.1-3.4,2.5-5.6.4-2,.8-4,1.2-5.9.2-.9.2-1.9.1-2.9-.4-4-1.6-7.6-3.4-10.7-.8-1.3-1.6-2.3-2.4-3-4.4-3.7-11.7-2.6-14.6,2.4-4.5,7.8-4.6,15.7-.5,23.8,1.5,2.9,4.6,4.5,7.8,4.6Z"/>
      <path class="st0" d="M75.8,242.6c0,.4.2.7.3,1.1.3,1,.8,2.1,1.4,3,.4.6.9,1.2,1.4,1.7.5.6,1.1,1.1,1.7,1.5.3.2.6.4.8.6.2.1.3.2.5.3.3.1.6.3.8.4,1,.4,2,.7,3.1.9.2,0,.4,0,.6,0,.4,0,.8,0,1.2,0,.2,0,.4,0,.6,0,.4,0,.8,0,1.2-.1.8-.1,1.6-.3,2.4-.6.2,0,.4-.1.6-.2.4-.2.8-.3,1.2-.5.4-.2.8-.4,1.1-.6.5-.4,1.1-.7,1.5-1.2.3-.3.6-.6.9-.9.1-.2.3-.3.4-.5.3-.3.5-.6.7-1,.1-.2.2-.3.3-.5,1.1-1.7,1.7-3.7,1.9-5.6,0-.2,0-.4,0-.6,0-.2,0-.4,0-.6,0-.2,0-.4,0-.6,0-.2,0-.4,0-.6,0-.4-.1-.8-.2-1.2-.1-.6-.3-1.2-.5-1.7-.3-.8-.7-1.5-1.1-2.2-.2-.4-.5-.7-.7-1-.3-.3-.5-.6-.8-.9-.1-.1-.3-.3-.4-.4-.6-.5-1.2-1-1.9-1.4-.2-.1-.3-.2-.5-.3-1.8-.9-3.7-1.4-5.7-1.4-.6,0-1.3,0-1.9.1-.3,0-.7.1-1,.2,0,0-.2,0-.3,0-1.3.3-2.7.9-3.9,1.7-3.8,2.5-5.9,6.6-5.8,10.8,0,.2,0,.4,0,.6,0,.5.1,1.1.2,1.6Z"/>
      <path class="st0" d="M334.2,390.4c.6.2,1.1.5,1.5.9l1.8,1.8s0,.1.1.2c0,0,0,0,0,0,0,0,0,.1,0,.2,0,0,0,.1,0,.2,0,0,0,0,0,0,0,0,0,.1-.1.2,0,0,0,0,0,0,0,0,0,0,0,0l-1.7,1.2s0,0,0,0c0,0,0,0,0,0,0,0,0,0,0,0,0,0,0,0,0,0,0,0,0,0,0,0,0,0,0,0,0,0,0,0,0,0,0,0,8.7-.9,16.4-3,23-8.1.3-.2.4-.6.4-.9-.5-3.2-1.6-6.6-3.1-10-1.2-2.7-2.5-4.6-4-5.7-3.9-2.9-10-3.1-13.8,0-2.4,2-4.1,4.6-5.2,7.8-.4,1.3-.8,2.5-1.2,3.5-.7,2.1-2.1,2.1-3.5,3.1-.6.4-1,1-1,1.7v.9c-.1,0-.1,0-.1.1,0,0,0,0,0,0,0,0,0,0,0,0,0,0,0,0,0,0,0,0,0,0,0,0,0,0,0,0,0,0,0,0,0,0,0,0,0,0,0,0,0,0,0,0,0,0,.1.1,0,0,0,0,0,0,0,0,0,0,.1,0,0,0,0,0,0,0,0,0,0,0,0,0,0,0,.1,0,.2,0,0,0,0,0,0,0,0,0,.1,0,.2,0l2.8-2.4s0,0,0,0c0,0,0,0,0,0,0,0,0,0,0,0,0,0,0,0,0,0,0,0,0,0,0,0,0,0,0,0,0,0,0,0,0,0,0,0,0,0,0,0,0,0,0,0,0,0,0,0l-.2,3.5c0,.1,0,.3.2.3l3,.8Z"/>
      <path class="st0" d="M520.4,419.1c-2.9,0-5.2,2.4-5.2,5.3,0,3,2.3,5.4,5.2,5.4,2.9,0,5.2-2.4,5.2-5.3,0-3-2.3-5.4-5.2-5.4ZM523.3,428c-.6.2-1,.1-1.3-.1,0,0,0,0,0-.2l-.6-1.8c-.1-.3-.4-.5-.7-.6h-.9c0,0,0,0,0,0,0,0,0,0,0,0,0,0,0,0,0,0,0,0,0,0,0,0,0,0,0,0,0,0,0,0,0,0,0,0,0,0,0,0,0,0,0,0,0,0,0,0,0,0,0,0,0,0v1.9s0,0,0,0c0,0,0,0,0,0,0,0,0,0,0,0,0,0,0,0,0,0,0,0,0,0,0,0,0,0,0,0,0,0,0,0,0,0,0,0,0,0,0,0,0,0,0,0,0,0,0,0,0,0,0,0,0,0,0,0,0,0,0,0,0,0,0,0,0,0,0,0,0,0,0,0,0,0,0,0,0,0,0,0,0,0,0,0,0,0,0,0,0,0,0,0,0,0,0,0h-.1c-.4,0-.7-.4-.7-.7v-5.9c0-.2.2-.4.4-.4,1.5-.2,5.9-.6,5.1,2.4,0,.3-.4.7-.9,1,0,0,0,0,0,0,0,0,0,0,0,0,0,0,0,0,0,0,0,0,0,0,0,0,0,0,0,0,0,0,0,0,0,0,0,0,0,0,0,0,0,0,0,0,0,0,0,0,0,0,0,0,0,0,.7.7,1,1.6,1.1,2.8,0,.2,0,.3-.2.3Z"/>
      <path class="st0" d="M313.8,304.4s0,0,0,0c0,0,0,0,0,0,0,0,0,0,0,0,0,0,0,0,0,0,0,0,0,0,0,0,0,0,0,0,0,0l11.5.8s0,0,.1,0c0,0,0,0,0,0,0,0,0,0,0,0,0,0,0,0,0,0,0,0,0,0,0,0,0,0,0,0,0,0,0,0,0,0,0,0,0,0,0,0,0,0,0,0,0,0,0-.1-.4-1.4-1.3-2.6-2.6-3.4-2.4-1.5-3.7-2.3-4-2.5-.9-.6-1.6-1.2-2-1.9-.6-1.1-.2-2.1.3-3.2,0,0,0,0,0,0,0,0,0,0,0,0,0,0,0,0,0,0,0,0,0,0,0,0,0,0,0,0,0,0,0,0,0,0,0,0,0,0,0,0,0,0,0,0,0,0,0,0,0,0,0,0,0,0l-2.7-.6s0,0,0,0c0,0,0,0,0,0,0,0,0,0,0,0,0,0,0,0,0,0,0,0,0,0,0,0,0,0,0,0,0,0,0,0,0,0,0,0,0,0,0,0,0,0,0,0,0,0,0,0,.5,3.7.3,7.3-.6,10.7,0,0,0,0,0,0,0,0,0,0,0,0,0,0,0,0,0,0Z"/>
      <path class="st0" d="M352.5,323.4c-.4-.4-.8-.6-1.2-.6-2.6,0-6,0-10.2,0-1.1,0-1.7-.2-1.9,1-.7,3.6-1.8,7.1-3.4,10.6-.5,1-2,3-3.2,3.1-.1,0-.3,0-.3-.2l-.5-1.6c0,0,0,0,0-.1,0,0,0,0,0,0,0,0,0,0,0,0,0,0,0,0,0,0,0,0,0,0,0,0,0,0,0,0,0,0,0,0,0,0,0,0,0,0,0,0,0,0,0,0,0,0,0,0,0,0,0,0,0,0,0,0,0,0,0,0,0,0,0,0,0,0,0,0,0,0,0,0,0,0,0,0,0,0,0,0,0,.1,0,.2,0,1.7,0,3,0,3.9,0,.9-.1,2.9-1,3.5,0,0,0,0,0,0,0,0,0,0,0,0,0,0,0,0,0,0,0,0,0,0,0,0,0,0,0,0,0,0,0,0,0,0,0,0,0,0,0,0,0,0,0,0,0,0,0,0,0,0,0,0,0,0l-1.7-11.5c0,0,0,0,0-.1,0,0,0,0,0,0,0,0,0,0,0,0,0,0,0,0,0,0,0,0,0,0,0,0,0,0,0,0,0,0,0,0,0,0,0,0,0,0,0,0,0,0,0,0,0,0-.1,0l-1.6,1.1s0,0-.1,0c0,0,0,0,0,0,0,0,0,0,0,0,0,0,0,0,0,0,0,0,0,0,0,0,0,0,0,0,0,0,0,0,0,0,0,0,0,0,0,0,0,0,0,0,0,0,0,0-.3-1-.5-2-.6-3.1,0-2.2,0-4.1,0-5.8,0-1.2,0-2-.2-2.3-.4-.7-1.1-1.1-2-1.1-4.1-.1-7.9-.9-11.6-2.3-2-.7-3.6-1.3-5.3-.8-2.1.5-3.7.8-4.7.9-1.2,0-2.7.5-3.6.9-1,.5-2.9,1.3-5.5,2.6,0,0,0,0,0,0,0,0,0,0,0,0,0,0,0,0,0,0,0,0,0,0,0,0,0,0,0,0,0,0,0,0,0,0,0,0,0,0,0,0,0,0,0,0,0,0,0,0,0,0,0,0,0,0,2.1,2.5,3.6,5.7,3.4,9.1,0,0,0,0,0,0,0,0,0,0,0,0,0,0,0,0,0,0,0,0,0,0,0,0,0,0,0,0,0,0,0,0,0,0,0,0,0,0,0,0,0,0,0,0,0,0,0,0,0,0,0,0,0,0,0,0,0,0,0,0,0,0,0,0,0,0l-3.3-4.9c0,0,0,0-.1-.1,0,0,0,0,0,0,0,0,0,0-.1,0,0,0,0,0,0,0,0,0-.1,0-.2,0,0,0,0,0,0,0,0,0-.1,0-.2,0,0,0,0,0,0,0,0,0,0,0,0,0,0,0,0,0,0,0,0,0,0,0,0,0,0,0,0,0,0,0,0,0,0,0,0,0,0,0,0,0,0,0,0,0,0,0,0,0,0,0,0,0,0,.1l-.8,17.5c0,0,0,.2,0,.2,0,0,0,0,0,0,0,0,0,.1,0,.2,0,0,0,0,0,0,0,0,0,0,0,.1,0,0,0,0,0,0,0,0,0,0,0,0,0,0,0,0,0,0,0,0,0,0,0,0,0,0,0,0,0,0,0,0,0,0-.1,0,0,0,0,0-.1,0,0,0,0,0-.1,0,0,0-.1,0-.2,0,0,0,0,0,0,0,0,0,0,0,0,0,0,0-.2,0-.2,0h-.4c-.9-.3-1.6-1.3-1.5-2.2.3-2.6.5-4.5.5-5.6,0-1.4-.1-3.6-.6-6.5-.6-3.6-1-6.3-1.2-8,0-.2-.2-.3-.4-.3l-2.8.4c-.1,0-.2.1-.2.2l-.9,19c0,0,0,.1,0,.2-.4.8-1,1.2-1.8,1.3-1,.1-1.5-1.4-1.5-2.1,0-4.6,0-8,0-10.1h0s1.4-8,1.4-8c0,0,0,0,0,0,0,0,0,0,0,0,0,0,0,0,0,0,0,0,0,0,0,0,0,0,0,0,0,0,0,0,0,0,0,0,0,0,0,0,0,0,0,0,0,0,0,0,0,0,0,0,0,0h-4.1c-.2,0-.3.1-.4.3-.3,1.1-.7,2.5-1.2,4.1-.2.7-.7,1.2-1.3,1.4-.1,0-.3,0-.4-.1l-1.4-2.5c0-.2-.1-.4,0-.6l.5-1.8s0,0,0,0c0,0,0,0,0,0,0,0,0,0,0,0,0,0,0,0,0,0,0,0,0,0,0,0,0,0,0,0,0,0,0,0,0,0,0,0,0,0,0,0,0,0,0,0,0,0,0,0l-18.9-2.1s0,0,0,0c0,0,0,0,0,0,0,0,0,0,0,0,0,0,0,0,0,0,0,0,0,0,0,0,0,.2,0,.5.2.6,2.3,4.5,6.6,13.3,10.5,19.4,4.8,7.6,9.5,14.5,15.1,21,.7.8,1.3,1.3,1.9,1.6,6.5,3.1,12.1,8,15.7,14.2.5.9,1,1.5,1.3,1.8,4.1,3.2,8.3,6.2,12.7,8.7,0,0,0,0,0,0,0,0,0,0,0,0,0,0,0,0,0,0,0,0,0,0,0,0,0,0,0,0,0,0,0,0,0,0,0,0,0,0,0,0,0,0,0,0,0,0,0,0,0,0,0,0,0,0,3.2-11.4,10-19.6,20.2-24.6,3.8-1.8,7.5-2.7,11.5-2.8,2.5,0,5.5,0,9.1.4,4,.4,7,.9,9,1.6,3.9,1.3,7.4,3.5,10.6,6.4,0,0,0,0,0,0,0,0,0,0,0,0,0,0,0,0,0,0,0,0,0,0,0,0,0,0,0,0,0,0,0,0,0,0,0,0,0,0,0,0,0,0,0,0,0,0,0,0,0,0,0,0,0,0,.9-4.2,1.1-8.4.5-12.6-1.9-13.3-8.3-24.1-17.9-33.3Z"/>
      <path class="st0" d="M521.7,422.9s0,0,0,0c0,0,0,0,0,0,0,0,0,0,0,0,0,0,0,0,0,0,0,0,0,0,0,0,0,0,0,0,0,0,0,0,0,0-.1,0,0,0,0,0,0,0,0,0,0,0-.1,0,0,0,0,0-.1,0,0,0-.1,0-.2,0,0,0,0,0-.1,0,0,0-.1,0-.2,0,0,0,0,0-.1,0h-.6c-.2,0-.3.1-.3.3v1.3s0,0,0,0c0,0,0,0,0,0,0,0,0,0,0,0,0,0,0,0,0,0,0,0,0,0,0,0,0,0,0,0,0,0,0,0,0,0,0,0,0,0,0,0,0,0s0,0,0,0h.6c.8,0,1.4-.4,1.4-1h0c0-.1,0-.1,0-.2,0,0,0,0,0-.1Z"/>
      <path class="st0" d="M259.8,298.8s0,0,0,0c0,0,0,0,0,0,0,0,0,0,0,0l37.4,4.1s0,0,0,0c0,0,0,0,0,0,0,0,0,0,0,0,0,0,0,0,0,0,0,0,0,0,0,0,0,0,0,0,0,0,0,0,0,0,0,0,0,0,0,0,0,0,0,0,0,0,0,0-.4-1.2-1.1-2.1-2.1-2.7-2.1-1.3-3.6-2.3-5.4-2.8-.9-.2-1.4-.4-1.8-.4-7.6-.7-13.4-1.1-17.5-1.1-3.9,0-7.5.9-10.9,2.9,0,0,0,0,0,0,0,0,0,0,0,0,0,0,0,0,0,0,0,0,0,0,0,0Z"/>
      <path class="st0" d="M274.5,395.9c-.2-.1-.8-.4-1.9-.8-1.1-.4-2.1-1.1-2.8-1.6,0,0,0,0-.1-.1,0,0,0,0,0,0,0,0,0,0,0,0,0,0,0,0,0,0,0,0,0,0,0,0,0,0,0,0,0,0,0,0,0,0,0,0,0,0,0,0,0,0,0,0,0,0,.1-.1l7.4-3.5c0,0,.1-.1.1-.2-.2-4.1-1.3-8.1-3.1-11.9,0-.2-.2-.4-.4-.6-.4-.5-.7-.7-.7-.7-2.1-1.9-4.4-4.1-6.7-6.5-.4-.4-.8-.6-1.3-.7-3.5-.6-6.5.1-9.2,2-3.3,2.4-4.6,6.4-5.8,10.2-.6,2-1.5,2.8-3.4,3.9-.2.1-.4.3-.5.5l-1.7,2.4s0,.1,0,.2c0,0,0,0,0,0,0,0,0,0,0,.1,0,0,0,0,0,0,0,0,0,0,0,.1,0,0,0,0,0,0,0,0,0,0,0,0,0,0,0,0,0,0,0,0,0,0,0,0,0,0,0,0,0,0,0,0,0,0,.1,0,0,0,0,0,0,0,0,0,0,0,.1,0,0,0,0,0,0,0,0,0,.1,0,.2,0,1.8-1.3,3-2.2,3.9-2.5,0,0,0,0,0,0,0,0,0,0,0,0,0,0,0,0,0,0,0,0,0,0,0,0,0,0,0,0,0,0l-.3,3.1c0,.2.1.5.4.5,1.1.3,2.4.7,3.9,1.3,1.2.5,1.8,1,2.5,2,0,0,0,0,0,0,0,0,0,0,0,0,0,0,0,0,0,0,0,0,0,0,0,0,0,0,0,0,0,0,0,0,0,0,0,0,0,0,0,0,0,0,0,0,0,0,0,0,0,0,0,0,0,0,0,0,0,0,0,0,0,0,0,0,0,0,0,0,0,0,0,0,0,0,0,0,0,0,0,0,0,0,0,0,0,0,0,0,0,0,0,0,0,0,0,0,0,0,0,0,0,0-.7.5-2.1,1.2-4,2.1-1.7.8-2.6,2.2-2.7,4-.2,3.4.1,6.9,1,10.6,1,4.6,3.5,10.4,7.5,12.8,2.3,1.4,4.7,1.9,7.2,1.5,4.6-.7,8.8-4.4,10-8.9,1-3.7,1.9-8.3,2.8-13.9.4-2.8-.5-5-2.8-6.5Z"/>
      <path class="st0" d="M258.1,308.1s0,0,0,0c1.8,2.8,4.3,4.5,7.5,5.2,6.2,1.4,12.4,1.4,18.5.2,1.8-.3,3.5-.7,5.2-1.1,0,0,0,0,0,0,0,0,0,0,0,0,0,0,0,0,0,0,0,0,0,0,0,0,0,0,0,0,0,0,0,0,0,0,0,0,0,0,0,0,0,0,0,0,0,0,0,0,0,0,0,0,0,0l-31-4.1s0,0,0,0c0,0,0,0,0,0,0,0,0,0,0,0,0,0,0,0,0,0,0,0,0,0,0,0,0,0,0,0,0,0,0,0,0,0,0,0,0,0,0,0,0,0,0,0,0,0,0,0,0,0,0,0,0,0Z"/>
      <path class="st0" d="M357.9,397.5c-.5.2-1.3.7-2.5,1.3-7.5,4.1-15.5,6.1-24.2,6,0,0,0,0,0,0,0,0,0,0,0,0,0,0,0,0,0,0,0,0,0,0,0,0,0,0,0,0,0,0,0,0,0,0,0,0,0,0,0,0,0,0,0,0,0,0,0,0,0,0,0,0,0,0,.3,2.2.8,4.7,1.4,7.5.5,2.5,1,4.2,1.5,5.2,1.7,3.9,5.6,7.4,10,7.5,2.2,0,4.2-.3,6.1-1.2,4.3-1.9,6.1-6.7,7.4-10.9.9-2.7,1.3-6.9,1.8-9.2.6-2.7.3-4.2-1.1-6.3,0-.1-.2-.1-.3,0Z"/>
      <path d="M505.2,425.1c-1.6-.4-3.3-.4-5.1-.8-2.1-.4-2.6-2-2.6-3.9,0-2.7.3-9.2.6-19.4.1-3.7,3-4.5,5.9-5.8.5-.2.9-.5,1.2-.9.2-.3.2-.7,0-1-1.4-1.5-4.4-2.3-6.5-2.8-.3,0-.5-.3-.5-.6-.4-4.4-.6-7.5-.8-9.5-.9-8.7-6.1-16-14.7-18.1-8.2-2-17.9,1.4-23.5,7.8-1.1,1.3-1.9,2.3-2.4,3.2-1.1,1.9-1.8,3-2,3.3,0,0,0,0,0,0,0,0-.2,0-.2-.1,0-.1,0-.3-.1-.5-.9-5.3-4.7-11.1-10.1-12.9-8.7-2.8-17.9-1.8-24.5,4.9-1.9,1.9-3.4,4-4.6,6.3,0,0-.1.1-.2.1-.1,0-.2,0-.2-.2,0-3.1,0-6.1-.2-9,0-1.3-.5-2-1.5-2.7-.1-.1-.3-.1-.5,0-.7.3-1.2.4-2.1.2-.7-.2-1.4-.3-1.9-.3-5.6-.2-10.6-.2-14.8-.2-3.2,0-5.5.2-7,.5-2,.3-3.5,1-3.6,3.1,0,.8,0,1.6.1,2.4,0,.2.2.3.4.3,1.5,0,2.8,0,4,.2,2.9.3,5.7,1.9,6,5.1.4,4.4.7,9.8.9,16.1,0,.1,0,.2-.2.3-4.2,2.4-7.9.8-12.9-.7-.1,0-.2-.1-.2-.3-1-4.6-2.8-8.9-5.4-12.9-.2-.3-.3-.7-.2-1.1,3-12.2.5-25.9-5.2-36.8-3-5.6-6.6-10.6-10.6-15.1,0,0,0,0,0-.1,0-.1,0-.3.2-.3,1.2,0,4-.2,8.3-.4,12.8-.6,26-1.7,38.5-4.5,8.6-2,16.7-4.9,24.5-8.9,0,0,0,0,0,0,.1,0,.3,0,.3.2.8,3.3,2.5,5.9,5.3,7.8,8.6,5.8,19.7,5.7,29.6,5.7,3.3,0,5.4,2.6,4,5.7-.5,1.2-.7,1.8-.7,2.1,0,3.7,0,7,0,10.1,0,1.9.8,2.8,2.6,2.7.1,0,.2,0,.2-.2.3-1,.5-1.8.6-2.6.3-3.6.7-8.6,1.1-14.9,0-1.3.3-2.2.5-2.9.3-.8,2.3-.9,3.2-1,0,0,0,0,.1,0,0,0,0,.1,0,.2l-.9,1c-.3.3-.3.7,0,1l1.7,2.5c.2.3.3.6.3,1,0,2.8,0,5.3,0,7.5,0,2.5-.4,4.8-.4,7.3,0,.8.5,1.6,1.2,1.9l.9.4c.1,0,.2,0,.3,0,.5,0,1-.4,1-.9l.9-18.5c0,0,0-.1,0-.2,0,0,.2,0,.3,0l3.6,5.5c0,0,.1,0,.2.1.1,0,.2,0,.3-.2.3-3.7-1.4-6.5-3.8-9.2,0,0,0,0,0-.1,0,0,0-.2.2-.2,1.4-.1,2.6-.4,3.9-1.1,4.5-2.5,8.4-4.7,11.6-6.6,2.2-1.3,4.2-2.4,5.1-4.5,1.3-3,2.1-6.2,2.3-9.4.2-3.6-.6-6.7-2.4-9.5-3.3-5-10.3-7.8-16-8.4-3.3-.4-6.2-.5-8.7-.2-8.8.8-16.4,1-22.9.6-1.1,0-2.4,0-3.6-.3,0,0-.1,0-.2-.1l-2.4-2.1s0,0,0,0c0,0-.1-.2,0-.3.4-.5,1-1.1,1.8-1.8.6-.6,1.2-1.2,2.1-1.4,7.9-1.8,17.1-3.9,26-5.2,4.7-.7,9.9-2.4,13.5-5.3,1.1-.9,2.5-2.2,4.1-3.9,1.3-1.3,3-2.4,4.9-2.4.6,0,1.2,0,2.1.1,0,0,0,0,0,0,0,0,.1-.1,0-.2-.7-1.7-1.5-3.3-2.6-4.7-.2-.2-.3-.5-.3-.8,0-2.3,0-4.6,0-6.9-.2-6.3-3.7-11-8-15.4-2.5-2.6-3.9-4.1-7.1-4.5,0,0,0,0-.1,0,0,0,0-.2,0-.3,2.1-2.2,4-4.2,5.5-6.1,4.1-4.9,5.9-10.6,5.5-16.9-.3-4.3-2.2-7.6-5.6-10,0,0,0,0,0,0,0-.1,0-.3.1-.4,1-.5,2.1-1.2,3.4-2,.3-.2.4-.3.4-.6,0,0,0,0,0-.1,0-.2-.3-.3-.5-.3-2.1.5-3.9.1-5.5-1.2-.3-.3-.6-.4-.8-.5-1.2-.2-3,.6-4.1,1.2-.3.2-.7.1-1-.1l-.9-.8c0,0-.2-.1-.3-.1h-1.1c-.1,0-.2,0-.3-.1l-1-1.6c0,0,0-.1-.2-.1-.2,0-.4,0-.5.2v.2c-.1,0-.1.2,0,.3.3.8.6,1.9,0,2.5-1.7,1.6-2.9,0-4.1-1-.1-.1-.3-.1-.4,0-.3.1-.6.4-.7.8,0,0,0,0,0,.1-.1.2-.4.2-.5,0l-1.9-1.7s0,0-.1,0c-.2,0-.4,0-.5.3h0c0,.3,0,.7.2.9,1.3,1.3,2.3,2.5,2.8,3.4.4.7.4,1.5,0,2.3-1.4,2.8-2.6,5.3-3.4,7.5,0,0,0,.1,0,.2,0,.2.2.3.3.2l1.2-.2c.2,0,.3,0,.4.3l1.5,8.1c0,.2.1.3.3.3l9,2.4c.2,0,.4.3.4.5,0,4.1-1.8,7.3-5.3,9.4-.5.3-1.4.4-1.9.3-10.2-.2-15.4-.3-15.6-.3-2.4,0-5,.3-7.8,1-.2,0-.5.1-.7.3l-11.4,6.3s0,0-.1,0c-.1,0-.2-.1-.2-.2,0-2.4.1-4.4-.2-6.8-1.1-7.8-3.9-14.9-8.4-21.3-5.7-8.2-13.4-14.2-22.2-19.1-3.5-2-6.1-3.4-7.9-4.3-18.5-9.7-39.2-13.2-60.1-12.6-12.7.4-19.4.6-20.2.7-7.3.4-13.5,1.4-21.7,2.5-3.2.4-7.9,1.2-14,2.2-15,2.6-23.7,4.1-25.9,4.4-6,1-11.8,1.8-17.2,2.5-3.7.5-7.1.7-10.2.8-6.2.1-12.6-.4-19.1-.8-12.8-.8-25.4-3-37.8-6.5-9.5-2.7-18.6-6.7-27.2-12.1-9.9-6.2-19.9-14.6-23.7-26-1.7-5.2-1.8-10.6-.2-16.5.5-1.7,1.2-3.3,1.2-5.3,0-.1-.1-.2-.2-.2-3.8,0-4.5,3.3-5.2,6.5-.9,4.1-1.2,7.7-.9,11,.4,6.3,2.6,11.9,6.3,16.9,5,6.5,11.1,12.1,18.2,16.7,2,1.3,4.5,2.7,7.5,4.1,9.8,4.8,19.8,9.8,30,12.1,12.3,2.9,24.7,4.7,37.1,5.5,3.5.2,7.1.3,11,.2,3.8,0,10.4-.3,19.8-.6,10.4-.4,18.5-1.3,30.2-2.5,6.8-.7,14.6-1.4,23.5-2,12.1-.9,21.4-.7,35-.5,8.3.1,15.8.4,22.6.8,5.7.3,11.4,1.2,17.1,2.7,8.6,2.2,16,4.6,22.1,7.4,7.5,3.3,14.6,7.1,20.6,12.8,8.4,8.1,12.5,18,12.3,29.9-.1,6.5-2.4,12.2-6.8,17.1-.6.7-1.4,1-2.4,1-.1,0-.3-.1-.3-.3,0-3.1-.4-6.3-.8-9.5-1.4-9.9-7.1-17.8-17.6-18.7-8.3-.7-16.3.7-21.6,7.7-2.1,2.7-3.6,4.9-4.7,6.5,0,0,0,0,0,0,0,0-.1,0-.2,0,0-.1,0-.2,0-.3,0-1.4,0-5.2,0-11.4,0-2.4-1.5-2.2-3.6-2.2-10.3,0-17.7,0-22.2,0-1.9,0-3.3.1-3.4,2.4,0,1.5,0,3.4,0,5.7h0c0,.2.2.3.3.3,2.4,0,4.1,0,4.9,0,2.4.1,3.6,1.4,3.6,3.8,0,4.6,0,9.9,0,15.8,0,.1,0,.2-.2.3-.2,0-.7.1-1.5.2-2.3.3-4.1,1.3-5.4,3.2,0,0,0,0,0,.1,0,.2,0,.5.3.5,1.5.4,2.9,1,4.1,1.8,2.3,1.4,3.1,3.6,2.9,6.2,0,1.2.3,2.2,1.1,3.1.2.3.3.6.1.9-1,1.8-1.4,2.9-1.4,5.1,0,2.8,0,5.3,0,7.5,0,2.9.3,4.6-2.5,5.6-1.3.5-2.6.5-4.1.2-.8-.2-1.7-.2-2.3-1-1.3-1.8-2.3-5-2.7-7.2-.3-1.6-1-2.7-2.1-4.3-2.1-3.1-2.9-6.5-2.6-10.3.2-2.5.6-4.6,3.1-5.8,1.4-.7,2.8-1.2,3.8-2.1.2-.2.3-.6.1-.8-.4-.8-1-1.3-1.7-1.6-1.3-.6-3-1.3-5.1-1.9-.1,0-.2-.1-.2-.2,0-9.1,0-17.2,0-24.2,0-1.6,0-3.3-1.8-3.3-8,0-16.7,0-26.1,0-1.8,0-2.8.2-3.5,1.8-.8,1.8-1.3,4,.8,5.2,1.7,1,3.7,1.2,5.8,1.3,2.9.2,4.7,1.6,4.7,4.9,0,5,0,9.7,0,14.1,0,.2-.1.3-.3.4-2,.6-3.9,1.3-5.4,2.1-.7.3-1.2.8-1.4,1.5-.1.4,0,.9.5,1.1.5.3,1.6.8,3,1.6,2.8,1.4,3.5,4,3.5,7,0,2.6,0,5.1,0,7.4,0,.4-.2.7-.4,1-1.1,1-2.2,2.1-3.3,3.3-.7.8,0,2,.2,2.8,0,.2,0,.4,0,.6-.6,1.9-1.3,3.6-2.2,5-.1.2-.3.4-.5.6-1.2,1-1.9,1.4-1.9,1.5-1.3,1-1.4,2.5-1.5,4,0,0,0,0,0,.1,0,0-.2,0-.2,0-.7-1.3-1.4-2.2-2.5-3.1-4.3-3.6-9.4-5.7-15.3-6.1-1.8-.1-4-.2-6.8,0-3.3.1-6.6.2-9.9.3-4.3.1-8.5-.4-12.6-1.5-1-.3-1.9-.4-2.5-.9-1-.7-1.3-2.1-.7-3.3.9-1.7,2.8-2.5,4.8-3,2-.5,3.8-.9,5.3-1.1,4.3-.5,8.7-.8,13.1-.7.3,0,.5,0,.8.1,1,.3,1.7.3,2.2.2,1.4-.3,3.7-1.1,6.8-2.2,3.5-1.3,6.4-3.3,8.7-5.9,1.4-1.5,2.3-2.4,2.7-2.7,1.9-1.3,3.9-1.7,6.1-1.2,0,0,.1,0,.2,0,.1,0,.2-.2.1-.3l-2.4-4.8s0,0,0,0c-.2-.6-.3-1-.3-1.3,0-5.8.4-9.1-2-13.3-3.2-5.6-7.2-10-12.9-12.9,0,0,0,0,0,0-.1,0-.1-.3,0-.4,2.4-3.1,4.5-5.8,6.2-8,3.1-4,4.4-8,4.4-13.1,0-4.8-1.9-8.8-5.6-11.7,0,0,0,0,0,0,0,0,0-.2,0-.3l3.3-2.2s0,0,0,0c0,0,0-.1,0-.2l-6.3-2.6c-.6-.2-1.2,0-1.6.4l-.2.3c0,0-.1.2-.1.2,0,.3.1.7.4.8.7.2,1.5.5,2.3.8.3.1.4.3.4.4,0,0,0,0,0,.1,0,.3-.4.5-.7.4-1.5-.3-2.7-.5-3.5-.7-2.3-.5-4.1-2-5.7-3.7,0,0-.2-.1-.2-.1,0,0,0,0,0,0-.1,0-.3,0-.3.2,0,.8-.2,1.4-.3,2-.5,2.3-2.9,1.4-4.5.7-.7-.3-1.8-.9-3.3-1.6-.1,0-.3,0-.4,0-.1.1-.1.3,0,.5l2.8,3.4c.3.3.4.7.3,1.1l-.5,3.1c0,.5-.3.9-.7,1.2-1.1.9-2,1.5-1.5,3.1.4,1.3.8,1.9,1.1,3.3.2.8.6,2.3,1.3,4.3,1.3,3.9,4.7,3.4,7.6,4.3,4.8,1.5,1.9,5.2,0,7.4-1.4,1.5-2.3,2.6-2.9,3.2-.3.3-.7.5-1.2.4-2.9-.4-5.5-.9-8.3-1-4.2,0-8.6.3-12.4,1.7-1.2.4-3.6,1.4-7.2,2.8-2.6,1-4.5,1.9-5.7,2.8-5.5,3.9-8.8,9.6-9.9,16.3-.3,1.9-.2,3.6-.3,5.5,0,1.3-.5,2.3-1.2,3.1-1,1.1-3.2,1.4-3,3.2,0,.2.1.3.3.4,2.2,1,4.9,1.4,6.9,2.9,1.8,1.4,3.7,3,5.6,4.9.3.3.4.6.5,1,.1,1.8-.3,4-1.9,4.9-1,.6-2.2.9-3,1.6-4,3.2-6.3,9.8-2.6,14.1.9,1,1.9,2.1,3.2,3.4,0,0,0,0,0,0,0,.1,0,.3,0,.3l-6,3.3s0,0,0,0c0,0-.2,0-.2-.1-.2-2.1-.5-3.8-.8-5.3-.3-1.3-.6-2.3-.9-3-1.1-2-1.8-3.8-2.3-5.3-4.6-14.5-7.5-23.7-8.8-27.6-.9-3-1.9-6.6,1.4-8.3,1-.5,1.8-1.2,2.5-2,0,0,0-.2,0-.2-.9-1.2-2.4-2.5-3.9-2.5-.2,0-.9,0-2.1,0-2.1,0-2.8-1.4-3.3-3.4-.4-1.7-1.1-3.2-1.7-5-5.5-17.1-8.8-27.5-9.9-31.1-1-3,0-4.1,2.7-5.2,1.7-.7,3-1.2,3.8-1.5,0,0,0,0,0,0,0,0,0-.2,0-.2-2.8-3-7.4-3.7-11-2-1.2.6-2.4,1-3.4.6-1.9-.9-4-2.1-5.3-1.5-2.5,1.2-4.1,2-6.6,1.5-1-.2-2-.9-2.8-1.1-2.6-.8-6.9.3-8.4,2.7,0,0,0,0,0,0,0,.2,0,.4.3.5.3.1,1.5.4,3.4,1,1.9.6,2.9,1.6,3.1,3.1.1.8-.2,2.3-1,4.5-5.2,15.8-9.2,27.4-11.8,35-.5,1.3-1,2.4-1.6,3.1-1.9,2.1-2.9,3.5-2.5,6.4.2,1.5.3,2.3,0,3.4-1.7,5.2-4.8,14.5-9.3,28-.9,2.6-1.9,5.3-4.6,6.4-.3.1-1.2.3-2.5.4-.8,0-1.6.3-2.5.5-1.2.4-1.7,1.2-1.5,2.5.1,1.1.2,2.2.3,3.2,0,.7.4,1.1,1.1,1.1,13.5,0,22.1,0,25.9,0,4.5,0,4.2-4.6,1.4-6.5-2.5-1.7-7.6.2-5.9-5.1,3-9.5,5.5-17.9,7.8-25.2,0-.1.2-.2.3-.2,1.5.2,2.6,1.1,5,2.4.7.4,1.7.5,2.9.4,0,0,.2,0,.2,0l1.3-.7s0,0,0,0c.2,0,.4,0,.4.2l.4,1.4c0,.1.2.2.3.3,3.2.3,5.6.5,7.1.4,2.9-.1,5-.8,7.8-1.7.1,0,.3,0,.3.2l16.7,38.5s0,0,0,0c0,.1-.1.2-.2.2-11.8,0-20.4,0-25.8,0-2.7,0-5.6.2-8.5.6-13.9,1.9-27.8,4.4-41.3,8.1-2,.6-4.4,1-6.1.7-4-.6-6.2-1-6.8-1-8.8-.7-16.3-1.3-22.4-1.8-6-.5-18.5-1.9-37.4-4-12.1-1.4-24-2.5-36-2.9v18.7c1.2,0,2.4,0,3.5,0,15.6-.2,31.9-.8,47.9-2.7,2.3-.3,4.7.8,6.9,1.1,6,1,12,2,18,2.9,1.7.3,3.2.6,4.7,1,0,0,0,0,0,0,0,0,0,.2,0,.2-3.1,1.9-6,3.6-8.5,5.2-8.3,5.2-16.2,11.9-21.7,19.7-8.2,11.7-10.1,24.4-5.7,38.2.8,2.6,2.6,3.6,5.3,3.2,0,0,0,0,0,0,.2,0,.3-.3.2-.4-1.9-5-2.9-10-2.9-15.4,0-6.7,1.8-12.9,5.4-18.5,8.6-13.3,22.6-23.4,36.9-29.6.8-.3,1.5-.4,2.1-.3,10.2,2.1,20.4,3.2,30.8,3.2,5.7,0,11-.1,15.9-.4,1.1,0,1.9,0,2.5.3,5,2.2,9.6,4.8,13.9,7.9,0,0,0,0,0,.1,0,0,0,.1-.2.1-1.3-.3-3.1-.6-5.2-1.1-2.9-.7-5.8-.6-8.5.3-.1,0-.3,0-.4,0-.8,0-1.5-.7-2.4-.6-3.1.3-5.8,1-8.1,2-1.8.8-3,1.2-3.5,1.3-1.8.2-3.4-.3-4.8-1.4-2-1.5-3.9-3-6.4-2.1-1.9.6-3.2,2.9-5.7,1.5-3.5-2-7.1-1.9-10.7.2-.4.2-.6.5-.7.7-.1.3,0,.7.3.8.7.4,1.3.7,1.9.9,2.3.7,4.1,2.2,4.7,4.5.1.5.2,2.1.1,4.8,0,10-.1,21.7,0,35.3,0,.1,0,.2-.2.3-2.3.7-3.8,1.1-4.4,1.3-1,.3-1.9.9-2.5,1.8,0,0,0,.2,0,.3.7,1,1.9,1.6,3.1,2,2.4.7,3.9,2.9,3.9,5.2,0,4.3,0,14.5,0,30.5,0,1.4-.1,2.9-1.5,3.4-1.9.7-3.8,1.1-5.5,1.2-1.3,0-2,.8-2,2.2,0,1.6,0,3.3,0,5,0,.1,0,.2.2.2h41.1c.1,0,.2,0,.2-.2.1-1.5.2-3.5-.5-4.9-1.3-2.7-3.8-2.5-6.5-2.6-2.2-.1-2.6-1.7-2.6-3.6,0-9.1,0-20.1,0-33.1,0-.1.1-.2.2-.2,2.7,0,5.1,0,7.4,0,1.2,0,1.9,1.4,2.3,2.4,2.9,9.4,5.7,18.4,8.4,27,2.7,8.7,7.3,14.6,16.6,16.3,5.1.9,10,.8,13.6-3,7-7.4,8.1-16.9,6.9-26.9,0-.1,0-.3-.1-.4-.9-1.6-4.1-1.8-5.6-1.3-.5.2-.9.7-1,1.4-.4,2.1-.7,4.9-2.2,7.3-.7,1.2-2.2,1-3.3.6-1.6-.5-2.9-1.3-4.1-2.4-2.8-2.7-5-5.2-6.7-7.7-2.6-3.9-5.5-8.3-8.5-13.4,0,0,0,0,0,0,0-.1,0-.3.2-.3,2.8-.6,6-.8,8.5-1.5,4.7-1.2,8.7-3.6,12-7.2,5.4-5.7,6.8-12.8,5.8-20.7-1.3-10.7-7-19.7-15.7-26.1-3.9-2.9-8.4-5.8-13.3-8.7,0,0,0,0,0,0,0,0,0-.1,0-.1.5-.2,1-.3,1.5-.3,7.8-.2,15.5-1.2,23.1-3.2,7.2-1.8,12.4-3.2,15.7-4.1,1.5-.4,2.8-.5,3.6.8,2.7,4.7,6.3,11,10.7,18.8,5.1,9,10.4,17.6,16.7,25.5,0,0,0,0,0,.1,0,0,0,.2-.2.2-7.6,0-14,3.1-19.7,8.1-6.1,5.4-10.2,12-12.3,19.9,0,.3-.3.5-.6.6-2,.6-3.9,1.4-5.5,2.1-.8.4-1.4,1-1.6,1.9,0,.3,0,.5.3.7.7.4,1.4.7,2.1.8,2.3.3,3.5,2.2,4.4,4.1.2.4.5,1.6.8,3.6,1.8,10,7,17.9,15.4,23.8,2.1,1.5,3.9,2.6,5.3,3.3,5.2,2.5,10.9,2.9,16.7,2.8,2.9,0,5.5-.3,7.7-.8,6.9-1.6,13.1-5.3,18.1-10.1,6-5.8,8.5-14,9.7-22.2,0,0,0,0,0,0,0,0-.1-.1-.2,0-1.2.5-2.3,1-3.5,1.5-.5.2-.9.3-1.1.3-.1,0-.2,0-.3-.2-.2-.2-.2-.5,0-.7l2.5-2.1c.3-.3.8-.5,1.2-.5l2.6-.4c.1,0,.3,0,.4,0,1.9,1.1,4,2.1,6.1,3,.4.2.7.5.7,1,1.2,7.2,4.2,13.5,8.8,18.7,5.6,6.4,12.9,11.5,21.5,12.7,6.9.9,13.7,0,20.6-2.4,13.5-5,21.4-16.4,22.5-30.6,0,0,0,0,0,0,0-.1-.2-.2-.3-.1l-3.5,1.5s-.1,0-.1,0c0,0-.1-.1,0-.2,0-.2.2-.3.3-.4,2.3-2.2,4.9-3.9,7.9-5.1.1,0,.3,0,.4,0,2.2-.2,4.5,1,6,2.5,1.9,1.9,2.2,3.8,2.1,6.6-.1,4.8-.1,9.2,0,13.3,0,2,0,3.4-.4,4.2-.7,1.8-2.1,3-4,3.5-1.3.3-3,.1-4.7,0-1.3,0-2,.5-2.1,1.8-.2,1.9-.2,3.1,0,3.8.3,1.8,1.8,1.8,3.3,1.8,9.5,0,21.5,0,35.9,0,.3,0,.5-.2.6-.4.3-1.2.9-3.8.2-5-1.7-3.3-6.7-1.2-8.3-5.1-.2-.5-.3-2-.3-4.6,0-9.1,0-13.9,0-14.6.2-5,2.4-5.7,6.4-7.5,2-.9.3-2.4-.7-2.9-1.2-.6-2.6-1.2-4.4-1.9-.4-.2-.7-.5-.7-.9l-.4-2.3c0-.3,0-.7.2-.9.8-1.1,1.4-2.3,1.8-3.3.5-1.4,1-2.4,1.4-2.9,2.3-3.2,5.6-5.3,9.7-5,3.1.3,5.4,1.6,6.7,4.7,1.5,3.5,1.8,7.1,1,10.7,0,.2-.2.3-.3.3-2.5.3-5.2,1-6.7,3.1,0,0,0,0,0,.1-.1.3,0,.6.3.7,2.7,1.1,5.4,2,6.7,4.7.3.6.4,1.9.3,3.8-.2,5.2-.2,11.1,0,17.6,0,2.1-.9,3.4-3,3.7-.4,0-1.5.2-3.1.5-1.5.2-2.2,1.1-2.3,2.5,0,1.8,0,3.4,0,4.7,0,0,0,.1.1.1h36.6s0,0,0,0c0-2,0-3.5,0-4.5,0-1.4-.7-2.3-2-2.5-1.3-.2-2.7-.5-4-.8-2.5-.5-2.5-2.9-2.4-5.2,0-3,0-7.9,0-14.6,0-2.4.1-4,.5-4.7,1.3-3,4-3.9,7.2-5.1.1,0,.2-.1.3-.2.2-.2.2-.6.1-.9,0,0,0-.2-.2-.2l-6.8-3.1c-.2,0-.3-.3-.3-.4-.4-7.8,4-15.8,13.1-14.4,2.7.4,4.5,1.7,5.7,4.2,1.7,3.6,2.2,7.2,1.6,11,0,.1-.1.2-.2.2-2.9.2-5.3.6-6.9,3.3,0,0,0,0,0,0,0,.2,0,.4.2.5,2.9,1.4,5.5,1.7,6.8,5.2.4.9.5,2.7.4,5.1-.2,3.6-.2,8.6,0,15.1,0,2.1-.1,4.9-2.7,5-2.5,0-5-.2-5.8,2.5-.4,1.5-.8,4.8,1.6,4.9,1.2,0,2.2,0,3.1,0,18.2,0,28.8,0,31.7,0,1.1,0,1.7-.6,1.7-1.7,0-2.3.4-5-1.9-5.6ZM460.6,235.4c2.9-5,10.1-6.1,14.6-2.4.8.7,1.6,1.6,2.4,3,1.8,3.1,2.9,6.6,3.4,10.7.1,1,0,1.9-.1,2.9-.4,2-.8,4-1.2,5.9-.5,2.1-1.1,4.1-2.5,5.6-2.3,2.3-5.8,3.1-9.2,2.9-3.1-.1-6.3-1.8-7.8-4.6-4.2-8.1-4-16.1.5-23.8ZM264.9,242.2c1-4.2,3.4-8.6,7.4-10.6,4.8-2.5,10.3.6,12.7,5,3.3,6.2,3.4,12.4,1.8,19.1-.9,4-2.6,6.5-6.3,7.6-4,1.2-8.4.9-11.3-2.2-3.4-3.6-4.9-9.6-4.9-14.7,0-.9.2-2.3.7-4.2ZM202,251.3c0,.2-.1.3-.2.4-.6.6-1,.9-1.4,1.1-5.4,2.4-9.4-.6-14.4-3.7-.8-.5-1.6-1.1-2.2-1.8-1.1-1.3-.3-3.6.2-5.3,1.5-4.8,4-12.3,7.5-22.4.2-.6.5-1.1.8-1.6,0,0,0,0,0,0,0,0,0,0,0,0,0,0,0,0,0,0,0,0,0,0,0,0,0,0,0,0,0,0,0,0,0,0,0,0,0,0,0,0,0,0,0,0,0,0,0,0,0,0,0,0,0,0,0,0,0,0,0,0,0,0,0,0,0,0l7,22.2c0,0,0,.1,0,.1-1.9.7-3.7,1.3-4.8,3-.1.2,0,.5.1.7,1.3,1,2.7,2,4.3,3.1,1.3.9,3,2.5,2.6,4.2ZM192,370.2c-1.1,4.2-4.6,6.7-8.8,7.2-5.1.6-10.6.9-16.6,1.1,0,0,0,0,0,0,0,0,0,0,0,0,0,0,0,0,0,0,0,0,0,0,0,0,0,0,0,0,0,0,0,0,0,0,0,0,0,0,0,0,0,0,0,0,0,0,0,0,0,0,0,0,0,0,0-17.6,0-28,0-31.4,0-.8.2-1.4.7-1.9,2.6-3.1,5.9-4.6,10-4.5,9.7.2,14.8,9,16,17.5.6,4,0,8.2-1.2,12.3ZM213.5,304s0,0,0,0c0,0,0,0,0,0,0,0,0,0,0,0-7.4,2-15,3.4-22.6,4-7.6.6-15.3.6-22.9-.1,0,0,0,0,0,0,0,0,0,0,0,0,0,0,0,0,0,0,0,0,0,0,0,0,0,0,0,0,0,0,0,0,0,0,.2,0,7.1-1.4,14.6-2.5,22.6-3.1,7.9-.7,15.5-.9,22.8-.7,0,0,.1,0,.2,0,0,0,0,0,0,0,0,0,0,0,0,0ZM451.1,299.9c.7-.7,1.7-1.4,3-2,3.6-1.6,7.7-2.2,11.4-2.6,1.2-.1,2.6,0,4.2.2,4,.6,7.8,1.3,11.6,1.9,2.5.4,4.3,1,5.3,1.7,1.7,1.2,2.7,2.8,3.1,5,.3,1.9-.4,4.6-2.4,5.6-6.2,3.3-13,5-20.4,5.1-5.7.1-11.4-1.5-15.5-5.5-2.8-2.8-2.9-6.6-.2-9.5ZM445.1,267.9s0,0,0,0c0,0,0,0,0,0,0,0,0,0,0,0,0,0,0,0,0,0,0,0,0,0,0,0,0,0,0,0,0,0,0,0,0,0,.1,0l4.7,1s0,0,0,0c0,0,0,0,0,0,0,0,0,0,0,0,0,0,0,0,0,0,0,0,0,0,0,0,0,0,0,0,0,0,0,0,0,0,0,0,0,0,0,0,0,0,0,0,0,0,0,0h0c0,.2-.1.3-.2.2-.6,0-1.4,0-2.6.3-1.2.3-2-.6-2.4-1.6,0,0,0,0,0-.1,0,0,0,0,0,0ZM342.7,300.6s0,0,0,0c0,0,0,0,0,0,0,0,0,0,0,0,0,0,0,0,0,0,0,0,0,0,0,0,0,0,0,0,0,0,0,0,0,0,0,0,0,0,0,0,0,0,0,0,0,0,0,0l.3,2s0,0,0,.1c0,0,0,0,0,0,0,0,0,0,0,0,0,0,0,0,0,0,0,0,0,0,0,0,0,0,0,0,0,0,0,0,0,0,0,0,0,0,0,0,0,0,0,0,0,0,0,0,0,0,0,0,0,0,0,0,0,0,0,0,0,0,0,0,0,0,0,0,0,0,0,0,0,0,0,0,0,0,0,0,0,0,0,0,0,0,0,0,0,0,0,0,0,0,.1,0,1.8-.7,2.4-2,3-3.8.4-1.3.7-1.9,1.3-2.9,0-.1,0-.3,0-.4l-2-1.5s0,0,0,0c0,0,0,0,0,0,0,0,0,0,0,0,0,0,0,0,0,0,0,0,0,0,0,0,0,0,0,0,0,0,0,0,0,0,0,0,0,0,0,0,0,0,0,0,0,0,0,0,0,0,0,0,0,0,0,0,0,0,0,0,1.4-.3,2.9-.5,4.4-.5,13.2,0,24.6,0,34.2,0,1,0,2.1-.2,3.2-.5.4-.1.7-.4.8-.9.4-1.5.8-4.3-.3-5.6-1.7-2-8.2-.5-9.2-3.6-.2-.6-.3-1.3-.2-2.1.4-5.3.5-8.3.5-9-.2-4.5-.2-7.3-.2-8.4,0-3.2,1.3-5.5,4-6.9,1-.5,2.3-.8,3.2-1.6.3-.2.3-.6,0-.9-.3-.4-.6-.7-1.1-.9-1.8-.9-3.9-1.9-6.1-2.8-.1,0-.2-.2-.1-.3,1.1-3.4,2.3-6.6,3.9-9.6,1.4-2.6,4.1-4.3,7-4.8,2.7-.5,6.5-.1,9.3,1.1,2.8,1.2,3.8,3.8,3.9,6.7.1,2,.2,4.2.1,6.7,0,.1,0,.2-.2.3l-7.7,3.6s0,0,0,0c0,0,0,0,0,0,0,0,0,0,0,0,0,0,0,0,0,0,0,0,0,0,0,0,0,0,0,0,0,0,0,0,0,0,0,0,0,0,0,0,0,0,0,0,0,0,0,0,0,0,0,0,0,0,0,0,0,0,0,0,3.3,1.8,5.2,2.8,5.7,3.1,1.4.8,2.2,2.1,2.2,3.8,0,2.4,0,8.6,0,18.6,0,3-.9,5.2-4.3,5.4-2,.2-3.5.3-4.5.5-.1,0-.3.1-.3.3-.6,1.6-.4,4-.3,5.7,0,.3.2.7.5.9.5.3,1,.5,1.6.5,1.3,0,4.1,0,8.4-.4.6,0,2.2,0,4.7.3,1.8.1,3.3.2,4.7.2,4.8,0,10.4,0,16.9,0,1,0,1.8-.4,2.1-1.1.4-.9.1-2.6.2-3.6.1-1.7-.3-2.9-2-3.1-.4,0-1.7-.2-3.8-.3-3.2-.2-3.7-2.7-3.7-5.5,0-8.3,0-14.2,0-17.6,0-3.2,2.9-5.6,5.9-6.2,0,0,0,0,0,0,0,0,0,0,0,0,0,0,0,0,0,0,0,0,0,0,0,0,0,0,0,0,0,0,0,0,0,0,0,0,0,0,0,0,0,0,0,0,0,0,0,0,0,0,0,0,0,0,0,0,0,0,0,0,0,0,0,0,0,0-.4.9-.5,2,.8,2.3,4.1.7,7.8,3.1,10.3,6,1.3,1.5,1.7,4,2,5.3,0,.3,0,.6-.4.7-2.1.9-3.9,1.9-5.5,3.2-2.7,2.1-3.6,4.8-3.7,8.1,0,2.9,1,5.3,3.3,7.2,1,.9,1.9,1.5,2.6,1.8,0,0,0,0,0,0,0,0,0,0,0,.1,0,0,0,.1,0,.2-6.2,2.7-11.4,4.9-15.6,6.6-2.1.8-4.7,1.8-8,2.8-9.8,3.1-19.2,5.4-28.3,7.1-1.9.4-4.2.5-6.7.4-8.8-.2-13.6-.3-21.4-.7-5.1-.3-10.8-.5-16.9-.8-.4,0-1.4-.2-3-.6-.1,0-.2-.1-.3-.3-.6-3,.9-4.1,3.1-5.5ZM313.8,304.2c.9-3.4,1.1-7,.6-10.7,0,0,0,0,0,0,0,0,0,0,0,0,0,0,0,0,0,0,0,0,0,0,0,0,0,0,0,0,0,0,0,0,0,0,0,0,0,0,0,0,0,0,0,0,0,0,0,0,0,0,0,0,0,0l2.7.6s0,0,0,0c0,0,0,0,0,0,0,0,0,0,0,0,0,0,0,0,0,0,0,0,0,0,0,0,0,0,0,0,0,0,0,0,0,0,0,0,0,0,0,0,0,0,0,0,0,0,0,0-.5,1-1,2.1-.3,3.2.4.6,1,1.3,2,1.9.3.2,1.7,1.1,4,2.5,1.3.8,2.2,1.9,2.6,3.4,0,0,0,0,0,.1,0,0,0,0,0,0,0,0,0,0,0,0,0,0,0,0,0,0,0,0,0,0,0,0,0,0,0,0,0,0,0,0,0,0,0,0,0,0,0,0,0,0,0,0,0,0-.1,0l-11.5-.8s0,0,0,0c0,0,0,0,0,0,0,0,0,0,0,0,0,0,0,0,0,0,0,0,0,0,0,0,0,0,0,0,0,0,0,0,0,0,0,0,0,0,0,0,0,0,0,0,0,0,0,0ZM259.8,298.7s0,0,0,0c3.4-2,7-2.9,10.9-2.9,4.1,0,9.9.4,17.5,1.1.3,0,.9.2,1.8.4,1.8.5,3.3,1.5,5.4,2.8,1,.6,1.7,1.5,2.1,2.7,0,0,0,0,0,0,0,0,0,0,0,0,0,0,0,0,0,0,0,0,0,0,0,0,0,0,0,0,0,0,0,0,0,0,0,0,0,0,0,0,0,0,0,0,0,0,0,0,0,0,0,0,0,0l-37.4-4.1s0,0,0,0c0,0,0,0,0,0,0,0,0,0,0,0,0,0,0,0,0,0,0,0,0,0,0,0,0,0,0,0,0,0ZM258.1,308s0,0,0,0c0,0,0,0,0,0,0,0,0,0,0,0,0,0,0,0,0,0,0,0,0,0,0,0,0,0,0,0,0,0,0,0,0,0,0,0l31,4.1s0,0,0,0c0,0,0,0,0,0,0,0,0,0,0,0,0,0,0,0,0,0,0,0,0,0,0,0,0,0,0,0,0,0,0,0,0,0,0,0,0,0,0,0,0,0,0,0,0,0,0,0-1.7.4-3.5.8-5.2,1.1-6.1,1.2-12.3,1.1-18.5-.2-3.2-.7-5.7-2.4-7.5-5.2,0,0,0,0,0,0,0,0,0,0,0,0,0,0,0,0,0,0,0,0,0,0,0,0ZM277.3,402.4c-.9,5.6-1.8,10.2-2.8,13.9-1.2,4.4-5.4,8.2-10,8.9-2.5.4-4.9-.1-7.2-1.5-4-2.4-6.5-8.2-7.5-12.8-.8-3.7-1.1-7.3-1-10.6.1-1.9,1-3.2,2.7-4,2-1,3.3-1.7,4-2.1,0,0,0,0,0,0,0,0,0,0,0,0,0,0,0,0,0,0,0,0,0,0,0,0,0,0,0,0,0,0,0,0,0,0,0,0,0,0,0,0,0,0,0,0,0,0,0,0,0,0,0,0,0,0,0,0,0,0,0,0,0,0,0,0,0,0,0,0,0,0,0,0,0,0,0,0,0,0,0,0,0,0,0,0,0,0,0,0,0,0,0,0,0,0,0,0,0,0,0,0,0,0-.7-1-1.3-1.6-2.5-2-1.5-.5-2.8-1-3.9-1.3-.2,0-.4-.3-.4-.5l.3-3.1s0,0,0,0c0,0,0,0,0,0,0,0,0,0,0,0,0,0,0,0,0,0,0,0,0,0,0,0-.9.3-2.1,1.2-3.9,2.5,0,0-.1,0-.2,0,0,0,0,0,0,0,0,0,0,0-.1,0,0,0,0,0,0,0,0,0,0,0-.1,0,0,0,0,0,0,0,0,0,0,0,0,0,0,0,0,0,0,0,0,0,0,0,0,0,0,0,0,0,0,0,0,0,0,0,0-.1,0,0,0,0,0,0,0,0,0,0,0-.1,0,0,0,0,0,0,0,0,0-.1,0-.2l1.7-2.4c.1-.2.3-.3.5-.5,1.9-1.1,2.8-1.9,3.4-3.9,1.2-3.9,2.5-7.8,5.8-10.2,2.7-1.9,5.7-2.6,9.2-2,.4,0,.9.3,1.3.7,2.4,2.4,4.6,4.6,6.7,6.5,0,0,.2.3.7.7.2.2.3.4.4.6,1.8,3.8,2.8,7.8,3.1,11.9,0,0,0,.2-.1.2l-7.4,3.5c0,0,0,0-.1.1,0,0,0,0,0,0,0,0,0,0,0,0,0,0,0,0,0,0,0,0,0,0,0,0,0,0,0,0,0,0,0,0,0,0,0,0,0,0,0,0,0,0,0,0,0,0,.1.1.7.6,1.8,1.2,2.8,1.6,1.1.4,1.7.7,1.9.8,2.3,1.5,3.2,3.7,2.8,6.5ZM331,389.3l.2-3.5s0,0,0,0c0,0,0,0,0,0,0,0,0,0,0,0,0,0,0,0,0,0,0,0,0,0,0,0,0,0,0,0,0,0,0,0,0,0,0,0,0,0,0,0,0,0,0,0,0,0,0,0l-2.8,2.4c0,0-.1,0-.2,0,0,0,0,0,0,0,0,0-.1,0-.2,0,0,0,0,0,0,0,0,0,0,0,0,0,0,0-.1,0-.1,0,0,0,0,0,0,0,0,0,0,0-.1-.1,0,0,0,0,0,0,0,0,0,0,0,0,0,0,0,0,0,0,0,0,0,0,0,0,0,0,0,0,0,0,0,0,0,0,0,0,0,0,0,0,0,0,0,0,0,0,0-.1v-.9c.2-.7.6-1.3,1.2-1.7,1.4-.9,2.8-1,3.5-3.1.4-1,.7-2.2,1.2-3.5,1.1-3.2,2.8-5.8,5.2-7.8,3.8-3.2,9.9-2.9,13.8,0,1.5,1.1,2.8,3,4,5.7,1.5,3.4,2.6,6.7,3.1,10,0,.3,0,.7-.4.9-6.6,5.1-14.3,7.2-23,8.1,0,0,0,0,0,0,0,0,0,0,0,0,0,0,0,0,0,0,0,0,0,0,0,0,0,0,0,0,0,0,0,0,0,0,0,0,0,0,0,0,0,0l1.7-1.2s0,0,0,0c0,0,0,0,0,0,0,0,0-.1.1-.2,0,0,0,0,0,0,0,0,0-.1,0-.2,0,0,0-.1,0-.2,0,0,0,0,0,0,0,0,0-.1-.1-.2l-1.8-1.8c-.4-.4-.9-.7-1.5-.9l-3-.8c-.1,0-.2-.2-.2-.3ZM359.4,403.9c-.5,2.3-1,6.5-1.8,9.2-1.3,4.2-3.1,9-7.4,10.9-1.9.8-4,1.2-6.1,1.2-4.4-.1-8.3-3.6-10-7.5-.4-1-.9-2.8-1.5-5.2-.6-2.8-1.1-5.3-1.4-7.5,0,0,0,0,0,0,0,0,0,0,0,0,0,0,0,0,0,0,0,0,0,0,0,0,0,0,0,0,0,0,0,0,0,0,0,0,0,0,0,0,0,0,0,0,0,0,0,0,0,0,0,0,0,0,8.6.1,16.7-1.9,24.2-6,1.2-.6,2-1.1,2.5-1.3.1,0,.2,0,.3,0,1.4,2.1,1.7,3.6,1.1,6.3ZM369.9,369.3s0,0,0,0c0,0,0,0,0,0,0,0,0,0,0,0,0,0,0,0,0,0,0,0,0,0,0,0,0,0,0,0,0,0,0,0,0,0,0,0,0,0,0,0,0,0,0,0,0,0,0,0-3.2-3-6.7-5.1-10.6-6.4-2-.7-5-1.2-9-1.6-3.6-.4-6.6-.5-9.1-.4-4,0-7.7,1-11.5,2.8-10.3,5-17,13.2-20.2,24.6,0,0,0,0,0,0,0,0,0,0,0,0,0,0,0,0,0,0,0,0,0,0,0,0,0,0,0,0,0,0,0,0,0,0,0,0,0,0,0,0,0,0,0,0,0,0,0,0,0,0,0,0,0,0-4.4-2.6-8.7-5.5-12.7-8.7-.3-.3-.8-.9-1.3-1.8-3.6-6.2-9.2-11.1-15.7-14.2-.6-.3-1.3-.8-1.9-1.6-5.6-6.5-10.3-13.4-15.1-21-3.9-6.1-8.2-14.9-10.5-19.4,0-.2-.2-.4-.2-.6,0,0,0,0,0,0,0,0,0,0,0,0,0,0,0,0,0,0,0,0,0,0,0,0,0,0,0,0,0,0l18.9,2.1s0,0,0,0c0,0,0,0,0,0,0,0,0,0,0,0,0,0,0,0,0,0,0,0,0,0,0,0,0,0,0,0,0,0,0,0,0,0,0,0,0,0,0,0,0,0,0,0,0,0,0,0l-.5,1.8c0,.2,0,.4,0,.6l1.4,2.5c0,.1.2.2.4.1.7-.2,1.1-.7,1.3-1.4.5-1.6.9-2.9,1.2-4.1,0-.2.2-.3.4-.3h4.1s0,0,0,0c0,0,0,0,0,0,0,0,0,0,0,0,0,0,0,0,0,0,0,0,0,0,0,0,0,0,0,0,0,0,0,0,0,0,0,0,0,0,0,0,0,0,0,0,0,0,0,0l-1.4,8h0c0,2.1,0,5.5,0,10.1,0,.7.5,2.3,1.5,2.1.8-.1,1.4-.5,1.8-1.3,0,0,0-.1,0-.2l.9-19c0-.1,0-.2.2-.2l2.8-.4c.2,0,.3,0,.4.3.2,1.8.7,4.5,1.2,8,.5,2.9.7,5,.6,6.5,0,1.1-.2,3-.5,5.6-.1,1,.5,1.9,1.5,2.1h.4c0,.1.2.1.2.1,0,0,0,0,0,0,0,0,0,0,0,0,0,0,.1,0,.2,0,0,0,0,0,.1,0,0,0,0,0,.1,0,0,0,0,0,.1,0,0,0,0,0,0,0,0,0,0,0,0,0,0,0,0,0,0,0,0,0,0,0,0,0,0,0,0,0,0,0,0,0,0,0,0-.1,0,0,0,0,0,0,0,0,0-.1,0-.2,0,0,0,0,0,0,0,0,0-.2,0-.2l.8-17.5s0,0,0-.1c0,0,0,0,0,0,0,0,0,0,0,0,0,0,0,0,0,0,0,0,0,0,0,0,0,0,0,0,0,0,0,0,0,0,0,0,0,0,0,0,0,0,0,0,0,0,0,0,0,0,.1,0,.2,0,0,0,0,0,0,0,0,0,.1,0,.2,0,0,0,0,0,0,0,0,0,.1,0,.1,0,0,0,0,0,0,0,0,0,0,0,.1.1l3.3,4.9s0,0,0,0c0,0,0,0,0,0,0,0,0,0,0,0,0,0,0,0,0,0,0,0,0,0,0,0,0,0,0,0,0,0,0,0,0,0,0,0,0,0,0,0,0,0,0,0,0,0,0,0,0,0,0,0,0,0,0,0,0,0,0,0,.2-3.3-1.3-6.6-3.4-9.1,0,0,0,0,0,0,0,0,0,0,0,0,0,0,0,0,0,0,0,0,0,0,0,0,0,0,0,0,0,0,0,0,0,0,0,0,0,0,0,0,0,0,0,0,0,0,0,0,0,0,0,0,0,0,2.6-1.3,4.5-2.2,5.5-2.6.9-.4,2.4-.9,3.6-.9,1.1,0,2.7-.3,4.7-.9,1.7-.4,3.3.1,5.3.8,3.7,1.4,7.5,2.1,11.6,2.3.9,0,1.5.4,2,1.1.2.3.2,1.1.2,2.3-.1,1.7-.1,3.6,0,5.8,0,1.1.2,2.1.6,3.1,0,0,0,0,0,0,0,0,0,0,0,0,0,0,0,0,0,0,0,0,0,0,0,0,0,0,0,0,0,0,0,0,0,0,0,0,0,0,0,0,0,0,0,0,0,0,0,0,0,0,0,0,.1,0l1.6-1.1s0,0,.1,0c0,0,0,0,0,0,0,0,0,0,0,0,0,0,0,0,0,0,0,0,0,0,0,0,0,0,0,0,0,0,0,0,0,0,0,0,0,0,0,0,0,0,0,0,0,0,0,.1l1.7,11.5s0,0,0,0c0,0,0,0,0,0,0,0,0,0,0,0,0,0,0,0,0,0,0,0,0,0,0,0,0,0,0,0,0,0,0,0,0,0,0,0,0,0,0,0,0,0,0,0,0,0,0,0,.8-.7,1.1-2.6,1-3.5,0-.9,0-2.2,0-3.9,0,0,0-.1,0-.2,0,0,0,0,0,0,0,0,0,0,0,0,0,0,0,0,0,0,0,0,0,0,0,0,0,0,0,0,0,0,0,0,0,0,0,0,0,0,0,0,0,0,0,0,0,0,0,0,0,0,0,0,0,0,0,0,0,0,0,0,0,0,0,0,0,0,0,0,0,0,0,0,0,0,0,0,0,0,0,0,0,0,0,.1l.5,1.6c0,.1.2.2.3.2,1.2-.1,2.8-2.1,3.2-3.1,1.6-3.4,2.7-7,3.4-10.6.2-1.2.9-1,1.9-1,4.2,0,7.6,0,10.2,0,.4,0,.8.2,1.2.6,9.6,9.2,16,20,17.9,33.3.6,4.2.4,8.3-.5,12.6Z"/>
      <path d="M338.9,211.2c1.5-.9,2.5-1.7,3-2.3,2.3-2.8,3-6.5,2.4-10-.3-1.4-.8-2.5-1.7-3.3-1.7-1.6-5.8-5.6-12.4-11.9-.7-.6-1.3-.8-2.2-.4-2.1,1-5.4,1.9-7.7,4-.8.7-1.4,1.1-2.5,1.9-.1,0-.2.2-.2.4-.3,1.8,1.4,2.3,1.8,3.8.2.7.2,1.5-.1,2.3-.6,1.8-1.5,4-1.1,5.7,1.5,6,5.2,11.5,11.9,12.2,0,0,0,0,0,0,.1,0,.2.1.2.3-.2,1.3,0,2.5.4,3.6.4,1.2,2,2.7,3.5,2.4,1.5-.4,1.9-1.8,2.4-3.3,0-.1,0-.3,0-.3l-1.9-1.6s0,0,0,0c0,0,0-.2,0-.2,1.8-1.3,3.3-2.3,4.4-3Z"/>
      <path d="M55.8,279.2c3.8,3.5,10.2,6.4,15.4,6.3,4.8,0,8.8-1.9,12.1-5.5,2.1-2.4,3.9-5.1,5.3-8.2,0,0,0,0,0,0,0,0,.2,0,.3,0,.6.6,1.1,1.3,1.6,2.1.6,1,.5,1.9-.2,2.8-1.7,1.9-3.4,3.1-6,5.2-1.6,1.2-2.7,2.7-1.6,4.7,1.3,2.4,3.7,2.5,6.1,1.8,4.9-1.5,8-2.4,12.2-4.3,13-6,25.4-11.5,36.7-19.6,4.4-3.2,8.4-6.1,12-8.8,2.9-2.2,6-5.6,8.2-8.1,1.2-1.4,1.4-2.7.8-4-.8-1.6-2.2-2.2-4-1.6-3,1.2-5.1,2-6.3,2.5-1.9.8-4.4.9-5.3-1.4-.3-.7-.5-1.3-.6-1.9,0,0,0,0,0,0,0-.1.1-.2.2-.2.6,0,1.5.1,2.7.2,10.2.5,17.6-6.2,20.4-15.5,4-13.1-9.4-25.5-22.2-22.8-5.1,1.1-10.2,3.6-13.1,8.1,0,0,0,0,0,0,0,0-.2.1-.3,0-1.8-1.3-2.7-2-2.7-2-5.8-4.3-12.9-5.7-19.7-2.5-5.9,2.8-9.3,7.8-11.6,13.9-.3.7-.7,1.1-1.3,1.1-.6,0-1.5,0-2.8-.3-9.7-1.5-19.3,3.1-22.3,12.9-1.1,3.7-1.1,8-.8,12,0,.2-.1.4-.3.4-10,1.6-17.4,9-18.2,19.1-.4,5.4,1.4,10,5.4,13.7ZM137.3,213.8c2.5-2.9,5.6-4.6,9.4-4.9,5.5-.5,11,5.1,12.1,10.2.3,1.4.1,3.1.1,4.9,0,1-.3,2.1-.9,3.3-2.4,4.8-8,7.6-13.2,6.5-5-1-8.2-3.7-9.7-8.3-1.4-4.4-.7-8.3,2.2-11.7ZM104.7,218.1c2.2-3.3,5.6-5.9,9.6-6.6,6-1,11.7,3,13,8.9.9,4,.4,8-2.2,11.2-3.5,4.3-9,6.3-14.2,3.6-3.1-1.6-5.4-3.9-6.9-7.1-1.6-3.4-1.4-6.8.8-10ZM104.2,249.8c1.4-2.4,2.4-4.9,2.9-7.6,0,0,0,0,0,0,0,0,0,0,0,0,0,0,0,0,0,0,0,0,0,0,0,0,0,0,0,0,0,0,0,0,0,0,0,0,0,0,0,0,0,0,0,0,0,0,0,0,0,0,0,0,0,0,5.1,1.5,10.3,1.8,15.2-.2,3.5-1.4,6.3-3.9,8.7-6.9,0,0,0,0,0,0,0,0,0,0,0,0,0,0,0,0,0,0,0,0,0,0,0,0,0,0,0,0,0,0,1.8,2.4,3.1,5.3,3.5,8.3.9,6.1-2,11.1-5.9,15.6-6.8,7.7-15.4,11.4-25.9,11.2-6.5-.1-11-3.1-13.7-8.9-.4-.8-.6-1.3-.6-1.6,0-.1,0-.2.2-.2,6.4-.8,11.7-3.7,15-9.4ZM81.3,229.6c1.2-.8,2.5-1.4,3.9-1.7,0,0,.2,0,.3,0,.3,0,.7-.1,1-.2.6,0,1.3-.1,1.9-.1,2,0,4,.5,5.7,1.4.2,0,.3.2.5.3.7.4,1.3.9,1.9,1.4.1.1.3.3.4.4.3.3.6.6.8.9.3.3.5.7.7,1,.5.7.8,1.4,1.1,2.2.2.6.4,1.2.5,1.7,0,.4.2.8.2,1.2,0,.2,0,.4,0,.6,0,.2,0,.4,0,.6,0,.2,0,.4,0,.6,0,.2,0,.4,0,.6-.2,2-.8,3.9-1.9,5.6-.1.2-.2.3-.3.5-.2.3-.5.7-.7,1-.1.2-.3.3-.4.5-.3.3-.6.6-.9.9-.5.4-1,.8-1.5,1.2-.4.2-.7.5-1.1.6-.4.2-.8.4-1.2.5-.2,0-.4.2-.6.2-.8.3-1.6.5-2.4.6-.4,0-.8,0-1.2.1-.2,0-.4,0-.6,0-.4,0-.8,0-1.2,0s-.4,0-.6,0c-1.1-.2-2.1-.5-3.1-.9-.3-.1-.6-.3-.8-.4-.2,0-.3-.2-.5-.3-.3-.2-.6-.4-.8-.6-.6-.4-1.2-.9-1.7-1.5-.5-.5-.9-1.1-1.4-1.7-.6-1-1.1-2-1.4-3-.1-.4-.2-.7-.3-1.1-.1-.5-.2-1.1-.2-1.6,0-.2,0-.4,0-.6,0-4.2,2-8.3,5.8-10.8ZM57.4,263.6c1.1-4.8,5.3-8.3,9.9-9.6,3.3-.9,6.4-.2,9.2,1.9,5.5,4.2,7.9,12.3,2.9,18.1-2.2,2.5-5,3.9-8.6,4.3-4.3.4-7.8-.9-10.5-4-2.5-2.9-3.8-7-3-10.7Z"/>
      <path d="M520.4,417.6h0c-3.8,0-7,3-7,6.8,0,3.8,3.1,6.8,6.9,6.8h0c3.8,0,7-3,7-6.8,0-3.8-3.1-6.8-6.9-6.8ZM520.4,429.8c-2.9,0-5.2-2.4-5.2-5.4,0-3,2.3-5.4,5.2-5.3,2.9,0,5.2,2.4,5.2,5.4,0,3-2.3,5.4-5.2,5.3Z"/>
      <path d="M522.4,424.8s0,0,0,0c0,0,0,0,0,0,0,0,0,0,0,0,0,0,0,0,0,0,0,0,0,0,0,0,0,0,0,0,0,0,0,0,0,0,0,0,0,0,0,0,0,0,.5-.4.8-.7.9-1,.8-3-3.5-2.6-5.1-2.4-.2,0-.4.2-.4.4v5.9c0,.4.3.7.7.7h.1s0,0,0,0c0,0,0,0,0,0,0,0,0,0,0,0,0,0,0,0,0,0,0,0,0,0,0,0,0,0,0,0,0,0,0,0,0,0,0,0,0,0,0,0,0,0,0,0,0,0,0,0,0,0,0,0,0,0,0,0,0,0,0,0,0,0,0,0,0,0,0,0,0,0,0,0,0,0,0,0,0,0,0,0,0,0,0,0,0,0,0,0,0,0,0,0,0,0,0,0v-1.9s0,0,0,0c0,0,0,0,0,0,0,0,0,0,0,0,0,0,0,0,0,0,0,0,0,0,0,0,0,0,0,0,0,0,0,0,0,0,0,0,0,0,0,0,0,0,0,0,0,0,0,0h.9c.3.1.6.4.7.7l.6,1.8c0,0,0,.1,0,.2.3.3.7.3,1.3.1.1,0,.2-.2.2-.3-.1-1.2-.5-2.1-1.1-2.8,0,0,0,0,0,0ZM521.7,423.1c0,.5-.6.9-1.4.9h-.6s0,0,0,0c0,0,0,0,0,0,0,0,0,0,0,0,0,0,0,0,0,0,0,0,0,0,0,0,0,0,0,0,0,0,0,0,0,0,0,0,0,0,0,0,0,0,0,0,0,0,0,0v-1.3c0-.2.1-.3.3-.3h.6s0,0,0,0c0,0,0,0,.1,0,0,0,.1,0,.2,0,0,0,0,0,.1,0,0,0,.1,0,.2,0,0,0,0,0,.1,0,0,0,0,0,.1,0,0,0,0,0,0,0,0,0,0,0,.1,0,0,0,0,0,0,0,0,0,0,0,0,0,0,0,0,0,0,0,0,0,0,0,0,0,0,0,0,0,0,0,0,0,0,0,0,0,0,0,0,0,0,.1,0,0,0,0,0,0h0Z"/>
    </g>
  </g>
</svg>