<?xml version="1.0" encoding="UTF-8"?>
<svg id="Layer_2" xmlns="http://www.w3.org/2000/svg" version="1.1" viewBox="0 0 600 600">
  <!-- Generator: Adobe Illustrator 29.3.1, SVG Export Plug-In . SVG Version: 2.1.0 Build 151)  -->
  <defs>
    <style>
      .st0 {
        fill: #db2127;
      }
    </style>
  </defs>
  <path class="st0" d="M360.8,359.8c.2,0,.3-.1.3-.3,1.3-19.3,2.1-38.9,2.4-58.8.4-28.4.3-56.7.2-86.6,0-.5,0-.9-.2-1.3-11.7-30.6-28.5-74.5-50.5-131.8-1.3-3.4-3.6-9.2-6.7-17.3-1.4-3.6-3-7.2-4.6-10.7-1-2.1-2.1-4-3.3-5.7-1.9-2.8-4.9-4.2-7.9-2.2-1,.7-2.1,2.2-2.8,3.4-1,1.7-1.9,3.6-2.8,5.5-1.8,4.1-3.3,8.1-4.8,12-6.4,17.4-10.2,27.9-11.5,31.5-.2.5-.2.9,0,1.3,0,.3,5.8,16.5,17.1,48.8.3,1,.9,2.2,1.3,3.2,40.1,113.9,61.2,173.9,63.4,180.2.3.9.5,1.7.4,2.6,0,2.1-1.8,2.3-3.5,2.3-6.2,0-48.2,0-126.1,0-2.1,0-3.1-1-2.8-3.1,0,0,0-.1,0-.2l59.8-183.4s0,0,0,0c-6.4-18.2-10.1-29-11.4-32.5-.5-1.4-1.1-2.4-2.5-2.4-1.3,0-2.1.6-2.6,1.8-66.2,181.2-111.4,304.8-135.6,370.8-3.8,10.4-8.4,21.2-14.5,31-7.3,11.8-17.3,21.1-30.6,25.3-2.9.9-6.5,1.6-10.8,2.2-4.8.6-9.9,1.1-14.9,1.1-2.2,0-4.2.3-6,.9-2.5.8-3.5,3-2.3,5.3,1.6,3,7.7,3.2,10.6,3.2,39.3,0,81.1,0,125.6,0,3.4,0,13-.1,12.9-5.5,0-2.3-1.8-3.2-3.9-3.5-1.3-.2-2.6-.4-3.8-.3-3.9,0-6.7,0-8.3,0-6-.2-12.5-2.3-17-6.4-4.3-3.9-5.8-8.9-5.6-14.7.2-6.1,1-12.1,2.3-18.1,1.5-7,3.1-12.9,4.7-17.7,10.8-32,24.9-73.4,42.1-124.2.7-2.2,2.1-4.3,4.3-5.2.7-.3,2.1-.4,4.3-.4,25.5,0,74,0,145.4,0Z"/>
  <path class="st0" d="M315.8,52.5c1.3.7,2.6,1,3.9,1,9.8,0,19.5.9,28.8,4,6.6,2.2,12.4,5.9,15.9,11.9,4.5,7.8,5.2,17.6,5.7,26.4.4,8.1.7,14.5.7,19.3.1,8.6.3,18.2.4,26.2.1,45,.1,89.5,0,133.6,0,25.3-.6,48.9-1.6,70.6-1.1,22.3-3.1,45.3-6.6,66.9-2.8,17.1-6.8,34-13.2,50-5.9,14.9-14.1,28.6-24.4,41.1-5.4,6.5-11.2,12.9-17.5,19.2-5.6,5.6-11.4,10.6-17.3,14.9-3.2,2.3-7,4.5-10.1,6.7-2.7,1.9-5.5,3.9-5.6,7.4,0,1.4.5,2.5,1.8,3.3,2.2,1.4,4.7,1,6.9-.1,6.2-3,11.9-6.9,18-11,18.7-12.7,36.1-25.4,52.5-39.5,13.7-11.9,26.4-24.8,36.9-39.4,7.6-10.5,13.7-21.7,18.3-33.6,3.7-9.7,6.7-19,8.9-28,3.8-15.9,6-33.6,7.1-50.6.7-11.7,1.2-23.5,1.4-35.6.3-15,.4-27.7.5-38.1,0-1,0-1.6,0-1.9,0-17.8,0-52.8,0-104.9,0-31.5,0-54.5,1.1-76.4.4-8.5,1.1-17,3.5-24.8,2.6-8.3,7.9-13.8,16.6-15.6.8-.2,2.8-.5,6.1-.8,5.2-.6,10-1,14.4-1.1,2.9,0,6.7-1.4,6-5.1-.4-1.7-1.5-2.9-3.5-3.5-1.8-.5-3.9-.8-6.3-.8-78.4,0-125.9,0-142.4,0-2.5,0-4.7.4-6.6,1.1-3.5,1.3-3.7,5.5-.4,7.2Z"/>
  <path class="st0" d="M552.1,553.2c1.8-1.6,1.6-4.7-.7-5.8-2.6-1.2-6.2-.9-8.9-1-8.5-.4-16.8-1.9-24.7-4.6-7.9-2.7-14.7-7.2-20.5-13.3-4.4-4.6-8.4-9.6-12-15.2-9.9-15.1-17.3-31.6-24.1-48.7-11.9-30-21.2-53.7-28-71.3-.6-1.6-1.2-2.6-2.9-2.5-1.3,0-2,.7-2.3,2-3.5,18.6-9.1,36.1-16.8,52.5-2.3,4.8-5.6,10.7-9.9,17.5-.5.8-.8,1.5-.5,2.3,14.3,37.9,21.7,57.5,22.2,58.8,1,2.8,1.7,4.6,1.9,5.4,1.5,5,1.6,11.9-3.4,15.1-.3.2-1,.5-2,.9-3.7,1.4-6.3,7.3-1.2,9,2.2.7,4.4,1.1,6.8,1.3,2.7.2,4.7.2,6,.2,14.5,0,51.3,0,110.3,0,2.9,0,8.2-.5,10.6-2.7Z"/>
</svg>