<?xml version="1.0" encoding="UTF-8"?>
<svg id="Layer_4" xmlns="http://www.w3.org/2000/svg" version="1.1" viewBox="0 0 600 600">
  <!-- Generator: Adobe Illustrator 29.3.1, SVG Export Plug-In . SVG Version: 2.1.0 Build 151)  -->
  <defs>
    <style>
      .st0 {
        fill: #636666;
      }

      .st1 {
        fill: #a8893f;
      }
    </style>
  </defs>
  <g>
    <path class="st1" d="M211.2,336.4c47.4-44.9,100.2-67.9,175.6,0l18.2-30.2c-46-53.9-151.1-70.8-212,.4l18.2,29.8Z"/>
    <path class="st1" d="M460.4,165.9c-3.9-2.1-13.5,4.3-24.2,6.2-10.6,1.9-13.4-2.8-19.7,7.6-3.1,5-3.6,22.2-6.9,25.4-3.3,3.2-14.5.3-19.2,5.1-4.7,4.8-1.6,21.4-1.6,21.4.5,2.1.5,4.2-.1,6.4-2.1,7.2-10.4,11-18.5,8.6-8.1-2.4-13-10.2-10.8-17.3,1.4-4.7,5.5-7.3,10.2-9,11.6-4.3,13.1-14.9,7.9-19.3-3.7-3.1-6.9-7.2-5.1-17,4.2-23.1-3.3-25.3-8.7-26.1-5.4-.8-10.3,10.1-14.9,20.4-4.6,10.4-3.2,8-13.8,13.7-10.6,5.7.2,18.7.2,18.7,2,2.2,3.2,5,3.2,8,0,7.1-6.7,12.9-15,12.9s-15.1-5.8-15.1-12.9,1.6-6.6,4.1-8.9c2.7-2.5,5.2-5.1,7-8.3.2-.3.3-.6.5-.9,3.5-6.3,1.6-15.2-7-19.9-8.7-4.7-5.8-12.3-3.7-14.1,6.8-5.9,11.2-15.9,11.7-19.9.6-4-8.7-10.5-11-12-2.3-1.5-3.9-20-9.9-21.4-6.1-1.4-6.5,9.4-10.5,17.8-4,8.4-11,7.9-11.6,14.7-.5,6.9,5.7,13.1,11.6,20.7,6,7.6-2.2,10.1-9.6,20-7.4,9.9,5.9,21.9,5.9,21.9,3,2.1,5,5.1,5.3,8.7.6,7.1-5.8,13.5-14.3,14.2-8.5.8-15.9-4.4-16.6-11.5-.4-4.4,2.9-7.5,5.8-11.2,5.1-6.4,4-17.5-4.7-19.5-10.1-2.4-13.1-11.8-17.1-21.8-4-10.1-12.1-11.9-16.6-7-4.4,4.8-.7,18.6-1,26.9-.3,8.3-2.5,9.1-6.7,18.1-4.3,9,12,15.9,12,15.9,4.2,1.3,7.4,4.3,8.3,8.2,1.7,6.7-3.8,13.9-12.4,16-8.5,2.1-16.8-1.6-18.5-8.4-.8-3.2,0-6.6,2.2-9.4,0,0,4.2-17.2-7-20.9-11.2-3.7-16.7,3.5-19.3-11.9-2.6-15.3-2.2-21.4-10.5-22.9-8.3-1.5-13.2,2.6-32.6-8.2-6.5-3.6-1.6,11.6.7,16.9,2.3,5.2,1.8,19.3,4.7,22.6,2.9,3.3,25.8.1,20.8,20.7-.8,3.5,35.6,55.5,35.6,55.5,62.6-33.9,126.2-40.2,191.7,2.1l34-54.7c1-22.1,7.9-19.2,18.6-22,10.3-2.6,7-17.1,6.9-20.8-.1-3.8,9.3-16.3,5.4-18.4ZM243.1,213.1c-4.3,0-7.7-3.5-7.7-7.7s3.5-7.8,7.7-7.8,7.8,3.5,7.8,7.8-3.5,7.7-7.8,7.7ZM299,203c-4.3,0-7.8-3.5-7.8-7.7s3.5-7.8,7.8-7.8,7.7,3.5,7.7,7.8-3.5,7.7-7.7,7.7ZM299,157.8c-4.3,0-7.8-3.5-7.8-7.7s3.5-7.8,7.8-7.8,7.7,3.5,7.7,7.8-3.5,7.7-7.7,7.7ZM346.8,206.3c0-4.3,3.5-7.8,7.8-7.8s7.7,3.5,7.7,7.8-3.5,7.8-7.7,7.8-7.8-3.5-7.8-7.8Z"/>
  </g>
  <path class="st0" d="M115.5,434.8c-3.4-7.3-25.5-60-25.5-60l-12.2-29.7h-3.2s-31.5,81.6-36.4,88.9c-4.9,7.3-6.1,6.7-9.7,7.3v2.8h27.2v-2.8s-10.9,1.7-9.1-7.9c1.9-9.6,7.2-20.6,7.2-20.6h36.6s10.2,19.6,8.5,23.8c-1.7,4.1-.9,3.7-9.8,4.5v3h36v-2.4s-6.2.4-9.6-6.9ZM56.4,406.5l16.2-40.6,16.2,40.6h-32.4Z"/>
  <path class="st0" d="M134.1,417.2l3.9,28.2h2.9s.6-5.7,4.4-4.7c3.9.9,10.3,4.7,20.7,4.7s21-4.8,24.5-19.8c3.5-15-7.1-22.7-12.7-26.5s-28.4-15.4-28.8-24.3c-.4-8.9,3.5-14.1,11-15.3s19.9.3,25.4,22.8h3.1c0,0-2.5-28.8-2.5-28.8h-2.6s-.6,6.2-5.9,4.5c-5.3-1.7-16.6-8.1-28.9-1.1-12.3,7-12.4,25.4-5.7,33.6,6.7,8.2,23.8,15.8,28.6,20.8,4.8,5,10.8,10.7,5.5,22.2-5.4,11.5-23.7,8.6-30.1.5-6.4-8.1-9.5-16.7-9.5-16.7h-3.1Z"/>
  <path class="st0" d="M201.6,443.6h35.3v-2s-9.8.4-10.8-6.4c-1-6.8-.1-33.7-.1-33.7h39.1l-.5,32.3c0,2.7-1.5,5.2-3.9,6.5-1.7.8-4,1.3-7.3.9l.3,2.5h34.8v-1.7s-8.5.2-10.4-5.7c-1.9-5.9-.8-70-.7-70.8s-.4-7.5,11-7.6v-2h-35.1v2.2c0,0,10.6.8,11.1,5,.6,4.2.3,33.1.3,33.1h-38.9s-.4-31.3.6-33.4,4.4-5.2,10.9-4.6v-2.3h-35.7v2.5s11.1-.9,11.7,7.7c.6,8.7-.2,67.9-.6,70-.4,2.1-1.1,5.2-11.1,5.5v2.1Z"/>
  <path class="st0" d="M333.5,361s-16.9-.9-20.4,2.5c-3.5,3.4-5.1,5.7-6.8,14.8h-3.2l.8-22.4h71.8l.6,22.4h-3s0-10.6-6.7-14.8c-5-3.1-20.6-2.5-20.6-2.5,0,0-.1,70.3.1,73.3.3,3,3.1,7.9,12.3,7.4v2h-36.8v-2.1s11.9,0,11.8-5.5c0-5.4,0-75.1,0-75.1Z"/>
  <path class="st0" d="M425.3,353.8c-23,0-41.7,20.6-41.7,46s18.6,46,41.7,46,41.7-20.6,41.7-46-18.6-46-41.7-46ZM425.2,441.7c-17.1,0-27.2-18.6-27.8-41.6-.6-25.4,12.4-41.6,27.8-41.6s27.8,16.5,27.8,41.6-10.2,41.6-27.8,41.6Z"/>
  <path class="st0" d="M488.4,357.6s.4,70.6-1.1,75.6c-1.5,4.9-4.5,8.1-13.2,7.6v3.5h33.3v-3.1s-11.7,1.5-12.7-9.9-.7-66-.7-66l61.7,80.4h2.2s-.3-84.3.7-87.9c.9-3.6,5.6-8.1,12.9-7.6v-2.9h-33.1v2.5s13.3.2,13.4,10.3c0,10.1.5,58.4.5,58.4l-54-71.1h-24.2v2.7s4.6,0,5.8.5,8.6,7.3,8.6,7.3Z"/>
</svg>