<?xml version="1.0" encoding="UTF-8"?>
<svg id="Layer_2" xmlns="http://www.w3.org/2000/svg" version="1.1" viewBox="0 0 600 600">
  <!-- Generator: Adobe Illustrator 29.3.1, SVG Export Plug-In . SVG Version: 2.1.0 Build 151)  -->
  <defs>
    <style>
      .st0 {
        fill: none;
      }

      .st1 {
        fill: #fff;
      }
    </style>
  </defs>
  <path class="st0" d="M299.4,500.4s0,0,.1,0c0,0,0,0,0,0,0,0,0,0,0,0Z"/>
  <path class="st0" d="M354.5,441s0,0,0,0c0,0,0,0,0,0,0,0,0,0,0,0Z"/>
  <path class="st0" d="M238,285s0,0,0,0c0,0,0,0,0,0,0,0,0,0,0,0Z"/>
  <path class="st0" d="M275.8,363.1s0,0,0,0c0,0,0,0,0,0,0,0,0,0,0,0Z"/>
  <path class="st0" d="M251.3,451.1s0,0-.1,0c0,0,0,0,0,0,0,0,0,0,0,0Z"/>
  <path class="st0" d="M143.5,50.6s0,0,0,0c0,0,0,0,0,0,0,0,0,0,0,0Z"/>
  <path class="st0" d="M429.6,385.4s0,0,0,0c0,0,0,0,0,0,0,0,0,0,0,0Z"/>
  <path class="st0" d="M350.6,450.5s0,0,0,0c0,0,0,0,0,0,0,0,0,0,0,0Z"/>
  <path class="st0" d="M301.2,312.2s0,0,0,0c0,0,0,0,0,0,0,0,0,0,0,0Z"/>
  <path class="st0" d="M171.7,385.5s0,0,0,0c0,0,0,0,0,0,0,0,0,0,0,0Z"/>
  <path class="st0" d="M490.9,370s0,0,0,0c0,0,0,0,0,.1,0,0,0,0,0,0Z"/>
  <path class="st0" d="M298.6,282.6s0,0,0,0c0,0,0,0,0,0,0,0,0,0,0,0Z"/>
  <path class="st0" d="M440.5,369.4s0,0,.1,0c0,0-.1,0-.2,0,0,0,0,0,0,0Z"/>
  <path class="st0" d="M108.2,373s0,0,0,0c0,0,0,0,0,0,0,0,0,0,0,0Z"/>
  <path class="st0" d="M447.6,335s0,0,0,0c0,0,0,0,0,0,0,0,0,0,0,0Z"/>
  <path class="st0" d="M360,273.7s0,0,0,0c0,0,0,0,0,0,0,0,0,0,0,0Z"/>
  <path class="st0" d="M319.7,304.5s0,0,0,0c0,0,0,0,0,0,0,0,0,0,0,0Z"/>
  <path class="st0" d="M343.4,281.6s0,0,0,0c0,0,0,0,0,0,0,0,0,0,0,0Z"/>
  <path class="st0" d="M246.4,440.8s0,0,0,0c0,0,0,0,0,0,0,0,0,0,0,0Z"/>
  <path class="st0" d="M361.2,526.5s0,0,0,0c0,0,0,0,0,0,0,0,0,0,0,0Z"/>
  <path class="st0" d="M460.6,465.5s0,0,0,0c0,0,0,0,0,0,0,0,0,0,0,0Z"/>
  <path class="st0" d="M477.6,458.5s0,0,0,0c0,0,0,0,0,0,0,0,0,0,0,0Z"/>
  <path class="st0" d="M141.2,465.2s0,0,0,0c0,0,0,0,0,0,0,0,0,0,0,0Z"/>
  <path class="st0" d="M240.4,526.3s0,0,0,0c0,0,0,0,0,0,0,0,0,0,0,0Z"/>
  <path class="st0" d="M256.1,545.7s0,0,0,0c0,0,0,0,.1,0,0,0,0,0,0,0Z"/>
  <path class="st0" d="M344.6,546s0,0,0,0c0,0,0,0,0,0,0,0,0,0,0,0Z"/>
  <path class="st0" d="M149.9,334.8s0,0,0,0c0,0,0,0,.1,0,0,0,0,0,0,0Z"/>
  <path class="st0" d="M369.9,457.3s0,0,0,0c0,0,0,0,0,0,0,0,0,0,0,0Z"/>
  <path class="st0" d="M352.3,508.6s0,0,0,0c0,0,0,0,0,0,0,0,0,0,0,0Z"/>
  <path class="st0" d="M247.4,517.3s0,0,0,0c0,0,0,0,0,0,0,0,0,0,0,0Z"/>
  <path class="st0" d="M249,508.5s0,0,0,0c0,0,0,0,0,0,0,0,0,0,0,0Z"/>
  <path class="st0" d="M157.9,368.9s0,0,0-.1c0,0,0,.1,0,.2,0,0,0,0,0,0Z"/>
  <path class="st0" d="M352.8,517.6s0,0,0,0c0,0,0,0,0,0,0,0,0,0,0,0Z"/>
  <path class="st0" d="M230.9,457.5s0,0,0,0c0,0,0,0,0,0,0,0,0,0,0,0Z"/>
  <path class="st0" d="M375.7,505.2s0,0,0,0c0,0,0,0,0,0,0,0,0,0,0,0Z"/>
  <path class="st0" d="M123.6,458.9s0,0,0,0c0,0,0,0,0,0,0,0,0,0,0,0Z"/>
  <path class="st0" d="M337.5,161.6s0,0,0,0c0,0,0,0,0,0,0,0,0,0,0,0Z"/>
  <polygon class="st0" points="338.2 161.2 338.2 161.2 338.2 161.2 338.2 161.2"/>
  <path class="st0" d="M317,109.1s0,0,0,0c0,0,0,0,0,0,0,0,0,0,0,0Z"/>
  <path class="st0" d="M299.8,159.1s0,0,0-.1c0,0,0,0,0,.1Z"/>
  <path class="st0" d="M342,158.9s0,0,0,0c0,0,0,0,0,0,0,0,0,0,0,0Z"/>
  <path class="st0" d="M305.4,127.5s0,0,0,0c0,0,0,0,0,0,0,0,0,0,0,0Z"/>
  <polygon class="st0" points="299.6 158.9 299.6 158.9 299.6 158.9 299.6 158.9"/>
  <path class="st0" d="M384.7,130.7s0,0,0,0c0,0,0-.1,0-.2,0,0,0,0,0,.1Z"/>
  <path class="st0" d="M356.5,166.2s0,0,0,0c0,0,0,0,0,0,0,0,0,0,0,0Z"/>
  <path class="st0" d="M118.1,367.3s0,0,0,0c0,0,0,0,0,0,0,0,0,0,0,0Z"/>
  <path class="st0" d="M376.5,128.3s0,0,0,0c0,0,0,0,.1,0,0,0,0,0,0,0Z"/>
  <path class="st0" d="M362.8,127.4s0,0,0,0c0,0,0,0,0,0,0,0,0,0,0,0Z"/>
  <path class="st0" d="M369.6,130.6s0,0,0,0c0,0,0,0,0,0,0,0,0,0,0,0Z"/>
  <path class="st0" d="M375.4,165.5s0,0,0,0c0,0,0,0,0,0,0,0,0,0,0,0Z"/>
  <path class="st0" d="M290.3,162.8s0,0,0,0c0,0,0,0,0,0,0,0,0,0,0,0Z"/>
  <path class="st0" d="M277,130.6s0,0,0,0c0,0,0,0,0,0,0,0,0,0,0,0Z"/>
  <path class="st0" d="M235.6,107s0,0,0,0c0,0,0,0,0,0,0,0,0,0,0,0Z"/>
  <path class="st0" d="M217.6,139.9s0,0,0,0c0,0,0,0,0,0,0,0,0,0,0,0Z"/>
  <path class="st0" d="M236.1,141s0,0,0,0c0,0,0,0,0,0,0,0,0,0,0,0Z"/>
  <path class="st0" d="M274.4,134.3s0,0,0,0c0,0,0,0,0,0,0,0,0,0,0,0Z"/>
  <path class="st0" d="M483.2,367.6s0,0,0,0c0,0,0,0,0,0,0,0,0,0,0,0Z"/>
  <path class="st0" d="M290.3,186.8s0,0,0,0c0,0,0,0,0,0,0,0,0,0,0,0Z"/>
  <path class="st0" d="M230.6,114.4s0,0,0,0c0,0,0,0,0,0,0,0,0,0,0,0Z"/>
  <path class="st1" d="M458,35.9c-.1-.1-.3-.2-.5,0-12.2,7.9-25,14.9-38.2,20.9-19.1,8.7-39.6,15.1-61.7,19.3-6.1,1.2-10.9,1.9-14.5,2.3-2.9.3-5,.6-6.3.9-.3,0-.7.1-1,.1-2.8,0-5.9.5-8.7.7-1.7.1-5.8.4-12.2.8-3.2.2-6,0-9.1.3-.9,0-3.7.1-8.2,0-1.1,0-2.1,0-2.8-.2-2.3-.3-4.7,0-7.1-.2-1.7-.1-3.4-.2-5-.2-.8,0-1.7-.3-2.5-.3-4.1,0-7.9-.4-11.6-.9-1.2-.2-1.9-.1-3.2-.1-.7,0-1.5,0-2.2-.2-1.8-.4-3.6-.6-5.3-.7-3-.2-5.7-.9-8.5-1.2-.9,0-1.8-.2-2.9-.5-1.7-.4-3.6-.5-5.7-1-1.1-.2-2.1-.4-3-.4,0,0,0,0,0,0l-14-2.9s0,0,0,0c-.3-.2-1.8-.6-4.5-1.2-5.2-1.3-10.9-2.9-17.2-4.8-19.5-6.1-37.8-14.1-55-23.8-3-1.7-5.6-3.3-7.9-4.7-.4-.2-.9-.2-1.2.2-6.1,6.8-12.7,14.4-19.7,22.6-14.3,16.8-24.6,28.7-30.9,35.8-.8.9-1.5,1.7-2.1,2.2-.1.1-.2.3,0,.5.4.7.8,1.4,1.2,1.9,11.8,15.8,19.6,33.3,23.3,52.7,1.2,6,1.9,11.3,2.2,15.9.1,2.1.3,3.9.3,5.4.3,5.1.1,8.6.1,15.1,0,1.5,0,2.7-.1,3.4-.3,2.9-.2,5.4-.5,8.6-.5,4.2-.8,7.1-.9,8.6-.1,1.6-.5,3.2-.7,4.5,0,.9-.2,2.1-.4,3.4-2.5,15.3-5.9,30.6-10.3,45.8-2.1,7.3-4.7,15.2-6.3,21.9-1.3,5.8-2.4,11.9-3.3,18.2-.5,3.3-.7,6.9-1.2,10.7,0,.6-.1,2.7-.2,6.5,0,1.2-.3,2.4-.3,3.4,0,2,0,5.4,0,9.9,0,1.5.3,3,.3,4.6,0,3.5,0,5.6.1,6.4.3,2.6.6,5.1.8,7.4.2,2.3.6,4.2.9,6.4.2,1.4.4,3,.7,4.7,2.2,12.8,5.7,25.6,10.8,37.7,0,.2.3.4.5.4l1.8.4c.3,0,.5.3.5.5,2,7.1,6.4,13,11.1,19.1,5,6.4,9,12.5,9.8,20.4.3,2.5,0,5.1-.5,7.9-.6,2.8-1.3,5.3-2.2,7.7,0,0,0,0,0,0,0,0,0,0,0,0,0,0,0,0,0,0,0,0,0,0,0,0,0,0,0,0,0,0,0,0,0,0,0,0,0,0,0,0,0,0,0,0,0,0,0,0,2.8.6,5.8,1.9,9,4,2.6,1.7,5.3,2.5,8.3,2.6,0,0,0,0,0,0,0,0,0,0,0,0,0,0,0,0,0,0,0,0,0,0,0,0,0,0,0,0,0,0,0,0,0,0,0,0,0,0,0,0,0,0,0,0,0,0,0,0l-.6-5c0,0,0-.1,0-.2.3-2.6.5-4.7,1.7-7,2.3-4.4,6.9-7.1,11.9-8,6.7-1.3,13-.4,19,2.7,2.6,1.3,4.7,3.1,6.2,5.3,1.2,1.7,2,3.9,2.5,6.6.1.9,0,1.7-.4,2.3-1.8,3.2-6.5,4.1-9.9,3.9-1.9-.1-4.9-1.1-6.3-2.6-1.3-1.4-1.5-3.5-.8-5.2.2-.5.7-.9,1.3-.9.6,0,1,0,1.5,0,1.4.2,6.7,1.6,6.9-1.4.1-1.2-1-1.8-2-2.3-3.3-1.6-6.9-2.5-10.7-2.7-1.3,0-3,.2-4.2.4-3.4.5-7.4,2.6-7.8,6.4,0,.3,0,.5.1.8.7,1.7,2.2,4.5,1.7,6.4-.4,1.5-1.5,2-2.8,2.6-1.2.5-.9,1.1-.5,2,1.9,4.1,4.7,7,8.4,8.8,2.4,1.1,5.3,1.8,8.7,1.9,3.3.1,6.4,0,9.6-.4,3.5-.5,7.4-1.2,11.7-2.3,5.4-1.3,11.1-2.8,17.2-4.5,1.8-.5,5.2-1.3,10.2-2.3,3.1-.7,6.5-.7,9.4-1.1.6,0,1.2,0,1.8,0,3.1.4,4.9.7,5.4.9,3.4,1,5.8,3.1,7.1,6.1,1.1,2.5,1.6,4.9.8,7.4-.9,2.9-2.3,5.3-3.7,7.9-1.4,2.7-1.7,5.4-2,8.6-.4,3.6-1.3,5.9-5.6,5.7-.7,0-1.2,0-1.4-.1-.1,0-.2-.2-.2-.3.1-4.5,1.1-8.3,2.3-12.4.6-2.2,1.1-4.4,1.3-6.6.2-1.8.1-5.1-1.4-6.5-.2-.2-.5-.2-.8-.1-4.9,2.5-7.6,7.7-8.7,13-.8,3.9-1.3,8.6-1.5,14,0,.9-.1,1.2.6,1.8,4.9,4,9.8,7.8,14.5,11.4,2.7,2.1,5.2,4.2,7.5,6.5,0,0,0,0,0,0,0,0,0,0,0,0,0,0,0,0,0,0,0,0,0,0,0,0,0,0,0,0,0,0,0,0,0,0,0,0,0,0,0,0,0,0,0,0,0,0,0,0,0,0,0,0,0,0,0,0,0,0,0,0,0,0,0,0,0,0,0,0,0,0,0,0,0,0,0,0,0,0,0,0,0,0,0,0,0,0,0,0,0,0,0,0,0,0,0,0,1-1.1,1.8-2.8,2.4-4.1.9-1.9,2.5-3.6,4.3-4.8,0,0,0,0,.1,0,0,0,0,0,0,0,0,0,0,0,0,0,0,0,0,0,0,0,0,0,0,0,0,0,0,0,0,0,0,0,0,0,0,0,0,0,0,0,0,0,0,0,0,0,0,0,0,0,0,0,0,0,0,0,0,0,0,0,0,0,0,0,0,0,0,0,0,0,0,0,0,0,0,0,0,0,0,0,0,0,0,0,0,0,0,0,0,0,0,0,0,0,0,0,0,0,0,0,0,0,0,0,0,0,0,0,0,0,0,0,0,0,0,.1.7,6,2.8,11.6,7.9,15.2.3.2.7.3,1.1,0,3.3-1.6,4.4-4.7,5.9-8,.6-1.3,1.1-2.2,1.7-2.8,1.1-1.1,3.1-2.3,4.7-1.8.7.2,1.5.7,2.3,1.5,3.8,3.7,5.5,8.8,6.5,14.1.5,2.7,1.1,5.8,1.6,9.4.2,1.3.4,2.5.8,3.7,0,.1.1.2.3.3,2,.6,3.3,1,4,1.2,4.8,1,9.1,1.7,12.9,1.9,2.7.2,5.3.1,7.8-.2,3.1-.4,5.9-.6,8.6-1.3,2.4-.6,4.2-.9,6.1-1.6.1,0,.2-.2.3-.3.5-1.6.9-3.6,1.2-5.8.6-4.8,1.6-9.3,2.9-13.5,1-3.2,2.7-5.9,4.9-7.9,1.3-1.2,2.6-2,4.2-1.5,3.2,1,4.4,4.1,5.6,6.8,1.2,2.7,2.3,4.2,4.4,5.6.6.4,1.3.3,1.9-.2,4.3-3.4,6.1-7.5,7.3-13.2,0-.1,0-.2,0-.3v-1.4s0,0,0-.1c0,0,0,0,0,0,0,0,0,0,0,0,0,0,0,0,0,0,0,0,0,0,0,0,0,0,0,0,0,0,0,0,0,0,0,0,0,0,0,0,0,0,0,0,0,0,0,0,0,0,0,0,0,0,0,0,0,0,0,0,0,0,0,0,0,0,0,0,0,0,0,0,0,0,0,0,0,0,0,0,0,0,0,0,0,0,0,0,0,0,0,0,0,0,0,0,0,0,0,0,0,0,0,0,0,0,0,0,0,0,0,0,.1,0,1.9.9,3.3,2.4,4.3,4.3,1,1.8,1.9,3.5,2.9,4.9,0,0,0,0,0,0,0,0,0,0,0,0,0,0,0,0,0,0,0,0,0,0,0,0,0,0,0,0,0,0s0,0,0,0c0,0,0,0,0,0,0,0,0,0,0,0,5.2-4.4,10.8-9,17-13.7,3.3-2.5,5.2-4.1,5.8-4.7.8-.8.5-1.7.3-2.7,0-.3,0-.6,0-.9,0-4.1-.5-8.3-1.5-12.6-1.2-5.2-4-10-8.9-12.4-.1,0-.2,0-.3,0-.7.9-1.2,1.8-1.4,3-.3,2.2-.2,4.4.3,6.5.1.5.8,3.2,2.1,8,.8,3,.9,4.8,1.4,8.1,0,0,0,0,0,0,0,0,0,0,0,0,0,0,0,0,0,0,0,0,0,0,0,0,0,0,0,0,0,0,0,0,0,0,0,0,0,0,0,0,0,0,0,0,0,0,0,0,0,0,0,0,0,0,0,0,0,0,0,0-3.2.4-6.2.1-6.9-3.7-.3-1.9-.3-5.3-1-7.4-1-3.1-2.7-5.9-4.1-8.7-.7-1.4-1-2.7-1-4,0-1.7,0-3.1.4-4.1,1.2-3.8,3.7-6.4,7.6-7.7.6-.2,2.1-.5,4.6-.8,1.6-.2,3.1-.2,4.6,0,.2,0,1.4.2,3.6.4.8,0,2,.3,3.5.5,9.6,1.8,21,5.3,29.1,7.2,4.2,1,7.4,1.6,9.6,1.9,3.7.5,7.3.6,10.7.5,8.1-.3,14.2-3.9,17.3-11.6.1-.3,0-.7-.3-.8l-2.3-1.1c-.2,0-.3-.2-.4-.4-1.3-2.3-.3-4.5.7-6.9.2-.6.4-1,.4-1.4.2-2.5-2.2-4.6-4.3-5.5-5.8-2.6-12.4-1.2-18.4,1.3-.2,0-.7.4-1.4,1-.1.1-.2.2-.2.4-.4,1.9,1.3,3,3.1,2.8,1,0,2.3-.3,3.8-.6,2.1-.5,3.5,1.3,3.2,3.3-.2,1.7-1.2,3.1-2.8,4-3.3,1.8-6.9,2-10.7.6-1.9-.7-3.2-1.7-4-3.2-.6-1.2-.4-1.9-.1-3.3,1.1-5.9,5.2-9.5,10.7-11.8,5.8-2.4,11.7-2.9,17.9-1.5,2,.4,4.8,1.7,6.2,2.7,2.9,2,4.8,4.7,5.7,8.2.7,2.6.4,5.9,0,8.8,0,0,0,0,0,.1,0,0,0,0,0,0,0,0,0,0,0,0,0,0,0,0,0,0,0,0,0,0,0,0,0,0,0,0,0,0,0,0,0,0,0,0,0,0,0,0,0,0,0,0,0,0,0,0,0,0,0,0,0,0,0,0,0,0,0,0,0,0,0,0,0,0,0,0,0,0,0,0,0,0,0,0,0,0,0,0,0,0,0,0,0,0,0,0,.1,0,3.4-.3,5.6-1.3,8.7-3.2,2.7-1.7,5-2.8,8-3.5,0,0,0,0,0,0,0,0,0,0,0,0,0,0,0,0,0,0,0,0,0,0,0,0,0,0,0,0,0,0,0,0,0,0,0,0,0,0,0,0,0,0,0,0,0,0,0,0-1-2.6-1.7-5.4-2.2-8.3-1.2-6.8.1-13.2,3.4-18.8,3.3-5.7,7.8-10.8,11.4-15.9,3.7-5.3,6-11,7-17.3.2-1.5.4-4.5.5-9,0-.2,0-.5,0-.7-.2-1.6-.2-2.6,0-3.2,2.1-7.3,3.7-14,4.6-20,.3-1.8.5-2.8.5-3.1.5-2.4.6-4.7,1-7.1.5-3,.5-5.4.9-8.7.2-1.4.3-3,.4-4.7.3-7.6.3-15,0-22.3-.1-2.6-.6-6.4-.8-9.7-.1-1.7-.3-3.1-.5-4.2-.3-1.6-.3-3.7-.7-5.5-.4-1.9-.6-3.3-.7-4.1-.2-1.7-.6-2.8-.9-4.5-.1-.8-.3-1.9-.7-3.4-1.3-5.5-2.2-8.7-2.5-9.6-2.1-6.7-4-13.2-5.7-19.5-2.9-10.5-5.3-21-7.3-31.5-.4-2-.6-4.2-1.1-6.9-.5-2.9-1.1-7.1-1.7-12.6-.5-4.1-.6-7.6-1-11.7-.3-3.5,0-7.2-.4-10.3-.1-1.1,0-2.1,0-2.9.3-1.6,0-3.7.2-5.6.5-5.8,1.1-10.4,1.8-13.8,2.3-11.7,6.3-22.9,11.8-33.7,5.6-10.9,12.1-20.7,19.3-30.3.2-.2.2-.5,0-.7l-56-62.4ZM149.6,365.3c-2.4-3.5-4-7.4-4.7-11.7-.6-4.2-.6-7.9,0-11.2.6-3.1,2.2-5.6,4.6-7.4,0,0,.1,0,.2,0,0,0,0,0,0,0,0,0,0,0,0,0,0,0,0,0,0,0,0,0,0,0,.1,0,0,0,0,0,0,0,0,0,0,0,0,0,0,0,0,0,0,0,0,0,0,0,0,0,0,0,0,0,0,0,0,0,0,0,0,0,0,0,0,.1,0,.2,0,.6,0,1.2.1,1.9,1.7,10.7,4.1,21.3,7.2,31.6,0,0,0,0,0,.1,0,0,0,0,0,0,0,0,0,0,0,0,0,0,0,0,0,0,0,0,0,0,0,0,0,0,0,0,0,0,0,0,0,0,0,0,0,0,0,0,0,0,0,0,0,0,0,0,0,0,0,0-.1,0-3.2,0-5.8-1.4-7.8-4.2ZM448.8,425.8c-1.8,2.1-3.5,4.1-5.7,6.1-12.1,10.7-28.1,15.1-43.9,16.1-1.4,0-4.9.1-10.8,0-.7,0-3.2-.2-7.4-.7-2.8-.3-5.2-.7-7.4-1.1-5.2-1.1-8.5-1.9-9.8-2.3-4.8-1.6-7.8-2.6-9.1-3.1,0,0,0,0,0,0,0,0,0,0,0,0,0,0,0,0,0,0,0,0,0,0,0,0,0,0,0,0,0,0,0,0,0,0,0,0,0,0,0,0,0,0,0,0,0,0,0,0,0,.2,0,.3.1.6,2.8,5.8,6.4,10.8,12,14.2.9.5,1.9,1,3.1,1.4,0,0,0,0,0,0,0,0,0,0,0,0,0,0,0,0,0,0,0,0,0,0,0,0,0,0,0,0,0,0,0,0,0,0,0,0,0,0,0,0,0,0,0,0,0,0,0,0,0,0,0,0,0,0,0,0,0,0,0,0-.1,0-.2.1-.4.1-2.4.3-4.3.9-6.3,1.7-4.9,2-8,5.7-9.3,11.1-.3,1.1-.5,2.7-.6,4.8-.2,4.3.2,10.2.7,15.4.4,4.1.9,7.9.2,11.5-.5,2.6-.8,4.9-1.8,6.4,0,0,0,0,0,0,0,0,0,0,0,0,0,0,0,0,0,0,0,0,0,0,0,0,0,0,0,0,0,0,0,0,0,0,0,0-1.1-5.1-3.5-9.2-8.7-10.8-.5-.2-1.1,0-1.4.5-.5.8-1,1.7-1.4,2.7-1.7,4.4-2.9,9.4-7.2,10.7-11.1,3.3-5.7-11.4-14.3-11-.7,0-1.2.4-1.5,1.1-1.9,4.2-3.1,12.6-8.7,15-.4.2-.9.1-1.3-.1-2.1-1.5-3.2-3.7-3.8-6.4-.6-2.7-1.4-7-3.4-9.7,0,0,0,0,0,0,0,0,0,0-.1,0s0,0-.1,0c0,0,0,0,0,0,0,0,0,0,0,0,0,0,0,0,0,0,0,0,0,0,0,0,0,0,0,0,0,0,0,0,0,0,0,0,0,0,0,0-.1,0,0,0,0,0,0,0,0,0,0,0-.1,0,0,0,0,0-.1,0-1.6,1.8-2.2,5.3-2.5,8-.2,1.6-.5,3.2-1,4.8-.4,1.3-1.9,3.5-3.4,3.6-.2,0-.3,0-.4,0-1.7-.9-3-2.1-3.9-3.5-2.4-3.5-3.3-8-5-11.9-.2-.4-.6-.7-1-.7-8.4-.2-4,11.8-11.9,11.5-8.2-.3-7.9-8.8-11.3-14-.2-.3-.5-.4-.8-.4-5.2.7-8.3,5.9-9,10.6,0,0,0,0,0,.1,0,0,0,0,0,0,0,0,0,0,0,0,0,0,0,0,0,0,0,0,0,0,0,0,0,0,0,0,0,0,0,0,0,0,0,0,0,0,0,0,0,0,0,0,0,0,0,0,0,0,0,0,0,0,0,0,0,0,0,0,0,0,0,0,0,0-1.2-2-1.3-3.8-1.9-7-.1-.7-.2-2.4-.1-4.9,0-3.4.8-7.3.8-10.8,0-1.5.4-3.4.3-5.2,0-.4,0-.7,0-1.1.2-.9.3-1.5.2-1.8,0-.2-.2-1.7-.5-4.5-.7-6.8-4.2-11.9-10.6-14.1-1.9-.6-3.9-1.2-5.9-1.5,0,0,0,0,0,0,0,0,0,0,0,0,0,0,0,0,0,0,0,0,0,0,0,0,0,0,0,0,0,0,0,0,0,0,0,0,0,0,0,0,0,0,0,0,0,0,0,0,0,0,0,0,0,0,0,0,0,0,0,0,0,0,0,0,0,0,0,0,0,0,0,0,7.3-2.3,12.7-9.4,15.5-16.2,0,0,0,0,0,0,0,0,0,0,0,0,0,0,0,0,0,0,0,0,0,0,0,0-.8.2-2.9.9-6.1,2.1-3.5,1.3-8.6,2.5-15,3.7-2.1.4-4,.6-5.9.8-2,.1-5,.6-7.9.6-3.4,0-6.2,0-8.6,0-1.4,0-4.5-.3-9.2-.9-2.3-.3-5.5-1-7.3-1.4-13.5-2.9-26.1-9.5-34.5-20.5,0,0,0-.2,0-.3.9-2.2,2.2-4.3,3.8-6.1,2.4-2.7,5.2-5.4,8.4-8.1,1.9-1.6,3.3-3.3,4.6-5,3.4-4,4.8-8.6,4.4-13.7-.2-2.2-1.1-4.7-1.4-6.4,0,0,0,0,0,0,0,0,0,0,0,0,0,0,0,0,0,0,0,0,0,0,0,0,0,0,0,0,0,0,0,0,0,0,0,0,0,0,0,0,0,0,0,0,0,0,0,0,.2.2.3.6.6.9,10.7,13.2,26.5,20.7,41.9,27,6,2.5,12,5,18,7.4,4.1,1.7,8.6,3.8,13.6,6.4,5.1,2.6,9.5,5.4,13.4,8.4.6.4.8,1,.9,1.7.4,7.4-8.8,6.5-9.6,13,0,0,0,0,0,.1,0,0,0,0,0,0,0,0,0,0,0,0,0,0,0,0,0,0,0,0,0,0,0,0,0,0,0,0,0,0,0,0,0,0,0,0,0,0,0,0,0,0,0,0,0,0,0,0,0,0,0,0,0,0,0,0,0,0,0,0,0,0,0,0,0,0,0,0,0,0,0,0,0,0,0,0,0,0,0,0,0,0,0,0,0,0,0,0,.1,0,1.9,0,3.9-.2,6.1-.6,6.8-1.2,13.2-5,18.2-9.6,7.3-6.7,13.1-14.8,18.2-23.2.3-.5.3-1-.2-1.4-3.3-3.1-6.5-5.6-9.6-7.5-4.6-2.7-9.6-5-15.1-6.8-6-2-12.3-3.8-18.9-5.3-10.6-2.5-20.3-4.7-29.7-8.1-8.5-3.1-16-7.5-22.4-14.2-7.5-7.8-13-17.1-16.5-27.2-2.2-6.2-3.6-11.9-4.3-17.3-.6-4.1-1.1-6.7-1.1-10,0-3.3,0-7.2,0-11.7,0-2.4.2-4.8.5-7.2.6-4.2.9-6.6,1-7.2,5.2-30.2,23-62.3,55.6-69.7,3.6-.8,7.6-1.3,12-1.4,4.4-.1,8.5,0,12.1.4,2.8.3,6.2,1.1,10.3,2.2,6.3,1.8,12.9,4.7,19.9,8.8,5,2.9,8.7,5.3,11.2,7.1.9.7,1.5.6,2.4,0,11.4-7.9,23.9-14.5,37.5-17.4,3.6-.7,7-1.2,10.2-1.2,2.9,0,6.5-.1,9.3,0,12.5.8,23.6,5,33.6,12.8,10.4,8.1,18,19,23.5,31.1,5.3,11.6,8.4,24.1,9.5,37.3.2,2.3.1,5.5.4,7.9.1.8,0,2,0,3.5-.3,3-.2,5.8-.5,8.5-.3,3.5-1,7.8-2.1,12.9-.3,1.3-.8,3.4-1.7,6.3-2.8,9.2-6.9,17.5-12.4,25-1.5,2-3.7,4.5-6.5,7.5-1.2,1.3-3.1,2.9-5.6,4.8-4.3,3.3-9.9,6.1-14.8,7.9-2.8,1-5.8,2.1-9.2,3.1-8.2,2.4-21,5.1-31.6,8-5.3,1.4-10.5,3.2-15.7,5.4-6.4,2.7-12.2,6.4-17.4,11.2-1.2,1.1-.5,1.6.2,2.7,3.5,5.8,7.3,11.1,11.5,16,3.1,3.7,6.6,6.9,10.4,9.6,5.7,4.2,12.1,6.4,19.1,6.7.5,0,1,0,1.4,0,0,0,0,0,0,0,0,0,0,0,0,0,0,0,0,0,0,0,0,0,0,0,0,0,0,0,0,0,0,0,0,0,0,0,0,0,0,0,0,0,0,0,0,0,0,0,0,0-.5-2.3-1.7-4-3.6-5.1-3.3-1.9-6.3-3.5-6-7.8,0-.6.1-1.1.3-1.5,0-.1.1-.2.2-.3,4.2-3.2,8.9-6.1,14.1-8.8,10.7-5.4,18.9-8.6,32.4-14.2,5.8-2.4,11.5-5.1,17.2-8,9.2-4.9,17.7-11.1,24.1-19.3,0,0,0,0,0,0,0,0,0,0,0,0,0,0,0,0,0,0,0,0,0,0,0,0,0,0,0,0,0,0,0,0,0,0,0,0,0,0,0,0,0,0,0,0,0,0,0,0,0,0,0,0,0,0,0,0,0,0,0,.1-2.4,5.5-2.4,10.9.1,16.1,1.6,3.3,4.2,5.9,6.8,8.4,4.5,4.4,9.7,8.1,12.5,14.1.2.5.2,1-.2,1.5ZM453.1,353.5c-.7,4.3-2.2,8.2-4.7,11.7-2,2.8-4.5,4.2-7.8,4.2,0,0,0,0-.1,0,0,0,0,0,0,0,0,0,0,0,0,0,0,0,0,0,0,0,0,0,0,0,0,0,0,0,0,0,0,0,0,0,0,0,0,0,0,0,0,0,0,0,0,0,0,0,0,0,0,0,0,0,0-.1,3.1-10.3,5.5-20.9,7.2-31.7.1-.8,0-1.3.1-1.9,0,0,0-.1,0-.2,0,0,0,0,0,0,0,0,0,0,0,0,0,0,0,0,0,0,0,0,0,0,0,0,0,0,0,0,0,0,0,0,0,0,0,0,0,0,0,0,.1,0,0,0,0,0,0,0,0,0,0,0,0,0,0,0,0,0,0,0,0,0,.1,0,.2,0,2.5,1.8,4,4.3,4.7,7.4.7,3.3.7,7.1,0,11.3ZM499.7,100.8c-7.5,9.9-13.5,20.6-17.8,32.2-1.4,3.8-2.8,8.3-4.1,13.3-.8,3-1.6,7.4-2.6,13.1-.7,4.4-.8,8.4-1.3,12.7-.4,4.5-.2,10.9-.3,13.6,0,5,.4,8.2.7,13.4.1,1.8.3,3.6.5,5.4,1.1,9.5,2.6,18.8,4.6,27.9,2.1,10,4.4,19,6.9,27.2,1.9,6.5,3.4,11.4,4.3,14.6,1.7,5.7,3,12.2,4.1,19.5,1,6.7,1.6,13.3,1.9,19.9,0,1.9.1,3,.1,3.2.3,3.1.4,6.5,0,10.1,0,.2,0,1.6-.2,4.1-.5,11.1-2.1,22.5-4.7,34.1-.3,1.3-.8,2.7-.8,4.1,0,.2,0,.4-.2.6,0,0,0,0,0,0,0,0,0,0,0,0,0,0,0,0,0,0,0,0,0,0,0,0,0,0,0,0,0,0,0,0,0,0,0,0,0,0,0,0,0,0,0,0,0,0,0,0,0,0,0,0,0,0,0,0,0,0,0,0,0,0,0,0,0,0,0,0,0,0,0,0,0,0,0,0,0,0,0,0,0,0,0,0,0,0,0,0,0,0,0,0,0,0,0,0,0,0,0,0,0,0,0,0,0,0,0,0-2.2-1.4-4.2-2.8-6.6-2.8,0,0,0,0,0,0,0,0,0,0,0,0,0,0,0,0,0,0,0,0,0,0,0,0,0,0,0,0,0,0,0,0,0,0,0,0,0,0,0,0,0,0,0,0,0,0,0,0,1.2,3,2.1,5.9,1.7,8.8-.6,4.3-2.2,7.8-5,10.6-3,3-6.5,4.3-10.5,3.7-2.2-.3-4-1.3-5.9-2.5-.2,0-.3-.3-.3-.4-.4-2.4.2-5.2.6-7.6.2-1.7.5-3.1.7-4.3,1.9-8.8,4.6-17.7,7.1-26,1-3.3,2-7.5,3-12.6.3-1.6.7-4.4,1-8.4.3-3.1,0-6.6-.7-10.5-1.2-6.3-4.2-11.1-8.3-16-.2-.2-.2-.4-.2-.7,0-4,0-8-.2-11.9-1.4-19.2-8.5-37.4-20.3-52.6-13.9-18-34.2-31.2-56-37.7-5-1.5-8.8-2.5-11.5-2.9-2-.3-3.3-.6-4-.7-3.2-.7-5.1-.7-8.9-1.1-1.5-.2-3.2-.3-4.9-.4-4.2-.2-8.3-.2-12.3,0-2.4,0-4.2.2-5.4.4-.1,0-1.9.3-5.4.7-13,1.7-25.4,5.4-37.3,11.2-.2,0-.3,0-.5,0-14.5-6.9-29.4-11-44.7-12.2-4.3-.3-9.3-.4-14.8-.2-2.5,0-4.5.2-5.8.4-2.2.3-4.2.5-5.8.7-1.9.2-3.6.7-5.4.9-.6,0-1.3.2-2.2.4-4.2,1-7.1,1.7-8.7,2.2-16.5,4.8-31.1,12.7-43.7,23.7-16.3,14.3-27,32-31.9,53.3-.5,2-1.1,5.7-1.8,11-.2,1.2-.2,2.4-.2,3.9,0,1.8-.3,3.3-.3,5.2,0,2.7,0,4.7,0,5.9,0,.2,0,.5-.3.7-6.6,6.8-9.3,15.7-9.1,25,0,3.7.8,8.7,1.7,12.8,2,9.1,4.8,17.7,7.7,28.2,1.4,5.1,2.3,10.2,3,15.2.2,1.2.2,2.4.2,3.5,0,.4-.2.8-.6,1.1-1.6,1.1-3.4,2.1-5.4,2.3-4.1.5-7.6-.6-10.4-3.4-3.8-3.8-5.6-8.3-5.3-13.6.1-2.3.8-4.4,2-6.1,0,0,0,0,0-.1,0,0,0,0,0,0,0,0,0,0,0,0,0,0,0,0,0,0,0,0,0,0,0,0,0,0,0,0,0,0,0,0,0,0,0,0,0,0,0,0-.1,0-1.1-.2-1.8.2-2.8.6-2.7,1.1-5,2.8-6.9,5.1,0,0,0,0,0,0,0,0,0,0,0,0,0,0,0,0,0,0,0,0,0,0,0,0,0,0,0,0,0,0,0,0,0,0,0,0,0,0,0,0,0,0,0,0,0,0,0,0,0,0,0,0,0,0,0,0,0,0,0,0,0,0,0,0,0,0,0,0,0,0,0,0-.3-1.2-.7-3-1.4-5.4-.3-1.2-.5-2.1-.6-2.7-.2-1.3-.6-2.4-.8-3.6-1.2-6.2-1.8-9.7-1.9-10.7-.2-2.1-.5-4.1-.7-5.8-.5-3.5-.5-6.7-.9-10.2-.1-1.3-.2-2.7-.3-4.4-.4-8.8-.1-17.6.8-26.5.3-3,.7-5.5,1.1-8.6.3-2.8,1.2-7.9,2.8-15.1.5-2.4,1.9-7.4,4.2-14.8,1.8-5.9,3.6-12.3,5.4-19.4,3.1-12.5,5.4-24.2,6.9-35.1.2-1.7.3-3.3.6-5.1.4-2.6.4-5.1.7-7.8.5-5.2.7-8.3.7-9.3,0-3.4,0-6.5,0-9.4,0-1.8,0-3.2-.1-4.2-.2-1.7-.2-3.5-.4-5.7-.3-2.7-.3-5.2-.8-7.8-.4-2.1-.7-4.9-1.2-7.8-3.8-19.2-11.5-36.7-23.3-52.4-.1-.2-.1-.4,0-.5,13.5-14.8,27.2-29.9,41.2-45.3,1.4-1.5,2.9-2.8,3.9-4.4,0,0,0,0,0,0,0,0,0,0,0,0,0,0,0,0,0,0,0,0,0,0,0,0,0,0,0,0,0,0,0,0,0,0,0,0s0,0,0,0c0,0,0,0,0,0,0,0,0,0,0,0,0,0,0,0,0,0,3.7,2.3,7.4,4.5,11.2,6.6,24.5,13.3,51.2,22.8,78.6,28.4,6.4,1.3,12.8,2.4,19.1,3.4,2.1.3,4.1.6,6.1.7,2.6.3,5.4.8,8.1.9,3.3.1,7.1.7,10.4.9,3.9.2,6.8.3,8.5.3,1.4,0,3,.4,4.2.4,4.7,0,9.6,0,14.8,0,1.4,0,2.7,0,3.8-.1,7-.6,11.5-.3,17.2-1,2.5-.3,5.7-.4,8.3-.7,8.4-1,15-1.9,19.9-2.8,2.7-.5,4.3-.8,4.8-.8,1.2-.2,2-.3,2.4-.5,1-.3,2.2-.4,3.3-.6,21.8-4.6,42.6-11.4,62.8-20.7,8.9-4.1,17.6-8.8,26.1-14.1.1,0,.3,0,.4,0l45.5,49.9c.1.1.1.3,0,.4Z"/>
  <path class="st1" d="M273.5,148.4c-2.8-2.6-5.2-4.8-7.3-6.5-.8-.7-1.7-1.5-2.5-2.5-1.4-1.6-1.9-3.5-1.5-5.7,0-.3.3-.6.6-.8,1.8-1,3.8-1.4,6-1.2,1.7.1,3.4,1.6,4.7,2.7,0,0,0,0,0,0,0,0,0,0,0,0,0,0,0,0,0,0,0,0,0,0,0,0,0,0,0,0,0,0,0,0,0,0,0,0,0,0,0,0,0,0,0,0,0,0,0,0,0,0,0,0,0,0,0,0,0,0,0,0,0,0,0,0,0,0,0,0,0,0,0,0,0,0,0,0,0,0,0,0,0,0,0,0,0,0,0,0,0,0,0,0,0,0,0,0l2.6-3.2s0,0,0,0c0,0,0,0,0,0,0,0,0,0,0,0,0,0,0,0,0,0,0,0,0,0,0,0,0,0,0,0,0,0,0,0,0,0,0,0,0,0,0,0,0,0-2.5-1.9-5.5-3.1-8.6-2.7-3.9.5-7.5,3.2-9.5,6.4-2.3,3.6-1,6.8,1.8,9.5,2.9,2.8,6.6,5.5,8.7,8,1.9,2.2,2.6,4.8,2.2,7.9-.3,2-3.5,2.5-5.1,2.7-1.5.2-2.7-.1-3.7-.9-1.5-1.2-2.7-2.2-3.6-3.1-.5-.4-.9-.5-1.5,0-1.1.8-2.2,1.7-3.5,2.5-1.1.8-2.1.6-2.9-.3-2.1-2.6-3.6-5.5-4.5-8.8-3.2-11.4-6.2-22.6-9.1-33.7-1.1-4-1.4-7.5-1.8-10.9,0,0,0,0,0,0,0,0,0,0,0,0,0,0,0,0,0,0,0,0,0,0,0,0,0,0,0,0,0,0,0,0,0,0,0,0,0,0,0,0,0,0,0,0,0,0,0,0-4.2,2.4-6.9,6-8.2,10.6-.4,1.7-.7,2.5-.7,2.6-.1.2-.2.3-.3.5-.1.2-.6.7-1.4,1.5-.7.7-1.3,1.5-1.8,2.5-3.5,6.5-4.9,8.9-7,14.1-2.4,5.9-4.8,12.2-7.1,19-1.3,3.7-2,6-2.2,6.9-1.1,5.5.1,10.1,3.7,13.8,1.6,1.7,3.6,2.1,5.9,1.3.7-.3,1.2-.8.7-1.6-1.3-2.2-4.3-5.4-5.2-8.5-2.2-7-.2-14.6,2.4-21.3,1-2.6,1.3-4.1,4.1-4.3,6.2-.3,12.1-.4,17.7-.5.1,0,.3,0,.3.2,3,6.2,6,12,8.9,17.5,1.6,2.9,3.4,5.2,6.9,3.7,1.1-.4,2.1-1,3.2-1.8.2-.1.4-.1.6,0,4.4,2.8,9,3.1,13.7.9,2.3-1.1,4.1-2.4,5.5-4,3.3-3.8,1.3-8.9-1.9-11.9ZM236.1,141s0,0,0,0c0,0,0,0,0,0,0,0,0,0,0,0s0,0,0,0c0,0,0,0,0,0,0,0,0,0,0,0,0,0,0,0,0,0,0,0,0,0,0,0l-18.1-1.3s0,0,0,0c0,0,0,0,0,0,0,0,0,0,0,0,0,0,0,0,0,0,0,0,0,0,0,0,0,0,0,0,0,0,0,0,0,0,0,0,0,0,0,0,0,0,0,0,0,0,0,0,0,0,0,0,0,0,.2-.5.4-1,.6-1.5.8-1.8,3.4-6.9,7.6-15.4.4-.8.6-1.3.7-1.6.4-1.1,1.2-1.8,1.8-2.9.8-1.5,1.5-2.7,2.2-3.8,0,0,0,0,0,0,0,0,0,0,0,0,0,0,0,0,0,0,0,0,0,0,0,0,0,0,0,0,0,0,0,0,0,0,0,0,0,0,0,0,0,0,0,0,0,0,0,0,0,0,0,0,0,0,0,0,0,0,0,0,0,0,0,0,0,0,0,0,0,0,0,0l5.3,26.3s0,0,0,0c0,0,0,0,0,0Z"/>
  <path class="st1" d="M318,159.5c-.6-1.4-1.5-4-1.5-5.1,0-2.2,0-3.9,0-5.1.4-7.8,1.1-17.6,2.1-29.4.3-3.7,0-7.3-1.2-10.6,0,0,0,0,0,0,0,0,0,0,0,0,0,0,0,0,0,0s0,0,0,0c0,0,0,0,0,0,0,0,0,0,0,0,0,0,0,0,0,0,0,0,0,0,0,0-1.9.8-3.6,2.1-3.7,4.4-.1,2.6,0,5.9-.2,8.6-.7,12.1-1,18.4-1.1,18.9-.3,6.5-.4,11.6-.3,15.2.1,3.3,0,10.1,4.5,9.9,1.1,0,2.5-.9,3.4-1.5.2-.2.4-.5.3-.7-.5-1.4-1.1-2.9-1.8-4.4Z"/>
  <path class="st1" d="M363,127.6s0,0,0,0c0,0,0,0,0,0,0,0,0,0,0,0,0,0,0,0,0,0,0,0,0,0,0,0,0,0,0,0,0,0,0,0,0,0,0,0-1.2.2-2.4.8-3.3,1.7-1.1.9-1.6,1.9-1.6,2.9,0,4.2,0,6.8-.1,7.7-.6,8.8-1.2,17.6-1.6,26.2,0,0,0,0,0,.1,0,0,0,0,0,0,0,0,0,0,0,0,0,0,0,0,0,0,0,0,0,0,0,0,0,0,0,0,0,0,0,0,0,0,0,0,0,0,0,0,.1,0,2.3-1,3.5-1.4,4.6-3.2.4-.6.5-1.6.5-2.9,0-5.5.5-11.7,1-17,.5-5.6.5-10.6.4-15.4,0,0,0,0,0,0Z"/>
  <path class="st1" d="M305.6,127.7s0,0,0,0c0,0,0,0,0,0,0,0,0,0,0,0,0,0,0,0,0,0,0,0,0,0,0,0,0,0,0,0,0,0,0,0,0,0,0,0-1.3.5-2.5,1.3-3.4,2.4-1.5,1.8-1,4.6-.8,7.3.6,7.4-.7,15.3-4.9,21.5-1.3,2-3.9,3.1-6,4.1,0,0,0,0,0,0,0,0,0,0,0,0,0,0,0,0,0,0,0,0,0,0,0,0,0,0,0,0,0,0,0,0,0,0,0,0,0,0,0,0,0,0,0,0,0,0,0,0,0,0,0,0,0,0,0,0,0,0,0,0-.5-1.7-1.8-3.7-1.8-5.9,0-.9,0-2,0-3.1.6-8.6,1.1-14.2,1.3-16.7.2-2.2.2-3.8,0-4.5-.4-1.6-1.1-2.9-2-3.9-.4-.4-.9-.5-1.4-.3l-2.5,1c-.4.2-.6.6-.6,1,.4,2.3.8,4.6,1.1,7.1.1,1.1.2,2.6.1,3.4-.3,4.6-.7,10.7-1.1,18.3-.1,1.9.2,5.2,1.7,6.6,1.3,1.3,4.4.6,6,0,1.2-.5,2.3-1.1,3.4-1.9,1.8-1.5,3.7-3,5.6-4.7,0,0,0,0,.1,0,0,0,0,0,0,0,0,0,0,0,0,0,0,0,0,0,0,0,0,0,0,0,0,0,0,0,0,0,0,0,0,0,0,0,0,0,0,0,0,0,0,0,0,0,0,0,0,0,0,0,0,0,0,.1-.3,5.4-.6,9.3-.8,11.7-.5,6.4-3.1,12.2-8.6,15.8,0,0,0,0,0,0,0,0,0,0,0,0,0,0,0,0,0,0,0,0,0,0,0,0,0,0,0,0,0,0,0,0,0,0,0,0,0,0,0,0,0,0,0,0,0,0,0,0,7.1-1.9,12.4-7.6,13.3-15,.9-7.8,1.5-15.4,1.8-22.8.3-6.3.1-13.5,0-21.3,0,0,0,0,0,0Z"/>
  <path class="st1" d="M348.7,153.5c.4-5.2,1.6-11.5,1.8-16.3,0-3,0-5.9,0-8.8,0-1.2-1.6-.9-2.2-.3-1.1,1.1-1.8,2.1-2.2,2.7-.3.4-.4,1-.4,1.5.7,10.3-1.9,19.8-7.5,28.7,0,0,0,0,0,0,0,0,0,0,0,0,0,0,0,0,0,0,0,0,0,0,0,0,0,0,0,0,0,0,0,0,0,0,0,0,0,0,0,0,0,0,0,0,0,0,0,0,0,0,0,0,0,0,0,0,0,0,0,0l3.6-2.3s0,0,0,0c0,0,0,0,0,0,0,0,0,0,0,0,0,0,0,0,0,0,0,0,0,0,0,0,0,0,0,0,0,0,0,0,0,0,0,0,0,0,0,0,0,0,0,0,0,0,0,0,0,0,0,0,0,0,1.1,2,2.6,4.5,4.5,5.4,0,0,.2,0,.3,0l3-1.2c.2,0,.3-.3.3-.6-.6-2.5-2.1-5.9-1.9-9.3Z"/>
  <path class="st1" d="M337.5,161.6s0,0,0,0c-5.3,1.2-6.1-3.5-5.7-7.4.7-8.1,1.2-13.9,1.5-17.5,0-1.3.4-4.6-.2-5.9-.4-1-1-1.8-1.6-2.3-.4-.3-.9-.4-1.4-.2l-2.1.9c-.2,0-.4.3-.4.6.3,3.1.5,6.1.7,8.9.2,4.2,0,7.9-.6,12.4-.5,3.8-.8,6.4-.9,7.7-.1,1.7,0,2.9,0,3.5.8,3.6,4,3.6,6.8,2.2,1.4-.7,2.7-1.6,4-2.8,0,0,0,0,0,0,0,0,0,0,0,0,0,0,0,0,0,0Z"/>
  <path class="st1" d="M377.1,128.6s0,0,0,0c0,0,0,0,0,0,0,0,0,0,0,0,0,0,0,0,0,0,0,0,0,0,0,0,0,0,0,0,0,0,0,0,0,0-.1,0-2.3.7-4.5,1.3-6.6,1.8,0,0,0,0,0,0,0,0,0,0,0,0,0,0,0,0,0,0,0,0,0,0,0,0,0,0,0,0,0,0,0,0,0,0,0,0,0,0,0,0,0,0,0,0,0,0,0,0,0,.1.1.2.2.3,2.1,1.6,3.3,2.6,3.6,3,0,0,.1.2.2.3,1,1.6.7,4.7.4,6.7-.4,2.6-.8,5.7-1.3,9.4-.6,5.2,0,10.4,2.3,15,0,0,0,0,0,0,0,0,0,0,0,0,0,0,0,0,0,0,0,0,0,0,0,0,0,0,0,0,0,0,0,0,0,0,0,0,0,0,0,0,0,0,0,0,0,0,0,0l2.4-3.6c.3-.5.5-1.1.6-1.7.4-7.2.7-14.1.7-20.5,0-3.9-.8-6.5-2-10.9,0,0,0,0,0,0Z"/>
  <path class="st1" d="M392.7,156.2c-.3-1.5-.5-3.8-.3-5,.7-5.4,1.2-9.1,1.5-11.2.3-1.8.4-3.6.3-5.5,0-1.4-.6-5.5-2.2-6-.5-.2-.9-.2-1.3-.2-1.6.3-3.5.8-5.8,1.7,0,0,0,0,0,0,0,0-.1,0-.2.1,0,0,0,0,0,0,0,0,0,.1,0,.2,0,0,0,0,0,0,0,0,0,.1,0,.2,0,0,0,0,0,0,0,0,0,.1,0,.2.2.3.3.4.5.5,1.4.6,3,1.3,3.6,2.6.6,1.4.9,2.9.7,4.7-.2,2.1-.6,5.8-1.2,11.1-.2,1.9-.5,5.3-.8,10.1,0,.3,0,.6,0,.8.5,1.8,1.6,3.3,3.2,4.4.1,0,.3.1.4,0l2.7-1.1c.2,0,.3-.3.3-.5-.5-2.4-1-4.9-1.5-7.4Z"/>
  <path class="st1" d="M344.9,337.7c3.5-3.4,6.3-7.2,7.7-12,.3-1.1.4-2.8.6-4,0,0,0,0,0-.1l-.5-3.9s0,0,0,0c-1-3.2-2.5-5.7-4.5-7.6-3.3-3-7.2-5-11.7-5.9-2.7-.5-5.1-.8-7.4-.7-1,0-2.7.1-5.1.3-1.5.1-2.8.5-4.2.9,0,0,0,0-.1,0,0,0,0,0,0,0,0,0,0,0,0,0,0,0,0,0,0,0,0,0,0,0,0,0,0,0,0,0,0,0,0,0,0,0,0,0,0,0,0,0,0-.1,0,0,0,0,0,0,0,0,0,0,0,0,3.2-1.9,6.3-3.9,9.2-5.9,1-.7,1.8-1.6,2.5-2.6.2-.3.5-.5.8-.6l2.8-1.1c0,0,.1,0,.2-.1l24.7-19.6s0,0,0,0c0,0,0,0,0,0,0,0,0,0,0,0,0,0,0,0,0,0,0,0,0,0,0,0,0,0,0,0,0,0,0,0,0,0,0,0,0,0,0,0,0,0-.1-.1-.3-.2-.4-.2-4.2,0-7.7-.1-10.6-.3-2.1-.2-4.2-.2-6.4,0-1.5,0-3.9,0-7.2,0-2.6,0-4.2,0-4.7,0-1.8,0-3.4,0-4.7,0-2.1-.1-4.4-.1-7,0-3.8.2-6.4.4-7.6.5,0,0-.1,0-.1,0-1.3.3-3.1,1-5.3,2.4-3,1.8-5.5,4-7.4,6.5,0,0,0,0,0,0,0,0,0,0,0,0,0,0,0,0,0,0,0,0,0,0,0,0,0,0,0,0,0,0,0,0,0,0,0,0,3.6-.9,7.1-1.1,11.4-1.2,6.7-.2,13.7.1,18.9,0,1.3,0,3.1,0,5.5.3,1.6.1,3.4.1,5.5,0,1,0,2.2-.4,3.1-.4,0,0,.1,0,.1,0,0,0,0,0,0,0,0,0,0,0,0,0,0,0,0,0,0,0,0,0,0,0,0,0,0,0,0,0,0,0,0,0,0,0,0,0,0,0,0,0,0,0,0,0,0,0,0,0,0,0,0,0,0,.1,0,0,0,0,0,0,0,0,0,0-.1.1-3.1,2.1-7.9,6.3-16.2,13.2-4.7,3.9-9.4,7.4-14,10.2-1.8,1.1-5.7,3.3-11.9,6.5,0,0,0,0,0,0,0,0,0,0,0,0,0,0,0,0,0,0,0,0,0,0,0,0h0c.1.3.3.3.4.2,2.7-1,5.9-2.6,9.2-2.8,1.2,0,2.1-.1,2.9-.2.4,0,.7,0,1,0,.4,0,1.8.2,4.4.3,3,.1,6.5.9,10.6,2.2,3.4,1.1,5.9,3.7,7.2,7.1.3.7.5,1.4.8,2,0,.2.3.4.5.5.8.4,2.8,1.1,1,2.3-.6.4-1,.8-1.3,1.2-.1.2-.2.4-.2.5-.4,1.8-.7,5-1.4,7-2.1,5.8-6.6,10.3-11.8,13.8-12.5,8.5-27.7,13.6-42.7,15.4-.4,0-2.1.1-4.9.2-.3,0-.5,0-.7.2l-.5.4s0,0,0,0c0,0,0,0,0,0,0,0,0,0,0,0,0,0,0,0,0,0,0,0,0,0,0,0,0,0,0,0,0,0,0,0,0,0,0,0,0,0,0,0,0,0,0,0,0,0,0,0,0,0,0,0,.1,0,4.1,0,6.5,0,7.1,0,2.3.1,4.6,0,7.1-.3,4-.6,7.4-1.2,10.3-1.9,11.4-2.7,22.1-7.2,32.1-13.6,4.5-2.8,8.6-6.1,12.3-9.8Z"/>
  <path class="st1" d="M266.8,281.8c0-3.8.2-5.9-2.2-8.5-.1-.1-.3-.2-.4-.1l-1.9.4c-.2,0-.3,0-.5.2-2.1,1.1-4.3,2-6.5,2.8-2,.7-4,1.5-5.9,2.4-5.4,2.4-8.9,4.1-10.5,4.8-.4.2-.7.5-1,1,0,0,0,0,0,0,0,0,0,0,0,0,0,0,0,0,0,0,0,0,0,0,0,0,0,0,0,0,0,0,0,0,0,0,0,0,0,0,0,0,0,0,0,0,0,0,0,0,.8.1,1.5,0,2.2-.3,4.8-2.2,8.1-3.6,9.8-4.3.7-.3,1.4-.5,2-.7.5-.1.9,0,1.2.4.9,1.2.8,3.2,1.1,4.4,0,.4,0,.8,0,1.2-.2,1.3-.3,3.1-.4,5.4,0,2.4-.8,6.1-1.1,8.9-.2,2.1-.7,4.2-.9,6.4-.2,3.4-.8,6.6-1.7,9.4,0,.3,0,.5,0,.8.2.6.5,1.1.9,1.6.9.9,1.2,1.5.6,2.6-.7,1.1-1.2,2.1-1.6,2.8,0,.2,0,.4,0,.5l1.2,1.8c.1.2.2.4,0,.7l-.9,2.3c0,.2-.1.4,0,.7.4,2.8,1,6.6,4.3,6.1,1.3-.2,2.7-.8,4-1.7,2.4-1.7,4.3-3,5.8-4,0,0,0-.1,0-.2l-1.6-4c0-.2-.1-.5-.1-.8,0-1,0-3.5,0-7.4,0-2.3.2-4.7.5-7.4.8-6.1,1.4-10.9,2-14.5.4-2.3.7-4.3,1.2-6,.1-.4,0-.9-.3-1.2l-1.4-1.7c0-.1-.1-.3-.1-.4,0-1.9,1.2-2.4,1.8-3.7.1-.2.2-.5.2-.8Z"/>
  <path class="st1" d="M256.7,551.6c-.4-1.8-.5-3.6-.2-5.3,0,0,0-.1,0-.2,0,0,0,0,0,0,0,0,0,0,0,0,0,0,0,0,0,0,0,0,0,0,0,0,0,0,0,0,0,0,0,0,0,0,0,0,0,0,0,0-.1,0,0,0,0,0,0,0,0,0-.1,0-.2,0-1.4.7-3,1-4.7,1-5.6-.1-9.3-5.8-10.8-10.6-.2-.7-.6-1.4-1.4-1.6-2.9-.5-4,.5-6.3,1.9-.1,0-.2.1-.4.2-2.4.8-4.2.2-5.5-2-1.7-2.9-2.3-6.4-2.9-9.6-.5-2.4-1.3-4.6-2.6-6.5-.3-.5-.8-.7-1.4-.7-4.1.3-3.9,3.9-3.9,7,0,1.1.1,2.2.3,3.2.3,2.2.5,4.2.5,6,0,.9,0,1.6-.2,2.2,0,.3-.4.6-.8.6-.7,0-1.3,0-1.8-.3-1.8-.8-3-1.3-3.6-3.4-.7-2.7-.3-5.6.3-8.3.6-2.8,1.2-5.3,1.5-7.5.2-1.2.2-2.3,0-3.3,0-.2-.2-.2-.3-.2-3.8.7-6.3,4.5-7.3,8.1-.6,2.2-1,4.2-1.1,5.9-.4,6.7.2,13.3,1.9,19.7.4,1.4.3,2.3,2,2.1,1,0,2.3-.2,3.8-.3,2.3-.2,4.2.3,6.7.4.8,0,1.7.2,2.8.4,4.9,1,9.6,2.7,14,5,6.2,3.3,13.7,8.3,20.9,11,.4.1.8.2,1.3.1.2,0,.3-.1.4-.3,2.4-3.2,1.8-6.5.6-10-.5-1.6-.7-2.9-1-4.4Z"/>
  <path class="st1" d="M396.6,521.9c-1-3.6-3.5-7.4-7.3-8.1-.1,0-.3,0-.3.2-.3,1-.3,2.1,0,3.3.4,2.2.9,4.7,1.5,7.5.6,2.7,1,5.6.3,8.3-.6,2.1-1.8,2.6-3.6,3.4-.5.2-1.1.3-1.8.3-.4,0-.7-.3-.8-.6-.2-.5-.2-1.3-.2-2.2,0-1.8.2-3.8.5-6,.1-1,.2-2.1.3-3.2,0-3.1.2-6.7-3.9-7-.5,0-1.1.2-1.4.7-1.3,1.9-2.1,4.1-2.6,6.5-.6,3.2-1.2,6.7-2.9,9.6-1.3,2.1-3.1,2.8-5.5,2-.1,0-.2,0-.4-.2-2.2-1.4-3.4-2.4-6.3-1.9-.8.1-1.2.9-1.4,1.6-1.5,4.7-5.2,10.4-10.8,10.6-1.7,0-3.3-.3-4.8-1,0,0-.1,0-.2,0,0,0,0,0,0,0,0,0,0,0-.1,0,0,0,0,0,0,0,0,0,0,0,0,0,0,0,0,0,0,0,0,0,0,0,0,0,0,0,0,0,0,0,0,0,0,0,0,0,0,0,0,.1,0,.2.3,1.8.2,3.5-.2,5.3-.3,1.4-.5,2.8-1,4.4-1.1,3.5-1.8,6.8.6,10,.1.1.3.2.4.3.5,0,.9,0,1.3-.1,7.2-2.7,14.7-7.7,20.9-11.1,4.4-2.3,9.1-4,14-5,1.1-.2,2-.4,2.8-.4,2.5,0,4.3-.6,6.7-.4,1.5.1,2.8.2,3.8.3,1.7.2,1.6-.7,2-2.1,1.7-6.4,2.3-13,1.8-19.7-.1-1.7-.5-3.6-1.1-5.9Z"/>
  <path class="st1" d="M279.4,556.4c-2.3,0-5,.5-7-.9-3.8-2.6-4.9-6.7-9.9-7.4-1.4-.2-2.5.3-3,1.6-1.3,2.8-1.1,5.4.7,7.8,1.8,2.3,3.9,3.8,6.5,4.6,2.1.7,3.5,1,4.1,1,3.9,0,7.3-1.3,8.8-4.8.3-.8.4-1.3.3-1.6,0-.2-.2-.2-.4-.2Z"/>
  <path class="st1" d="M341.6,549.7c-.6-1.3-1.6-1.8-3-1.6-4.9.7-6.1,4.8-9.9,7.3-2,1.3-4.7.9-7,.9-.2,0-.3,0-.4.2-.1.3,0,.9.3,1.6,1.5,3.6,4.8,4.8,8.7,4.8.6,0,2-.3,4.1-1,2.6-.8,4.7-2.3,6.5-4.6,1.8-2.3,2-4.9.7-7.7Z"/>
  <path d="M522.8,82.7c-1.7-2.6-3.5-4.8-5.2-6.6-4.8-5-9.3-9.7-13.3-14.3-7.4-8.4-14.3-16.1-20.6-23.1-2.3-2.6-5.2-6.5-8.1-9.4-2-2-3.2-3.1-3.6-3.4-3.7-2.5-8.1-3.8-12.7-3.7-2.3,0-3.7.1-4.2.2-4.5,1.2-8.2,3.2-12,5.7-2.8,1.9-5.7,3.6-8.5,5.2-19.7,10.9-40.4,19.1-62.4,24.5-.9.2-1.8.4-2.8.7-2.7.7-6.7,1.5-12.2,2.5-.8.1-1.7.4-2.5.6-3.8.6-8.2,1.3-13.3,2-1.9.3-3.6.3-5.5.6-.9.1-2.2.3-4.1.5-5.8.5-9.9.9-15.1,1.2-6.3.3-10.7.4-13.1.5-9.4.2-18.6,0-27.7-.5-4.4-.2-9.1-.9-13.1-1.1-1.9-.1-3.7-.6-5.5-.7-1.4-.1-2.8-.3-4.2-.5-28.1-4.2-55.2-12.4-81.1-24.5-2.9-1.4-5.6-2.7-8.1-4.1-8-4.4-16-8.9-24.6-11.8-.5-.2-1-.2-1.5,0-2,.6-3.9,1.5-5.8,2.7-4.6,2.9-8.7,6.7-12.2,10.4-2.2,2.3-4.9,5.4-8.2,9.2-1.6,1.8-2.9,3.3-3.9,4.5-3.9,4.3-6.4,7.2-10.2,10.9-4.8,4.8-8.6,8.8-11.4,11.8-5.1,5.7-9.6,12.1-12.3,19.1-.7,1.9-1.1,4.2-1.1,6.8,0,1.7.4,3.5,1.2,5.2,2.1,5,4.1,7.6,8.2,13.8,1.3,2,2.5,3.6,3.5,5.6,5,9.4,8.7,19.1,11.2,29.3,0,.4.5,3,1.4,7.8.4,2.6.8,5.2.9,7.9.2,2.6.8,7.6.8,11.2,0,2.8,0,6.2,0,10.2,0,3.5-.3,6.2-.8,11-.3,3.1-.6,5.9-.9,8.2-1.4,9.9-3.3,19.5-5.6,28.7-1.3,5.3-4.3,16.8-8.8,34.6-1.8,7.1-3.6,15.3-5.3,24.6-1.1,6-2,13-2.5,18.7-.7,7.7-.6,15.5-.5,23,0,4.2.3,7.5.6,10.1.3,2.5,1,6.4,2.1,11.6.8,3.9.7,8-.7,12-1.1,3.1-2.3,6.3-2.7,9.9-.3,3.1-.4,5.9-.2,8.4.7,7.6,2.1,14.8,5.1,21.7.7,1.5,1.4,3,2.3,4.4,5.4,8.8,12.3,13.7,15.7,22.3,2.1,5.3,1.2,11.1-.4,16.5-.5,1.6-.7,3.4-1.1,5.1-1.2,5,1.4,8.8,5.7,11.1,5,2.6,10.6,4.1,15.9,6.3,1.6.7,2.6,1.2,3,1.7,1.4,1.5,2.6,2.8,3.7,3.9,4.5,4.6,9.9,7.7,16.2,9.2,1,.2,3,.6,6.2,1.1,2.3.4,4.2.2,6.3.3,1.2,0,2.8,0,4.7-.4,6.1-.9,11.4-2.1,17.3-3.3,1.3-.2,3-.4,5.2-.4,3.7,0,6.8.6,9.5,1.9,3.6,1.7,6.8,3.4,9.9,5,.3.2.4.5.3.8-1.2,3.4-1.9,7-2.2,10.7,0,1.1-.4,2.8-.8,3.6-3.7,7.2-6.7,15-7.3,23.2-.3,4,.2,8,1.5,11.9,2.2,6.8,8.1,10.2,14.2,12.8,1.8.8,4.1,1.6,6.8,2.5,6.9,2.2,9.6,2.9,14.1,4.7,2.9,1.2,4.5,1.9,4.9,2.1,3.3,2,6.2,4.5,8.7,7.6.6.7,1.2,1.1,1.8,1.1,7.5,0,12,0,13.2,0,.9,0,1.6-.3,2.1-1,1.4-1.7,2.6-3.4,3.7-5,0,0,.2-.1.3-.1,2.9.2,4.3.4,6.8-.2,2-.4,3.3-.7,4-1,2.2-.7,5.1-.7,6.7-.4,2.1.4,5.1,1.1,9.1,2.2,3.7,1,6.8.9,11.2,1.2,3.4.2,7.3,0,11.7-.4,3.2-.3,6-1.5,9.1-2.4,1.4-.4,2.6-.6,3.6-.6,1.8,0,3.1,0,3.6.2,2.5.6,4.9,1.1,7.2,1.5,2.4.4,4.6.2,6.6-.7.4-.2.8,0,1.1.3,1,1.2,1.7,2.1,2.7,2.8,2.7,2,6.4,3.4,9.7,2.6,7.8-1.7,13-5.3,21.5-10.3,1.9-1.1,3.8-2,5.8-2.7,1.8-.6,3.5-.9,5.4-1,5.2-.3,8.6-.5,10.3-.5,1.6,0,4.2-.7,5.2-1.2,3.2-1.8,4.8-5.3,5.9-8.7.3-1,.7-2.7,1.2-5.3.4-2,.6-4.5.6-7.5,0-5.4,0-8.7-.2-9.9-.1-.9-.4-2.4-.7-4.5-.4-2.4-1.2-4.8-2.3-6.5-1.6-2.2-3.3-4.6-3.8-7.6-.6-3.1-.8-6-.8-8.7,0-2.8-.3-5.6-1.1-8.3-.2-.5,0-1.1.5-1.3,6.6-3.7,14.3-.2,21.3.5,3.7.4,7,.5,9.9.5,2.6,0,4.6-.3,7.3-.4,1.7,0,3.5-.3,5.4-.6,4.6-.7,9.1-1.6,13.5-2.9,3.1-.9,5.9-2.4,8.4-4.5,3.5-2.9,6-5.4,9.8-6.8,3.7-1.4,10.2-3.7,15-6.1,6.1-3.1,9.3-8.2,9.6-15.2.1-3.1,0-5.6-.2-7.6-.4-3.1-.7-5.3-.9-6.7-.2-1.7-.7-3.4-.8-5,0-.6.2-1.1.6-1.5.9-.7,1.6-1.4,2.3-2.2,8.3-8.7,13.9-20,16.8-31.8.4-1.8.6-3.2,1-4.8.3-1.1.5-2.3.6-3.6.5-5,.5-10,0-15-.2-2.3-.6-3.8-1.2-6.5-.6-2.7-1.4-5.1-2.4-7.4,0-.2-.1-.4-.1-.6,0-.9.5-1.8.8-2.7,1.6-7,2.6-11.9,2.9-14.5.4-3.3,1-6.4,1.2-9.7.2-4.1.3-6.5.3-7.1,0-.6,0-1.8.2-3.4.3-2.5-.1-5-.2-7.4-.2-5.5-.4-9-.5-10.5-1.3-11.8-3.3-23.5-6-35.2-2.2-9.3-3.8-16-4.9-20.2-3.9-15.2-6.7-26.9-8.3-35.2-1.3-6.5-2.2-12.6-2.9-18.4-.4-3.2-.8-5.4-1-7.9-.4-4.9-1-8.9-1.1-13.3,0-1.6,0-3.7-.2-6.2-.2-3.5.2-7.8.3-10.9,0-2.3.7-4.7.9-7,0-.8.3-1.9.6-3.5.3-1.5.6-2.6.8-3.5.5-2.2,1.4-4.7,2.7-7.5,1.1-2.4,2.5-5.1,4.2-8.1,1.9-3.3,3.9-6.6,6.1-10.1,3.4-5.5,8.6-11,11.8-17.3,1.5-2.9,2.4-6,2.1-9.6-.4-4.7-1.9-9-4.5-12.8ZM257.1,566c-.1.1-.3.2-.4.3-.5,0-.9,0-1.3-.1-7.2-2.7-14.7-7.7-20.9-11-4.4-2.3-9-4-14-5-1.1-.2-2-.4-2.8-.4-2.5,0-4.3-.6-6.7-.4-1.5.1-2.8.2-3.8.3-1.7.2-1.6-.7-2-2.1-1.7-6.4-2.3-13-1.9-19.7.1-1.7.5-3.6,1.1-5.9,1-3.6,3.5-7.4,7.3-8.1.1,0,.3,0,.3.2.3,1,.3,2.1,0,3.3-.4,2.2-.9,4.7-1.5,7.5-.6,2.7-1,5.6-.3,8.3.6,2.1,1.8,2.6,3.6,3.4.5.2,1.1.3,1.8.3.4,0,.7-.3.8-.6.2-.5.2-1.3.2-2.2,0-1.8-.2-3.8-.5-6-.1-1-.2-2.1-.3-3.2,0-3.1-.2-6.7,3.9-7,.5,0,1.1.2,1.4.7,1.3,1.9,2.1,4.1,2.6,6.5.6,3.2,1.2,6.7,2.9,9.6,1.3,2.1,3.1,2.8,5.5,2,.1,0,.2,0,.4-.2,2.2-1.4,3.4-2.4,6.3-1.9.8.1,1.2.9,1.4,1.6,1.5,4.7,5.2,10.4,10.8,10.6,1.7,0,3.3-.3,4.7-1,0,0,.1,0,.2,0,0,0,0,0,0,0,0,0,0,0,0,0s0,0,0,0c0,0,0,0,0,0,0,0,0,0,0,0,0,0,0,0,0,0,0,0,0,0,0,0,0,0,0,0,0,0,0,0,0,0,0,0,0,0,0,.1,0,.2-.3,1.8-.2,3.5.2,5.3.3,1.4.5,2.8,1,4.4,1.1,3.5,1.8,6.8-.6,10ZM279.6,558.2c-1.5,3.6-4.9,4.9-8.8,4.8-.6,0-2-.3-4.1-1-2.6-.8-4.7-2.3-6.5-4.6-1.8-2.3-2-4.9-.7-7.8.6-1.3,1.6-1.8,3-1.6,5,.7,6.1,4.8,9.9,7.4,2,1.3,4.7.9,7,.9.2,0,.3,0,.4.2.1.3,0,.9-.3,1.6ZM340.9,557.5c-1.8,2.3-3.9,3.8-6.5,4.6-2.1.6-3.5,1-4.1,1-3.9,0-7.2-1.2-8.7-4.8-.3-.8-.4-1.3-.3-1.6,0-.2.2-.2.4-.2,2.2,0,5,.5,7-.9,3.8-2.5,4.9-6.6,9.9-7.3,1.4-.2,2.4.3,3,1.6,1.3,2.8,1.1,5.4-.7,7.7ZM395.8,547.5c-.4,1.4-.3,2.3-2,2.1-1,0-2.3-.2-3.8-.3-2.3-.2-4.2.3-6.7.4-.8,0-1.7.2-2.8.4-4.9,1-9.6,2.7-14,5-6.2,3.3-13.7,8.4-20.9,11.1-.4.1-.8.2-1.3.1-.2,0-.3-.1-.4-.3-2.4-3.2-1.8-6.5-.6-10,.5-1.6.7-2.9,1-4.4.4-1.8.5-3.6.2-5.3,0,0,0-.1,0-.2,0,0,0,0,0,0,0,0,0,0,0,0,0,0,0,0,0,0,0,0,0,0,0,0,0,0,0,0,0,0,0,0,0,0,0,0,0,0,0,0,0,0,0,0,0,0,.1,0,0,0,0,0,0,0,0,0,.1,0,.2,0,1.4.7,3,1,4.8,1,5.6-.1,9.3-5.8,10.8-10.6.2-.7.6-1.4,1.4-1.6,2.9-.5,4,.5,6.3,1.9.1,0,.2.1.4.2,2.4.8,4.2.2,5.5-2,1.7-2.9,2.3-6.4,2.9-9.6.5-2.4,1.3-4.6,2.6-6.5.3-.5.8-.7,1.4-.7,4.1.3,3.9,3.9,3.9,7,0,1.1-.1,2.2-.3,3.2-.3,2.2-.5,4.2-.5,6,0,.9,0,1.6.2,2.2,0,.3.4.6.8.6.7,0,1.3,0,1.8-.3,1.8-.8,3-1.3,3.6-3.4.7-2.7.3-5.6-.3-8.3-.6-2.8-1.2-5.4-1.5-7.5-.2-1.2-.2-2.3,0-3.3,0-.2.2-.2.3-.2,3.8.7,6.3,4.5,7.3,8.1.6,2.2,1,4.2,1.1,5.9.4,6.7-.2,13.3-1.8,19.7ZM514,99.1c-7.2,9.6-13.7,19.4-19.3,30.3-5.5,10.8-9.5,22-11.8,33.7-.7,3.4-1.3,8-1.8,13.8-.2,1.9,0,4-.2,5.6-.2.9-.2,1.8,0,2.9.3,3.1,0,6.8.4,10.3.4,4.1.5,7.5,1,11.7.6,5.6,1.2,9.8,1.7,12.6.5,2.8.7,4.9,1.1,6.9,2,10.6,4.4,21.1,7.3,31.5,1.7,6.3,3.6,12.8,5.7,19.5.3,1,1.1,4.2,2.5,9.6.4,1.5.6,2.6.7,3.4.2,1.8.7,2.9.9,4.5,0,.9.3,2.2.7,4.1.4,1.9.4,4,.7,5.5.2,1.1.4,2.5.5,4.2.2,3.4.7,7.2.8,9.7.3,7.3.3,14.7,0,22.3,0,1.7-.2,3.2-.4,4.7-.4,3.3-.3,5.7-.9,8.7-.4,2.5-.5,4.7-1,7.1,0,.3-.2,1.4-.5,3.1-1,6-2.5,12.7-4.6,20-.2.6-.2,1.7,0,3.2,0,.2,0,.5,0,.7,0,4.4-.2,7.4-.5,9-1,6.3-3.3,12-7,17.3-3.6,5.1-8.1,10.2-11.4,15.9-3.3,5.6-4.6,12.1-3.4,18.8.5,3,1.2,5.7,2.2,8.3,0,0,0,0,0,0,0,0,0,0,0,0,0,0,0,0,0,0,0,0,0,0,0,0,0,0,0,0,0,0,0,0,0,0,0,0,0,0,0,0,0,0,0,0,0,0,0,0,0,0,0,0,0,0-2.9.7-5.3,1.8-8,3.5-3.1,1.9-5.3,2.9-8.7,3.2,0,0,0,0-.1,0,0,0,0,0,0,0,0,0,0,0,0,0,0,0,0,0,0,0,0,0,0,0,0,0,0,0,0,0,0,0,0,0,0,0,0,0,0,0,0,0,0,0,0,0,0,0,0,0,0,0,0,0,0,0,0,0,0,0,0,0,0,0,0,0,0,0,0,0,0,0,0,0,0,0,0,0,0,0,0,0,0,0,0,0,0,0,0,0,0,0,0,0,0,0,0-.1.3-2.9.6-6.2,0-8.8-.9-3.4-2.8-6.1-5.7-8.2-1.4-1-4.3-2.2-6.2-2.7-6.2-1.4-12.1-.9-17.9,1.5-5.5,2.3-9.6,5.9-10.7,11.8-.3,1.4-.5,2,.1,3.3.8,1.5,2.1,2.6,4,3.2,3.8,1.3,7.4,1.1,10.7-.6,1.6-.9,2.6-2.2,2.8-4,.3-2-1.1-3.7-3.2-3.3-1.5.3-2.8.5-3.8.6-1.7.1-3.4-.9-3.1-2.8,0-.2.1-.3.2-.4.7-.6,1.2-.9,1.4-1,6-2.5,12.6-3.9,18.4-1.3,2.1.9,4.5,3.1,4.3,5.5,0,.4-.2.8-.4,1.4-1,2.4-2,4.6-.7,6.9,0,.2.2.3.4.4l2.3,1.1c.3.2.4.5.3.8-3,7.6-9.1,11.2-17.3,11.6-3.4.1-7,0-10.7-.5-2.2-.3-5.4-.9-9.6-1.9-8.1-1.9-19.5-5.4-29.1-7.2-1.5-.3-2.7-.5-3.5-.5-2.1-.2-3.3-.3-3.6-.4-1.5-.3-3.1-.3-4.6,0-2.5.4-4,.7-4.6.8-3.9,1.3-6.4,3.8-7.6,7.7-.3,1-.4,2.4-.4,4.1,0,1.3.4,2.6,1,4,1.3,2.8,3,5.5,4.1,8.7.7,2.2.7,5.5,1,7.4.6,3.8,3.7,4.1,6.9,3.7,0,0,0,0,0,0,0,0,0,0,0,0,0,0,0,0,0,0,0,0,0,0,0,0,0,0,0,0,0,0,0,0,0,0,0,0,0,0,0,0,0,0,0,0,0,0,0,0,0,0,0,0,0,0-.5-3.3-.6-5.1-1.4-8.1-1.3-4.9-1.9-7.5-2.1-8-.5-2.1-.6-4.3-.3-6.5.1-1.2.7-2.1,1.4-3,0,0,.2-.1.3,0,4.9,2.5,7.7,7.2,8.9,12.4,1,4.3,1.5,8.5,1.5,12.6,0,.3,0,.6,0,.9.2,1.1.5,1.9-.3,2.7-.6.6-2.5,2.2-5.8,4.7-6.1,4.7-11.8,9.3-17,13.7,0,0,0,0,0,0,0,0,0,0,0,0,0,0,0,0,0,0,0,0,0,0,0,0s0,0,0,0c0,0,0,0,0,0,0,0,0,0,0,0,0,0,0,0,0,0,0,0,0,0,0,0-1-1.4-1.9-3-2.9-4.9-1-1.9-2.4-3.4-4.3-4.3,0,0,0,0-.1,0,0,0,0,0,0,0,0,0,0,0,0,0,0,0,0,0,0,0,0,0,0,0,0,0,0,0,0,0,0,0,0,0,0,0,0,0,0,0,0,0,0,0,0,0,0,0,0,0,0,0,0,0,0,0,0,0,0,0,0,0,0,0,0,0,0,0,0,0,0,0,0,0,0,0,0,0,0,0,0,0,0,0,0,0,0,0,0,0,0,0,0,0,0,0,0,0,0,0,0,0,0,0,0,0,0,0,0,.1v1.4c0,.1,0,.2,0,.3-1.2,5.7-3,9.8-7.3,13.2-.7.5-1.3.6-1.9.2-2.1-1.4-3.3-2.9-4.4-5.6-1.2-2.7-2.4-5.9-5.6-6.8-1.6-.5-2.9.3-4.2,1.5-2.2,2.1-3.9,4.7-4.9,7.9-1.3,4.2-2.3,8.7-2.9,13.5-.3,2.2-.7,4.1-1.2,5.8,0,.1-.1.2-.3.3-1.9.7-3.7,1-6.1,1.6-2.7.6-5.5.9-8.6,1.3-2.5.3-5,.4-7.8.2-3.8-.3-8.1-.9-12.9-1.9-.6-.1-2-.5-4-1.2-.1,0-.2-.1-.3-.3-.3-1.2-.6-2.5-.8-3.7-.5-3.6-1.1-6.7-1.6-9.4-1.1-5.2-2.8-10.4-6.5-14.1-.8-.8-1.5-1.3-2.3-1.5-1.6-.5-3.6.7-4.7,1.8-.6.6-1.1,1.5-1.7,2.8-1.5,3.4-2.6,6.4-5.9,8-.4.2-.8.1-1.1,0-5.2-3.6-7.2-9.2-7.9-15.2,0,0,0,0,0-.1,0,0,0,0,0,0,0,0,0,0,0,0,0,0,0,0,0,0,0,0,0,0,0,0,0,0,0,0,0,0,0,0,0,0,0,0,0,0,0,0,0,0,0,0,0,0,0,0,0,0,0,0,0,0,0,0,0,0,0,0,0,0,0,0,0,0,0,0,0,0,0,0,0,0,0,0,0,0,0,0,0,0,0,0,0,0,0,0,0,0,0,0,0,0,0,0,0,0,0,0,0,0,0,0,0,0-.1,0-1.7,1.2-3.4,2.8-4.3,4.8-.6,1.3-1.4,3-2.4,4.1,0,0,0,0,0,0,0,0,0,0,0,0,0,0,0,0,0,0,0,0,0,0,0,0,0,0,0,0,0,0,0,0,0,0,0,0,0,0,0,0,0,0,0,0,0,0,0,0,0,0,0,0,0,0,0,0,0,0,0,0,0,0,0,0,0,0,0,0,0,0,0,0,0,0,0,0,0,0,0,0,0,0,0,0,0,0,0,0,0,0,0,0,0,0,0,0,0,0,0,0,0,0-2.3-2.2-4.9-4.4-7.5-6.5-4.7-3.7-9.6-7.5-14.5-11.4-.8-.6-.6-.9-.6-1.8.2-5.4.7-10.1,1.5-14,1.1-5.3,3.8-10.4,8.7-13,.3-.1.6,0,.8.1,1.5,1.4,1.6,4.7,1.4,6.5-.2,2.2-.7,4.4-1.3,6.6-1.2,4.2-2.2,7.9-2.3,12.4,0,.1,0,.3.2.3.2,0,.7,0,1.4.1,4.3.2,5.2-2.1,5.6-5.7.3-3.2.6-5.9,2-8.6,1.4-2.6,2.8-5,3.7-7.9.8-2.6.3-4.9-.8-7.4-1.3-3-3.7-5.1-7.1-6.1-.5-.2-2.3-.4-5.4-.9-.6,0-1.2,0-1.8,0-2.9.4-6.3.5-9.4,1.1-5,1.1-8.4,1.8-10.2,2.3-6.1,1.7-11.8,3.2-17.2,4.5-4.3,1.1-8.2,1.8-11.7,2.3-3.1.4-6.3.6-9.6.4-3.4-.1-6.4-.8-8.7-1.9-3.7-1.8-6.5-4.7-8.4-8.8-.4-.9-.7-1.5.5-2,1.3-.6,2.4-1.1,2.8-2.6.5-1.8-1-4.7-1.7-6.4-.1-.2-.1-.5-.1-.8.4-3.8,4.3-5.9,7.8-6.4,1.2-.2,2.8-.4,4.2-.4,3.8.2,7.4,1.1,10.7,2.7,1,.5,2.1,1.1,2,2.3-.3,3.1-5.6,1.7-6.9,1.4-.4,0-.9,0-1.5,0-.6,0-1,.4-1.3.9-.7,1.6-.5,3.8.8,5.2,1.4,1.5,4.4,2.5,6.3,2.6,3.4.2,8-.7,9.9-3.9.4-.7.5-1.4.4-2.3-.4-2.7-1.2-4.8-2.5-6.6-1.6-2.2-3.6-4-6.2-5.3-6-3.1-12.3-4-19-2.7-4.9.9-9.6,3.6-11.9,8-1.2,2.3-1.3,4.4-1.7,7,0,0,0,.1,0,.2l.6,5s0,0,0,0c0,0,0,0,0,0,0,0,0,0,0,0,0,0,0,0,0,0,0,0,0,0,0,0,0,0,0,0,0,0,0,0,0,0,0,0,0,0,0,0,0,0,0,0,0,0,0,0-3,0-5.7-1-8.3-2.6-3.2-2.1-6.2-3.4-9-4,0,0,0,0,0,0,0,0,0,0,0,0,0,0,0,0,0,0,0,0,0,0,0,0,0,0,0,0,0,0,0,0,0,0,0,0,0,0,0,0,0,0,0,0,0,0,0,0,0,0,0,0,0,0,.9-2.3,1.6-4.9,2.2-7.7.6-2.8.7-5.5.5-7.9-.8-7.9-4.8-14-9.8-20.4-4.7-6-9.1-12-11.1-19.1,0-.3-.3-.5-.5-.5l-1.8-.4c-.2,0-.4-.2-.5-.4-5-12.2-8.5-24.9-10.8-37.7-.3-1.8-.5-3.4-.7-4.7-.2-2.1-.7-4.1-.9-6.4-.2-2.3-.4-4.8-.8-7.4,0-.8-.1-2.9-.1-6.4,0-1.7-.3-3.1-.3-4.6,0-4.6,0-7.9,0-9.9,0-1,.2-2.2.3-3.4,0-3.7.1-5.9.2-6.5.5-3.8.7-7.4,1.2-10.7.9-6.4,2-12.4,3.3-18.2,1.6-6.8,4.2-14.6,6.3-21.9,4.4-15.2,7.9-30.5,10.3-45.8.2-1.3.4-2.5.4-3.4.1-1.4.5-2.9.7-4.5.1-1.5.4-4.4.9-8.6.3-3.2.2-5.7.5-8.6,0-.8.1-1.9.1-3.4,0-6.6.1-10-.1-15.1,0-1.5-.2-3.3-.3-5.4-.3-4.6-1.1-9.9-2.2-15.9-3.8-19.4-11.6-36.9-23.3-52.7-.4-.6-.9-1.2-1.2-1.9,0-.1,0-.3,0-.5.6-.5,1.3-1.3,2.1-2.2,6.2-7,16.5-19,30.9-35.8,7-8.2,13.6-15.7,19.7-22.6.3-.3.8-.4,1.2-.2,2.2,1.4,4.8,3,7.9,4.7,17.2,9.8,35.5,17.7,55,23.8,6.3,2,12,3.6,17.2,4.8,2.7.6,4.1,1.1,4.5,1.2,0,0,0,0,0,0l14,2.9s0,0,0,0c.9,0,1.9.2,3,.4,2.1.5,4,.5,5.7,1,1,.3,2,.4,2.9.5,2.8.2,5.5,1,8.5,1.2,1.7,0,3.4.3,5.3.7.7.1,1.5.2,2.2.2,1.3,0,1.9,0,3.2.1,3.6.5,7.5.8,11.6.9.8,0,1.7.3,2.5.3,1.6,0,3.3,0,5,.2,2.4.1,4.8-.1,7.1.2.8.1,1.7.2,2.8.2,4.5,0,7.2,0,8.2,0,3.2-.3,6-.1,9.1-.3,6.5-.4,10.6-.7,12.2-.8,2.8-.2,5.9-.7,8.7-.7.3,0,.7,0,1-.1,1.2-.3,3.3-.6,6.3-.9,3.5-.4,8.4-1.2,14.5-2.3,22-4.2,42.6-10.6,61.7-19.3,13.2-6,25.9-13,38.2-20.9.2-.1.4,0,.5,0l56,62.4c.2.2.2.5,0,.7Z"/>
  <path d="M454.2,50.5c-.1-.1-.3-.2-.4,0-8.5,5.3-17.2,10-26.1,14.1-20.1,9.3-41,16.1-62.8,20.7-1.1.2-2.3.3-3.3.6-.5.2-1.3.3-2.4.5-.5,0-2.1.4-4.8.8-4.9.9-11.5,1.8-19.9,2.8-2.6.3-5.8.4-8.3.7-5.7.8-10.2.5-17.2,1-1.1,0-2.4.1-3.8.1-5.2,0-10.2,0-14.8,0-1.2,0-2.8-.3-4.2-.4-1.7,0-4.6-.2-8.5-.3-3.4-.1-7.2-.7-10.4-.9-2.7-.1-5.5-.6-8.1-.9-1.9-.2-4-.4-6.1-.7-6.3-.9-12.7-2-19.1-3.4-27.4-5.6-54.1-15.1-78.6-28.4-3.8-2-7.5-4.2-11.2-6.6,0,0,0,0,0,0,0,0,0,0,0,0,0,0,0,0,0,0,0,0,0,0,0,0s0,0,0,0c0,0,0,0,0,0,0,0,0,0,0,0,0,0,0,0,0,0,0,0,0,0,0,0-1,1.6-2.5,2.9-3.9,4.4-14,15.4-27.7,30.5-41.2,45.3-.1.2-.1.4,0,.5,11.8,15.7,19.6,33.2,23.3,52.4.6,3,.9,5.8,1.2,7.8.5,2.7.5,5.1.8,7.8.3,2.1.2,3.9.4,5.7.1,1,.2,2.4.1,4.2,0,2.9,0,6.1,0,9.4,0,.9-.2,4-.7,9.3-.2,2.7-.2,5.2-.7,7.8-.3,1.9-.4,3.4-.6,5.1-1.5,10.9-3.8,22.6-6.9,35.1-1.8,7.1-3.6,13.5-5.4,19.4-2.3,7.4-3.7,12.4-4.2,14.8-1.6,7.3-2.5,12.3-2.8,15.1-.3,3-.8,5.6-1.1,8.6-.9,8.8-1.1,17.6-.8,26.5,0,1.7.2,3.2.3,4.4.4,3.5.3,6.7.9,10.2.3,1.7.5,3.7.7,5.8,0,.9.7,4.5,1.9,10.7.2,1.2.7,2.3.8,3.6,0,.6.3,1.5.6,2.7.7,2.5,1.1,4.3,1.4,5.4,0,0,0,0,0,0,0,0,0,0,0,0,0,0,0,0,0,0,0,0,0,0,0,0,0,0,0,0,0,0,0,0,0,0,0,0,0,0,0,0,0,0,0,0,0,0,0,0,0,0,0,0,0,0,0,0,0,0,0,0,0,0,0,0,0,0,1.8-2.3,4.1-4,6.9-5.1,1-.4,1.6-.8,2.8-.6,0,0,0,0,.1,0,0,0,0,0,0,0,0,0,0,0,0,0,0,0,0,0,0,0,0,0,0,0,0,0,0,0,0,0,0,0,0,0,0,0,0,0,0,0,0,0,0,0,0,0,0,0,0,.1-1.2,1.8-1.9,3.8-2,6.1-.3,5.3,1.5,9.9,5.3,13.6,2.8,2.8,6.3,3.9,10.4,3.4,2-.3,3.8-1.3,5.4-2.3.4-.2.6-.6.6-1.1,0-1.1,0-2.2-.2-3.5-.7-5-1.6-10.1-3-15.2-2.9-10.6-5.7-19.1-7.7-28.2-.9-4.1-1.6-9.1-1.7-12.8-.2-9.3,2.5-18.2,9.1-25,.2-.2.3-.4.3-.7,0-1.3,0-3.2,0-5.9,0-1.9.4-3.4.3-5.2,0-1.4,0-2.7.2-3.9.7-5.3,1.3-9,1.8-11,4.9-21.2,15.6-39,31.9-53.3,12.6-11,27.1-18.9,43.7-23.7,1.6-.5,4.5-1.2,8.7-2.2.8-.2,1.6-.3,2.2-.4,1.8-.2,3.5-.7,5.4-.9,1.6-.2,3.6-.4,5.8-.7,1.4-.2,3.3-.3,5.8-.4,5.5-.2,10.5,0,14.8.2,15.3,1.2,30.2,5.2,44.7,12.2.1,0,.3,0,.5,0,11.8-5.8,24.3-9.6,37.3-11.2,3.5-.5,5.3-.7,5.4-.7,1.3-.2,3.1-.4,5.4-.4,4-.1,8.1-.1,12.3,0,1.7,0,3.4.2,4.9.4,3.7.5,5.6.5,8.9,1.1.7.1,2,.4,4,.7,2.7.5,6.5,1.4,11.5,2.9,21.8,6.5,42.1,19.8,56,37.7,11.8,15.2,18.9,33.4,20.3,52.6.3,3.9.2,7.9.2,11.9,0,.2,0,.5.2.7,4.1,4.9,7.1,9.6,8.3,16,.8,3.9,1,7.4.7,10.5-.3,4-.7,6.8-1,8.4-1,5.1-2,9.3-3,12.6-2.4,8.3-5.1,17.1-7.1,26-.3,1.1-.5,2.6-.7,4.3-.3,2.4-1,5.2-.6,7.6,0,.2.1.3.3.4,1.9,1.2,3.7,2.2,5.9,2.5,4,.5,7.5-.7,10.5-3.7,2.7-2.8,4.4-6.3,5-10.6.4-2.9-.4-5.9-1.7-8.8,0,0,0,0,0,0,0,0,0,0,0,0,0,0,0,0,0,0,0,0,0,0,0,0,0,0,0,0,0,0,0,0,0,0,0,0,0,0,0,0,0,0,0,0,0,0,0,0,0,0,0,0,0,0,2.3,0,4.4,1.4,6.6,2.8,0,0,0,0,0,0,0,0,0,0,0,0,0,0,0,0,0,0,0,0,0,0,0,0,0,0,0,0,0,0,0,0,0,0,0,0,0,0,0,0,0,0,0,0,0,0,0,0,0,0,0,0,0,0,0,0,0,0,0,0,0,0,0,0,0,0,0,0,0,0,0,0,0,0,0,0,0,0,0,0,0,0,0,0,0,0,0,0,0,0,0,0,0,0,0,0,0,0,0,0,0-.1,0-.2.1-.4.2-.6,0-1.5.5-2.8.8-4.1,2.7-11.7,4.3-23,4.7-34.1.1-2.5.2-3.9.2-4.1.3-3.6.3-7,0-10.1,0-.2,0-1.3-.1-3.2-.3-6.6-.9-13.2-1.9-19.9-1.1-7.2-2.4-13.7-4.1-19.5-.9-3.2-2.4-8.1-4.3-14.6-2.4-8.2-4.7-17.3-6.9-27.2-2-9.1-3.5-18.4-4.6-27.9-.2-1.8-.4-3.5-.5-5.4-.3-5.2-.8-8.5-.7-13.4,0-2.7-.2-9.1.3-13.6.4-4.3.6-8.2,1.3-12.7.9-5.7,1.8-10.1,2.6-13.1,1.3-5,2.7-9.5,4.1-13.3,4.3-11.6,10.2-22.3,17.8-32.2,0-.1,0-.3,0-.4l-45.5-49.9ZM275.4,160.3c-1.4,1.6-3.2,2.9-5.5,4-4.8,2.2-9.4,1.9-13.7-.9-.2-.1-.4-.1-.6,0-1.1.8-2.2,1.4-3.2,1.8-3.5,1.5-5.4-.8-6.9-3.7-2.9-5.5-5.9-11.3-8.9-17.5,0-.1-.2-.2-.3-.2-5.6,0-11.5.3-17.7.5-2.8.1-3.1,1.6-4.1,4.3-2.6,6.7-4.6,14.3-2.4,21.3,1,3,3.9,6.3,5.2,8.5.5.8,0,1.3-.7,1.6-2.3.8-4.2.4-5.9-1.3-3.6-3.7-4.9-8.3-3.7-13.8.2-1,.9-3.3,2.2-6.9,2.3-6.8,4.7-13.1,7.1-19,2.2-5.3,3.6-7.6,7-14.1.5-1,1.1-1.8,1.8-2.5.8-.8,1.3-1.3,1.4-1.5.1-.2.2-.3.3-.5,0,0,.3-.9.7-2.6,1.2-4.6,3.9-8.2,8.2-10.6,0,0,0,0,0,0,0,0,0,0,0,0,0,0,0,0,0,0,0,0,0,0,0,0,0,0,0,0,0,0,0,0,0,0,0,0,0,0,0,0,0,0,0,0,0,0,0,0,0,0,0,0,0,0,.3,3.5.7,6.9,1.8,10.9,2.9,11,6,22.3,9.1,33.7.9,3.2,2.4,6.1,4.5,8.8.8,1,1.7,1.1,2.9.3,1.3-.8,2.4-1.7,3.5-2.5.5-.4,1-.4,1.5,0,.9.9,2.1,1.9,3.6,3.1,1,.8,2.2,1.1,3.7.9,1.6-.2,4.8-.7,5.1-2.7.4-3.1-.3-5.8-2.2-7.9-2.1-2.5-5.8-5.2-8.7-8-2.8-2.7-4.1-5.9-1.8-9.5,2-3.1,5.6-5.8,9.5-6.4,3.1-.4,6.1.8,8.6,2.7,0,0,0,0,0,0,0,0,0,0,0,0,0,0,0,0,0,0,0,0,0,0,0,0,0,0,0,0,0,0,0,0,0,0,0,0,0,0,0,0,0,0,0,0,0,0,0,0,0,0,0,0,0,0l-2.6,3.2s0,0,0,0c0,0,0,0,0,0,0,0,0,0,0,0,0,0,0,0,0,0,0,0,0,0,0,0,0,0,0,0,0,0,0,0,0,0,0,0,0,0,0,0,0,0,0,0,0,0,0,0,0,0,0,0,0,0,0,0,0,0,0,0,0,0,0,0,0,0,0,0,0,0,0,0,0,0,0,0,0,0,0,0,0,0,0,0,0,0,0,0,0,0,0,0,0,0,0,0-1.3-1-3-2.5-4.7-2.7-2.2-.2-4.2.2-6,1.2-.3.2-.5.5-.6.8-.4,2.2.2,4.2,1.5,5.7.9,1,1.7,1.8,2.5,2.5,2.1,1.7,4.5,3.9,7.3,6.5,3.2,3,5.2,8.1,1.9,11.9ZM305.6,149.1c-.3,7.4-.9,15-1.8,22.8-.8,7.4-6.2,13.1-13.3,15,0,0,0,0,0,0,0,0,0,0,0,0,0,0,0,0,0,0,0,0,0,0,0,0,0,0,0,0,0,0,0,0,0,0,0,0,0,0,0,0,0,0,0,0,0,0,0,0,0,0,0,0,0,0,5.5-3.6,8.1-9.4,8.6-15.8.2-2.4.5-6.3.8-11.7,0,0,0,0,0-.1,0,0,0,0,0,0,0,0,0,0,0,0,0,0,0,0,0,0,0,0,0,0,0,0,0,0,0,0,0,0,0,0,0,0,0,0,0,0,0,0,0,0,0,0,0,0-.1,0-1.9,1.7-3.8,3.2-5.6,4.7-1,.8-2.1,1.4-3.4,1.9-1.5.6-4.6,1.3-6,0-1.5-1.4-1.8-4.7-1.7-6.6.4-7.6.8-13.7,1.1-18.3,0-.8,0-2.3-.1-3.4-.3-2.4-.7-4.8-1.1-7.1,0-.4.2-.8.6-1l2.5-1c.5-.2,1.1,0,1.4.3,1,1,1.6,2.2,2,3.9.2.8.2,2.3,0,4.5-.2,2.5-.6,8.1-1.3,16.7,0,1.1-.1,2.1,0,3.1,0,2.2,1.3,4.2,1.8,5.9,0,0,0,0,0,0,0,0,0,0,0,0,0,0,0,0,0,0,0,0,0,0,0,0,0,0,0,0,0,0,0,0,0,0,0,0,0,0,0,0,0,0,0,0,0,0,0,0,0,0,0,0,0,0,2.1-1,4.7-2.1,6-4.1,4.2-6.2,5.5-14.1,4.9-21.5-.2-2.7-.8-5.4.8-7.3.9-1.1,2-1.9,3.4-2.4,0,0,0,0,0,0,0,0,0,0,0,0,0,0,0,0,0,0,0,0,0,0,0,0,0,0,0,0,0,0,0,0,0,0,0,0,0,0,0,0,0,0,0,0,0,0,0,0,0,0,0,0,0,0,0,7.8.2,15.1,0,21.3ZM319.5,164.6c-.9.6-2.2,1.4-3.4,1.5-4.4.2-4.4-6.6-4.5-9.9-.1-3.7,0-8.7.3-15.2,0-.6.4-6.9,1.1-18.9.2-2.7,0-6,.2-8.6.1-2.3,1.9-3.6,3.7-4.4,0,0,0,0,0,0,0,0,0,0,0,0,0,0,0,0,0,0,0,0,0,0,0,0,0,0,0,0,0,0,0,0,0,0,0,0s0,0,0,0c0,0,0,0,0,0,0,0,0,0,0,0,1.1,3.4,1.6,6.9,1.2,10.6-1,11.8-1.7,21.6-2.1,29.4,0,1.2,0,2.9,0,5.1,0,1.1.9,3.7,1.5,5.1.7,1.5,1.3,3,1.8,4.4,0,.3,0,.6-.3.7ZM337.5,161.6c-1.3,1.1-2.6,2.1-4,2.8-2.8,1.4-6,1.4-6.8-2.2-.1-.6-.2-1.8,0-3.5,0-1.4.4-3.9.9-7.7.6-4.5.8-8.2.6-12.4-.2-2.8-.4-5.8-.7-8.9,0-.2.1-.5.4-.6l2.1-.9c.5-.2,1-.1,1.4.2.7.5,1.2,1.3,1.6,2.3.6,1.4.3,4.7.2,5.9-.3,3.6-.7,9.4-1.5,17.5-.4,3.9.5,8.6,5.7,7.4,0,0,0,0,0,0,0,0,0,0,0,0,0,0,0,0,0,0,0,0,0,0,0,0,0,0,0,0,0,0ZM350.3,163.3l-3,1.2c0,0-.2,0-.3,0-1.9-.9-3.4-3.4-4.5-5.4,0,0,0,0,0,0,0,0,0,0,0,0,0,0,0,0,0,0,0,0,0,0,0,0,0,0,0,0,0,0,0,0,0,0,0,0,0,0,0,0,0,0,0,0,0,0,0,0,0,0,0,0,0,0l-3.6,2.3s0,0,0,0c0,0,0,0,0,0,0,0,0,0,0,0,0,0,0,0,0,0,0,0,0,0,0,0,0,0,0,0,0,0,0,0,0,0,0,0,0,0,0,0,0,0,0,0,0,0,0,0,0,0,0,0,0,0,0,0,0,0,0,0,5.7-8.9,8.2-18.5,7.5-28.7,0-.5,0-1,.4-1.5.4-.7,1.1-1.6,2.2-2.7.6-.6,2.1-.9,2.2.3.1,2.9.1,5.8,0,8.8-.1,4.8-1.4,11.1-1.8,16.3-.2,3.4,1.2,6.8,1.9,9.3,0,.2,0,.5-.3.6ZM362.7,143.1c-.5,5.3-1,11.5-1,17,0,1.3-.2,2.2-.5,2.9-1.1,1.8-2.3,2.2-4.6,3.2,0,0,0,0-.1,0,0,0,0,0,0,0,0,0,0,0,0,0,0,0,0,0,0,0,0,0,0,0,0,0,0,0,0,0,0,0,0,0,0,0,0,0,0,0,0,0,0,0,0,0,0,0,0-.1.4-8.7.9-17.4,1.6-26.2,0-.9,0-3.5.1-7.7,0-1,.5-1.9,1.6-2.9,1-.9,2.1-1.4,3.3-1.7,0,0,0,0,0,0,0,0,0,0,0,0,0,0,0,0,0,0,0,0,0,0,0,0,0,0,0,0,0,0,0,0,0,0,0,0,0,0,0,0,0,0,0,0,0,0,0,0,0,0,0,0,0,0,.1,4.9.1,9.8-.4,15.4ZM378.4,160.1c0,.6-.2,1.2-.6,1.7l-2.4,3.6s0,0,0,0c0,0,0,0,0,0,0,0,0,0,0,0,0,0,0,0,0,0,0,0,0,0,0,0,0,0,0,0,0,0,0,0,0,0,0,0,0,0,0,0,0,0,0,0,0,0,0,0-2.4-4.6-3-9.8-2.3-15,.4-3.7.9-6.9,1.3-9.4.3-2,.6-5.2-.4-6.7,0-.1-.1-.2-.2-.3-.3-.4-1.5-1.4-3.6-3-.1,0-.2-.2-.2-.3,0,0,0,0,0,0,0,0,0,0,0,0,0,0,0,0,0,0,0,0,0,0,0,0,0,0,0,0,0,0,0,0,0,0,0,0,0,0,0,0,0,0,0,0,0,0,0,0,0,0,0,0,0,0,2.1-.5,4.3-1.1,6.6-1.8,0,0,0,0,0,0,0,0,0,0,0,0,0,0,0,0,0,0,0,0,0,0,0,0,0,0,0,0,0,0,0,0,0,0,0,0,0,0,0,0,0,0,0,0,0,0,0,0,0,0,0,0,0,0,1.2,4.4,2,7,2,10.9,0,6.4-.3,13.3-.7,20.5ZM393.9,164.1l-2.7,1.1c-.1,0-.3,0-.4,0-1.6-1.1-2.7-2.6-3.2-4.4,0-.3-.1-.6,0-.8.3-4.8.6-8.2.8-10.1.6-5.3,1-9.1,1.2-11.1.2-1.8,0-3.4-.7-4.7-.6-1.3-2.2-2-3.6-2.6-.2,0-.3-.2-.5-.5,0,0,0,0,0,0,0,0,0,0,0-.1,0,0,0,0,0,0,0,0,0-.1,0-.2,0,0,0,0,0,0,0,0,0-.1,0-.2,0,0,0,0,0,0,0,0,0,0,.2-.1,0,0,0,0,0,0,2.2-.8,4.1-1.4,5.8-1.7.4,0,.8,0,1.3.2,1.5.5,2.1,4.6,2.2,6,0,1.9,0,3.7-.3,5.5-.3,2-.8,5.8-1.5,11.2-.1,1.2,0,3.5.3,5,.5,2.5,1,5,1.5,7.4,0,.2,0,.4-.3.5Z"/>
  <path d="M230.8,114.6s0,0,0,0c0,0,0,0,0,0,0,0,0,0,0,0,0,0,0,0,0,0,0,0,0,0,0,0,0,0,0,0,0,0,0,0,0,0,0,0,0,0,0,0,0,0,0,0,0,0,0,0,0,0,0,0,0,0,0,0,0,0,0,0-.7,1-1.4,2.3-2.2,3.8-.6,1.1-1.4,1.8-1.8,2.9,0,.3-.3.8-.7,1.6-4.2,8.5-6.7,13.6-7.6,15.4-.3.5-.5,1-.6,1.5,0,0,0,0,0,0,0,0,0,0,0,0,0,0,0,0,0,0,0,0,0,0,0,0,0,0,0,0,0,0,0,0,0,0,0,0,0,0,0,0,0,0,0,0,0,0,0,0,0,0,0,0,0,0l18.1,1.3s0,0,0,0c0,0,0,0,0,0,0,0,0,0,0,0,0,0,0,0,0,0,0,0,0,0,0,0s0,0,0,0c0,0,0,0,0,0,0,0,0,0,0,0,0,0,0,0,0,0l-5.3-26.3Z"/>
  <path d="M436.6,410.2c-2.6-2.5-5.2-5.1-6.8-8.4-2.5-5.2-2.6-10.6-.1-16.1,0,0,0,0,0-.1,0,0,0,0,0,0,0,0,0,0,0,0,0,0,0,0,0,0,0,0,0,0,0,0,0,0,0,0,0,0,0,0,0,0,0,0,0,0,0,0,0,0,0,0,0,0,0,0-6.4,8.3-14.8,14.5-24.1,19.3-5.6,3-11.3,5.6-17.2,8-13.5,5.6-21.7,8.7-32.4,14.2-5.2,2.7-10,5.6-14.1,8.8,0,0-.2.2-.2.3-.2.4-.3.9-.3,1.5-.2,4.3,2.8,5.8,6,7.8,1.9,1.1,3.1,2.9,3.6,5.1,0,0,0,0,0,0,0,0,0,0,0,0,0,0,0,0,0,0,0,0,0,0,0,0,0,0,0,0,0,0,0,0,0,0,0,0,0,0,0,0,0,0,0,0,0,0,0,0,0,0,0,0,0,0-.4,0-.9.1-1.4,0-7-.3-13.4-2.6-19.1-6.7-3.8-2.8-7.3-6-10.4-9.6-4.2-4.9-8-10.3-11.5-16-.7-1.1-1.4-1.6-.2-2.7,5.1-4.8,10.9-8.5,17.4-11.2,5.1-2.2,10.4-4,15.7-5.4,10.6-2.9,23.5-5.6,31.6-8,3.4-1,6.5-2,9.2-3.1,4.9-1.8,10.5-4.6,14.8-7.9,2.5-1.9,4.4-3.5,5.6-4.8,2.8-2.9,5-5.4,6.5-7.5,5.5-7.5,9.6-15.8,12.4-25,.9-2.9,1.5-5,1.7-6.3,1-5.2,1.7-9.5,2.1-12.9.3-2.7.2-5.6.5-8.5.1-1.5.2-2.7,0-3.5-.3-2.3-.3-5.5-.4-7.9-1-13.2-4.2-25.7-9.5-37.3-5.5-12.1-13.1-23-23.5-31.1-9.9-7.7-21.1-12-33.6-12.8-2.8-.2-6.5,0-9.3,0-3.3,0-6.7.5-10.2,1.2-13.5,2.8-26.1,9.4-37.5,17.4-.9.6-1.5.7-2.4,0-2.4-1.8-6.2-4.2-11.2-7.1-7-4.1-13.6-7-19.9-8.8-4.1-1.2-7.6-1.9-10.3-2.2-3.7-.4-7.7-.5-12.1-.4-4.4.1-8.4.6-12,1.4-32.6,7.4-50.4,39.5-55.6,69.7-.1.6-.4,3-1,7.2-.3,2.4-.5,4.8-.5,7.2,0,4.4,0,8.3,0,11.7,0,3.3.6,5.9,1.1,10,.7,5.4,2.2,11.2,4.3,17.3,3.5,10.1,9,19.4,16.5,27.2,6.4,6.7,13.9,11.1,22.4,14.2,9.4,3.4,19.1,5.7,29.7,8.1,6.6,1.5,12.9,3.3,18.9,5.3,5.5,1.8,10.5,4.1,15.1,6.8,3.2,1.9,6.4,4.4,9.6,7.5.4.4.5.9.2,1.4-5.2,8.4-10.9,16.5-18.2,23.2-5,4.6-11.5,8.4-18.2,9.6-2.2.4-4.3.6-6.1.6,0,0,0,0,0,0,0,0,0,0,0,0,0,0,0,0,0,0,0,0,0,0,0,0,0,0,0,0,0,0,0,0,0,0,0,0,0,0,0,0,0,0,0,0,0,0,0,0,0,0,0,0,0,0,0,0,0,0,0,0,0,0,0,0,0,0,0,0,0,0,0,0,0,0,0,0,0,0,0,0,0,0,0,0,0,0,0,0,0,0,0,0,0,0,0,0,0,0,0,0,0-.1.8-6.5,10-5.6,9.6-13,0-.7-.3-1.2-.9-1.7-3.8-3-8.3-5.7-13.4-8.4-5-2.6-9.5-4.7-13.6-6.4-6-2.5-12-5-18-7.4-15.4-6.3-31.2-13.9-41.9-27-.3-.3-.4-.7-.6-.9,0,0,0,0,0,0,0,0,0,0,0,0,0,0,0,0,0,0,0,0,0,0,0,0,0,0,0,0,0,0,0,0,0,0,0,0,0,0,0,0,0,0,.4,1.7,1.2,4.1,1.4,6.4.5,5.1-1,9.7-4.4,13.7-1.4,1.6-2.8,3.4-4.6,5-3.2,2.8-6,5.5-8.4,8.1-1.7,1.9-3,3.9-3.8,6.1,0,0,0,.2,0,.3,8.4,10.9,21,17.6,34.5,20.5,1.7.4,5,1.1,7.3,1.4,4.7.6,7.7.9,9.2.9,2.4,0,5.2,0,8.6,0,2.9,0,5.9-.5,7.9-.6,1.9-.1,3.8-.4,5.9-.8,6.5-1.2,11.5-2.4,15-3.7,3.3-1.2,5.3-1.9,6.1-2.1,0,0,0,0,0,0,0,0,0,0,0,0,0,0,0,0,0,0,0,0,0,0,0,0,0,0,0,0,0,0-2.9,6.8-8.2,14-15.5,16.2,0,0,0,0,0,0,0,0,0,0,0,0,0,0,0,0,0,0,0,0,0,0,0,0,0,0,0,0,0,0,0,0,0,0,0,0,0,0,0,0,0,0,0,0,0,0,0,0,0,0,0,0,0,0,0,0,0,0,0,0,0,0,0,0,0,0,2.1.4,4,.9,5.9,1.5,6.4,2.2,9.9,7.3,10.6,14.1.3,2.8.5,4.3.5,4.5,0,.3,0,.9-.2,1.8,0,.4-.1.7,0,1.1,0,1.8-.3,3.6-.3,5.2,0,3.5-.7,7.4-.8,10.8,0,2.5,0,4.1.1,4.9.6,3.1.7,5,1.9,7,0,0,0,0,0,0,0,0,0,0,0,0,0,0,0,0,0,0,0,0,0,0,0,0,0,0,0,0,0,0,0,0,0,0,0,0,0,0,0,0,0,0,0,0,0,0,0,0,0,0,0,0,0,0,0,0,0,0,0,0,0,0,0,0,0-.1.7-4.7,3.9-9.8,9-10.6.3,0,.6.1.8.4,3.4,5.3,3.1,13.7,11.3,14,7.9.3,3.4-11.7,11.9-11.5.4,0,.8.3,1,.7,1.7,3.9,2.7,8.5,5,11.9,1,1.4,2.3,2.6,3.9,3.5.1,0,.3.1.4,0,1.5-.1,3-2.4,3.4-3.6.5-1.6.8-3.2,1-4.8.3-2.7.8-6.2,2.5-8,0,0,0,0,0,0,0,0,0,0,0,0,0,0,0,0,.1,0,0,0,0,0,0,0,0,0,0,0,.1,0,0,0,0,0,0,0,0,0,0,0,0,0,0,0,0,0,0,0,0,0,0,0,0,0,0,0,0,0,0,0,0,0,0,0,0,0,0,0,0,0,.1,0s0,0,.1,0c0,0,0,0,0,0,2,2.7,2.8,7,3.4,9.7.6,2.7,1.6,4.9,3.8,6.4.4.3.9.3,1.3.1,5.6-2.4,6.9-10.8,8.7-15,.3-.7.8-1.1,1.5-1.1,8.6-.4,3.2,14.3,14.3,11,4.2-1.3,5.5-6.3,7.2-10.7.4-1.1.9-2,1.4-2.7.3-.5.9-.7,1.4-.5,5.2,1.6,7.6,5.7,8.7,10.8,0,0,0,0,0,0,0,0,0,0,0,0,0,0,0,0,0,0,0,0,0,0,0,0,0,0,0,0,0,0,1.1-1.5,1.3-3.7,1.8-6.4.7-3.6.2-7.3-.2-11.5-.6-5.2-1-11.2-.7-15.4.1-2.1.3-3.7.6-4.8,1.4-5.4,4.5-9.1,9.3-11.1,1.9-.8,3.9-1.4,6.3-1.7.1,0,.3,0,.4-.1,0,0,0,0,0,0,0,0,0,0,0,0,0,0,0,0,0,0,0,0,0,0,0,0,0,0,0,0,0,0,0,0,0,0,0,0,0,0,0,0,0,0,0,0,0,0,0,0,0,0,0,0,0,0-1.2-.4-2.3-.9-3.1-1.4-5.7-3.4-9.2-8.4-12-14.2-.1-.2-.2-.4-.1-.6,0,0,0,0,0,0,0,0,0,0,0,0,0,0,0,0,0,0,0,0,0,0,0,0,0,0,0,0,0,0,0,0,0,0,0,0,0,0,0,0,0,0,0,0,0,0,0,0,0,0,0,0,0,0,1.2.4,4.3,1.4,9.1,3.1,1.3.4,4.6,1.2,9.8,2.3,2.1.5,4.6.8,7.4,1.1,4.2.4,6.7.7,7.4.7,5.8,0,9.4,0,10.8,0,15.8-1,31.8-5.4,43.9-16.1,2.2-1.9,3.9-3.9,5.7-6.1.4-.5.5-1,.2-1.5-2.8-6-8-9.7-12.5-14.1ZM264.9,286.7l1.4,1.7c.3.4.4.8.3,1.2-.4,1.7-.8,3.7-1.2,6-.5,3.6-1.2,8.4-2,14.5-.3,2.6-.5,5.1-.5,7.4,0,4,0,6.4,0,7.4,0,.3,0,.5.1.8l1.6,4c0,0,0,.1,0,.2-1.5.9-3.4,2.3-5.8,4-1.3,1-2.6,1.5-4,1.7-3.4.5-4-3.3-4.3-6.1,0-.2,0-.4,0-.7l.9-2.3c0-.2,0-.5,0-.7l-1.2-1.8c-.1-.2-.1-.4,0-.5.4-.7.9-1.7,1.6-2.8.7-1.1.3-1.7-.6-2.6-.4-.5-.7-1-.9-1.6,0-.3,0-.5,0-.8.9-2.8,1.5-6,1.7-9.4.1-2.2.7-4.3.9-6.4.2-2.8,1-6.5,1.1-8.9,0-2.4.2-4.2.4-5.4,0-.4,0-.8,0-1.2-.2-1.1-.2-3.2-1.1-4.4-.3-.4-.8-.6-1.2-.4-.6.1-1.3.4-2,.7-1.7.7-5,2.2-9.8,4.3-.7.3-1.4.4-2.2.3,0,0,0,0,0,0,0,0,0,0,0,0,0,0,0,0,0,0,0,0,0,0,0,0,0,0,0,0,0,0,0,0,0,0,0,0,0,0,0,0,0,0,0,0,0,0,0,0,0,0,0,0,0,0,.3-.5.6-.8,1-1,1.5-.8,5-2.4,10.5-4.8,2-.9,4-1.7,5.9-2.4,2.2-.8,4.4-1.7,6.5-2.8.1,0,.3-.1.5-.2l1.9-.4c.1,0,.3,0,.4.1,2.4,2.5,2.1,4.6,2.2,8.5,0,.3,0,.5-.2.8-.6,1.3-1.7,1.8-1.8,3.7,0,.1,0,.3.1.4ZM300.5,361.1c-2.9.7-6.3,1.3-10.3,1.9-2.4.3-4.8.5-7.1.3-.6,0-3,0-7.1,0,0,0,0,0-.1,0,0,0,0,0,0,0,0,0,0,0,0,0,0,0,0,0,0,0,0,0,0,0,0,0,0,0,0,0,0,0,0,0,0,0,0,0,0,0,0,0,0,0,0,0,0,0,0,0,0,0,0,0,0,0,0,0,0,0,0,0l.5-.4c.2-.2.4-.2.7-.2,2.9,0,4.5-.1,4.9-.2,15-1.7,30.2-6.8,42.7-15.4,5.2-3.5,9.8-8,11.8-13.8.7-2,1-5.2,1.4-7,0-.2.1-.4.2-.5.2-.4.7-.8,1.3-1.2,1.8-1.1-.2-1.9-1-2.3-.2-.1-.4-.3-.5-.5-.3-.7-.5-1.3-.8-2-1.3-3.5-3.8-6-7.2-7.1-4.1-1.3-7.6-2-10.6-2.2-2.6-.1-4.1-.2-4.4-.3-.3,0-.7,0-1,0-.8.1-1.7.2-2.9.2-3.4.1-6.5,1.7-9.2,2.8-.2,0-.3,0-.4-.1h0c0-.1,0-.1,0-.1,0,0,0,0,0,0,0,0,0,0,0,0,0,0,0,0,0,0,0,0,0,0,0,0,6.1-3.2,10.1-5.4,11.9-6.5,4.6-2.9,9.3-6.3,14-10.2,8.3-6.9,13.1-11.2,16.2-13.2,0,0,0,0,.1-.1,0,0,0,0,0,0,0,0,0,0,0-.1,0,0,0,0,0,0,0,0,0,0,0,0,0,0,0,0,0,0,0,0,0,0,0,0,0,0,0,0,0,0,0,0,0,0,0,0,0,0,0,0,0,0,0,0,0,0-.1,0-1,0-2.1.3-3.1.4-2.1.1-3.9.1-5.5,0-2.4-.2-4.2-.3-5.5-.3-5.2,0-12.3-.2-18.9,0-4.2.1-7.8.3-11.4,1.2,0,0,0,0,0,0,0,0,0,0,0,0,0,0,0,0,0,0,0,0,0,0,0,0,0,0,0,0,0,0,0,0,0,0,0,0,0,0,0,0,0,0,2-2.5,4.4-4.7,7.4-6.5,2.2-1.3,4-2.1,5.3-2.4,0,0,0,0,.1,0,1.2-.1,3.8-.3,7.6-.5,2.6-.1,4.9-.2,7,0,1.3,0,2.9,0,4.7,0,.5,0,2,0,4.7,0,3.3,0,5.7,0,7.2,0,2.1-.1,4.3,0,6.4,0,2.9.2,6.4.4,10.6.3.1,0,.2,0,.4.2,0,0,0,0,0,0,0,0,0,0,0,0,0,0,0,0,0,0,0,0,0,0,0,0,0,0,0,0,0,0,0,0,0,0,0,0,0,0,0,0,0,0,0,0,0,0,0,0,0,0,0,0,0,0l-24.7,19.6c0,0-.1,0-.2.1l-2.8,1.1c-.3.1-.6.4-.8.6-.6,1-1.5,1.9-2.5,2.6-2.9,2.1-6,4-9.2,5.9,0,0,0,0,0,0,0,0,0,0,0,0,0,0,0,0,0,.1,0,0,0,0,0,0,0,0,0,0,0,0,0,0,0,0,0,0,0,0,0,0,0,0,0,0,0,0,0,0,0,0,0,0,.1,0,1.3-.4,2.6-.7,4.2-.9,2.4-.2,4.1-.3,5.1-.3,2.2,0,4.7.2,7.4.7,4.5.9,8.4,2.9,11.7,5.9,2,1.8,3.5,4.3,4.5,7.6,0,0,0,0,0,0l.5,3.9s0,0,0,.1c-.2,1.2-.3,2.9-.6,4-1.3,4.8-4.2,8.6-7.7,12-3.8,3.7-7.9,7-12.3,9.8-10,6.4-20.7,10.9-32.1,13.6Z"/>
  <path d="M157.5,369.4s0,0,0,0c0,0,0,0,0,0,0,0,0,0,0,0,0,0,0,0,0,0,0,0,0,0,0,0,0,0,0,0,0,0,0,0,0,0,0,0,0,0,0-.1,0-.2-3.2-10.3-5.6-20.9-7.2-31.6-.1-.8,0-1.3-.1-1.9,0,0,0-.1,0-.2,0,0,0,0,0,0,0,0,0,0,0,0,0,0,0,0,0,0,0,0,0,0,0,0,0,0,0,0,0,0,0,0,0,0,0,0,0,0,0,0-.1,0,0,0,0,0-.1,0,0,0,0,0,0,0,0,0-.1,0-.2,0-2.5,1.8-4,4.3-4.6,7.4-.7,3.3-.7,7.1,0,11.2.7,4.3,2.2,8.2,4.7,11.7,2,2.8,4.5,4.2,7.8,4.2,0,0,0,0,.1,0Z"/>
  <path d="M448.4,334.9c0,0-.1,0-.2,0,0,0,0,0,0,0,0,0,0,0,0,0,0,0,0,0,0,0,0,0,0,0-.1,0,0,0,0,0,0,0,0,0,0,0,0,0,0,0,0,0,0,0,0,0,0,0,0,0,0,0,0,0,0,0,0,0,0,.1,0,.2,0,.6,0,1.2-.1,1.9-1.6,10.8-4,21.3-7.2,31.7,0,0,0,0,0,.1s0,0,0,0c0,0,0,0,0,0,0,0,0,0,0,0,0,0,0,0,0,0,0,0,0,0,0,0,0,0,0,0,0,0,0,0,0,0,0,0,0,0,.1,0,.2,0,3.2,0,5.8-1.4,7.8-4.2,2.4-3.5,4-7.4,4.7-11.7.6-4.2.6-7.9,0-11.3-.6-3.1-2.2-5.6-4.7-7.4Z"/>
</svg>