<?xml version="1.0" encoding="UTF-8"?>
<svg id="Layer_2" xmlns="http://www.w3.org/2000/svg" version="1.1" viewBox="0 0 600 600">
  <!-- Generator: Adobe Illustrator 29.3.1, SVG Export Plug-In . SVG Version: 2.1.0 Build 151)  -->
  <defs>
    <style>
      .st0 {
        fill: none;
      }

      .st1 {
        fill: #f9f7e4;
      }

      .st2 {
        fill: #221f1f;
      }

      .st3 {
        fill: #bb9a6a;
      }
    </style>
  </defs>
  <path class="st0" d="M422.2,429.2s0,0,0,0c0,0,0,0,0,0,0,0,0,0,0,0Z"/>
  <path class="st0" d="M436.1,434.1s0,0,0,0c0,0,0,0,0,0,0,0,0,0,0,0Z"/>
  <path class="st0" d="M411.5,149.3s0,0,0,.1c0,0,0-.1,0-.1,0,0,0,0,0,0Z"/>
  <path class="st0" d="M389.1,436.3s0,0,0,0c0,0,0,0,0,0,0,0,0,0,0,0Z"/>
  <path class="st0" d="M426.8,392.1s0,0,0,0c0,0,0,0,0,0,0,0,0,0,0,0Z"/>
  <path class="st0" d="M420.2,459.6s0,0,0,0c0,0,0,0,0,0,0,0,0,0,0,0Z"/>
  <path class="st0" d="M409.4,421.4s0,0,0,0c0,0,0,0,0,.1,0,0,0,0,0,0Z"/>
  <path class="st0" d="M421.3,415.7s0,0,0,0c0,0,0,0,0,.1,0,0,0,0,0,0Z"/>
  <path class="st0" d="M399,418.9s0,0,0,0c0,0,0,0,0,0,0,0,0,0,0,0Z"/>
  <path class="st0" d="M407.7,431.2s0,0,0,0c0,0,0,0,0,.1,0,0,0,0,0,0Z"/>
  <path class="st0" d="M370.3,429.5s0,0,0,0c0,0,0,0,0,0,0,0,0,0,0,0Z"/>
  <path class="st0" d="M378.9,455.5s0,0,0,0c0,0,0,0,0,0,0,0,0,0,0,0Z"/>
  <path class="st0" d="M348.5,510.1s0,0,0,0c0,0,0,0,0,0,0,0,0,0,0,0Z"/>
  <path class="st0" d="M288.7,488.4s0,0,0-.1c0,0,0,0,0,0,0,0,0,0,0,0Z"/>
  <path class="st0" d="M400.2,464.1s0,0,0,0c0,0,0,0,0-.1,0,0,0,0,0,0Z"/>
  <path class="st0" d="M409.8,473.2c0,0,.1,0,.1-.1,0,0-.1.1-.2.1,0,0,0,0,0,0Z"/>
  <path class="st0" d="M354.4,504.8s0,0,0,0c0,0,0,0,0,0,0,0,0,0,0,0Z"/>
  <path class="st0" d="M392.7,487.7c0,0-.1,0-.2,0,0,0,0,0,0,0,0,0,0,0,0,0Z"/>
  <path class="st0" d="M374.6,504.3s0,0,0,0c0,0,0,0,0,.1,0,0,0,0,0,0Z"/>
  <path class="st0" d="M385.6,418.6s0,0-.1,0c0,0,0,0,.1,0,0,0,0,0,0,0Z"/>
  <path class="st0" d="M254.3,191.7s0,0,0,.1c0,0,0,0,0-.1,0,0,0,0,0,0Z"/>
  <path class="st0" d="M242.4,198.8s0,0,0,0c0,0,0,0,.1,0,0,0,0,0,0,0Z"/>
  <path class="st0" d="M302.3,167.6s0,0,0,0c0,0,0,0,0,0,0,0,0,0,0,0Z"/>
  <path class="st0" d="M209.2,182.5s0,0,0,0c0,0,0,0,0-.1,0,0,0,0,0,0Z"/>
  <path class="st0" d="M133.3,260s0,0,0,0c0,0,0,0,0,0,0,0,0,0,0,0Z"/>
  <path class="st0" d="M293.5,180.3s0,0-.1,0c0,0,0,0,0,0,0,0,0,0,0,0Z"/>
  <path class="st0" d="M399.9,148.2s0,0,0,0c0,0,0,0,0,0,0,0,0,0,0,0Z"/>
  <path class="st0" d="M374.8,139s0,0,0,0c0,0,0,0,0,0,0,0,0,0,0,0Z"/>
  <path class="st0" d="M369.7,150.9s0,0,0,0c0,0,0,0,0,0,0,0,0,0,0,0Z"/>
  <path class="st0" d="M405,397s0,0,0,0c0,0,0,0,.1,0,0,0,0,0,0,0Z"/>
  <path class="st0" d="M333.9,457s0,0,0,0c0,0,0,0,0,0,0,0,0,0,0,0Z"/>
  <path class="st0" d="M197.7,222.7s0,0,0,0c0,0,0,0,0,0,0,0,0,0,0,0Z"/>
  <path class="st0" d="M276.8,463.2s0,0,0,0c0,0,0,0,0,0,0,0,0,0,0,0Z"/>
  <path class="st0" d="M419.5,145.8s0,0-.1.1c0,0,0-.1.1-.2,0,0,0,0,0,0Z"/>
  <path class="st0" d="M324.2,483.6s0,0,0,0c0,0,0,0,0,.1,0,0,0,0,0,0Z"/>
  <path class="st0" d="M183.9,233.5c0,0,0,.1,0,.2,0,0,0-.1,0-.2,0,0,0,0,0,0Z"/>
  <path class="st0" d="M315.3,486.4s0,0,0,0c0,0,0,0,0,0,0,0,0,0,0,0Z"/>
  <path class="st0" d="M132.7,335.7c0,0,0,.1,0,.2,0,0,0-.2,0-.2,0,0,0,0,0,0Z"/>
  <path class="st0" d="M257.2,166.3s0,0,0,0c0,0,0,0,0,0,0,0,0,0,0,0Z"/>
  <path class="st0" d="M300.4,123.3s0,0,0,0c0,0,0,0,0,0,0,0,0,0,0,0Z"/>
  <path class="st0" d="M349.7,129.1s0,0,0,0c0,0,0,0,0,0,0,0,0,0,0,0Z"/>
  <path class="st0" d="M331.3,163.5s0,0,0,0c0,0,0,0,0,.1,0,0,0,0,0,0Z"/>
  <path class="st0" d="M397.2,123.7s0,0,0,0c0,0,0,0,0,0,0,0,0,0,0,0Z"/>
  <path class="st0" d="M245.5,172.2s0,0,.1,0c0,0,0,0-.1,0,0,0,0,0,0,0Z"/>
  <path class="st0" d="M332.5,152.8s0,0,0,.1c0,0,0,0,0-.1,0,0,0,0,0,0Z"/>
  <path class="st0" d="M318.9,133.2s0,0,0,0c0,0,0,0,0,0,0,0,0,0,0,0Z"/>
  <path class="st0" d="M259.8,167.9s0,0,0,0c0,0,0,0,0,0,0,0,0,0,0,0Z"/>
  <path class="st0" d="M285,157.5s0,0,0,0c0,0,0,0,0,0,0,0,0,0,0,0Z"/>
  <path class="st0" d="M146.6,177.2c1.5-3.3,3.1-6.5,4.7-9.7-1.6,3.2-3.2,6.4-4.7,9.7Z"/>
  <path class="st0" d="M273,480.8c0,0,0,.1,0,.2,0,0,0-.1,0-.2,0,0,0,0,0,0Z"/>
  <path class="st0" d="M243.9,163.2s0,0,0,0c0,0,0,0,0-.1,0,0,0,0,0,0Z"/>
  <path class="st0" d="M210.8,106.5c0,0-.2,0-.2,0,0,0,.1,0,.2,0,0,0,0,0,0,0Z"/>
  <path class="st0" d="M202.4,160.8s0,0,0,0c0,0,0,0,0,0,0,0,0,0,0,0Z"/>
  <path class="st0" d="M237.8,134s0,0,0-.1c0,0,0,0,0,.1,0,0,0,0,0,0Z"/>
  <path class="st0" d="M223.5,125.4c0,0,0,.1-.1.2,0,0,0,0,0,0,0,0,0,0,0-.1Z"/>
  <path class="st0" d="M219.2,114.1c0,0,0,.2,0,.2,0,0,0-.1,0-.2,0,0,0,0,0,0Z"/>
  <path class="st0" d="M300.1,538.5h0c-2.7,0-5.4,0-8-.2,2.7.2,5.3.2,8,.2Z"/>
  <path class="st0" d="M171.6,155.2s0,0,0,0c0,0,0,0-.1,0,0,0,0,0,.1,0Z"/>
  <path class="st0" d="M182.8,165.5s0,0,.1,0c0,0-.1,0-.2,0,0,0,0,0,0,0Z"/>
  <path class="st0" d="M186.3,178.3s0,0,0,0c0,0,0,0,0,0,0,0,0,0,0,0Z"/>
  <path class="st0" d="M204.6,169.8s0,0,0,0c0,0,0,0,0,0,0,0,0,0,0,0Z"/>
  <path class="st0" d="M147.6,200.9s0,0,0,0c0,0,0,0,0,0,0,0,0,0,0,0Z"/>
  <path class="st0" d="M289.8,519.4s-.1,0-.2,0c0,0,.1,0,.2,0,0,0,0,0,0,0Z"/>
  <path class="st0" d="M261.5,484.1s0,0,0,.1c0,0,0,0,.1-.1,0,0,0,0,0,0Z"/>
  <path class="st0" d="M280.2,510.8s0,0-.1,0c0,0,0,0,.1,0,0,0,0,0,0,0Z"/>
  <path class="st0" d="M287,527s0,0,0,0c0,0,0,0,0,.1,0,0,0,0,0-.1Z"/>
  <path class="st0" d="M256.6,178.6s0,0,0,0c0,0,0,0,0,0,0,0,0,0,0,0Z"/>
  <path class="st0" d="M247.7,181.7s0,0,0,0c0,0,0,0,0,0,0,0,0,0,0,0Z"/>
  <path class="st0" d="M262.4,140.6s0,0,0,0c0,0,0,0,0,0,0,0,0,0,0,0Z"/>
  <path class="st0" d="M253.1,186.3s0,0,0,0c0,0,0,0,0,0,0,0,0,0,0,0Z"/>
  <path class="st0" d="M279.5,178.8c0,0,.1,0,.2,0,0,0,0,0,0,0,0,0,0,0-.1,0Z"/>
  <path class="st0" d="M233.2,151.3s0,0-.1,0c0,0,.1,0,.1,0,0,0,0,0,0,0Z"/>
  <path class="st0" d="M232.9,157.9s0,0,0,0c0,0,0,0,0,.1,0,0,0,0,0,0Z"/>
  <path class="st0" d="M224.5,149.5s0,0,0,0c0,0,0,0,0-.1,0,0,0,0,0,0Z"/>
  <path class="st0" d="M217.5,160.6s0,0,0,0c0,0,0,0,0,0,0,0,0,0,0,0Z"/>
  <path class="st0" d="M393.6,428s0,0,0,0c0,0,0,0,0,0,0,0,0,0,0,0Z"/>
  <path class="st0" d="M375.5,233.2s0,0,0,0c0,0,0,0,.1,0,0,0,0,0,0,0Z"/>
  <path class="st0" d="M387.7,226.6s0,0,0,0c0,0,0,0,0,0,0,0,0,0,0,0Z"/>
  <path class="st0" d="M378.3,283.9c0,0-.2,0-.3,0,0,0,.1,0,.2,0,0,0,0,0,0,0Z"/>
  <path class="st0" d="M309.9,292s0,0,0,0c0,0,0,0,0,0,0,0,0,0,0,0Z"/>
  <path class="st0" d="M327.9,282.6s0,0,0,0c0,0,0,0,0,0,0,0,0,0,0,0Z"/>
  <path class="st0" d="M258,196.3s0,0,0,0c0,0,0,0,0,0,0,0,0,0,0,0Z"/>
  <path class="st0" d="M439.5,220c0,0-.1,0-.2,0,0,0,.1,0,.2,0,0,0,0,0,0,0Z"/>
  <path class="st0" d="M424.6,265.2s0,0,.1,0c0,0-.1,0-.2,0,0,0,0,0,0,0Z"/>
  <path class="st0" d="M439.4,197.4s0,0-.1,0c0,0,.1,0,.2,0,0,0,0,0,0,0Z"/>
  <path class="st0" d="M316.5,281.3s0,0,0,0c0,0,0,0,0,0,0,0,0,0,0,0Z"/>
  <path class="st0" d="M327.5,343.6s0,0,0,0c0,0,0,0,0,0,0,0,0,0,0,0Z"/>
  <path class="st0" d="M297,275s0,0,0,0c0,0,0,0,0,0,0,0,0,0,0,0Z"/>
  <path class="st0" d="M279.1,308.8s0,0,0,0c0,0,0,0,0,0,0,0,0,0,0,0Z"/>
  <path class="st0" d="M282.7,316.3s0,0,.1,0c0,0,0,0,0,0,0,0,0,0,0,0Z"/>
  <path class="st0" d="M334.7,226.4s0,0,0,0c0,0,0,0,0,0,0,0,0,0,0,0Z"/>
  <path class="st0" d="M316.7,236.2s0,0,0,0c0,0,0,0,0,0,0,0,0,0,0,0Z"/>
  <path class="st0" d="M304.4,295.1s0,0,0,0c0,0,0,0,0,0,0,0,0,0,0,0Z"/>
  <path class="st0" d="M309.4,353.4s0,0,0,0c0,0,0,0,0,0,0,0,0,0,0,0Z"/>
  <path class="st0" d="M320.3,97.6s0,.1,0,.2c0,0,0,0,0,0,0,0,0-.1,0-.1Z"/>
  <path class="st0" d="M228.2,93.1s0,0,0,0c0,0,0,0,0,0,0,0,0,0,0,0Z"/>
  <path class="st0" d="M253.4,101.3s0,0,0,0c0,0,0,0,0,0,0,0,0,0,0,0Z"/>
  <path class="st0" d="M275.8,86.8s0,0,0,0c0,0,0,0,0,.1,0,0,0,0,0,0Z"/>
  <path class="st0" d="M326.6,98.5s0,0,0,0c0,0,0,0,0,0,0,0,0,0,0,0Z"/>
  <path class="st0" d="M287.5,100.1s0,0,0,0c0,0,0,0,0,0,0,0,0,0,0,0Z"/>
  <path class="st0" d="M334.9,92.3s0,0,0-.1c0,0,0,0,0,0,0,0,0,0,0,0Z"/>
  <path class="st0" d="M431.3,253.2c0,0-.1,0-.2,0,0,0,0,0,0,0,0,0,0,0,.1,0Z"/>
  <path class="st0" d="M337.7,100.8s0,0,0,0c0,0,0,0,0,0,0,0,0,0,0,0Z"/>
  <path class="st0" d="M164.7,230.3c0,0,0-.2,0-.2,0,0,0,.2,0,.2Z"/>
  <path class="st0" d="M403.1,262.3s0,0,0,0c0,0,0,0,.1,0,0,0,0,0,0,0Z"/>
  <path class="st0" d="M431.5,226.2c0,0-.1,0-.2,0,0,0,0,0,0,0,0,0,.1,0,.2,0Z"/>
  <path class="st0" d="M409.4,227.6s0,0,0,0c0,0,0,0,0,0,0,0,0,0,0,0Z"/>
  <path class="st0" d="M188.2,220.3s0,0,0,0c0,0,0,0,0,0,0,0,0,0,0,0Z"/>
  <path class="st0" d="M346.1,101.8s0,0,.1,0c0,0-.1,0-.2,0,0,0,0,0,0,0Z"/>
  <path class="st0" d="M165,230.6s0,0,0,0c0,0,0,0,0,0,0,0,0,0,0,0Z"/>
  <path class="st0" d="M441.4,247.4s0,0-.1,0c0,0,.1,0,.2,0,0,0,0,0,0,0Z"/>
  <path class="st0" d="M182.7,348.7s0,0,0-.1c0,0,0,0,0,0,0,0,0,0,0,0Z"/>
  <path class="st0" d="M220.2,376.1s0,0,0,0c0,0,0,0-.1,0,0,0,0,0,0,0Z"/>
  <path class="st0" d="M182.6,247.5c0,0-.1,0-.2.1,0,0,0,0,0,0,0,0,.2,0,.2-.1Z"/>
  <path class="st0" d="M148.6,335.9s0,0,0,0c0,0,0,0,0,0,0,0,0,0,0,0Z"/>
  <path class="st0" d="M250.8,461.3s0,0,0,0c0,0,0,0,0,0,0,0,0,0,0,0Z"/>
  <path class="st0" d="M198.7,388.1s0,0,0,0c0,0,0,0,0,0,0,0,0,0,0,0Z"/>
  <path class="st0" d="M205.6,350.3s0,0,.1,0c0,0-.1,0-.2,0,0,0,0,0,0,0Z"/>
  <path class="st0" d="M176.5,198.5s0,0,0,0c0,0,0,0,0,0,0,0,0,0,0,0Z"/>
  <path class="st0" d="M198.1,246.4s0,0,0-.1c0,0,0,0,0,0,0,0,0,0,0,0Z"/>
  <path class="st0" d="M235.9,308.2s0,0,0,0c0,0,0,0,0,0,0,0,0,0,0,0Z"/>
  <path class="st0" d="M250.4,460.9c0,0,0-.2,0-.3,0,.1,0,.2,0,.3Z"/>
  <path class="st0" d="M230.1,371s0,0,0,0c0,0,0,0,0,0,0,0,0,0,0,0Z"/>
  <path class="st0" d="M172.4,391.1s0,0,.1,0c0,0,0,0-.1,0,0,0,0,0,0,0Z"/>
  <path class="st0" d="M390.3,401.4s0,0,0,0c0,0,0,0,0,0,0,0,0,0,0,0Z"/>
  <path class="st0" d="M321.6,449.3s0,0,0-.1c0,0,0,0,0,0,0,0,0,0,0,0Z"/>
  <path class="st0" d="M271.2,349.4s0,0,0,0c0,0,0,0,0,0,0,0,0,0,0,0Z"/>
  <path class="st0" d="M165.4,306.9s0,0,0,0c0,0,0,0,0-.1,0,0,0,0,0,0Z"/>
  <path class="st0" d="M279.1,282.7s0,0,0,0c0,0,0,0,0,0,0,0,0,0,0,0Z"/>
  <path class="st0" d="M263.1,306.5c0,0,0-.1,0-.2,0,0,0,.1-.1.2,0,0,0,0,0,0Z"/>
  <path class="st0" d="M172.1,353.2s0,0,0,0c0,0,0,0,0-.1,0,0,0,0,0,0Z"/>
  <path class="st0" d="M264,341.9s0,0,0,0c0,0,0,0,0,0,0,0,0,0,0,0Z"/>
  <path class="st1" d="M399.9,148.2s0,0,0,0c0,0,0,0,0,0,0,0,0,0,0,0,0,0,0,0,0,0,0,0,0,0,0,0,0,0,0,0,0,0s0,0,0,0c0,0,0,0,.1,0,0,0,0,0,0,0,0,0,0,0,0,0,2.5,1.3,4.5.8,6-1.7,3.7-6-2.1-12.3-7.9-13.9-9.3-2.6-17.2-.5-23.9,6.2,0,0,0,.1,0,.2,0,0,0,0,0,0,0,0,0,0,0,0,0,0,.1,0,.2,0,7.3-.8,9.8,7.9,4.3,12-3,2.2-6,2.1-9.1-.2,0,0-.1,0-.2,0,0,0,0,0,0,0,0,0,0,0,0,0,0,0,0,0,0,0,0,0,0,0,0,0,0,0,0,0,0,0,0,0,0,0,0,0,0,0,0,.1,0,.2-.3,3.4-2.3,5.1-6,4.9-.2,0-.4-.1-.8-.3-.3-.1-.5-.3-.9-.5-.2-.1-.6,0-1.2.7-15.4,15.1-37.6,16.9-57.9,11.4,0,0-.2,0-.2,0,0,0,0,0,0,0,0,0,0,0,0,0,0,0,0,0,0,0,0,0,0,0,0,0,0,0,0,0,0,0,0,0,0,0,0,0,0,0,0,.1,0,.2,1.9,4.2,1.1,7.8-2.6,10.9-1.7,1.4-3.8,2-6.2,1.6,0,0,0,0,0,0,0,0,0,0,0,0,0,0,0,0,0,0,0,0,0,0,0,0,0,0,0,0,0,0,0,0,0,0,0,0,0,0,0,0,0,0,0,0,0,0,0-.1,0,0,0,0,0,0,0,0,0,0,0,0,3.2-11.8-14.8-17.5-19.6-7.7-2.4,4.8.9,9.6,6.1,6.9,0,0,0,0,.1,0,0,0,0,0,0,0,0,0,0,0,.1,0,0,0,0,0,0,0,0,0,0,0,0,0,0,0,0,0,0,0,0,0,0,0,0,0,0,0,0,0,0,0,0,0,0,0,0,0,0,0,0,0,0,.1,1.8,7.9-1.1,12.4-8.7,13.3-2.5.3-5.4-.5-8.7-2.4-.3-.2-.6-.1-.8.1-1.9,2.1-4.3,2.6-7,1.3,0,0-.1,0-.2,0,0,0,0,0-.1,0,0,0,0,0-.1,0,0,0,0,0,0,0,0,0,0,0,0,0,0,0,0,0,0,0,0,0,0,0,0,0,0,0,0,0,0,.1-1,3.7-.4,6.6,1.7,8.7,1.1,1.2,2.3,1.5,3.6,1.1,3-.9,2.2-5.5-1.4-5.3,0,0-.1,0-.2,0,0,0,0,0,0,0,0,0,0,0,0,0,0,0,0-.1-.1-.2,0,0,0,0,0,0,0,0,0,0,0,0,0,0,0-.1,0-.2,4.7-6.6,13.2-3.2,15.4,3.5,1.2,3.6.5,7-2.1,10.3-4.2,5.4-12.2,6.5-18.4,3.8-5.8-2.7-9.2-7.5-10-14.4,0,0,0-.1,0-.2,0,0,0,0,0,0,0,0,0,0-.1,0,0,0,0,0-.1,0,0,0,0,0,0,0,0,0-.1,0-.1.1-3.5,6.3-11.6,6.8-16.7,1.9-.3-.3-.3-.7,0-1,5-5.5,3.7-13.9-2.4-17.9-4.4-2.9-9-2.9-13.7,0,0,0,0,0,0,0,0,0,0,0,0,0,0,0,0,0,0,0,0,0,0,0,0,0,0,0,0,0,0,.1,0,0,0,0,0,.1,0,0,0,0,0,.1,0,0,0,0,0,.1,1.1,1.7,2.2,3.9,1,5.9-2.7,4.8-8.2,4-11.1-.2-.2-.3-.3-.6-.3-.8,0-.3,0-.5-.2-.7-.2-.3-.5-.5-.9-.5-16.7.1-29.1,8.3-39.1,21.1-11.5,14.8-22.1,33.6-25.6,52.3,0,0,0,0,0,.1,0,0,0,0,0,0,0,0,0,0,0,0,0,0,0,0,0,0,0,0,0,0,0,0,0,0,0,0,0,0,5.2-11.7,11.9-22.5,20.1-32.7,6.2-7.7,15.3-12.8,21.2-20.8,1.7-2.3,2.3-4.9,1.7-7.7,0,0,0-.1,0-.2,0,0,0,0,0,0,0,0,0,0,0,0,0,0,0,0,0,0,0,0,0,0,0,0,0,0,0,0,0,0,0,0,0,0,0,0,0,0,0,0,0,0,0,0,0,0,0,0,0,0,.1,0,.2,0,3.9,1.6,6.3,4.1,7.2,7.6,0,.2,0,.4,0,.6,0,.4,0,.7,0,.7.1.2.4.3.6.2,4.1-1.8,7-4.6,8.7-8.4.1-.3.4-.4.7-.4,7.6,2.1,8.2,11.3,3.9,16.7-.2.3-.2.7,0,1,1.5,2,1.3,4-.5,5.9,0,0,0,0,0,.1,0,0,0,0,0,0,0,0,0,0,0,0,0,0,0,0,0,0,0,0,0,0,0,0,0,0,0,0,0,0,0,0,0,0,0,0,0,0,0,0,0,0,0,0,0,0,0,0,0,0,0,0,.1,0,5.7-.3,10.5,1.6,14.4,5.5,5.7,5.7,6.3,15.4,1.6,21.9-2,2.8-5,4.3-8.7,4.3-4.4,0-9.2-3.3-7.1-8.2,0,0,0,0,0,0,0,0,0,0,0,0,0,0,0,0,0,0,0,0,0,0,0,0,0,0,0,0,0,0,0,0,0,0,0,0,0,0,0,0,0,0,0,0,0,0,.1,0,0,0,0,0,0,0,0,0,0,0,0,0,2.4,1.7,5.3.5,5.8-2.4.4-2.3.2-4.1-.5-5.3-3.8-6.7-13.2-7.8-19.9-5.6,0,0-.1,0-.2,0,0,0,0,0,0,0,0,0,0,0,0,0,0,0,0,0,0,0,0,0,0,0,0,0,0,0,0,0,0,0,0,0,0,0,0,.1,0,0,0,.1,0,.2,4.2,5.2,3.8,9.8-1.4,13.9,0,0-.1,0-.2.1,0,0,0,0,0,0,0,0-.2,0-.2,0,0,0,0,0-.1,0,0,0,0,0-.1,0,0,0-.1,0-.2-.2,0,0,0,0,0,0,0,0,0-.1-.1-.2-1.3-4.9-6.8-8.2-11.5-5.5-1.2.7-2.1,2.5-3.6,3-1.6.5-4.1-.6-6.2-1.4-6.2-2.4-12.1,2.7-15.1,7.4-9.3,15.1-12.7,34.7-12,52,.4,8.7,3.5,31.5,15,33.1.1,0,.2,0,.3.2,0,0,0,0,0,0,0,0,0,0,0,0,0,0,0,0,0,0,0,0,0,0,0,.1,0,0,0,0,0,0,0,0,0,0,0,0,0,0,0,.1,0,.2,0,0,0,0-.1.1-5.2,3.9-10.4,2.7-15.3-.9,0,0-.1,0-.2,0,0,0,0,0,0,0,0,0,0,0,0,0,0,0,0,.1,0,.2,1.1,8.7,2.5,17.1,4.1,25.3,5.5,28.5,17.7,54.1,36.5,76.6,14.5,17.4,31.6,32.8,53.3,40,10.3,3.4,23.2,4.6,31.5-2.9,6.9-6.2,1.7-16.5-7-13.6,0,0-.2,0-.3,0,0,0,0,0,0,0,0,0,0,0,0,0,0,0,0,0,0,0,0,0,0,0,0,0,0,0,0,0,0,0,0,0,0,0,0,0,0,0,0,0,0,0,0,0,0,0,0,0,0,0,0-.2,0-.3,1.4-4.8,4.4-7,9-6.5.6,0,1.5.7,2,.8.3,0,.6-.1.7-.4,2.5-5.2,6-9,10.3-11.6,16.1-9.6,35.2-2.5,42.7,14.3,4.5,10.1,4.5,19.7,0,28.8,0,0,0,.1,0,.2,0,0,0,0,0,0,0,0,0,0,0,0,0,0,0,0,0,0,0,0,0,0,0,0,0,0,.1,0,.2,0,2.5-1.7,5.4-2.6,8.4-2.6,0,0,.1,0,.2,0,0,0,0,0,0,0,0,0,0,0,0-.1,0,0,0,0,0-.1,0,0,0,0,0,0,0,0,0-.1-.1-.1-2.9-1.6-4-3.9-3.3-7,.6-2.8,2.7-4.3,6.2-4.5.3,0,.5-.2.6-.5,1-5.3,3.2-9.8,6.4-13.7,0,0,0-.1,0-.2,0,0,0,0,0,0,0,0,0,0,0,0,0,0,0,0,0,0,0,0,0,0,0,0,0,0,0,0,0,0,0,0,0,0,0,0,0,0-.1,0-.2,0-.4,0-1.6.4-2.6.5-4.5.3-7.6-1.5-9.3-5.4-.3-.8-.4-1.7-.1-2.8,0,0,0,0,0,0,0,0,0,0,0,0,0,0,0,0,0,0,0,0,0,0,0,0,0,0,0,0,0,0,0,0,0,0,0,0,0,0,0,0,0,0,0,0,0,0,0,0,0,0,0,0,0,0,0,0,0,0,0,0,7,2.8,11.6-1.8,13-8.3,0-.3,0-.6-.4-.8-3.1-1.7-3.7-5.6-1-8,2.3-2.1,5-1.5,7.9-.4.3.1.6,0,.9-.2,10.7-11.4,23.9-14.6,39.6-9.6.2,0,.4,0,.5-.1l2.9-2.6s0,0,0-.1c0,0,0,0,0,0,0,0,0,0,0,0,0,0,0,0-.1,0-5.7-1.9-9.5-5.2-11.5-9.9-5.2-12.9,12.7-19.9,16.3-7.6,0,0,0,.2,0,.3,0,0,0,0,0,0,0,0,0,0,0,0,0,0,0,0,0,.1,0,0,0,0,0,0,0,0,0,0,0,0,0,0,0,0-.1,0,0,0,0,0,0,0,0,0,0,0,0,0,0,0-.2,0-.3,0-3.9-1-8.4,1.9-5.7,6,1.9,2.9,4.9,4.2,8.8,3.9,7.1-.5,11.7-7.6,12.7-14.3,0,0,0,0,0-.1,0,0,0,0,0,0,0,0,0,0,0,0,0,0,0,0,0,0,0,0,0,0,0,0,0,0,0,0,0,0,0,0,0,0,0,0,0,0,0,0-.1,0-9.4-.5-23.1-7.3-21.9-18.8,1.2-11.5,15.6-13.7,23-6.9,1,.9,1.7,1.9,2.1,2.9.1.3,0,.7-.3.8-1.9.9-3.1,1.6-3.6,2.1-3.3,4,0,8,4.3,8.7,14.8,2.4,28.2-13.1,35-24.2,12.5-20.6,18.4-44.4,20.1-68.5,3-42.9-5.6-83-25.9-120.5-5.3-9.7-11-17.9-17.6-26.7,0,0-.1,0-.2-.1,0,0,0,0-.1,0,0,0,0,0-.1,0,0,0-.1,0-.1.2-1.3,3.6-3.8,4.6-7.5,3.2,0,0-.1,0-.2,0,0,0,0,0,0,0,0,0,0,0,0,0,0,0,0,0,0,.1.3,11-15.6,7.7-11.6-1.1ZM191.5,366.3c-.2,9.5-1.4,19.5-7.8,27.1-1.2,1.5-3.8,3.4-7.6,5.9-5.4,3.5-8.6,5.6-9.6,6.2-.1.1-.4.1-.6,0-.2,0-.4-.3-.4-.5v-98s0,0,0,0c0,0,0,0,0,0,0,0,0,0,0,0,0,0,0,0,0,0,0,0,0,0,0,0,0,0,0,0,0,0,2.7,1.2,7.3,3,13.7,5.6,7.3,3,11.2,8.6,11.5,16.9.2,5.6-.9,10.6-3.3,14.8-1.3,2.3-2.3,3-4.6,3.8,0,0-.1,0-.2.1,0,0,0,0,0,0,0,0,0,0,0,0,0,0,0,0,0,.1,0,0,0,0,0,0,0,0,0,0,0,0,0,0,0,0,0,.1,0,0,0,0,0,.1,0,0,0,0,0,0,0,0,0,0,.1.1,7,3.8,8.7,9.3,8.6,17.4ZM226.5,372.5l-6.1,3.5s0,0,0,0c0,0,0,0,0,0,0,0,0,0,0,0,0,0,0,0,0,0,0,0,0,0,0,0,0,0,0,0,0,0,0,0,0,0,0,0,0,0,0,0,0,0,0,0,0,0,0,0,0,0,0,0,0,0-2.9-7.8-4.7-12.9-5.5-15.3-.6-1.7-1.4-3.3-2.4-4.6-.2-.3-.7-.4-1-.2l-5,2.9c-.3.2-.5.5-.5.8v24.8c0,.1,0,.3-.2.3l-6.2,3.6s0,0,0,0c0,0,0,0,0,0,0,0,0,0,0,0,0,0,0,0,0,0v-59.4c0-.3.2-.6.5-.8,4.4-2.5,8.7-4.9,12.9-7.3,5.5-3.1,10.8-2.2,12,4.8,1.5,9-.5,16.7-5.8,23.2-.2.2-.2.5-.1.7l8.7,22.4c.1.3,0,.6-.3.8ZM236.3,367.3c0,.1,0,.3-.2.3l-5.8,3.4c0,0-.1,0-.2,0,0,0,0,0,0,0,0,0,0,0,0,0,0,0,0,0,0,0,0,0,0,0,0,0,0,0,0,0,0,0,0,0,0,0,0,0,0,0,0,0,0,0,0,0,0,0,0,0,0,0,0-.1,0-.2v-58.7c0-.1,0-.3.2-.3l5.8-3.4c0,0,.1,0,.2,0,0,0,0,0,0,0,0,0,0,0,0,0,0,0,0,0,0,0,0,0,0,0,0,0,0,0,0,0,0,0,0,0,0,0,0,0,0,0,0,0,0,0,0,0,0,0,0,0,0,0,0,.1,0,.2v58.7ZM266.9,347.4c-2.6,4.3-6.3,10.7-11.2,12.3-8.6,2.7-12.6-5.7-14.2-12.6-3.3-14.5-1.6-38.6,11.6-48.7,3.8-2.9,7.9-2,11.5.6.4.3.6.9.5,1.4l-1.8,6c0,0,0,.1,0,.2,0,0,0,0,0,0,0,0,0,0-.1,0,0,0,0,0,0,0,0,0,0,0-.1,0,0,0,0,0-.1,0,0,0,0,0-.1,0,0,0,0,0-.1,0,0,0,0,0,0,0,0,0-.1,0-.2,0-1.4-1-2.9-1.7-4.5-2.1-.4,0-.8,0-1.2.2-11.2,6.2-10.8,27.5-8.6,37.9,1,4.8,4.7,12.5,10.7,7,1.5-1.4,3.2-3.9,5.1-7.4,0-.1.1-.2.3-.3,0,0,0,0,0,0,0,0,0,0,0,0,0,0,0,0,.1,0,0,0,0,0,.1,0,0,0,0,0,.1,0,0,0,0,0,.1,0,0,0,0,0,0,0,0,0,0,0,0,0,.1,0,.2.1.3.3l1.9,3.4c.3.6.3,1.3,0,1.9ZM301.4,332.8l-5.7,3.3c-.4.2-.9,0-1.1-.3l-11.2-19.3s0,0,0-.1c0,0,0,0,0,0,0,0,0,0,0,0,0,0,0,0,0,0,0,0,0,0,0,0,0,0,0,0,0,0,0,0,0,0,0,0,0,0,0,0-.1,0l-3.3,2.5c-.4.3-.6.7-.6,1.1l-1.1,25.3c0,.2-.1.4-.3.5l-6.2,3.6s0,0,0,0c0,0,0,0,0,0,0,0,0,0,0,0,0,0,0,0,0,0l1.4-62.6c0-.1,0-.3.2-.4l6.4-3.7s0,0,0,0c0,0,0,0,0,0,0,0,0,0,0,0,0,0,0,0,0,0l-.5,25.6c0,0,0,.1,0,.2,0,0,0,0,0,0,0,0,0,0,0,0,0,0,0,0,0,0,0,0,0,0,0,0,0,0,0,0,0,0,0,0,0,0,0,0,0,0,.1,0,.2,0,.6-.3,1-.9,1.2-1.8,1.8-5.9,4.6-14.8,8.4-26.8.2-.5.5-.9,1-1.2l6.9-4c0,0,.1,0,.2,0,0,0,0,0,0,0,0,0,0,0,0,0,0,0,0,0,0,0,0,0,0,0,0,0,0,0,0,.1,0,.2l-9.8,31.8c0,.3,0,.7.1.9l14,24.3c0,.2,0,.4-.1.5ZM332.8,340.3c0,.1,0,.2-.2.3l-5,2.9c0,0-.1,0-.2,0,0,0,0,0,0,0,0,0,0,0,0,0,0,0,0,0,0,0,0,0,0,0,0,0,0,0,0,0,0,0,0,0,0,0,0,0,0,0,0,0,0,0,0,0,0,0,0,0,0,0,0-.1,0-.2l1.2-60.2c0,0,0-.1,0-.2,0,0,0,0,0,0,0,0,0,0,0,0,0,0,0,0,0,0,0,0,0,0,0,0,0,0,0,0,0,0,0,0,0,0,0,0,0,0-.1,0-.2,0l-11.6,6.7c-.1,0-.2.2-.2.3l-1.2,60.5c0,.1,0,.2-.2.3l-5,2.9c0,0-.1,0-.2,0,0,0,0,0,0,0,0,0,0,0,0,0,0,0,0,0,0,0,0,0,0,0,0,0,0,0,0,0,0,0,0,0,0,0,0,0,0,0,0,0,0,0,0,0,0,0,0,0,0,0,0-.1,0-.2l1.2-60.6c0,0,0-.1,0-.2,0,0,0,0,0,0,0,0,0,0,0,0,0,0,0,0,0,0,0,0,0,0,0,0,0,0,0,0,0,0,0,0,0,0,0,0,0,0-.1,0-.2,0l-5.2,3c0,0-.1,0-.2,0,0,0,0,0,0,0,0,0,0,0,0,0,0,0,0,0,0,0,0,0,0,0,0,0,0,0,0,0,0,0,0,0,0,0,0,0,0,0,0,0,0,0,0,0,0,0,0,0,0,0,0-.1,0-.2l.3-6.9c0-.1,0-.2.2-.3l5.8-3.3c.1,0,.2-.2.2-.3l.9-44.5c0-.1,0-.2.2-.3l5-2.9c0,0,.1,0,.2,0,0,0,0,0,0,0,0,0,0,0,0,0,0,0,0,0,0,0,0,0,0,0,0,0,0,0,0,0,0,0,0,0,0,0,0,0,0,0,0,0,0,0,0,0,0,0,0,0,0,0,0,.1,0,.2l-.9,44.4c0,0,0,.1,0,.2,0,0,0,0,0,0,0,0,0,0,0,0,0,0,0,0,0,0,0,0,0,0,0,0,0,0,0,0,0,0,0,0,0,0,0,0,0,0,.1,0,.2,0l11.7-6.7c.1,0,.2-.2.2-.3l.9-44.6c0-.1,0-.2.2-.3l5-2.9c0,0,.1,0,.2,0,0,0,0,0,0,0,0,0,0,0,0,0,0,0,0,0,0,0,0,0,0,0,0,0,0,0,0,0,0,0,0,0,0,0,0,0,0,0,0,0,0,0,0,0,0,0,0,0,0,0,0,.1,0,.2l-2.2,113.6ZM361.3,277.2c-.3,5.4-.8,10.6-1.5,15.4-1,6.7-4,13.5-10.4,16.1-4.5,1.8-7-1.4-7.6-5.4-1.3-8.6-1.1-18.5-.7-27.3.3-5.4.8-10.6,1.5-15.4,1-6.7,4-13.5,10.4-16.1,4.5-1.8,7,1.4,7.6,5.4,1.3,8.6,1.1,18.5.7,27.3ZM388,272.9c0,5.7-1.5,10.9-4.4,15.4-1.9,3-7.5,6.9-10.9,4-3.7-3.1-3.3-11.2-3.3-15.6,0-1.2,0-14.5,0-39.8,0-.2,0-.3.2-.4l5.8-3.4s0,0,0,0c0,0,0,0,0,0,0,0,0,0,0,0,0,0,0,0,0,0,0,0,0,0,0,0,0,0,0,0,0,0,0,20.4.1,36.1.2,47,0,1.1.3,2.1.8,3.1,0,0,.1.1.2.2,0,0,.1.1.2.2,0,0,.1,0,.2.1,0,0,.1,0,.2.1,0,0,.2,0,.2,0,0,0,.2,0,.2,0s.2,0,.2,0c0,0,.2,0,.3,0,2.9-1.7,3.3-5.1,3.3-8.4,0-15.1,0-30.2-.2-45.1,0-.1,0-.2.2-.3l6-3.5s0,0,0,0c0,0,0,0,0,0,0,0,0,0,0,0s0,0,0,0c0,0,0,0,0,0,0,0,0,0,0,0,0,17.2,0,32.6,0,46.2ZM424.3,206.2c0-.1,0-.2.2-.3l14.8-8.5s0,0,.1,0c0,0,0,0,0,0,0,0,0,0,.1,0s0,0,0,0c0,0,0,0,0,0,0,0,0,0,0,.1v7.7c0,.1,0,.2-.1.3l-8.4,4.8c0,0-.1.2-.1.3v15.3c0,0,0,.1,0,.2,0,0,0,0,0,0,0,0,0,0,.1,0,0,0,.1,0,.2,0l7.9-6.1c0,0,.1,0,.2,0,0,0,0,0,0,0,0,0,0,0,.1,0,0,0,0,0,0,0,0,0,0,0,0,0,0,0,0,.1,0,.2v7.5c0,0,0,.2-.1.2l-8.7,6.8c0,0-.1.1-.1.2v17.9c0,0,0,.1,0,.2,0,0,0,0,0,0,0,0,0,0,.1,0,0,0,.1,0,.2,0l10-5.7s0,0,.1,0c0,0,0,0,0,0,0,0,0,0,.1,0s0,0,0,0c0,0,0,0,0,0,0,0,0,0,0,.1v7.5c0,.1,0,.2-.2.3l-16.8,9.7s0,0-.1,0c0,0,0,0,0,0,0,0,0,0-.1,0,0,0,0,0,0,0,0,0,0,0,0,0,0,0,0,0,0-.1v-58.8ZM416.1,224.1c0,.3-.1.6-.4.7l-6.2,2.8c0,0-.1,0-.2,0,0,0,0,0,0,0,0,0,0,0,0,0,0,0,0,0,0,0,0,0,0,0,0,0,0,0,0,0,0,0,0,0,0,0,0,0,0,0,0,0,0,0,0,0,0,0,0,0,0,0,0-.1,0-.2.2-2.1-.9-5-3.8-3.4-1.5.8-2.4,1.9-2.7,3.2-1.7,7.2,3.4,10.8,8.6,15.5,8.1,7.3,8,20.5,2,28.6-3.3,4.5-11.4,9.4-15.3,2.1-.9-1.8-1.5-4.1-1.8-6.9,0-.8.4-1.5,1.1-1.8l5.6-2.4c0,0,.1,0,.2,0,0,0,0,0,0,0,0,0,0,0,0,0,0,0,0,0,0,0,0,0,0,0,.1,0,0,0,0,0,0,0,0,0,0,0,0,0,0,0,0,0,0,0,0,0,0,0,0,0,0,0,0,0,0,0,0,0,0,0,0,0,0,0,0,.1,0,.2-.2.9,0,2.2,1,3.8.4.7,1.3,1,2.1.7,3.4-1.5,3.7-5.4,3.3-8.9-.4-3.6-1.9-6.5-4.5-8.7-6.7-5.6-10.7-11.1-10.1-19.9.5-7.3,3.9-12.2,10.1-14.9,7.1-3.1,10.1,3.3,10.7,9.1Z"/>
  <path class="st1" d="M164.8,230.4s0,0,0,0c0,0,0,0,0,0,0,0,0,0,0,0,0,0,0,0,0,0,0,0,.2,0,.2,0l22.8-9.8c0,0,.1-.1.2-.2,0,0,0,0,0,0,0,0,0,0,0,0,0,0,0,0,0,0,0,0,0,0,0,0,0,0-.1-.1-.2-.2-5.5-1.7-10.8-1.3-15.8,1.3-3.6,1.8-6.1,4.7-7.5,8.7,0,0,0,.2,0,.2,0,0,0,0,0,0,0,0,0,0,0,0Z"/>
  <path class="st1" d="M352.8,253.6c-2.8.5-3.8,5.6-4.1,8.1-.7,5.9-1.2,10.9-1.3,14.9-.2,7-.6,15,1,22.2.1.6.7,1,1.3.9,2.8-.5,3.8-5.6,4.1-8.1.7-5.9,1.2-10.9,1.3-14.9.2-7,.6-15-1-22.2-.1-.6-.7-1-1.3-.9Z"/>
  <path class="st1" d="M172.4,343.3c.8,0,1.5,0,2.3-.2,1.8-.4,3.5-1.3,4.9-2.5.3-.2.5-.5.8-.8.5-.5,1-1.1,1.4-1.8,1.2-1.9,1.9-4.2,1.9-6.7h0c0-2.6-.7-4.9-1.9-6.9-.4-.6-.9-1.2-1.4-1.8-.3-.3-.5-.5-.8-.8-.8-.7-1.8-1.3-2.8-1.8-.7-.3-1.4-.5-2.1-.7-.7-.2-1.5-.2-2.3-.2h0s0,0,0,0v24.2s0,0,0,0h0Z"/>
  <path class="st1" d="M213.2,328.4c-.8.4-3.3,1.7-7.4,4.1-.3.2-.5.5-.5.8v16.7c0,0,0,.1,0,.2,0,0,0,0,0,0,0,0,0,0,.1,0,0,0,.1,0,.2,0,1.5-.8,3.2-1.7,5-2.8,5.5-3.4,7.6-10.2,6.6-16.4-.4-2.3-1.9-3.6-4.2-2.7Z"/>
  <path class="st1" d="M172.7,352.8s0,0-.1,0c0,0,0,0-.1,0,0,0,0,0,0,0,0,0,0,0,0,0,0,0,0,0,0,0,0,0,0,0,0,0,0,0,0,0,0,0,0,0,0,0,0,.1v37.6c0,0,0,0,0,.1,0,0,0,0,0,0,0,0,0,0,0,0,0,0,0,0,.1,0,1.2-.7,2.8-1.8,4.8-3.1,4.6-3.2,6.8-8.4,7.2-13.8.4-5.4.3-9.1-.2-11.3-1.6-5.9-5.5-9.2-11.6-10.1Z"/>
  <path class="st2" d="M464.1,177.4c-7.6-17.3-16.7-33.3-27.2-47.7-2.1-2.9-4.2-5.7-6.4-8.4-1.1-1.4-2.2-2.7-3.3-4.1-15.7-18.7-33.7-34-53.5-44.9-1.4-.8-2.8-1.5-4.3-2.3-2.9-1.5-5.8-2.9-8.7-4.2-4.4-1.9-8.9-3.7-13.4-5.2-4.5-1.5-9.1-2.8-13.8-3.9-1.6-.4-3.1-.7-4.7-1-3.1-.6-6.3-1.2-9.5-1.6-6.4-.8-12.8-1.3-19.3-1.3-104.4,0-189,111-189,248s84.6,248,189,248,189-111,189-248-6-70.9-16.7-102c-2.5-7.3-5.3-14.5-8.3-21.4ZM300.1,538.5h0c-2.7,0-5.4,0-8-.2-2.7-.2-5.3-.4-8-.7-3.5-.4-7-1-10.4-1.6-5.2-1-10.3-2.3-15.3-3.9-11-3.5-21.5-8.3-31.6-14.2-4.5-2.7-8.9-5.6-13.1-8.7-1.1-.8-2.1-1.6-3.2-2.4-3.2-2.4-6.3-5-9.3-7.6-2-1.8-4-3.6-6-5.5-2-1.9-3.9-3.8-5.8-5.8-.8-.9-1.7-1.8-2.5-2.7-1.7-1.8-3.3-3.6-4.9-5.5-.8-.9-1.6-1.9-2.4-2.9-1.1-1.3-2.1-2.6-3.2-3.9-2.1-2.6-4.1-5.3-6.1-8.1-1-1.4-2-2.8-2.9-4.2-2.9-4.2-5.7-8.6-8.3-13.1-8-13.5-14.9-28.1-20.6-43.7-1.3-3.5-2.5-7-3.6-10.5-5.1-16-8.9-32.9-11.3-50.5-.5-3.9-1-7.8-1.4-11.8-1-9.9-1.4-20-1.4-30.3s.5-20.4,1.4-30.3c.4-3.7.8-7.5,1.3-11.2.3-2.2.6-4.3.9-6.5,2.1-13.6,5.1-26.7,8.8-39.3.7-2.2,1.4-4.5,2.1-6.7,1-3.1,2.1-6.2,3.2-9.2,1.9-5.2,3.9-10.3,6.1-15.3.7-1.7,1.5-3.3,2.2-4.9,1.5-3.3,3.1-6.5,4.7-9.7,1.6-3.2,3.3-6.3,5-9.3,1.2-2.1,2.4-4.2,3.6-6.2,2.4-3.9,4.8-7.7,7.3-11.4,1.4-2,2.8-4,4.2-5.9,1.6-2.1,3.2-4.3,4.8-6.3,1-1.3,2.1-2.6,3.2-3.9,2.7-3.2,5.4-6.3,8.2-9.3,1.6-1.8,3.3-3.5,5-5.2,0,0,0,0,0,0,1.2-1.2,2.5-2.4,3.8-3.6,3.2-3,6.5-5.9,9.9-8.7.5-.4,1-.8,1.4-1.2,4.3-3.4,8.6-6.6,13.1-9.5.9-.6,1.9-1.2,2.8-1.8,23.2-14.4,49-22.5,76.3-22.5h0c99.1,0,179.5,106.5,179.5,237.9s-80.3,237.9-179.5,237.9Z"/>
  <path class="st2" d="M339.6,84.8c-6.3-1-16.5-.9-20,5-1.8,3-1.6,5.6.7,7.8,0,0,0,0,0,.1,0,0,0,0,0,0,0,0,0,0,0,0,0,0,0,0,0,0,0,0,0,0,0,0,0,0,0,0-.1,0-6.6.7-15.4-4.7-13.1-12.4,2.8-9.2,17.9-10.3,25.8-9.8.1,0,.2,0,.3-.2,0,0,0-.2-.1-.2-37.6-8.7-72.5-2.9-104.8,17.4,0,0,0,0,0,0,0,0,0,0,0,0,0,0,0,0,0,0,0,0,0,0,0,0,0,0,0,0,0,0,0,0,0,0,.1,0,10.2-1,17.8,0,24.6,8.1,0,0,.1.1.2.1,0,0,0,0,0,0,0,0,.1,0,.2,0,0,0,0,0,0,0,0,0,0-.1.1-.2,2.2-9.6,12.6-14.3,21.7-13.9,0,0,0,0,.1,0,0,0,0,0,0,0,0,0,0,0,0,0,0,0,0,0,0,0,0,0,0,0,0,0,0,0,0,0,0,0,0,0,0,0,0,0,0,0,0,0,0-.1-.3-4.4,1.6-7.8,5.6-10.1,9.7-5.5,21.6,5.6,15.1,15.4-2,3.1-5,4.9-8.8,5.2-.4,0-.6.3-.6.7v1.7c0,0,0,.1,0,.2,0,0,0,0,0,0,0,0,0,0,0,0,0,0,0,0,0,0,0,0,0,0,0,0,0,0,0,0,0,0,0,0,0,0,0,0,0,0,.1,0,.2,0,6.6-3.3,15.6-3.5,22.2,0,7,3.7,11.2,9.8,12.6,18.2,0,.1,0,.2.2.2.1,0,.2,0,.2-.2.9-4.1,2.9-7.6,5.9-10.7,2.7-2.8,1.2-7.3-2-8.9,0,0-.1,0-.2-.1,0,0,0,0,0,0,0,0,0,0,0,0,0,0,0,0,0,0,0,0,0-.1,0-.2s0,0,0,0c0,0,0,0,0,0,0,0,0-.1,0-.2,0,0,0,0,0,0,0,0,0,0,0,0,0,0,0,0,0,0,0,0,.1,0,.2-.1,4.9-1.9,8.4-.9,10.4,3,0,0,0,0,0,.1,0,0,0,0,0,0,0,0,0,0,0,0,0,0,0,0,0,0,0,0,0,0,0,0,0,0,0,0,0,0,0,0,0,0,0,0,0,0,0,0,0,0,0,0,0,0,0,0,0,0,0,0,0-.1.5-3.1-.4-5.8-2.8-8,0,0-.1-.1-.1-.2,0,0,0,0,0,0,0,0,0,0,0,0,0,0,0,0,0,0,0,0,0,0,0-.1,0,0,0,0,0-.1,0,0,0,0,0-.1,0,0,0,0,0-.1,0,0,0,0,0,0,0,0,0,0,0,0,0,0,0,0,0,0,0,0,.1,0,.2,0,6-1.2,9.6,1,10.7,6.9.2.8-.4,2.1-.4,2.9,0,0,0,.1,0,.2,0,0,0,0,0,0,0,0,0,0,0,0,0,0,0,0,0,0,0,0,0,0,0,0,0,0,0,0,0,0,0,0,0,0,0,0,0,0,.1,0,.2,0,9.7-2.5,20-1,29.4,2.6,12.3,4.8,23.1,11.2,32.5,19.2.1,0,.3,0,.3,0h0c0,0,0-.2,0-.3-13.1-13-28.2-23.4-45.3-31.2-7.9-3.6-15.7-6-23.5-7.2Z"/>
  <path class="st2" d="M272.6,100c-8.2,6.4-6.7,23.8-2.7,32.2,0,0,.1.1.2.1s.1-.1.1-.2c-.9-12.3,3.3-22.1,12.8-29.5.3-.2.3-.6.1-.9-2.2-3.4-7.4-4.3-10.5-1.8Z"/>
  <path class="st2" d="M208.3,131.3c2.4,10.7.4,20.3-6,29,0,0,0,.1,0,.2,0,0,0,0,0,0,0,0,0,.1.1.2,0,0,0,0,0,0,0,0,0,0,0,0,0,0,0,0,0,0,0,0,0,0,.1,0,8.9-2.4,15.3-11.5,12.2-20.7-.4-1.2-1.5-2.2-3.2-3-.3-.1-.5-.4-.5-.7.1-6.4,6.3-8.4,11.3-5.1.3.2.9.9,1.8,2.3.2.2.5.3.8.2,4.1-2.2,8.1-2.1,12,.4,0,0,0,0,.1,0,0,0,0,0,0,0,0,0,0,0,0,0,0,0,0,0,0,0,0,0,0,0,0,0,0,0,0,0,0,0,0,0,0,0,0,0,0,0,0,0,0-.1,1.2-4.1.5-7.5-2.1-10.2-3.7-3.8-10.2-4.3-12.2,1.7,0,0,0,.1,0,.1,0,0,0,0,0,0,0,0,0,0,0,.1,0,0,0,0-.1,0,0,0,0,0-.1,0,0,0,0,0-.1,0,0,0,0,0-.1,0,0,0,0,0-.1,0,0,0,0,0,0,0,0,0-.1,0-.1,0-5.5-3.5-4.2-9.5.3-13.2,6.3-5.1,13.6-2.8,19.2,2.1,10.4,9,10.4,25.2-.7,33.6,0,0-.1.2,0,.3h0c0,.1.2.2.3,0,8.4-4.9,13-12,13.8-21.2,1-10.8-7.2-24.3-17.9-26.5-8.9-1.8-16.8,4.5-18.3,13.2,0,0,0,0,0,0,0,0,0,.1,0,.2,0,0,0,.1,0,.2,0,0,0,.1-.2.2,0,0,0,.1-.2.2,0,0-.1,0-.2,0,0,0-.1,0-.2,0,0,0-.2,0-.2,0,0,0-.1,0-.2,0,0,0,0,0,0,0-4.8-1-7.1-3.7-6.8-8.1,0,0,0-.2,0-.2,0,0,0,0-.1,0,0,0,0,0-.1,0,0,0-.2,0-.2,0-4,3.3-7.5,6.9-10.6,11-.2.2-.1.6.1.8,4.3,3.3,7,7.6,8.2,13Z"/>
  <path class="st2" d="M300.4,123.3s0,0,0,0c0,0,0,0,0,0,0,0,0,0,0,0,0,0,0,0,0,0,0,0,0,0,0,0,0,0,0,0,.1,0,0,0,0,0,0,0,0,0,0,0,0,0,0,0,.1,0,.2.1,2.5,2.5,6.5,2.6,8.6-.4,1.8-2.5,1.9-6.2.2-8.8-3.8-5.8-11.9-6.2-17.7-3.3-4.3,2.2-7.5,5.9-9.4,11.2-4.6,12.3,1.8,25,11.6,32.8,9.6,7.7,24,10.7,36.7,9,0,0,.1,0,.2,0,0,0,0,0,0,0,0,0,0,0,0-.1,0,0,0,0,0-.1,0,0,0,0,0,0,0,0,0-.1-.1-.1-6.3-2.3-8-6.5-5.3-12.5.1-.3.4-.6.7-.8.3-.2.5-.5.7-.8.1-.3,0-.7-.2-.9-4.7-3.6-7.2-8.5-7.6-14.6,0,0,0-.2,0-.2,0,0,0,0,0,0,0,0,0,0,0,0,0,0,0,0,0,0,0,0,0,0,0,0,0,0,0,0,0,0,0,0,0,0,0,0,0,0-.2,0-.2,0-2.7,2.2-5.5,3.3-8.6,3.4-7.9.1-12.6-5.3-9.8-13.2,0,0,0-.1.1-.2Z"/>
  <path class="st2" d="M334.6,151.8c-.1,0-.2,0-.3,0,0,0-.1,0-.2,0,0,0-.1,0-.2,0,0,0-.1,0-.2,0,0,0,0,0-.1,0,0,0-.1,0-.2,0,0,0,0,0-.1,0,0,0-.2,0-.2.1,0,0,0,0,0,0,0,0-.2.1-.2.2,0,0-.1.2-.2.2,0,0,0,0,0,0,0,0,0,.2-.1.2,0,0,0,0,0,.1,0,0,0,.1,0,.2,0,0,0,0,0,.1,0,0,0,.1,0,.2,0,0,0,.1,0,.2,0,0,0,.1,0,.2,0,.1,0,.2,0,.3l.7,1.7c.6,1.4,1.7,2.5,3.1,3.1,9.6,4.1,18.9-7,23.2-13.8,6-9.5,10.6-18.5,22.2-21.2,5.2-1.2,10.3-1.2,15.3,0,0,0,0,0,.1,0,0,0,0,0,0,0,0,0,0,0,0,0,0,0,0,0,0,0,0,0,0,0,0,0,0,0,0,0,0-.1-14.2-9.1-35.7-16.9-52.7-12.3-8.8,2.4-15.1,9-15.4,18.3-.1,3.3.6,6,2.1,8.3,3.4,5,11.1,7.1,16.3,4.1,3.9-2.3,6.8-8.6,2.9-12.7,0,0-.1,0-.2-.1,0,0,0,0,0,0,0,0,0,0-.1,0,0,0,0,0,0,0,0,0,0,0,0,0,0,0,0,0,0,0,0,0,0,0,0,0,0,0,0,.1-.1.2-2.1,5.4-9.3,4-10.3-1.4-.6-3.4.8-6,4.2-7.6,3.3-1.6,6.8-1.6,10.5.1,7.6,3.6,10.6,12.8,6.9,20.3-4.6,9.5-16.3,14.8-26.2,11.1Z"/>
  <path class="st2" d="M171.1,154.7s0,0,0,.1c0,0,0,0,0,.1,0,0,0,0,0,0,0,0,0,0,.1,0,0,0,0,0,.1,0,5.4,1,8.9,4.3,10.5,10,0,0,0,0,0,.1,0,0,0,0,0,0,0,0,0,0,0,0,0,0,0,0,0,0,0,0,0,0,0,0,0,0,0,0,0,0,0,0,0,0,.1,0,0,0,.1,0,.2,0,4.4-2.2,7.9-5.5,10.5-9.8,5.2-8.7,5.5-22.2-3.7-28.6-.1-.1-.3,0-.5,0l-2.1,2.6c0,.1,0,.3,0,.4,4.2,4.1,6.5,8.7,1.9,13.8-.3.3-.7.4-1,.2-7.9-4.2-15.3,2.8-17.1,10.2,0,0,0,.1,0,.2,0,0,0,0,0,.1,0,0,0,0,0,.1Z"/>
  <path class="st2" d="M262.8,140.5s0,0,0,0c0,0,0,0,0,0,0,0,0,0,0,0,0,0,0,0,0,0,0,0,0,0,0,0,0,0,0,0,0,0,0,0,0,0,0,.2-2.3,9.6-9.6,17.5-18.2,21.7,0,0,0,0-.1,0,0,0,0,0,0,0,0,0,0,0,0,0,0,0,0,0,0,0,0,0,0,0,0,.1,0,0,0,0,0,.1,0,0,0,0,0,.1,0,0,0,0,0,.1,1.8,2.7,2.2,5.5,1.3,8.5,0,0,0,0,0,.1,0,0,0,0,0,0,0,0,0,0,0,0,0,0,0,0,0,0,0,0,0,0,0,0,0,0,0,0,0,0,0,0,0,0,0,0,0,0,0,0,.1,0,5,0,8.9-2,11.5-6,0,0,0,0,0,0,0,0,0,0,0,0,0,0,0,0,0,0,0,0,0,0,.1,0,0,0,0,0,.1,0,0,0,0,0,.1,0,0,0,0,0,.1,0,0,0,0,0,.1,0,0,0,0,0,.1,0,0,0,0,0,0,0,.4.2.7.7.9,1.4,0,.1.1.2.2.3,0,0,0,0,0,0,0,0,0,0,.1,0,0,0,0,0,.1,0,0,0,0,0,.1,0,0,0,0,0,.1,0,0,0,0,0,0,0,.1,0,.2-.1.3-.2,6.1-8.1,14.4-11.4,24.7-10,0,0,.1,0,.1,0,0,0,0,0,0,0,0,0,0,0,0,0,0,0,0-.1,0-.1-4.3-4.2-8.1-7.8-10.8-12.9-.2-.4-.6-.6-1-.6-4.5.2-7.9-.9-10.2-3.4,0,0,0,0-.2,0Z"/>
  <path class="st2" d="M233.5,151.7s0,0,0,0c0,0,0,0,0,0,0,0,0,0,0,0,0,0,0,0,0,0,0,0,0,0,0,0,0,0,0,0,0,0,0,0,0,0-.1,0-2.7.3-5.3-.4-7.9-2,0,0,0,0-.1,0,0,0,0,0-.1,0,0,0,0,0,0,0,0,0,0,0,0,0,0,0,0,0,0,0,0,0,0,0,0,0,0,0,0,0,0,0,0,0,0,0,0,.1-1.5,4.3-3.8,7.8-6.8,10.7,0,0,0,0,0,.1,0,0,0,0,0,0,0,0,0,0,0,0,0,0,0,0,0,0,0,0,0,0,0,0,0,0,0,0,.1,0,4.7-2.1,9.6-2.9,14.7-2.4,0,0,0,0,.1,0,0,0,0,0,0,0,0,0,0,0,0,0,0,0,0,0,0,0,0,0,0,0,0,0,0,0,0,0,0,0,0,0,0,0,0,0,0,0,0,0,0-.1-.2-2,0-4,.6-6,0,0,0,0,0-.1Z"/>
  <path class="st2" d="M147.5,200.9s0,0,0,0c0,0,0,0,0,0,5.5-9,12.4-16.7,20.7-23.1,2.1-1.6,3.3-2.9,3.7-3.8,2.5-5.7-3.3-11.8-8.8-7.7-.8.6-1.6,1.8-2.5,3.5-6,12.2-10.5,22.6-13.4,31.1,0,0,0,0,0,0,0,0,0,0,0,0Z"/>
  <path class="st2" d="M186.4,177.9c0,0-.1.1-.1.2,0,0,0,0,0,0,0,0,0,.2,0,.2,0,0,0,0,0,0,0,0,0,0,0,0,0,0,0,0,0,0,0,0,0,0,.1,0,7.5.7,13.6-1.9,18.2-7.9,0,0,0-.1.1-.2,0,0,0,0,0,0,0,0,0-.1,0-.2,0,0,0,0,0,0,0,0,0,0,0-.1,0,0,0,0,0,0,0,0,0,0,0,0,0,0,0,0-.2,0,0,0,0,0,0,0,0,0-.2,0-.2,0-2.2.4-4.4-.2-6.6-1.7-.2-.2-.6-.1-.7.1-2.8,3.8-6.2,7-10.4,9.8Z"/>
  <path class="st2" d="M220.5,171.3c1.8.1,3.5.3,5.1.6,4,.6,7.5,1.8,10.6,3.5,0,0,.1,0,.2,0,0,0,.1,0,.2,0,0,0,0,0,0,0,0,0,0,0,0,0,0,0,.1-.1.1-.2,0,0,0-.1,0-.2.2-2.7-.5-4.7-2.2-6.2-.3-.2-.6-.3-.9-.3l-13.4,2.6c0,0-.1,0-.1.1,0,0,0,.1.1.1Z"/>
  <path class="st2" d="M257,178.7s0,0,0,0c0,0,0,0,0,0,0,0,0,0,0,0,0,0,0,0,0,0,0,0,0,0,0,0,0,0,0,0,0,0,0,0-.1,0-.2,0-2.3,1.9-5.1,2.9-8.5,2.8,0,0-.1,0-.2,0,0,0,0,0,0,0,0,0,0,0,0,0,0,0,0,.1,0,.2,2.1,1.4,3.7,2.8,4.6,4.3,0,0,.1.1.2.2,0,0,0,0,0,0,0,0,0,0,0,0,0,0,0,0,0,0,0,0,0,0,0,0,0,0,0,0,0,0,0,0,0,0,0,0,0,0,.1-.1.2-.2.7-2,1.9-3.2,3.7-3.6.4,0,.6-.4.5-.8l-.5-2.7c0,0,0-.1,0-.2Z"/>
  <path class="st2" d="M424.4,265.1s0,0,0,0c0,0,0,0,.1,0,0,0,.1,0,.2,0l16.8-9.7c0,0,.2-.2.2-.3v-7.5s0,0,0-.1c0,0,0,0,0,0,0,0,0,0,0,0s0,0-.1,0c0,0-.1,0-.2,0l-10,5.7s0,0-.1,0c0,0,0,0,0,0,0,0,0,0-.1,0,0,0,0,0,0,0,0,0,0-.1,0-.2v-17.9c0,0,0-.2.1-.2l8.7-6.8c0,0,.1-.1.1-.2v-7.5c0,0,0-.1,0-.2,0,0,0,0,0,0,0,0,0,0,0,0,0,0,0,0-.1,0,0,0-.1,0-.2,0l-7.9,6.1c0,0-.1,0-.2,0,0,0,0,0,0,0,0,0,0,0-.1,0,0,0,0,0,0,0,0,0,0-.1,0-.2v-15.3c0-.1,0-.2.1-.3l8.4-4.8c0,0,.1-.2.1-.3v-7.7s0,0,0-.1c0,0,0,0,0,0,0,0,0,0,0,0s0,0-.1,0c0,0-.1,0-.2,0l-14.8,8.5c0,0-.2.2-.2.3v58.8s0,0,0,.1c0,0,0,0,0,0Z"/>
  <path class="st2" d="M395.3,229.9c-.6,8.9,3.4,14.4,10.1,19.9,2.6,2.2,4.1,5.1,4.5,8.7.4,3.5,0,7.3-3.3,8.9-.8.3-1.7,0-2.1-.7-.9-1.6-1.2-2.9-1-3.8,0,0,0-.1,0-.2,0,0,0,0,0,0,0,0,0,0,0,0,0,0,0,0,0,0,0,0,0,0,0,0,0,0,0,0,0,0,0,0,0,0,0,0,0,0,0,0-.1,0,0,0,0,0-.1,0,0,0,0,0,0,0,0,0-.1,0-.2,0l-5.6,2.4c-.7.3-1.1,1-1.1,1.8.3,2.8.9,5.1,1.8,6.9,3.9,7.3,12,2.4,15.3-2.1,6-8.2,6-21.3-2-28.6-5.2-4.6-10.3-8.3-8.6-15.5.3-1.3,1.2-2.4,2.7-3.2,2.9-1.6,4,1.3,3.8,3.4,0,0,0,.1,0,.2,0,0,0,0,0,0,0,0,0,0,0,0,0,0,0,0,0,0,0,0,0,0,0,0,0,0,0,0,0,0,0,0,0,0,0,0,0,0,0,0,0,0,0,0,.1,0,.2,0l6.2-2.8c.3-.1.4-.4.4-.7-.6-5.8-3.6-12.2-10.7-9.1-6.2,2.7-9.6,7.7-10.1,14.9Z"/>
  <path class="st2" d="M335,226.6s0,0,0,0c0,0,0,0,0,0,0,0,0,0,0,0,0,0,0,0,0,0,0,0,0,0,0,0,0,0,0,0,0,0,0,0-.1,0-.2,0l-5,2.9c-.1,0-.2.2-.2.3l-.9,44.6c0,.1,0,.2-.2.3l-11.7,6.7s-.1,0-.2,0c0,0,0,0,0,0,0,0,0,0,0,0,0,0,0,0,0,0,0,0,0,0,0,0,0,0,0,0,0,0,0,0,0,0,0,0,0,0,0,0,0,0,0,0,0-.1,0-.2l.9-44.4c0,0,0-.1,0-.2,0,0,0,0,0,0,0,0,0,0,0,0,0,0,0,0,0,0,0,0,0,0,0,0,0,0,0,0,0,0,0,0,0,0,0,0,0,0,0,0,0,0,0,0-.1,0-.2,0l-5,2.9c-.1,0-.2.2-.2.3l-.9,44.5c0,.1,0,.2-.2.3l-5.8,3.3c-.1,0-.2.2-.2.3l-.3,6.9c0,0,0,.1,0,.2,0,0,0,0,0,0,0,0,0,0,0,0,0,0,0,0,0,0,0,0,0,0,0,0,0,0,0,0,0,0,0,0,0,0,0,0,0,0,0,0,0,0,0,0,.1,0,.2,0l5.2-3s.1,0,.2,0c0,0,0,0,0,0,0,0,0,0,0,0,0,0,0,0,0,0,0,0,0,0,0,0,0,0,0,0,0,0,0,0,0,0,0,0,0,0,0,0,0,0,0,0,0,.1,0,.2l-1.2,60.6c0,0,0,.1,0,.2,0,0,0,0,0,0,0,0,0,0,0,0,0,0,0,0,0,0,0,0,0,0,0,0,0,0,0,0,0,0,0,0,0,0,0,0,0,0,0,0,0,0,0,0,.1,0,.2,0l5-2.9c.1,0,.2-.2.2-.3l1.2-60.5c0-.1,0-.2.2-.3l11.6-6.7s.1,0,.2,0c0,0,0,0,0,0,0,0,0,0,0,0,0,0,0,0,0,0,0,0,0,0,0,0,0,0,0,0,0,0,0,0,0,0,0,0,0,0,0,0,0,0,0,0,0,.1,0,.2l-1.2,60.2c0,0,0,.1,0,.2,0,0,0,0,0,0,0,0,0,0,0,0,0,0,0,0,0,0,0,0,0,0,0,0,0,0,0,0,0,0,0,0,0,0,0,0,0,0,0,0,0,0,0,0,.1,0,.2,0l5-2.9c.1,0,.2-.2.2-.3l2.2-113.6c0,0,0-.1,0-.2,0,0,0,0,0,0Z"/>
  <path class="st2" d="M387.9,226.6s0,0,0,0c0,0,0,0,0,0s0,0,0,0c0,0,0,0,0,0l-6,3.5c-.1,0-.2.2-.2.3.2,15,.3,30,.2,45.1,0,3.2-.4,6.6-3.3,8.4,0,0,0,0,0,0,0,0-.1,0-.2,0,0,0-.2,0-.2,0s-.2,0-.2,0c0,0-.2,0-.2,0,0,0-.1,0-.2-.1,0,0-.1,0-.2-.1,0,0-.1-.1-.2-.2,0,0-.1-.1-.2-.2-.5-.9-.8-2-.8-3.1,0-10.9-.1-26.6-.2-47,0,0,0,0,0,0,0,0,0,0,0,0,0,0,0,0,0,0,0,0,0,0,0,0,0,0,0,0-.1,0l-5.8,3.4c-.1,0-.2.2-.2.4,0,25.3,0,38.6,0,39.8,0,4.4-.4,12.4,3.3,15.6,3.4,2.9,9-1,10.9-4,2.9-4.5,4.3-9.6,4.4-15.4,0-13.6,0-29,0-46.2,0,0,0,0,0,0Z"/>
  <path class="st2" d="M353.1,244.5c-6.5,2.6-9.5,9.3-10.4,16.1-.7,4.8-1.2,10-1.5,15.4-.5,8.8-.7,18.6.7,27.3.6,4,3.1,7.2,7.6,5.4,6.5-2.6,9.5-9.3,10.4-16.1.7-4.8,1.2-10,1.5-15.4.5-8.8.7-18.6-.7-27.3-.6-4-3.1-7.2-7.6-5.4ZM355.1,276.7c-.1,4-.6,9-1.3,14.9-.3,2.6-1.3,7.7-4.1,8.1-.6,0-1.2-.3-1.3-.9-1.5-7.2-1.2-15.2-1-22.2.1-4,.5-9,1.3-14.9.3-2.6,1.3-7.7,4.1-8.1.6-.1,1.2.3,1.3.9,1.5,7.2,1.2,15.3,1,22.2Z"/>
  <path class="st2" d="M287.5,308.1c-.2-.3-.2-.6-.1-.9l9.8-31.8c0,0,0-.1,0-.2,0,0,0,0,0,0,0,0,0,0,0,0,0,0,0,0,0,0,0,0-.1,0-.2,0l-6.9,4c-.5.3-.8.7-1,1.2-3.8,11.9-6.6,20.9-8.4,26.8-.3.9-.7,1.5-1.2,1.8,0,0-.1,0-.2,0,0,0,0,0,0,0,0,0,0,0,0,0,0,0,0,0,0,0,0,0,0,0,0,0,0,0,0,0,0,0,0,0,0,0,0,0,0,0,0,0,0,0,0,0,0-.1,0-.2l.5-25.6s0,0,0,0c0,0,0,0,0,0,0,0,0,0,0,0l-6.4,3.7c-.1,0-.2.2-.2.4l-1.4,62.6s0,0,0,0c0,0,0,0,0,0,0,0,0,0,0,0l6.2-3.6c.2-.1.3-.3.3-.5l1.1-25.3c0-.4.2-.9.6-1.1l3.3-2.5s0,0,0,0c0,0,0,0,0,0,0,0,0,0,0,0,0,0,0,0,0,0,0,0,0,0,0,0,0,0,0,0,0,0,0,0,0,0,0,0,0,0,0,0,0,0,0,0,0,0,0,.1l11.2,19.3c.2.4.7.5,1.1.3l5.7-3.3c.2,0,.2-.3.1-.5l-14-24.3Z"/>
  <path class="st2" d="M264.9,342.1c0-.1-.2-.2-.3-.3,0,0,0,0,0,0,0,0,0,0,0,0,0,0,0,0-.1,0,0,0,0,0-.1,0,0,0,0,0-.1,0,0,0,0,0-.1,0,0,0,0,0,0,0-.1,0-.2.1-.3.3-1.9,3.5-3.6,6-5.1,7.4-6.1,5.5-9.7-2.1-10.7-7-2.2-10.4-2.5-31.7,8.6-37.9.4-.2.8-.3,1.2-.2,1.6.4,3.2,1.1,4.5,2.1,0,0,.1,0,.2,0,0,0,0,0,0,0,0,0,0,0,.1,0,0,0,0,0,.1,0,0,0,0,0,.1,0,0,0,0,0,.1,0,0,0,0,0,0,0,0,0,0,0,.1,0,0,0,0-.1.1-.2l1.8-6c.2-.5,0-1.1-.5-1.4-3.6-2.6-7.7-3.5-11.5-.6-13.2,10.1-14.9,34.2-11.6,48.7,1.6,6.9,5.6,15.4,14.2,12.6,5-1.6,8.7-7.9,11.2-12.3.4-.6.4-1.3,0-1.9l-1.9-3.4Z"/>
  <path class="st2" d="M182.9,348.9c0,0-.1,0-.1-.1,0,0,0,0,0,0,0,0,0,0,0,0,0,0,0,0,0,0,0,0,0,0,0-.1,0,0,0,0,0,0,0,0,0,0,0,0,0,0,0,0,0-.1,0,0,0,0,0,0,0,0,0,0,0,0,0,0,0,0,.2-.1,2.3-.8,3.3-1.6,4.6-3.8,2.4-4.2,3.6-9.2,3.3-14.8-.3-8.3-4.2-14-11.5-16.9-6.4-2.6-11-4.5-13.7-5.6,0,0,0,0,0,0,0,0,0,0,0,0,0,0,0,0,0,0,0,0,0,0,0,0,0,0,0,0,0,.1v98c0,.3.2.5.4.5.3,0,.5,0,.6,0,1-.7,4.2-2.8,9.6-6.2,3.8-2.5,6.4-4.4,7.6-5.9,6.4-7.6,7.7-17.5,7.8-27.1.1-8.1-1.6-13.6-8.6-17.4ZM172.3,319.1s0,0,0,0h0c.8,0,1.5,0,2.3.2.7.2,1.4.4,2.1.7,1,.5,2,1.1,2.8,1.8.3.2.5.5.8.8.5.5,1,1.1,1.4,1.8,1.2,1.9,1.9,4.2,1.9,6.7h0c0,2.6-.7,4.9-1.9,6.9-.4.6-.9,1.2-1.4,1.8-.3.3-.5.5-.8.8-1.4,1.2-3.1,2.1-4.9,2.5-.7.2-1.5.2-2.3.2h0s0,0,0,0v-24.2ZM184.5,374.2c-.4,5.5-2.6,10.7-7.2,13.8-2,1.4-3.6,2.4-4.8,3.1,0,0,0,0-.1,0,0,0,0,0,0,0,0,0,0,0,0,0,0,0,0,0,0,0,0,0,0,0,0-.1v-37.6s0,0,0,0c0,0,0,0,0,0,0,0,0,0,0,0,0,0,0,0,0,0,0,0,0,0,0,0,0,0,0,0,0,0,0,0,0,0,0,0,0,0,0,0,.1,0,0,0,0,0,.1,0,6.1.9,10,4.2,11.6,10.1.6,2.1.7,5.9.2,11.3Z"/>
  <path class="st2" d="M236.2,308.4s0,0,0,0c0,0,0,0,0,0,0,0,0,0,0,0,0,0,0,0,0,0,0,0,0,0,0,0,0,0,0,0,0,0,0,0-.1,0-.2,0l-5.8,3.4c-.1,0-.2.2-.2.3v58.7c0,0,0,.1,0,.2,0,0,0,0,0,0,0,0,0,0,0,0,0,0,0,0,0,0,0,0,0,0,0,0,0,0,0,0,0,0,0,0,0,0,0,0,0,0,0,0,0,0,0,0,.1,0,.2,0l5.8-3.4c.1,0,.2-.2.2-.3v-58.7c0,0,0-.1,0-.2,0,0,0,0,0,0Z"/>
  <path class="st2" d="M218,349.3c0-.2,0-.5.1-.7,5.3-6.5,7.3-14.2,5.8-23.2-1.2-7.1-6.4-7.9-12-4.8-4.2,2.3-8.4,4.7-12.9,7.3-.3.2-.5.5-.5.8v59.4s0,0,0,0c0,0,0,0,0,0,0,0,0,0,0,0l6.2-3.6c.1,0,.2-.2.2-.3v-24.8c0-.3.2-.6.5-.8l5-2.9c.3-.2.8-.1,1,.2,1,1.4,1.8,2.9,2.4,4.6.8,2.3,2.7,7.4,5.5,15.3,0,0,0,0,0,0,0,0,0,0,0,0,0,0,0,0,0,0,0,0,0,0,0,0,0,0,0,0,0,0,0,0,0,0,0,0,0,0,0,0,0,0,0,0,0,0,0,0,0,0,0,0,.1,0l6.1-3.5c.3-.2.4-.5.3-.8l-8.7-22.4ZM210.7,347.4c-1.8,1.1-3.5,2-5,2.8,0,0,0,0-.1,0,0,0,0,0,0,0,0,0,0,0-.1,0,0,0,0,0,0,0,0,0,0-.1,0-.2v-16.7c0-.3.2-.7.5-.8,4.1-2.4,6.5-3.7,7.4-4.1,2.3-1,3.8.4,4.2,2.7,1,6.2-1.1,13-6.6,16.4Z"/>
  <path class="st2" d="M442.9,381.7c-4.7,9.2-9.4,20.2-10.4,30.3-.6,5.9,1.2,12.6,8.1,13,.3,0,.6-.2.8-.5,15.3-32,24-66.8,26.7-102.3,0,0,0-.1,0-.2,0,0,0-.2,0-.2,0,0,0,0,0,0s0,0,0,0c0,.5,0,.8,0,.9,0,.1-.8,3.6-2.4,10.4-1.4,5.9-3.7,12.1-6.9,18.3-5.3,10.2-10.5,20.3-15.6,30.2Z"/>
  <path class="st2" d="M426.9,392.2s0,0,0,0c0,0,0,0,0,0,0,0-.1,0-.2,0-4,2.8-7.5,4.3-10.4,4.5-.4,0-.7.3-.7.7-.6,3.8-1.9,7.2-3.9,10.2-.1.2,0,.5.1.7,3.1,2.1,4.7,4.9,5,8.4,0,0,0,0,0,.1,0,0,0,0,0,0,0,0,0,0,0,.1,0,0,0,0,0,0,0,0,0,0,0,0,0,0,0,0,.1,0,0,0,0,0,0,0,0,0,0,0,.1,0,1.1-.5,2.3-.8,3.4-.7,0,0,0,0,.1,0,0,0,0,0,0,0,0,0,0,0,0,0,0,0,0,0,0,0,0,0,0,0,0,0,0,0,0,0,0,0,0,0,0,0,0,0,0,0,0,0,0-.1-.8-8.1,1.1-15.9,5.6-23.3,0,0,0-.1,0-.2Z"/>
  <path class="st2" d="M399,418.9s0,0,.1,0c3.1.1,6.2,1,9.3,2.7,0,0,.1,0,.2,0,0,0,0,0,.1,0,0,0,0,0,.1,0,0,0,0,0,.1,0,0,0,0,0,.1,0,0,0,0,0,.1,0,0,0,0,0,0-.1,0,0,0,0,0-.1,1.2-3,.7-5.5-1.7-7.5-.2-.2-.5-.2-.7,0-1.5,1.6-3.2,2.7-5.2,3.5-1.4.5-2.3.9-2.8,1.2,0,0,0,0-.1.1,0,0,0,0,0,0,0,0,0,0,0,0,0,0,0,0,0,0,0,0,0,0,0,0Z"/>
  <path class="st2" d="M393.9,427.5c0,0-.1,0-.2.1,0,0,0,0,0,0,0,0,0,0,0,0,0,0,0,0,0,0,0,0,0,0,0,0,0,0,0,0,0,0,0,0,0,0,0,0,0,0,0,.1.1.2,2,2,3.6,4.4,4.7,7.1.1.3.4.5.8.4,3.3-.5,6.1-1.7,8.5-3.6,0,0,0,0,0-.1,0,0,0,0,0-.1,0,0,0,0,0-.1,0,0,0,0,0-.1,0,0,0,0,0-.1,0,0,0,0,0-.1,0,0,0,0,0-.1,0,0,0,0,0-.1-3.8-4-8.4-5.3-13.8-3.7Z"/>
  <path class="st2" d="M354.3,504.6c-14-20.4.2-47.3,24.4-48.9,0,0,0,0,.1,0,0,0,0,0,0,0,0,0,0,0,0,0,0,0,0,0,0,0-10.8-3.4-15.8-16.4-8.4-25.5,0,0,0,0,0-.2,0,0,0,0,0,0,0,0,0,0,0,0,0,0,0,0,0,0,0,0,0,0,0,0,0,0,0,0,0,0,0,0,0,0,0,0,0,0,0,0-.2,0-7.2-1.1-13.5.6-19.1,5.2-4.6,3.8-7.2,9.8-4.3,15.5.2.4.6.6,1,.6,6.4,0,11.7,4.2,10.2,11.1,0,.3-.4.5-.7.4-5.5-1.1-12.8,0-16.8,4-5.6,5.7-6.8,14.3-5.1,22,1.9,9,6.1,16.3,12.6,21.9,0,0,0,0,0,0,0,0,0,0,0,0,0,0,0,0,0,0,0,0,0,0,0,0s0,0,0,0c0,0,0,0,0,0,0,0,0,0,0,0,0,0,0,0,0,0,.2-.2.6-.9,1.2-2,.9-1.5,2.3-2.4,4.3-2.8,0,0,.1,0,.2,0,0,0,0,0,0,0,0,0,0,0,0,0,0,0,0,0,0,0,0,0,0,0,0,0,0,0,0,0,0-.1,0,0,0,0,0,0,0,0,0-.1,0-.2Z"/>
  <path class="st2" d="M436.1,434.1s0,0,0,0c0,0,0,0,0,0,0,0,0,0-.1,0-5.7,2.3-10.1.8-13.1-4.7,0,0,0,0-.1-.1,0,0,0,0,0,0,0,0,0,0,0,0,0,0,0,0,0,0,0,0,0,0,0,0,0,0,0,0,0,0,0,0,0,0,0,0,0,0,0,0-.1.1-2,2.9-3.6,5.5-6.3,7.7-4.7,3.9-10.3,5.9-16.7,6.1-.3,0-.6.2-.8.4-.8,1.3-1.6,2.2-2.2,2.9-2.6,2.8-7.2,3.4-10.2.7-4.1-3.7-1.5-8.8,3-10.4,0,0,.2,0,.2-.2,0,0,0,0,0,0,0,0,0,0,0,0,0,0,0,0,0,0,0,0,0,0,0,0,0,0,0,0,0,0,0,0,0,0,0,0,0,0,0-.2-.2-.2-1.7-.9-3.5-1.3-5.4-1.3-7,.1-9.3,7.7-4.7,12.6,4.1,4.3,10.8,6.4,16.8,6.4,16.6,0,30.1-6.5,40.6-19.3,0,0,0,0,0-.1,0,0,0,0,0,0,0,0,0,0,0,0Z"/>
  <path class="st2" d="M296.6,453.5c-8.7-2.9-17.4-.4-20.1,9.2,0,0,0,.1,0,.2,0,0,0,0,0,0,0,0,0,0,0,.1,0,0,0,0,0,0,0,0,0,0,0,0,0,0,0,0,0,0,0,0,0,0,0,0,0,0,0,0,.1,0,0,0,0,0,0,0,0,0,.1,0,.2,0,7.6-6.1,18.8-2.3,18.5,8.2-.3,12-13.7,15-22.4,9.4,0,0-.1,0-.2,0,0,0,0,0,0,0,0,0,0,0,0,0,0,0,0,.1,0,.2.5,1.9,0,4-1.5,5.1-3.3,2.3-6.4,1.6-9.3-1.9,0,0,0,0-.1-.1,0,0,0,0,0,0,0,0,0,0,0,0,0,0,0,0,0,0,0,0,0,0,0,0,0,0,0,0,0,0,0,0,0,0,0,0,0,0,0,0-.1.1-3,4.5-13.1,5.8-18.3,5.8-24.5,0-45.5-12.2-62.3-29.2-.1-.1-.3-.1-.5,0h0c-.1.1-.1.3,0,.5,10.6,12.7,23,22.2,37.4,31,9.7,6,19.9,8.7,30.9,10.6,10.8,1.9,41.5,4,40.1-14.5,0,0,0,0,0,0,0,0,0,0,0,0,0,0,0,0,0-.1,0,0,0,0,0,0,0,0,0,0,0,0,0,0,0,0,0,0,0,0,0,0,0,0,0,0,0,0,.1,0,0,0,0,0,0,0,0,0,0,0,0,0,6.2,0,10.9-2.8,14.2-8.2,5.7-9.3,4.6-22.4-6.9-26.2Z"/>
  <path class="st2" d="M420.2,459.7s0,0,0,0c0,0,0,0,0,0,0,0-.1,0-.2,0-6.3,2.6-12.8,4-19.5,4.2,0,0-.1,0-.2,0,0,0,0,0,0,0,0,0,0,0,0,.1,0,0,0,0,0,.1,0,0,0,0,0,0,0,0,0,.1.1.1,4.2,1.5,7.2,4.4,9,8.7,0,0,0,0,0,.1,0,0,0,0,0,0,0,0,.1,0,.2,0,0,0,0,0,0,0,0,0,.2,0,.2-.1l10.3-13.1s0-.1,0-.2c0,0,0,0,0,0,0,0,0,0,0,0Z"/>
  <path class="st2" d="M391.9,472.2c-12.6-6.4-26-2.1-32.3,10.4-5,9.9-.7,20.4,9.4,24.3.7.3,1.5.2,2.1-.2l3.3-1.9s0,0,.1,0c0,0,0,0,0,0,0,0,0,0,0,0,0,0,0,0,0,0,0,0,0,0,0,0,0,0,0,0,0,0,0,0,0,0,0,0,0,0,0,0,0-.1-3.3-4.1-5-10.2-4-15.3,1.4-6.8,5.9-10.6,13.3-11.3,4.1-.4,7.3,1.4,9.6,5.4.7,1.2.6,2.7-.1,3.9l-.4.6c0,0-.2.2-.2.2,0,0,0,0,0,0,0,0,0,0,0,0,0,0,0,0,0,0,0,0-.1,0-.2,0,0,0-.1,0-.2,0,0,0-.1,0-.2,0,0,0-.1,0-.2,0,0,0,0,0,0,0,0,0,0,0,0,0,0,0,0,0,0,0,0,0-.1-.2-.2-.3-2.8-6.8-12.2-3.1-9.9,4.2.7,2.2,2.2,3.7,4.5,4.6.3.1.6,0,.8-.2l14.3-12.9c.2-.2.3-.5.2-.8-1.8-4.4-4.9-7.7-9.3-9.9Z"/>
  <path class="st2" d="M289.8,519.4s0,0-.2,0c-4.4.2-7.4-1.7-8.9-5.5-.4-.9-.4-1.8-.3-2.7,0,0,0,0,0-.1,0,0,0,0,0-.1,0,0,0,0,0,0,0,0,0,0,0,0,0,0,0,0-.1,0,0,0,0,0-.1,0-22.2,5-46.8-2.4-65.7-14.2,0,0-.1,0-.2,0,0,0,0,.2,0,.2,20.9,16.7,45.5,27.9,72.2,30.7,0,0,0,0,.1,0,0,0,0,0,.1,0,0,0,0,0,.1,0,0,0,0,0,.1,0,0,0,0,0,0,0,0,0,0,0,0,0,0,0,0,0,0-.1,0,0,0,0,0-.1.2-2.7,1.1-5.1,2.9-7.3,0,0,0-.1,0-.2,0,0,0,0,0,0,0,0,0,0,0,0Z"/>
  <path class="st3" d="M510.3,276.5c-2.2-33.3-9.2-65.1-20.9-95.5-17.8-46.3-47.2-89.2-88.2-117.7-25-17.4-54.5-28.8-85.1-31.2-3.1-.2-6.1-.5-9.2-.8h-13.8c-88.8,4.1-152.5,71.3-182.4,149.8-13.4,35.4-20.7,72-21.9,110v18.1c.3,4.9.6,9.7,1,14.6,2.1,31.1,8.3,60.9,18.7,89.5,23.5,64.8,69.6,124.4,137.2,147,11.4,3.8,23.4,6.3,36.1,7.5,3.8.4,7.5.7,11.3,1h13.9c3.6-.3,7.2-.7,10.8-1,21.2-2.1,41.2-7.8,59.9-17.1,56.5-28.2,95.3-83.3,115.5-141.8,9.4-27.3,15.1-55.6,17.1-85,.3-5,.7-10,1-14.9v-18.2c-.3-4.8-.6-9.6-.9-14.3ZM300.1,548.8c-104.4,0-189-111-189-248S195.7,52.8,300.1,52.8s13,.4,19.3,1.3c3.2.4,6.3.9,9.5,1.6,1.6.3,3.1.7,4.7,1,4.7,1.1,9.3,2.4,13.8,3.9,4.5,1.5,9,3.3,13.4,5.2,2.9,1.3,5.8,2.7,8.7,4.2,1.4.7,2.9,1.5,4.3,2.3,19.8,11,37.9,26.3,53.5,44.9,1.1,1.3,2.2,2.7,3.3,4.1,2.2,2.7,4.3,5.5,6.4,8.4,10.4,14.4,19.6,30.3,27.2,47.7,3,6.9,5.8,14.1,8.3,21.4,10.7,31.1,16.7,65.7,16.7,102,0,137-84.6,248-189,248Z"/>
  <path class="st3" d="M300.1,62.7h0c-27.3,0-53.1,8.1-76.3,22.5-.9.6-1.9,1.2-2.8,1.8-4.5,2.9-8.9,6.1-13.1,9.5-.5.4-1,.8-1.4,1.2-3.4,2.7-6.7,5.6-9.9,8.7-1.3,1.2-2.5,2.4-3.8,3.6,0,0,0,0,0,0-1.7,1.7-3.3,3.4-5,5.2-2.8,3-5.6,6.1-8.2,9.3-1.1,1.3-2.1,2.6-3.2,3.9-1.6,2.1-3.2,4.2-4.8,6.3-1.4,1.9-2.8,3.9-4.2,5.9-2.5,3.7-5,7.5-7.3,11.4-1.2,2-2.5,4.1-3.6,6.2-1.7,3.1-3.4,6.2-5,9.3-1.6,3.2-3.2,6.4-4.7,9.7-.7,1.6-1.5,3.3-2.2,4.9-2.2,5-4.2,10.1-6.1,15.3-1.1,3-2.2,6.1-3.2,9.2-.7,2.2-1.4,4.4-2.1,6.7-3.7,12.6-6.7,25.7-8.8,39.3-.3,2.2-.6,4.3-.9,6.5-.5,3.7-.9,7.4-1.3,11.2-1,9.9-1.4,20-1.4,30.3s.5,20.4,1.4,30.3c.4,4,.8,7.9,1.4,11.8,2.4,17.6,6.2,34.5,11.3,50.5,1.1,3.6,2.3,7.1,3.6,10.5,5.7,15.6,12.6,30.3,20.6,43.7,2.7,4.5,5.4,8.9,8.3,13.1,1,1.4,1.9,2.8,2.9,4.2,2,2.8,4,5.4,6.1,8.1,1,1.3,2.1,2.6,3.2,3.9.8,1,1.6,1.9,2.4,2.9,1.6,1.9,3.3,3.7,4.9,5.5.8.9,1.7,1.8,2.5,2.7,1.9,2,3.8,3.9,5.8,5.8,2,1.9,4,3.7,6,5.5,3,2.7,6.1,5.2,9.3,7.6,1.1.8,2.1,1.6,3.2,2.4,4.3,3.1,8.7,6,13.1,8.7,10.1,6,20.6,10.8,31.6,14.2,5,1.6,10.1,2.9,15.3,3.9,3.5.7,6.9,1.2,10.4,1.6,2.6.3,5.3.5,8,.7,2.7.2,5.3.2,8,.2,99.1,0,179.5-106.5,179.5-237.9S399.2,62.7,300.1,62.7ZM200,117.6c3.1-4.1,6.6-7.7,10.6-11,0,0,.1,0,.2,0,0,0,0,0,0,0,0,0,0,0,.1,0,0,0,0,0,.1,0,0,0,0,.1,0,.2-.3,4.4,1.9,7.1,6.8,8.1,0,0,0,0,0,0,0,0,.1,0,.2,0,0,0,.2,0,.2,0,0,0,.1,0,.2,0,0,0,.1,0,.2,0,0,0,.1-.1.2-.2,0,0,.1,0,.2-.2,0,0,0-.1,0-.2,0,0,0-.2,0-.2,1.5-8.7,9.4-15,18.3-13.2,10.7,2.2,18.9,15.7,17.9,26.5-.8,9.2-5.5,16.3-13.8,21.2-.1,0-.3,0-.3,0h0c0-.1,0-.2,0-.3,11.1-8.4,11.2-24.6.7-33.6-5.6-4.9-12.9-7.2-19.2-2.1-4.5,3.7-5.8,9.7-.3,13.2,0,0,0,0,.1,0,0,0,0,0,0,0,0,0,0,0,.1,0,0,0,0,0,.1,0,0,0,0,0,.1,0,0,0,0,0,.1,0,0,0,0,0,.1,0,0,0,0,0,0-.1,0,0,0-.1.1-.2,2-6,8.6-5.5,12.2-1.7,2.6,2.7,3.3,6.1,2.1,10.2,0,0,0,0,0,.1,0,0,0,0,0,0,0,0,0,0,0,0,0,0,0,0,0,0,0,0,0,0,0,0,0,0,0,0,0,0,0,0,0,0,0,0,0,0,0,0,0,0,0,0,0,0-.1,0-3.9-2.5-7.9-2.6-12-.4-.3.1-.6,0-.8-.2-1-1.4-1.6-2.1-1.8-2.3-5-3.3-11.2-1.3-11.3,5.1,0,.3.2.6.5.7,1.7.8,2.8,1.8,3.2,3,3,9.2-3.3,18.2-12.2,20.7,0,0,0,0-.1,0,0,0,0,0,0,0,0,0,0,0,0,0,0,0,0,0,0,0,0,0,0,0,0,0,0,0-.1-.1-.1-.2,0,0,0,0,0,0,0,0,0-.2,0-.2,6.4-8.7,8.4-18.3,6-29-1.2-5.3-4-9.7-8.2-13-.2-.2-.3-.5-.1-.8ZM310,136.6c3.1,0,6-1.2,8.6-3.4,0,0,.1,0,.2,0,0,0,0,0,0,0,0,0,0,0,0,0,0,0,0,0,0,0,0,0,0,0,0,0,0,0,0,0,0,0,0,0,0,0,0,0,0,0,0,0,0,0,0,0,0,.1,0,.2.4,6.1,2.9,11,7.6,14.6.3.2.4.6.2.9-.1.3-.3.5-.7.8-.3.3-.6.6-.7.8-2.7,6-1,10.2,5.3,12.5,0,0,.1,0,.1.1,0,0,0,0,0,0,0,0,0,0,0,0,0,0,0,0,0,0,0,0,0,0,0,.1,0,0,0,0,0,0,0,0,0,0-.2,0-12.7,1.7-27.1-1.4-36.7-9-9.8-7.8-16.2-20.5-11.6-32.8,2-5.3,5.1-9,9.4-11.2,5.8-2.9,13.9-2.6,17.7,3.3,1.7,2.6,1.6,6.3-.2,8.8-2.1,3-6,2.9-8.6.4,0,0-.1,0-.2-.1,0,0,0,0,0,0,0,0,0,0,0,0,0,0,0,0-.1,0,0,0,0,0,0,0,0,0,0,0,0,0,0,0,0,0,0,0,0,0,0,0,0,0,0,0,0,.1-.1.2-2.8,7.9,1.9,13.3,9.8,13.2ZM353.9,120.5c-3.7-1.7-7.2-1.7-10.5-.1-3.4,1.7-4.8,4.2-4.2,7.6,1,5.3,8.2,6.8,10.3,1.4,0,0,0-.1.1-.2,0,0,0,0,0,0,0,0,0,0,0,0,0,0,0,0,0,0,0,0,0,0,0,0,0,0,0,0,0,0,0,0,0,0,.1,0,0,0,0,0,0,0,0,0,.1,0,.2.1,3.9,4.1,1,10.4-2.9,12.7-5.2,3-12.9.9-16.3-4.1-1.5-2.2-2.2-5-2.1-8.3.3-9.3,6.6-15.9,15.4-18.3,17-4.6,38.5,3.3,52.7,12.3,0,0,0,0,0,.1,0,0,0,0,0,0,0,0,0,0,0,0,0,0,0,0,0,0,0,0,0,0,0,0,0,0,0,0,0,0,0,0,0,0-.1,0-5-1.2-10-1.3-15.3,0-11.6,2.7-16.2,11.7-22.2,21.2-4.3,6.9-13.6,17.9-23.2,13.8-1.4-.6-2.5-1.7-3.1-3.1l-.7-1.7c0-.1,0-.2,0-.3,0,0,0-.1,0-.2,0,0,0-.1,0-.2,0,0,0-.1,0-.2,0,0,0,0,0-.1,0,0,0-.1,0-.2,0,0,0,0,0-.1,0,0,0,0,0,0,0,0,0-.2.1-.2,0,0,0,0,0,0,0,0,.1-.2.2-.2,0,0,.2-.1.2-.2,0,0,0,0,0,0,0,0,.1,0,.2-.1,0,0,0,0,.1,0,0,0,.1,0,.2,0,0,0,0,0,.1,0,0,0,.1,0,.2,0,0,0,.1,0,.2,0,0,0,.1,0,.2,0,.1,0,.2,0,.3,0,9.9,3.7,21.6-1.6,26.2-11.1,3.6-7.5.7-16.8-6.9-20.3ZM282.9,102.6c-9.5,7.3-13.7,17.2-12.8,29.5,0,0,0,.2-.1.2s-.2,0-.2-.1c-3.9-8.4-5.5-25.8,2.7-32.2,3.1-2.4,8.3-1.6,10.5,1.8.2.3.1.7-.1.9ZM273.1,143.9c.4,0,.8.2,1,.6,2.6,5.1,6.5,8.6,10.8,12.9,0,0,0,0,0,.1,0,0,0,0,0,0,0,0,0,0,0,0,0,0,0,0,0,0,0,0,0,0-.1,0-10.3-1.4-18.6,1.9-24.7,10,0,0-.2.2-.3.2,0,0,0,0,0,0,0,0,0,0,0,0,0,0,0,0-.1,0,0,0,0,0-.1,0,0,0,0,0-.1,0,0,0,0,0-.1,0,0,0,0,0,0,0,0,0-.2-.2-.2-.3-.2-.7-.5-1.2-.9-1.4,0,0,0,0,0,0,0,0,0,0-.1,0,0,0,0,0-.1,0,0,0,0,0-.1,0,0,0,0,0-.1,0,0,0,0,0-.1,0,0,0,0,0-.1,0,0,0,0,0,0,0,0,0,0,0,0,0-2.7,4-6.5,6-11.5,6,0,0,0,0-.1,0,0,0,0,0,0,0,0,0,0,0,0,0,0,0,0,0,0,0,0,0,0,0,0,0,0,0,0,0,0,0,0,0,0,0,0,0,0,0,0,0,0,0,0,0,0,0,0-.1.9-3,.4-5.8-1.3-8.5,0,0,0,0,0,0,0,0,0,0,0,0,0,0,0,0,0-.1,0,0,0,0,0-.1,0,0,0,0,0-.1,0,0,0,0,0,0,0,0,0,0,0,0,0,0,0,0,0,0,0,0,0,0,.1,0,8.5-4.2,15.8-12.1,18.2-21.7,0,0,0-.1,0-.2,0,0,0,0,0,0,0,0,0,0,0,0,0,0,0,0,0,0,0,0,0,0,0,0,0,0,0,0,0,0,0,0,0,0,0,0,0,0,0,0,0,0,0,0,.1,0,.2,0,2.3,2.5,5.7,3.6,10.2,3.4ZM257.6,181.6c0,.4-.2.7-.5.8-1.8.4-3,1.6-3.7,3.6,0,0,0,.2-.2.2,0,0,0,0,0,0,0,0,0,0,0,0,0,0,0,0,0,0,0,0,0,0,0,0,0,0,0,0,0,0,0,0,0,0,0,0,0,0,0,0,0,0,0,0-.2,0-.2-.2-1-1.5-2.5-2.9-4.6-4.3,0,0,0,0,0-.2,0,0,0,0,0,0,0,0,0,0,0,0,0,0,0,0,0,0,0,0,0,0,.2,0,3.4,0,6.2-.9,8.5-2.8,0,0,.1,0,.2,0,0,0,0,0,0,0,0,0,0,0,0,0,0,0,0,0,0,0,0,0,0,0,0,0,0,0,0,0,0,0,0,0,0,0,0,0,0,0,0,0,0,0,0,0,0,.1,0,.2l.5,2.7ZM232.9,157.8s0,0,0,0c0,0,0,0,0,0,0,0,0,0,0,0,0,0,0,0,0,0,0,0,0,0,0,0,0,0,0,0,0,0,0,0,0,0,0,0,0,0,0,0,0,0,0,0,0,0-.1,0-5.1-.5-10,.3-14.7,2.4,0,0,0,0-.1,0,0,0,0,0,0,0,0,0,0,0,0,0,0,0,0,0,0,0,0,0,0,0,0,0,0,0,0,0,0,0,0,0,0,0,0-.1,3.1-2.9,5.4-6.4,6.8-10.7,0,0,0,0,0,0,0,0,0,0,0,0,0,0,0,0,0,0,0,0,0,0,0,0,0,0,0,0,0,0,0,0,0,0,0,0,0,0,0,0,0,0,0,0,0,0,.1,0,0,0,0,0,.1,0,2.6,1.6,5.2,2.3,7.9,2,0,0,0,0,.1,0,0,0,0,0,0,0,0,0,0,0,0,0,0,0,0,0,0,0,0,0,0,0,0,0,0,0,0,0,0,0,0,0,0,0,0,0,0,0,0,0,0,0,0,0,0,0,0,.1-.6,2-.8,3.9-.6,6ZM220.5,171l13.4-2.6c.3,0,.7,0,.9.3,1.7,1.5,2.4,3.6,2.2,6.2,0,0,0,.1,0,.2,0,0,0,.1-.1.2,0,0,0,0,0,0,0,0,0,0,0,0,0,0-.1,0-.2,0,0,0-.1,0-.2,0-3.1-1.7-6.7-2.9-10.6-3.5-1.6-.3-3.3-.4-5.1-.6,0,0-.1,0-.1-.1,0,0,0-.1.1-.1ZM197.6,168c2.2,1.5,4.4,2.1,6.6,1.7,0,0,.2,0,.2,0,0,0,0,0,0,0,0,0,.1,0,.2,0,0,0,0,0,0,0,0,0,0,0,0,0,0,0,0,0,0,0,0,0,0,0,0,.1,0,0,0,0,0,0,0,0,0,.1,0,.2,0,0,0,0,0,0,0,0,0,.1-.1.2-4.6,6-10.6,8.6-18.2,7.9,0,0,0,0-.1,0,0,0,0,0,0,0,0,0,0,0,0,0,0,0,0,0,0,0,0,0,0,0,0,0,0,0,0-.2,0-.2,0,0,0,0,0,0,0,0,0-.1.1-.2,4.2-2.7,7.7-6,10.4-9.8.2-.2.5-.3.7-.1ZM171,154.3c1.8-7.4,9.2-14.4,17.1-10.2.3.2.8.1,1-.2,4.6-5.1,2.2-9.7-1.9-13.8-.1-.1-.1-.3,0-.4l2.1-2.6c.1-.1.3-.2.5,0,9.1,6.5,8.9,19.9,3.7,28.6-2.6,4.3-6.1,7.6-10.5,9.8,0,0,0,0-.1,0,0,0,0,0,0,0,0,0,0,0-.1,0,0,0,0,0,0,0,0,0,0,0,0,0,0,0,0,0,0,0,0,0,0,0,0,0,0,0,0,0,0,0,0,0,0,0,0-.1-1.6-5.7-5.1-9-10.5-10,0,0,0,0,0,0,0,0,0,0-.1,0,0,0,0,0-.1,0,0,0,0,0,0,0,0,0,0,0,0-.1,0,0,0,0,0-.1,0,0,0,0,0-.1,0,0,0,0,0-.1,0,0,0-.1,0-.2ZM160.8,169.7c.9-1.7,1.7-2.9,2.5-3.5,5.4-4.1,11.3,2,8.8,7.7-.4.9-1.6,2.2-3.7,3.8-8.3,6.4-15.2,14.1-20.7,23.1,0,0,0,0,0,0,0,0,0,0,0,0,0,0,0,0,0,0,0,0,0,0,0,0,0,0,0,0,0,0,2.9-8.5,7.3-18.8,13.4-31.1ZM289.9,519.7c-1.7,2.1-2.7,4.6-2.9,7.3,0,0,0,0,0,0,0,0,0,0,0,.1,0,0,0,0,0,.1,0,0,0,0,0,0,0,0,0,0,0,0,0,0,0,0-.1,0,0,0,0,0-.1,0,0,0,0,0-.1,0,0,0,0,0-.1,0-26.7-2.9-51.2-14.1-72.2-30.7,0,0,0-.2,0-.2,0,0,.1,0,.2,0,19,11.8,43.6,19.2,65.7,14.2,0,0,0,0,.1,0,0,0,0,0,0,0,0,0,0,0,.1,0,0,0,0,0,0,0,0,0,0,0,0,0,0,0,0,0,0,.1,0,0,0,0,0,.1-.2.9,0,1.8.3,2.7,1.6,3.8,4.6,5.7,8.9,5.5,0,0,.1,0,.2,0,0,0,0,0,0,0,0,0,0,0,0,0,0,0,0,0,0,0,0,0,0,.1,0,.2ZM303.4,479.7c-3.3,5.4-8.1,8.1-14.2,8.2,0,0,0,0,0,0,0,0,0,0,0,0,0,0,0,0-.1,0,0,0,0,0,0,0,0,0,0,0,0,0,0,0,0,0,0,0,0,0,0,0,0,0,0,0,0,0,0,.1,0,0,0,0,0,.1,1.4,18.6-29.2,16.4-40.1,14.5-11-1.9-21.2-4.7-30.9-10.6-14.4-8.9-26.9-18.3-37.4-31-.1-.1,0-.3,0-.4h0c.1-.1.3-.1.5,0,16.8,17,37.8,29.1,62.3,29.2,5.1,0,15.2-1.3,18.3-5.8,0,0,0,0,0-.1,0,0,0,0,0,0,0,0,0,0,0,0,0,0,0,0,0,0,0,0,0,0,0,0,0,0,0,0,0,0,0,0,0,0,0,0,0,0,0,0,0,0,0,0,0,0,.1.1,2.9,3.6,6,4.2,9.3,1.9,1.6-1.1,2-3.2,1.5-5.1,0,0,0-.1,0-.2,0,0,0,0,0,0,0,0,0,0,0,0,0,0,0,0,0,0,0,0,.1,0,.2,0,8.7,5.6,22.1,2.7,22.4-9.4.3-10.5-11-14.3-18.5-8.2,0,0-.1,0-.2,0,0,0,0,0,0,0,0,0,0,0-.1,0,0,0,0,0,0,0,0,0,0,0,0,0,0,0,0,0,0,0,0,0,0,0,0,0,0,0,0,0,0,0,0,0,0,0,0-.1,0,0,0,0,0,0,0,0,0-.1,0-.2,2.6-9.6,11.4-12,20.1-9.2,11.5,3.8,12.6,16.9,6.9,26.2ZM354.4,504.8s0,0,0,.1c0,0,0,0,0,0,0,0,0,0,0,0,0,0,0,0,0,0,0,0,0,0,0,0,0,0-.1,0-.2,0-2,.4-3.5,1.3-4.3,2.8-.7,1.1-1.1,1.8-1.2,2,0,0,0,0,0,0,0,0,0,0,0,0,0,0,0,0,0,0,0,0,0,0,0,0,0,0,0,0,0,0s0,0,0,0c0,0,0,0,0,0,0,0,0,0,0,0,0,0,0,0,0,0-6.5-5.6-10.7-12.9-12.6-21.9-1.7-7.7-.5-16.3,5.1-22,4-4.1,11.3-5.2,16.8-4,.3,0,.6-.1.7-.4,1.6-7-3.8-11.1-10.2-11.1-.4,0-.8-.3-1-.6-2.8-5.6-.2-11.7,4.3-15.5,5.6-4.6,12-6.3,19.1-5.2,0,0,.1,0,.2,0,0,0,0,0,0,0,0,0,0,0,0,0,0,0,0,0,0,0,0,0,0,0,0,0,0,0,0,0,0,0,0,0,0,0,0,0,0,0,0,0,0,0,0,0,0,.1,0,.2-7.4,9.1-2.4,22,8.4,25.5,0,0,0,0,0,0,0,0,0,0,0,0,0,0,0,0,0,0,0,0,0,0,0,0,0,0,0,0-.1,0-24.3,1.7-38.5,28.6-24.4,48.9,0,0,0,.1,0,.2,0,0,0,0,0,0,0,0,0,0,0,0ZM401,482.9l-14.3,12.9c-.2.2-.5.3-.8.2-2.3-.9-3.8-2.4-4.5-4.6-2.3-7.3,7.1-11,9.9-4.2,0,.1.1.2.2.3,0,0,0,0,0,0,0,0,0,0,0,0,0,0,0,0,0,0,0,0,.1,0,.2,0,0,0,.1,0,.2,0,0,0,.1,0,.2,0,0,0,.1,0,.2,0,0,0,.1,0,.2,0,0,0,0,0,0,0,0,0,.2-.1.2-.2l.4-.6c.8-1.2.8-2.7.1-3.9-2.3-4-5.5-5.8-9.6-5.4-7.5.7-11.9,4.4-13.3,11.3-1,5.1.7,11.2,4,15.3,0,0,0,0,0,0,0,0,0,0,0,0,0,0,0,0,0,0,0,0,0,0,0,0,0,0,0,0,0,0,0,0,0,0,0,0,0,0,0,0,0,0,0,0,0,0,0,0,0,0,0,0-.1,0l-3.3,1.9c-.6.4-1.4.4-2.1.2-10.1-3.9-14.4-14.5-9.4-24.3,6.3-12.5,19.7-16.8,32.3-10.4,4.3,2.2,7.4,5.5,9.3,9.9.1.3,0,.6-.2.8ZM420.3,460l-10.3,13.1s0,0-.1.1c0,0,0,0,0,0,0,0,0,0,0,0,0,0-.2,0-.2,0,0,0,0,0,0,0,0,0,0,0,0-.1-1.7-4.3-4.7-7.2-9-8.7,0,0-.1,0-.1-.1,0,0,0,0,0,0,0,0,0,0,0,0,0,0,0,0,0,0,0,0,0,0,0-.1,0,0,0,0,0,0,0,0,.1,0,.2,0,6.8-.2,13.3-1.6,19.5-4.2,0,0,.1,0,.2,0,0,0,0,0,0,0,0,0,0,0,0,0,0,0,0,0,0,0,0,0,0,0,0,0,0,0,0,0,0,0,0,0,0,.1,0,.2ZM436.1,434.4c-10.5,12.9-24,19.3-40.6,19.3-6,0-12.7-2-16.8-6.4-4.6-4.9-2.3-12.5,4.7-12.6,1.9,0,3.7.4,5.4,1.3,0,0,.1.1.2.2,0,0,0,0,0,0,0,0,0,0,0,0,0,0,0,0,0,0,0,0,0,0,0,0,0,0,0,0,0,0,0,0,0,0,0,0,0,0,0,0,0,0,0,0-.1.1-.2.2-4.4,1.6-7.1,6.7-3,10.4,3,2.7,7.6,2.1,10.2-.7.6-.7,1.3-1.6,2.2-2.9.2-.3.5-.4.8-.4,6.4-.2,12-2.2,16.7-6.1,2.7-2.2,4.3-4.8,6.3-7.7,0,0,0,0,.1-.1,0,0,0,0,0,0,0,0,0,0,0,0,0,0,0,0,0,0,0,0,0,0,0,0,0,0,0,0,0,0,0,0,0,0,0,0,0,0,0,0,0,0,0,0,0,0,.1.1,3,5.4,7.4,7,13.1,4.7,0,0,.1,0,.1,0,0,0,0,0,0,0,0,0,0,0,0,0,0,0,0,0,0,0,0,0,0,0,0,0,0,0,0,0,0,0,0,0,0,.1,0,.1ZM407.6,431.2s0,0,0,0c0,0,0,0,0,0,0,0,0,0,0,.1,0,0,0,0,0,.1,0,0,0,0,0,.1,0,0,0,0,0,.1,0,0,0,0,0,.1,0,0,0,0,0,.1,0,0,0,0,0,.1-2.3,1.9-5.1,3.1-8.5,3.6-.3,0-.6-.1-.8-.4-1.1-2.7-2.7-5-4.7-7.1,0,0,0-.1-.1-.2,0,0,0,0,0,0,0,0,0,0,0,0,0,0,0,0,0,0,0,0,0,0,0,0,0,0,0,0,0,0,0,0,0,0,0,0,0,0,0,0,0,0,0,0,.1,0,.2-.1,5.4-1.6,10-.3,13.8,3.7ZM398.9,418.7s0,0,0,0c0,0,0,0,.1-.1.5-.3,1.4-.6,2.8-1.2,2-.8,3.7-1.9,5.2-3.5.2-.2.5-.2.7,0,2.4,2,2.9,4.5,1.7,7.5,0,0,0,0,0,0,0,0,0,0,0,0,0,0,0,0,0,.1,0,0,0,0-.1,0,0,0,0,0-.1,0,0,0,0,0-.1,0,0,0,0,0-.1,0,0,0,0,0-.1,0,0,0-.1,0-.2,0-3.1-1.7-6.2-2.6-9.3-2.7,0,0-.1,0-.1,0,0,0,0,0,0,0,0,0,0,0,0,0,0,0,0,0,0,0,0,0,0,0,0,0ZM421.3,415.6s0,0,0,0c0,0,0,0,0,0,0,0,0,0,0,0,0,0,0,0,0,0,0,0,0,0,0,0,0,0,0,0,0,0,0,0,0,0,0,0,0,0,0,0,0,0,0,0,0,0-.1,0-1.2,0-2.3.1-3.4.7,0,0,0,0-.1,0,0,0,0,0,0,0,0,0,0,0-.1,0,0,0,0,0,0,0,0,0,0,0,0,0,0,0,0,0,0-.1,0,0,0,0,0,0,0,0,0,0,0-.1-.3-3.5-1.9-6.3-5-8.4-.2-.2-.3-.5-.1-.7,1.9-3,3.2-6.4,3.9-10.2,0-.4.4-.6.7-.7,2.9-.2,6.4-1.7,10.4-4.5,0,0,.1,0,.2,0,0,0,0,0,0,0,0,0,0,0,0,0,0,0,0,0,0,0,0,0,0,.1,0,.2-4.5,7.4-6.4,15.1-5.6,23.3ZM467.8,322.8c0,0,0-.4,0-.9,0,0,0,0,0,0s0,0,0,0c0,0,0,.2,0,.2,0,0,0,.2,0,.2-2.7,35.5-11.4,70.2-26.7,102.3-.1.3-.4.5-.8.5-6.9-.4-8.7-7.1-8.1-13,1-10.2,5.7-21.2,10.4-30.3,5.1-10,10.3-20.1,15.6-30.2,3.2-6.3,5.5-12.4,6.9-18.3,1.6-6.8,2.4-10.2,2.4-10.4ZM411.5,149.4s0,0,0-.1c0,0,0,0,0,0,0,0,0,0,0,0,0,0,0,0,0,0,0,0,.1,0,.2,0,3.7,1.4,6.2.4,7.5-3.2,0,0,0-.1.1-.1,0,0,0,0,0,0,0,0,0,0,.1,0,0,0,0,0,.1,0,0,0,.1,0,.2.1,6.6,8.8,12.4,17,17.6,26.7,20.2,37.4,28.8,77.6,25.9,120.5-1.7,24.1-7.5,48-20.1,68.5-6.8,11.1-20.2,26.6-35,24.2-4.2-.7-7.5-4.7-4.3-8.7.5-.6,1.7-1.3,3.6-2.1.3-.1.4-.5.3-.8-.4-1-1.1-1.9-2.1-2.9-7.4-6.8-21.8-4.6-23,6.9-1.2,11.5,12.5,18.3,21.9,18.8,0,0,0,0,0,0,0,0,0,0,0,0,0,0,0,0,0,0,0,0,0,0,0,0,0,0,0,0,0,0,0,0,0,0,0,0,0,0,0,0,0,0,0,0,0,0,0,0,0,0,0,0,0,.1-1,6.7-5.6,13.8-12.7,14.3-3.9.3-6.9-1-8.8-3.9-2.7-4.1,1.8-7,5.7-6,0,0,.2,0,.3,0,0,0,0,0,0,0,0,0,0,0,0,0,0,0,0,0,.1,0,0,0,0,0,0,0,0,0,0,0,0,0,0,0,0,0,0-.1,0,0,0,0,0,0,0,0,0-.2,0-.3-3.6-12.3-21.6-5.3-16.3,7.6,1.9,4.7,5.7,8,11.5,9.9,0,0,0,0,.1,0,0,0,0,0,0,0,0,0,0,0,0,0,0,0,0,0,0,0,0,0,0,0,0,.1l-2.9,2.6c-.1.1-.3.2-.5.1-15.6-4.9-28.8-1.7-39.6,9.6-.2.2-.6.3-.9.2-2.9-1.1-5.6-1.6-7.9.4-2.7,2.4-2.1,6.3,1,8,.3.2.4.5.4.8-1.4,6.6-6,11.2-13,8.3,0,0,0,0,0,0,0,0,0,0,0,0,0,0,0,0,0,0,0,0,0,0,0,0,0,0,0,0,0,0,0,0,0,0,0,0,0,0,0,0,0,0,0,0,0,0,0,0,0,0,0,0,0,.1-.3,1.1-.2,2,.1,2.8,1.8,3.9,4.9,5.7,9.3,5.4,1,0,2.2-.6,2.6-.5,0,0,.1,0,.2,0,0,0,0,0,0,0,0,0,0,0,0,0,0,0,0,0,0,0,0,0,0,0,0,0,0,0,0,0,0,0,0,0,0,0,0,0,0,0,0,0,0,0,0,0,0,.1,0,.2-3.2,3.9-5.4,8.4-6.4,13.7,0,.3-.3.5-.6.5-3.5.2-5.5,1.7-6.2,4.5-.7,3.1.4,5.5,3.3,7,0,0,0,0,.1.1,0,0,0,0,0,0,0,0,0,0,0,0,0,0,0,0,0,0,0,0,0,0,0,.1,0,0,0,0,0,0,0,0-.1,0-.2,0-3.1,0-5.9.9-8.4,2.6,0,0-.1,0-.2,0,0,0,0,0,0,0,0,0,0,0,0,0,0,0,0,0,0,0,0,0,0,0,0,0,0,0,0,0,0,0,0,0,0-.1,0-.2,4.5-9.2,4.5-18.8,0-28.8-7.5-16.8-26.7-23.9-42.7-14.3-4.3,2.6-7.7,6.4-10.3,11.6-.1.3-.4.4-.7.4-.5,0-1.4-.7-2-.8-4.6-.5-7.6,1.7-9,6.5,0,0,0,.2,0,.3,0,0,0,0,0,0,0,0,0,0,0,0,0,0,0,0,0,0,0,0,0,0,0,0,0,0,0,0,0,0,0,0,0,0,0,0,0,0,0,0,0,0,0,0,.2,0,.3,0,8.7-3,13.9,7.4,7,13.6-8.3,7.5-21.3,6.3-31.5,2.9-21.8-7.2-38.8-22.5-53.3-40-18.8-22.5-30.9-48-36.5-76.6-1.6-8.2-3-16.6-4.1-25.3,0,0,0-.2,0-.2,0,0,0,0,0,0,0,0,0,0,0,0,0,0,0,0,0,0,0,0,.2,0,.2,0,4.9,3.6,10.1,4.8,15.3.9,0,0,0,0,.1-.1,0,0,0-.1,0-.2,0,0,0,0,0,0,0,0,0,0,0,0,0,0,0,0,0-.1,0,0,0,0,0,0,0,0,0,0,0,0,0,0-.2-.2-.3-.2-11.5-1.6-14.7-24.4-15-33.1-.7-17.3,2.7-36.9,12-52,2.9-4.7,8.9-9.8,15.1-7.4,2.2.8,4.6,1.9,6.2,1.4,1.5-.5,2.4-2.4,3.6-3,4.7-2.7,10.2.6,11.5,5.5,0,0,0,.2.1.2,0,0,0,0,0,0,0,0,.1.1.2.2,0,0,0,0,.1,0,0,0,0,0,.1,0,0,0,.2,0,.2,0,0,0,.2,0,.2-.1,5.2-4.1,5.6-8.7,1.4-13.9,0,0,0-.1,0-.2,0,0,0,0,0,0,0,0,0,0,0-.1,0,0,0,0,0,0,0,0,0,0,0,0,0,0,0,0,0,0,0,0,0,0,0,0,0,0,0,0,0,0,0,0,.1,0,.2,0,6.7-2.2,16-1.1,19.9,5.6.7,1.3.9,3,.5,5.3-.5,2.9-3.4,4.1-5.8,2.4,0,0,0,0,0,0s0,0,0,0c0,0,0,0-.1,0,0,0,0,0,0,0,0,0,0,0,0,0,0,0,0,0,0,0,0,0,0,0,0,0,0,0,0,0,0,0,0,0,0,0,0,.1-2.1,4.9,2.7,8.3,7.1,8.2,3.8,0,6.7-1.5,8.7-4.3,4.6-6.5,4-16.2-1.6-21.9-4-4-8.8-5.8-14.4-5.5,0,0,0,0-.1,0,0,0,0,0,0,0,0,0,0,0,0,0,0,0,0,0,0,0,0,0,0,0,0,0,0,0,0,0,0,0,0,0,0,0,0,0,0,0,0,0,0,0,0,0,0,0,0,0,0,0,0,0,0,0,0,0,0,0,0-.1,1.8-1.9,2-3.9.5-5.9-.2-.3-.2-.7,0-1,4.4-5.4,3.7-14.6-3.9-16.7-.3,0-.6,0-.7.4-1.7,3.8-4.6,6.7-8.7,8.4-.2,0-.5,0-.6-.2,0,0,0-.3,0-.7,0-.2,0-.4,0-.6-.9-3.5-3.3-6.1-7.2-7.6,0,0-.1,0-.2,0,0,0,0,0,0,0,0,0,0,0,0,0,0,0,0,0,0,0,0,0,0,0,0,0,0,0,0,0,0,0,0,0,0,0,0,0,0,0,0,0,0,0,0,0,0,.1,0,.2.6,2.8,0,5.4-1.7,7.7-5.8,8-14.9,13.1-21.2,20.8-8.2,10.1-14.9,21-20.1,32.7,0,0,0,0,0,0,0,0,0,0,0,0,0,0,0,0,0,0,0,0,0,0,0,0,0,0,0,0,0,0,0,0,0,0,0,0,0,0,0,0,0-.1,3.5-18.7,14.1-37.6,25.6-52.3,10-12.8,22.4-21,39.1-21.1.3,0,.7.2.9.5.1.2.2.4.2.7,0,.2.1.5.3.8,2.9,4.2,8.4,5,11.1.2,1.1-2,0-4.2-1-5.9,0,0,0,0,0,0,0,0,0,0,0,0,0,0,0,0,0-.1,0,0,0,0,0-.1,0,0,0,0,0-.1,0,0,0,0,0,0,0,0,0,0,0,0,0,0,0,0,0,0,0,0,0,0,0,0,4.7-2.9,9.3-2.8,13.7,0,6.1,4,7.4,12.5,2.4,17.9-.3.3-.3.8,0,1,5,4.8,13.2,4.4,16.7-1.9,0,0,0,0,.1-.1,0,0,0,0,0,0,0,0,0,0,0,0,0,0,0,0,0,0,0,0,0,0,.1,0,0,0,0,0,0,0,0,0,0,0,0,.2.8,7,4.2,11.8,10,14.4,6.1,2.8,14.2,1.6,18.4-3.8,2.6-3.3,3.3-6.8,2.1-10.3-2.2-6.7-10.7-10.1-15.4-3.5,0,0,0,.1,0,.2,0,0,0,0,0,0,0,0,0,0,0,0,0,0,0,.1.1.2,0,0,0,0,0,0,0,0,.1,0,.2,0,3.6-.2,4.4,4.4,1.4,5.3-1.3.4-2.6,0-3.6-1.1-2.1-2.2-2.6-5.1-1.7-8.7,0,0,0,0,0-.1,0,0,0,0,0,0,0,0,0,0,0,0,0,0,0,0,0,0,0,0,0,0,0,0,0,0,0,0,0,0,0,0,0,0,.1,0,0,0,0,0,.1,0,0,0,.1,0,.2,0,2.7,1.3,5,.9,7-1.3.2-.2.6-.3.8-.1,3.3,1.9,6.2,2.7,8.7,2.4,7.6-1,10.5-5.4,8.7-13.3,0,0,0,0,0-.1,0,0,0,0,0,0,0,0,0,0,0,0,0,0,0,0,0,0,0,0,0,0,0,0,0,0,0,0,0,0,0,0,0,0,0,0,0,0,0,0-.1,0,0,0-.1,0-.2,0-5.2,2.7-8.5-2-6.1-6.9,4.8-9.8,22.8-4.1,19.6,7.7,0,0,0,0,0,0,0,0,0,0,0,0,0,0,0,0,0,.1,0,0,0,0,0,0,0,0,0,0,0,0,0,0,0,0,0,0,0,0,0,0,0,0,0,0,0,0,0,0,0,0,0,0,.1,0,2.4.4,4.5-.1,6.2-1.6,3.7-3.1,4.6-6.7,2.6-10.9,0,0,0-.1,0-.2,0,0,0,0,0,0,0,0,0,0,0,0,0,0,0,0,0,0,0,0,0,0,0,0,0,0,0,0,0,0,0,0,0,0,0,0,0,0,0,0,0,0,0,0,.1,0,.2,0,20.3,5.5,42.5,3.7,57.9-11.4.6-.6,1-.8,1.2-.7.3.2.6.3.9.5.4.2.6.3.8.3,3.8.1,5.8-1.5,6-4.9,0,0,0-.1,0-.2,0,0,0,0,0,0,0,0,0,0,0,0,0,0,0,0,0,0,0,0,0,0,0,0,0,0,0,0,0,0,0,0,0,0,0,0,0,0,0,0,0,0,0,0,.1,0,.2,0,3,2.3,6.1,2.4,9.1.2,5.5-4.1,3-12.8-4.3-12,0,0-.1,0-.2,0,0,0,0,0,0,0,0,0,0,0,0,0,0,0,0,0,0,0,0,0,0-.1,0-.2,6.7-6.7,14.7-8.8,23.9-6.2,5.7,1.6,11.5,7.9,7.9,13.9-1.5,2.4-3.5,3-6,1.7,0,0,0,0,0,0,0,0,0,0,0,0,0,0,0,0-.1,0,0,0,0,0,0,0s0,0,0,0c0,0,0,0,0,0,0,0,0,0,0,0,0,0,0,0,0,0,0,0,0,0,0,0-4,8.9,11.9,12.2,11.6,1.1ZM164.7,230.1c1.4-3.9,3.9-6.8,7.5-8.7,5-2.6,10.3-3,15.8-1.3,0,0,.2,0,.2.2,0,0,0,0,0,0,0,0,0,0,0,0,0,0,0,0,0,0,0,0,0,0,0,0,0,0,0,0,0,0,0,0,0,.2-.2.2l-22.8,9.8c0,0-.2,0-.2,0,0,0,0,0,0,0,0,0,0,0,0,0,0,0,0,0,0,0,0,0,0,0,0,0,0,0,0,0,0,0,0,0,0,0,0,0,0,0,0,0,0,0,0,0,0-.2,0-.2ZM408.4,123.5h0c0,0-.2.1-.3,0-9.4-8-20.2-14.4-32.5-19.2-9.4-3.7-19.7-5.2-29.4-2.6,0,0,0,0-.1,0,0,0,0,0,0,0,0,0,0,0,0,0,0,0,0,0,0,0,0,0,0,0,0,0,0,0,0,0,0,0,0,0,0,0,0,0,0,0,0,0,0,0,0,0,0-.1,0-.2,0-.8.6-2.1.4-2.9-1.1-5.8-4.7-8.1-10.7-6.9,0,0-.1,0-.2,0,0,0,0,0,0,0,0,0,0,0,0,0,0,0,0,0,0,0,0,0,0,0,0,.1,0,0,0,0,0,.1,0,0,0,0,0,.1,0,0,0,0,0,.1,0,0,0,0,0,.1,0,0,0,0,0,0,0,0,0,.1.1.2,2.4,2.2,3.4,4.9,2.8,8,0,0,0,0,0,.1,0,0,0,0,0,0,0,0,0,0,0,0,0,0,0,0,0,0,0,0,0,0,0,0,0,0,0,0,0,0,0,0,0,0,0,0,0,0,0,0,0,0,0,0,0,0,0,0,0,0,0,0,0,0,0,0,0,0,0-.1-2-3.9-5.5-4.9-10.4-3,0,0-.1,0-.2.1,0,0,0,0,0,0,0,0,0,0,0,0,0,0,0,0,0,0,0,0,0,.1,0,.2,0,0,0,0,0,0,0,0,0,0,0,0,0,0,0,.1,0,.2,0,0,0,0,0,0,0,0,0,0,0,0,0,0,.1,0,.2.1,3.2,1.6,4.7,6,2,8.9-3,3.1-5,6.7-5.9,10.7,0,.1,0,.2-.2.2-.1,0-.2,0-.2-.2-1.4-8.4-5.6-14.4-12.6-18.2-6.6-3.5-15.6-3.3-22.2,0,0,0-.1,0-.2,0,0,0,0,0,0,0,0,0,0,0,0,0,0,0,0,0,0,0,0,0,0,0,0,0,0,0,0,0,0,0,0,0,0,0,0,0,0,0,0,0,0,0,0,0,0-.1,0-.2v-1.7c0-.4.3-.7.6-.7,3.8-.3,6.8-2.1,8.8-5.2,6.5-9.8-5.5-20.9-15.1-15.4-4,2.3-5.9,5.6-5.6,10.1,0,0,0,0,0,0,0,0,0,0,0,0,0,0,0,0,0,0,0,0,0,0,0,0,0,0,0,0,0,0,0,0,0,0,0,0,0,0,0,0,0,0,0,0,0,0,0,0,0,0,0,0-.1,0-9.2-.4-19.5,4.3-21.7,13.9,0,0,0,.1-.1.2,0,0,0,0,0,0,0,0,0,0,0,0,0,0-.1,0-.2,0,0,0,0,0,0,0,0,0-.2,0-.2-.1-6.8-8-14.4-9.1-24.6-8.1,0,0,0,0-.1,0,0,0,0,0,0,0,0,0,0,0,0,0,0,0,0,0,0,0,0,0,0,0,0,0,0,0,0,0,0,0,0,0,0,0,0,0,32.3-20.4,67.2-26.2,104.8-17.4,0,0,.1,0,.1.2,0,.1-.1.2-.3.2-7.9-.5-23,.6-25.8,9.8-2.4,7.6,6.4,13,13.1,12.4,0,0,.1,0,.1,0,0,0,0,0,0,0,0,0,0,0,0,0,0,0,0,0,0,0,0,0,0-.1,0-.2-2.3-2.2-2.5-4.8-.7-7.8,3.5-5.9,13.7-6,20-5,7.8,1.2,15.6,3.6,23.5,7.2,17.1,7.8,32.2,18.2,45.3,31.2,0,0,0,.2,0,.3Z"/>
</svg>