<?xml version="1.0" encoding="UTF-8"?>
<svg id="Layer_2" xmlns="http://www.w3.org/2000/svg" version="1.1" viewBox="0 0 600 600">
  <!-- Generator: Adobe Illustrator 29.3.1, SVG Export Plug-In . SVG Version: 2.1.0 Build 151)  -->
  <defs>
    <style>
      .st0 {
        fill: #fff;
      }
    </style>
  </defs>
  <rect x="-11.8" y="-18.5" width="623.6" height="636.9"/>
  <g>
    <path class="st0" d="M551.3,264.6c-.1-4.6-4.9-6.7-8.8-7.2,0,0,0,0-.1,0-.2-.1-.3-.4-.2-.6,1.2-2.4,4.1-8.1,2.7-10.2-1.8-2.8-2.9-4.4-3.1-4.9-.2-.4-.3-.8-.3-1.2v-5c0-.2,0-.4.1-.6.8-1.7,3.1-5.8,2.3-7.7-2.5-5.6-3.8-8.6-3.9-9,0,0,0-.1-.1-.2l-7.1-6.9c-.1-.1-.2-.2-.1-.4,0-.2.3-.4.5-.3l1.9.4c0,0,.2,0,.3,0,.1-.1,0-.3,0-.4l-1.4-1.4c-.2-.2-.3-.4-.3-.7,0-1,.4-1.9,1.1-2.6.1-.1.3-.2.5-.3.7,0,1.3-.3,1.9-.7,0,0,0,0,0,0,.2,0,.5,0,.5.2l.5,1.4c0,0,.1.1.2.1.1,0,.2,0,.2-.2.1-1.3,0-2.2-.5-2.8-.2-.2-.3-.5-.3-.8,0-.7-.1-1.7-.5-2.8,0,0,0-.1-.1-.2-.1,0-.3,0-.3.1l-.5,1.2s0,0,0,0c-.1.2-.4.3-.6.2l-1.4-.8c-.2-.1-.3-.3-.4-.6,0-1-.2-1.8-.5-2.4,0-.2-.3-.4-.5-.4-1.2-.3-2.3.1-3.3,1.3-1.9,2.3-2.6,4.5-4.3,6.5,0,0,0,.1,0,.2,0,.1.1.2.2.2,1.5,0,3.1.2,4.7.8.1,0,.3.2.4.3.2.3.1.8-.2,1-1.1.7-2.1,1-3.3.8-3.8-.5-7.2-1.5-10.1-3-.2-.1-.3-.3-.3-.6,0-.3.3-.6.6-.6h1.7c0,.1,0,.1.1,0,.2,0,.4-.3.3-.5-.1-.4-.6-.9-1.4-1.3,0,0-.1,0-.1-.1-.2-.2-.2-.6,0-.8l2.2-2.2s0,0,0-.1c.2-.3,0-.7-.2-.9-1.2-.7-2.6-1.3-4.3-1.6,0,0,0,0,0,0-.2,0-.4.1-.4.4,0,.9-.6,1.9-1.7,3,0,0,0,0-.1,0-.2,0-.4,0-.5-.2-.1-.3-.4-.4-.8-.4,0,0,0,0,0,0,0,0,0,0,0,.1l.9.9c.2.2.2.4.2.7-.2.7-.6,1.3-1.2,1.8-.4.4-.7.3-1,0-.2-.4-.3-.8-.2-1.2,0-.1,0-.2,0-.3-.1-.2-.4-.2-.6,0-1.2.9-2.6,1.4-3.9.3-1.9-1.6-1.8-3.6.3-5.8,0,0,0,0,0-.1.2-.3.1-.8-.2-1-1.3-.9-.8-2.1-1.2-3.2-.5-1.5-1.2-2.6-1.9-3.4,0,0-.1,0-.2,0-.2,0-.3.1-.3.3,0,1.4,0,2.4.2,3.2.2.8.2,1.5,0,1.9-.6,1.7-2.7.4-3.9-.3,0,0,0,0,0,0-.2,0-.4,0-.5.2l-1.8,4.2s0,0,0,.1c0,.1.1.2.3.2l6.5-1s0,0,0,0c.2,0,.4.2.4.4,0,2.4.2,7.1-3.7,6.5-.4,0-.7,0-1.1,0-4.5,1.2-8,2.2-10.6,3-2.7.9-4.3.1-4.8-2.5,0-.4-.5-.7-.9-.7-.9,0-2,0-3.2-.4-.3,0-.4-.3-.4-.6,0-.1.2-.5.5-1,0,0,0,0,0,0,0-.2,0-.4-.2-.5-2.1-1-3.3-2.2-3.8-3.6-.8-2.7,2.2-4.6,4.3-5.9.2-.1.5-.2.8-.1.7.2,1,.9.9,2.1-.1,1.6-.3,3.1-.4,4.5,0,0,0,0,0,0,0,.3.3.4.5.4,1.1-.1,1.9.4,2.5,1.5.1.2.4.3.6.2,3.5-1.7-1-5.8,1.2-8,.4-.4,1.1-.4,1.6,0,1.2,1,2.8,3.1,1.5,4.5-.2.2-.2.5,0,.7.5.8,1.2,1.2,1.9,1.4,0,0,0,0,.1,0,.2,0,.3-.2.3-.4l-.6-4.2c0-.5.1-.9.5-1.2l2-1.6c.5-.4.7-1.2.3-1.8l-3-4.8c0-.2-.1-.4-.1-.5,0-.5.5-.8.9-.7,2.7.4,5.7-.4,7.2,2.5.2.3,0,.7-.2.9-1.3.8-2.4,1.9-3.3,3.1,0,.1-.1.3,0,.5.1.2.4.4.6.2,1.8-.8,3.3-.6,4.5.6,0,0,.1,0,.2,0,.2,0,.3-.1.3-.3l-.3-5.7c0-.2,0-.4.3-.5,1.3-1,2.7-1.6,4.1-1.9,0,0,0,0,0-.1,0,0,0-.1-.1-.2l-2.8-.2c-.4,0-.7-.2-.9-.5-.3-.5-.2-1.2.4-1.6l1.7-1c0,0,.1-.1.2-.2,0-.2,0-.4-.3-.4-1.8-.5-3.8-.1-7.1.2,0,0-.2,0-.2,0-.3-.1-.5-.4-.4-.7.4-1,.8-1.8,1.3-2.3,0,0,0,0,0-.1,0-.2,0-.3-.2-.4l-4.6-1.7c-1.1-.4-2.2-.3-3.2.3l-5.6,3.5c-.1,0-.2.2-.3.3-4,4.9-7.8,10.1-11.2,15.6,0,.1-.1.2-.2.4l-1.6,6.6s0,0,0,0c0,.2.1.5.4.5h.5c0,.1.1.2.2.3,0,.1,0,.3,0,.4l-3.6,2.3c0,0-.2,0-.3,0-.2,0-.4-.3-.3-.5.7-3.1,3.7-6.2,1.8-10.1,0,0-.1-.2-.2-.3-.5-.7-1.6-.7-2.3-.2-1.9,1.5-3.4,3.4-4.3,5.8-.2.5-.6.9-1.1,1.4,0,0-.1.1-.1.2-.1.3,0,.6.3.7.5.3,1.1.4,1.6.4,0,0,.2,0,.2,0,.2.1.3.4.1.6-1,1.6-.7,2.8,1,3.6,0,0,0,0,.1.1,0,.1,0,.3,0,.4-1,.6-2.1,1.1-3.5,1.3,0,0,0,0,0,0-.6,0-1.2-.3-1.3-1l-.8-5.6c0-.2,0-.5.1-.7l.3-.4c0,0,0-.1,0-.2,0-.2-.2-.4-.4-.4h-1.3c0,0,0,0-.1,0-.2,0-.3.3-.3.5.6,2,1.1,4,1.6,6.1,0,.4,0,.7,0,.9-.2.3-.4.4-.7.3-2-.5-3.3-.7-3.9-.8-.3,0-.5-.2-.7-.4-2.3-2.3-1.6-4.1-2.1-6.3,0-.3,0-.7.4-.9,1.6-.9,3-2.2,4.2-4.1,0,0,0,0,0-.1.1-.3,0-.7-.4-.8l-3.9-1.4c-.3-.1-.7,0-.8.4-1,2.7-2.5,5.3-4.6,7.8-.2.2-.4.4-.6.5l-1.2.8c-.2.1-.3.3-.2.5.1.4.1.9,0,1.4,0,.3-.3.5-.5.6-.8.3-1.5.4-2.3.3-.1,0-.2-.1-.3-.2,0-.3,0-.6.4-.8.6-.4.8-.8.7-1.2,0,0,0-.1-.2-.2-.2-.1-.4,0-.6.1l-1.2,2c0,.2-.2.3-.4.3l-2.7.4s0,0,0,0c0,0-.1,0-.1.2,0,.1,0,.3-.1.4,0,0,0,0-.1,0-.1,0-.2,0-.2-.2v-.3c0-.2-.2-.5-.4-.6l-1.9-1.3c-.3-.2-.4-.5-.3-.8l.3-1.4s0,0,0-.1c0-.2-.2-.3-.4-.2-1.4.3-2.4,0-3.4-1.2-.6-.7-1.1-1.1-1.4-1.2-2-.5-3.8-1.3-5.2-2.2-.2,0-.4,0-.5,0l-3.3,4.6c-.1.1-.2.2-.4.3-.5.2-.9,0-1.1-.5l-1.2-3.3c0-.2-.2-.3-.4-.3l-2.3.3c-.3,0-.6.3-.6.6v1c0,.1-.1.3-.3.4-.2.2-.5.1-.7,0-.2-.3-.3-.6-.1-1,1.1-2.2,2.5-3.9,4.5-5.1,0,0,0,0,0,0,.2-.1.2-.4,0-.5,0,0-.2-.1-.5-.3-1.3-.9-1.7-2.2-.2-3.3.7-.4,2-1.1,3.9-1.9,0,0,0,0,0,0,0,0,0,0,0,0-3.8.7-7.1,1-9.8,1.1-.7,0-1.3-.5-1.6-1.4,0-.2,0-.5.2-.6,1.5-1.1,3.2-2.3,4-3.1,3.6-3.5,6.4-6.2,8.4-8.1,0,0,0,0,0,0,0,0,0-.1,0-.1l-3.9-3.9s0,0,0,0c-.1,0-.2,0-.3,0-1.5,2.4-3.1,4.7-4.9,6.9-1.2,1.5-2.1,2.4-2.7,2.8-.3.2-.7.3-1,.3-.7,0-1.2.2-1.5.6,0,0-.1.1-.2.2-.3,0-.5,0-.6-.3l-.7-1.9s0,0,0-.1c-.1-.2-.4-.2-.5,0-1.3,1.2-1.8,2.5-1.7,3.9,0,.3-.2.5-.4.6-4.3,1-7.6,2.4-8.8,7-.6,2.2-1.1,4.6-1.8,7.4-.8,3.5-3.8,1.9-5.9,1.3-.4-.1-.8,0-1.1.3-1.5,1.5-3.5,2.2-5.8,2,0,0,0,0,0,0-.1,0-.2-.2-.1-.3l1.5-4.2c0,0,0-.1.1-.1.1,0,.3,0,.3,0l.7,1c0,0,.1.1.2.1.2,0,.3,0,.4-.2.2-.9,0-1.3-.8-1.3,0,0,0,0,0,0-.2,0-.4-.3-.4-.5,0-.3.2-.7.5-1,0,0,0-.1,0-.2,0-.2,0-.5-.3-.5,0,0,0,0,0,0,0,0,0,0,0,0-.3,0-.5-.4-.4-.7.3-1,.4-2.1.3-3.1,0-.3-.2-.4-.5-.5l-2.8-.2c0,0-.1,0-.2,0-.1.1-.1.3,0,.4.7.8,1,2,1.1,3.6,0,0,0,0,0,.1,0,0-.2.1-.3,0-.7-.5-1.6-.6-2.8-.5-.2,0-.4.2-.4.5v2.7c.1,0,.1.2,0,.3-.1.2-.4.3-.6.1-1.4-.9-2.5-.8-3.4.3-.3.3-.5.5-.6.5-.3,0-.5-.2-.7-.5,0-.1-.2-.2-.3-.2-.2,0-.4.2-.4.4v.8c0,0,0,.1,0,.2-.1.5-.6.7-1.1.6-1.8-.5-2.3-1.4-1.6-2.8,0,0,0,0,0,0,.1,0,.3,0,.4,0l.6.8s0,0,.1.1c.2.1.5,0,.6-.1.3-.5.1-1.3-.5-2.6,0,0,0-.1,0-.2,0-.3.2-.5.5-.5.9,0,2.1-.4,3.6-1,.1,0,.3,0,.4,0h2.1c.3-.1.5-.3.5-.6,0-1.6.3-3.1.8-4.5,0,0,0,0,0,0l-.5-6c0-.4.1-.7.4-1l2.1-2.1c.2-.2.3-.4.3-.6,0-.9,0-1.8-.5-2.8,0-.2-.3-.4-.6-.4h-2.7c-.7.2-1.4.7-1.6,1.4-.5,1.8,0,3,1.2,3.7,0,0,0,0,.1,0,.2.2.2.5,0,.7-1,1-2.1,1.4-3.3,1.4-.3,0-.5,0-.7.3-1.2,1.6-5.6,1.8-6.9,1.4,0,0,0,0,0,0-.2,0-.2-.3-.1-.5.6-1,1.1-2.3,1.3-3.8.2-.8.7-1.6,1.4-2,2.2-1.2,4.7-2.8,4.4-5.2-.5-3.8-3.3-6.4-7-6.5-4.2-.1-5.6,3.5-7.1,7,0,.2-.3.4-.6.3l-4.5-.7c-.2,0-.4,0-.6,0-3.2.7-6,1.9-8.5,3.6-.3.2-.7.2-.9,0-2.3-2.2-2-4.6-2.4-7.6,0,0,0,0,0-.1,0,0-.2,0-.2,0-1.3,1.6-2.3,2.5-2.9,2.7-3.6,1.5-6.4,2.7-8.5,3.7-2.1,1-3.6,2.6-4.3,4.7,0,.1-.1.2-.2.3-.2.1-.5,0-.7-.1-1.5-2.3-4-.7-5.9.3-.1,0-.2.2-.1.3,0,.1.2.2.3.1,1.3-.4,2.1,0,2.5,1.2,0,.2,0,.5-.2.6-1.4,1.4-3,1.9-4.7,1.5,0,0-.1,0-.2,0-.2,0-.3.3-.2.4l1.4,3.8c.2.7,0,1.4-.6,1.7l-3.5,2.2c-.1,0-.2.1-.4.1-.5,0-1-.3-1.1-.8l-.5-3.1c0-.2,0-.4,0-.5.7-2.1,1.9-4.7,0-6-.2-.1-.5-.1-.6,0-2.4,2.1-4,3.4-4.8,4-.3.2-.6,0-.9-.4,0,0,0,0,0,0,0,0-.1,0-.2,0,0,0,0,.2,0,.3.7,1.3.4,2.7-.8,4-.1.2-.4.2-.6.2-1.5-.4-3.2-.5-4.9-.3,0,0-.1,0-.2,0-.1.1-.2.3,0,.5,1.2,1.4,3.9,3.9,3.9,6,0,0,0,0,0,0,0,.3-.3.6-.6.5h-.6c-.3,0-.5,0-.6.3l-3.2,4.5s0,0-.1.1c-.2.1-.5,0-.6-.1l-2.4-3.8c0-.2-.3-.2-.5-.2-.7.2-1.3.4-1.6.3,0,0,0,0,0,0-.4,0-.6.3-.6.7v.8c0,.2,0,.4-.2.5-.2.2-.6.1-.8-.1-.2-.3-.2-.6,0-.9,1-2.1,2.6-3.9,4.6-5.3,0,0,0,0,.1-.1,0-.2,0-.3-.1-.4-.9-.4-1.4-.9-1.6-1.4-.3-.9.2-1.8,1.1-2.3.2,0,1.4-.7,3.6-1.7,0,0,0,0,0,0,0,0,0,0,0,0-3.6.6-6.7,1-9.2,1.1-1.1,0-1.8-.4-2.1-1.4,0-.2,0-.5.2-.6.8-.7,2.3-1.6,3.3-2.5,0,0,3-2.9,9-8.6,0,0,0,0,0,0,.2-.2.2-.4,0-.6l-3.4-3.4s-.1,0-.2-.1c-.3-.1-.6,0-.8.3-.6,1.4-6.1,10-8.6,9.8-.5,0-.8.1-1.1.5,0,0-.1.1-.2.2-.3,0-.6,0-.7-.3l-.6-1.7s0,0,0,0c-.1-.2-.3-.2-.5,0-1.5,1-2.1,2.3-1.9,3.8,0,.3-.1.5-.4.6-3.2.8-5.4,1.8-6.5,2.9-2.6,2.6-5,5.2-7.1,8-.6.8-1.7,1-2.5.5l-5-2.9c-.2-.1-.4-.4-.4-.6l-.2-1.1c0-.3-.3-.5-.5-.4h-2.5c0,.1,0,.1-.1.2-.1,0-.1.2,0,.3.5.8.8,1.5,1,2.3,0,0,0,0,0,.1,0,.4-.3.8-.7.8h-2.2c0,.1,0,.1,0,.1-.3,0-.6.3-.5.6l.2,4.8s0,0,0,0c0,.2.2.4.4.3h.3c0,0,.1,0,.2,0,.2,0,.2.3.2.4-.4.9-.8,1.5-1,1.6-1,.4-2.2.2-3-.7-.8-.8-1.7-1.9-2.8-3.2,0,0-.1,0-.2,0-.1,0-.3,0-.3.2l-.2,3.2c0,.2-.1.3-.3.4-.3.2-.6,0-.8-.2-.7-1.1-1.6-2.1-2.9-3-.3-.2-.4-.7-.3-1,.3-.6.8-1.2,1.7-1.8,0,0,0,0,.1,0,.2,0,.4,0,.5.2.2.6.4,1,.6,1.2.1.1.3.1.4,0v-.2c.2-.1.2-.3.1-.4l-.9-1.2c-.1-.2-.1-.4,0-.5l2.9-2.8s0,0,0-.1c0,0,0,0-.1-.1,0,0,0,0,0,0-1.6,1.1-3.2,2.3-4.8,2.1,0,0-.1,0-.2,0-.2-.1-.3-.4-.2-.6l1.5-2.6c0,0,0-.2,0-.3h0c0,0-.2,0-.2,0l-5.8,4.7s0,0,0,0c-.4.2-.9.1-1.1-.2-.9-1.3.2-2.3.7-3.6,0,0,0-.1,0-.2,0,0-.2,0-.3,0-2.1,2.2-4.4,3.8-6.9,4.9-.2.1-.4.3-.5.5,0,0,0,0,0,0-.1.3-.4.5-.7.5-.7,0-1.2.4-1.4,1.1,0,.2-.3.4-.5.4-.4,0-.7-.2-.7-.6-.5-5.7-.8-9.2-1-10.7-.1-.9-.3-1.5-.5-1.9,0,0,0,0-.1,0-.1,0-.2,0-.2.2l-.7,11.5c0,0,0,.2,0,.3-.2.3-.5.4-.8.2l-11-6.3c-.2-.1-.4-.4-.3-.7l.3-.7c0-.2,0-.5-.2-.7-.9-.6-1.5-.9-1.9-.9,0,0-.2,0-.3,0-.9,0-1.6.8-1.6,1.8,0,1.4-.7,2.5-2.2,3.3,0,0,0,0-.1,0-.1,0-.2-.1-.2-.3l.2-2.4c0-.4-.3-.8-.7-1-1.8-.5-2.9,0-3.5,1.1-.1.2,0,.5,0,.7.6,1.1,1.6,2.1,2.8,3.1,0,0,0,0,0,0,.2.2.2.5,0,.7l-2.9,3s-.1,0-.2.1c-.5.3-.9.2-1.3-.3,0,0,0,0,0,0-.1-.2-.4-.2-.6,0-.3.2-1,.4-1.9.6-.2,0-.4,0-.5-.2l-3.4-4.4c-.2-.3-.5-.4-.8-.4-1.5,0-2.5-.2-2.7-.5,0,0,0,0-.1,0-.2,0-.5,0-.6.2l-2.6,5.5c0,.2-.3.3-.5.2l-4.1-.9c-1.1-.2-2.2.1-3,.9l-1.2,1.2c-.6.6-1.4.8-2.1.6l-2.8-.8c-.2,0-.4,0-.4.3-.3,1.1-.6,1.8-1,2,0,0-.1,0-.2.1-.4.2-1,0-1.2-.4-.8-1.8-3.1-6.1-5.2-5.8-.3,0-.5,0-.7-.3-.4-.6-.4-1.5,0-2.8.1-.3,0-.6-.2-.8-1.5-1.2-2.4-2.4-2.8-3.7-.3-.9,0-1.9.6-2.5l3.9-3.9c0,0,.2-.1.3-.1.3,0,.5.1.6.4,0,.5,0,1.1-.2,1.8,0,0,0,0,0,.1v5c.1,0,.1,0,.1,0,0,.2.2.3.4.3h.3c.1,0,.2,0,.3,0l2.4,2s0,0,0,0c.2.1.5,0,.6-.2l.9-1.8c.1-.3.2-.5.2-.8.1-2.1,0-4,.9-5.1,0,0,0,0,0,0,.3-.3.7-.2,1,0,1.6,1.7,2,3.4,1.4,5.1,0,.2,0,.5.2.7l1.4,1.4s0,0,0,0c.1,0,.3,0,.3,0l.7-1.1c0-.1.1-.3.1-.5v-5.5c0-.3.1-.6.4-.7l1.2-.9c.2-.2.3-.5.1-.7l-3.4-5.4c0-.1-.1-.3,0-.5.8-1.9,2.9-.2,3.9-.7,0,0,0,0,.1,0,0-.1,0-.3,0-.3-.5-.3-.8-.7-.8-1.1,0,0,0,0,0,0,0-.3.2-.5.5-.5.5,0,.8.5.9,1.5,0,.5.4.8.9.8,1.6,0,2.6.9,3.2,2.4.1.3,0,.6-.2.8-1.2,1.2-2.2,1.9-3.1,2.3-.4.1-.7.6-.6,1,0,.5.5.9,1,.8,1.3-.2,2.6,0,3.7.3,0,0,0,0,.1,0,.2,0,.3-.2.3-.4,0-.3,0-1.6-.1-4,0-1.9.7-3.2,2.2-3.8,0,0,.1,0,.2-.2,0-.2,0-.4-.1-.5-.6-.3-1-.7-1.4-1.1,0,0,0,0,0,0-.1-.2,0-.4.1-.5l4.1-2.5s0,0,0,0c0,0,0,0,0,0-1,.2-1.5.2-1.7,0-.5-.7-1.5-.9-2.4-.5-2.1.8-3.4,1.4-3.9,1.7-.2.1-.5.1-.7,0-.4-.2-.7-.5-.9-.8-.1-.2-.1-.6,0-.8,1.1-1.5,2.5-2.8,4.1-3.9,0,0,0,0,0,0,0-.1,0-.3,0-.4l-3.3-2.3c-.2-.2-.6-.1-.8,0l-.8.8c0,0-.2.1-.3.1-.4,0-.6-.3-.6-.9,0-.3-.2-.5-.5-.6-.8-.1-1.5-.1-1.9,0-.1,0-.2.1-.3.3-.1.3,0,.6.2.7.7.3,1.2.6,1.4.9,0,0,0,0,0,.1,0,.2,0,.5-.3.6-3.7,1.3-5.9,2.2-6.6,2.5-3.2,1.4-6.7,6.2-8.5,9-2.8,4.5-5,7.7-6.6,9.8,0,0,0,0,0,0-.1.2,0,.6.2.7h.2c0,.1,0,.1,0,.1.3.2.4.6.2.9l-1.7,3c-.2.3-.2.6,0,.9.3.4.8.5,1.2.2l.6-.4s0,0,0,0c.2,0,.5,0,.6.3.3,1,1.7,2.8,4,5.6.3.4.5.9.6,1.5,0,.3-.2.5-.4.6h-.3c-.3,0-.6-.1-.6-.4-.1-.5-.4-.7-.8-.5-2.4.9-4,1.5-4.9,1.7,0,0,0,0-.1,0-.3,0-.6-.2-.6-.6v-.7s0,0,0,0c0-.2-.3-.4-.5-.3-.1,0-.2,0-.3,0-.3,0-.6,0-.8-.3l-1.6-2.2c-.3-.3-.6-.5-1.1-.6-.8,0-1.5.6-1.5,1.3v1.6c-.1.2-.2.4-.4.6-.8.8-1.6,1.4-2.7,1.7,0,0-.1,0-.2,0-.3,0-.6-.3-.6-.6v-4.6c0,0,0-.2,0-.2,1.3-4.1,4.5-3,7.7-2.3.2,0,.4,0,.5-.3.5-1.9,1.6-6.9.2-8.2-.5-.5-1.5-.5-2.2,0-1.5,1.2-2.7,2.7-3.6,4.4-.1.2-.3.3-.5.4-.4,0-.7-.2-.7-.6-.2-1.9-1.2-2.8-2.9-2.8-.3,0-.5.2-.6.5-.2,1-.9,1.2-1.9.8-.1,0-.2,0-.3-.2-.6-.4-.8-1.3-.3-1.9.5-.7.8-1.1.8-1.1,0,0,0-.1,0-.2,0-.2-.2-.2-.4-.2-3.1.9-5.8,2.2-7.9,3.7-.1,0-.2.2-.2.3-.1.4,0,.8.4.9,2.2.9,1.9,4,.6,5.7,0,0-.1.1-.2.2-.3,0-.5,0-.6-.3l-1.5-4.3c0,0,0-.1,0-.1-.2-.2-.5-.2-.7,0-2,1.8-3.7,4.2-6.1,6.1,0,0,0,0-.1,0-.2,0-.4,0-.5-.2l-.8-2.3c0-.1-.1-.2-.3-.2-.2,0-.4,0-.5.3-.3,1.1.5,3.1.5,4.3,0,2.5-.8,4.6-2.5,6.5,0,0,0,0,0,0-.1.1-.3.1-.4,0l-3.3-3.3s0,0,0,0c-.2-.1-.4,0-.6,0-.8,1.1-1.7,1.2-2.7.2-.2-.2-.2-.6,0-.8l2.6-2.7c0-.1.2-.2.2-.4.4-1,.2-2-.5-3.1-.1-.2-.3-.3-.4-.3l-2.1-.4c0,0-.1,0-.2,0-.2,0-.2.2-.2.4l1.3,3.5c0,.2,0,.5,0,.7-.2.3-.7.4-1,.2l-.8-.6c-.3-.2-.6-.2-.9,0-.3.2-.6.4-1,.5-.3,0-.5.3-.4.6l.2,1.5c0,.3,0,.7-.4.9-.4.3-1,.3-1.4-.2l-.9-1.1c0,0,0,0-.2-.1-.2,0-.4,0-.5.2l-.4,1c-.1.2-.3.4-.6.4-.9,0-2.9.2-6,.7-3.7.6-2.3-3.3-3.6-4.8,0,0,0,0-.1,0-.1,0-.2,0-.2.2l-.2,3.6c0,.8-.6,1.4-1.3,1.5-1.4.3-2.3.4-2.6.3-.5,0-.9-.4-1.2-.9-.3-.8,0-1.6.8-2,.2,0,.7-.2,1.4-.2.1,0,.2,0,.3-.2,0-.2,0-.4-.2-.5-.5-.2-1-.6-1.5-1.1-.2-.2-.2-.5,0-.7.2-.3.5-.4.8-.2,1.9,1.1,2.6-.2,3-2,.4-1.7,1.2-3,2.3-3.9.2-.1.2-.3.1-.5-.9-2.2-1.2-4.5-1.1-6.9,0-.3-.1-.5-.3-.7-2.4-1.5-3.4-.7-5,1.5-1.3,1.7-2.5,3-3.7,3.7-.1,0-.1.2-.1.3,0,0,0,.4-.1,1.2,0,.2,0,0,0,0-.3-2-.3-4.5,0-7.5,0,0,0,0,0,0,0-.2-.2-.3-.4-.3-4.2.7-4.4,4.6-2.8,7.8,0,.1,0,.2,0,.4,0,.5-.3.9-.8.9h-2.1c0,.1,0,.1,0,.1-.2,0-.3.1-.3.3v1.5c0,.1,0,.2,0,.3-.2.2-.5.3-.8.1l-2-1.4c-.6-.4-1.4-.4-2,0l-2.1,1.3c-.2.1-.3.3-.3.5.1,2,0,4.2-.6,6.7,0,0,0,.2,0,.2-.3.5-.9.7-1.4.5-1.3-.6-1.7-1.8-2.6-3.5,0,0,0,0,0-.1-.2-.2-.5-.2-.7,0-1.5,1.4-3.5,2.2-6.1,2.4-.2,0-.4.1-.5.3l-2.4,3.4c0,0,0,.1,0,.2l-.2,1c0,.3-.3.5-.5.6-.4.2-.9,0-1.1-.5l-1-2.8c0-.2-.1-.3-.3-.4-2-1.8-3.5-3.8-4.5-6.1,0,0,0,0-.1,0,0,0-.2,0-.2.1l-2.3,8.2c0,.1,0,.2-.2.3l-3.8,3.8c-.2.2-.3.6,0,.9.6.7,1,1.3,1.2,2,0,0,0,.2,0,.3v3.6c0,.6.2,1.1.7,1.4,2.1,1.7,5,3.5,4.9,5.7,0,1.8-.4,3.6-.9,5.3,0,.2-.3.4-.5.5l-1.2.2c-.6,0-1.1.7-1,1.3l1.3,8.5c0,.2.2.4.5.3l1.5-.2c.3,0,.6.1.7.5.7,2.8.7,5.5.2,8.1,0,0,0,0,0,0,0,.2-.3.3-.5.3-2.1-.6-3.6-.1-4.3,1.5-1,2.2-.8,4.2.7,6,1.6,2,3,3.9,4.5,5.7.1.2.1.4,0,.5-1.1,1.1-2.1,2.1-2.6,3.8-.8,2.9-.8,5.8-.1,8.7.1.5.7,1.1.9,1.5,0,0,0,0,0,0,.1.2,0,.4-.2.6-.5.3-1.1.5-1.8.5-.2,0-.3,0-.4.2-.3.3-.3.7,0,1l1.5,1.5s0,0,0,0c.2.2.5.2.7,0l.9-.9c0,0,.2,0,.3,0l.2.2s0,0,0,0c.1.2,0,.4-.1.6l-.5.3c0,0-.2.1-.2.2-.5.5-.5,1.4,0,1.9l2.1,2.1c0,0,.1.2.1.3l.3,5.4c0,.5-.2,1-.5,1.4l-2,2s0,.1-.1.2c-.1.3,0,.6.3.7.4.2.9.6,1.3,1.1.2.2.2.5.1.7-.5,1.2-.5,2.7-.2,4.4,0,.4,0,.9-.1,1.3-1,2.4-1.1,4-2.6,6.4-1.4,2.1-1.3,4.4-.4,7,.5,1.6.7,2.9.5,3.8,0,.2,0,.5.2.7.5.5.7,1.2.6,2.2,0,.1,0,.3,0,.4.2.4.6.6,1,.4.8-.4,1.5-.5,1.9-.3,0,0,0,0,0,0,.2,0,.5-.1.5-.3v-.5c.2-.3.3-.5.6-.6.6-.2,1.2-.3,1.7-.2,0,0,0,0,0,0,.8.3,1.1,1.3.8,2.3-1,3-2.4,6.7,1.4,7.9.2,0,.4,0,.6-.1l3-2.7c.1-.1.3-.2.5-.2.9-.1,1.6,0,2.1.4.7.5,1.5.4,2-.2.7-.8,1.5-1.5,2.2-1.9.3-.2.5-.4.5-.8l.5-1.7c0-.1,0-.2.2-.3.2-.2.6-.1.7.1l.5.6c.2.2.5.3.7.2,3.2-1.6,6.6-1.8,8.7,1.7.5.8,1.9,2.6,4.3,5.5,0,0,.1.2.2.3l.5,3.3c0,.2.1.3.2.4l3.9,2.8c.3.2.8.2,1-.2l.3-.4c.2-.2.4-.4.7-.3,2.7.3,2.7,3.1,2.8,5.3,0,.8.6,1.4,1.4,1.5h1.2c.5.1,1-.2,1.1-.8l.7-3.1s0,0,0,0c0-.2-.1-.4-.3-.4-2.4-.3-5.3-1.6-4.5-4.8.5-1.9-1.2-3.5-2.6-4.8-.3-.3-.4-.8-.2-1.2.3-.5.9-.7,1.4-.4,1,.5,2,.9,2.8,1.1,1,.3,1.7,1.2,1.6,2.2,0,.2,0,.6,0,1.1,0,.3.2.5.5.5.3,0,.8.2,1.5.5.3.1.6,0,.8,0,1.1-.9,1.1-2,.1-3.5-.1-.2-.4-.3-.6-.2,0,0-.3.1-.8.3-.3.1-.6.1-.8,0-.8-.2-1.2-.9-1.1-1.7.2-.9.9-1.7,1.9-2.4.2-.1.5-.1.6,0,.6.4,1.1,1,1.4,1.6,0,0,0,0,0,0h.3s0,0,0,0c0,0,.1-.1,0-.2-.3-.6-.5-1.2-.4-1.6,0-.2,0-.3.2-.4.2-.2.6-.1.7.1,1.9,2.7,4.6,3.3,7.9,4.3.1,0,.2,0,.3.2.3.3.3.7,0,1l-.7.7s0,0,0,0c-.2.2-.1.5,0,.6,1.8,1.6,2.7,5.7,3.5,7.8,0,.2,0,.5,0,.7-.3.5-.8.8-1.7.8-.1,0-.2,0-.2.2,0,.1,0,.3.1.4.8.3,1.8.5,2.9.4.2,0,.4-.2.5-.4l1.7-4.5c0,0,0-.1.1-.2.2-.2.6-.2.8,0l.3.3c0,0,.2.1.3.1.2,0,.4-.2.3-.4,0-.2,0-.4-.2-.6,0-.2-.2-.4-.4-.6-.4-.2-.6-.4-.6-.4-.2-.3-.3-.6-.4-.9,0-1,.6-1.8,1.6-1.9,1.6-.1,3.1.5,4.6,1.8.1.1.3.2.5.2.4,0,.7-.4.7-.7v-.7c0-.3.1-.5.4-.5,1.6-.1,2.5,0,2.8.5,0,0,.2.2.3.1h2.8c.2-.1.4,0,.6.2,2.4,4.4,5.3,9.2,9,14.3,0,0,.1.1.2.2.3.2.7,0,.8-.2l.4-.7c.3-.4.2-1-.2-1.4-1.1-1.1-2.6-2.3-4.5-3.7-.5-.4-.8-1.2-.7-2.6,0,0,0,0,0,0,0-.2.3-.4.5-.3,3.2.7,5.4,2.1,7.8-1.3.3-.4.7-.6,1.1-.6.8,0,1.5.6,1.5,1.4,0,.9.3,1.9.6,2.9,0,.1,0,.3,0,.4v2.4c.1.3.3.5.5.7.3.2.5.4.6.6.1.3.1.6,0,.9l-.9,1.4s0,.1,0,.2c0,.2.1.4.3.4,1.1,0,2,0,2.8-.4.2,0,.4,0,.5.1.2.2.4.4.6.5.3.2.6.1.9-.2,1.4-1.2,2.9-.7,4.3-1.6,1.7-1.1,3.1-2,4.7-2.5,2.1-.7,2.3-4.5,3-7.7.4-2.1,3.2-2.3,4.3-.6,1.2,1.8,2.1,3.1,2.8,3.9,2.1,2.4,4.3,5.4,6.6,9,.2.3.3.6.3.9v1.8c0,.2.2.5.4.6l3.7,3.7c.3.3.7.3,1,0l4.7-3.6s0,0,0,0c.2-.2.2-.5,0-.8-2.5-2.9-4.3-5-5.4-6.2-.3-.3-.4-.9-.5-1.7-.2-1.9-1.5-2.9-3.3-3.5,0,0,0,0-.1,0-.3-.2-.3-.5-.1-.8l2.3-3.2c0,0,0-.1.1-.1.3-.2.8-.2,1,.1l4.3,5.6s0,0,0,0c0,0,.1,0,.1-.1v-1.6c0,0,0-.2,0-.2.1-.2.3-.2.5,0,1.8,1.2,3.2,2.7,4.2,4.2.1.2.3.3.5.2,1.1-.4,2.2-.6,3.4-.5,0,0,0,0,.1,0,.1,0,.2-.2.1-.3-.6-1.6-.9-2.6-.8-3.1,0,0,0-.2.1-.3.2-.2.5-.3.7,0,.8.7,1.6,1.5,2.1,2.4,0,0,0,0,0,0,.3.5,1,.7,1.6.4l4.2-2.6c.2-.1.4,0,.6,0l1.4,1.4c.3.3.3.6.2,1-.2.5-.3.9-.3.9,0,0,0,0,0,0,0,0,0,0,.1,0l3-2.9s.1,0,.2-.1c.2,0,.5,0,.6.3l.4,1.1s0,0,.1.1c0,0,.2,0,.2,0l.7-1.6c0-.1.1-.2.3-.3.4-.3.9-.2,1.2.2l4.8,6.3s0,0,0,0c.1.1.4,0,.5,0,.2-.3.5-.5.9-.6l-1.3-2.5s0,0,0-.1c0-.3,0-.6.4-.7,1.4-.4,2.4,0,3,1.4,0,0,0,.1.1.1.1,0,.3,0,.3-.1,0,0,0-.3,0-.8,0-.2,0-.3.2-.5.2-.2.6-.2.8,0l1.2,1.2c.1.1.3.2.5.2h.7c0,0,.1,0,.2,0,.1,0,.2-.3.1-.4-.5-.9-.7-1.7-.8-2.4,0-.3,0-.5.3-.7.3-.3.8-.2,1,.1l1.9,2.4c0,0,0,0,.2.1.2,0,.3,0,.4-.2.3-1.1,0-2-.8-2.5,0,0-.1-.1-.1-.2,0-.2,0-.3.2-.3,2.8-.5,5.6-.6,8.2-.5.3,0,.5.1.7.4,0,0,.2.3.5.5,0,0,0,0,0,0,.2.1.4,0,.5,0l.9-1.2c0-.1.2-.2.4-.2h3.9c.3,0,.6,0,.7.2.2.2.3.5.3.9,0,0,0,.1,0,.1,0,0,.2,0,.3,0l.7-1.1s0,0,0,0c0-.2,0-.4-.2-.5-.9-.4-1.7-1-2.4-1.7,0,0,0,0,0,0,0-.2,0-.4.1-.5.5-.3,1-.4,1.5-.3.3,0,.9,0,1.7-.2.6-.1,1.3.2,2,1.1.9,1,1.7,1.8,2.2,2.5,0,0,.1,0,.2,0,.1,0,.2-.2.1-.3-.2-.7-.6-1.3-1.2-2,0,0,0-.1,0-.2,0-.2.1-.3.3-.3h1.6c.2,0,.5-.3.5-.5.4-1.1,1.2-1.5,2.5-1.2.3,0,.5.3.5.5.3,1.1.7,2,1.3,2.8.2.2.2.5.2.8,0,.6,0,1.2.4,1.9,0,.2.3.4.5.6,1.1.7,2,.5,2.9-.6.2-.2.2-.6,0-.8,0,0,0-.1,0-.1,0,0,0-.1,0-.2,0-.3.2-.4.5-.4h1.5c0,0,0,0,.1.1l1.4.8c.1,0,.2,0,.4,0,.2,0,.3-.3.3-.5-.7-2.1-1-3.7-1-4.9,0,0,0-.2.1-.2.1,0,.3,0,.4,0l1.3,2.1c0,0,.2.2.3.1.2,0,.3-.2.3-.3v-.7c0-.3-.2-.6-.3-.8l-1.4-1.8c-.1-.2-.2-.4-.1-.6,0-.3.5-.5.8-.4l2.7.7c.2,0,.4,0,.5-.1l.8-.6s0,0,0,0c.4-.3,1-.2,1.2.2.5.7,1.1,1.1,1.7,1,0,0,0,0,.1,0,.4,0,.7.4.7.8l-.2,2.9s0,0,0,0c0,.4.4.8.8.8h1c.3,0,.6-.3.7-.6l.6-2.1c0-.2,0-.4-.2-.4l-1.3-.7c0,0-.1,0-.1-.1-.2-.2-.1-.5,0-.7l4.5-3.5s0,0,.1,0c.3-.1.6,0,.7.3,1.1,2.5-.2,3.5-1.1,5.7,0,.1,0,.3,0,.4l3.9,4.3c.2.3.3.6.2.9l-.2.5c0,0,0,.1,0,.2,0,0,.2.1.3,0,1-.6,2-1.4,3.1-2.5.7-.7.7-1.6.1-2.8,0,0,0,0,0-.1-.2-.5,0-1,.6-1.2.4-.1.8-.4,1.1-.9.2-.2.4-.3.6-.4.9-.1,1.5,0,1.9,0,.2,0,.3,0,.5,0,.9,0,1.6-.7,1.6-1.6v-4.6s0,0,0,0c0-.3-.2-.4-.5-.4-1,0-1.8,0-2.5-.4,0,0,0,0,0,0-.2,0-.4,0-.5.3l-.3,1c0,0,0,.1,0,.2-.2.2-.5.3-.8.1l-2.4-1.7c-.1-.1-.2-.3-.2-.4,0-.3.2-.6.5-.6,1,0,1.9-.5,2.8-1.1,1.2-.9,3-1.3,4-.3,0,0,0,0,0,0,.2,0,.4,0,.5-.1l.4-.7s0,0,0,0c.2-.2.5-.2.7,0l1.3,1.3c0,0,.1,0,.2,0,.1,0,.2-.1.2-.3v-2.9c-.1-.3,0-.6.1-.8l1.8-2.5c.1-.2.4-.3.6-.4.5,0,1,.3,1.1.8l.5,3.2c0,0,0,.2,0,.3-.3.9-.7,1.5-1.3,1.9-.2.2-.4.5-.4.7.2,3.2,1.4,5.9,3.4,8.2.1.1.3.2.5.1.2,0,.3-.3.3-.6l-.7-2c0,0,0-.1,0-.2,0-.4.3-.8.7-.8h.6c.5,0,1,.3,1.1.8.3,1.1-.1,1.9-1.1,2.3,0,0-.1.1-.2.2,0,.2,0,.3.2.4h.7c0,.2.1.2.2.3.1.1,0,.3,0,.5l-1.3,1c0,0,0,.1,0,.2,0,.1.2.2.3.1.9-.5,1.4-.5,1.6,0,0,.1,0,.3-.1.3l-2.1,1.3c-.2.1-.3.3-.3.6,0,.4.3.6.7.6l4.7-.2c.2,0,.3,0,.4.3,0,.2,0,.4-.2.5l-7.4,2.7c-.3.1-.5.4-.5.8,0,2.1-2.2,8.4,2.2,7.9.2,0,.4,0,.6-.1,1.5-.4,3.4-2.1,5.5-5,0,0,0,0,.1-.1.2-.1.5,0,.6.1l.4.6s0,0,0,0c.2.2.5.2.7,0l.8-.8c.1-.1.3-.1.5,0l2,1.4c0,0,.1,0,.2,0,.2,0,.3-.2.3-.3-.1-1.1.4-1.9,1.7-2.4.3-.1.6,0,.8.2l1.1,1.5s0,0,0,0c.2.3.2.7-.1.9l-.7.6s0,0,0,0c-.2.2-.2.5,0,.6l1.6,1.6c.7.7,1.8.8,2.6.2l1.1-.9c.2-.1.3-.3.4-.4.4-.7.2-1.6-.5-2l-4.5-2.6c0,0-.2-.1-.2-.2-.2-.3-.1-.7.2-.9l.4-.3c.2-.2.4-.4.4-.7v-3.2c0-.2.1-.4.3-.6.3-.4.9-.5,1.3-.2.2.1.5.6,1,1.4,0,.1.2.2.4.1h0c.1,0,.2-.2.1-.3-.6-1.4-2.3-3.6,0-4.7.2-.1.5,0,.7.1l7.5,7.5c.2.2.3.5.2.7l-.5,2.1c0,.2,0,.5.3.6.5.2.8.3,1,.5.2.1.2.4.2.6v.2c-.1.1-.2.2-.4.2l-.8-.2c-.2,0-.5,0-.6.2-.3.3-.6.4-1,.3-.3-.1-.7,0-.9.3-.2.4-.1.9.2,1.1.9.7,2.1,1.7,3.8,3.1.1.1.3.2.4.3.8.3,1.4.1,1.6-.7,0-.3.3-.5.7-.6,1.3-.2,2.3.3,3,1.5,0,0,0,.1,0,.2l.4,1.1c0,.3.3.5.6.6,1.1.3,1.9.6,2.4.9.2.1.5.1.6,0,1.6-1.3,5.5-1,6.5-3.5.9-2.1,2.1-3,4.1-3.7,5.2-1.6,8.7-2.8,10.6-3.5.2,0,.3-.3.3-.5-.2-2.4-1.3-4.1-3.3-5.2-.5-.3-.9-.8-1.1-1.4,0,0,0,0,0,0,0-.2,0-.4.2-.5l3.3-1.2c.3,0,.6,0,.7.3.2.4.7.8,1.2,1.2,0,0,.2,0,.3.1.4,0,.8-.2.8-.6.2-.9,0-1.7-.4-2.4,0,0,0-.2,0-.3,0-.1.3-.2.4,0l2.1,1.5c0,0,.2.1.3.1.5.1,1-.2,1.1-.6l1.2-4.3s0,0,0-.1c.1-.2.3-.2.5,0l.7.5c.2.1.4,0,.5,0l.9-1.2c.1-.2.1-.5,0-.7l-.8-1.2c-.3-.5-.3-1.1,0-1.5l.2-.3c0-.1.1-.2.2-.2.3-.2.7,0,.8.3.8,1.4,2.2,3.7.7,5-.8.8-1,1.8-.7,3.2,0,.1.1.3.2.3l3.1,2.5c0,0,.2.1.2.2.9.5,2.1.2,2.7-.7l.9-1.6c0-.2.2-.3.4-.3.4-.1.8,0,1,.5l1.2,3.4c0,.3.4.4.6.3.2,0,.3,0,.3,0,.3,0,.7,0,.9.3l1.2,1.3c.2.2.4.3.6.2,1.6-.4,3-.2,4.1.7,0,0,.2.1.3,0,.2,0,.4-.2.3-.4-.2-1.9-1.3-3.3-1-5.1,0,0,0-.1.1-.2.1,0,.3,0,.4,0l1.6,2s0,0,.1,0c.1,0,.3,0,.3-.2v-.3c.2-.3.1-.7-.1-1l-1.7-2.3c0,0,0-.2,0-.3,0-.2.2-.5.4-.5,1,0,1.9.2,2.8.7.2,0,.4,0,.5,0l1.4-.9c.2-.1.5-.1.7,0l1.1,1.1c.2.2.4.3.6.2.4,0,.7,0,.8,0,.3.1.4.4.4.7v2.8c-.2.3,0,.5.2.7.8.6,1.4.5,2-.3.4-.6.6-1.3.6-2.3,0-.3-.2-.5-.4-.6-.5-.2-.9-.4-1.1-.7-.1-.2,0-.4,0-.5l4.8-3.7s0,0,0,0c.1,0,.3,0,.4.1.8,1.3.8,2.6.1,3.9-.7,1.3-1.1,2-1.1,2.1,0,0,0,0,0,0-.1.2,0,.4.1.5,1,.6,2.3,2,4,4.4.1.2.2.4,0,.6l-.2.4c0,0,0,.2,0,.2,0,0,.2.1.3,0l3.4-2.6c.3-.2.4-.5.3-.9l-.4-2.5c0-.2,0-.4.2-.5,1.4-1.4,2.8-1.8,4.1-1.4.2,0,.4,0,.6,0,.9,0,1.6-.8,1.5-1.7l-.2-4.5s0,0,0,0c0-.3-.3-.5-.5-.4-.9,0-1.6,0-2.2-.4,0,0,0,0,0,0-.2,0-.5,0-.5.2l-.4,1s0,0,0,.1c-.2.3-.5.3-.8.1l-2.3-1.6c-.2-.1-.3-.3-.3-.5,0-.4.3-.7.6-.7,2-.1,4.5-3.4,6.5-1.4,0,0,0,0,0,0,.2.1.5,0,.6-.2l.3-.6s0,0,0-.1c.2-.2.5-.2.7,0l1.3,1.3c0,0,.1,0,.2,0,.2,0,.3-.2.3-.3l-.2-3.4c0-.3,0-.6.3-.9.5-.8,1.2-1.4,2-2,.1,0,.3-.2.4-.2.7-.1,1.3.3,1.4,1,.3,1.7.1,3.4-.6,5.1,0,0,0,.2,0,.3.1,0,.3,0,.4,0l1.5-1.5s0,0,0,0c.2-.1.4,0,.5,0,1.9,2.6,2.5,6.2,2.3,9.1,0,1,.8,1.7.3,2.9,0,0,0,.1-.2.2-.2,0-.4,0-.5-.1-.5-.8-.6-2.3-.3-4.4,0-.4,0-.8-.4-1.1l-3.1-3.1s0,0,0,0c-.2-.2-.5-.1-.6,0-.6.7-.6,1.5,0,2.4,1.9,2.7,3.7,5.6,4.4,8.8.1.5,0,1.3-.6,2.5-.5,1.1-.6,2.2-.4,3.6,0,0,0,0,0,0,0,.2.3.3.5.3h.3c.2-.2.5-.2.8-.1,3.6,1.2,6.1-4.2,3.6-6.3,0,0-.1,0-.2,0l-2.8-1.1c0,0-.1,0-.2-.1-.2-.2-.2-.5,0-.7l.6-.6c.2-.1.3-.3.3-.5l2.8-7.6c0-.2,0-.4-.2-.5-.8-.4-1.5-1.1-2.2-2.1,0-.1-.1-.3-.1-.4,0-.4.3-.6.7-.6.3,0,.7.2,1.1.5.4.3.9,1,1.5,2,0,.1.2.2.3.2.2,0,.4-.2.4-.4v-1.7c.1-.4.5-.8.9-.8l4-.2c.1,0,.3,0,.3-.2.2-.2.2-.5,0-.7-.5-.5-.6-.9-.4-1.3.1-.2.3-.2.5-.1l6.2,3.6c.1,0,.2.2.2.4,0,.2-.2.3-.4.3-.5,0-.9,0-1.1.3,0,0,0,0,0,0,0,0,0,.2.1.2,3.5.4,6.4,1.2,8.6,2.4,0,0,.1,0,.2,0,.2,0,.3-.1.3-.3,0-2.8.9-4.8,2.9-6.3,1.2-.9,3.2-1.3,4.8-2,.1,0,.3,0,.4-.1.7,0,1.3.5,1.4,1.1.1,1.4.1,3.1,0,5.2,0,1.2-.7,2.4-1.9,3.5-.4.3-.9.3-1.2,0l-1.5-1.5c-.2-.2-.4-.2-.7-.1-.4.2-.6.4-.7.7,0,.3,0,.6.3.7,5.8,3.2,11.1,5.8,16,7.8.1,0,.2,0,.3,0l3.1.2c.4,0,.8.4.8.8l.3,6.2c0,.1,0,.2.1.3,1.8,1.9,3.5,2,5.1.2.2-.3.6-.4.9-.5,2.8-.4,3.6.7,5.4,1.6.2,0,.4,0,.6,0l2-2c0,0,.1-.1.2-.1.3,0,.6,0,.7.4.5,1.5,1,3.3,2.5,3.3,4.4,0,4.1-1.6,5.1-5,.2-.8.8-1.3,1.6-1.5,1.1-.2,2.1-.2,3,.1,0,0,.2,0,.2.1l7,5c.1,0,.2.2.3.3.4.9.7,1.6.7,2.2,0,.3.2.5.5.5h2.2c.1.1.2.2.3.3.3.2.3.6.1.9l-2.1,2.9c0,0,0,.1,0,.2,0,.2.2.3.4.3h.4c.3,0,.6.2.6.5.7,3,.1,6.5,0,8.8,0,0,0,0,0,0,0,.1.2.2.3.2l4-.6c.2,0,.4-.2.4-.4l-.3-6.8c0,0,0-.2,0-.3.1-.4.5-.5.9-.4,1.2.4,2.6.6,4.2.4.2,0,.4-.2.4-.5,0-3.4.6-6,1.8-7.9,1.4-2.2,3.7-5.1,6.9-8.7.9-1,1.1-2.1.8-3.3,0-.3,0-.7.4-.9.4-.2.8-.1,1.1.3,1.1,1.8,2.1,4.5,3.9,4,2.5-.7,3.4-2.3,3-4.9,0-.3-.3-.5-.5-.7l-3.7-1.6s0,0,0,0c-.1-.1-.2-.3,0-.5,1.1-1.5,2.3-3.5,3.6-5.9,1.2-2.2,2.9-3.6,5.1-4.3.3,0,.4-.3.4-.6v-2.9c0-.2,0-.3.1-.5l1.2-4.6c0,0,0-.1,0-.2,0-.6-.4-1.2-1.1-1.3l-3.2-.2c0,0-.2,0-.2,0-.5-.2-.8-.7-.6-1.2.2-.5.5-1,1.1-1.5,0,0,1.5-1.3,4.4-3.9,0,0,.1-.2.1-.2,0-.3-.1-.5-.4-.6l-5-1.1c0,0,0,0-.1,0-.2-.1-.2-.4-.1-.6,1.2-1.9.5-3.5.6-5.2,0-1,.5-1.9,1.3-2.4,2.1-1.3,3.8-2.9,2.7-5.5-.4-1-.6-2.2-.7-3.5,0-.3.1-.7.4-.9,1.9-1.7,3.5-4.6,3.8-7.4.1-1.2.7-2.1,1.8-2.7.8-.5,1.2-1.4,1-2.3-.4-1.7-.7-3.2-.7-4.5ZM416.2,175.9c0,0,0-.2.1-.3h0c0-.2.2-.3.3-.4,0,0,0,0,0,0,0,0,.1,0,.2,0,0,0,.1,0,.1,0,0,0,0,.1,0,.2,0,0,0,.2,0,.3s0,.2-.1.3h0c0,.1-.1.2-.2.3,0,0-.2.1-.2.2,0,0-.2,0-.2,0h0c0,0-.1-.2-.1-.3s0-.2,0-.3ZM290.8,176.1c0,0,0-.2,0-.3,0,0,0-.2.2-.3.2-.4.6-.6.7-.5,0,0,.1.2,0,.3,0,0,0,.2,0,.3,0,0,0,.2-.2.3,0,0,0,0,0,0-.2.3-.4.5-.6.5,0,0,0,0,0,0,0,0,0,0-.1,0,0,0-.1-.2,0-.3ZM47.3,247.9s0,0,0,.1c0,0,0,0,0,0,0,0,0,.1-.1.2,0,0,0,0,0,0,0,0,0,0,0,0,0,0-.1,0-.2,0,0,0-.1,0-.2,0,0,0,0,0-.1,0-.1,0-.2,0-.3,0-.4-.2-.5-.5-.3-1,0-.2.3-.4.5-.4.5,0,.8.1,1,.4,0,0,0,.2,0,.3,0,0,0,0,0,.1ZM85.2,192.2s0,0,0,0c0,0,0,0,0,0,0,0,0,0,0,0,0,0,0,0,0,0,0,0,0,0,0,0,0,0,0,0,0,0,0,0,0,0,0,0,0,0,0,0,.1,0,.4.2.9.5,1.4.9.5.5.9.9,1,1.3,0,0,0,0,0,.1,0,0,0,0,0,0,0,0,0,0,0,0,0,0,0,0,0,0,0,0,0,0,0,0,0,0,0,0,0,0,0,0,0,0,0,0,0,0,0,0,0,0,0,0,0,0-.1,0-.9,0-1.6,0-2.1,0,0,0,0,0-.1,0,0,0-.2-.1-.2-.2-.2-.5-.3-1.2-.3-2.1,0,0,0,0,0-.1ZM61.2,220.3c0-.3.2-.5.5-.5h40.5c0,0,.1,0,.2,0,.1,0,.2.2.3.3,0,0,0,0,0,.1v.2h0c0,.2,0,.3-.2.4,0,0,0,0-.1,0,0,0-.1,0-.2,0h-40.5c-.3,0-.5-.2-.5-.5v-.2ZM117.3,302.3s0,0,0,0c0,0,0,0,0,0,0,0,0,0,0,0,0,0,0,0,0,0,0,0,0,0,0,0s0,0,0,0c0,0,0,0,0,0,0,0,0,0,0,0,0,0,0,0,0,0-4.5.7-8.2,1.3-11.1,1.9-2.8.6-5.6.8-8.3.7-.4,0-12.3,0-35.9,0-.7,0-1.3-.3-1.7-.8-.7-.8-1.3-1.4-2-1.8,0,0,0,0,0,0,0,0,0,0,0,0,0,0,0,0,0,0,0,0,0,0,0,0,0,0,0,0,0,0,0,0,0,0,0,0,0,0,0,0,0,0,0,0,0,0,0,0,0,0,0,0,0,0,1.1-.9,2.5-1.3,4.1-1.3,3.2,0,6.2,0,8.8,0,.3,0,.6-.3.6-.6s-.3-.6-.6-.6h-2c0-.1-.1-.2-.2-.2,0,0,0,0,0,0,0,0,0,0,0-.2,0,0,0,0,0,0,0,0,0,0,0,0,0,0,0,0,0,0,0,0,0-.1,0-.2,0,0,0,0,0,0,0,0,0,0,.2,0,.2,0,.5,0,.9,0,0,0,.1,0,.2,0,0,0,0,0,0,0,0,0,.1,0,.2,0,0,0,0,0,.1,0,0,0,0,0,.1,0,0,0,0,0,.1,0,0,0,0,0,.1,0,0,0,0,0,.1,0,0,0,0,0,.1,0,0,0,0,0,.1-.1,0,0,0,0,0-.1,0,0,0,0,0-.1,0,0,0,0,0-.1,0,0,0,0,0-.1,0,0,0,0,0-.1,0,0,0-.1,0-.2,0,0,0-.2,0-.3l-1.2-24.1c0-.3,0-.5-.2-.8l-1.2-1.9c-.1-.2-.2-.4-.1-.6.4-3.5.8-7.6,1.1-12.3,0-.4-.3-.5-1.1-.3,0,0,0,0-.1,0,0,0,0,0,0,0,0,0,0,0,0,0,0,0,0,0,0,0,0,0,0,0,0,0,0,0,0,0,0,0,0,0,0,0,0,0,0,0,0,0,0,0,0,0,0,0,0,0,0,0,0,0,0,0,0,0,0,0,0-.1l1.5-2.9c0-.1.1-.3.1-.4.2-5.2.2-9.4,0-12.5-.2-3.7.3-8.2.4-10.6,0-.8.4-1.4,1.1-1.6,0,0,.2,0,.2-.1,0,0,0,0,0,0,0,0,.1-.1.2-.2,0,0,0,0,0,0,0,0,.1-.2.1-.2,0,0,0,0,0,0,0,0,0-.1,0-.2,0,0,0,0,0,0,0,0,0,0,0,0,0,0,0,0,0-.1,0,0,0,0,0,0,0,0,0,0,0,0,0,0,0,0,0-.1,0,0,0,0,0,0,0,0,0-.1,0-.2,0,0,0,0,0,0,0,0-.1-.1-.2-.2,0,0,0,0,0,0,0,0-.1,0-.2-.1,0,0,0,0,0,0,0,0-.2,0-.3,0-4-.3-8.1-.4-12.4-.3,0,0,0,0,0,0,0,0,0,0,0,0,0,0,0,0,0,0,0,0,0,0,0,0,0,0,0,0,0,0l.2-3.8c0-.2.2-.4.4-.4,12.9.4,26.5-.3,38.8-.1,3,0,6.6.8,8.8.7.2,0,.3,0,.5-.2l1.4-1.1c.2-.1.4-.2.6-.2,2.3,0,4.4.3,6.2.5,3.1.5,1.5,5.7.6,7.4-1.1,2.1-1.1,4.3-2.1,6.1,0,0,0,0,0,0,0,0,0,0,0,0,0,0,0,0,0,0,0,0,0,0,0,0,0,0,0,0,0,0,0,0,0,0,0,0,0,0,0,0,0,0,0,0,0,0,0,0,0,0,0,0-.1,0-.6-.5-1.3-.7-1.9-.6,0,0,0,0-.1,0,0,0,0,0,0,0,0,0,0,0,0,0,0,0,0,0,0,0,0,0,0,0,0,0,0,0,0,0,0,0,0,0,0,0,0,0,0,0,0,0,0,0,0,0,0,0,0-.1,0-1-.2-1.8-1-2.3-.3-.2-.4-.5-.5-.8l-.7-3.1c-.1-.5-.6-.9-1.1-.9-8.1-.5-16-.5-23.6,0-2.6.2-1.4,3.8-.8,5.2.1.3.2.7.1,1-.2,1.9-.7,3.5-1.4,4.8-.1.2-.2.5-.2.7-.6,5.8-.5,11.7.3,17.6,0,.2.2.4.5.4,15.6,0,23.5,0,23.7,0,.8,0,1.3-.4,1.5-1.3,0-.1.1-.2.2-.2s.2.1.2.2c0,0,0,.3-.1.5,0,0,0,0,0,0,0,0,0,0,0,0,0,0,0,0,0,0,0,0,0,0,0,0,0,0,0,0,.1,0,0,0,.3-.2.3-.2.5-2.3,1-3.8,1.4-4.7,0,0,0-.1.1-.2,0,0,0,0,0,0,0,0,0,0,.1-.1,0,0,0,0,0,0,0,0,0,0,0,0,0,0,0,0,.1,0,0,0,0,0,0,0,0,0,0,0,0,0,0,0,0,0,.1,0,0,0,0,0,.1,0,0,0,0,0,.1,0,0,0,0,0,.1,0,0,0,0,0,.1,0,0,0,0,0,0,0,0,0,0,0,.1,0,0,0,0,0,0,0,0,0,.1,0,.2.1,0,0,0,0,0,0,0,0,.1.1.2.2,1.2,1.9,2,4.1,2.5,6.7,0,.2.2.3.4.4h.2c0,0,.1,0,.1,0,0,0,0,0,0,0,0,0,0,0,0,0,0,0,0,0,0,0,0,0,0,0,0,0,0,0,0,0,0,0,0,0,0,0,0,0,0,0,0,0,0,0,0,0,0,0,0,.1,0,0,0,0,0,0,0,0,0,0-.1.1-1.1.7-.5,2.1-1.1,3.1-1.4,2.6-2,5.1-2,7.6,0,.6-.4,1.2-1.1,1.3l-1.8.3s0,0,0,0c0,0-.1,0-.2,0,0,0-.1,0-.2,0,0,0-.1,0-.2,0,0,0-.1,0-.2,0,0,0,0,0-.1-.1,0,0,0,0-.1-.1,0,0,0-.1,0-.2,0,0,0-.1,0-.2l-.7-6.3c0,0,0-.1,0-.2,0,0,0,0,0,0,0,0,0,0,0,0,0,0,0,0,0,0,0,0,0,0,0,0,0,0,0,0,0,0,0,0,0,0,0,0,0,0,0,0,0,0,0,0-.1,0-.2,0,0,0,0,0-.1.2,0,0,0,0,0,.1,0,0,0,0,0,0,0,0,0,0,0,0,0,0,0,0,0,0,0,0,0,0,0,0,0,0,0,0,0,0,0,0,0,0,0,0,0,0,0,0,0,0,0,0,0,0-.1,0-.8-.7-1.4-1.1-2-1.1-1.8,0-3.4.3-5.4.2-3.9-.2-8.8-.2-14.6.2-.3,0-.5.2-.5.4,0,0,0,0,0,.2,0,.2-.2.4-.4.5-.3.1-.6,0-1-.1,0,0,0,0-.1,0,0,0,0,0,0,0,0,0,0,0,0,0,0,0,0,0,0,0,0,0,0,0,0,0,0,0,0,0,0,0,0,0,0,0,0,0,0,0,0,0,0,0,0,0,0,0,0,0,0,0,0,0,0,0,0,0,0,.1,0,.2l.8,3c0,0,0,.2,0,.3-.4,3.2-.5,5.3-.3,6.2.4,1.8.5,3.4.6,4.7,0,.3,0,.6.1.9,1.1,3.9,1.7,8.2,1.9,12.9,0,.3.1.6.3.8.7,1.1.7,2.3,0,3.7,0,0,0,0,0,.1h0s0,0,0,0c0,0,0,0,0,.1,0,0,0,0,0,0,0,0,0,0,0,0,0,0,0,0,.1,0,0,0,0,0,0,0,0,0,0,0,.1,0l6.4.6c0,0,0,0,.1,0h0c0,0,0,.1,0,.1l-6.1.7s0,0-.1,0c0,0,0,0,0,0,0,0,0,0,0,.1,0,0,0,0,0,0,0,0,0,0,0,0,0,0,0,0,0,0,0,0,0,0,0,.1,0,0,0,0,0,0,0,0,0,0,.1,0l12.6.6c.2,0,.4,0,.6,0l9.6-1.4c.2,0,.3-.2.3-.4,0-.9.6-1.3,1.6-1.2,0,0,0,0,0,0,0,0,0,0,0,0,0,0,0,0,0,0,0,0,0,0,0,0,0,0,0,0,0,0,0,0,0,0,0,0,0,0,0,0,0,0,0,0,0,0,0,0,0,0,0,0,0,0v-2.1c.2-.3.3-.7.6-.8,1.2-.7,2.3-1.6,3.2-2.7,0,0,.1,0,.2,0,0,0,0,0,0,0,0,0,0,0,0,0,0,0,.1,0,.2,0,0,0,0,0,0,0,0,0,0,0,0,0,0,0,0,0,0,0,0,0,0,0,0,.1,0,1.6.7,2.4,2.4,2.5,0,0,0,0,0,0,0,0,0,0,0,0,0,0,0,0,0,0,0,0,0,0,0,0,0,0,0,0,0,.1-.8,2.7-1,5.2-.4,7.6ZM81.9,248.3c0-.1.2-.3.3-.3,0,0,.2,0,.2,0h.2c.3,0,.6.3.6.6v1.3s0,0,0,0c0,0,0,.2,0,.2,0,.1-.2.3-.3.3,0,0-.2,0-.2,0h-.2c-.3,0-.6-.3-.6-.6v-1.3c0,0,0-.2,0-.2ZM81.9,244.7v-2.1c0,0,0-.2,0-.2,0,0,.1-.2.2-.2,0,0,.2-.1.3-.1,0,0,0,0,0,0h.1c0,0,.2,0,.2,0,.2,0,.4.3.3.5v2.1c0,0,0,.2,0,.2,0,0,0,.1-.1.2-.1.1-.3.2-.4.2h-.1s0,0,0,0c-.2,0-.3,0-.4-.2,0,0,0,0,0-.1,0,0,0-.1,0-.2ZM104.1,298.6c0,0,0,.2,0,.2-.1.2-.4.4-.8.4h0c-.2,0-.4,0-.5,0,0,0-.1,0-.2-.1,0,0-.1,0-.1-.1s0-.1,0-.2c0-.1,0-.2.2-.3.2-.2.4-.3.7-.3h0c.2,0,.5,0,.6.2.2.1.3.2.3.4ZM83.9,274.5v1.3c0,.3-.3.5-.6.5h-.2c0,0-.1,0-.2,0,0,0-.1,0-.2-.1,0,0,0,0,0,0,0-.1-.2-.2-.1-.4v-1.2s0,0,0,0c0,0,0-.1,0-.2,0-.1.2-.2.3-.3,0,0,.1,0,.2,0h.2c.3,0,.5.3.5.6ZM245.1,275c0-.2,0-.3.2-.3.1,0,.2,0,.4,0,.1,0,.2.1.3.2,0,0,0,.2,0,.4-.5,1.5-.8,2.3-1,2.2-.2,0-.2-.9.1-2.4ZM211.6,221h0c0-.3.2-.5.5-.5h2.8s0,0,0,0c.3,0,.5.2.5.5h0s0,0,0,0c0,.2-.1.4-.3.4,0,0-.1,0-.2,0h-2.8s0,0,0,0c-.1,0-.2,0-.3-.1,0,0-.1-.2-.1-.3h0ZM171.9,220.9s0,0,0,0c0,0,0,0,0-.1,0,0,0,0,0,0,0,0,.1,0,.2,0,0,0,.3,0,.9,0,.6,0,.9,0,.9,0,0,0,.1,0,.2,0,0,0,0,0,0,0,0,0,0,0,0,.1,0,0,0,0,0,0,0,0,0,.1,0,.2,0,0,0,0,0,0,0,0,0,0,0,.1,0,0,0,0,0,0,0,0,0,.1,0,.2,0,0,0,0,0,0,0,0,0,0,0,0,0,0,0,0,0,0,0,0-.1,0-.2,0,0,0-.3,0-.9,0-.6,0-.8,0-.9,0,0,0-.1,0-.2,0,0,0,0,0,0,0,0,0,0,0,0,0,0,0,0,0,0,0,0,0,0-.1,0-.2,0,0,0,0,0,0,0,0,0,0,0-.1,0,0,0,0,0-.1,0,0,0-.1,0-.2ZM160.2,221.4s0,0,0,0c0,0,.2-.1.3-.1h5c0,0,5-.1,5-.1.3,0,.5.2.5.5h0c0,.2,0,.3,0,.4s0,.1-.1.2c0,0-.2.1-.3.2,0,0,0,0,0,0h-5c0,0-5,.1-5,.1-.3,0-.5-.2-.5-.5h0c0-.3,0-.4.2-.5ZM140.1,202.5c0-.1.1-.2.2-.3t0,0c.3-.4.8-.6,1-.4h0c.1,0,.2.3.1.5,0,0,0,.2,0,.2,0,.1-.1.2-.2.3,0,0,0,0,0,0-.1.2-.2.3-.4.4,0,0-.1,0-.2,0,0,0-.2,0-.2,0,0,0-.1,0-.2,0-.1,0-.2-.3-.2-.5,0,0,0-.2,0-.3ZM139.8,207.1s0,0,0-.1c0,0,0,0,0-.1,0,0,0,0,0-.1,0,0,0,0,0-.1,0,0,0,0,0-.1,0,0,0,0,0-.1,0,0,0,0,0-.1,0,0,0,0,0,0,0,0,0,0,0,0,0,0,0,0,.1,0,0,0,0,0,.1,0,0,0,0,0,.1,0,0,0,0,0,.1,0,0,0,0,0,.1,0,0,0,0,0,.1,0h0c.7,0,1.3.6,1.3,1.4h0c0,.2,0,.3-.2.3h-2.2c-.1,0-.2,0-.2-.2h0c0-.1,0-.1,0-.1,0,0,0,0,0-.1ZM136.8,197c0,0,.1,0,.2,0,0,0,.2,0,.3,0,.2,0,.5.3.8.5.2.2.4.5.5.8,0,.1,0,.2,0,.3s0,.2,0,.2c-.1.1-.3.1-.5,0-.2,0-.5-.3-.8-.5-.5-.5-.7-1.1-.5-1.3ZM135.9,332.1s0,0,0,.1c0,0,0,.1-.1.2l-2,2c-.2.2-.2.4-.1.6l.3.7s0,0,0,.1c0,0,0,0,0,0,0,0,0,0,0,0,0,0,0,0,0,0,0,0,0,0,0,0,0,0,0,0,0,0,0,0,0,0,0,0,0,0,0,0,0,0,0,0,0,0,0,0,0,0,0,0,0,0,0,0,0,0-.1,0-1.5-1-2.8-3-1.1-4.4.2-.1.4-.2.6-.2h2.5c0,0,.1,0,.2,0,0,0,0,0,0,0,0,0,0,0,0,0,0,0,0,0,0,0,0,0,0,.1.1.2,0,0,0,.1,0,.2,0,0,0,0,0,0ZM189,340.4s0,0,0,0c0,0,0,0,0,0,0,0,0,0,0,0,0,0,0,0,0,0,0,0,0,0,0,0,0,0,0,0,0,0,0,0,0,0,0,0,0,0,0,0,0,0,0,0,0,0,0,0l-1.5-1.6s0-.1,0-.2c0,0,0,0,0,0,0,0,0,0,0,0,0,0,0,0,0-.1,0,0,0,0,0,0,0,0,0,0,0,0,0,0,0,0,0,0,0,0,0,0,.1,0l1.7.3c.2,0,.3.2.3.4,0,.4-.1.8-.3,1.2ZM195.4,339.2c-.3.1-.6,0-.9-.3,0,0,0-.2-.1-.2,0,0,0,0,0,0,0,0,0,0,0,0,0,0,0,0,0-.1,0,0,0,0,0,0,0,0,0,0,0,0,0,0,0,0,0,0,0,0,0,0,0,0,0,0,0,0,.2,0,.4,0,.8.2,1,.7,0,.2,0,.3-.3.4ZM217.8,315s0,0,0,.1c0,0,0,0,0,0,0,0,0,0,0,0,0,0,0,0,0,0,0,0,0,0,0,0,0,0,0,0,0,0,0,0,0,0-.1,0,0,0,0,0,0,0,0,0-.1,0-.2,0-3.2-2.1-5.6-.8-8.1,1.7,0,0-.1,0-.2.1,0,0,0,0,0,0,0,0,0,0,0,0,0,0,0,0-.1,0,0,0,0,0,0,0,0,0,0,0,0,0,0,0,0,0,0,0,0,0,0,0,0,0,0,0,0-.1-.1-.2l-.6-1.8c-.1-.3,0-.7.4-.8.8-.4,1.5-.4,2.2-.2,0,0,0,0,.1,0,0,0,0,0,0,0,0,0,0,0,0,0,0,0,0,0,0,0,0,0,0,0,0,0,0,0,0,0,0,0,0,0,0,0,0,0,0,0,0,0,0,0,0,0,0-.1,0-.2v-.7c0,0,0-.1,0-.2,0,0,0,0,0,0,0,0,0,0,0-.1,0,0,0,0,0,0,0,0,0,0,0,0,0,0,0,0,.1,0,0,0,0,0,.1,0,0,0,0,0,.1,0,0,0,.1,0,.2,0,1.4.5,2.6.7,3.8.5.2,0,.5,0,.6.2.8.9,1.3,1.5,1.5,1.8,0,0,0,.1,0,.2,0,0,0,0,0,0ZM216,309.9s0,0,0,0c0,0,.2-.2.3-.3,0,0,0,0,0,0,.4-.4.8-.6.9-.5,0,0,0,0,0,.1,0,0,0,0,0,.2,0,.2-.3.4-.5.6,0,0,0,0,0,0-.4.3-.7.5-.9.5,0,0,0,0,0,0,0,0,0-.3.3-.6ZM219.6,316.2c-.3.3-.7.5-1,.5,0,0,0,0,0,0,0,0,0,0,0,0,0,0-.1,0-.2,0,0,0,0,0,0,0-.1-.3,0-.7.5-1.2.2-.2.5-.4.7-.5s.2,0,.3,0c0,0,0,0,0,0,0,0,0,0,0,0s0,0,0,0c0,0,0,.1,0,.2,0,.3-.2.7-.5,1ZM229.2,335.9c-.1.3-.4.4-.8.5-.4,0-.7,0-.9-.4-.2-.3-.1-.5,0-.7.1-.2.4-.2.7-.3.4,0,.6,0,.8.2.2.2.3.4.1.7ZM233.1,335.6c0,.1-.2.2-.4.3h0c-.2,0-.3,0-.5,0-.1,0-.3-.2-.3-.3,0-.2,0-.4.2-.6,0,0,.1,0,.2-.1h0c0,0,.2,0,.2,0,.1,0,.2,0,.3.1,0,0,0,0,0,0,0,0,0,0,0,0,0,0,0,0,0,.1,0,0,0,.1,0,.2s0,.1,0,.2ZM235.9,334.7c-.7.6-1.1.8-1.3.7,0,0,0,0,0,0,0,0,0,0,0,0,0,0,0,0,0,0,0,0,0,0,0,0,0,0,0,0,0,0,0,0,0,0,0,0,0,0,0,0,0,0,0,0,0,0,0,0,0,0,0,0,0,0,.5-.4.9-.6,1.2-.6,0,0,.1,0,.2,0,0,0,0,0,0,0,0,0,0,0,0,0,0,0,0,0,0,0,0,0,0,.1,0,.2ZM236.8,324.3s0,0,0,0c0,0,0,0,0,0,0,0,0,0,0,0,0,0,0,0,0,0,0,0-.1,0-.2-.2,0,0,0,0,0,0,0,0,0,0,0,0,0,0,0,0,0,0,0,0,0,0,0,0,0,0,0,0,0,0,0,0,.1.1.1.2,0,0,0,0,0,0ZM240.1,328.7s0,0,0,0c-.6.3-.9.5-1,.5,0,0-.1,0-.1,0,0,0,0,0,0,0,0,0,0,0,0-.1,0,0,0,0,0,0,0,0,0,0,0,0,0,0,0,0,0,0,0,0,0,0,0-.1,0,0,0,0,0,0,0,0,0,0,.1,0,.5-.2.8-.3,1.1-.3,0,0,0,0,.1,0,0,0,0,0,0,0,0,0,0,0,0,0,0,0,0,0,0,0,0,0,0,0,0,0,0,0,0,0,0,0ZM242.6,325.9s0,0,0,0c0,0,0,0,0,0,0,0,0,0,0,0,0,0,0,0-.1,0l-.8-.3c0,0,0,0-.1,0,0,0,0,0,0,0,0,0,0,0,0-.1,0,0,0,0,0,0,0,0,0,0,0,0,0,0,0,0,0,0,0,0,0,0,0,0,0,0,0,0,0,0,0,0,0,0,0,0,0,0,0,0,0,0,0,0,0,0,.1,0,.4,0,.7.2.9.7,0,0,0,0,0,.1ZM247.6,303.2s0,0,0,0c0,0,0,.1,0,.2,0,0,0,0,0,0,0,0-.1,0-.2,0h-2.1c0,0,0,.1-.1.1,0,0,0,0,0,0,0,0,0,0,0,0,0,0,0,0,0,0,0,0,0,0,0,0,0,0,0,0,0,0,0,0,0,0,0,0,0,0,0,0,0,0,0,0,0,0,0,0,0,0,0,0,0,0,0,0,0,0,0,.1l1.3,1.3s0,0,0,0c0,0,0,0,0,0,0,0,0,0,0,0,0,0,0,0,0,0,0,0,0,0,0,0,0,0,0,0,0,0,0,0,0,0,0,0,0,0,0,0,0,0,0,0,0,0-.1,0-1.4.8-2.8,1.4-4.2,1.5-3.9.5-8.6.7-13.7.3-2.3-.2-5.5-.5-9.9-.8,0,0-.2,0-.3,0l-.8.4s-.1,0-.2,0c0,0,0,0,0,0,0,0,0,0,0,0,0,0,0,0,0,0,0,0,0,0,0,0,0,0,0,0,0,0,0,0,0,0,0,0,0,0,0,0,0,0,0,0,0,0,0,0,0,0,0,0,0,0,0,0,0-.1,0-.2l.8-4c0-.2.3-.4.5-.4l4,.3c0,0,.1,0,.2,0,0,0,0,0,0,0,0,0,.1,0,.2,0,0,0,0,0,0,0,0,0,0,0,0,0,0,0,0-.1,0-.2,0,0,0-.1,0-.2-.2-.7-.2-1.2,0-1.7,0,0,0,0,0,0,0,0,0,0,0,0,0,0,0,0,0,0,0,0,0,0,0,0,0,0,0,0,0,0,0,0,0,0,0,0,0,0,0,0,0,0,0,0,0,0,0,0,0,0,0,0,0,0-.3-.1-.4-.2-.5-.2-.1,0-.2-.2-.2-.5,0-.6.2-.9.7-1,0,0,0,0,0,0,0,0,0,0,0,0,0,0,0,0,0,0,0,0,0,0,0,0,0,0,0,0,0,0,0,0,0,0,0,0,0,0,0,0,0,0,0,0,0,0,0,0,0,0,0,0,0,0,0-.6,0-1.2.1-1.7,0,0,0,0,0-.1,0,0,0,0,0,0,0,0,0,0,0,0,0,0,0,0,0,0,0,0,0,0,0,0,0,0,0,0,0,0,0,0,0,0,0,0,0,0,0,0,0,0,0,0,0,0,0,0,0,0,0,0,0,0,0,0,0,0,0,.1l.3.7s0,0,0,0c0,0,0,0,0,0,0,0,0,0,0,0,0,0,0,0,0,0,0,0,0,0,0,0,0,0,0,0,0,0,0,0,0,0,0-.1.7-2.7.4-4.8-.8-6.5-.3-.4-.5-.9-.5-1.5,0-9.8.5-15.4-.8-23.4,0,0-1.1-7.6-3.2-22.5-.1-.9,0-2.1-.2-3.1,0,0,0,0,0-.1,0,0,0,0,0,0,0,0,0,0,0,0,0,0,0,0,0,0,0,0,0,0,0,0,0,0,0,0,0,0,0,0,0,0-.1,0-7.7,17.2-14.5,33.4-20.2,48.5-.1.3-.3.5-.6.7-.5.3-1,.5-1.8.5-.3,0-.5.2-.5.5,0,.8-.4,1.6-.9,2.2-.1.1-.2.3-.2.4l-.3,3.5c0,0,0,.1,0,.2-.2.7-.7,1.1-1.5,1,0,0-.1,0-.2,0,0,0,0,0,0,0,0,0,0,0,0,0,0,0,0,.1,0,.2,0,0,0,0,0,0,0,0,0,.1,0,.2l1,1c.1.1.2.3,0,.5l-2,4.7s0,0,0,0c0,0,0,0,0,.1,0,0,0,0,0,.1,0,0,0,0,0,.1,0,0,0,0,0,.1,0,0,0,0-.1,0,0,0,0,0-.1,0,0,0,0,0-.1,0,0,0,0,0-.1,0,0,0,0,0-.1,0,0,0,0,0-.1,0,0,0,0,0-.1,0s0,0-.1,0c0,0,0,0-.1,0,0,0,0,0-.1,0,0,0,0,0-.1,0,0,0-.1,0-.2,0-3-1.4-4.7-3.8-5.8-7.2-1.5-4.5-2.7-8.1-3.6-10.9-.4-1.3-1-2.6-1.7-3.9-2-3.7-3.9-7.4-5.7-11.1-3-6.1-5.6-16.1-8.1-21.5-1.6-3.6-3.5-7.2-5.8-11,0,0,0,0,0-.1,0,0,0,0-.1,0,0,0,0,0,0,0,0,0,0,0,0,0,0,0,0,0-.1,0,0,0,0,0,0,0,0,0,0,0,0,0,0,0,0,0-.1,0,0,0,0,0,0,.1-.7,2.8-1.6,5.2-2,8.1-.9,7.1-1.9,14-2.8,20.6-.6,3.9-.8,7.7-.8,11.5,0,6.6,0,13.3,0,20.4,0,.2.2.4.4.4h3.2s0,0,0,0c0,0,0,0,0,0,0,0,0,0,0,0l-2.7,1c0,0-.1,0-.2.1,0,0,0,0,0,0,0,0,0,.1,0,.2,0,0,0,0,0,0,0,0,0,0,0,0,0,0,0,0,0,0,0,0,0,.1.1.2,0,0,0,0,0,0,0,0,.1,0,.2,0l7.2.3s0,0,.1,0c.4.2.3.4-.3.5,0,0-.1,0-.2,0,0,0,0,0,0,0,0,0,0,0,0,0,0,0,0,0,0,0,0,0,0,0,0,.1,0,0,0,0,0,.1,0,0,0,0,0,.1,0,0,0,0,0,.1,0,0,0,0,0,.1,0,0,0,0,0,0,0,0,0,.1.1.2.5.5,1,.8,1.6,1,0,0,.1,0,.2.1,0,0,0,0,0,0,0,0,0,0,0,0,0,0,0,0,0,0,0,0,0,0,0,.1,0,0,0,0,0,.1,0,0,0,0,0,.1,0,0,0,0,0,.1,0,0,0,0,0,.1,0,0,0,0,0,0,0,0,0,.1-.2.2-.7.5-1.5.8-2.6.8-10.4,0-18.9,0-25.4,0,0,0,0,0-.1,0,0,0,0,0,0,0,0,0,0,0,0,0,0,0,0,0,0,0,0,0,0-.1,0-.2s0,0,0,0c0,0,0-.1,0-.2l1-1.1c.3-.3.4-.7.3-1.1l-.6-1.7s0,0,0-.1c0,0,0,0,0,0,0,0,0,0,0,0,0,0,0,0,0,0,0,0,0,0,0,0,0,0,0,0,0,0,0,0,0,0,0,0,0,0,0,0,0,0,0,0,0,0,.1,0l5.3-.3s0,0,.1,0c0,0,0,0,0,0,0,0,0,0,0,0,0,0,0,0,0,0,0,0,0,0,0,0,0,0,0,0,0,0,0,0,0,0,0,0,0,0,0,0,0,0,0,0,0,0,0-.1-.2-.3-.4-.5-.6-.6,0,0,0,0-.1-.1,0,0,0,0,0,0,0,0,0,0,0,0,0,0,0,0,0,0,0,0,0,0,0,0,0,0,0,0,0,0,0,0,0,0,0,0,0,0,0,0,0,0,0,0,0,0,.1-.1.1,0,.2,0,.2-.1.4-.3.6-.7.7-1.2l1.8-8.5c0-.2.2-.3.3-.3h2.2c0-.1.1-.1.2-.2,0,0,0,0,0,0,0,0,.1-.1.1-.2,0,0,0,0,0,0,0,0,0,0,0,0,0,0,0,0,0,0,0,0,0-.1,0-.2,0,0,0,0,0,0,0,0-.1-.1-.2-.1l-2-.9c-.3-.1-.4-.4-.4-.7l.9-4.3c0-.2,0-.4,0-.7-1.3-3.2-1.2-6.7.2-10.6.1-.3.3-.6.6-.7,1-.6,2-1.6,2.9-3,0,0,0,0,0-.1,0,0,0,0,0,0,0,0,0,0,0-.1,0,0,0,0,0-.1,0,0,0,0,0-.1,0,0,0,0,0-.1,0,0,0,0,0-.1,0,0,0,0,0-.1,0,0,0,0,0-.1,0,0,0,0,0-.1,0,0,0,0,0-.1,0,0,0,0,0-.1,0,0,0,0,0-.1,0,0,0,0,0-.1,0,0,0,0,0,0,0,0,0,0-.1,0,0,0-.1,0-.2-.1-1.3-.7-2-1.9-2.1-3.6-.1-5.3-.2-11.7,0-19.1,0-.3.2-.6.4-.8l.4-.3c0,0,0,0,.1-.1,0,0,0,0,0,0,0,0,0,0,0,0,0,0,0,0,0,0,0,0,0,0,0,0,0,0,0,0,0,0,0,0,0,0,0,0,0,0,0,0,0,0,0,0,0,0-.1-.1l-.3-.2c-.4-.2-.6-.8-.3-1.2,1-1.9,1.2-3.3.6-4.3-.2-.3-.2-.6,0-.9.3-.8.3-1.6,0-2.6-.1-.4-.1-.7,0-.8.3-.4.2-.6-.3-.8,0,0-.2,0-.3,0h-.2c-.2.3-.5.3-.7.2-1.1-.4-1.9-.6-2.4-.6-.6,0-1.2-.4-1.2-1-.1-1-.4-1.9-.9-2.8,0,0,0-.2,0-.3,0,0,0,0,0,0,0,0,0,0,0,0,0,0,0,0,0-.1,0,0,0,0,0-.1,0,0,0,0,0-.1,0,0,0,0,.1,0,0,0,0,0,0,0,0,0,.2,0,.3,0,4.4-.2,9.2-.8,14.5-1.9,1.2-.2,2.3-.6,3.3-1.2.1,0,.2,0,.4,0l15.9,1c.1,0,.2,0,.3.2.4.8,1.1,1.3,1.9,1.6,0,0,0,0,.1.1,0,0,0,0,0,0,0,0,0,0,0,0,0,0,0,0,0,0,0,0,0,0-.1.1l-5.8,2.1c-.4.1-.6.6-.5,1,1.8,6.7,6.4,12.6,9.6,18.5.5.8.4,1.4-.1,1.8-.2.1-.3.4-.1.6,3.2,5.2,6,10.5,6.3,16.9,0,1.5.5,2.8,1.3,3.9.3.3.4.7.5,1.2.4,3.4,1.6,6.8,3.7,10.2,0,0,0,0,0,0,0,0,0,0,0,0,0,0,0,0,.1.1,0,0,0,0,.1,0,0,0,0,0,.1,0,0,0,0,0,.1,0,0,0,0,0,.1,0,0,0,0,0,.1,0,0,0,.1,0,.2,0,1-.8,1.6-2,1.7-3.6,0-1.8,1.1-3,1.6-4.6,4.4-14.7,9.1-30.8,14-48.4,0-.2,0-.5-.3-.6l-.3-.2s0,0,0,0c0,0,0,0,0,0,0,0,0,0,0,0,0,0,0,0,0,0,0,0,0,0,0,0,0,0,0,0,0,0,0,0,0,0,0,0,0,0,0,0,0,0,0,0,0,0,0-.1.9-.9,1.7-1.3,2.5-1.4,3.7-.3,7.1-.6,10-1,0,0,0,0,0,0,0,0,0,0,0,0,0,0,0,0,0,0,0,0,0,0,0,0,0,0,0,0,0,0,0,0,0,0,0,0,0,0,0,0,0,0,0,0,0,0,0,0,0,0,0,0,0,0,0-.2-.3-.4-.8-.5,0,0,0,0-.1-.1,0,0,0,0,0,0,0,0,0,0,0,0,0,0,0,0,0,0,0,0,0,0,.1-.1,1.3-.4,2.1-.2,2.6.6.1.2.4.4.6.4l9.9,1s0,0,0,0c.4.2.6.4.8.7.1.3.3.5.6.5,1.5.3,3,.3,4.6,0,0,0,.1,0,.2,0,0,0,0,0,0,0,0,0,0,0,0,0,0,0,0,0,0,0,0,0,0,0,.1,0,0,0,0,0,0,0,0,0,0,0,0,0,0,0,0,0,0,.1,0,0,0,0,0,.1,0,0,0,0,0,0,0,0,0,.1,0,.2-.6,1.6-.8,3.4-.6,5.5,0,0,0,0,0,.1,0,0,0,0,0,0,0,0,0,0,0,.1,0,0,0,0,0,.1,0,0,0,0,0,.1,0,0,0,0-.1,0,0,0,0,0-.1,0,0,0,0,0-.1,0,0,0-.1,0-.2,0l-4.5-.3s0,0,0,0c0,0,0,0-.1,0,0,0,0,0-.1,0,0,0,0,0-.1,0,0,0,0,0-.1,0,0,0,0,0,0,.1,0,0,0,0,0,.1,0,0,0,0,0,.1,0,0,0,0,0,.1l-.2,3.6c0,0,0,.1,0,.2,0,0,0,0,0,0,0,0,0,0,0,0,0,0,0,0,0,.1,0,0,0,0,0,0,0,0,0,0,0,0,0,0,0,0,.1,0,0,0,0,0,0,0,0,0,.1,0,.2,0l.4-.2c0,0,.1,0,.2,0,0,0,0,0,0,0,0,0,0,0,.1,0,0,0,0,0,0,0,0,0,0,0,0,0,0,0,0,0,0,0,0,0,0,0,0,0,0,0,0,0,0,0,0,0,0,0,0,.1,0,0,0,0,0,0,0,0,0,.1,0,.2l-2.1,3.7c-.4.7-.4,1.5,0,2.1l2,3.4c.1.2.2.5.2.7,0,.7,0,4,0,10.1s-.4,1.3-1.2,1.8c-.2.1-.4.4-.3.6l.3,5.7c0,.3.2.7.4.9l.4.4c.2.2.3.4.3.7.2,5.5.2,12.4.2,20.7,0,.5.3,1.2.9,2.1.1.2.2.3.3.5.2.6.2,2.9,0,7-.1,2.2,1,3.2,3.3,3,.1,0,.2,0,.2.2,0,0,0,0,0,0,0,0,0,0,0,0,0,0,0,0,0,0,0,0,0,0,0,0,0,0,0,0,0,0-.9.1-1.7.4-2.4.8,0,0,0,0-.1.1,0,0,0,0,0,0,0,0,0,0,0,.1,0,0,0,0,0,0,0,0,0,0,0,0,0,0,0,0,0,0,0,0,0,0,0,0,0,0,0,0,0,0,0,0,0,0,0,0,0,0,0,0,0,0,0,0,.1,0,.2,0l7.2.3s0,0,.1,0h0c0,.1,0,.2-.2.2-.7.1-1.1.2-1.2.3,0,0-.1,0-.2.2,0,0,0,0,0,0,0,0,0,0,0,.2,0,0,0,0,0,0,0,0,0,0,0,0,0,0,0,0,0,.1,0,0,0,0,0,.1,0,0,0,0,0,0,0,0,0,0,.1.1,0,0,0,0,0,0,0,0,.1,0,.2,0,1.2.3,1.9,0,2.3-.7,0,0,0,0,0,0,0,0,0,0,0,0,0,0,0,0,0,0,0,0,0,0,0,0,0,0,0,0,0,0,0,0,0,0,.1,0,0,0,0,0,0,0l.9.9c0,0,0,.1,0,.2,0,0,0,0,0,0ZM235.9,282.4c0-.2.1-.3.2-.4,0,0,.2-.1.3-.2,0,0,0,0,0,0h0c.4,0,.7.4.7.9,0,.5-.2.9-.6,1-.4,0-.7-.4-.7-.9,0-.1,0-.3,0-.4ZM235.8,278.8h0c0-.3,0-.5.2-.7.1-.2.3-.3.5-.3h0s0,0,0,0c.3,0,.6.4.6.9,0,0,0,.2,0,.3,0,.2,0,.3-.2.4,0,0,0,.1-.2.1,0,0-.2,0-.3,0-.4,0-.7-.4-.7-.9ZM236.9,254.2s0,0,0,0c-.1.1-.3.2-.4.2h0s0,0,0,0c0,0-.1,0-.2,0-.1,0-.2-.2-.3-.4,0-.1,0-.3,0-.5,0-.1,0-.2,0-.3.1-.3.4-.5.7-.5.4,0,.6.5.6,1s-.1.5-.3.6ZM235.9,249.5c0-.4.2-.7.4-.9,0,0,.2,0,.3,0,0,0,.2,0,.3,0,.2.2.4.5.4.9,0,.1,0,.3,0,.4,0,.1,0,.2-.1.3-.1.2-.3.3-.5.3h0c-.1,0-.3,0-.4-.2-.1-.1-.2-.3-.2-.4,0-.1,0-.2,0-.4ZM248.6,326.6h0c0,.4,0,.7-.2.9,0,0,0,.1-.2.2,0,0,0,0,0,0-.2,0-.4-.5-.4-1.1h0c0-.6.2-1.1.4-1.1,0,0,0,0,0,0,0,0,0,0,.1,0,0,0,.1.2.2.4,0,0,0,.1,0,.2,0,0,0,.1,0,.2,0,0,0,.1,0,.2h0ZM253,309.4s0,0-.1-.1c0,0,0,0,0,0,0-.3-.2-.8-.2-1.4,0-.1,0-.3,0-.4h0c0-1.2,0-2.1,0-2.1,0,0,0,0,0,0,0,0,0,.1,0,.3,0,.3.1.7.2,1.2,0,.2,0,.4,0,.6h0c0,1.2,0,2.1,0,2.1ZM277,194.5s0,0,0-.1c0,0,0,0,0-.1,0,0,0,0,0,0,0,0,0,0,0,0,0,0,0,0,.1,0,0,0,0,0,0,0,0,0,.1,0,.2,0h5.1c.7.1,1.3.7,1.3,1.4v2.3c0,.3-.2.5-.5.6-.9.3-1.6.7-2.1,1.2,0,0,0,0,0,0,0,0,0,0,0,0,0,0,0,0,0,0,0,0,0,0-.1,0,0,0,0,0-.1,0,0,0,0,0-.1,0,0,0,0,0,0,0,0,0,0,0,0,0,0,0,0,0-.1,0l-3.5-4.5c0,0,0-.1,0-.2,0,0,0,0,0,0,0,0,0,0,0-.1,0,0,0,0,0,0ZM292.6,306.5s0,0,0,.1c0,0,0,0,0,0,0,0,0,0-.1.1-1.8.8-3.8,1.1-6,1.1-6.8,0-13.5-.3-20.1-1-.3,0-.5-.2-.5-.5l-.2-1.1c0-.2-.2-.4-.5-.4-.9,0-1.5.4-2,1.4,0,0,0,0,0,.1,0,0,0,0,0,0,0,0,0,0,0,0,0,0,0,0,0,0,0,0,0,0,0,0,0,0,0,0,0,0,0,0,0,0,0,0,0,0,0,0,0,0,0,0,0,0-.1,0-.8-.7-2.3-.9-4.6-.6-.5,0-1,0-1.3-.4l-1.3-1.3c-.2-.2-.2-.4,0-.6.7-.8,1.4-1.3,2.1-1.3.6,0,2.5,0,5.8-.1.2,0,.5-.1.6-.3,1-1.1,1.5-2.1,1.6-2.8.3-1.9.5-3.1.7-3.7.1-.4.2-.9.2-1.3l1.3-63.2c0,0,0-.1.1-.2.1,0,.3-.1.6-.1,0,0,.1,0,.2,0,0,0,0,0,0,0,0,0,0,0,.1,0,0,0,0,0,0,0,0,0,0,0,0-.2,0,0,0,0,0,0,0,0,0,0,0-.1,0,0,0,0,0-.1,0,0,0-.1,0-.2,0,0,0,0,0,0,0,0,0,0,0-.1,0,0,0,0,0,0,0,0-.1,0-.2-.1-.3-.2-.6-.2-.9-.3-3.7-.3-7.3-.5-10.8-.9,0,0-.1,0-.2,0,0,0,0,0,0,0,0,0,0,0,0,0,0,0,0,0,0,0,0,0,0,0,0,0,0,0,0,0,0,0,0,0,0,0,0,0,0,0,0,0,0,0,0,0,0-.1,0-.2l.6-.6s0,0,0-.1c0,0,0,0,0,0,0,0,0,0,0,0,0,0,0,0,0,0,0,0,0,0,0,0,0,0,0,0,0,0,0,0,0,0,0,0,0,0,0,0,0,0,0,0,0,0-.1,0-.5-.2-.6-.7-.3-1.5.1-.3.4-.5.7-.5h26.2c.3,0,.6-.2.7-.5v-.2c0,0,0,0,0,0,0,0,0,0,0,0,0,0,0,0,0,0,0,0,0,0,0,0,0,0,0,0,0,0,0,0,0,0,0,0,0,0,0,0,0,0,0,0,0,0,0,0,0,0,0,0,0,0-2.9-.2-5.9-.4-8.8-.5h0c3.1-.2,6.5-.3,10.3-.2,0,0,0,0,.1,0,0,0,0,0,0,0,0,0,0,0,0,0,0,0,0,0,0,0,0,0,0,.1,0,.2,0,0,0,0,0,0,0,0,0,.1,0,.2l-.3.3s0,0,0,.1c0,0,0,0,0,0,0,0,0,0,0,0,0,0,0,0,0,0,0,0,0,0,0,0,0,0,0,0,0,0,0,0,0,0,0,0,0,0,0,0,0,0,0,0,0,0,0,0,0,0,0,0,0,0,0,0,0,0,.1,0l3.7.2c.1,0,.2,0,.2.2,0,.1,0,.2-.2.2l-2.1.3c0,0-.1,0-.2,0,0,0,0,0,0,0,0,0,0,0,0,0,0,0,0,0,0,0,0,0,0,0,0,0,0,0,0,0,0,0,0,0,0,0,0,.1,0,0,0,0,0,.1,0,0,0,0,0,.1s0,0,0,0c0,0,0,.1.1.2.5.6,1.2,1,2.1,1.2,0,0,.1,0,.2,0,0,0,0,0,.1.1,0,0,0,0,0,0,0,0,0,0,0,0,0,0,0,0,0,.1,0,0,0,0,0,.1,0,0,0,0,0,0,0,0,0,.1,0,.2,0,0,0,0-.1.1-1,.6-2.2.9-3.5.9-.2,0-.4-.1-.5-.3-.3-.9-1-1.4-2.1-1.5,0,0-.1,0-.2,0,0,0,0,0,0,0,0,0,0,0-.1,0,0,0,0,0,0,0,0,0,0,0,0,0,0,0,0,0,0,0,0,0,0,0,0,0,0,0,0,0,0,0,0,0,0,0,0,.1,0,0,0,0,0,0,0,0,0,0,0,.1,0,0,0,0,0,0,0,0,0,0,0,.1,0,0,0,0,0,0,0,0,0,0,.2.1l1.1.4s0,0,0,0c0,0,0,0,0,0,0,0,0,0,0,0,0,0,0,0,0,0,0,0,0,0,0,0,0,0,0,0,0,0,0,0,0,0-.1,0-1.5.2-2.1-.2-2.9,1.2-.1.2-.3.3-.5.2-.1,0-.3-.2-.4-.3,0,0-.1,0-.2-.1,0,0,0,0,0,0,0,0,0,0,0,0,0,0,0,0,0,0,0,0,0,0,0,0,0,0,0,0,0,0,0,0,0,0,0,0,0,0,0,0,0,0,0,0,0,.1-.1.2-.8,5.1-.5,9.7-.4,19,0,2.1-.8,5.5-.9,8.2-.2,6.1-.3,11.9-.2,17.6,0,1.5-.4,3.3-.4,4.3,0,0,0,0,0,0,0,0,0,0,0,0,0,0,0,0,0,0,0,0,0,0,0,0,0,0,0,0,0,0,0,0,0,0,0,0,0,0,0,0,0,0,0,0,0,0,0,0,0,0,0,0,0,0,.3,0,.5,0,.6.1,0,0,.2.1.2.2,0,0,0,0,0,0,0,0,0,.1,0,.2,0,0,0,0,0,0,0,0,0,0,0,0,0,0,0,0,0,.1,0,0,0,0,0,.1,0,0,0,0,0,.1,0,0,0,.1-.1.2,0,0,0,0,0,0,0,0-.2,0-.3.1-.3,0-.4,0-.6,0,0,0,0,0-.1,0,0,0,0,0,0,0,0,0,0,0,0,0,0,0,0,0-.1,0,0,0,0,0,0,0,0,0,0,0,0,0,0,0,0,0,0,0,0,0,0,0,0,0,0,0,0,0,0,.1v3c0,0,0,.1,0,.2,0,0,0,0,0,0,0,0,0,0,0,0,0,0,0,0,0,0,0,0,0,0,0,0,0,0,0,0,0,0,0,0,.1,0,.1,0,.2-.3.4-.4.7-.4,0,0,0,0,.1,0,0,0,0,0,0,0,0,0,0,0,.1,0,0,0,0,0,0,0,0,0,0,0,0,.1,0,0,0,0,0,.1,0,0,0,0,0,.2,0,0,0,.1,0,.2,0,0,0,.2,0,.2-.1.6-.5.8-1.1.5,0,0,0,0-.1,0,0,0,0,0,0,0,0,0,0,0,0,0,0,0,0,0,0,0,0,0,0,0,0,0,0,0,0,0,0,0,0,0,0,0,0,0,0,0,0,0,0,0,0,0,0,0,0,.1l2.4,16.4c0,.2.2.4.5.4l8.2.5c0,0,.1,0,.1,0,.9.8,1.5,1.5,1.7,2.1,0,.2.3.4.5.4h1.3c0,0,.1.1.2.1,0,0,0,0,0,0,0,0,0,0,0,0,0,0,0,0,0,0,0,0,0,0,0,0,0,0,0,0,0,0,0,0,0,0,0,0,0,0,0,0,0,0ZM265.6,254.8v4.3c0,0,0,.1,0,.2,0,.2-.2.3-.4.3h0c-.3,0-.5-.2-.5-.5v-4.3s0,0,0,0c0-.3.2-.5.5-.5h0c.3,0,.5.2.5.5ZM265.2,249.2v-17.5c0,0,0-.1,0-.2,0,0,.1-.2.2-.2,0,0,.1,0,.2,0h.4c.2,0,.4.2.4.4v17.5c0,.1,0,.2-.1.3s0,0-.1,0-.1,0-.2,0h-.4c0,0-.1,0-.2,0-.1,0-.2-.2-.2-.4ZM265.6,267.6c0,.3-.2.5-.5.5h0c-.1,0-.3,0-.4-.2,0,0,0,0,0-.1,0,0,0,0,0-.1,0,0,0,0,0,0h0s0-4.9,0-4.9c0,0,0-.1,0-.2,0-.2.2-.3.4-.3h0c0,0,.1,0,.2,0,0,0,.2,0,.2.2,0,0,0,0,0,.1,0,0,0,0,0,.1v4.9ZM264.8,271.1s0,0,.1-.1c0,0,0,0,0,0,0,0,0,0,0,0,0,0,0,0,0,0,0,0,0,0,0,0,0,0,0,0,0,0,0,0,0,0,0,0,0,0,0,0,0,0,0,0,0,0,0,0,0,0,.1.1.2.2.1.3.1.7,0,1.1,0,.1-.1.3-.2.3,0,0,0,0,0,0,0,0,0,0,0,0,0,0,0,0-.1,0,0,0,0,0-.1,0,0,0,0,0,0,0,0,0-.1,0-.2,0,0,0-.1,0-.1-.1-.2-.4-.2-.8,0-1.3ZM265.6,274.2v9.3s0,0,0,0c0,.3-.2.5-.5.5h0s0,0,0,0c-.2,0-.3,0-.4-.2,0,0,0-.2,0-.2v-9.3s0,0,0,0c0,0,0,0,0,0,0,0,0,0,0-.1,0-.2.2-.3.4-.3h0s0,0,0,0c.2,0,.4.1.4.3,0,0,0,.1,0,.2ZM264.6,285.3s0,0,0,0c0,0,0,0,.1-.1,0,0,0,0,0,0,0,0,.1,0,.2,0,0,0,0,0,0,0,0,0,.2,0,.3,0,.3,0,.4.4.2,1.1,0,.4-.3.5-.6.3,0,0-.2-.1-.2-.2,0,0,0,0,0,0,0,0,0-.1,0-.2,0,0,0,0,0,0,0,0,0-.1,0-.2,0,0,0,0,0-.1,0,0,0,0,0,0,0,0,0,0,0-.1,0,0,0-.1,0-.1ZM265.6,288v6.8c0,.3-.2.5-.5.5h0c-.3,0-.5-.2-.5-.5v-3.4s0-3.4,0-3.4c0-.3.2-.5.5-.5h0c0,0,.1,0,.2,0,0,0,.1,0,.1,0,0,0,.1.2.1.3ZM288.2,301.6h0s0,.2,0,.2h0c0,.3-.2.5-.5.5,0,0,0,0,0,0h0s-6.2,0-6.2,0c-.3,0-.5-.2-.5-.5v-.2s0,0,0,0c0,0,0-.1,0-.2,0,0,0,0,0-.1,0-.1.2-.2.4-.2h6.3s0,0,0,0c.3,0,.4.2.5.5,0,0,0,0,0,0ZM280.7,241.9c0,0,0,.1-.1.1,0,0,0,0,0,0,0,0,0,0,0,0,0,0,0,0-.1,0,0,0,0,0,0,0,0,0,0,0,0,0,0,0,0,0,0,0,0,0,0,0,0,0,0,0,0,0-.1-.1-.2-.4-.3-.7-.1-1.1,0,0,0-.1.1-.2,0,0,0,0,0,0,0,0,0,0,.1,0,0,0,0,0,0,0,0,0,0,0,0,0,0,0,0,0,.1,0,0,0,0,0,.1,0,0,0,0,0,0,0,0,0,0,0,.1.1,0,0,0,0,0,0,0,0,0,.1.1.2,0,.3,0,.6-.1.9ZM279.5,267.7s0,0-.1.1c0,0,0,0,0,0,0,0,0,0,0,0,0,0,0,0,0,0,0,0,0,0,0,0,0,0,0,0,0,0,0,0-.1,0-.2,0,0,0,0,0,0,0,0,0-.1,0-.2-.2-.2-.2-.2-.6,0-1,0,0,0-.1,0-.2,0,0,0,0,0,0,0,0,0,0,.1,0,0,0,0,0,0,0,0,0,0,0,0,0,0,0,0,0,0,0,0,0,0,0,0,0,0,0,0,0,0,0,0,0,0,0,.1,0,0,0,0,0,0,0,0,0,0,0,.1.1.1.2.2.5.2.7,0,0,0,.2,0,.2,0,0,0,0,0,0ZM279.4,272.2c0,0,0,.1-.1.2,0,0,0,0,0,0,0,0,0,0-.1,0,0,0,0,0,0,0,0,0,0,0,0,0,0,0,0,0-.1,0,0,0,0,0-.1,0,0,0,0,0,0,0,0,0,0,0-.1,0,0,0,0,0,0,0,0,0,0,0,0-.2,0-.3-.1-.5,0-.8,0,0,0-.1,0-.2,0,0,0,0,0,0,0,0,0,0,.1,0,0,0,0,0,0,0,0,0,0,0,0,0,0,0,0,0,0,0,0,0,0,0,0,0,0,0,0,0,0,0,0,0,0,0,.1,0,0,0,0,0,0,0,0,0,.1,0,.1.1.2.3.2.6,0,.9ZM278.6,263.7c0,0,0,0,0-.1,0,0,0,0,0,0,0,0,0,0,0,0,0,0,0,0,0,0,0,0,.1,0,.2,0,0,0,.1,0,.2,0,0,0,0,0,0,0,0,0,0,0,0,0,0,0,0,0,.1.1.2.4.2,1-.2,1.7,0,0,0,.1-.1.1,0,0,0,0,0,0,0,0-.1,0-.2,0,0,0,0,0,0,0,0,0-.1,0-.1-.1-.2-.6-.2-1.1-.1-1.6ZM295.2,314.6c0,.1-.2.2-.3.3-.2.2-.4.3-.5.4,0,0,0,0,0,0,0,0,0,0,0,0,0,0,0,0,0,0h0c-.2-.1,0-.6.4-1.1.4-.5.8-.8,1-.7.2.1,0,.6-.4,1.1ZM300.1,205.3c-.1,0-.2,0-.4,0s-.3,0-.4,0c-.3-.1-.6-.5-.6-.9s.4-.9.9-.9.2,0,.3,0c.2,0,.3.2.4.3,0,0,.1.1.1.2,0,.1,0,.2,0,.4,0,.4-.2.7-.6.9ZM304,332.4c0,0-.1.2-.2.3-.2.2-.6.4-1,.6,0,0,0,0,0,0,0,0-.1,0-.2,0,0,0-.2,0-.2,0-.1,0-.3,0-.4.1-.2,0-.4,0-.5,0-.2,0-.3,0-.4-.1h0s0,0,0-.1c0,0,0,0,0,0,0,0,0,0,0-.1,0,0,.1-.2.2-.2,0,0,0,0,0,0,0,0,.1-.1.2-.2.1,0,.2-.2.4-.3,0,0,.2,0,.3-.1,0,0,0,0,.1,0,.8-.4,1.6-.5,1.7-.2h0s0,0,0,.1c0,0,0,0,0,.1ZM357.1,196.3s0,0,0,0c0,0,0,0,0,0,0,0,0,0,0,0,0,0,.1,0,.2,0,.3.2.4.4.5.7,0,0,0,0,0,.1,0,0,0,0,0,0,0,0,0,0,0,0,0,0,0,0,0,0,0,0,0,0,0,0,0,0,0,0,0,0,0,0,0,0,0,0,0,0,0,0,0,0,0,0,0,0,0,0,0,0,0,0,0,0,0,0,0,0-.1,0-.2,0-.3-.4-.4-.8,0,0,0-.1,0-.2ZM332.6,198.2s0,0,0,0c0,0,0,0,0-.1,2.5-2.1,5.1-3.8,7.8-5,.1,0,.2,0,.3,0,0,0,0,0,.1,0,0,0,.2,0,.2,0,0,0,0,0,.1,0,0,0,.1,0,.2.1,0,0,0,0,0,0,0,0,0,0,0,0,0,0,0,0,0,.1,0,0,0,.1.1.2,0,0,0,0,0,0,0,0,0,.2,0,.2,0,0,0,0,0,.1,0,0,0,.2,0,.2,0,0,0,0,0,0,0,.1-.1.2-.2.3l-2.4,2.4c-.2.2-.6.4-.9.4-1.4.1-3,.5-4.8,1.2-.1,0-.2,0-.4,0-.2,0-.3,0-.4,0,0,0,0,0,0,0,0,0,0,0,0,0,0,0,0,0,0,0,0,0,0,0,0,0,0,0,0,0,0,0s0,0,0,0c0,0,0,0,0,0ZM316.8,199.6s0,0,0,0c0,0,0-.1,0-.2,1.9-2.4,3.9-5.6,6.2-9.6,1.5-2.7-.7-4.5-3-6.5,0,0,0,0,0,0,0,0,0,0,0,0,0,0,0,0,0,0,0,0,0,0,0,0,0,0,0,0,0,0,0,0,0,0,0,0,0,0,0,0,0,0,0,0,0,0,0,0,0,0,0,0,0,0l2.1-1.3s0,0,.1,0c0,0,0,0,0,0,0,0,0,0,.1,0,0,0,0,0,.1,0,0,0,0,0,.1,0,0,0,0,0,.1,0,0,0,0,0,0,0,0,0,0,0,0,0,0,0,0,0,0,.2l.7,2.1c.1.4.4.7.7,1l3.7,2.9c.7.5.9,1.4.6,2.2-.8,2-1.9,3.8-3.3,5.5-.2.2-.4.4-.6.5-1.5.9-4,1.6-5.5,3.5-.4.5-1,.8-1.6.8h-.6c0,0-.1,0-.2,0,0,0,0,0,0,0,0,0,0,0,0,0,0,0,0,0,0,0,0,0,0,0,0,0,0,0,0,0,0,0,0,0,0,0,0,0,0,0,0,0,0-.1,0,0,0,0,0-.1ZM313.7,198.5c0-.2,0-.3.2-.4.1-.1.3-.2.4-.2h1.3s0,0,0,0c0,0,.2,0,.2,0,0,0,.1,0,.1,0,.1.1.2.3.2.5h0c0,0,0,0,0,0,0,.3-.3.6-.6.6h-1.3c-.2,0-.3-.1-.4-.2s-.2-.3-.2-.4h0ZM310.4,223.3s0,0,0,0c0,0,0,0,0,0h34.3c.3,0,.6.2.6.5h0s0,0,0,0c0,0,0,0,0,.1,0,0,0,0,0,.1,0,0,0,0,0,0,0,0,0,0,0,0,0,0,0,0,0,0,0,0,0,0,0,0s0,0-.1,0c0,0,0,0-.1,0-15,0-24.8,0-29.2,0-2.2,0-3.7-.5-5.1-1,0,0,0,0,0,0,0,0,0,0,0,0,0,0,0,0,0,0ZM304.9,196.8s0,0,0,0c0,0,0,0,0,0,0,0,0,0,0,0,0,0,0,0,0,0,0,0,0,0,0,0,0,0,0,0,0,0,0,0,0,0,0,0,0,0,0,0,0-.1,0-.2.4-.6.8-1.2.5-.6.8-1,1-1.1,0,0,0,0,.1,0,0,0,0,0,0,0,0,0,0,0,0,0,0,0,0,0,0,0,0,0,0,0,0,0,0,0,0,0,0,0,0,0,0,0,0,0,0,0,0,0,0,0,0,0,0,0,0,.1.3.8.4,1.6.5,2.3,0,0,0,0,0,.1s0,0-.1.1c-.7.2-1.5.2-2.4.2,0,0,0,0-.1,0ZM312.6,325.2s0,0,0,0c0,0,0,0,0,0,0,0,0,0,0,0l-1.6.2s0,0,0,0c0,0,0,0,0,0,0,0,0,0,0,0,0,0,0,0,0,0,0,0,0,0,0,0h0c0-.1,0-.1,0-.2,0,0,0-.1,0-.2,0,0,0-.1,0-.2,0,0,0-.1,0-.2,0,0,0-.1,0-.2,0,0,0-.1,0-.2,0,0,0-.1,0-.2,0,0,0-.1,0-.2,0,0,0-.1,0-.2,0,0,0,0,0-.1,0,0,0,0,0-.1,0,0,0,0,0-.1,0,0,0,0,0,0,0,0,0,0,0,0,0,0,0,0,0,0,0,0,0,0,0,0,0,0,0,0,0,0h0s0,0,0,0c0,0,0,0,0,0,0,0,0,0,0,0,0,0,0,0,0,0,0,0,0,0,0,0,0,0,0,0,0,0,0,0,0,0,0,0,0,0,0,0,0,.1,0,0,0,0,0,.1,0,0,0,0,0,.1,0,0,0,0,0,.1,0,0,0,.1,0,.2,0,0,0,.1,0,.2,0,0,0,.1,0,.2,0,0,0,.1,0,.2,0,0,0,.1,0,.2,0,0,0,.1,0,.2h0c0,.2,0,.2,0,.2,0,0,0,0,0,0ZM326.9,347.3c0,0,0,0,0,.1,0,0,0,0,0,0,0,0,0,0,0,0,0,0,0,0,0,0,0,0,0,0,0,0,0,0,0,0,0,0,0,0,0,0,0,0,0,0,0,0,0,0,0,0,0,0-.1,0-.4-.5-.7-1-.7-1.4,0,0,0-.1,0-.2,0,0,0,0,0,0,0,0,0,0,0-.1,0,0,0,0,0-.1,0,0,0,0,0-.1,0,0,0,0,0,0,0,0,0,0,0,0,0,0,0,0,0,0,0,0,0,0,0,0,0,0,0,0,0,0,0,0,0,0,.1,0,0,0,0,0,.1,0,0,0,0,0,.1,0,0,0,0,0,.1,0,0,0,0,0,.1,0,0,0,0,0,.1,0,0,0,.1,0,.2,0,.5,0,.4.9-.2,2.4ZM332.8,328.5s0,0,0,0c0,0,0,.1,0,.2,0,0,0,0,0,0,0,0-.1.1-.2.1-.1,0-.4,0-.9,0-.5,0-.8,0-.9,0,0,0-.1,0-.2-.1,0,0,0,0,0,0,0,0,0-.1,0-.2,0,0,0,0,0,0,0,0,0,0,0,0,0,0,0,0,0,0,0,0,0,0,0,0,0,0,0,0,0,0,0,0,0-.1,0-.2,0,0,0,0,0,0,0,0,.1,0,.2-.1.1,0,.4,0,.9,0,.4,0,.7,0,.8,0,0,0,.2,0,.2.1,0,0,0,0,0,0,0,0,0,.1,0,.2,0,0,0,0,0,0,0,0,0,0,0,0,0,0,0,0,0,0,0,0,0,0,0,0ZM367.2,289.1c-.2,4.8-.7,10.5-1.3,17-.2,1.5-.8,3-1.9,4.3-.1.2-.4.3-.6.2-1.1-.3-1.7-.5-2-.7-.1,0-.2-.2-.3-.3l-2.2-2.8c-.2-.2-.5-.4-.8-.3-.5,0-4.4-.2-11.6-.7-3.7-.3-7.6-.2-11.8,0-8,.5-14.6.9-19.7,1.2-1.5,0-2.6-.1-3.3-.6-2.3-1.5-4.1-2.7-5.3-3.5,0,0,0,0,0,0,0,0,0,0,0,0,0,0,0,0,0,0,0,0,0,0,0,0,0,0,0,0,0,0,0,0,0,0,0,0,0,0,0,0,0,0,0,0,0,0,0,0,0,0,0,0,0,0,0,0,0,0,0,0,0,0,0,0,.1,0,5,0,9.4,0,13.8-.9,0,0,.1,0,.2,0,0,0,0,0,0,0,0,0,0-.1,0-.2,0,0,0,0,0,0,0,0,0,0,0,0,0,0,0,0,0,0,0,0,0-.1,0-.2,0,0,0,0,0,0,0,0-.1,0-.2,0h-.5c0,0-.2,0-.2-.1,0,0,0,0,0,0,0,0,0,0-.1-.1,0,0,0,0,0,0,0,0,0,0,0,0,0,0,0,0,0,0,0,0,0,0,0-.1,0,0,0,0,0,0,0,0,0-.1,0-.2,0,0,0,0,0,0,0,0,.1-.1.2-.2.5-.3.9-.6,1.2-1,.1-.2.2-.4.2-.6v-19.2c0-.3-.1-.5-.4-.6h-.2c-.3-.3-.5-.7-.5-1l.2-2.7c0-.1,0-.3.1-.4.8-1.2.9-2.7.3-4.3-.7-2-.7-4,0-5.9,0-.1,0-.3,0-.4,0-6.8,0-12.6-.2-17.4-.2-5.3.3-11.1.5-14.9,0,0,0,0,0,0,0,0,0,0,0,0,0,0,0,0,0-.1,0,0,0,0,0-.1s0,0,0-.1c0,0,0,0,0-.1,0,0,0,0,0,0,0,0,0,0,0,0,0,0,0,0,0,0,0,0,0,0,0,0,0,0,0,0,0,0,0,0,0,0,0,0,0,0,0,0,0,0,0,0,0,0-.1,0,0,0,0,0-.1,0,0,0,0,0-.1,0,0,0,0,0-.1,0-4.1,0-7-.1-8.7-.2-2.3,0-4.2-1-5.6-2.8,0,0,0,0,0,0,0,0,0,0,0,0,0,0,0,0,0,0,0,0,0,0,0,0,0,0,0,0,0,0l3.6-1.3s0,0,0,0c0,0,0,0,0,0,0,0,0,0,0,0,0,0,0,0,0,0,0,0,0,0,0,0,0,0,0,0,0,0,0,0,0,0,0,0,0,0,0,0,0,0,0,0,0,0,0,.1v1c.1,0,.1,0,.1,0,0,0,0,0,0,0,0,0,0,0,0,0,0,0,0,0,0,0,0,0,0,0,0,0,0,0,0,0,0,0,0,0,0,0,0,0,0,0,0,0,0,0,0,0,0,0,0,0,.5,0,1.3.1,2.3.5,0,0,0,0,0,0,0,0,0,0,0,0,0,0,0,0,0,0,0,0,0,0,0,0,0,0,0,0,0,0v-1.6c0-.3.2-.6.5-.6,8.1-.5,13.7-.6,16.9-.4,6,.4,10.7.7,14.3.9,0,0,0,0,.1,0,0,0,0,0,0,0,0,0,0,0,0,0,0,0,0,0,0,0,0,0,0,0,0,0,0,0,0,0,0,0,0,0,0,0,0,0,0,0,0,0,0,0,0,0,0,0,0,0,0,0,0,0,0,0,0,0,0,0,0,0l-.4.3c0,0,0,0-.1.1,0,0,0,0,0,0,0,0,0,0,0,.1,0,0,0,0,0,0,0,0,0,0,0,.1,0,0,0,0,0,0,0,0,0,0,0,0,0,0,0,0,0,.1,0,0,0,0,.1.1l1.3.7s0,0,.1.1c0,0,0,0,0,0,0,0,0,0,0,0,0,0,0,0,0,0,0,0,0,0,0,0,0,0,0,0,0,0,0,0,0,0,0,0,0,0,0,0,0,0,0,0,0,0,0,0,0,0,0,0,0,0,0,0,0,0-.1,0-2.3.9-5.2.8-9.6,1.1-1.6,0-3,.6-4.2,1.7-.2.1-.2.4-.2.6.2.9.4,1.4.4,1.6,0,.7,0,8.7,0,24,0,.3.2.4.5.4,0,0,.2,0,.2,0,0,0,0,0,0,0,0,0,0,0,.1,0,0,0,0,0,0,0,0,0,0,0,.1.1,0,0,0,0,0,0,0,0,0,0,0,0,0,0,0,0,0,.1,0,0,0,0,0,.1,0,0,0,0,0,0,0,0,0,.1,0,.2,0,0,0,0,0,0,0,0,0,.1,0,.2,0,0,0,0,0,0,0,0-.1.1-.2.2-.1,0-.3.1-.5.2-.2,0-.4.3-.4.5v2s0,0,0,0c0,0,0,0,0,0,0,0,0,0,0,0,0,0,0,0,0,0,0,0,0,0,0,0,0,0,0,0,0,0,0,0,0,0,0,0,0,0,0,0,0,0,0,0,0,0,.1,0,.1,0,.3,0,.6.1.2,0,.2.2.3.5,0,.5-.3.8-1,1.1,0,0,0,0,0,0,0,0,0,0,0,0,0,0,0,0,0,0,0,0,0,0,0,0,0,0,0,0,0,0,0,0,0,0,0,0,0,0,0,0,0,0,0,0,0,0,0,.1,0,0,0,0,0,.1.1.3.3.4.5.5.4,0,.6.2.7.5,0,.1,0,.3,0,.6,0,.2-.2.3-.5.4-.4,0-.6.2-.7.4,0,0,0,0,0,.1,0,0,0,0,0,0,0,0,0,0,0,0,0,0,0,0,0,0,0,0,0,0,0,0,0,0,0,0,0,0,0,0,0,0,0,0,0,0,0,0,0,0,0,0,0,0,.1,0,.5,0,.8.3.8.8,0,.3-.2.6-.5.7,0,0-.1,0-.2,0-.2,0-.3.2-.3.3v2.4c-.2.3-.3.5-.4.7-.5.6-.8,1.1-.8,1.6-.2,4.1-.2,11.7-.1,22.9,0,.3.3.6.6.6l11.4.7s0,0,0,0c0,0,0,0,0,0,0,0,0,0,0,0,0,0,0,0,0,0,0,0,0,0,0,0h0c0,0,0,.1-.2.1l-10.4,1.2s0,0,0,0c0,0,0,0,0,0,0,0,0,0,0,0,.4.2,1.3.3,2.6.3,6.6,0,11.8,0,15.5.1,0,0,0,0,0,0v-.2c.1,0,.1,0,.1,0,0,0,0,0,0,0,0,0,0,0,0,0,0,0,0,0,0,0,0,0,0,0,0,0l-7.1-1.2c0,0-.1,0-.1-.1h0c0-.2,0-.2,0-.2l15.8,1s0,0,0,0c0,0,0,0,0,0,0,0,0,0,0,0,0,0,0,0,0,0s0,0,0,0c0,0,0,0,0,0,0,0,0,0,0,0,0,0,0,0,0,0,0,0,0,0,0,0l.3-10.6c0-.5.2-1,.4-1.5l1.5-2.9s0,0,.1,0l2.5-.9s0,0,0,0c0,0,0,0,0,0,0,0,0,0,0,0,0,0,0,0,0,0,0,0,0,0,0,0,0,0,0,0,0,0,0,0,0,0,0,0,0,0,0,0,0,0,0,0,0,0,0,0,.2.6.2.9.6,1.2,1.1,1,1.7,2.4,1.6,4.2ZM307.8,300.6c0-.3.2-.5.5-.5h9.5s0,0,0,0c.3,0,.5.2.5.5h0c0,.3-.2.5-.5.5h-9.5c-.3,0-.5-.2-.5-.4h0ZM319.9,292.8c-.5,0-.7-.6-.5-1.8,0-.2,0-.3.1-.4,0,0,.2-.1.4-.1.2,0,.3,0,.4.1,0,0,.1.2.1.4.2,1.2,0,1.8-.5,1.8ZM320.5,297.6c0,.2-.2.4-.4.4h-.2c-.1,0-.2,0-.3-.1,0,0,0,0,0,0,0,0,0,0,0-.1,0,0,0,0,0-.1v-2c0-.2.2-.4.4-.4h.2s0,0,0,0c.2,0,.3.1.4.3,0,0,0,.1,0,.2v2ZM320.4,289.2s0,0,0,0c0,0-.1.1-.2.2s-.1,0-.2,0h0c-.2,0-.3,0-.4-.2-.1-.1-.2-.3-.2-.5,0,0,0,0,0,0h0c0-.4.3-.8.6-.8,0,0,.2,0,.2,0,.2,0,.3.2.3.4,0,0,0,.2,0,.3,0,.2,0,.4-.2.6ZM320.2,286.5c0,0-.2,0-.2,0,0,0,0,0,0,0,0,0,0,0,0,0,0,0,0,0-.1,0,0,0,0,0-.1,0,0,0,0,0-.1,0,0,0,0,0,0,0,0,0,0,0,0,0,0,0,0-.2,0-.2,0-.1,0-.2,0-.2,0,0,0-.2,0-.2,0,0,0,0,0,0,0,0,0,0,0,0s0,0,0,0c0,0,0,0,.1,0,0,0,0,0,.1,0,0,0,0,0,.1,0,0,0,0,0,.1,0,0,0,.1,0,.2,0,0,0,0,0,0,0,0,0,.2,0,.2.1.4.3.3.7-.3,1ZM320.6,283.4c0,0,0,.1,0,.2,0,0,0,.1,0,.2,0,0,0,0,0,0,0,0-.1.2-.2.2-.2,0-.3.1-.4,0,0,0-.2,0-.2-.2,0,0,0,0,0,0,0,0,0-.1-.1-.2,0,0,0,0,0-.2,0,0,0-.1,0-.2,0,0,0-.1,0-.2,0,0,0-.1,0-.2,0,0,0-.1,0-.2,0-.1.1-.2.2-.3.1-.1.3-.2.6,0,0,0,.2,0,.3.2,0,0,0,0,0,0,0,0,0,0,0,.1,0,0,0,0,0,0,0,0,0,.1,0,.2,0,0,0,0,0,.2,0,0,0,.1,0,.2ZM319.9,232.1v5.3c0,.3-.2.5-.5.5,0,0,0,0,0,0h-.2c-.3,0-.5-.2-.5-.5,0,0,0,0,0,0h0s0-5.3,0-5.3c0-.3.2-.5.5-.5,0,0,0,0,0,0h.2c.1,0,.2,0,.3.1,0,0,0,0,0,0,0,0,.1.2.1.3,0,0,0,0,0,0h0ZM333.6,248.2c-.1.1-.3.2-.4.2h-.2s0,0,0,0c-.3,0-.6-.3-.6-.6v-1.2s0,0,0,0c0-.3.3-.6.6-.6h.2c0,0,.2,0,.2,0,.2,0,.4.3.4.6v1.2s0,0,0,0c0,.2,0,.3-.2.4ZM333.8,250.1v1.2s0,0,0,0c0,.1,0,.2,0,.3,0,0-.1.1-.2.2,0,0-.2,0-.3,0,0,0,0,0,0,0h-.1s0,0,0,0c-.3,0-.6-.3-.6-.6v-1.2s0,0,0,0c0-.3.2-.5.4-.5,0,0,.1,0,.2,0h.1s0,0,0,0c.1,0,.2,0,.3.1,0,0,0,0,0,0,0,0,0,0,0,0,0,0,.1.2.1.3,0,0,0,0,0,0ZM332.4,242.7v-2c0-.3.3-.6.6-.6h.2c.3,0,.6.3.6.6v2c0,.3-.3.6-.6.6h-.2c-.3,0-.6-.3-.6-.6ZM333.1,239.3h0c0,0-.2,0-.3,0-.3-.2-.4-.5-.4-.9h0c0-.2,0-.4.2-.5s.2-.2.3-.3c0,0,.2,0,.3,0,.1,0,.2,0,.3,0,.1,0,.2.2.3.3s.1.3,0,.5h0c0,.5-.4.9-.8.9ZM332.3,275.8c0,0,0,.1-.1.2,0,0,0,0,0,0,0,0,0,0-.1,0,0,0,0,0,0,0,0,0,0,0,0,0,0,0,0,0-.1,0,0,0,0,0-.1,0,0,0,0,0,0,0,0,0,0,0-.1,0,0,0,0,0,0,0,0,0,0-.1-.1-.2-.1-.3-.1-.5,0-.8,0,0,0-.1,0-.2,0,0,0,0,0,0,0,0,0,0,0,0,0,0,0,0,0,0,0,0,0,0,0,0,0,0,0,0,0,0,0,0,0,0,0,0,0,0,0,0,0,0,0,0,0,0,.1,0,0,0,0,0,0,0,0,0,0,0,.1.1.2.3.3.6.2,1.1ZM332.4,282c0,.1,0,.2,0,.3,0,.3-.2.5-.4.6-.3,0-.6-.3-.7-.7,0-.5.1-.9.4-.9.1,0,.2,0,.3.1,0,0,.1.1.2.2,0,.1.1.3.1.4ZM331.3,286c0-.5.3-.8.6-.8h0c.2,0,.3.1.4.3,0,.2.1.4.1.6h0c0,.5-.3.8-.6.8h0c-.3,0-.5-.4-.5-.9h0ZM331.3,291.2s0,0,0,0c0,0,0-.2,0-.3,0-.2.1-.3.3-.4.1-.1.2-.2.4-.1,0,0,.2,0,.2,0,0,0,0,0,.1.2,0,.1.1.3.1.4,0,0,0,.2,0,.3h0c0,.5-.3.8-.6.8,0,0,0,0,0,0h0c0,0-.1,0-.2,0,0,0,0,0-.1-.1,0,0-.1-.2-.2-.4,0-.1,0-.3,0-.4ZM373.9,327.3c0,0,0,.1,0,.2,0,.2-.3.3-.5.3h-.2s0,0,0,0c0,0-.1,0-.2,0-.1,0-.2-.2-.3-.3,0,0,0-.1,0-.2v-1.3c0,0,0-.1,0-.2s0-.1.1-.2c0,0,0,0,0,0,0,0,.2-.1.4-.1,0,0,0,0,0,0h0s.2,0,.2,0c.1,0,.2,0,.3.1,0,0,0,0,0,0,0,0,0,0,0,0,0,0,.1.2.1.3v1.3ZM375.2,294.4s0,0,0,0c0,0,0,0,0,0,0,0,0,0,0,0,0,0,0,0-.1,0-.7-.5-.9-1-.5-1.5,0,0,0,0,.1-.1,0,0,0,0,0,0,0,0,0,0,0,0,0,0,0,0,0,0,0,0,0,0,0,0,0,0,0,0,0,0,0,0,0,0,0,0,0,0,0,0,0,0,0,0,0,0,.1.1.2.4.3.8.2,1.3,0,0,0,0,0,.1ZM414.9,301.6v.3s0,0,0,0c0,.3-.2.5-.5.5h-7.7s0,0,0,0c-.2,0-.4-.1-.4-.3,0,0,0-.1,0-.2v-.3s0,0,0,0c0-.3.2-.5.5-.5h7.7s0,0,0,0c.1,0,.3,0,.3.1,0,0,.1.2.1.3ZM402.3,194.4s0,0,0-.1c0,0,0,0,0-.1,0,0,0,0,0,0,0,0,0,0,0-.1,0,0,0,0,.1,0,0,0,0,0,0,0,0,0,.1,0,.2,0h5c.7.1,1.3.7,1.3,1.4v2.3c0,.3-.2.5-.5.6-.8.3-1.5.7-2.1,1.2,0,0,0,0,0,0,0,0,0,0,0,0,0,0,0,0,0,0,0,0,0,0-.1,0,0,0,0,0-.1,0,0,0,0,0-.1,0,0,0,0,0,0,0,0,0,0,0,0,0,0,0,0,0-.1,0l-3.4-4.5c0,0,0-.1-.1-.2,0,0,0,0,0,0,0,0,0,0,0-.1,0,0,0,0,0,0ZM415.5,307.2s0,0,0,0c0,0,0,0,0,0,0,0,0,0,0,0,0,0,0,0,0,0,0,0,0,0,0,0s0,0,0,0c0,0,0,0-.1,0-2.5.2-4.1.3-4.6.3-8.4-.2-17.3-.8-26.5-1.7-1.2-.1-2.3-.9-2.8-2v-.2c-.1,0-.2-.2-.2-.3,0,0,0,0,0,0,0,0,0-.2,0-.2,0,0,0,0,0,0,0,0,0,0,0,0,0,0,0-.1,0-.2,0,0,0,0,0-.1,0,0,0,0,0-.1,0,0,0,0,0-.1,0,0,0,0,0-.1,0,0,0,0,0-.1,0,0,0,0,0-.1,0,0,0,0,0,0,0,0,0,0,0,0,0,0,0,0,.1,0,0,0,0,0,0,0,0,0,.1,0,.2,0,0,0,0,0,0,0,0,0,.2,0,.3,0l6.7-.2c0,0,.1,0,.2,0,.3-.3.2-.6-.3-1,0,0,0,0,0,0,0,0,0,0,0,0,0,0,0,0,0,0,0,0,0,0,0,0,0,0,0,0,0,0,0,0,0,0,0,0s0,0,0,0c0,0,0,0,0,0,0,0,0,0,0,0,.4-.5.9-.7,1.6-.7,0,0,0,0,0,0,0,0,0,0,0,0,0,0,0,0,0,0,0,0,0,0,0,0,0,0,0,0,0,0,0,0,0,0,0,0,0,0,0,0,0,0,0,0,0,0,0,0,0,0,0,0,0-.1,0-.4.2-1.6.6-3.6.2-.8.3-2,.3-3.6.5-21.5.7-34.6.8-39.3,0-1.7,0-3.2.2-4.3,0-.3.1-.7.3-.9,1-1.6.9-3.3-.2-5.3,0,0,0-.1,0-.2l.2-10.7c0-.3.2-.5.5-.5.1,0,.2,0,.2,0,0,0,.1,0,.2-.1,0,0,0,0,0,0,0,0,0,0,0-.1,0,0,0,0,0,0,0,0,0-.1,0-.2,0,0,0,0,0,0,0,0,0,0,0,0,0,0,0,0,0-.1,0,0,0,0,0-.1,0,0,0,0,0,0,0,0,0-.1,0-.2,0,0,0,0,0,0,0,0,0,0-.1,0,0,0,0,0,0,0,0,0-.1,0-.2,0l-9.6-.8c-.2,0-.4-.1-.4-.3l-1-2.8c0,0,0-.1,0-.2,0,0,0,0,0,0,0,0,0,0,0-.1,0,0,0,0,0,0,0,0,0,0,0,0,0,0,0,0,0,0,0,0,0,0,0,0,0,0,0,0,.1,0,0,0,.1,0,.2,0h26.3c.3,0,.5-.2.5-.5v-.3s0,0,0,0c0,0,0,0,0,0,0,0,0,0,0,0,0,0,0,0,0,0,0,0,0,0,0,0,0,0,0,0,0,0,0,0,0,0,0,0,0,0,0,0,0,0,0,0,0,0,0,0l-4.6-.3c0,0-.2,0-.3,0,0,0,0,0,0,0,0,0,0,0-.1-.1,0,0,0,0,0,0,0,0,0,0,0-.1,0,0,0,0,0,0,0,0,0,0,0,0,0,0,0,0,0-.1,0,0,0,0,0-.1,0,0,0,0,0,0,0,0,0-.1,0-.2,0,0,0,0,0,0,0,0,0,0,.1-.1,0,0,0,0,0,0,0,0,.1,0,.2-.1,2-.5,4.1-.2,6.3.8.2,0,.3.3.3.5,0,.2,0,.3-.2.4,0,0,0,0,0,.1,0,0,0,.1,0,.2,0,0,0,0,0,0,0,0,0,0,0,0,0,0,0,0,0,.1,0,0,0,0,0,0,0,0,0,0,0,0,0,0,0,0,.2,0,0,0,0,0,0,0,0,0,.1,0,.2,0,1.6,0,2.6,0,3,.1,0,0,0,0,.1,0,0,0,0,0,0,0,0,0,0,0,0,0,0,0,0,0,0,0,0,0,0,0,0,0,0,0,0,0,0,0,0,0,0,0,0,0,0,0,0,0,0,0,0,0,0,0,0,.1,0,0-.7,0-2,.2,0,0-.1,0-.2,0,0,0,0,0,0,0,0,0,0,0-.1.1,0,0,0,0,0,0,0,0,0,0,0,0,0,0,0,.1,0,.2,0,0,0,.1,0,.2.4.7,1.1,1.2,2.1,1.4,0,0,.1,0,.2,0,0,0,0,0,0,0,0,0,0,0,0,0,0,0,0,0,0,0,0,0,0,0,0,0,0,0,0,0,0,0,0,0,0,0,0,0,0,0,0,0,0,0,0,0,0,.1,0,.2-1.2,1.3-4.9,1.1-6.4,1.2-.5,0-.9.2-1.3.5l-.6.4c-.3.2-.6.3-.9.1,0,0,0,0,0,0,0,0,0,0-.1,0,0,0,0,0,0,0,0,0,0,0,0,0,0,0,0,0,0,0,0,0,0,0,0,0,0,0,0,0,0,0,0,0,0,0,0,0,0,0,0,0,0,0,0,0,0,0,0,.1l-.3,2.3c0,.3-.3.5-.6.5h-.6c0,.1,0,.1-.1.1,0,0,0,0,0,0,0,0,0,0,0,0,0,0,0,0,0,0,0,0,0,0,0,0,0,0,0,0,0,0,0,0,0,0,0,0,0,0,0,0,0,0,0,0,0,0,0,0,0,0,0,0,0,0,0,0,0,0,0,0l.4.3c.3.2.5.5.5.9.3,3.2.5,8.6.1,12.5-.8,8.9-1.1,17.8-1,26.8,0,.3-.2,2-.5,5.2,0,0,0,0,0,0,0,0,0,0,0,0,0,0,0,0,0,0,0,0,0,0,0,0,0,0,0,0,0,0,0,0,0,0,0,0,0,0,0,0,0,0,0,0,0,0,0,0,0,0,0,0,0,0,0,0,.1,0,.3,0,.1,0,.2,0,.3,0,0,0,0,0,0,0,0,0,.1,0,.2.1,0,0,0,0,0,0,0,0,0,.1.1.2,0,0,0,0,0,0,0,0,0,0,0,0,0,0,0,0,0,.1,0,0,0,.1,0,.2,0,0,0,0,0,.1,0,0,0,.1,0,.2,0,0,0,0,0,0,0,0,0,.1-.1.2,0,0,0,0,0,0,0,0-.2.1-.3.2-.2,0-.5,0-.8-.2,0,0,0,0-.1,0,0,0,0,0,0,0,0,0,0,0,0,0,0,0,0,0,0,0,0,0,0,0,0,.1v4.1c0,0,0,0,0,0,0,0,0,0,0,0,0,0,0,0,0,0,0,0,0,0,0,0,0,0,0,0,0,0,0,0,0,0,0,0,0,0,0,0,0,0,0-.5.1-.7.1-.8,0-.1,0-.2.2-.3,0,0,0,0,0,0,0,0,.1,0,.2-.1,0,0,0,0,0,0,0,0,0,0,0,0,0,0,0,0,.1,0,0,0,0,0,.1,0,0,0,0,0,.1,0,0,0,.1,0,.2.1,0,0,0,0,0,0,0,0,.1.2.2.3.1.5,0,1-.3,1.3-.2.2-.4.2-.6,0-.3-.1-.5,0-.5.2,0,0,0,0,0,0l2.5,15.8c0,.4.4.8.9.8l8.4.5c.2,0,.4.2.4.4l.5,3.3s0,0,0,0c0,0,0,0,0,0ZM390.7,248.1c0,0,.1-.2.2-.2,0,0,0,0,0,0,0,0,.1,0,.2,0,0,0,0,0,0,0,0,0,0,0,0,0,0,0,0,0,.1,0,0,0,0,0,.1,0,0,0,0,0,0,0,0,0,0,0,.1.1,0,0,0,0,0,0,0,0,0,.2,0,.2,0,.4,0,.7,0,.8,0,0,0,.2-.1.2,0,0,0,0,0,0,0,0,0,0,0,0,0,0,0,0-.1,0,0,0,0,0-.1,0,0,0,0,0-.1,0,0,0-.1,0-.2,0,0,0,0,0,0,0,0,0-.2,0-.2-.1-.4-.3-.5-.7-.1-1.3ZM390.6,231.7c0-.1,0-.3.1-.4,0,0,.2-.2.4-.2h.2s0,0,0,0c.1,0,.3,0,.4.1,0,0,.2.2.2.4v9.7s0,0,0,0c0,.1,0,.3-.1.4,0,0,0,0,0,0,0,0-.2.1-.3.1h-.2s0,0,0,0c-.3,0-.5-.2-.5-.5v-4.8s0-4.9,0-4.9ZM390.4,254.3h0c.2,0,.3.1.4.3,0,0,0,.1,0,.2v4.4s0,0,0,0c0,.2-.2.4-.4.4h0c-.2,0-.4-.2-.4-.4v-2.2s0-2.2,0-2.2c0,0,0-.1,0-.2,0,0,0-.1,0-.1,0,0,.2-.1.3-.1ZM390,262.6c0,0,0-.1.1-.2,0,0,0,0,.1,0,0,0,.1,0,.2,0h0c.1,0,.2,0,.3.1,0,0,.1.2.1.3v4.9c0,.3-.2.5-.5.5h0c-.3,0-.5-.2-.5-.5v-4.9c0,0,0-.1,0-.2ZM390,271.2c0,0,0-.1.1-.2,0,0,0,0,0,0,0,0,0,0,.1,0,0,0,0,0,0,0,0,0,0,0,0,0,0,0,0,0,.1,0,0,0,0,0,.1,0,0,0,0,0,0,0,0,0,0,0,.1,0,0,0,0,0,0,0,0,0,0,.1.1.2.1.4.1.7,0,1.1,0,0,0,.1-.1.2,0,0,0,0,0,0,0,0,0,0-.1,0,0,0,0,0,0,0,0,0,0,0,0,0,0,0,0,0-.1,0,0,0,0,0-.1,0,0,0,0,0,0,0,0,0-.1,0-.1,0,0,0,0,0,0,0,0,0,0-.1-.1-.2-.1-.4-.1-.8,0-1.1ZM390,285.1c0,0,0-.1,0-.1,0,0,0,0,0,0,0,0,0,0,0,0,0,0,0,0,0,0,0,0,0,0,0,0,0,0,0,0,0,0,0,0,0,0,0,0,0,0,0,0,0,0,0,0,0,0,0,0,0,0,0,0,0,0,0,0,0,0,.1.1.2.3.3.7.2,1.1,0,0,0,.2-.1.2,0,0,0,0,0,0,0,0-.1,0-.2,0,0,0,0,0,0,0,0,0,0,0,0,0,0,0,0,0-.1,0,0,0,0,0-.1,0,0,0,0,0,0,0,0,0-.1,0-.2-.1,0,0,0,0,0,0,0,0-.1-.1-.1-.2,0-.3,0-.6,0-1ZM390,283.5v-9.4c0,0,0-.1,0-.2,0,0,.1-.2.2-.2,0,0,.1,0,.2,0h.2c.2,0,.4.2.4.4v9.4c0,.2-.2.4-.5.4h-.2s0,0,0,0c-.2,0-.4-.2-.4-.4ZM389.9,288.1h0c0,0,0-.1,0-.2,0-.2.3-.3.5-.3h.1s0,0,0,0h0c0,0,.1,0,.2,0,.1,0,.2.1.3.3,0,0,0,.1,0,.2h0s0,0,0,0v6.6c0,0,0,.1,0,.2,0,.2-.2.3-.5.3h-.1c-.3,0-.5-.2-.5-.5v-6.6ZM405.7,241.7c-.2.2-.3.2-.3.1,0,0,0,0,0,0,0,0,0,0,0,0,0,0,0,0,0-.1,0,0,0,0,0-.1,0,0,0,0,0-.1,0,0,0,0,0-.1,0,0,0,0,0-.1,0,0,0,0,0-.1,0,0,0,0,0-.1.1,0,.2,0,.3,0,.2.2.2.5,0,.8ZM404.3,265.3h0c-.3,0-.6-.4-.6-1,0-.5.2-1,.6-1s.6.4.6,1-.2,1-.6,1ZM404.9,267c0,0,0,.1,0,.2,0,0,0,.1,0,.2,0,0,0,.1,0,.1,0,0,0,0,0,.1,0,0,0,0,0,.1,0,0,0,.1-.1.1-.2,0-.3.1-.5.1,0,0-.1,0-.2,0,0,0,0,0,0,0,0,0,0,0,0,0,0,0,0,0,0,0,0,0,0,0,0-.1,0,0,0,0,0-.1,0,0,0,0,0-.1,0,0,0,0,0-.2,0,0,0-.1,0-.2,0,0,0,0,0,0,0,0,0-.2.1-.2.3-.3.5-.4.7-.1,0,0,0,0,.1.1,0,0,0,0,0,0,0,0,0,.1,0,.2ZM403.8,271.3c0,0,0,0,0-.1,0,0,0,0,0,0,0,0,0,0,0,0,0,0,0,0,0,0,0,0,0,0,.1,0,0,0,0,0,.1,0,0,0,0,0,0,0,0,0,0,0,.1,0,0,0,.1,0,.2,0,.4.3.4.7.2,1.1,0,0-.1.2-.2.2,0,0,0,0,0,0,0,0-.1,0-.2,0,0,0,0,0,0,0,0,0,0,0,0,0,0,0,0,0-.1,0,0,0,0,0-.1,0,0,0,0,0,0,0,0,0,0,0-.1-.1,0,0,0,0,0,0,0,0,0-.1,0-.2,0-.3,0-.6,0-.8ZM416.4,304c0,0,0-.2,0-.3,0,0,0,0,0,0,0,0,0,0,0,0,0,0,0,0,0,0,0,0,0,0,0,0,0,0,0,0,0,0,0,0,0,0,.1,0,0,0,0,0,.1,0,.6.1.9.2.9.2,0,0,0,0,.1.1,0,0,0,0,0,0,0,0,0,.1,0,.2,0,0,0,0,0,0,0,0,0,0,0,0,0,0,0,0,0,0,0,0,0,0,0,0,0,0,0,0,0,0,0,0,0,0-.1.1,0,0,0,0,0,0,0,0-.1,0-.2,0-.6-.1-1-.2-1-.3ZM418.1,306.1c-.4.5-.7.9-.9.9,0,0-.1,0-.2,0,0,0,0,0,0,0,0,0,0,0-.1,0,0,0,0,0,0,0,0,0,0,0,0,0,0,0,0,0,0,0,0,0,0,0,0,0,0,0,0,0,0,0,0,0,0,0,0,0,0,0,0,0,0,0,0,0,0,0,0-.1,0,0,0,0,0,0,0,0,0,0,0-.1,0,0,0,0,0,0,0,0,0-.1.1-.1,0,0,.5-.2,1.1-.4,0,0,.1,0,.2,0,0,0,0,0,0,0,0,0,0,0,0,0,0,0,0,0,0,0,0,0,0,.1,0,.2ZM424.8,317.4c-.4,0-.8.1-1.3.3,0,0-.1,0-.2.1,0,0,0,0,0,0,0,0,0,0,0,0,0,0,0,0,0,0,0,0,0,0,0,0,0,0,0,0,0,0,0,0,0,0,0,0,0,0,0,0,0,0,0,0,0,.1.1.2.2,0,.4.1.7,0,0,0,.1,0,.2,0,0,0,0,0,0,0,0,0,0,0,0,0,0,0,0,0,0,0,0,0,0,0,0,0,0,0,0,0,0,0,0,0,0,0,0,0,0,0,0,0,0,.1,0,0,0,0,0,0,0,0,0,0,0,0,0,0,0,0,0,.1-.3.5-.5,1.1-.4,1.7,0,0,0,.1,0,.2,0,0,0,0,0,0,0,0,0,0,0,0,0,0,0,0,0,0,0,0,0,0-.1,0,0,0,0,0,0,0,0,0-.1,0-.1-.1l-.9-2.1c0,0,0-.1-.1-.2l-2.8-3c0,0-.2-.2-.2-.3,0,0,0,0,0,0,0-.1,0-.2,0-.3,0,0,0,0,0,0,0-.1,0-.2,0-.4,0,0,0,0,0,0,0-.1,0-.2.1-.3,0,0,0,0,0,0,0,0,0,0,0,0,0,0,0,0,0-.1,0,0,0,0,0,0,0,0,0,0,0,0,0,0,.2-.2.3-.2,0,0,0,0,0,0,.1,0,.2,0,.3,0,0,0,0,0,0,0,.1,0,.2,0,.4,0,0,0,0,0,0,0,.1,0,.2,0,.3.1,0,0,.1.2.3.5,0,0,0,0,0,0,0,0,0,0,0,0,0,0,0,0,0,0,0,0,0,0,0,0,0,0,0,0,0,0s0,0,0,0c0,0,0,0,0,0,0,0,0,0,0,0,0,0,0,0,0,0,.2-.1.3-.2.4-.3,0,0,.1,0,.2,0,0,0,0,0,0,0,0,0,0,0,.1,0,0,0,0,0,0,0,0,0,0,0,.1,0,0,0,0,0,0,0,0,0,0,0,0,0,0,0,0,0,0,0,0,0,0,0,0,0,0,0,0,0,0,0,0,0,0,.1,0,.2,0,0,0,0,0,0,0,0,0,0,0,.1,0,0,0,0,0,0,0,0,0,.1-.1.2-.2.2-.5.3-1,.2,0,0-.1,0-.2,0,0,0,0,0,0,0,0,0-.1,0-.1.1,0,0,0,0,0,0,0,0,0,0,0,0,0,0,0,0,0,0,0,0,0,.1,0,.2,0,0,0,0,0,0,0,0,0,.1.1.1.8.4,1.5.5,2.2.3.1,0,.2,0,.3,0,.1,0,.2,0,.3.2,0,0,.1.1.1.2,0,0,0,0,0,0,0,0,0,0,0,.1,0,0,0,0,0,0,0,0,0,0,0,.1,0,0,0,0,0,.1,0,0,0,0,0,.1,0,0,0,0,0,.1,0,0,0,0-.1.1,0,0,0,0,0,0,0,0-.2,0-.3,0ZM424.6,218.9s.2-.4.5-1c0,0,0,0,0,0,0,0,0,0,0,0,0,0,0,0,0,0,0,0,0,0,0,0,0,0,0,0,0,0,0,0,0,0,0,.1,0,.5-.1.9-.2,1,0,0,0,0-.1,0,0,0,0,0,0,0s0,0,0,0c0,0,0,0,0,0,0,0,0,0,0,0,0,0,0,0,0,0,0,0,0,0,0,0,0,0,0,0,0,0,0,0,0,0,0-.1ZM425.7,326s0,0,0,0c0,0,0,0,0,0,0,0,0,0,0,0,0,0,0,0-.1,0l-.4-.6s0,0,0-.1c0,0,0,0,0,0,0,0,0,0,0,0,0,0,0,0,0,0,0,0,0,0,0,0,0,0,0,0,0,0,0,0,0,0,.1,0,.3.2.4.4.3.8,0,0,0,0,0,.1ZM426.3,314s0,0,0,0c-.3.4-.7.5-1,.3h0s0,0,0-.1c0,0,0-.2,0-.3,0-.2.1-.4.3-.6t0,0s0,0,0,0c.1-.2.3-.3.5-.4.2,0,.3,0,.5,0h0c.2.2.2.7-.1,1ZM426.5,205.5s0,0,0,0c0,0,0,0,0,0,0,0,0,0,0,0,0,0,0,0,0,0,0,0,0,0,0,0,0,0,0,0,0,0,0,0,0,0-.1,0-.8,0-1.5-.4-2-1.1-.1-.2-.1-.4,0-.6.4-.4.8-.6,1.2-.5.3,0,.5.2.6.5l.5,1.3s0,0,0,.1c0,0,0,0,0,0ZM431,204.6c-.3.3-.7.6-1.3.8,0,0,0,0-.1,0,0,0,0,0,0,0,0,0,0,0,0,0,0,0,0,0-.1,0,0,0,0,0,0,0,0,0,0,0,0,0,0,0,0,0,0,0,0,0,0,0,0,0,0,0,0,0,0-.1v-2.5s0,0,0-.1c0,0,0,0,0,0,0,0,0,0,0,0,0,0,0,0,0,0,0,0,0,0,0,0,0,0,0,0,0,0s0,0,0,0c0,0,0,0,0,0,0,0,0,0,0,0,0,0,0,0,0,0,0,0,0,0,.1,0l1.2,1.6c.1.2.1.4,0,.6ZM529.6,251.3c0,0,0-.1.1-.1,0,0,0,0,0,0,0,0,0,0,.1,0,0,0,0,0,0,0,0,0,.1,0,.2,0,0,0,0,0,0,0,0,0,0,0,0,0,0,0,0,0,.1,0,0,0,0,0,0,0,0,0,0,0,0,0,0,0,0,0,.1.1,0,0,0,0,0,0,0,0,0,0,0,.1,0,0,0,0,0,0,0,0,0,.1,0,.2,0,.6.2,1.2.7,2,.2.3.1.8-.2,1.1h-.2c0,.2,0,.2-.1.2,0,0,0,0,0,0,0,0,0,0,0,0,0,0,0,0,0,0,0,0,0,0,0,0,0,0,0,0,0,0,0,0,0,0,0,0,0,0,0,0,0,0,0,0,0,0,0-.1,0-.2-.1-.6-.1-1.1,0-.2,0-.4-.3-.6-.4-.4-.5-.9-.2-1.6ZM497.5,221.2h0c0-.2.2-.4.4-.4h3.5c.2,0,.4.1.4.4v.6s0,0,0,0c0,.2-.2.4-.4.4h-3.5s0,0,0,0c0,0,0,0,0,0,0,0-.1,0-.2,0,0,0,0,0,0,0,0,0-.1-.2-.1-.3v-.6s0,0,0,0ZM447.9,202.7s0,0,0,0l1.5-1.7c0,0,.2,0,.2,0h0c0,0,0,0,0,0,0,0,0,0,0,.1,0,0,0,0,0,0,0,0,0,0,0,.1,0,0,0,0,0,.1,0,0,0,0,0,.1,0,0,0,0,0,.1,0,0,0,0,0,.1,0,0,0,0,0,.1,0,0,0,0,0,.1,0,0,0,0,0,.1,0,0,0,0,0,.1,0,0,0,0,0,.1,0,0,0,0,0,.1,0,0,0,0,0,0,0,0,0,0,0,.1,0,0,0,0,0,0-.5.5-1.3.6-1.9,0h0c0,0,0,0,0,0,0,0,0,0,0,0,0,0,0,0,0,0,0,0,0,0,0,0ZM437,209.9s0,0,0,0c0,0,0,0,0,0,0,0,0,0,0-.1,0,0,0,0,0,0,0,0,0,0,0,0,0,0,0,0,.1,0,0,0,0,0,.1,0,.2,0,.3.2.4.4,0,0,0,0,0,.1,0,0,0,0,0,0,0,0,0,0,0,0,0,0,0,0,0,0,0,0,0,0,0,0,0,0,0,0,0,0,0,0,0,0,0,0,0,0,0,0,0,0,0,0,0,0-.2,0-.3,0-.5,0-.5-.3,0,0,0-.1,0-.2,0,0,0-.1,0-.2ZM431.8,243.4c0,0,.1-.2.2-.2.4-.3,1,0,1.4.6,0,0,0,0,0,.1.1.2.2.5.2.7,0,.3-.1.5-.3.6-.4.3-1,0-1.4-.6-.3-.4-.3-1-.1-1.3ZM454.6,315.8s0,0,0,.1c0,0,0,0,0,.1,0,0,0,0,0,.1,0,0,0,0,0,0,0,0,0,0,0,0,0,0,0,0-.1,0,0,0-.1,0-.2,0h-.7c-.3,0-.6.3-.8.6-.2.4-1.1,1.6-2.7,3.6-1.8,2.3-3.7,2.5-5.7.8-.2-.2-.4-.5-.3-.9l.5-2.2c0-.4.4-.7.8-.7h3.6c.6,0,1.2-.2,1.5-.8l2.5-4.4s0,0,0-.1c0,0,0,0,0,0,0,0,0,0,0,0,0,0,0,0,0,0,0,0,0,0,0,0,0,0,0,0,0,0,0,0,0,0,0,0,0,0,0,0,0,0,0,0,0,0,0,0,0,0,0,0,0,0,0,0,0,0,0,.1l1.1,3s0,.1,0,.2c0,0,0,0,0,0ZM445.5,306.5h0c0-.9.2-1.6.6-1.6,0,0,0,0,.1,0,0,0,.2.1.2.2.2.3.3.8.3,1.3h0c0,.9-.2,1.6-.6,1.6,0,0,0,0-.1,0-.2,0-.4-.4-.5-.9,0,0,0,0,0-.1,0-.2,0-.4,0-.6,0,0,0,0,0,0ZM457.5,312.3c0,0,0,.1-.1.2h0c-.2.2-.6.2-.8,0l-2.3-2.3c-.2-.2-.2-.6,0-.8h0s0,0,0,0c0,0,0,0,0,0,.2-.2.6-.2.8,0l1.5,1.5.8.8s0,0,0,0c0,0,.1.2.1.3,0,0,0,.1,0,.2ZM465.3,312.5s0,0,0,.1h0s0,0,0,0c0,0,0,0,0,.1,0,0,0,0,0,.1,0,0,0,0,0,0,0,0,0,0,0,.1,0,0,0,0,0,0,0,0,0,0-.1.1,0,0,0,0,0,0,0,0,0,0-.1,0,0,0,0,0-.1,0,0,0,0,0-.1,0,0,0,0,0-.1,0,0,0,0,0-.1,0,0,0,0,0-.1,0,0,0,0,0-.1,0,0,0-.1,0-.2,0,0,0,0,0-.1,0h0c0,0,0,0,0-.1l.7-2.4s0,0,0,0c0,0,0,0,0,0,0,0,0,0,0,0,0,0,0,0,0,0,0,0,0,0,0,0h0s0,0,0,0c0,0,0,0,.1,0,0,0,0,0,.1,0,0,0,0,0,.1,0,0,0,0,0,.1,0,0,0,0,0,0,0,0,0,0,0,0,0,0,0,0,0,0,.1,0,0,0,0,0,.1,0,0,0,0,0,.1,0,0,0,0,0,.1,0,0,0,0,0,.1,0,0,0,0,0,.1,0,0,0,0,0,.1,0,0,0,0,0,.1,0,0,0,0,0,.1ZM508.9,322.5c0,0,0,.1,0,.2l-3.4,4.7c0,0,0,.1-.1.1,0,0,0,0,0,0,0,0,0,0-.1,0,0,0,0,0,0,0,0,0,0,0-.1,0,0,0,0,0-.1,0,0,0,0,0,0,0,0,0,0,0-.1,0,0,0-.1,0-.2-.2-1.3-1.9-2.3-3.3-2.9-4.1-.4-.6-.5-1.3-.3-2.1,0-.3.3-.4.6-.4l6.8,1.5s0,0,0,0c0,0,0,0,0,0,0,0,0,0,0,0,0,0,0,0,0,.2,0,0,0,0,0,0ZM531.2,272.4c-6.2,9.2-11.3,20.3-22.4,24.7-3.8,1.5-7.6,2.8-11.3,3.9,0,0-.1,0-.1,0,0,0,0,0,0,0,0,0,0,0,0,0,0,0,0,0,0,0,0,0,0,0,0,0,0,0,0,0,0,0,0,0,0,0,0,0,0,0,0,0,0,0,0,0,0,0,0,0,0,0,0,0,0,0,0,0,0,0,.1.1l.9.7s0,0,0,0c0,0,0,0,0,0,0,0,0,0,0,0s0,0,0,0c0,0,0,0,0,0-2.5.9-4.7,1.5-6.7,1.7-6.8.8-14.2,1-22,.4-3.5-.3-7.4-.2-11.9,0,0,0-.1,0-.2,0,0,0,0,0,0,0,0,0,0,0,0,0,0,0,0,0,0,0,0,0,0,0,0,.1,0,0,0,0,0,0,0,0,0,.1.1.1,1.2.7,2.1,1.1,2.8,1.2,0,0,0,0,.1,0,0,0,0,0,0,0,0,0,0,0,0,0,0,0,0,0,0,0,0,0,0,0,0,0,0,0,0,0,0,0,0,0,0,0,0,0,0,0,0,0,0,0,0,0,0,0,0,0,0,0,0,0,0,0,0,0,0,0,0,0-1.2.4-2.1,1-2.7,1.8,0,0,0,.1-.1.2,0,0,0,0,0,0,0,0,0,0,0,0,0,0,0,0,0,0,0,0,0,0,0,.1,0,0,0,0,0,.1,0,0,0,0,0,.1,0,0,0,0,0,0,0,0,0,0,.1,0,0,0,0,0,0,0,0,0,.1,0,.2,0,.4,0,.9.3,1.7.7.2.1.3.4.2.7h0c-.1.3-.4.4-.7.3-.5-.2-1-.6-1.4-1-.5-.4-.9-.9-1.4-1.4-.5-.6-1-1.1-1.6-1.8,0,0,0,0,0-.1,0,0,0,0,0,0,0,0,0,0,0,0,0,0,0,0,0,0,0,0,0,0,0,0,0,0,0,0,0,0,0,0,0,0,0,0,0,0,0,0,0,0,0,0,0,0,.1,0,1-.4,1.3-1.3.8-2.6-.9-2.2-3.8-3.6-6-4.8-.9-.5-1.9-1.2-3.1-2.3-3.7-3.2-6.8-6.6-9.3-10.2-.4-.6-.5-1.4-.2-2.1.5-1,.8-1.9,1-2.7.5-1.7-.2-3.5-2.1-3.3-.4,0-1,0-1.6,0-.3,0-.6.2-.7.4,0,0,0,.1,0,.1,0,0,0,0-.1,0,0,0,0,0,0,0,0,0,0,0,0,0,0,0,0,0,0,0,0,0,0,0,0,0,0,0,0,0,0,0,0,0,0,0,0,0,0,0,0,0,0,0,0,0,0,0,0-.1l-1.2-2.6c0,0,0-.1,0-.2,0,0,0,0,0,0,0,0,0,0,0,0,0,0,0,0,0,0,0,0,0,0,0,0,0,0,0,0,0,0,0,0,.1,0,.2,0l.9.4c.1,0,.2,0,.3,0,0,0,0,0,0,0,0,0,0,0,0,0,0,0,0,0,0,0,0,0,.1,0,.2,0,0,0,0,0,.1,0,0,0,0,0,.1-.1,0,0,0,0,.1-.2,0,0,0-.1,0-.2,0,0,0,0,0,0,0-.1,0-.2,0-.3l-.9-6.2c0-.2,0-.4.2-.6l1.1-1.1s0,0,.1,0c0,0,0,0,0,0,0,0,0,0,0,0,0,0,0,0,0,0,0,0,0,0,0,0,0,0,0,0,0,0,0,0,0,0,0,0,0,0,0,0,0,0,0,0,0,0,0,.1l1.1,3.1c0,.2,0,.4-.2.5-.4.3-.6.5-.6.6,0,0,0,.1.1.2,0,0,0,0,0,0,0,0,.1,0,.2,0,0,0,0,0,0,0,0,0,0,0,0,0,0,0,0,0,0,0,0,0,0,0,0,0,0,0,0,0,0,0,0,0,.1,0,.2,0,0,0,0,0,0,0,0,0,0-.1.1-.2l.7-3.2c0-.2.2-.3.4-.3h.6c.3.2.5,0,.6-.2.4-1.4,1.2-4.6.6-6.4,0-.3-.4-.5-.7-.5-.7,0-1.3-.2-1.8-.5-.3-.2-.6,0-.8.2l-.8,1.1s0,0,0,0c0,0,0,0-.1,0,0,0,0,0-.1,0,0,0,0,0-.1,0,0,0,0,0-.1,0,0,0,0,0-.1,0,0,0,0,0-.1,0,0,0,0,0-.1,0,0,0,0,0-.1,0l-.3-.2c-.3-.2-.4-.6-.2-.9.7-1,1.5-1.7,2.4-2,.2,0,.4-.3.5-.5.4-2-.3-3.6-2.1-4.8-.1,0-.2-.2-.3-.2,0,0,0,0,0-.1,0,0,0,0,0-.1,0,0,0,0,0,0,0,0,0-.1,0-.2,0,0,0-.1,0-.2,0,0,0-.1,0-.2,0,0,0-.1,0-.2,0,0,0-.1.1-.2,0,0,0,0,0,0,0,0,.2-.1.3-.2.5-.2,1.1.3,1.7,1.2,0,0,0,0,.1.1,0,0,0,0,.1,0,0,0,0,0,0,0,0,0,0,0,0,0,0,0,0,0,.1,0,0,0,0,0,.1,0,0,0,0,0,0,0,0,0,0,0,.1-.1,0,0,0,0,0-.1v-.2c.1-.3.4-.5.7-.5,1.3,0,2.5.5,3.7,1.2.2.1.4,0,.6-.1,1.2-2.1,1.6-4.4,1.2-6.8,0,0,0,0,0-.1,0,0,0,0,0,0,0,0,0,0,0,0,0,0,0,0,0,0,0,0-.1,0-.2,0,0,0,0,0-.1,0,0,0,0,0-.1,0h-.2c-.2.2-.5.2-.7,0-1.3-.9-2.1-1.4-2.5-1.5-1-.2-1.6.2-1.8,1.5,0,0,0,0,0,0,0,0,0,0,0,0,0,0,0,0,0,0,0,0,0,0,0,0,0,0,0,0,0,0,0,0,0,0,0,0,0,0,0,0,0,0,0,0,0,0,0,0,0,0,0,0,0,0h-.2s0,0,0,0c0,0,0,0,0,0,0,0,0,0,0,0,0,0,0,0,0,0,0,0,0,0,0,0,.5-2,1.6-3.5,3-4.6.2-.1.2-.4.1-.6l-.5-.7c-.1-.2,0-.5.1-.6l.3-.2c.2-.1.4-.4.5-.6.4-.9,1-1.8,1.8-2.7,6-6.6,13.2-11.5,21.8-14.8.2,0,.4-.3.5-.6v-.2c.1-.3.3-.5.6-.5h4.9c.3,0,.6.2.8.5v.2c.2.3.5.5.8.5l4.2-.2c.3,0,.6-.3.7-.6,0,0,0,0,0,0,0-.3.3-.5.6-.5,1.5,0,2.9.2,4.1.7.3.1.7.2,1,.3,6.9.4,14,.7,21.1.9.8,0,2.7.7,5.9,1.9.2,0,.4.3.5.5,1.6,3.2,6.6-.2,7.1,3.4,0,0,0,0,0,.1,0,0,0,0,0,0,0,0,0,0,0,0,0,0,0,0,.2.1,0,0,0,0,0,0,0,0,0,0,0,0,0,0,0,0,0,0,.8-.5,1.5-.2,2.1,1,.2.4,1.1,2.3,2.8,5.7.2.3.4.6.7.8l1.4,1c.2.1.3.3.3.5,2.4,9.1,4.9,17.6,7.3,25.5.3.9.6,1.7,1,2.5.1.2.2.5.2.7,0,2.1-.7,4.1-2,5.9ZM532.9,260.7s0,0-.1,0c-.4,0-.7-.5-.8-1.2,0-.3,0-.5,0-.7.1-.3.3-.6.5-.6.4,0,.7.5.8,1.2,0,.6-.2,1.1-.5,1.3Z"/>
    <path class="st0" d="M140.9,164.3c.2-.1.5-.4.7-.8,0,0,0-.1,0-.2,0-.1-.2-.2-.3-.2-.4.1-.7.4-.8.8,0,0,0,.2,0,.2,0,.1.2.2.4.1Z"/>
    <path class="st0" d="M138.8,170.5l6.6,2.7s0,0,.1,0c.2,0,.4-.2.4-.4,0-1.5.3-2.9.8-4.2,0,0,0,0,0,0,0-.1,0-.2-.1-.3l-2.6-1.1c-.2,0-.3,0-.4.1l-1,1.7c-.1.2-.4.4-.7.5-1.1.3-2,0-2.8-.7,0,0,0,0,0,0-.2,0-.4,0-.4.1-.3.5-.3.9,0,1.3,0,0,.1.1.2.1Z"/>
    <path class="st0" d="M137.1,169c.3-.4.4-.8.2-1s-.6,0-.9.5c-.3.4-.4.8-.2,1s.6,0,.9-.5Z"/>
    <path class="st0" d="M327,172.6c.4-.2.7-.5.8-1.1,0-.2,0-.5-.2-.7-.9-.9-1.5-1.4-1.7-1.3-.2,0-.4.8-.5,2.1,0,.2,0,.5.3.6.4.4.9.5,1.3.3Z"/>
    <path class="st0" d="M146.1,176.3v4.1s0,0,0,0c0,.1.2.2.3.1l1.1-.4c.2,0,.3-.2.4-.3l5-6.3c.1-.1.1-.4,0-.5l-1.3-1.8c-.1-.2-.3-.3-.5-.3h-1.8c-.1,0-.2,0-.3.2,0,.2,0,.4.2.4l1.3.6c.2.1.4.3.4.6,0,1.2-.2,2.3-.7,3.1,0,0,0,.1-.2.2-.3.2-.6.1-.8-.2-.3-.4-.6-.8-1-1.1-.2-.2-.6-.2-.8,0l-.9.7c-.2.2-.3.4-.3.7Z"/>
    <path class="st0" d="M256.1,174.3c1.8.7,3,.2,3.6-1.4,0-.2,0-.5-.1-.7-.3-.3-1-.7-1.9-1-.2,0-.4,0-.6,0-1.1.4-1.6,1.3-1.4,2.5,0,.2.2.5.4.5Z"/>
    <path class="st0" d="M381.6,174.4c1.9.6,3.1,0,3.5-1.9,0-.2,0-.3-.2-.4l-2.1-.9c-.2,0-.5,0-.7,0-.9.6-1.2,1.5-.9,2.7,0,.2.2.4.4.4Z"/>
    <path class="st0" d="M496.7,173.1c1.3.8,2.5,1.4,2.6,1.2,0-.1-.9-.9-2.3-1.7-1.3-.8-2.5-1.4-2.6-1.2,0,.1.9.9,2.3,1.7Z"/>
    <path class="st0" d="M106.5,184.8c0,.1.1.2.2.3.3.3.8.3,1.1,0,1.3-1.4,2.7-1.9,4.4-1.5.3,0,.5.2.6.5l4,6.4c0,.2.1.3.1.5v1.4c0,.1,0,.2.1.3.2.1.4,0,.5,0,.9-1.4,2.2-2.4,3.7-3,0,0,0,0,0,0,.5-.2,1,0,1.2.6l.3.8s0,0,0,0c.1.3.4.4.7.3.8-.3,1.2-1,1.3-2,0-.3.1-.5.3-.6.3-.2.6-.2.8-.2,0,0,0,0,.1,0,.1,0,.2-.2.2-.3-.1-.4.2-1,.8-1.7.2-.2.3-.6.2-.9l-3.5-9.7c0-.1,0-.2,0-.3,0-.3.4-.5.7-.5l1.2.3c0,0,.1,0,.1,0,0,0,0-.1,0-.2l-3.7-2.7s0,0-.1,0c-4.5-1.1-7.6.7-9.2,5.6-.1.5-.6.8-1.1.7-.8,0-1.7.1-2.8.5,0,0,0,0,0,0-.3,0-.4.4-.3.7v.4c.2.2.2.4,0,.6l-1.9,2.7c-.2.3-.3.7-.1,1.1v.3Z"/>
    <path class="st0" d="M458.5,173.8c.2,0,.4,0,.5-.2,0-.2,0-.4,0-.7,0-.2-.1-.3-.3-.3-.3,0-.5,0-.6.3,0,.2,0,.5.2.8,0,0,.1.1.2.1Z"/>
    <path class="st0" d="M437.4,179.1c3.1,2,5.9.2,6.7-3.3.2-.7-.1-1.5-.7-1.9-2.4-1.6-4.7-1.3-6.7,1-.2.2-.3.5-.3.7-.2,1.7.2,2.9,1.1,3.5Z"/>
    <path class="st0" d="M187.4,174.2c0,.1.2.2.3.2l1.5-.5c0,0,.1,0,.2-.2,0-.1,0-.3-.2-.3-.6-.2-1.2,0-1.8.6,0,0,0,.2,0,.2Z"/>
    <path class="st0" d="M445.5,176l2.1-1c0,0,.1,0,.2-.1,0-.2,0-.4-.1-.5-.6-.3-1.3-.5-2.1-.5-.2,0-.4.1-.5.3-.3.8-.3,1.3,0,1.7,0,0,.2.1.3,0Z"/>
    <path class="st0" d="M455.3,175.1c.3-.2.6-.5.7-1,0,0,0-.1,0-.2,0,0-.2-.1-.3,0-.6.4-.9.7-.9.9,0,0,0,0,0,.1,0,.2.3.2.5.2Z"/>
    <path class="st0" d="M462.8,182s0,0,.1,0c.2,0,.3-.1.3-.3,0-1.5.3-2.8.9-3.9,0,0,0,0,0-.1,0-.3-.1-.5-.4-.6-.8-.1-1.4-.4-2-.7,0,0,0,0,0,0-.3-.2-.8,0-.9.3-.5.9-1.7,2.3-2.9,2.1-.4,0-.9,0-1.5,0,0,0-.1,0-.1.1,0,.1,0,.2.1.3l6.5,2.8Z"/>
    <path class="st0" d="M508.4,179.1s0,0,0,0c.2,0,.3-.1.4-.3v-.9c0,0,.1-.2.2-.2.1-.1.4,0,.5,0l1.3,1.6c.2.3.7.5,1.1.4.6,0,1-.7,1-1.3,0-.2-.4-1-1.2-2.1-.1-.2-.4-.3-.6-.1-1,.6-2.4,1-4.4,1.4,0,0,0,0,0,0,0,0,0,.1,0,.2.5.6,1.1,1,1.9,1.3Z"/>
    <path class="st0" d="M523.4,177.9c.3,0,.5-.4.5-.9,0-.4-.4-.8-.7-.7-.3,0-.5.4-.5.9,0,.4.4.8.7.7Z"/>
    <path class="st0" d="M450.8,177.3c0,0,.1,0,.2,0,.1,0,.2-.2.1-.3-.2-.4-.3-.5-.3-.5,0,0-.2,0-.3,0-.1,0-.2.2-.1.4,0,.1.2.3.4.5Z"/>
    <path class="st0" d="M520.6,179c.1-.2.2-.6.3-1.2,0,0,0-.1,0-.2,0-.1-.2-.2-.4,0-.5.3-.7.7-.7,1.3,0,.1,0,.2.2.3.2.1.5,0,.6-.1Z"/>
    <path class="st0" d="M152.6,178.6c-.4,0-.6,0-.7.1-.1.1-.1.3,0,.5.1.2.2.4.3.4,0,0,0,0,.2,0,.3,0,.5,0,.6-.3,0-.1,0-.2,0-.3,0-.2-.1-.4-.3-.4Z"/>
    <path class="st0" d="M185.2,178.8c-.2,0-.4.2-.3.4.2,1.3,1.2,3.7.6,5.2,0,0,0,0,0,0-.3.6-1,.9-1.6.6l-2.3-1s0,0,0,0c-.2,0-.4,0-.4.3-.2,1-.7,2.2-1.7,3.4,0,0-.1.2-.1.3,0,.3.2.5.5.6.3,0,1-.3,2-.9.2-.1.5-.1.6,0l.7.7c.1.1.4.2.5.1l5.6-2s0,0,.1,0c0,0,0-.2,0-.3-.9-.6-1.4-1.4-1.7-2.3,0-.2,0-.5.2-.7.3-.3.7-.3,1,0l.4.4s0,0,0,0c.1,0,.3,0,.3-.2l.2-.4s0,0,0,0l-4.3-4.3c0,0-.2-.1-.3-.1Z"/>
    <path class="st0" d="M463.6,185.3v4.2c0,0,0,.1,0,.2,0,.1.2.1.3,0l5.1-4.2c.1,0,.2-.2.2-.3l.3-4.1c0-.3-.2-.6-.4-.7-.8-.3-1.7-.4-2.8-.2,0,0-.1,0-.2,0-.1.1,0,.3,0,.4.6.6,1.1.9,1.5,1,.3,0,.4.3.4.6l-.3,1.9c0,0,0,.2,0,.2-.2.2-.5.3-.7.1l-1.2-.9c-.2-.1-.4-.1-.6,0l-1,.8c-.3.2-.4.5-.4.8Z"/>
    <path class="st0" d="M520.7,182.9c0,.1,0,.3.2.3l7.3,2c0,0,.2,0,.2,0,.2,0,.2-.3.1-.4-.5-.9-.4-1.9.5-3,0,0,0-.1,0-.2,0-.3,0-.6-.4-.6l-2-.5c-.4-.1-.9,0-1.1.5-.8,1.5-2.2,3.1-3.8,1.3-.1-.1-.3-.2-.5-.2-.2,0-.4.3-.7.9,0,0,0,0,0,0Z"/>
    <path class="st0" d="M61.4,183.5c.3,0,.5-.4.5-.8,0-.4-.3-.7-.7-.7s-.5.4-.5.8c0,.4.3.7.7.7Z"/>
    <path class="st0" d="M244.4,183.3c.2,0,.4-.2.8-.5,0,0,.1-.1.1-.2,0-.2,0-.5-.3-.5-.3-.1-.7,0-1,.6,0,0,0,.2,0,.3,0,.2.3.4.5.3Z"/>
    <path class="st0" d="M265.8,185.3c.1.3.4.5.7.3l1.6-.6c.3-.1.5-.4.3-.7h0c0-.1,0-.1,0-.1-.4-1.1-1.2-1.8-1.7-1.6l-.6.2s0,0,0,0c-.6.2-.7,1.3-.3,2.4h0Z"/>
    <path class="st0" d="M391.4,185.6c.2.3.5.3.8.2l1.4-.9s0,0,0,0c.3-.2.3-.5.2-.8l-.3-.4c-.5-.8-1.5-1.1-2.1-.7h-.1c-.6.5-.7,1.5-.2,2.3l.3.4Z"/>
    <path class="st0" d="M262.1,186.1c0,0,.2.1.2.1.5.1,1.2.1,2,0,0,0,0,0,.1,0,.2,0,.2-.3.2-.4-.2-.4-.5-.8-1-1.3-.5-.4-1-.7-1.4-.9,0,0,0,0-.1,0-.2,0-.3.2-.3.3,0,.9.1,1.6.3,2,0,0,0,0,0,0Z"/>
    <path class="st0" d="M389.5,186.2s0,0,0,0c.1,0,.2-.2.2-.3,0-.4-.4-.9-.9-1.4-.5-.5-1-.8-1.5-.8,0,0,0,0,0,0-.1,0-.3.1-.2.3,0,1.4.2,2.1.3,2.2,0,0,.8,0,2.2,0Z"/>
    <rect class="st0" x="51" y="184.5" width="1" height="7" rx=".5" ry=".5" transform="translate(-1.6 .5) rotate(-.5)"/>
    <path class="st0" d="M432.6,187.2c0,0,.2,0,.2,0,.2,0,.2-.2.2-.3l-.6-2.3s0,0,0-.1c-.1-.1-.3-.2-.5,0-.4.3-.8.6-1,1-.1.2,0,.4.1.6l1.5,1.2Z"/>
    <path class="st0" d="M445,185.4c0,.3.2.5.5.5s.5-.2.5-.5-.2-.5-.5-.5-.5.2-.5.5Z"/>
    <path class="st0" d="M248.6,192s0,0,.2,0c.2,0,.4-.1.4-.3.3-2.3.6-3.6,1.1-4.2,0,0,0,0,0-.1,0-.1-.1-.2-.2-.2-.5,0-1.4-.2-2.5-.9,0,0,0,0,0,0-.2,0-.4,0-.5.2-1.1,2.1-2.5,2.7-4.4,1.7,0,0,0,0,0,0,0,0,0,0,0,0v.2c0,0,0,0,0,0,0,0,0,.1,0,.1l6.1,3.5Z"/>
    <path class="st0" d="M99.3,188.1c.3-.4.3-.9.1-1-.2-.1-.6.1-.8.5-.3.4-.3.9-.1,1,.2.1.6-.1.8-.5Z"/>
    <path class="st0" d="M240.4,188.4c.3-.3.4-.6.2-.8-.2-.2-.5-.1-.8.2-.3.3-.4.6-.2.8.2.2.5.1.8-.2Z"/>
    <path class="st0" d="M469.5,188.3c.2.3.5.4.8.3.2,0,.2-.4,0-.8,0,0,0,0,0-.1-.3-.2-.5-.2-.7,0-.2.2-.2.4,0,.7Z"/>
    <path class="st0" d="M528.6,189.3c0,1.6,0,3,0,4.4,0,0,0,0,.1.1,0,0,.2,0,.2,0,1-1,2-2,3-3.2.1-.2.1-.4,0-.5-.5-.6-.9-1-1.3-1.1-.4-.1-1-.2-1.7,0-.2,0-.3.2-.4.4Z"/>
    <path class="st0" d="M106.3,195.4s0,0,.1,0c.2,0,.3-.1.3-.3,0-1.5.2-2.8.8-3.9,0,0,0,0,0-.1,0-.3-.1-.5-.4-.6-.8-.1-1.4-.4-2-.7,0,0,0,0,0,0-.3-.2-.8,0-.9.3-.5.9-1.7,2.3-2.9,2.1-.4,0-.9,0-1.5,0,0,0-.1,0-.1.1,0,.1,0,.2.1.3l6.5,2.8Z"/>
    <path class="st0" d="M184.6,189.9c-.2.1-.2.6,0,1.1.3.4.7.7.9.6s.2-.6,0-1.1c-.3-.4-.7-.7-.9-.6Z"/>
    <path class="st0" d="M291.5,191.1c-.1.1-.2.3,0,.5.2.3.6.4,1.3.4.2,0,.3,0,.4-.2.2-.2.1-.5-.1-.7,0,0-.5,0-1.3,0s-.1,0-.2,0Z"/>
    <path class="st0" d="M281,197.3c0,0,.2,0,.3,0s.2-.1.3-.2.2-.2.3-.3c0-.1.1-.2.2-.4,0-.1,0-.2,0-.3,0-.2,0-.4-.2-.5,0,0-.1,0-.2,0s-.2,0-.3,0c-.2.1-.4.3-.5.5-.3.5-.3,1,0,1.2,0,0,.1,0,.2,0Z"/>
    <path class="st0" d="M406.3,197.3s0,0,0,0c.1,0,.2,0,.4-.1,0,0,0,0,.1,0,0,0,0,0,0,0,.1-.1.3-.3.4-.5.2-.3.2-.5.3-.8,0-.2,0-.4-.2-.5,0,0,0,0-.1,0-.3,0-.7.3-.9.7-.3.5-.3,1.1,0,1.2,0,0,0,0,.1,0Z"/>
    <path class="st0" d="M508.3,195.7c-.2.4-.4.7-.4,1.1,0,.1,0,.3.2.3.2,0,.4,0,.6-.2.2-.3.3-.7.2-1,0-.1,0-.2-.2-.3-.2-.1-.4,0-.5,0Z"/>
    <path class="st0" d="M488.1,201.8c-.3.3-.5.6-.4.7s.4,0,.7-.2c.3-.3.5-.6.4-.7s-.4,0-.7.2Z"/>
    <path class="st0" d="M521.5,203.6c-.2.2-.2.7,0,1.6,0,0,0,0,0,0,0,.2.3.3.5.3.3,0,.6-.3.9-.6.3-.3.5-.6.6-.9,0,0,0,0,0,0,0-.2,0-.4-.3-.5-.9-.2-1.4-.1-1.6,0Z"/>
    <path class="st0" d="M537.4,211.2c-.6,0-1.2.2-1.2.4,0,.2.5.5,1.2.5.6,0,1.2-.2,1.2-.4,0-.2-.5-.5-1.2-.5Z"/>
    <path class="st0" d="M538.4,214.2c0,.1.1.2.3.2.2,0,.4,0,.5-.3l.3-1.1c0,0,0-.1,0-.2,0-.1-.2-.2-.3,0-.6.4-.8.8-.7,1.4Z"/>
    <path class="st0" d="M43.3,217.8c-.1,0-.2,0-.3,0-.1.1-.1.3,0,.4.2.2.4.3.6.4,0,0,.2,0,.2,0,.1,0,.1-.2,0-.4,0-.1-.3-.3-.5-.4Z"/>
    <path class="st0" d="M520.3,234.2l-2.7-3.4-2.1-2.7c-.2-.2-.5-.3-.8-.2,0,0,0,0-.1,0h0s0,0,0,0c-.3.2-.3.6-.1.9l4.9,6.2c.2.2.5.3.8.2,0,0,0,0,.1,0h0s0,0,0,0c0,0,0,0,0,0,0,0,.1,0,.1-.2,0,0,0,0,0-.1,0,0,0,0,0-.1,0-.1,0-.2,0-.4,0,0,0,0,0-.1Z"/>
    <path class="st0" d="M169.1,229.1c0-.2-.1-.4-.2-.5s-.2-.3-.3-.4c-.1-.2-.3-.3-.4-.3,0,0,0,0-.1,0s0,0-.1,0c0,0,0,0,0,.1,0,0,0,.2,0,.4,0,.1,0,.3,0,.4,0,0,0,0,0,0,0,.2,0,.3.1.5,0,.3.2.5.4.7.2.3.4.4.5.4,0,0,0,0,.1,0s0,0,.1,0c0,0,0,0,0,0,0,0,0,0,0-.1,0,0,0-.2,0-.3,0-.2,0-.5-.1-.8,0,0,0-.1,0-.2Z"/>
    <path class="st0" d="M514.9,264.8l-.5-9.4c0-.1,0-.3,0-.4-1.3-3.9-4-6.3-7.2-9.3-1.1-1-2.5-2.5-4.3-4.5-2.9-3.4-6-6.6-9.1-9.7-.2-.2-.5-.4-.8-.6-3.4-1.9-5.4-1.8-9.6-1.7-9.7.4-20.8,2.2-29,7.5-2.9,1.9-4.7,4.6-5.2,8-.7,4.7-.8,8.9-1.2,15.8,0,.2,0,.5.2.6,3.5,5.9,6.9,11.9,10.1,18,.1.3.4.5.7.6.2.1.4.3.6.5,1.7,2.9,2.8,4.6,3.3,5,2,1.9,4.7,3.4,8.1,4.3,1.7.5,2.9,1.3,3.6,2.5.3.5,1,.8,1.6.7,4.7-.9,9.4-1.1,14.1-.6,0,0,.2,0,.2.2,0,0,0,.2-.2.2-3.4.5-7.1.5-10.9.2,0,0,0,0-.1,0v.2s0,0,0,0c0,0,0,0,0,0,0,0,0,0,0,0,0,0,0,0,0,0,0,0,0,0,0,0s0,0,0,0,0,0,0,0c0,0,0,0,0,0,0,0,0,0,0,0,5.2.7,10.6.5,16.4-.7.4,0,.7-.3.8-.6.4-.7,1-1.2,1.7-1.7,2.3-1.5,4.9-2.9,8-4.4.7-.3,1.1-1.1,1.4-2.3,0-.3.4-.5.7-.5,0,0,.1,0,.1,0,.4,0,.8-.3.9-.6l3.6-10c0-.2,0-.5-.3-.6h-.3c-.3-.2-.4-.4-.5-.7,0-.7,0-1.5,0-2.2,0,0,0-.1.1-.2,0,0,0,0,0,0,0,0,0,0,.1,0,0,0,0,0,0,0,0,0,0,0,0,0,0,0,0,0,.1,0,0,0,0,0,.1,0,0,0,0,0,0,0,0,0,0,0,.1,0,0,0,0,0,0,0,0,0,0,.1.1.2l.4,1.1s0,0,0,0c0,0,0,0,0,0,0,0,0,0,0,0,0,0,0,0,0,0,0,0,0,0,0,0l1.2-5.2c0,0,0-.2,0-.3ZM495.4,292.3h-1.1s-1.1,0-1.1,0c0,0-.1,0-.2,0-.2,0-.3-.3-.3-.5h0s0,0,0,0c0-.2,0-.4.3-.5,0,0,.1,0,.2,0,0,0,0,0,.1,0h1.1s1.1,0,1.1,0c0,0,.1,0,.2,0,.2,0,.3.3.3.5h0c0,.4-.2.6-.5.6Z"/>
    <path class="st0" d="M270.6,229.3c0,0-.2,0-.3,0-.3,0-.5.2-.6.6,0,.1,0,.2,0,.3h0c0,.5.3.9.7.9.3,0,.5-.2.6-.6,0-.1,0-.2,0-.3h0c0-.4-.2-.7-.5-.8Z"/>
    <path class="st0" d="M395.7,229.2c0,0-.2,0-.3,0-.2.2-.4.5-.4.9,0,.5.4.9.8.8.2,0,.4-.2.5-.4,0,0,0-.2,0-.3s0-.2,0-.3c0-.5-.4-.9-.8-.8Z"/>
    <path class="st0" d="M324,230.1s0,0,0,0c0,0,0,0,0,0,0,0,0,0,0,0,0,0,0,0,0,0,0,0,0,0,0,0,0,0,0,0,0,0,0,0,0,0,0,0,0,0,0,0,0,0,0,0,0,0,0,0,0,0,0,.4,0,1,0,.6,0,.9,0,1,0,0,0,0,0,0,0,0,0,0,0,0,0,0,0,0,0,0,0,0,0,0,0,0,0,0,0,0,0,0,0,0,0,0,0,0,0,0,0,0,0,0,0,0,0,0,0,0,0,0,0,0,.1,0,.4-.2.6-.5.6-1.1,0,0,0,0,0-.1,0,0,0-.1,0-.1,0-.5,0-.9-.5-1.1Z"/>
    <path class="st0" d="M552.1,231.8c-.2-.2-.4-.3-.6-.4-1.8-.5-3.2.4-4.1,2.5-.3.7-.2,1.4.3,2.1,1.4,1.8,3.1,2,5.1.6.9-.6,1.4-1.6,1.1-2.4-.1-.3-.7-1.1-1.7-2.4Z"/>
    <path class="st0" d="M43.4,238.4c0,.3.5.6,1.2.6.6,0,1.2-.3,1.2-.6,0-.3-.5-.6-1.2-.6-.6,0-1.2.3-1.2.6Z"/>
    <path class="st0" d="M39.6,242.4c-1.6.5-2.8,1.2-3.7,2.1-.3.3-.4.8-.2,1.2h0c0,0,0,.1.1.2.2.2.6.3.9,0l3.1-2.9c0,0,.1-.2,0-.3,0-.2-.2-.3-.4-.2Z"/>
    <path class="st0" d="M447.1,260.8h0c0,0,.2,0,.2,0,.2,0,.4-.3.4-.6v-3.3s0-3.3,0-3.3c0-.2,0-.3-.2-.5-.1-.1-.3-.2-.4-.2h0c0,0-.2,0-.2,0-.2,0-.4.3-.4.6v3.3s0,3.3,0,3.3c0,.1,0,.2,0,.3.1.2.3.3.5.3Z"/>
    <path class="st0" d="M441.6,261.4s0,0,0,0c0,0,0,0,.1,0,0,0,0,0,0,0,0,0,0,0,0,0,0,0,0,0,0,0s0,0,0,0c0,0,0,0,0,0,0,0,0,0,.1,0,0,0,0,0,0,0,0,0,0,0,.1-.2.2-.6.6-1.2,1.2-1.7.2-.2.3-.4.3-.8,0-.3-.2-.6-.4-.7l-1.7-1s0,0-.1,0h0s0,0-.1,0c0,0,0,0,0,0,0,0,0,0,0,0,0,0,0,0,0,0,0,0,0,0,0,.1-.2,1.2,0,2.5.3,4,0,0,0,.1,0,.2Z"/>
    <rect class="st0" x="82.4" y="258.2" width="24.8" height="1.3" rx=".5" ry=".5"/>
    <path class="st0" d="M43.9,262c.1-.1-.2-.6-.8-1.1s-1.1-.7-1.2-.6c-.1.1.2.6.8,1.1s1.1.7,1.2.6Z"/>
    <path class="st0" d="M81.8,264.6s0,0,0,0c0,0,0,0,0,0,0,0,0,0,0,0,0,0,0,0,0,0,0-.1,0-.2,0-.4,0,0,0,0,0,0,0,0,0,0,0,0,0,0,0,0,0,0,0,0-.1.1-.2.2,0,0,0,0,0,.1,0,0,0,0,0,0,0,0,0,0,0,0Z"/>
    <path class="st0" d="M527.4,264.3h0s0,0,0,0c-.3,0-.5.2-.5.5,0,0,0,0,0,0h0s0,2.8,0,2.8c0,0,0,.1,0,.2,0,0,0,0,0,.1,0,.1.2.2.4.2h0s0,0,0,0c.1,0,.3,0,.4-.1,0,0,.1-.2.1-.4v-2.8c0-.3-.2-.5-.5-.5Z"/>
    <path class="st0" d="M321.1,264.7s0,0,0,0c0,0,0,0,0,0s0,0,0,.2c0,.1,0,.3,0,.6,0,.5,0,1.1,0,1.8,0,.9,0,1.7.1,2.1,0,.2,0,.4.1.4,0,0,0,0,0,0,.1,0,.2-1.2.2-2.6,0-.9,0-1.6-.1-2.1,0-.2,0-.3,0-.4Z"/>
    <path class="st0" d="M450.1,268.2h0c0,0,.1-.1.1-.2.1-.3,0-.9-.4-1.5-.5-.7-1.1-1.2-1.5-1-.3.2-.2,1,.3,1.7.5.7,1.1,1.2,1.5,1Z"/>
    <path class="st0" d="M273.5,267.3c0,0,0-.1-.1-.2,0,0,0,0-.1-.1,0,0-.1,0-.2,0-.2,0-.4.2-.5.6,0,.2-.1.5,0,.7,0,.6.2,1.1.5,1.3,0,0,0,0,.1,0,0,0,0,0,0,0,.3,0,.6-.6.6-1.3,0-.3,0-.6-.2-.8,0,0,0,0,0-.1Z"/>
    <path class="st0" d="M398.1,269.4c0,.1.2.2.3.2,0,0,.2,0,.2,0,0,0,.1-.1.1-.2.1-.2.2-.6.2-1,0,0,0,0,0,0h0s0,0,0,0c0-.2,0-.5,0-.7,0-.2,0-.3-.2-.4,0-.1-.2-.2-.3-.2,0,0,0,0-.1,0-.2,0-.4.4-.4.8,0,.1,0,.3,0,.5,0,0,0,0,0,0h0c0,.3,0,.6.1.9,0,0,0,.1.1.2Z"/>
    <path class="st0" d="M565.1,270.5c-.1-1.3-1-2.2-2.7-2.7-.3,0-.5,0-.8,0-1.6.4-2.7,1.4-3.2,3-.1.3-.2.5-.1.6,0,0,0,.3.3.5.9,1.4,2.1,2.2,3.8,2.2.3,0,.5,0,.8-.2,1.5-.9,2.2-2,2.1-3.3Z"/>
    <path class="st0" d="M273.7,271.1c0,0,0-.1,0-.2,0,0,0-.1,0-.2,0,0,0,0,0-.1,0,0,0,0,0-.1,0,0,0,0,0,0,0,0,0,0,0,0,0,0,0,0,0,0,0,0,0,0,0,0h-.2c-.4-.1-.9.9-1.1,2.3h0c0,.2,0,.3.2.4l1,.2s0,0,0,0c0,0,0,0,0,0,0,0,0,0,0,0,0,0,0,0,0,0,0,0,0,0,0,0h0c0-.1,0-.1,0-.1,0,0,0-.2,0-.3,0,0,0-.2,0-.2,0,0,0-.1,0-.2,0,0,0-.2,0-.2,0,0,0-.1,0-.2,0,0,0-.2,0-.2,0,0,0-.1,0-.2,0,0,0-.1,0-.2Z"/>
    <path class="st0" d="M398.5,270.2s0,0-.1,0h0c0,0-.2,0-.2.1,0,0-.1.1-.1.2,0,0,0,.1,0,.2,0,.2-.1.5-.1.8,0,.6.2,1.2.5,1.3,0,0,0,0,.1,0,.3,0,.6-.6.6-1.3,0-.6-.1-1-.4-1.2,0,0,0,0-.1,0Z"/>
    <path class="st0" d="M446.1,273s0,0,0,0c0,0,.1.2.2.3,0,0,.1.2.2.3,0,0,.1.2.2.3,0,0,0,.2.1.2,0,0,.1.2.2.3,0,0,0,.1.1.2,0,0,.1.1.2.2,0,0,0,.1.1.2,0,0,0,.1.1.2,0,0,0,.1.1.1,0,0,0,0,.1.1,0,0,0,0,.1.1,0,0,0,0,0,0,0,0,0,0,0,0,0,0,0,0,0,0,0,0,0,0,0,0h.1c0,0,0,0,0,0,0,0,0,0,0,0,0,0,0,0,0,0,0,0,0,0,0,0,0,0,0,0,0-.1,0,0,0,0,0-.1,0,0,0,0,0-.1,0,0,0-.1,0-.2,0,0,0-.1,0-.2,0,0,0-.2-.1-.2,0,0,0-.1,0-.2,0,0,0-.2-.1-.3,0,0,0-.1,0-.2,0-.1-.1-.2-.2-.3,0,0,0-.1-.1-.2,0-.1-.1-.2-.2-.3,0,0,0-.2-.1-.2l-1.2-2.1s0,0,0,0c0,0,0,0,0,0,0,0,0,0,0,0,0,0,0,0,0,0,0,0,0,0,0,0l-.6.3c0,0,0,.1,0,.2l1.2,2.1Z"/>
    <path class="st0" d="M440.3,274s0,0,0,0c0,0,0-.1,0-.1,0,0,0,0,0,0-.2-.7-.6-1.3-1.2-1.8,0,0,0,0,0,0,0,0,0,0,0,0,0,0,0,0,0,0,0,0,0,0,0,0,0,0,0,0,0,0,0,0,0,0,0,0,0,0,0,0,0,0,0,0,0,0,0,0,0,0,0,0,0,0-.2.2-.3.5-.5.8-.2.3-.3.6-.3.9,0,0,0,0,0,0,0,0,0,0,0,0,0,0,0,0,0,0,0,0,0,0,0,0,0,0,0,0,0,0,0,0,0,0,0,0,0,0,0,0,0,0,0,0,0,0,0,0,0,0,0,0,0,0,.7.2,1.4.1,2.2-.1,0,0,0,0,0,0Z"/>
    <ellipse class="st0" cx="321" cy="276.1" rx=".2" ry="2.3"/>
    <path class="st0" d="M454.7,274.9c-.3-.6-.8-.9-1.1-.7,0,0,0,0,0,0,0,0,0,0-.1.1,0,0,0,.1,0,.2,0,0,0,0,0,0,0,0,0,.2,0,.2,0,0,0,0,0,.2,0,0,0,0,0,.1,0,0,0,.2.1.3.2.4.6.7.8.8,0,0,0,0,.1,0s0,0,.1,0c.3-.1.2-.7,0-1.3Z"/>
    <path class="st0" d="M438.2,277s0,0,0-.1c0,0,0,0,0-.1,0,0,0,0,0-.1,0,0,0,0,0-.1,0,0,0,0,0,0,0,0,0,0,0-.1,0,0,0,0,0,0,0,0,0,0,0,0,0,0,0,0-.1,0,0,0,0,0,0,0,0,0,0,0-.1,0,0,0,0,0-.1,0,0,0,0,0-.1,0,0,0,0,0-.1,0h0c-.7,0-1.3.6-1.3,1.4h0c0,.1,0,.1,0,.2,0,0,0,0,0,0,0,0,0,0,0,0,0,0,0,0,0,0h2.3s0,0,0,0c0,0,0,0,0,0,0,0,0,0,0,0,0,0,0,0,0,0,0,0,0,0,0,0h0c0-.1,0-.2,0-.2,0,0,0-.1,0-.2Z"/>
    <path class="st0" d="M441.3,281.5s0,0,0,0h0c.3,0,.4-.4.3-.6l-.7-2.4c0,0,0-.1,0-.2,0,0,0,0,0,0,0,0,0,0-.1,0,0,0-.2,0-.3,0,0,0,0,0,0,0,0,0,0,0-.1,0h0s0,0,0,0c-.2,0-.3.2-.4.4,0,0,0,.1,0,.2l.7,2.4c0,0,0,.1,0,.2,0,.1.2.2.4.2,0,0,0,0,0,0Z"/>
    <path class="st0" d="M272.3,280.1c0,0-.2-.1-.3-.2,0,0-.2,0-.3,0-.2,0-.3,0-.4.1,0,0,0,.1,0,.2,0,0,0,0,0,0,0,0,0,.2,0,.2,0,.2.2.3.3.5,0,0,.1,0,.2.1.1,0,.3.1.4.2.2,0,.3,0,.4-.1,0,0,0-.1,0-.2,0,0,0-.1,0-.2,0-.2-.2-.4-.3-.6Z"/>
    <path class="st0" d="M518,280.5s0,0,0,0c0,0,0,0,0,0,0,0,0,0,0,0,0,0,0,0,0,0,0,0-.1,0-.2,0h-1.3c-.3,0-.6.2-.7.5l-1,3.6c0,0,0,.1,0,.2,0,0,0,0,0,0,0,0,0,0,0,.1,0,0,0,0,0,0,0,0,0,0,0,0,0,0,0,0,0,0,0,0,.1,0,.2,0,0,0,0,0,0,0,0,0,0,0,.1,0l2.8-3.8c0,0,0-.1,0-.2,0,0,0,0,0,0,0,0,0,0,0,0,0,0,0,0,0,0Z"/>
    <path class="st0" d="M44.7,281.1c-.5-.2-.9-.3-1.3-.2-.2,0-.3.2-.3.4,0,.3.1.6.4.6.4,0,.9,0,1.2,0,.1,0,.2-.1.3-.2.1-.2,0-.5-.2-.6Z"/>
    <path class="st0" d="M462.3,286.8c0,0,0-.1-.1-.2l-2.4-3.1c-.2-.3-.6-.3-.8,0h0s0,0,0,0c0,0,0,0,0,0-.2.2-.3.6,0,.8l2.4,3.1c.2.3.6.3.8,0h0c.2-.2.3-.4.2-.6Z"/>
    <path class="st0" d="M452.1,294.6l-5-5.3-5.3-5.7c-.2-.2-.4-.2-.6,0h0c-.2.2-.2.4,0,.6l10.4,11c.2.2.4.2.6,0h0s0,0,0-.1c0,0,0,0,0-.1,0,0,0,0,0,0,0,0,0-.1,0-.2s0-.1,0-.1Z"/>
    <path class="st0" d="M38.5,285.6c-1.1.3-2.2.9-3.4,1.8-.2.2-.3.4-.1.7.3.5.6.9,1.1,1.2.1,0,.3,0,.4,0l2.3-3.2c0,0,0-.1,0-.2,0-.1-.2-.2-.3-.2Z"/>
    <path class="st0" d="M232.2,286.6c-.2-.1-.5,0-.8.3s-.3.7-.1.8c0,0,0,0,0,0,.2,0,.5,0,.7-.4.1-.2.2-.3.2-.5,0,0,0-.1,0-.2,0,0,0-.1,0-.1Z"/>
    <path class="st0" d="M467.4,289.5c-.6-.3-1.1-.2-1.3,0,0,0,0,0,0,.1,0,.3.3.7.8.9.6.3,1.1.2,1.3,0,0,0,0,0,0-.1,0-.3-.3-.7-.8-.9Z"/>
    <path class="st0" d="M364,291.4c0,0-.2,0-.3,0-.2,0-.5,0-.7.2s-.2.2-.3.2c-.2.2-.3.4-.3.5,0,0,0,.2,0,.2.2.3.7.3,1.2,0,.1,0,.2-.2.3-.2.2-.2.3-.4.3-.5,0,0,0-.2,0-.2s-.1-.1-.2-.2Z"/>
    <path class="st0" d="M455.9,297.1l-1.3-.9-.2-.2c-.1,0-.3-.1-.4,0,0,0,0,0,0,0,0,0,0,0,0,0,0,0-.1,0-.2,0,0,0,0,0-.1.1h0c-.1.3-.1.5,0,.7,0,0,0,.1.2.2l.2.2,1.3.9c.2.1.4.1.6,0,0,0,.1,0,.2-.2h0c.2-.3.1-.7-.1-.9Z"/>
    <rect class="st0" x="65.2" y="327.7" width="5" height=".8" rx=".4" ry=".4" transform="translate(-212.5 144.5) rotate(-45.1)"/>
    <path class="st0" d="M291.2,326.2c-.2-.1-.4,0-.6,0-.3.4-.3.8,0,1.3,0,0,.1.1.2.1.2,0,.4,0,.4-.2.1-.4.2-.8,0-1.1,0,0,0-.2-.1-.2Z"/>
    <path class="st0" d="M416.3,326.3c-.2,0-.4,0-.5.2-.1.3-.1.6,0,.9,0,0,.1.2.2.2.2,0,.4,0,.5-.2.1-.3,0-.6,0-.9,0,0-.1-.1-.2-.2Z"/>
    <path class="st0" d="M103.1,331.6c.3,0,.5-.1.6-.4.1-.3.1-.5,0-.7,0,0-.1-.1-.2-.2-1.1-.3-1.7-.4-1.8-.1-.1.2.3.7,1.2,1.3,0,0,.2,0,.3,0Z"/>
    <path class="st0" d="M442.3,337.8c-.3.2-.7.2-1.4.1,0,0,0,0-.1,0,0,0,0,.2,0,.3l.8.8s0,0,0,0l4.1-.8s0,0,.1,0c.2,0,.2-.3,0-.5-1.4-2.2,1.9-4.3-.3-7.4-.1-.2-.4-.3-.6-.3h-2.4c-.2.1-.4.2-.6.4-.6.7-.9,1.4-1,2,0,.3,0,.7.3.9,1,1,1.5,2.3,1.4,3.8,0,.3-.2.5-.4.6Z"/>
    <path class="st0" d="M102.9,334.3h-.1c-.1,0-.2.1-.2.2l.4,2.4c0,.1.1.2.2.2h.1s0,0,0,0c1.4-.2,2.4-1,2.3-1.7h0c-.1-.8-1.4-1.2-2.8-1Z"/>
    <path class="st0" d="M263.4,337c0,.1.2.2.3.1l1.4-.5s0,0,0,0c.1,0,.2-.2.1-.3h0c-.3-.9-.9-1.3-1.4-1.2h0c-.5.2-.7,1-.4,1.7h0c0,.1,0,.1,0,.1Z"/>
    <path class="st0" d="M362.7,335.6s0,0,0,0c-.3-.7-1.1-.9-1.8-.6h-.1s0,0,0,0c-.1,0-.2.2-.2.4l.8,1.8c0,.1.2.2.4.2h.1s0,0,0,0c.7-.3,1.1-1.1.8-1.8h0Z"/>
    <path class="st0" d="M390.2,336.6c.2-.1.3-.4.3-.6,0-.1-.2-.3-.4-.5-.3-.3-.4-.4-.6-.4-.2,0-.5,0-.6.3-.4,1-.6,1.5-.4,1.7s.7,0,1.7-.4Z"/>
    <path class="st0" d="M457.6,342.8c0,0,0,.1,0,.2,0,.2.1.3.3.3,1.5,0,2.5-.2,3.2-.7.1,0,.2-.1.4-.2.5,0,.9.3.9.7l.5,3c0,.1.1.2.3.3.2,0,.4,0,.4-.3.3-1.1.5-1.8.7-2.3.4-.9.9-1.1,1.7-.6.2.1.5.2.7,0,2.5-1.1,3.4-2.8,4.9-4.9.1-.2.2-.5,0-.7l-1.1-1.7c-.1-.2-.3-.3-.6-.2-2.3.5-6.3-.3-9.5.9-.2,0-.4.3-.3.6l.2,1.4c.1.7-.1,1.5-.7,2l-2,2Z"/>
    <path class="st0" d="M288.5,337.4h0c-.3-.8-1-1.2-1.5-1h0s0,0,0,0c-.5.2-.6,1-.3,1.8h0c0,.1,0,.1,0,.1,0,.1.2.2.3.1l1.5-.6s0,0,0,0c.1,0,.2-.2.1-.3h0Z"/>
    <path class="st0" d="M412.4,336.2s0,0,0,0c0,0,0,0,0,0,0,0-.1,0-.1,0,0,0,0,0,0,0-.3.6-.5,1.2-.5,1.9,0,0,0,0,0,0,0,.2.2.3.4.3.3,0,.5,0,.8-.1.3,0,.6-.2.8-.3,0,0,0,0,0,0,.2,0,.2-.3.1-.5-.3-.6-.8-1-1.4-1.4Z"/>
    <path class="st0" d="M437.7,340.2s0,0,.1,0c.2,0,.2-.3.1-.4,0,0-.2-.3-.5-.7-.3-.4-.5-.7-.5-.7,0,0,0,0,0,0-.2,0-.3,0-.4.1-.5,1-.7,1.6-.6,1.7.1.2.7.2,1.8,0Z"/>
    <path class="st0" d="M457.7,339.1c-.3.4-.3.8,0,1s.6,0,.9-.4c.3-.4.3-.8,0-1s-.6,0-.9.4Z"/>
    <path class="st0" d="M103.6,339.8c-.3.1-.3.7,0,1.2.3.5.7.8.9.7.3-.1.3-.7,0-1.2-.3-.5-.7-.8-.9-.7Z"/>
    <path class="st0" d="M208.9,340.1s0,.1-.1.3c0,0,0,.2,0,.2,0,0,.2,0,.2,0,0-.1,0-.2,0-.3,0,0,0,0,0,0,0,0-.2,0-.2,0Z"/>
    <path class="st0" d="M207.8,342.2c0,0-.2-.1-.3,0-.2,0-.3.2-.2.4.7,2.3.5,4.5-.6,6.6,0,0,0,.1,0,.2,0,.1.2.2.3.2l1.5-.5c.2,0,.3-.3.3-.5-.3-1-.2-2.6.1-4.7,0-.3,0-.5-.2-.7l-.8-.8Z"/>
    <path class="st0" d="M248.9,349.1c2-1.2,3.9-2.5,5.7-4.1,0,0,.2-.2.2-.3.3-.5.1-1-.4-1.3l-1.1-.6c-.9-.5-2.1-.4-2.8.4l-1.8,1.8s0,0,0,0c-.3.2-.7.2-.9,0-1.6-1.8-3.9-.5-5.6.9-.2.2-.3.4-.3.6v2.7c0,.2,0,.5.3.7,2.3,2.4,4.4.6,6.6-.7Z"/>
    <path class="st0" d="M227.8,344.5c.2-.2,0-.7-.5-1.2-.4-.5-.9-.7-1.1-.5-.2.2,0,.7.5,1.2.4.5.9.7,1.1.5Z"/>
    <path class="st0" d="M231.3,344.3c.4-.2.6-.7.7-1.4,0,0,0-.1,0-.2,0,0-.2,0-.3,0-.5.5-.8,1-.8,1.3,0,0,0,.1,0,.2,0,.1.3.2.4,0Z"/>
    <path class="st0" d="M468.4,343.9c-.2,0-.4,0-.4.3h0c0,.1,0,.1,0,.1-.3,1.2,0,2.3.8,2.4h0s0,0,0,0c.7.2,1.5-.7,1.8-1.8h0c0-.1,0-.1,0-.1,0-.2,0-.4-.3-.4l-1.8-.4Z"/>
    <path class="st0" d="M75.7,344.2c0,0-.1,0-.2,0l-2.3,5.4s0,0,0,0c0,0,0,.1.1.1h1c.2-.2.3-.3.4-.5.5-1.9.8-3.6,1-5,0,0,0-.1,0-.2Z"/>
    <path class="st0" d="M216.1,344.6c-.2-.2-.4-.4-.6-.5.2.6.4.8.6.5Z"/>
    <path class="st0" d="M219.7,344.2c-.2.2,0,.6.5,1s.9.6,1,.4,0-.6-.5-1-.9-.6-1-.4Z"/>
    <path class="st0" d="M498.2,344.6c-.2.1-.2.2,0,.4.1.2.3.3.4.4.2,0,.4,0,.5-.2,0-.2,0-.4-.1-.5-.2-.2-.4-.2-.7,0Z"/>
    <path class="st0" d="M353,346.9c-1.2-.7-2.4-.8-3.4-.5-.2,0-.4.2-.5.4l-2.9,3.3s0,0,0,0c0,0,0,.1,0,.2.7.3,2,1,3.7,1.9.9.5,1.8.4,2.8-.3.2-.1.3-.4.3-.6l.2-3.8c0-.3-.1-.5-.4-.7Z"/>
    <path class="st0" d="M486.4,347.2c-1.8,0-2.6,1-2.3,2.9,0,.5.5.8.9.8h1.5c.3,0,.6-.3.6-.6l.4-1.7c0,0,0-.2,0-.2,0-.6-.5-1.2-1.2-1.2Z"/>
    <path class="st0" d="M478,351.4c1.1-.4,2-.8,2.6-1.2,0,0,0,0,0-.1,0,0,0-.1,0-.1-.2-.7-.6-1.6-1.3-2.5,0,0,0,0,0,0-.1-.2-.4-.2-.6,0-.8.6-1.3,1.2-1.5,1.6-.2.4,0,1.2.2,2.2,0,0,0,0,0,0,0,.2.3.4.6.3Z"/>
    <path class="st0" d="M196.1,350.3c.4-.4.7-.5.7-.5,0,0,.3-.1.8-.4,0,0,.1,0,.2-.2.1-.2,0-.5-.1-.6-1.2-.8-1.9-1.1-2.1-.9-.2.1-.2.9,0,2.3,0,0,0,.2,0,.2.2.2.4.2.6,0Z"/>
    <path class="st0" d="M473.6,349.9l1.5-1.5c0,0,0-.1,0-.2,0-.2-.1-.3-.3-.3h-1.4c-.2,0-.5.2-.5.4v1.2c0,0,0,.2.1.3.1.1.4.1.5,0Z"/>
    <path class="st0" d="M200.3,351.1l.8-2.8c0,0,0-.2,0-.2,0-.1-.3-.1-.4,0-.8.7-1,1.8-.5,3,0,0,0,0,0,0,0,0,.1,0,.1,0Z"/>
    <path class="st0" d="M191.4,350.4h0c0-.2,0-.2,0-.2,0,0,0,0,0,0-.5-.6-1.2-1-1.9-1.2,0,0,0,0,0,0-.2,0-.5,0-.5.3,0,.3-.1.6-.1,1,0,.4,0,.7,0,1,0,0,0,0,0,0,0,.2.3.4.5.3.8-.2,1.4-.5,2-1.1,0,0,0,0,0,0Z"/>
    <path class="st0" d="M203.8,350.1c-.3,0-.6.2-.8.4l-.8,1.1c-.2.3-.5.4-.8.2-.4-.2-.6-.3-.6-.3,0,0-.2,0-.2,0-.1.1-.1.3,0,.4l3.8,3.6s0,0,0,0c.1.1.4,0,.5,0l2.8-3.9c0,0,0-.2,0-.3-1.2-.9-2.4-1.4-3.9-1.4Z"/>
    <path class="st0" d="M53.9,352.2c0,0-.1,0-.2,0-.2,0-.4.1-.4.3,0,.1,0,.3.2.5,0,0,.1.1.2.1.2.1.5,0,.6-.2,0-.2,0-.4-.4-.6Z"/>
    <circle class="st0" cx="482.6" cy="360.3" r="3.1"/>
    <path class="st0" d="M507,359.5c-.2-.1-.6-.3-1.2-.3,0,0,0,0,0,0-.2,0-.4.2-.4.4v1.3s0,0,0,.1c0,.1.2.2.4.2.8-.3,1.3-.6,1.5-1.1.1-.2,0-.5-.2-.6Z"/>
    <path class="st0" d="M165.1,431.1l-5.9-7.6c0-.1-.2-.2-.4-.2-.2,0-.4.2-.4.5.2,1.3,0,2.3-.7,3-8.9,9.3-24.2,7.9-32.3-1.5-5-5.8-4.6-15.6.7-21,7.9-8.2,21.8-7.1,30.5-1.3,1,.6,1.3,1.5,1,2.5,0,.2,0,.5.2.6.3.1.6,0,.7-.2l4.8-8.3c0-.1,0-.3,0-.4-.1-.2-.4-.3-.6-.2-1.3.6-2.3.4-3.5-.1-7.7-3.5-15.6-4.7-23.4-3.5-10.5,1.6-20,9-20.7,19.9-.9,12.8,7.9,22.6,20.5,24.7,9.8,1.6,19,0,26.9-6.4.2-.2.5-.2.8-.1,0,0,.3.2.6.4,0,0,.1,0,.2,0,.4.1.8,0,.9-.4,0,0,0-.1,0-.3,0,0,0,0,0,0Z"/>
    <path class="st0" d="M274.1,428.9c-.6-.3-1-.7-1.1-1.4,0-1,0-4,0-9,0-1.2.4-1.9,1.2-2.1.1,0,.2,0,.2-.2,0-.1,0-.2,0-.3,0-.1-.2-.3-.3-.3-5.9,0-11.9,0-18.2,0-1.6,0-2.6-.8-3-2.2,0-.2-.2-.3-.4-.3-.2,0-.4.2-.4.4v9.3c0,0,0,.2.1.2.1.1.3,0,.4,0l.8-1.1c.3-.5.9-.8,1.5-.8h10.7c.3,0,.5.2.5.5v5.6c0,.4-.2.7-.5.9-7.5,4.8-19.3,6.8-26.9,2.2-12.3-7.3-10.8-27.3,3.6-31.2,6.9-1.9,18.1-1,23.5,5,.2.2.3.5.3.8v1.2c0,.1,0,.3.2.4.2.1.5,0,.6-.1.9-1.3,2.6-3.9,5.3-7.9.1-.2.2-.4.2-.6,0,0,0-.2,0-.2-.1-.1-.3-.2-.5,0-1.3,1-2.3.9-3.7,0-7.3-4.6-16.1-5.8-23.9-4.7-12.7,1.8-21.5,12.5-20.5,25.4.9,10.7,9.5,17.8,19.6,19.3,11.4,1.7,21.5-.9,30.6-7.8,0,0,.2-.2.2-.3.1-.4,0-.8-.4-.9Z"/>
    <path class="st0" d="M463.9,411.7c-4.8-.2-8.9-.2-12.3-.2-3.8,0-9-1.6-7.8-6.6,1-4,6.6-6,10.2-6.4,6.3-.7,12.9-.3,18.2,3.4.9.7,1,1.2.8,2.4,0,.1,0,.2,0,.3.1.2.4.2.6,0,.4-.3.6-.6.8-1.1,1.5-3.3,2.7-5.9,3.8-7.9,0,0,0-.2,0-.3,0-.3-.3-.4-.5-.4-.3,0-.5.2-.7.3-.8.7-1.8,1-2.6.6-7.3-3.1-15-3.8-22.7-2.6-8.1,1.3-16.6,6.6-14.7,16,2,10.1,16.5,8.9,24.6,9,4.7,0,13.4.7,11.5,7.9-.9,3.4-4.2,5.5-7.6,6.2-7.8,1.7-16.8.9-23.5-3.9-1.3-.9-1.9-2.1-1.7-3.6,0-.3-.1-.5-.3-.6-.3-.1-.6,0-.8.3l-3.9,9.2c0,0,0,.2,0,.3,0,.1.3.1.4,0,1.1-1,2.3-1.1,3.6-.4,6.7,3.7,14.1,5.2,22,4.4,5.4-.5,9.8-1.5,13.9-4.6,2.6-2.1,4.1-4.5,4.5-7.4,1.4-10.8-7.2-14.2-16-14.5Z"/>
    <path class="st0" d="M201.1,437.5c-1.5-.6-1.8-1-1.8-2.8,0-.3,0-6.7,0-19.1,0-12.4,0-18.8,0-19.1,0-1.8.3-2.1,1.8-2.8.1,0,.2-.2.2-.3,0-.2-.2-.4-.4-.4-.9,0-2.7,0-5.2,0-2.5,0-4.2,0-5.2,0-.1,0-.3,0-.3.2,0,.2,0,.4.2.5,1.5.6,1.8,1,1.8,2.8,0,.3,0,6.7,0,19.1,0,12.4,0,18.8,0,19.1,0,1.8-.3,2.1-1.8,2.8-.1,0-.2.2-.2.3,0,.2.2.4.4.4.9,0,2.7,0,5.2,0,2.5,0,4.2,0,5.2,0,.1,0,.3,0,.3-.2,0-.2,0-.4-.2-.5Z"/>
    <path class="st0" d="M345.4,437.7c-2.4-.7-2.8-2.2-3.7-4.2-3.6-7.5-9.4-19.3-17.2-35.6-.8-1.8-1.9-3.1.2-4.1.1,0,.2-.2.2-.3,0-.2-.1-.3-.3-.3h-11.7c-.2,0-.4.1-.4.3,0,.2.1.4.3.5,1.2.3,1.5,1.1.9,2.3-6.7,14.8-12,26.7-15.9,35.5-.5,1.1-1.2,2.6-2.2,4.3-.2.3-.5.6-.8.9l-1,.6c0,0-.1.1-.1.2,0,.2.1.3.3.3h9.9c0,0,.1,0,.2,0,0-.1,0-.2,0-.3l-1.3-1c-.2-.2-.3-.5-.2-.7l4.1-9.7c0-.2.2-.3.4-.3h23.6c.4,0,.7.2.8.5.8,1.7,1.9,4.2,3.6,7.6.7,1.5,1.1,2.6-.7,3.2-.1,0-.2.2-.2.3,0,.2.2.3.3.3h11.1c.1,0,.2,0,.3-.2,0-.1,0-.3-.2-.3ZM327.8,420.2s0,0,0,.1c0,0,0,0,0,0,0,0,0,0,0,0,0,0,0,0-.1,0,0,0,0,0,0,0,0,0-.1,0-.2,0l-17.4.2c0,0-.2,0-.2,0,0,0,0,0,0,0,0,0,0,0,0,0,0,0,0,0-.1,0,0,0,0,0,0,0,0,0,0,0,0,0,0,0,0,0,0-.1,0,0,0,0,0,0,0,0,0-.2,0-.2l8.4-19.1c0,0,0-.1.1-.2,0,0,0,0,0,0,0,0,0,0,0,0,0,0,0,0,0,0,0,0,0,0,.1,0,0,0,0,0,0,0,0,0,0,0,0,0,0,0,0,0,.1,0,0,0,0,0,.1,0,0,0,0,0,0,0,0,0,0,0,.1.2l8.9,18.8c0,0,0,.1,0,.2,0,0,0,0,0,0,0,0,0,0,0,0Z"/>
    <path class="st0" d="M412.9,437.6c-1.2-.3-2.2-1-2.9-2.1-6.7-10.3-10.3-15.9-10.9-16.9,0,0,0-.1,0-.2,0-.2.1-.4.4-.4,5-.4,9.7-2.9,11-8.2,1.9-7.5-.7-14.6-9.1-16.1-2.1-.4-5.3-.7-7.6-.7,0,0-9,0-26.9,0-.2,0-.4.1-.4.3,0,.2.1.4.3.5,2.2.4,1.9,2,1.9,4.1,0,2.3,0,14.7,0,37.3,0,.6-.3,1.2-.9,1.6l-1.2.8c0,0-.1.1-.1.2,0,.1,0,.2.2.2h10.7c0,0,.1,0,.2,0,0,0,0-.2,0-.3l-1.6-1.2c-.2-.1-.3-.3-.3-.5v-17.2c0-.2.2-.4.4-.4h14.7c.5,0,1,.3,1.3.7l10.5,16.8c0,.2.1.3,0,.5-.2.6-.6.9-1.4.9-.1,0-.3.1-.3.3v.2c0,0,0,.2.2.2h11.6c.1,0,.3,0,.3-.2,0-.2,0-.3-.2-.3ZM398.6,412.8c-.2,0-.3,0-.5.1,0,0-.2,0-.3,0-.2,0-.3,0-.5,0,0,0-.2,0-.3,0-.2,0-.3,0-.5,0l-20.6.2s0,0,0,0c0,0,0,0,0,0,0,0,0,0,0,0,0,0,0,0,0,0,0,0,0,0,0,0v-14c-.1,0,0-.2,0-.2l20.6-.2c4.3,0,7.8,2.7,7.8,6.2v1.8s0,0,0,0c0,0,0,.2,0,.3,0,.1,0,.2,0,.4,0,0,0,.2,0,.3,0,.1,0,.2,0,.3,0,0,0,.2,0,.3,0,.1,0,.2-.1.3,0,0,0,.2-.1.2,0,.1,0,.2-.2.3,0,0,0,.2-.1.2,0,.1-.1.2-.2.3,0,0-.1.2-.2.2,0,0-.1.2-.2.3,0,0-.1.2-.2.2,0,0-.1.2-.2.2,0,0-.2.2-.3.2,0,0-.2.1-.2.2,0,0-.2.1-.3.2,0,0-.2.2-.3.2,0,0-.1,0-.2.1-.1,0-.3.2-.4.2,0,0,0,0-.1,0-.2,0-.3.2-.5.2,0,0-.2,0-.2,0-.1,0-.3.1-.4.2,0,0-.2,0-.3,0-.1,0-.3,0-.4.1,0,0-.2,0-.3,0Z"/>
  </g>
</svg>