<?xml version="1.0" encoding="UTF-8"?>
<svg id="Layer_1" xmlns="http://www.w3.org/2000/svg" version="1.1" viewBox="0 0 500 500">
  <!-- Generator: Adobe Illustrator 29.3.1, SVG Export Plug-In . SVG Version: 2.1.0 Build 151)  -->
  <defs>
    <style>
      .st0 {
        fill: #efbc00;
      }
    </style>
  </defs>
  <rect class="st0" width="500" height="500"/>
  <g>
    <path d="M155.1,197.5c0-.4.3-.8.7-.8,0,0,.1,0,.2,0l5,.8c.9.1,1.8.2,2.7.1,4.7-.3,7.7-.3,9.1-.2.6,0,.9,0,.9,0,.7.5,1,1.4.5,2.2-.1.2-.3.4-.5.5l-4,2.3c-.6.4-1,1-1,1.8,0,5.3,0,16.2-.5,33,0,1.4-1.5,4.2-1.1,5.9.2.6.7,1,1.3,1,2.7.2,5.7.3,9.1.3,5.6,0,9.1.2,11.3-5,.6-1.5,1.2-3,1.9-4.5.2-.5.7-1,1.2-1.1.9-.3,1.9-.4,3-.3.4,0,.8.3.8.7.5,2.7.3,6.7-.8,12-.3,1.7-1.3,2.5-2.9,2.5-9.4-.1-18.8-.4-28.1-.8-2.9-.1-6.2,0-9.9.5-.5,0-.9-.3-1-.7-.6-2.4,2.6-2.9,3.9-3.8,1.1-.8,1.7-2.1,1.6-3.4-.4-4.2-.2-8,.6-11.3.2-.9.3-1.8.3-2.7-.2-5.9-.6-10.9.3-16.3.4-2.4.5-4.6.5-6.6,0-.5-.3-1-.7-1.3-2-1.4-4.1-2.8-4.3-4.8Z"/>
    <path d="M219.6,220.7c2.5,0,5.6,0,9.5-.2,4.7-.3,4.5-5.5,9.2-4.9.4,0,.8.4.8.8.3,4.2.4,7.8.2,11-.2,2.7-1.5,4.1-4.3,3.1-.3-.1-.5-.3-.7-.5l-2.2-3.3c-.5-.7-1.3-1.2-2.2-1.3l-10.4-.6c-.4,0-.8.3-.8.7,0,0,0,0,0,0l-1,18.4c0,.9.6,1.6,1.5,1.6,0,0,0,0,0,0,5,0,9.8,0,14.5-.3,2.1-.1,3.6-.7,4.6-2.7,1-1.8,2.2-3.7,3.6-5.6,1.2-1.6,2.7-1.9,4.6-.8.9.5,1.3,1.7.9,2.7-1.2,3-1.8,6-1.8,9,0,.6-.5,1.1-1,1.1-12.3.6-23.3.7-33.1,0-2.8-.2-5.4.5-7.5.1-.7-.1-1.2-.8-1.1-1.5,0-.4.3-.8.7-1l2.8-1.3c.8-.3,1.3-1.1,1.3-1.9l2.2-39.6c0-.7-.4-1.4-1.1-1.7-1-.4-1.9-1.1-3-2.2-.5-.5-.5-1.3,0-1.8.3-.3.6-.4,1-.4,4.4.4,6.9.7,10.5.5,9.8-.5,19.6-.5,29.3,0,1.1,0,1.9,1,1.9,2.1,0,0,0,0,0,.1l-1.3,9.5c0,.2-.2.4-.4.4-6.1.6-4.8-8.1-11.9-8.3-5.9-.1-10.9,0-14.9.1-.3,0-.6.3-.6.7l-.9,16.8c0,.5.4,1,.9,1,0,0,0,0,0,0Z"/>
    <path d="M252.2,249.9c-.6.2-1.2-.1-1.4-.7,0-.1,0-.2,0-.3v-.5c0-.7.4-1.3,1-1.6,2.9-1.3,5.2-3.5,6.8-6.6,6.9-13.4,12.6-24.2,16.9-32.3,1.3-2.5,2.9-5.2,4.7-8.1.2-.3.4-.5.6-.7,2.3-2,7-1.7,8,1.8,2.7,9,5.2,16.8,7.7,23.5,2.4,6.6,3.3,13.8,6.8,20,.1.2.3.4.5.5l2.9,1.7c1,.5,1.3,1.8.7,2.7-.3.6-1,1-1.6,1-1.6,0-3.9-.7-6-.7-4.6-.1-8.6,0-11.9.2-.4,0-.9-.1-1.4-.4-.6-.3-.7-1.1-.4-1.6.1-.2.3-.4.5-.5l4.2-1.9c1-.5,1.6-1.5,1.4-2.6-.5-3.7-1.4-6.7-2.6-9-.2-.3-.5-.5-.9-.5h-18.1c-1,0-2,.6-2.4,1.6l-3.4,8.1c-.4.8,0,1.8.9,2.2l4,1.7c.9.4,1.3,1.4,1,2.3-.3.7-1,1.1-1.7,1.1-2.4,0-6.7-.2-10.4-.7-2.1-.3-4.2-.2-6.3.5ZM282.5,207c0-.2-.3-.3-.5-.3-.1,0-.2.1-.2.2l-10.4,21c0,.2,0,.4.2.5,0,0,.1,0,.2,0l16.3.9c.2,0,.4-.1.4-.4,0,0,0,0,0-.1l-5.9-21.9Z"/>
    <path d="M359.1,200l-1.2,9.9c0,.3-.2.6-.4.7-1.5,1-2.8.9-4-.5-2.1-2.4-2.7-6.9-7.7-6.9-4.6,0-9.4,0-14.3,0-.4,0-.7.3-.8.7l-1,17.5c0,.5.3.9.8.9,0,0,0,0,0,0h8.8c1.5,0,2.9-.7,3.9-1.9l2.9-3.8c.2-.2.4-.4.7-.4.9-.2,1.8-.1,2.8.2.4.1.6.5.6.9,0,.9,0,1.6-.1,2.1-.5,3.1-.3,6.4-.2,11,0,1.3-.9,2.4-2.1,2.6-3.5.5-4-2.6-5.1-4.6-.5-1-1.5-1.6-2.5-1.6h-9.1c-.8,0-1.4.6-1.4,1.4l-.9,16c0,.3.1.6.4.8.9.7,1.9,1.1,3,1.3,1,.2,1.8,1.2,1.8,2.2v.5c0,.7-.6,1.3-1.3,1.3,0,0-.1,0-.2,0-3.9-.6-9.2-.6-16,0-.9,0-1.4,0-1.7,0-.9-.3-1.4-1.2-1.1-2.1.1-.4.4-.8.8-1l3.2-1.6c1-.5,1.7-1.6,1.6-2.8-.2-3.5-.1-6.5.3-9.1,1.2-7.5,1.4-15.6,1.6-22.1,0-2.1.7-4.1.8-5.8,0-.4,0-.9-.3-1.2-1-1.4-4-2.9-4.5-4.6-.2-.5.1-1.1.7-1.2.2,0,.3,0,.5,0,3,.5,5.3.8,8.4.7,10-.5,20.6-.5,31.9,0,.4,0,.7.4.7.8,0,0,0,0,0,0Z"/>
    <ellipse cx="101.1" cy="212.6" rx=".9" ry=".8" transform="translate(-121.5 136.1) rotate(-45.6)"/>
    <path d="M123.4,257.8l7.6-2c.2,0,.4-.3.3-.6,0-.2-.2-.3-.4-.3h-1.3c-.3,0-.6-.3-.7-.5-.9-1.8-2.5-2.7-4.6-2.7-.3,0-.5,0-.8.2-2.9,1.1-5.2,2.2-7.4,1.1-.5-.2-.7-.8-.5-1.3.2-.4.5-.6.9-.6h3.4c.7,0,1.3-.6,1.3-1.3,0-.3-.1-.7-.4-.9l-1.4-1.4c-.3-.3-.7-.4-1.1-.3-1.5.5-3,1.3-4.4,2.3-.7.5-1,.9-1,1.3,0,.1,0,.5.1,1.1,0,.5,0,.9,0,1.1-.3.6-1,.9-2,.7-.5,0-1-.4-1.2-1l-.3-.8c-.1-.4-.5-.5-.9-.4-.1,0-.2.1-.3.2l-1.7,1.8c-.3.3-.3.8,0,1.1.1.1.3.2.5.2,1,.1,1.9.5,2.6,1.1,1.4,1.3,2.7,1.5,3.7.2.3-.4.8-.5,1.2-.3,2,.9,4.4,1.4,7.3,1.4.2,0,.3.1.3.3v.3c0,0,0,0,0,.1-2,.3-3.5.9-4.6,1.8-.2.2-.5.2-.8,0-1.8-.9-3.2-.8-4.1.3-.3.3-.7.3-1,0,0,0,0,0-.1-.2l-.3-.5c-.2-.3-.6-.6-.9-.7-2.9-.9-5.5-.5-7.6,1.3-.6.5-.7,1.4-.2,2.1.2.3.5.4.8.5,2.4.5,5.1.4,8-.2.2,0,.4-.2.6-.4.2-.3.6-.4.9-.3,1.7.5,3,.3,3.9-.5.3-.2.7-.2.9,0,0,0,0,.1.1.2.3.7.9,1.5,1.9,2.4.2.2,1,.1,2.4-.3,5-1.7,6.3,7.5,6.1,10.7,0,.5-.3,1-.7,1.4-1.8,1.7-2.6,3.4-2.6,5.2,0,1-.6,2-1.5,2.4-3,1.3-5.1,2.2-7.1,5.2-1.7,2.5-3.9,4.9-7.4,5-.3,0-.5.1-.7.3l-3.1,3.1c-.5.5-1.2.6-1.8.3l-3.7-1.6c-.3-.1-.6-.2-.9-.2-2.5.2-4,.2-4.6,0-3.5-1-4.7-3.3-3.6-6.7,1-3.2,1.5-6,1.4-8.3,0-.7,0-1.4.3-2.1,1.4-3.6,2.6-6.6,3.6-8.9.6-1.4,1.2-2.2,1.8-2.3,2-.3,3.3,1.9,4.1,3.9.2.5.7.8,1.2.8,4.5,0,5.1-3.4,7.1-5.4.1-.1.1-.4,0-.5,0,0-.1,0-.2,0-.9-.1-1.5,0-1.9.2-2.1,1.4-4.3,2.2-6.6,2.5-.3,0-.6-.2-.6-.5,0,0,0-.2,0-.2.9-2.8,0-5.3-2.6-7.5-.1-.1-.2-.3,0-.5,0,0,.2-.1.3-.1h1.7c.2,0,.4,0,.6-.2,2.5-2.4.7-4.1-1.1-5.8-.5-.5-.5-1.2,0-1.7l.2-.3c.3-.3.7-.3,1,0,0,0,0,0,.1.1.6,1,1.3,1.7,2.1,2.1.5.3,1.2.1,1.5-.4,0,0,0-.2.1-.2.8-2.6-.2-5.1-3-5.9-1-.3-1.9-.7-2.8-1.2-.3-.2-.5-.4-.8-.7l-5.5-6.2c-.6-.6-.9-1.5-.8-2.4l.2-4.3c0-.6-.2-1.1-.5-1.6-1.8-2.2-2.2-4.2-1.3-6,1.6-3,3.4-5.4,5.5-7.1.5-.4,1.1-.5,1.6-.3,0,0,.8.3,2.4,1,1.3.5,2.7.1,3.6-1,2.3-2.9,5.2-.7,7.2,1.3.3.3.8.5,1.3.5h1.9c.3,0,.6,0,.8.2,4,2.7,7.2,5.8,9.5,9.3.2.3.5.6.8.9,1.7,1.6,6.7,7.7,6,10.7-.2.9-.6,1.8-1.2,2.7-.2.3-.3.7-.3,1.1v2.4c0,.4-.2.7-.6.9h-.3c-.4.3-.8,0-.9-.3,0,0,0-.1,0-.2,0-1.7-1.1-2.4-2.9-2-.5,0-.8.5-.7,1,0,.2.1.3.2.4l4.5,4.5c.3.3.8.5,1.3.4l2.4-.6c.4-.1.8.1.9.5,1,3,4.2,1.8,4.4,5.9,0,.4-.2.9-.6,1.1-1.5.8-2.9,2.2-4,4.3-.2.3-.5.6-.8.8-1.1.5-1.9.7-2.4.6-.3,0-.5-.4-.5-.7,0,0,0,0,0-.1l1-2.4c.3-.6,0-1.3-.6-1.6-.2,0-.4-.1-.5,0-2.1.1-3.9-.1-5.4-.8,0,0-.1-.1,0-.2,0,0,0,0,.1-.1ZM106,220.1l-2,.7c-.4.1-.7.6-.5,1l1.1,3.5c1.8,5.4,4,9.4,4.9,9.1,0,0,0,0,0,0h0c1-.3.3-4.9-1.4-10.3,0,0,0,0,0,0l-1.1-3.5c-.1-.4-.6-.7-1-.5ZM106.9,243.1c.3-.2.6-.3.7-.3.3,0,.6-.3.8-.7.6-1.8.7-3.3.2-4.7-.1-.4-.3-.7-.6-1-3.4-3.4-5.6-6-6.4-7.7-1.9-3.9-3.4-6.6-4.3-8-.2-.3-.6-.4-1-.2-.1,0-.2.2-.3.4l-.3,1c-.2.7,0,1.5.5,2.1,2.1,2.3,1.9,4.7,3.7,6.4.4.4,2.7,2.8,6.9,7.4.2.3.2.7,0,.9-.2.2-.5.2-.7,0-3.1-1.7-6.1-3.9-9-6.7-.2-.2-.6-.2-.8,0,0,0-.1.2-.1.2l-.7,2.3c-.1.4.1.9.5,1,0,0,0,0,0,0,1.3.3,2.4,1.1,3.2,2.5,1,1.5,2.3,1.6,3.8,1.6.8,0,1.5.5,1.7,1.3v.5c.3.6,0,1.1-.6,1.3-.1,0-.2,0-.3,0l-3.7-.2c-.4,0-.8.3-.8.8,0,.1,0,.3,0,.4.2.4.5.7,1,1,2.8,1.4,6.6,2.8,11.3,4.3.4.1.8,0,1-.4l.9-1.6c.2-.4.6-.7,1.1-.8l2.7-.7c.3,0,.6-.3.7-.5.5-.8.5-1.9,0-3.3-.2-.7-.9-1.1-1.7-.9l-3.9,1.1c-.2,0-.4.2-.4.4v1.8c-.1.4-.5.7-.9.7-1.7,0-3.1-.3-4.2-.8-.2,0-.4-.4-.3-.6,0,0,0-.2.2-.2ZM116.1,226.9c0-.9-.7-1.7-1.6-1.7h-.6c-.9,0-1.7.7-1.7,1.6h0s-.3,9.1-.3,9.1c0,.9.7,1.7,1.6,1.7h.6c.9,0,1.7-.7,1.7-1.6h0s.3-9.1.3-9.1ZM93.2,226.1c-.4.2-.6.8-.4,1.4,0,0,0,0,0,0,.2.6.8,1,1.2.9h0c.4-.2.6-.8.4-1.4,0,0,0,0,0,0-.2-.6-.8-1-1.2-.9h0ZM121,231.4c-.6-.2-1.7,1-2.4,2.8-.7,1.8-.8,3.4-.2,3.7.6.2,1.7-1,2.4-2.8,0,0,0,0,0,0,.7-1.8.8-3.4.2-3.7ZM93.2,236.3c-.6.2-.9,1-.7,1.8.2.8.9,1.4,1.6,1.2,0,0,0,0,0,0,.6-.2.9-1,.7-1.8h0c-.2-.8-.9-1.4-1.6-1.2h0ZM125.7,238.6l-4.4,2.6c0,0-.1.2,0,.3h0c.7,1.2,2.1,1.5,3.3.8,0,0,0,0,0,0l.4-.2c1.2-.7,1.6-2.2,1-3.3h0c0-.1-.2-.2-.3-.1ZM112.1,240.3c0,0-.1.1-.1.3,0,0,0,0,0,0,0,.1,0,.2.2.2,0,0,.1-.1.1-.3,0,0,0,0,0,0,0-.1,0-.2-.2-.2ZM111.6,272.7c1.9-.7,3.3-1,4.2-.8.3,0,.6-.1.6-.4,0,0,0,0,0,0l.2-4.4c0-.4-.2-.7-.6-.8-.7-.2-1.2-.3-1.4-.3-1-.1-2,.5-2.3,1.5l-1.5,4.6c-.1.3,0,.6.4.8.1,0,.3,0,.4,0ZM120.6,269.3c-.9.4-.9,2.3,0,4.2s2.4,3.1,3.3,2.6c.9-.4.9-2.3,0-4.2-.9-1.9-2.4-3.1-3.3-2.6ZM102,273.4c-.4-.5-2.3.5-4.2,2.1-1.9,1.6-3.2,3.3-2.8,3.8h0c.4.5,2.3-.5,4.2-2.1,1.9-1.6,3.2-3.3,2.8-3.8,0,0,0,0,0,0ZM116.7,275c-.3-.4-.9-.6-1.3-.3-.3.2-.4.5-.4.8.2,4.5,1.8,6.8,4.8,6.9.7,0,1.3-.5,1.3-1.2,0,0,0,0,0-.1,0-.7-.3-1.3-.7-1.7-1.2-.9-2.4-2.5-3.7-4.6ZM108.2,274.8c-3.4-.3-9.3,5.8-11.5,8.5-.7.9-2.3,3.7-4.9,8.5-.4.7-.1,1.6.6,2,0,0,0,0,0,0h0c.8.4,1.7.2,2.2-.5,1.5-2.2,3.3-5.2,5.5-8.9,2.1-3.6,4.8-6.3,8.3-8.2.3-.2.5-.6.3-.9-.1-.2-.3-.3-.5-.4ZM109.6,281.2c-.2,3-.6,6.7,1.1,8.8.3.4.8.4,1.1.1.1,0,.2-.2.3-.4l2-5.7c0-.2,0-.5,0-.7l-2.1-4.6c-.2-.4-.7-.6-1.2-.4,0,0-.1,0-.2.1-1.4,1.1-2.7.3-4,1.6-2.7,2.8-5.1,7.9-5.8,12.4-.2,1,.6,1.9,1.7,2.1.1,0,.2,0,.4,0,3.1,0,3.1-6.2,3.7-8.3.7-2.2,1.5-4,2.3-5.3,0-.2.3-.2.4-.1.1,0,.2.2.2.3Z"/>
    <path d="M377.6,264.1c1.6-1,3.8-.5,4.8,1.1.2.3.4.7.4,1.1,0,0,.6.5,1.6,1.4.1.1.4,0,.5,0,0,0,0-.1,0-.2,0-1.5-.7-2.4-1.8-2.7-.3,0-.5-.4-.4-.8,0,0,0,0,0-.1l2-3.5c.1-.2.2-.3.4-.4l3.8-1.7c.3-.1.4-.5.3-.7,0-.1-.2-.2-.3-.3l-3.5-1.5c-.7-.3-1.1-1-.9-1.8.3-2,.7-10.3-3.7-9-.4.1-.6.4-.8.8-1.4,4.6-2.1,8-7.2,8-.3,0-.6-.1-.8-.3l-3.9-3.6c-.4-.3-.5-.9-.3-1.4.5-1.2.4-2.6-.2-4.1-.3-.6-.2-1.4,0-2,2.8-6.4,6.3-10.4,11.6-15.6.2-.2.4-.4.7-.5l7.3-3.6c.2,0,.3-.1.5,0,3.3.6,3.9-3.6,7.3-3.7,1.2,0,2.2,1.5,3.1,2.2.3.2.8.3,1.2.2,2.9-1,5.6-.3,8.1,2,4.6,4.1,2,6.4.1,10.5-.1.3-.2.6-.2.9l-.3,5.3c0,.5-.3.9-.8,1.2-2.8,1.4-3.1,4.9-5,7-2,2.3-3.9,2.7-7.4,3.8-.2,0-.3.2-.5.3l-2.5,2.5c-.4.4-.4,1,0,1.4.1.1.3.2.5.3.2,0,.6,0,1.2,0,.3,0,.6-.3.8-.8.5-1.4,1.9-1.6,4-.7.4.2.6.7.4,1.1-.1.3-.4.5-.7.5-.8,0-1.3.5-1.6,1.6-.5,2.5.2,4.2,2.2,5,.4.2.5.6.4,1,0,.2-.2.3-.3.4l-2.9,1.3c-.4.2-.6.7-.4,1.1,0,.1.2.3.3.4,2.6,1.6,4.3,3.7,5.1,6.2.1.3.3.6.5.9.8,1.1,1.9,2.3,3.3,3.6,1.2,1.2,1.4,3.1.3,4.3,0,0-.2.2-.2.2-3.7,3.1-.2,7.9.6,11.4.1.7,0,1.4-.4,1.9-2.2,3.1-3.5,6-7.6,7-.3,0-.6-.1-.7-.4,0-.1,0-.3,0-.4,1.5-2.5-.6-5.8-3.4-4.5-.7.3-1,1.2-.7,1.9,0,.1.2.3.3.4l2.3,2.3c.3.3.3.8,0,1.2,0,0,0,0-.1.1l-.2.2c-.5.3-1.2.2-1.6-.2-1.7-1.5-3.6-2.6-5.7-3.1-.6-.2-1-.6-1.1-1.2-.5-3.1-.2-6.5-4.5-6-1.6.2-3.1-.5-3.8-1.8-1.6-3.1-4.3-4.6-6.8-6.3-.3-.2-.6-.6-.7-1l-.5-1.9c0-.2-.2-.4-.4-.5l-3-1.2c-.9-.4-1.3-1.4-.9-2.2l4.5-10.8c.4-1,1.4-1.7,2.5-1.7,2.3,0,4-.4,5.3-1.2ZM387.8,236.2c-.2.4,0,.8.3,1,.2.1.5.1.7,0,2.7-1.5,4.7-3.9,5-7.5.2-2.7,1.3-5,3.1-6.9.2-.2.2-.6,0-.8-.1-.1-.3-.2-.5-.1-2.4.4-4.2,2-4.7,4.7-.4,2.2-1.7,5.4-3.9,9.6ZM405.1,224.7l-1.7-1.3c-.2-.2-.6-.1-.7,0,0,0,0,0,0,0l-.4.5c-5.6,7.3-9.7,13.6-9.1,14.1,0,0,0,0,0,0h.2c.7.6,5.8-4.8,11.4-12.1l.4-.5c.2-.2.1-.6,0-.7h0ZM385,241l2.5-12.8c0,0,0-.2-.1-.2h-.1c-1.5-.3-3.1,1-3.5,3,0,0,0,0,0,0l-1.2,6c-.4,2,.5,3.8,2.1,4.1h.1c0,0,.2,0,.2-.1ZM406.2,229.3c0,.3-.2.6-.3.9-.1.3,0,.7.4.8.1,0,.3,0,.4,0,.7-.2,1.1-.6,1.3-1.2.2-.6,0-1.2-.4-1.7-.2-.3-.6-.3-.9,0-.1,0-.2.2-.2.3,0,.3-.2.6-.3.9ZM378,235.4c-.3,0-.6.4-.7.9,0,.6.1,1,.4,1.1.3,0,.6-.4.7-.9,0-.6-.1-1-.4-1.1ZM403.6,239.5c.2,0,.5,0,.6-.3,0-.1,0-.3,0-.4l-1-2.2c-.4-.8-1.3-1.2-2.2-.8-.1,0-.3.1-.4.2-1.7,1.5-3.4,2.4-4.8,2.9-.9.3-1.6.4-2,.2-1.5-.8-3.3-.5-4.7.5-.4.3-1.5,1.3-3.3,2.8-.3.2-.4.6-.4,1,0,.6.2,1.2.5,1.7.4.5,1.1.7,1.7.3.2-.1.3-.3.4-.4.7-1.2,1.4-2.1,2.4-2.5.3-.1.6-.2.8-.2l5.5-.3c.5,0,1-.2,1.4-.5,1.8-1.5,3.3-2.9,5.5-2ZM391.1,245.1c-2.7,1-4.4,2.5-5.3,4.5-.1.3,0,.7.4.9,0,0,0,0,.1,0,3.3.6,7.2-1.6,11.2-3.4.7-.3.9-1.1.6-1.7-.3-.5-.8-.8-1.4-.7-1.4.3-2.8,0-4.1-.6-.2-.1-.4-.1-.6,0-.2,0-.4.3-.5.6,0,.2-.2.4-.4.5ZM372.8,244.2c-.3,0-.7,1.2-.9,2.7s0,2.8.3,2.8c.3,0,.7-1.2.9-2.7.2-1.5,0-2.8-.3-2.8ZM392.7,261.6c-1.4,1.4-3.4,2-6.1,1.9-.2,0-.4.2-.4.4,0,0,0,0,0,0v.3c0,.3.2.6.6.6,0,0,0,0,0,0,2.6-.2,4.6-.1,5.8.3.3,0,.6,0,.7-.4,0,0,0,0,0,0,.3-1.2.3-2.1.2-2.8,0-.3-.3-.4-.5-.4-.1,0-.2,0-.3.1ZM385.4,268.7c.8,1.1,1.9,1.8,3.2,2.1.4,0,.7.5.7.9v2.5c-.2.6.3,1.1.9,1.2,0,0,.1,0,.2,0,1.6-.2,2.9-.6,4-.9.9-.3,1.4-1.3,1.2-2.2,0-.1-.1-.3-.2-.4-.3-.4-.8-.6-1.7-.6-1.9,0-3.1-.3-3.8-.5-.4-.1-.7-.4-.9-.7-.6-.8-1.7-1.4-3.3-1.8-.1,0-.3,0-.3.2,0,0,0,.2,0,.2ZM383.9,272.9c-.6-1.5-1.5-2.7-2.7-3.5-.5-.4-1.2-.2-1.6.3,0,.1-.1.2-.2.4-.5,2,0,3.1,1.7,3.3.2,0,.9.1,2.2.3.3,0,.5-.2.6-.4,0,0,0-.2,0-.3ZM375.5,272.7c-.5-.6-2-.2-3.3.9h0c-1.3,1.1-1.9,2.6-1.4,3.2.5.6,2,.2,3.3-.9,0,0,0,0,0,0,1.3-1.1,1.9-2.6,1.4-3.2ZM400,297.5l2.2-1.3c.3-.2.4-.5.2-.8l-1.6-2.7c-4.5-7.8-8.6-13.9-9.1-13.6,0,0,0,0,0,0l-1.4.8c-.5.3,2.7,6.8,7.3,14.6,0,0,0,0,0,0l1.6,2.7c.2.3.5.4.8.2ZM397.7,279.8c-.4.5,0,1.4.7,2h0c.8.6,1.7.7,2.1.2,0,0,0,0,0,0,.4-.5,0-1.4-.7-2h0c-.8-.6-1.7-.7-2.1-.2h0ZM378.5,280.6c-.6-.8-2.4-.4-3.9.9-1.5,1.2-2.3,2.9-1.7,3.6.6.8,2.4.4,3.9-.9,1.5-1.2,2.3-2.9,1.7-3.6ZM385.2,284.6c3.1,2.1,2.6,5.9,2.4,10.3,0,1.1.8,2,1.8,2.2h.1c1,.2,2-.6,2.1-1.6,0,0,0,0,0,0,.7-5.2-1.5-9-3.6-13.3-.2-.3-.5-.6-.8-.7-1.5-.5-3-.7-4.7-.6-.8,0-1.5.6-1.7,1.4-.8,3.1-1.3,7.6,2,9.2.4.2.9,0,1.1-.4,0,0,0,0,0,0,.8-1.7.9-3.6.3-5.9,0-.3.1-.6.4-.7.2,0,.3,0,.5,0Z"/>
    <path d="M96,259.1c-.7-.1-1.5,0-2.3.2-.7.2-1.1.8-.9,1.5,0,.2.2.4.4.6l1.3,1.2c.5.5.6,1.2.3,1.8-1.5,2.5-3.5,4.6-6.1,6.2-.2.2-.5.2-.8.3l-2.4.3c-.5,0-1,.2-1.5.5-2.1,1.3-6,4.4-8.7,3.4-3.7-1.4-6.3.9-9.4,1-3.2,0-5.9-.7-8.1-2.4-.4-.3-.8-.4-1.3-.4h-3.9c-.7,0-1.4-.2-2.1-.5l-6.9-4c-.2,0-.3-.1-.5-.2-1.4-.2-2.8-.6-4.1-1.2-1.7-.9-2.6-2.8-5-3.5-1.2-.4-2-.7-2.4-1.1-.3-.3-.7-.4-1.1-.3-.8.2-1.9,0-3.3-.3-.5-.1-.8-.6-.7-1.2,0-.2.1-.3.2-.4.8-.9,1.4-1.9,1.7-3,.1-.4.1-.9,0-1.4l-1.7-3.7c-.3-.7,0-1.6.7-1.9,0,0,.1,0,.2,0l1.7-.5c.5-.1,1,.2,1.1.6,0,.1,0,.2,0,.4-.2,1.2.8,2,2.8,2.4,3.1.6,5.9,1.2,8.4,1.8.3,0,.6,0,.9,0,.7,0,1.5-.4,2.3-.8.3-.1.6,0,.8.3,0,0,0,.2,0,.3-.2,2-1.2,2.9-3.1,2.5-.3,0-.7,0-.9.3l-.4.4c-.2.2-.5.4-.8.4-3.4.2-6.3.9-8.8,1.9-.6.2-.8.8-.6,1.4,0,.2.2.3.3.4.2.1.5.2.9.2,2.9-.2,5.8-.4,8.7-.5.3,0,.6,0,.9-.2.6-.3,1.1-.9,1.6-1.9.2-.4.6-.5,1-.4.2,0,.3.2.4.4.3.7.3,1.2,0,1.5-1.2,1.2-1.7,2.8-1.7,4.8,0,.3.3.6.6.6,0,0,0,0,.1,0,5.3-1.5,9.7-2.7,13.2-3.6,1.2-.3,2.4-.4,3.6-.4.9,0,1.8-.3,2.5-1,1.7-1.9,3-2.9,3.9-2.8.6,0,1.1.6,1,1.2,0,.4-.2.7-.6.9-2,1-5.5,3.4-8.5,4.1-3.1.7-6.1,2.1-8.9,4.2-.6.5-.8,1.3-.3,2,.4.5,1.1.7,1.7.5,8.2-3.3,13.6-4.7,19.1-8.7,1.3-.9,1.9-2.4,2-4.2,0-.4.2-.8.5-1.1l1.3-1.3c.3-.3.3-.8,0-1.1-2.1-2.4-3.4-3.7-4-3.9-2.9-1.5-5.8-3.2-8.5-4.9-1.7-1.1-3.9-1.3-5.5-2.8-1.2-1.1-2.7-1.3-4.1-.6-.4.2-.6.7-.4,1.1,0,.1.1.2.2.3,2.8,2.2,6,4.1,9.5,5.7,1.9.9,3,1.4,3.2,1.5.3.2.7.5.9.8l3.6,4c.2.2.1.6,0,.7-.2.1-.4.2-.6,0-1.2-.7-3-1.9-5.3-3.8-.2-.2-.5-.3-.8-.4l-1.1-.2c-.2,0-.5-.1-.7-.3-2.7-2.1-7.2-3.9-13.4-5.4-.9-.2-1.6-1-1.9-2.4-.1-.4,0-.8.4-1.1,2.8-2,5.7-3.1,8.8-3.3.5,0,1,0,1.4.2l2.5,1.1c.5.2,1.2,0,1.5-.5.9-1.7,1.9-3,3-3.9.3-.2.6-.4,1-.5,2.9-.7,8.8,3.9,10,4.6.4.3,1,.1,1.2-.3.1-.2.2-.4.1-.7l-.9-3.7c0-.3.1-.5.4-.6.2,0,.3,0,.4.1l2.8,2.6c.4.3.8.5,1.3.5h2.8c.1,0,.2,0,.3,0,3.9,1.7,7.3,4.4,10,8.2,1.6,2.1,1.2,3.9.4,6.1-.4,1.1,0,2.4,1.2,2.8.1,0,.3,0,.5.1,1.3.2,2,.9,2,2.3,0,.3-.2.6-.6.7,0,0,0,0-.1,0ZM78.2,251.9v-.5c0-.5-.1-1-.5-1.4l-12.2-11.1c-.3-.3-.7-.2-1,0,0,0-.1.2-.1.2-1.3,3.7,2.8,7.1,5.6,8.6,3.4,1.8,5.8,3.3,7.2,4.6.3.2.7.2.9,0,0-.1.1-.2.1-.4ZM84.3,242.5c-.4.6-.1,1.5.6,2,0,0,0,0,0,0,.8.5,1.7.4,2.1-.2,0,0,0,0,0,0,.4-.6.1-1.5-.6-2,0,0,0,0,0,0-.8-.5-1.7-.4-2.1.2,0,0,0,0,0,0ZM79,242.1c-1,.4-1.2,2.5-.4,4.6,0,0,0,0,0,0,.9,2.1,2.4,3.5,3.4,3.1,1-.4,1.2-2.5.4-4.6,0,0,0,0,0,0-.9-2.1-2.4-3.5-3.4-3.1ZM82.1,258.2c.4.2.8,0,1-.4,0,0,0-.2,0-.2.3-4,2.9-4.3,5.6-6.2,2-1.4,1.4-3.8.1-5.3-.2-.2-.6-.3-.8,0,0,0-.1.1-.1.2l-1.6,3.8c-.1.3-.4.6-.8.7-.6.2-1.3.2-2.1.1-.4,0-.7.1-.9.4-.1.2-.2.5-.2.8,0,1.3-1.6,1.8-2.7,2.1-.8.2-1.3,1-1.1,1.9.1.5.4.9.9,1.1l2.8,1.2ZM85.6,259.2l5.6-.8c0,0,.2,0,.2-.2,0,0,0,0,0,0h0c-.1-1.2-1.3-1.9-2.6-1.7,0,0,0,0,0,0l-1.2.2c-1.3.2-2.3,1.2-2.1,2.2h0c0,.2.1.3.2.2ZM78.4,258.4c-.1-.4-.6-.6-1-.5-.2,0-.3.2-.4.3l-2.3,3.8c0,.1-.2.2-.3.3-3.5,2.6-7.2,5.8-11.2,9.6-.7.6-.7,1.7,0,2.4h0c.6.7,1.7.8,2.5.2,3.9-3,14.2-12,12.8-16.1ZM82.2,263.5c-1-.6-3,.9-4.6,3.4,0,0,0,0,0,0-1.5,2.5-2,5-1,5.6h0c1,.6,3-.9,4.6-3.4,0,0,0,0,0,0,1.5-2.5,2-5,1-5.6h0ZM87.9,264.5c-.9,0-1.5,1-1.4,2.1,0,0,0,0,0,0,0,1.1.8,1.9,1.7,1.8.9,0,1.5-1,1.4-2.1,0,0,0,0,0,0,0-1.1-.8-1.9-1.7-1.8Z"/>
    <path d="M430.1,255.8c-.1-.3,0-.7.4-.8.2,0,.4,0,.6,0,1.7,1.2,2.8,2.6,3.5,4.2.1.3.5.6.9.6h2.6c.3,0,.5.2.5.5,0,.2-.1.4-.3.5l-3.9,1.8c-.6.3-.9,1-.6,1.6.2.3.4.6.8.6,3.6.9,7,2,10.1,3.2,1.2.5,2.5.5,4,.2,2-.4,3.1.2,3.2,1.8,0,.3.3.5.6.5h0c.3,0,.5-.3.5-.5,0,0,0,0,0,0-.8-4-2.2-4.9-5.2-7.2-.2-.2-.3-.5-.1-.7,0,0,.2-.2.3-.2,1.3-.4,2.6,0,3.3,1.4,1.6,3.4,7.1,1.7,10,2,.4,0,.7.4.7.9,0,.2-.1.4-.3.5-2,1.6-3.7,3.1-5,4.5-1.2,1.3-2.5,1.6-4.1,1.1-4-1-4.9,5.4-9.7,4.6-1.9-.3-3.5-.4-4.7-.2-.4,0-.9.2-1.3.4l-5.7,2.9c-1.2.6-2.7.6-3.9-.1l-4.2-2.4c-.7-.4-1.6-.2-2,.5-.1.2-.2.4-.2.7v.6c0,.4-.4.7-.8.7l-10.6-.6c-.4,0-.8-.3-.9-.6l-.2-.5c-.2-.4,0-1,.4-1.2.1,0,.3,0,.4,0h3.2c.4,0,.7-.3.7-.7,0-.2,0-.4-.2-.5l-1.9-1.9c-.5-.5-1.3-.7-2-.3l-1.5.7c-.4.2-.8.2-1.2,0-2.6-1.2-6.2-5.3-5.2-8.8.4-1.5.3-3.2-.5-5.2-.2-.5,0-1.2.6-1.4.3-.1.7,0,1,.1,1.6,1.2,5.3,3.2,7.8,2.7.2,0,.4-.2.3-.5,0-.2-.2-.3-.3-.3l-2.6-.6c-.3,0-.6-.2-.8-.4-3.1-2.1-4-4.9-2.6-8.2,0,0,0-.2.2-.3l6.1-7.4c.2-.2.4-.3.7-.2h0c.4.2.6.7.4,1.2-.2.5-.3,1.1-.1,1.8.2.6.8,1,1.4.9.3,0,.6-.3.8-.6,1.4-2.9,4-4.9,7.7-5.9.9-.2,1.8.3,2,1.1,0,.2,0,.4,0,.5v.7c0,.5.3.9.8.9.2,0,.5,0,.6-.2,2.8-2.5,8.9-6.6,12.2-2.2.3.3.8,1.1,1.7,2.2.4.5,1.1.6,1.7.3,5.1-2.8,10.1,1.1,13.5,4.8.2.2.2.5,0,.7,0,0-.2.1-.3.1h-2.4c-.7,0-1.5.2-2.2.4l-11.9,4.1c-.2,0-.4,0-.5-.3,0,0,0-.2,0-.3h0c.1-.5.4-.9.9-1.1,5.3-3,8-5.1,8.1-6.4,0-.8-.4-1.5-1.2-1.5-.5,0-1,.2-1.3.6-.9,1.2-1.5,1.9-3,2.3-3.9,1-7.4,2.9-10.4,5.7,0,0-.1.1-.2.2l-3.2,1.4c-.9.4-1.3,1.4-.9,2.3,0,.1.1.3.2.4l2.9,3.7c.2.3.5.5.8.5,2.2.7,3.9.3,5.1-.9.2-.2.2-.6,0-.9,0,0,0,0,0,0-2-1.4-3.2-2.8-3.7-4.3ZM433.2,241.8l-14.7,11.5s0,0,0,0c0,0,0,0,0,0h0c1.2,1.6,4.5,1,7.4-1.3,0,0,0,0,0,0l4.3-3.4c2.9-2.3,4.3-5.3,3.1-6.9,0,0,0,0,0,0h0s0,0,0,0c0,0,0,0,0,0ZM419.3,245c-.9-.5-2.6.9-3.9,3.2s-1.6,4.5-.8,5c.9.5,2.6-.9,3.9-3.2h0c1.3-2.3,1.6-4.5.8-5h0ZM408.7,249.6l-2.3,2.5c-.4.5-.4,1.2,0,1.6.2.2.5.3.7.3,1.6,0,2.9.4,3.8,2,.8,1.5,1.9,3,3.2,4.6.4.4.9.8,1.4.9,2.3.7,5,.7,8,0,.4,0,.6-.4.5-.8,0,0,0,0,0,0-.5-1.5-.9-2.4-1.2-2.9-.7-.8-1.9-.9-2.7-.2-.1.1-.3.3-.4.4l-1.3,2c-.2.3-.6.4-.9.2-.1,0-.2-.2-.2-.3l-1.2-3.4c0-.2-.2-.4-.4-.5-2.9-1.7-4.9-3.8-6.1-6.2-.2-.3-.5-.4-.9-.3,0,0-.1,0-.2.1ZM429.1,266.6c-.5,1.1,2.7,3.7,7.2,5.8,4.5,2.1,8.6,2.9,9.1,1.7.5-1.1-2.7-3.7-7.2-5.8-4.5-2.1-8.6-2.9-9.1-1.7ZM406.1,267c-.9.4-1.3,1.7-.8,2.9,0,0,0,0,0,0,.5,1.2,1.7,1.9,2.6,1.5.9-.4,1.3-1.7.8-2.9,0,0,0,0,0,0-.5-1.2-1.7-1.9-2.6-1.5ZM421.2,267.5c-.8.8.8,3.7,3.5,6.4,2.8,2.7,5.7,4.2,6.5,3.4.8-.8-.8-3.7-3.5-6.4-2.8-2.7-5.7-4.2-6.5-3.4ZM414.6,274.1c.1.2.5.4,1,.6,1.1.4,2.1.6,3,.8.3,0,.5-.1.5-.4,0,0,0,0,0-.1-.2-1.5-.5-2.6-1.1-3.4-.5-.7-1.5-1.4-2.9-2-.2-.1-.5,0-.6.2,0,0,0,0,0,.1-.1.8-.1,1.9-.1,3.1,0,.5.1.9.3,1.1Z"/>
    <path d="M140.4,245.6c0,.2-.2.4-.4.5-.1,0-.2,0-.3,0-.4-.5-1.1-.6-1.8-.4-.2,0-.4.2-.6.3l-3.2,2.9c-.2.2-.6.2-.8,0,0,0-.1-.2-.1-.3-.3-3.2,0-7.5,4.7-6.7.4,0,.8.4.9.7.7,1.7,1.2,2.7,1.5,2.8,0,0,.1.1.1.2Z"/>
    <path d="M46.8,252.3l-.6.7c-.3.3-.8.4-1.2.2-3.7-1.7-7.5-2.4-11.2-2-1.1.1-2.1-.7-2.2-1.8v-.2c-.1-1,.6-2,1.7-2.1,0,0,0,0,.1,0,2,0,3.9-.8,5.8-2.2,1.5-1.1,3-1.5,4.5-1.2.3,0,.5.4.4.7,0,.2-.2.3-.4.4l-2.1.7c-.4.1-.5.5-.4.9,0,.1,0,.2.2.3l4.9,4.4c.3.3.8.4,1.3.3,2.7-.7,5.1.2,7,2.9.1.2,0,.4-.1.5-.1,0-.2,0-.4,0l-6.4-2.7c-.3-.1-.6,0-.8.2Z"/>
    <path d="M358.9,249.3v2c-.1.2-.3.3-.5.3,0,0-.1,0-.2,0l-.5-.4s0,0,0,0l.6-2.8c.1-.5-.2-1-.7-1.1-.2,0-.4,0-.6,0l-3,1.4c-.4.2-.6.7-.4,1.1,0,0,0,.2.2.3l2.8,2.8c.1.1.3.1.4,0,0,0,0,0,0-.2.2-.9.7-1.2,1.3-.8.1,0,.2.2.2.4l.4,9.2c0,.5.4.9.9.9.4,0,.7-.2.8-.5l.7-1.5c.1-.3.4-.5.6-.5l4.4-1.2c.3,0,.4-.3.4-.6,0,0,0,0,0,0l-1.4-3.1c-.2-.5,0-1,.5-1.3.2-.1.5-.1.7,0,1.7.6,2.4,2,2.1,4.2,0,.2,0,.3-.2.5-.9,1.6.2,3.7,1.1,4.8.5.6.4,1.4-.2,1.9-.2.1-.3.2-.5.3-2.8.7-5.9.7-9.3,0-.4,0-.8,0-1.1,0-1.9.7-2.8,2-2.9,4,0,1.1.8,1.9,1.9,1.9.4,0,.8-.1,1.1-.4l3.7-2.7c.7-.5,1.6-.3,2.1.3.2.3.3.8.2,1.2-.4,1.9-1.4,4-2.9,6.4-.2.3-.6.5-1,.5-1.4-.1-2.5-.9-3.5-2.3-2.3-3.5-3.5-7-3.4-10.4,0-.8-.6-1.5-1.4-1.5l-11.1-.6c-.5,0-.9-.4-.9-.9,0-.9.2-1.6.6-2.1.3-.3.6-.5,1-.5,4.3-.6,8.4-.6,12.3.1.3,0,.7-.2.7-.5,0,0,0,0,0,0,.1-3.4-.8-5.9-2.7-7.5-.6-.5-.7-1.4-.2-2,.1-.1.2-.2.4-.3,1.7-1,3.4-1.6,4.9-1.9.5,0,.9-.3,1.2-.7,1.5-2.1,3.4-2.3,5.8-.9.2.1.3.3.4.4l1.3,2.9c.2.4,0,.9-.4,1.1-.1,0-.3,0-.4,0l-5.6-.3c-.4,0-.8.3-.8.8,0,0,0,0,0,0ZM355.2,262.6c-.1.5.4,1.1,1.1,1.3h0c.7.2,1.5,0,1.6-.6.1-.5-.4-1.1-1.1-1.3,0,0,0,0,0,0-.7-.2-1.5,0-1.6.6Z"/>
    <path d="M145.1,247.3l-2.3-1.3c-.1,0-.1-.2,0-.3,0,0,.1-.1.2-.1,1.4,0,2.3.5,2.6,1.4,0,.2,0,.4-.2.4,0,0-.2,0-.3,0Z"/>
    <path d="M140.3,247.8c.3,2,1.1,3.2,2.4,3.6.5.1.8.6.8,1.1l-.2,2.7c0,.6.4,1,1,1.1,0,0,0,0,0,0l9.9.5c.7,0,1.2.6,1.1,1.3,0,0,0,0,0,0v.6c0,.4-.4.7-.8.7,0,0,0,0,0,0-2.8-.4-5.4-.2-7.7.4-.3,0-.7.1-1,0l-6.6-.9c-.6,0-1.1-.6-1-1.3,0-.4.3-.8.7-.9.7-.3,1.2-.7,1.6-1.1.2-.3.2-.8-.1-1,0,0,0,0-.1,0l-1.1-.6c-.5-.3-.8-.9-.6-1.4l1.5-4.9c0,0,0-.2.2-.2s.2,0,.2.2h0Z"/>
    <path d="M446,257.4l-.5-.3c-.3-.2-.4-.6-.2-.9,0-.1.2-.2.3-.3l9.3-4.3c.4-.2.8-.6.9-1l.4-1.2c.3-.9,1.2-1.4,2.1-1.1.4.1.7.3.9.7l1.9,2.7c.2.3.6.6,1,.7l6.9,2.1c.6.2.9.8.7,1.3,0,0,0,.1,0,.2l-2.6,4.5c-.2.4,0,.9.3,1.1,0,0,0,0,.1,0,4.2,1.5,6.2-.7,9.5-1.9.7-.3,1.4,0,1.7.8,0,.3.1.6,0,.8-.8,2.8-6.8,4.7-10.4,6.1-1.1.4-2.1.5-3,.2,0,0-.4-.9-1-2.8-.6-1.9-2.2-2.9-4.9-2.8-4.4,0-6.7,0-6.9,0-.5,0-1-.4-1-1,0-.3.1-.6.4-.8,3.1-2.3,7.4-2.4,11.4-2.8.8,0,1.5-.5,2-1.1l.2-.2c.2-.3.2-.8-.2-1-.1,0-.3-.1-.5-.1-2.3.1-4-.2-5.3-.8-.5-.2-1-.3-1.5-.1l-9.7,3.3c-.8.3-1.6.2-2.3-.2Z"/>
    <path d="M181.5,261.5c.3.5.8.6,1.3.3,6.2-3.1,11-2.2,14.4,2.7,5.4,7.9-5.2,17.4-12.7,14.3,0,0-1.3-.5-3.9-1.4-.4-.1-.7-.1-1.1,0l-2.5.7c-.5.1-1-.2-1.1-.6,0,0,0-.2,0-.3l1-17.9c0-.4,0-.9-.2-1.3l-1.9-4.2c-.3-.6,0-1.3.6-1.6.2,0,.3-.1.5-.1h3.7c1.2,0,2.1,1,2.2,2.1,0,0,0,.1,0,.2-.2,3.3-.7,6.5-.2,7.1ZM181.3,266.1v6.7c0,1.6,1.3,2.9,2.9,2.9h3.7c3.3,0,6-2.8,6-6.2h0c0-3.5-2.7-6.3-6-6.3h-3.7c-1.6,0-2.9,1.3-2.9,2.9h0Z"/>
    <path d="M60.2,253.3c0,0,.2-.1.3,0h0c1,.8,1.2,2.3.5,3.3,0,0,0,0,0,0h0c-.8,1.1-2.2,1.3-3.3.5h0c0,0-.1-.2,0-.3l2.7-3.5Z"/>
    <path d="M251.4,258.8c4.5,4.4,4.5,11.8-.2,16.6-4.6,4.8-12.1,5.2-16.6.9-4.5-4.4-4.5-11.8.2-16.6,0,0,0,0,0,0,4.6-4.8,12.1-5.2,16.6-.9ZM243.9,257.8c-3.7-.3-7,3.7-7.4,9.1,0,0,0,0,0,0-.4,5.3,2.2,9.9,5.8,10.2h0c3.7.3,7-3.7,7.4-9.1t0,0c.4-5.3-2.2-9.9-5.8-10.2h0Z"/>
    <path d="M377.2,260.3c.4-.3.9-.2,1.5.1.2.1.3.4.2.7l-.2.4c-.1.3-.4.4-.7.3,0,0,0,0,0,0-1.4-.8-3.1-1.1-5.1-.9-.6,0-1.2-.4-1.2-1,0,0,0-.1,0-.2v-.4c0-.6.5-1,1.1-1.1,2.3-.2,3.6.4,3.9,1.9,0,.2.3.3.5.3,0,0,0,0,.1,0Z"/>
    <ellipse cx="22.3" cy="260.3" rx=".8" ry="1.2" transform="translate(-164 77.2) rotate(-40.6)"/>
    <path d="M136.2,262.7c0,0,0-.2,0-.2h0c1-1.3,2.8-1.5,4.1-.5l.3.2c1.3,1,1.5,2.8.6,4h0c0,.1-.2.1-.2,0h0l-4.7-3.6Z"/>
    <path d="M210.5,273.3c2.7-3.4,3.9-6.8,3.8-9.9,0-.5.4-.9.9-1,0,0,0,0,0,0l5.4.3c.3,0,.5.3.5.5,0,.1,0,.2-.1.3-2.9,3.4-5.9,7.9-9,13.6-2.1,3.7-7.3,11.2-12.1,7.5-.7-.6-.9-1.6-.3-2.4.4-.5,1.1-.8,1.8-.6,2.3.6,4.3-.5,5.8-3.2.3-.5.3-1.1,0-1.7l-6.2-13.6c-.2-.5,0-1.2.5-1.4.2,0,.3-.1.5,0l4.1.2c.7,0,1.2.6,1.2,1.3,0,0,0,0,0,.1-.6,3.4.2,6.7,2.2,9.9.2.3.5.4.8.2,0,0,.1,0,.1-.1Z"/>
    <path d="M289.8,275.8v.2c0,1-.4,1.9-1.3,2.4-3.3,1.9-6.4,1.9-9.2.1-4.2-2.7-5.1-7.7-2.3-11.7,2.7-3.8,6.8-5.1,12.3-4.1,2.3.4,2.5,2.2,2,4.2-.3,1-1.4,1.5-2.4,1.2-.4-.1-.8-.4-1.1-.8-.2-.3-.4-.6-.6-1.1-.5-1.1-1.7-1.6-2.8-1.1-.1,0-.2.1-.3.2-3.1,2-4.2,4.8-3.3,8.4.8,3.3,3.2,3.7,7.4,1.4.5-.3,1.2,0,1.5.4,0,.1.1.3.1.4Z"/>
    <path d="M304,269c.2-1.2.3-1.9.3-2.3-.1-1.1-1.2-1.7-2.5-1.5-.4,0-.7.2-1,.4-1.7,1.1-3.2,1.7-4.7,1.9-.6,0-1.2-.4-1.3-1,0-.3,0-.6.3-.9,3.4-3.8,10.6-5.2,13.8,0,.6.9.7,2.6.4,5.1-.3,2.8,0,5.4,1,7.8.3.6,0,1.2-.6,1.5-.3.1-.6.1-.9,0l-4.1-1.7c-.5-.2-1.1-.2-1.6.1-2.7,1.7-5.2,1.9-7.4.5-2.7-1.7-3.4-5.1-.4-7.1,2.6-1.7,5.2-2.5,7.8-2.3.4,0,.7-.2.8-.6ZM303.3,271.5l-5.6,3c-.1,0-.2.3-.1.4,0,0,0,0,0,0l.2.4c.9,1.7,3,2.4,4.7,1.5h0c1.7-.9,2.3-3,1.4-4.8,0,0,0,0,0,0l-.2-.4c0-.1-.3-.2-.4-.1,0,0,0,0,0,0Z"/>
    <path d="M258.8,274.7l4.2,2.4c1.2.7,2.8.6,4-.2l.2-.2c.8-.6.9-1.7.3-2.5-.2-.2-.3-.4-.6-.5l-7.3-3.9c-.3-.2-.6-.5-.7-.9-2.6-6.8,9.6-6.7,13.3-6.1.3,0,.6.4.6.7l-.2,3c0,.4-.3.7-.7.7,0,0,0,0,0,0-1.4-.3-2.6-1-3.7-2.3-.2-.3-.5-.5-.9-.5-1.9-.5-3.5,0-4.6,1.5-.3.4-.3,1,.1,1.3,0,0,0,0,.1,0l8.5,4.9c.9.5,1.3,1.6.9,2.5-.8,2.2-2.1,3.5-3.8,3.9-2.3.5-5.5.6-9.8.3-1,0-1.8-1-1.7-2v-1.3c.1-.6.6-1.1,1.3-1.1.2,0,.4,0,.5.2Z"/>
    <path d="M328.5,267.8l-4.8-1.6c-.7-.2-1.4,0-1.7.7-1.2,2.8-1.9,5.5-1.9,8.1,0,.3.1.7.3,1l1.5,2.2c.3.4.2,1-.3,1.3-.2.1-.4.2-.6.2l-6.1-.3c-.4,0-.7-.4-.7-.8,0,0,0-.2,0-.2,1.9-4.4,2.1-9.1.6-14-.2-.6.2-1.2.7-1.4.2,0,.4,0,.6,0l4.6,1.4c.3,0,.5,0,.8,0,2.4-1,4.7-1.9,6.9-1,.3.1.6.4.7.8.5,1.6.6,2.6.4,3.1-.2.5-.7.7-1.2.6Z"/>
    <path d="M140,268.7c-.1.9-.6,1.8-1.5,2.9-3.2,4-8.5-.2-6.6-3.7.4-.8,1.4-1.2,2.2-.8.1,0,.2.1.3.2,1.4,1.3,3.1,1.6,5.1.9.2,0,.4,0,.5.3,0,0,0,.1,0,.2Z"/>
  </g>
</svg>