<?xml version="1.0" encoding="UTF-8"?>
<svg id="Layer_4" xmlns="http://www.w3.org/2000/svg" version="1.1" viewBox="0 0 600 600">
  <!-- Generator: Adobe Illustrator 29.3.1, SVG Export Plug-In . SVG Version: 2.1.0 Build 151)  -->
  <defs>
    <style>
      .st0 {
        fill: #381d05;
      }

      .st1 {
        fill: #7bc5b8;
      }
    </style>
  </defs>
  <rect class="st1" x=".5" y=".5" width="600" height="600"/>
  <g>
    <g>
      <path class="st0" d="M303.5,180s0,0-.1-.1l-4.3-6.9s0,0,0-.1c0,0,0,0,0,0,0,0,0,0,0,0,0,0,0,0,0,0,0,0,0,0,0,0,0,0,0,0,0,0,0,0,0,0,0,0,0,0,0,0,0,0,0,0,0,0,0,0,0,0,0,0,0,0,0,0,0,0,0,.1-.4,1.3-.9,2.5-1.6,3.7-1.4,2.2-3.5,5.5-6.5,9.8-1.7,2.4-2.9,6-2,9,.7,2.3,2,4.4,3.5,6.1,1.6,1.9,4.1,4.5,7.3,8.1.4.4,1,.5,1.5.2.9-.5,1.7-1.3,2.6-2.2,2.9-3.2,5.3-5.8,7.7-9.6.3-.4.5-.9.5-1.4.4-2.7.4-5,0-6.9-.9-3.8-4.8-6.7-7.9-9.8Z"/>
      <path class="st0" d="M276.8,200.5c-6.3,2.7-11.9,7.6-18.2,10.9,0,0,0,0,0,0,0,0,0,0,0,0,0,0,0,0,0,0s0,0,0,0c0,0,0,0,0,0,0,0,0,0,0,0,0,0,0,0,0,0,0,0,0,0,0,0,0,0,0,0,0,0,0,0,0,0,0,0,0,0,0,0,.1,0,6.1,2.7,11.8,5.9,17.2,9.5,1.5,1,3.2.9,4.9.8,5.8-.3,11.8-6.2,14.9-10.9.1-.2.1-.5,0-.7-2.6-3.7-5.6-6.8-9.1-9.2-3-2.1-6.3-2.4-9.7-1Z"/>
      <path class="st0" d="M342,211.6s0,0,0,0c0,0,0,0,0,0,0,0,0,0,0,0-6.4-3.3-11.9-8.2-18.2-10.9-3.4-1.5-6.6-1.2-9.7.9-3.5,2.4-6.6,5.5-9.2,9.2-.1.2-.2.5,0,.7,3.1,4.7,9.2,10.6,15,10.9,1.7,0,3.4.2,4.9-.8,5.4-3.6,11.1-6.8,17.2-9.5,0,0,0,0,.1,0,0,0,0,0,0,0,0,0,0,0,0,0,0,0,0,0,0,0,0,0,0,0,0,0,0,0,0,0,0,0,0,0,0,0,0,0,0,0,0,0,0,0Z"/>
      <path class="st0" d="M406.8,221.1s0,0,0,0c0,0,0,0,0,0,0,0,0,0,0,0,0,0,0,0,0,0,0,0,0,0,0,0-2.7-.2-4.5.5-6.5,2.1-1.2.9-2.6,1.3-4.3,1.1-.5,0-1-.3-1.3-.7l-.7-.9c0,0,0,0-.1-.1,0,0,0,0,0,0,0,0,0,0,0,0,0,0,0,0,0,0,0,0,0,0-.1,0,0,0,0,0-.1,0,0,0,0,0,0,0,0,0,0,0,0,0,0,0,0,0,0,0,0,0,0,0,0,0,0,0,0,.1,0,.2-.7,2.2-2.8,6.9-5.9,5.5-.5-.2-.9-.2-1.4.1-.9.7-1.8,1.2-2.5,1.5-.2,0-.4.1-.7.1h-2.7c-.1.1-.3.2-.4.2-.4.3-.8.6-1,1.1-1.5,3.2-2.7,5.6-5.2,8-1.9,1.7-4.9,2.6-7.3,1.4-.5-.3-1.3-.6-2.1-1,0,0,0,0,0,0,0,0,0,0,0,0,0,0,0,0,0,0,0,0,0,0,0,0,0,0,0,0,0,0,0,0,0,0,0,0,0,0,0,0,0,0,0,0,0,0,0,0,0,0,0,0,0,0,.3,1.6,2.3,3.1,3.6,3.6,1.3.5,2.6.4,4.4.5.4,0,.7.1,1,.3l.6.4c.2.1.5.1.7,0l4.2-2.4c.2-.1.4-.3.5-.5.7-1.3,1.4-2.9,2.9-2.4.2,0,.3.2.3.4l.2,2.1c0,.2.1.3.3.3,1.5.3,3.2-.9,4.2-1.9,1.5-1.6.5-4.5.5-5.9,0-2.1,1.3-3.2,3-3.8,1.4-.5,4,.2,4.2,1.9.3,1.5,0,2.4-1.3,3.8-1,1.1-1.3,2.4-1,3.9.3,1.6,1.5,1.4,2.6,1.7.2,0,.4.2.5.5.7,2.1,1.7,4,4,4.4,0,0,0,0,.1,0,0,0,0,0,0,0,0,0,0,0,.1,0,0,0,0,0,0,0,0,0,0,0,0,0,0,0,0,0,0,0,0,0,0,0,0,0,0,0,0,0,0-.1,0,0,0,0,0-.1-.3-1.3-1.2-2.8-1.3-4.3-.3-7.5,7.9-9.5,13.6-10.1,2.1-.2,4.3-.2,6.6-.7,1.6-.4,2.6-.7,3-.9,2.8-1.6,4.2-4.2,4.3-7.8,0-.9-.3-1.8-.8-2.7-1.1-1.8-2.6-2.5-4.6-2.1-1.5.3-2.3,1.3-2.9,2.6,0,0,0,0,0,0,0,0,0,0,0,0,0,0,0,0,0,0,0,0,0,0,0,0,0,0,0,0,0,0,0,0,0,0,0,0,0,0,0,0,0,0,0,0,0,0,0,0,0,0,0,0,0,0,.6-.5,1.3-.7,2.3-.6.1,0,.3.1.3.3l.4,1.6c0,.2.2.4.3.5.1.1.6.3,1.4.6,1.9.7,2.4,1.8,1.4,3.4-.7,1.2-1.4,2-2.2,2.4-3.9,2.1-9.4,1.8-12.4-2-.3-.3-.4-.8-.3-1.2,1.2-6.1-1.8-9.6-7.9-10.1-3.6-.3-7,.4-10.3,2.1-2.8,1.5-5.6,3.2-8.3,5.2-1.8,1.3-4.6,2.4-6.8,1.4-1.3-.6-2.4-1.6-3.2-2.9,0,0,0,0,0,0,0,0,0,0,0,0,0,0,0,0,0,0,0,0,0,0,0,0,0,0,0,0,0,0,0,0,0,0,0,0,0,0,0,0,0,0,0,0,0,0,0,0,0,0,0,0,0,0,0,0,0,0,0,0,0,0,0,0,0,0,0,2.1.7,3.8,2.2,5.2.9.8,2.9,1.2,3.4,2.5,0,.2.2.3.4.2.1,0,.4-.1.6-.3.9-.6,2.5,0,3.7-.5,1.2-.5,2.1-1.9,2.8-3.1,0,0,0,0,0,0,0,0,0,0,0,0,0,0,0,0,0,0,0,0,0,0,0,0,0,0,0,0,.1,0,0,0,0,0,.1,0,0,0,0,0,.1,0,0,0,0,0,.1,0,0,0,.1,0,.2,0,.8.8,1.3,2.2,2.7,1.2,2.1-1.5,2.9-3.1,4-5.7.3-.7.9-1.2,1.8-1.4,0,0,0,0,.1,0,0,0,0,0,0,0,0,0,0,0,.1,0,0,0,0,0,0,0,0,0,0,0,0,0,0,0,0,0,0,0,0,0,0,0,0,0,0,0,0,0,0,0,0,0,0,.1,0,.2,0,1-.3,2.9,1,3.2,0,0,.1,0,.2,0l2.4-1.1c.2,0,.4-.2.5-.3,2.4-1.7,5.5-3.7,7.5-.9,0,0,0,0,0,0,0,0,0,0,0,0,0,0,0,0,0,0,0,0,0,0,0,0,0,0,0,0,0,0,0,0,0,0,0,0ZM405.1,227.3s0,0,0,.1c0,.1-.2.2-.3.4,0,0,0,0,0,0,0,0-.2.2-.3.2-.2.2-.4.3-.7.4-.1,0-.2.1-.4.2,0,0-.1,0-.2,0-.4.1-.8.2-1.2.2-.2,0-.4,0-.6,0,0,0-.2,0-.3,0-.1,0-.2,0-.3-.1-.6-.2-1.1-.7-1.3-1.3,0-.2,0-.3,0-.5,0-.1,0-.3,0-.4,0-.2,0-.3.2-.5.3-.8,1.1-1.4,2.2-1.7,1.6-.5,3.3,0,3.7,1.3h0c0,.2,0,.3,0,.5,0,.4-.1.9-.4,1.3Z"/>
      <path class="st0" d="M311.5,226.6s0,0,.1,0c0,0,0,0,0,0,0,0,0,0,0,0,0,0,0,0,0,0,0,0,0,0,0,0,0,0,0,0,0,0,0,0,0,0,0,0,0,0,0,0,0-.1,0,0,0-.1,0-.2-.8-2.2-2.3-3.4-4.5-3.5-1.1,0-1.7-.1-1.9-.2-.2,0-.3-.2-.4-.3-.9-1.9-2.3-3.7-4.2-5.6-.2-.2-.6-.2-.8,0-1.7,1.6-2.9,3.3-3.8,5.1-.3.5-.8.8-1.3.9-2.2.2-3.9.1-5.2,2.1-1.2,1.7,1.8,2.2,3.3,2.6.2,0,.4.2.6.3,3.9,2.5,5,7.7,6.2,11.8.4,1.3.6,2.7.7,4.1,0,0,0,0,0,0,0,0,0,0,0,0,0,0,0,0,0,0,0,0,0,0,0,0,0,0,0,0,0,0,0,0,0,0,0,0,0,0,0,0,0,0,.6-1.4,1-2.6,1.2-3.9.6-2.9,1.2-4.3,2.3-7.4.7-2.1,2.8-5,5.1-5.2.8,0,1.6-.2,2.2-.2Z"/>
      <path class="st0" d="M178.3,224.5l2.5-.6c.2,0,.4-.2.4-.4l.5-1.9c0-.2.3-.4.5-.3.8.2,1.5.5,2,.9,0,0,0,0,.1,0,0,0,0,0,0,0,0,0,0,0,0,0,0,0,0,0,0,0,0,0,0,0,0,0,0,0,0,0,0,0,0,0,0,0,0-.1-.9-2.3-2.6-3.3-4.9-2.9-.2,0-.4,0-.5.2-1.6,1-2.6,2.4-2.9,4.3-.4,1.9-.2,3.4.4,4.5,1.3,2.3,3.2,3.9,6,4.6,2.4.6,3.6,1,5.5,1,2.2,0,5.1-.3,7.3.6,1.9.7,3.5,1.4,4.7,2.2,2.8,1.7,3.8,5.2,3.5,8.6,0,0,0,.2,0,.2l-1.2,2.9c0,0,0,.1,0,.2,0,0,0,0,0,0,0,0,0,0,0,0,0,0,0,0,0,.1,0,0,0,0,0,0,0,0,0,0,0,0,0,0,0,0,0,0,0,0,0,0,0,0,0,0,.1,0,.2,0,2.4,0,3.7-2.4,4.3-4.4.2-.5.6-.8,1.1-.8,1.2,0,2-.4,2.1-1.3.5-2.2-.6-3.7-1.7-5.2-2-2.8-.5-5.2,2.8-5.3,2.7,0,3.6,2.8,3.6,5.1,0,3.4-.2,4.8,2.9,6.5.6.3,1.1.4,1.7.4.3,0,.5-.3.5-.6,0-1,0-3,1.6-2.4.2,0,.3.2.4.3.8,1.3,1.9,2.9,3.1,3.4,1.4.5,2.7,1.1,3.9,1.8,0,0,0,0,.1,0,0,0,0,0,0,0,0,0,0,0,0,0,0,0,0,0,0,0,0,0,0,0,0,0,0,0,0,0,0,0,0,0,0,0,0,0,0,0,0,0,0,0,0,0,0,0,0,0,0,0,0,0,0,0,0,0,0,0,0,0,0,0,0,0,0,0,0,0,0,0,0,0,0,0,0,0,0,0,0,0,0,0,0,0,0,0,0,0,0,0,0,0,0,0,0-.1.2-.8.8-1.1,1.7-1.1,2.7,0,6.2-.8,6.9-3.7,0,0,0,0,0,0,0,0,0,0,0,0,0,0,0,0,0,0,0,0,0,0,0,0,0,0,0,0,0,0,0,0,0,0,0,0,0,0,0,0,0,0,0,0,0,0,0,0,0,0,0,0,0,0-.2,0-.4,0-.6.2-1.4,1.1-3,1.6-4.9,1.4-3.4-.4-6.4-3.8-7.8-6.9-.9-2-1.8-3.8-3.9-4-1.5-.2-2.8-.6-3.8-1.1,0,0,0,0-.1,0l-1.9-1.6c-.3-.3-.4-.7-.3-1.1h0c0,0,0-.1.1-.2,0,0,0,0,0,0,0,0,0,0,.1,0,0,0,0,0,0,0,0,0,0,0,.1,0,0,0,0,0,.1,0,0,0,0,0,0,0,0,0,0,0,.1,0,0,0,.1,0,.2.1,1,1.1,2.6,3.2,4.1,3.2,1.9,0,3.2,0,3.6,0,.2,0,.4,0,.5-.2.6-.5,1.2-1.1,2.1-1.8,2.2-1.4,3.3-3.5,3.5-6.2,0,0,0,0,0-.1,0,0,0,0,0,0,0,0,0,0,0,0,0,0,0,0,0,0,0,0,0,0,0,0,0,0,0,0,0,0,0,0,0,0,0,0,0,0,0,0,0,0,0,0,0,0,0,0,0,0,0,0,0,0,0,0,0,0,0,0-.7.7-1.6,2.1-2.4,2.5-2,.9-4,.8-6.1-.3-1.2-.7-3.9-2.3-8-4.9-2.8-1.7-6.9-3.1-10.3-2.5-2,.3-3.2.5-3.5.6-5.1,1.6-7.3,5-6.6,10.4,0,.2,0,.5-.2.7-1.4,2-3.4,3-5.9,3-2.1,0-3.6-.1-4.4-.3-1.7-.4-4.4-2.4-4.3-4.5,0-1,.2-1.6.6-2,0,0,0,0,.1,0ZM201.2,229.9c-2.2,1.3-3.8-1-4.8-2.6-.2-.4-.2-.8.1-1.1,1.7-1.7,4.3-1.9,5.8.2.1.1.2.3.2.5,0,1.4-.4,2.4-1.3,2.9ZM193.7,222.9s0,0,0,0c0,0,0,0,0,0,0,0,0,0,0,0,1.9-2.1,3.9-2.5,6-1.3,2.3,1.3,4.9,3.1,5.9,2.9.3,0,.6-.4.6-.7v-2.7c0-.2.1-.3.3-.3,2.1,0,3.3,2.8,4.1,4.4,0,.2.2.3.3.5.9,1.2,2.1,2.8,3.2,3.1,0,0,0,0,.1,0,0,0,0,0,0,0,0,0,0,0,0,0,0,0,0,0,0,0,0,0,0,0,0,0,0,0,0,0,0,0,0,0,0,0,0,0,0,0,0,0,0,0,0,0,0,0,0,0,0,0,0,0,0,0,0,0,0,0,0,0,0,0,0,0,0,0,0,0,0,0,0,0,0,0,0,0,0,0,0,0,0,0,0,0,0,0,0,0,0,0,0,0,0,0,0,0,0,0,0,0,0,0,0,0,0,0,0,0,0,0,0,0,0,0,0,0,0,0,0,0,0,0,0,0,0,0,0,0,0,0-.1,0-1.2.5-2.7-1-3.2-1.9-.3-.6-1-2.1-2.1-4.4-.1-.2-.4-.3-.6-.2-.3.1-.6.3-.9.6-.9,1.2-2.6,1.4-4.1.9-.2,0-.3-.1-.5-.2l-2.7-2.1c0,0-.2-.1-.3-.1-1.8-.7-4.3-.9-5.7.6,0,0,0,0-.1,0h-.2c0-.1,0-.1,0-.1,0,0,0,0,0,0,0,0,0,0,0,0,0,0,0,0,0,0,0,0,0,0,0,0,0,0,0,0,0,0Z"/>
      <path class="st0" d="M346.6,247.4s0,0,0,0c0,0,0,0,0,0,0,0,0,0,0,0,0,0,0,0,0,0,0,0,0,0,0,0,0,0,0,0,0,0,0,0,0,0,0,0,0,0,0,0,0,0,0,0,0,0,0,0,0,0,0,0,0,0,1.3-1.4,2.1-2.9,2.4-4.5.3-1.6.3-3.3.2-5.1-.5-6.4-5.2-10.5-11.3-12.4-6.5-2-13.4-1.2-19.4,2.1-1.8,1-4.4,2.6-5.8,4-4.6,4.5-7.4,12.5-7.7,19.1,0,.2,0,.4.1.6,0,0,0,0,0,0,0,0,0,0,0,0,0,0,0,0,0,0,0,0,0,0,0,0,0,0,0,0,0,0,0,0,0,0,0,0,0,0,0,0,0,0,0,0,0,0,0,0,0,0,0,0,0,0,0,0,0,0,0,0,0,0,0,0,0-.1.8-1.9.9-4.4,1.8-6.5,1-2.6,2-4.7,3-6.4,2.8-4.7,7.6-8.6,13.2-9.4,5.2-.7,7.4,2.6,9.5,6.6.7,1.3,1.6,2,3,2.5,3.6,1.4,3.5-3.4,3-5.4,0,0,0,0,0-.1,0,0,0,0,0,0,0,0,0,0,0,0,0,0,0,0,0,0,0,0,0,0,0,0,0,0,0,0,0,0s0,0,0,0c0,0,0,0,0,0,0,0,0,0,0,0,0,0,0,0,0,0,0,0,0,0,.1,0,.5.4.8.7,1,.9,2.1,2.3,3.6,3.9,4.3,4.7,2.5,2.9,2.2,6,1.4,9.4,0,0,0,0,0,0Z"/>
      <path class="st0" d="M252.2,237.9c-.5,3.3,0,6.3,1.9,9.1,0,0,0,0,0,0,0,0,0,0,0,0,0,0,0,0,0,0,0,0,0,0,0,0,0,0,0,0,0,0,0,0,0,0,0,0,0,0,0,0,0,0,0,0,0,0,0,0,0,0,0,0,0,0,0,0,0,0,0,0,0,0,0,0,0,0,0,0,0,0,0,0,0,0,0,0,0,0,0,0,0,0,0,0,0,0,0,0,0-.1-.7-3.1-.4-7.2,2-9.6,2.8-2.8,4.3-4.4,4.7-4.6,0,0,0,0,.1,0,0,0,0,0,0,0,0,0,0,0,.1,0,0,0,0,0,0,0,0,0,0,0,0,0,0,0,0,0,0,0,0,0,0,0,0,0,0,0,0,0,0,0,0,0,0,0,0,.1,0,0,0,0,0,0,0,0,0,0,0,.1-.3,1.5-.6,2.6,0,4.1.5,1.3,1.4,1.7,2.6,1.4,1.7-.5,3.1-1.7,4-3.4,1.8-3.4,4.1-6.8,8.5-6.3,3.7.4,6.5,2.2,9.6,4.5,5,3.9,8.3,11.8,9.5,18,0,0,0,0,0,.1,0,0,0,0,0,0,0,0,0,0,0,0,0,0,0,0,0,0,0,0,0,0,0,0,0,0,0,0,0,0,0,0,0,0,0,0,0,0,0,0,0,0,0,0,0,0,.1,0,0,0,.1-.2.1-.3.5-3.3-1.1-7.7-2.6-11.3-1.1-2.7-2.6-5-4.3-6.8-4.6-4.9-10.2-7.6-16.8-8.3-1.8-.2-3.4-.1-4.9,0-4.1.6-7.1,1.6-10.5,4-3.1,2.2-5,5.8-5.5,9.2Z"/>
      <path class="st0" d="M402.2,225.7c-.4.3-.6.8-.4,1.1,0,.1.2.2.4.2.1,0,.3,0,.5,0,.1,0,.2,0,.3-.2s.1,0,.1-.1c0,0,.1-.1.2-.2,0-.1.1-.3.2-.4,0-.2,0-.3,0-.4-.2-.3-.8-.3-1.2,0Z"/>
      <path class="st0" d="M244.4,261c-3.8-3.6-7.1-7.7-9.8-12.3-.5-.9-1.2-1.6-2.1-2.2-.9-.6-1.6-.3-2.1,1,0,0,0,0,0,0,0,0,0,0,0,0,0,0,0,0,0,0,0,0,0,0,0,0,0,0,0,0,0,0,0,0,0,0,0,0,0,0,0,0,0,0,0,0,0,0,0,0,0,0,0,0-.1,0-.8-.4-1.7-.6-2.6-.6-2.3-.2-2.7-1.1-4.2-2.5,0,0-.1-.1-.2-.1,0,0,0,0,0,0,0,0,0,0,0,0,0,0,0,0,0,0,0,0,0,0,0,0,0,0,0,0,0,0,0,0,0,0,0,0,0,0,0,0,0,0,0,0,0,0,0,0,0,0,0,0,0,0,0,0,0,0,0,0,0,0,0,0,0,0,0,0,0,0,0,0,0,0,0,0,0,0,0,0,0,0,0,0,0,0,0,0,0,0,0,0-.1.1-.1.2l-.4.9s0,0,0,.1c0,0,0,0,0,0,0,0,0,0,0,0,0,0,0,0,0,0,0,0,0,0,0,0,0,0,0,0,0,0,0,0,0,0,0,0,0,0,0,0,0,0,0,0,0,0,0,0,0,0,0,0,0,0,0,0,0,0,0,0,0,0,0,0,0,0,0,0,0,0,0,0,0,0,0,0,0,0,0,0,0,0,0,0,0,0,0,0-.1,0,0,0-.1,0-.2,0-1.1-.7-1.9-1.2-2.5-1.5-2.6-1.2-3.9-2.5-3.9-5.4,0-1.6,0-2.6,0-3,0-1.5-.3-3.1-2-3.1-3.3,0-1.7,3.2-.8,5,.2.3.3.6.4.9.8,2.2,1.3,3.5,1.5,3.8,3.5,5.6,6.9,10.4,10.3,14.3,1.4,1.6,3.9,4,7.4,7.3,1.2,1.2,3.1,2.2,4.6,3.3,1,.7,2.2,1.4,3.6,2.1,3.3,1.6,6.3,3,9.1,4.1,9.1,3.7,18.2,4.1,27.3,1.4,5.1-1.5,9-3.9,12.3-7.8,1.3-1.6,1.8-3.4,2.6-5.4.3-.8.9-1.2,1.8-1.2,6.8,0,13.3,0,19.5.3.4,0,.8.3,1,.7.5,1.3.8,2.3,1,2.9,2.5,6.5,8.7,9.4,15.2,11.2,3.7,1,7.3,1.4,10.7,1.2,2.6-.2,6.1-.8,10.4-1.9,3.2-.8,6.5-2,10-3.6,1.9-.9,4.7-2.5,8.5-4.9,2-1.3,3.7-2.6,5-3.9,2.8-2.6,4.3-4.1,4.6-4.5,4.1-4.6,8.3-11.9,10.7-15.6.7-1,1.2-2.1,1.7-3.2.7-1.8,1.9-3.4,2.6-5.9,0-.2,0-.3,0-.5-.4-1.2-1.9-1.8-2.8-.8-.7.7-1.1,1.6-1.4,2.7-.3,1,0,2.3.1,3.3,0,.2,0,.4,0,.5-1,3.2-2.4,3.8-5.2,5.7-.6.4-1.2.5-1.7.2-.2,0-.3-.2-.4-.4l-.6-1.1c0,0-.1-.1-.2-.2,0,0,0,0,0,0,0,0-.1,0-.2-.1,0,0,0,0,0,0,0,0,0,0,0,0,0,0,0,0,0,0,0,0,0,0,0,0,0,0,0,0,0,0,0,0,0,0,0,0,0,0,0,0,0,0,0,0,0,0,0,0,0,0,0,0,0,0,0,0,0,0,0,0,0,0,0,0,0,0,0,0-.1,0-.2.2,0,0,0,0,0,0,0,0,0,.1-.1.2-.4,1.4-1.3,1.9-2.8,2.2-1.5.3-2.7.7-3.6,1-.2,0-.4,0-.6,0-.6-.3-.8-1-1.5-1.1-.6-.1-1.1,0-1.4.5-1.5,2.2-3.3,5.4-5.4,8.1-1.6,2-2.6,3.2-3,3.5-3.6,3.4-7.4,6.1-11.3,8-1.9.9-3.8,1.5-6,2.4-1.6.7-3.8,1.1-5.5,1.4-3.8.7-8.3.7-12.2-.5-1.7-.5-2.6-.9-2.9-1.1-4.6-2.5-6.6-6.4-6.1-11.8.2-1.8,1.3-3.4,3.2-3.5.1,0,.2,0,.3.2.1.8-.2,2,0,3,.7,3.6,5.2,4.9,8.3,4.3,2-.4,3.6-1.4,4.6-3.1,2.1-3.5,1.6-7.4-.9-10.5-2.5-3.1-5.7-3.7-9.5-3.5-1.6,0-3.1.6-4.6,1.6-2.9,1.9-4.8,4.7-5.5,8.2-.1.7-.5,1.1-1.1,1.1-5.3,0-12.1,0-20.4,0-.5,0-.9-.3-1.1-.8-.4-1.1-.7-1.9-.9-2.4-3-7.4-10.3-10-17.3-5.8-3.5,2.1-4.5,6.7-3.2,10.4,1.4,4,5.6,6,9.5,4.5,3.5-1.3,4.1-3.7,3.6-7.1,0,0,0,0,0-.1,0,0,0,0,0,0,0,0,0,0,0-.1,0,0,0,0,0,0,0,0,0,0,0,0,0,0,0,0,0,0,0,0,0,0,0,0,0,0,0,0,.1,0,0,0,.1,0,.2,0,.9.2,1.5.7,2,1.3,1.3,1.8,1.7,3.8,1.2,5.8-1.3,4.7-4.7,7.7-9.2,9.5-1.7.7-3.7,1-6.1,1.1-2.7,0-5.2-.1-7.5-.5-4.9-.9-8.8-2.4-13-5.4-3-2.1-4.7-3.3-5.1-3.7Z"/>
      <path class="st0" d="M263.7,244.1s0,0,0,0c0,0,0,0,0,0,0,0,0,0,0,0,0,0,0,0,0,0,0,0,0,0,0,0,0,0,0,0,0,0,0,0,0,0,0,0,0,0,0,0,0,0h2s0,0,0,0c0,0,0,0,0,0,0,0,0,0,0,0,0,0,0,0,0,0,0,0,0,0,0,0,0,0,0,0,0,0,0,0,0,0,0,0,0,0,0,0,0,0,0,0,0,0,0,0h0c0-.6-.5-1.1-1.1-1.1h-.2s0,0-.1,0c0,0,0,0-.1,0,0,0,0,0,0,0,0,0,0,0-.1,0,0,0,0,0,0,0,0,0,0,0,0,0,0,0,0,0,0,0,0,0,0,0,0,0,0,0,0,0,0,0,0,0,0,0,0,0,0,0,0,0,0,0,0,0,0,0,0,0,0,0,0,0,0,0,0,0,0,0,0,0,0,0,0,0,0,.1,0,0,0,0,0,.1h0Z"/>
      <path class="st0" d="M424.8,284.6l.9-.4c.4-.2.7-.4,1-.7.3-.3,1.2-1.2,2.8-3,1.5-1.6,2.1-3.4,1.8-5.5-.5-3.7-2.4-6.4-5.4-8-.3-.1-.6-.2-.9-.2h-3.9c-.4,0-.7.1-1,.3-2.5,1.8-3.8,2.8-3.3,6,0,.2.1.4.3.6,1.4,1.6,3.2,2.2,5.3,1.7,0,0,.1,0,.2,0,0,0,0,0,0,0,0,0,0,0,0,0,0,0,0,0,0,0,0,0,0,0,0,0,0,0,0,0,0,0,0,0,0,0,0,0,0,0,0,0,0,0,0,0,0,0,0,0,0,0,0,0,0,0,0,0,0,0,0,0,0,0,0,0,0,0,0,0,0,0,0,0,0,0,0,0,0,0,0,0,0,0,0-.1,0,0,0,0,0,0,0,0,0-.1,0-.2,0-.1-.3-.5-.7-1.1-.8-1.3-.2-2.7,1.2-3.3,1.3-.6,2.6-.4,4,.4,2,1.2.1,2.6-.8,3.5,0,0-.1.1-.1.2,0,0,0,0,0,0,0,0,0,0,0,0,0,0,0,0,0,0,0,0,0,0,0,0,0,0,0,0,0,0,0,0,0,0,0,0,0,0,0,0,0,0,0,0,0,0,0,0,0,0,0,0,0,0,0,0,0,0,0,0,0,0,0,0,0,0,0,0,0,0,0,0,0,0,0,0,0,0,0,0,0,0,0,0,0,0,0,0,0,0,0,0,.1.1.2.1,1.8.8,2.3,2.2,1.7,4.2-.8,2.5-2.6,4.7-5.5,4.1-.2,0-.3-.2-.3-.3,0-.7.5-1.6.3-2.3-.2-1.2-.9-1.8-2.2-2-1.6-.2-1.6,1.6-1.8,2.7,0,.2-.2.4-.4.5-1.2.7-2.2,1-3.1,1-1.9-.2-3.6-1-5.2-2.4-.5-.5-1.3-1-1.6-1.5,0-.1-.1-.2-.1-.3h0s0,0,0,0c0,0,0-.1,0-.2,0,0,0,0,0,0,0,0,0,0,0,0,0,0,0,0,0,0,0,0,0,0,0,0,0,0,0,0,0,0,0,0,0,0,0,0,0,0,0,0,0,0,0,0,0,0,0,0,0,0,0,0,.1-.1,0,0,0,0,0,0,0,0,.1,0,.2,0,0,0,.1,0,.2,0,1.5-.3,2.5-.9,3-2.1.5-1.3.7-2.4.4-3.3,0-.3-.3-.5-.5-.7l-.6-.4c-.1,0-.2-.2-.2-.4,0-.6.2-1,.9-1.3,2.3-.9,4.1-1.7,6-3.4,1.9-1.6,3.5-3.3,5-5.2.3-.3.4-.7.4-1.1v-2c.1,0,.1-.1.1-.2.4-1.3.5-2.2.3-2.7-.4-1.2-.7-2.4-1.1-3.5-.6-2-4.9-5.4-6.8-5.6-3.8-.4-6.9.6-9.2,3.8-2,2.7-1.4,5.8,1.2,7.8.6.5,1.3.7,1.9.6,1-.1,4.9-1.8,3.1-3.4-1-.9-3.1-2.6-2.4-3.9.8-1.7,2.4-3.2,4.5-3.2,0,0,.2,0,.3,0,0,0,0,0,0,0,0,0,0,0,0,0,0,0,0,0,.1,0,0,0,0,0,0,0,0,0,0,0,0,0,0,0,0,0,0,0,0,0,0,0,0,0,0,0,0,0,0,0,0,0,0,0,0,0,0,0,0,0,0,0,0,0,0,0,0,0,0,0,0,0,0,0,0,0,0,0,0,0,0,0,0,0,0,.1,0,0,0,0,0,0,0,0,0,0,0,.1,0,0,0,0,0,.1l-.6,1.9c0,0,0,.1,0,.2,0,0,0,0,0,0,0,0,0,.1,0,.2,0,0,0,0,0,0,0,0,0,0,0,0,0,0,0,0,0,0,0,0,0,0,0,0,0,0,0,0,0,0,0,0,0,0,0,0,0,0,0,0,0,0,0,0,0,0,0,0,0,0,0,0,0,0,0,0,0,0,0,0,0,0,0,0,0,0,0,0,.1,0,.2,0,0,0,0,0,0,0,0,0,.1,0,.2,0,1.3-.5,2.5-.3,3.4.5,1.4,1.3,2.5,2.9,1.9,4.9-.3.8-.8,1-1.5.7-1.4-.7-2.5-1.2-3.8-.7-.2,0-.3.3-.2.5l.3,1.1c0,.3.1.7,0,1-.1,1-.2,2.2-.2,3.4,0,3.4-2.2,5.7-5.7,5.6,0,0,0,0-.1,0,0,0,0,0,0,0,0,0,0,0-.1,0,0,0,0,0,0,0,0,0,0,0,0,0,0,0,0,0,0,0,0,0,0,0,0,0,0,0,0,0,0-.1,0,0,0-.1,0-.2l.6-2.4c.1-.4,0-.8-.3-1.2l-2.1-2.6c-.4-.5-1-.8-1.6-.8h-1.7s0,0,0,0c0,0,0,0,0,0,0,0,0,0,0,0,0,0,0,0,0,0,0,0,0,0,0,0,0,0,0,0,0,0,0,0,0,0,0,0,0,0,0,0,0,0,0,0,0,0,0,.1l.4,1.9c0,0,0,.2,0,.2-.3.9-.9,1.9-.9,2.9,0,1.2-.4,2.3-1.4,3.2-.6.6-1.1,1.5-.9,2.2.3,1.2.9,2.2,1.7,3.1.7.7,1.4,1.7,2.3,2.9.6.8,1.7,2,3.6,3.6,1.7,1.5,3.9,2.2,6.3,2.9,2,.6,4.2.8,6,1.4.5.1.8.5,1,.9,1.2,3.6,2.1,6.7,2.5,9.3,0,.2,0,.3.1.4l3.3,7.2c0,0,0,.1.1.2l4.1,5c0,0,.1.2.1.3.5,1.4-1.1,2.2,0,3.7,1.4,2,3.5,2.6,5.2,3.7.1.1.3.2.5.2.7.1,1.4.5,2,1,0,0,0,0,0,0,0,0,0,0,0,0,0,0,0,0,0,0,0,0,0,0,0,0,0,0,0,0,0,0,0,0,0,0,0,0,0,0,0,0,0,0,0,0,0,0,0,0,0,0,0,0,0,0,0,0,0,0,0,0,0,0,0,0,0,0v-1s0,0,0,0c0,0,0,0,0,0,0,0,0,0,0,0,0,0,0,0,0,0,0,0,0,0,0,0,0,0,0,0,0,0,0,0,0,0,0,0,0,0,0,0,0,0,0,0,0,0,0,0,0,0,0,0,0,0,0,0,0,0,0,0,0,0,0,0,0,0,0,0,0,0,0,0,0,0,0,0,0,0,0,0,0,0,0,0,0,0,0,0,0,0,0,0,0,0,.1,0,.4,0,.8.1,1.1.3,3.1,1.3,5.3,2.2,6.6,2.7.7.3,2.3.5,4.6.7.2,0,.4,0,.5,0,3,.6,5.4.8,7.3.6,3-.4,4.8-.5,6.9-1.2,6.2-2,11.7-4.7,15.7-9.9,2.1-2.6,3.8-5.7,5.1-9.3,1.1-2.9,1.5-5.8,1.9-8.9.2-1.3,0-2.5-.3-3.7-1-3.3-1.8-5.9-2.3-7.9,0-.3-.2-.6-.3-.9-2.9-5-7.8-10.1-13.4-11.8-2.6-.8-5-1-7.3-.8-2.5.3-4.4.7-5.6,1.1-1,.4-2.4.9-4.1,1.6-.2,0-.4.2-.5.3-2.1,1.2-4.1,3.1-5.9,5.7-1.4,2.1-2.4,3.8-2.7,5.1-.3,1-.6,3-.8,6.1-.2,2.9.5,6,2.4,8.5.7,1,1.4,2,2.1,3,1,1.4,2.8,1.9,4,2.6,2.3,1.3,5.1,1.5,7.7,1.3.3,0,.6-.1.8-.2.5-.2,1.3-.5,2.4-.8,5.2-1.4,8.9-6.8,7.2-12-.9-2.9-2.8-4.2-5.9-3.8,0,0-.1,0-.2,0,0,0,0,0,0,0,0,0,0,0,0,0,0,0,0,0,0,0,0,0,0,0,0,0,0,0,0,0,0,0,0,0,0,0,0,.1,0,0,0,0,0,0,0,0,0,.1,0,.2l1.3,2c.3.5.4,1.2.2,1.7-.4,1-.6,1.5-.6,2.5,0,1.7-.5,3.4-1.5,5.1,0,.1-.2.2-.3.3-1.3.5-2.7-1.4-3.3-1.8,0,0-.2,0-.2-.1,0,0,0,0,0,0,0,0,0,0,0,0,0,0,0,0,0,0,0,0,0,0,0,0,0,0,0,0,0,0,0,0,0,0,0,0,0,0,0,0,0,0,0,0,0,0,0,0,0,0,0,0,0,0,0,0,0,0,0,0,0,0,0,0,0,0,0,0,0,0,0,0,0,0,0,0,0,0,0,0,0,0,0,0,0,0,0,0,0,0,0,0,0,.1-.1.2-.4,1.2-1,2.7-2.1,3-2.4.8-3.9,0-6-1.1-2.3-1.2-2.9-2.7-4.4-5.4-.1-.2-.2-.5-.2-.8,0-.4,0-.6,0-.8,0,0,0-.1,0-.2,0,0,0,0,0,0,0,0,0,0,.1-.1,0,0,0,0,0,0,0,0,0,0,0,0,0,0,0,0,0,0,0,0,0,0,0,0,0,0,0,0,0,0,0,0,0,0,0,0,0,0,0,0,0,0,0,0,0,0,0,0,0,0,0,0,0,0,0,0,0,0,0,0,0,0,0,0,0,0,0,0,0,0,0,0,0,0,0,0,0,0,0,0,0,0,.1,0,0,0,0,0,0,0,0,0,.1,0,.1.1l1.2,1.5c.4.5,1,.8,1.6.8h3.8c0,0,.1,0,.2,0l3.8-1.5c.5-.2.9-.6,1-1.2l.8-3.1s0,0,0-.1c0,0,0,0,0,0,0,0,0,0,0,0,0,0,0,0,0,0,0,0,0,0,0,0,0,0,0,0,0,0,0,0,0,0,0,0,0,0,0,0,0,0,0,0,0,0,0,0,0,0,0,0,0,0,0,0,0,0-.1,0-1.2.6-2.4,1.2-3.6,1.1-1.4-.2-2.8-1.1-3.2-2.5-.3-1-.3-1.2-1.2-2.1-3.5-3.3-2.2-8.7.9-11.5.6-.6,1.3-.9,1.9-1,.2,0,.4.1.5.3.4,1.2-.4,2.4-1.3,4.1-.2.5-.3.9-.2,1.4,0,.2.1.3.3.4l1.1.7c.2.1.4.3.6.5.9,1.1,2.5,2.9,4.1,2.2.2,0,.3-.2.3-.4.2-1.4.2-2.4,1.5-3.4.6-.5,1-1.1,1.1-2,.3-2.2,1.7-3.1,3.5-4.1,2-1.1,3.1-1.1,5.1-.6,0,0,0,0,0,0,0,0,0,0,0,0,0,0,0,0,0,0,0,0,0,0,0,0,0,0,0,0,0,0,0,0,0,0,0,0,0,0,0,0,0,0,0,0,0,0,0,0,0,0,0,0,0,0-.6,2.1-1.5,4-2.5,5.7-.3.5-.4,1.4-.2,2.6,0,.2.2.3.3.3l3-.3c.2,0,.5-.1.7-.2,1.2-.7,3.1-2.1,4.8-1.1,1.7,1,2.5,1.6,2.6,1.6.8.5.9,1.1.4,1.9,0,.1-.2.2-.3.3-.4.2-.6.3-.6.3,0,0,0,0,0,0,0,0,0,0,0,0,0,0,0,0,0,0,0,0,0,0,0,0,0,0,0,0,0,0,0,0,0,0,0,0,0,0,0,0,0,0,0,0,0,0,0,0,0,0,0,0,0,0,0,0,0,0,0,0,0,0,0,0,0,0,0,0,0,0,0,0,0,0,0,0,0,0,0,0,0,0,0,0,0,0,0,0,0,0,0,0,0,0,0,0,0,0,0,0,0,0,2.3,1.5,4.6,2.6,5.3,5.8,0,.3.3,1.1.7,2.2,0,.1,0,.2,0,.4,0,.5-.2.9-.4,1.2-.4.4-1.1.4-1.6,0-.4-.3-.9-.8-1.7-1.5-.3-.3-.8-.5-1.2-.5h-3.9c0,0-.1,0-.2,0,0,0,0,0,0,0,0,0,0,0,0,0,0,0,0,0,0,0,0,0,0,0,0,0,0,0,0,0,0,0,0,0,0,0,0,0,0,0,0,0,0,0,0,0,0,.1,0,.2,1,1.5,1.6,3.1,1.9,4.8.2.9.4,1.5.7,1.9,1,1.2,2.1,2.5,2.3,3.7.3,2.6,0,7.7-3,9.2,0,0,0,0-.2,0,0,0,0,0,0,0,0,0,0,0-.1,0,0,0,0,0,0,0,0,0,0,0,0,0,0,0,0,0,0,0,0,0,0,0,0,0,0,0,0,0,0,0,0,0,0,0,0,0,0,0,0,0,0,0,0,0,0,0,0,0,0,0,0,0,0,0,0,0,0,0,0,0,0,0,0,0,0,0,0,0,0,0,0,0,0,0,0,0,0,0,0,0,0,0,0-.1,0,0,0,0,0,0,0,0,0-.1,0-.2,0-1,0-2.4.4-4.3,0-.5,0-1-.3-1.6,0-.1-.2-.2-.3-.3l-6-2s0,0-.1,0c0,0,0,0,0,0,0,0,0,0,0,0,0,0,0,0,0,0,0,0,0,0,0,0,0,0,0,0,0,0,0,0,0,0,0,0,0,0,0,0,0,0,0,0,0,0,0,0,0,0,0,0,0,0,0,0,0,0,0,.1.9,1.8.8,3.8-.5,5.9-.5.8-1.2,1.1-2.2,1-.2,0-.3.1-.3.3,0,.8-.2,1.3-.4,1.7-.7,1.6-1.6,3.9-2.8,5.2-2,2.3-4.7,3.6-8,3.9-.7,0-1.3-.2-1.7-.8h0c0-.1,0-.2-.1-.3,0,0,0,0,0,0,0,0,0,0,0,0,0,0,0,0,0,0,0,0,0,0,0,0,0,0,0,0,0,0,0,0,0,0,0,0,0,0,0,0,0,0,0,0,0,0,0,0,0,0,0,0,0,0,0,0,0,0,0,0,0,0,0,0,0,0,0,0,0,0,0,0,0,0,0,0,0,0,0,0,0,0,0,0,0,0,0,0,0,0,0,0,.2,0,.2-.1,2-.5,3.6-1.3,4.7-2.3,1.5-1.4,1.2-2.3,1-4.4-.2-1.6-.8-3.2-1.8-4.8,0,0,0-.1-.1-.2,0,0,0,0,0,0,0,0,0,0-.1,0,0,0,0,0,0,0,0,0,0,0,0,0,0,0,0,0,0,0,0,0,0,0,0,0,0,0,0,0,0,0,0,0,0,0,0,0,0,0,0,0,0,0,0,0,0,0,0,0,0,0,0,0,0,0,0,0,0,0,0,0,0,0,0,0,0,0,0,0,0,0,0,0,0,0,0,0,0,0,0,0,0,0-.1,0,0,0,0,0,0,0,0,0,0,0-.1.2l-.9,1.6c-.3.4-.7.7-1.2.7h-2.2c-.4-.1-.7,0-.9.4-.5,1-1.1,1.8-2,2.4-1,.7-2.3.8-3-.3-.1-.2-.2-.5,0-.7l.7-2.1c0,0,0-.1,0-.2,0,0,0,0,0,0,0,0,0,0,0,0,0,0,0,0,0,0,0,0,0,0,0-.1,0,0,0,0,0,0,0,0,0,0,0,0,0,0,0,0-.1,0,0,0,0,0-.1,0,0,0,0,0,0,0,0,0-.1,0-.2,0l-4.3,1.1c-.4,0-.7.3-1,.5-2.8,2.3-6.2,2.8-9.1.4-1-.8-2.5-1.5-3.8-2.5-1.1-.8-2.5-1.7-2.9-3.2-.1-.5-.1-.8,0-1,.5-.5,1.3-.4,1.8,0,1,1,4.4,3.5,5.5,1.9,1.1-1.6,2.6-2,4.2-2.5,1.8-.6.6-1.9.6-2.9,0-.3,0-.6.2-.9l1.2-2.1c.1-.2.1-.5,0-.7l-1-1.9c0,0,0-.1,0-.2-.4-2.5-.7-5.1-3.6-5.5,0,0,0,0-.1,0,0,0,0,0,0,0,0,0,0,0,0,0,0,0,0,0,0,0,0,0,0,0,0,0,0,0,0,0,0,0,0,0,0,0,0,0,0,0,0,0,0,0,0,0,0,0,0,.1.4,1,.8,2.5,0,3.5-1.3,1.7-4.6,3.9-6.8,2.4-.6-.4-.8-1.3-1.2-2.1-.1-.3-.4-.5-.8-.5-2,.2-3.5-.5-4.5-2-.8-1.2-1.3-2.1-1.6-2.8-.2-.6,0-1.2.5-1.5ZM408.3,272.3c0,0,0,0-.2.1,0,0-.1,0-.2.1,0,0-.1,0-.2.1,0,0-.1,0-.2,0,0,0-.1,0-.2,0h-.2c-1.2.4-2.3,0-2.6-.8h0s0,0,0,0c0,0,0,0,0,0s0,0,0,0c0,0,0,0,0,0,0,0,0,0,0,0l4.2-1.3s0,0,0,0c0,0,0,0,0,0,0,0,0,0,0,0,0,0,0,0,0,0,0,0,0,0,0,0h0s0,0,0,0c0,0,0,.1,0,.2,0,0,0,.1,0,.2,0,0,0,.1,0,.2,0,0,0,.1,0,.2,0,0,0,.1,0,.2,0,0,0,.1,0,.2,0,0,0,.1,0,.2,0,0,0,.1,0,.2,0,0,0,0-.1.1,0,0,0,0-.1.1,0,0-.1,0-.2.1ZM435.6,311.1h0c0,0,.1-.1.2,0l4.6,3.3c0,0,0,.1,0,.2h0s0,0,0,0c0,0,0,.1-.1.2,0,0,0,.1-.2.2,0,0-.1,0-.2.1,0,0-.1,0-.2.1,0,0-.1,0-.2,0,0,0-.1,0-.2,0,0,0-.1,0-.2,0,0,0-.1,0-.2,0,0,0-.1,0-.2,0,0,0-.1,0-.2,0,0,0-.1,0-.2,0,0,0-.2,0-.2,0,0,0-.1,0-.2,0,0,0-.1,0-.2,0,0,0-.1,0-.2-.1,0,0-.1,0-.2-.1l-1.1-.8c-1-.7-1.3-2.1-.6-3.1Z"/>
      <path class="st0" d="M132.5,265.4c-7.8-.4-14.5,4-18.8,10.3-.9,1.3-1.6,2.9-2.1,4.6-1.2,4.2-2.2,6.4-2,9.8.2,4.7,1.4,9.1,3.6,13.2,2.3,4.3,5.2,8.1,9.3,10.6,2.6,1.6,5.5,2.9,8.6,4,1.4.5,2.8.8,4.2,1,3.4.5,5.8.9,8.6.4,1.6-.3,3.7-.6,6.3-.8.3,0,.5,0,.7-.2,1.5-.5,3.8-1.5,7.1-2.9.7-.3,1.2-.4,1.7-.3,0,0,0,0,0,0,0,0,0,0,0,0,0,0,0,0,.1,0,0,0,0,0,0,0,0,0,0,0,0,0,0,0,0,0,0,0,0,0,0,0,0,0,0,0,0,0,0,.1,0,0,0,0,0,.1l-.2.9s0,0,0,.1c0,0,0,0,0,0,0,0,0,0,0,0,0,0,0,0,0,0,0,0,0,0,0,0,0,0,0,0,0,0,0,0,0,0,0,0,0,0,0,0,0,0,0,0,0,0,.1,0l2.8-1.3s0,0,0,0c0,0,0,0,0,0,0,0,0,0,0,0,0,0,0,0,0,0,0,0,0,0,0,0,0,0,0,0,0,0,0,0,0,0,0,0-.6,0-1-.1-1.4-.4,0,0-.1,0-.2-.1,0,0,0,0,0,0,0,0,0,0,0,0,0,0,0,0,0,0,0,0,0,0,0,0,0,0,0,0,0,0,0,0,0,0,0,0,0,0,0,0,0,0,0,0,0,0,0,0,0,0,0,0,0,0,0,0,0,0,0,0,0,0,0,0,0,0,0,0,0,0,0,0,0,0,0,0,0,0,0,0,0,0,0,0,0,0,0,0,0,0,0,0,0-.1.1-.2,1.2-1.1,2.6-1.9,4.3-2.5,0,0,0,0,.1,0,0,0,0,0,0,0,0,0,0,0,0,0,0,0,0,0,0,0,0,0,0,0,0,0,0,0,0,0,0,0,0,0,0,0,0,0,0,0,0,0,0,0,0,0,0,0,0,.1,0,1.4-.6,2.6-1.9,3.4,0,0,0,0,0,0,0,0,0,0,0,0,0,0,0,0,0,0h0c0,.2,0,.2.1.1,2.1-1,5.1-2.7,3.7-5.4-.3-.5-.2-1.2.3-1.6,2.2-2.1,4-4.4,5.1-7.5.5-1.3,1.1-2.7,1.9-4.2.2-.4.4-.8.5-1.3.8-3.5,1.5-6.3,2.2-8.4.1-.4.4-.8.8-1.3.1-.1.3-.2.4-.3,3.7-.9,7.4-1.2,10.8-3.1,1.5-.8,3.2-2.4,5.1-4.7,0,0,.8-1,2.2-2.8.8-1,1.5-2.1,2-3.4.1-.3,0-.6-.1-.8-1.2-1.3-2.3-2.4-2.4-3.8,0-.8-.3-1.7-.7-2.8-.4-.9-.3-1.8.3-2.6,0,0,0,0,0-.1,0,0,0,0,0,0,0,0,0,0,0,0,0,0,0,0,0,0,0,0,0,0,0,0,0,0,0,0,0,0,0,0,0,0,0,0,0,0,0,0,0,0,0,0,0,0,0,0,0,0,0,0,0,0,0,0-.1,0-.2,0h-2.2c-.7-.2-1.4.2-1.8.8l-1.8,3.1c0,.1-.1.3,0,.5l.4,1.9s0,0,0,0c0,0,0,0,0,0,0,0,0,0,0,0,0,0,0,0,0,0,0,0,0,0,0,0,0,0,0,0,0,0,0,0,0,0,0,0,0,0,0,0,0,0,0,0,0,0,0,0,0,0,0,0,0,0,0,0,0,0,0,0,0,0,0,0,0,0,0,0,0,0,0,0,0,0,0,0,0,0,0,0,0,0,0,0,0,0,0,0,0,0,0,0,0,0-.1,0-2.2.4-5.3-2.2-5.3-4.4,0-1.9-.1-3.4-.3-4.5,0-.1,0-.3,0-.4l.4-1.6c0-.1,0-.3,0-.4-.6-1.1-2.9.1-3.8.6-.5.2-1,0-1.3-.4-1.6-2.6,2.2-7.5,5.3-5.6,0,0,0,0,.1,0,0,0,0,0,0,0,0,0,0,0,0,0,0,0,0,0,0,0,0,0,0,0,0,0,0,0,0,0,0,0,0,0,0,0,0,0,0,0,0,0,0,0,0,0,0,0,0-.1,0-.9-.1-1.8-.5-2.6,0,0,0,0,0,0,0,0,0,0,0,0,0,0,0,0,0,0,0,0,0,0,0,0,0,0,0,0,0,0,0,0,0,0,0,0,0,0,0,0,0,0,0,0,0,0,0,0,0,0,0,0,0,0,0,0,0,0,0,0,0,0,0,0,0,0,0,0,0,0,0,0,0,0,0,0,0,0,0,0,0,0,0,0,0,0,0,0,0,0,0,0,0,0,0,0,0,0,0,0,.1,0,1.7-.6,3.2.7,4.3,1.8,1.1,1.2,1.1,2.4,0,3.5-.5.6-1.2,1.2-2.1,2,0,0,0,0,0,0,0,0,0,0,0,.1,0,0,0,0,0,.1,0,0,0,0,0,.1,0,0,0,0,0,.1,0,0,0,0,0,.1,0,0,0,0,0,.1,0,0,0,0,0,.1,0,0,0,0,0,.1,1.6,1.7,3.9,3.1,6,1,2.1-2,2.4-4.3.9-6.9-2.2-3.8-5.2-4.4-9.3-4.1-2,.1-4.1,2-5.5,3.4-1.8,1.9-2.1,3.5-2.4,6.1,0,.3,0,.7,0,1,.3,1.1.4,2.2.2,3.3,0,.2,0,.5.1.7,1.3,2.5,4.6,5.2,7,6.9,1.4,1,3.4,1.7,4.7,2.3,0,0,.1,0,.2.1,0,0,0,0,0,0,0,0,0,0,0,0,0,0,0,0,0,0,0,0,0,0,0,0,0,0,0,0,0,0,0,0,0,0,0,0,0,0,0,0,0,0,0,0,0,0,0,0,0,0,0,0,0,0,0,0,0,0,0,0,0,0,0,0,0,0,0,0,0,0,0,0,0,0,0,0,0,0,0,0,0,0,0,0,0,0,0,0,0,0,0,0,0,.1-.1.2l-.9,1c-.2.2-.3.5-.3.8,0,2.8,1.2,4.5,3.6,4.9,0,0,.1,0,.2,0,0,0,0,0,0,0,0,0,0,0,.1,0,0,0,0,0,0,0,0,0,0,0,0,0,0,0,.1.1.2.2,0,0,0,0,0,0,0,0,0,.2,0,.2,0,0,0,0,0,0,0,0,0,.1,0,.2,0,0,0,0,0,0,0,0,0,.1-.1.2-2.4,2.6-5.9,5.3-9.6,3.2-.4-.2-.7-.6-.7-1l-.4-1.9c0-.4-.5-.7-.9-.6-1.4.3-2.3.9-2.5,2,0,0,0,0,0,.1l.2,2.1c0,.3-.2.6-.5.6-2.3.3-3.7-1.1-4.8-3-.6-1.1-.8-2.2-.5-3.5,0-.5.4-.9.7-1.2l1.2-1s0,0,0,0c0,0,0,0,0,0,0,0,0,0,0,0,0,0,0,0,0,0,0,0,0,0,0,0,0,0,0,0,0,0,0,0,0,0,0,0,0,0,0,0,0,0,0,0,0,0,0,0,0,0,0,0,0,0,0,0,0,0,0,0,0,0,0,0,0,0,0,0,0,0,0,0,0,0,0,0,0,0,0,0,0,0,0,0,0,0,0,0,0,0,0,0,0,0,0,0-.9-.8-2.4-1.8-1.3-2.8,1.2-1.1,2.7-1.4,4.3-.9,1.5.5,2,2.1,1.2,3.5-.3.6-.5.9-.5,1.1,0,0,0,0,0,.1,0,0,0,0,0,0,0,0,0,0,0,.1,0,0,0,0,0,.1,0,0,0,0,0,.1,0,0,0,0,0,.1,0,0,0,0,0,0,0,0,0,0,0,0,0,0,0,0,0,0,0,0,0,0,0,0,0,0,0,0,0,0,0,0,0,0,0,0,0,0,0,0,0,0,0,0,0,0,0,0,0,0,0,0,0,0,0,0,0,0,.1,0,0,0,0,0,.2,0,1.6.3,3,0,4.4-1,1.7-1.2,1.3-3.6.3-5.1-.1-.2-.2-.3-.4-.4-1.1-.9-1.8-1.4-2.2-1.7-.3-.2-1.1-.4-2.3-.5-2.9-.3-5.1.7-6.8,2.9-2.6,3.5-3.2,8,0,11.4,1.8,1.9,3.4,3.2,4.8,3.9.2,0,.3.3.2.4-.4,1.9-2.4,5-4.6,5.3-1.1.2-1.6.2-1.7.2-.6.2-1,.6-1.2,1.1-.9,3.4-5.5,1.2-6.9-.2-1.2-1.2-1.4-2.6-.6-4.2,0,0,0-.1,0-.2,0,0,0,0,0,0,0,0,0,0,0-.1,0,0,0,0,0,0,0,0,0,0,0,0,0,0,0,0,0,0,0,0,0,0,0,0,0,0,0,0,0,0,0,0,0,0-.1,0,0,0,0,0,0,0,0,0-.1,0-.2,0-1.7.5-2.6,1.7-2.9,3.3-.3,1.6-.7,3-1.3,4.1-.2.5-.2,1,0,1.5l1,1.7c.2.4.3.9,0,1.3-1,2.2.8,2.5,2.5,3.1,1.3.4,1.7.9,2.4,1.9.2.2.4.4.7.3,1.9-.1,3.4-1.2,5.1-2.4.3-.2.5-.3.6-.3,0,0,.1,0,.2,0,0,0,0,0,0,0,0,0,0,0,0,0,0,0,0,0,0,0,0,0,0,0,0,0,0,0,0,0,0,0,0,0,0,0,0,0,0,0,0,0,0,0,0,0,0,0,0,0,0,0,0,0,0,0,0,0,0,0,0,0,0,0,0,0,0,0,0,0,0,0,0,0,0,0,0,0,0,0,0,0,0,0,0,0,0,0,0,0,0,0,0,0,0,.1,0,.2-.3,1-1.1,2-2.2,2.9-.6.5-2.1,1.5-4.5,3-1.5,1-2.7,1.4-3.6,1.5-2.2,0-4.1-.9-5.9-2.3-.2-.1-.4-.2-.6-.3l-4.1-1c0,0-.1,0-.2,0,0,0,0,0,0,0,0,0,0,0,0,0,0,0,0,0,0,0,0,0,0,0,0,0,0,0,0,0,0,0,0,0,0,0,0,0,0,0,0,0,0,0,0,0,0,.1,0,.2.1,1.1,1.2,3.5-.7,3.9-1.8.3-3-1.5-4.1-3.2-.2-.3-.6-.5-1-.4-.9.2-1.7.2-2.4,0-.2,0-.3-.2-.5-.3l-1.4-2s0,0,0,0c0,0,0,0,0,0,0,0,0,0,0,0,0,0,0,0,0,0,0,0,0,0,0,0,0,0,0,0,0,0,0,0,0,0,0,0,0,0,0,0,0,0,0,0,0,0-.1,0-1.2,1.1-2,3-2.1,4.7,0,.8-.1,1.7-.3,2.7,0,.5,0,.9.3,1.3,1.5,1.9,3,2.5,5.4,3.1,0,0,.1,0,.2,0,0,0,0,0,0,0,0,0,0,0,0,0,0,0,0,0,0,0,0,0,0,0,0,0,0,0,0,0,0,0,0,0,0,0,0,0,0,0,0,0,0,0,0,0,0,0,0,0,0,0,0,0,0,0,0,0,0,0,0,0,0,0,0,0,0,.1,0,0,0,0,0,.1,0,0,0,0,0,0,0,0,0,0,0,.1,0,0,0,0,0,0,0,0,0,.2,0,.2-.2.3-.6.6-1.1.6-2.3.3-4.3-.7-6.4-2-2.9-1.8-4.6-5.5-5.2-8.7,0-.3-.3-.5-.6-.5-.8,0-1.3,0-1.8-.7-1.3-1.9-1.6-3.9-.9-6.1,0,0,0,0,0-.1,0,0,0,0,0,0,0,0,0,0,0,0,0,0,0,0,0,0,0,0,0,0,0,0,0,0,0,0,0,0,0,0,0,0,0,0,0,0,0,0,0,0,0,0,0,0,0,0,0,0,0,0,0,0,0,0,0,0-.1,0-1.8.6-3.4,1.2-4.7,1.6-1.2.3-1.8.8-1.7,2,0,.2.1,1.7.4,4.5,0,0,0,.1,0,.2,0,0,0,0,0,0,0,0,0,0,0,0,0,0,0,0,0,0,0,0,0,0,0,0,0,0,0,0,0,0,0,0,0,0,0,0,0,0,0,0,0,0,0,0,0,0,0,0,0,0,0,0,0,0,0,0,0,0,0,0,0,0,0,0,0,0,0,0,0,0,0,0,0,0,0,0,0,0,0,0,0,0,0,0,0,0,0,0,0,0,0,0-.1,0-.2,0-2-.5-3.1-3.6-3.3-5.4-.1-1.3-.2-2.6,0-3.9,0-.3,0-.5.2-.7.6-1.4,1.2-2,2.2-3.2.2-.3.4-.6.5-1,.3-1.8,1-3.7,1.9-5.4,0,0,0-.1,0-.2,0,0,0,0,0,0,0,0,0,0,0,0,0,0,0,0,0,0,0,0,0,0,0,0,0,0,0,0,0,0,0,0,0,0,0,0,0,0,0,0,0,0,0,0-.1,0-.2,0h-3.8c-.4,0-.7.1-1,.4-.3.2-.8.7-1.5,1.4-.5.4-1.1.6-1.7.4-.6-.2-.8-.7-.6-1.5.3-1.1.6-2.3.9-3.5,0-.2.2-.5.3-.7.9-1.5,2.2-2.6,4-3.4.4-.2.8-.6,1.2-1.3,0-.1,0-.3,0-.4-.4-.4-1.1-.6-1.4-1.2-.3-.6,0-1.2.6-1.6.9-.6,1.9-1.2,3-1.7,1.5-.8,3.2.6,4.3,1.2.4.2.8.3,1.2.4l2.5.2c.2,0,.4-.1.5-.4.2-1.1,0-2-.5-3-1-1.9-1.8-3.5-2.2-4.9,0,0,0,0,0,0,0,0,0,0,0,0,0,0,0,0,0,0,0,0,0,0,0,0,0,0,0,0,0,0,0,0,0,0,0,0,0,0,0,0,0,0,0,0,0,0,0,0,0,0,0,0,0,0,0,0,0,0,0,0,0,0,0,0,0,0,0,0,0,0,0,0,0,0,0,0,0,0,0,0,0,0,0,0,0,0,0,0,0,0,0,0,0,0,0,0,0,0,0,0,0,0,.9-.2,1.8-.2,2.7,0,.2,0,.3,0,.5.2,2.4,1.2,4.3,1.8,4.8,4,.3,1.5.4,2,1.6,2.9.9.6,1.4,1.6,1.3,2.9,0,0,0,0,0,0,0,0,0,0,0,0,0,0,0,0,0,0,0,0,0,0,0,0,0,0,0,0,0,0,0,0,0,0,0,0,0,0,0,0,0,0,0,0,0,0,0,0,0,0,0,0,0,0,0,0,0,0,0,0,0,0,0,0,0,0,0,0,0,0,0,0,0,0,0,0,0,0,0,0,0,0,0,0,0,0,0,0,0,0,0,0,0,0,0,0,0,0,0,0,.1,0,1.2,0,2.3-.7,3-1.7.5-.8,1.2-1.4,2.2-1.7,0,0,0,0,0,0,0,0,0,0,0,0,0,0,0,0,0,0,0,0,0,0,0,0,0,0,0,0,0,0,0,0,0,0,0,0,0,0,0,0,0,0,0,0,0,0,0,0,0,0,0,0,0,0,0,0,0,0,0,0,0,0,0,0,0,0,0,0,0,0,0,0,0,0,0,0,0,0,0,0,0,0,0-.1,0,0,0,0,0,0,0,0,0,0,0-.1,0,0,0,0,0-.1-.7-1.5-1.2-2.4-1.4-2.8-.3-.5-.4-1-.2-1.7,0-.3.4-.5.7-.4,2.9.7,4.5,4.7,4.7,7.3.2,2.5-1,4.2-2.8,5.8-.1.1-.3.3-.3.5l-.4,1.5c0,.2-.1.3-.3.4-2,1.9-4,2.1-6,.5,0,0-.1,0-.2,0,0,0,0,0,0,0,0,0-.1,0-.2,0,0,0,0,0,0,0,0,0,0,0,0,0,0,0,0,0,0,0,0,0,0,0,0,0,0,0,0,0,0,0,0,0,0,0,0,0,0,0,0,0,0,0,0,0,0,.1,0,.2,0,0,0,0,0,0,0,0,0,.1,0,.2l.5,2.3c.2.8.7,1.5,1.4,1.8l3.1,1.5c.2,0,.4.1.6.1l3.5-.2c.7,0,1.4-.4,1.8-.9.8-.9,1.2-1.6,2.1-1.6,0,0,.1,0,.2,0,0,0,0,0,0,0,0,0,0,0,0,0,0,0,0,0,0,0,0,0,0,0,0,0,0,0,0,0,0,0,0,0,0,0,0,0,0,0,0,0,0,0,0,0,0,0,0,0,0,0,0,0,0,0,0,0,0,0,0,0,0,0,0,0,0,0,0,0,0,0,0,0,0,0,0,0,0,0,0,0,0,0,0,0,0,0,0,0,0,0,0,0,0,.1,0,.2-.7,2.5-2.3,5.3-4.7,6.6-1.4.7-2.8,1.2-4,1.3-2.5.3-3.2-1.4-4.1-3.4,0,0,0-.1,0-.2,0,0,0,0,0,0,0,0,0,0,0,0s0,0,0,0c0,0,0,0,0,0,0,0,0,0,0,0,0,0,0,0,0,0,0,0,0,0,0,0,0,0,0,0,0,0,0,0,0,0-.1,0,0,0,0,0-.1,0,0,0,0,0,0,0,0,0,0,0,0,0,0,0,0,0,0,0,0,0,0,0,0,0,0,0,0,0-.1,0,0,0,0,0,0,0,0,0,0,0,0,0,0,0-.1,0-.2.1l-1.6,1.5c0,0-.2.1-.3.2-.7.2-1.2,0-1.5-.4-1-1.5-1.4-3.2-1.4-5,0-.4,0-.8-.2-1.2-.2-.8-.6-1.3-.4-2.2.2-.8.6-1.6,1.3-2.3,0,0,0-.1.1-.2,0,0,0,0,0,0,0,0,0-.1,0-.2,0,0,0,0,0,0,0,0,0,0,0,0,0,0,0,0,0,0,0,0,0,0,0,0,0,0,0,0,0,0,0,0,0,0,0,0,0,0,0,0,0,0,0,0,0,0,0,0,0,0,0,0,0,0,0,0,0,0,0,0,0,0,0,0,0,0,0,0-.1,0-.2-.1,0,0,0,0,0,0,0,0-.1,0-.2,0-4.3-.4-6.4,3.6-5.9,7.4.5,3.7,3.1,7.1,6.8,8.2,1.8.5,3.2,1.3,4.7,1.3,1.8,0,3.5,0,5-.3.3,0,.6-.2.8-.4.1,0,1.1-.6,2.9-1.4,1.4-.7,2.4-1.6,3.1-2.8.8-1.3,2.1-3.1,2.8-4.6,1.3-3.1,1-7.7.2-10.9-.3-1.5-.9-2.9-1.8-4.2-1.8-2.8-3.5-5.5-6.4-7.2-1.1-.6-2.7-1.3-4.7-2.1-2.3-.8-4.6-1.3-7-1.4ZM192.3,270.4h0s0,0,0,0c0,0,0,0,0,0,0,0,0,0,0,0,0,0,0,0,0,0,0,0,0,0,0,0l4.3,1.3s0,0,0,0c0,0,0,0,0,0,0,0,0,0,0,0,0,0,0,0,0,0,0,0,0,0,0,0h0s0,0,0,0c0,0,0,.1,0,.2,0,0,0,.1,0,.2,0,0,0,0-.1.1,0,0,0,0-.1.1,0,0,0,0-.1.1,0,0,0,0-.2.1,0,0-.1,0-.2,0,0,0-.1,0-.2,0,0,0-.1,0-.2,0,0,0-.1,0-.2,0,0,0-.2,0-.2,0,0,0-.1,0-.2,0,0,0-.2,0-.3,0,0,0-.1,0-.2,0,0,0-.2,0-.2,0,0,0-.1,0-.2,0h-.2c-1.2-.4-1.9-1.4-1.6-2.4Z"/>
      <path class="st0" d="M393.2,255.1h.9c.2-.1.3-.3.3-.5h0c-.5-4.5-1.1-8.1-1.4-8.1h-.5c-.3,0-.1,3.8.4,8.2h0c0,.2.2.4.4.3Z"/>
      <path class="st0" d="M65.7,260.4c0,0,0-.1,0-.2,0,0,0,0,0,0,0,0,0-.1,0-.2,0,0,0-.1,0-.2,0,0,0,0,0-.1,0,0,0,0,0,0,0,0,0,0,0,0,0,0,0,0,0,0,0,0,0,0,0,0,0,0,0,0,0,0,0-.1-.2-.2-.3-.3,0,0-.1,0-.2,0-2.3-.8-4.4,1.1-4.9,3.3-.2.8,0,1.7.4,2.8,1.4,3.5,4.1,4.7,8.2,3.8,2.9-.7,5.4-1.8,7.6-3.3,1-.7,2.7-1.3,3.2-2.2,0,0,0,0,0,0,0,0,0,0,0,0,0,0,0,0,0,0,0,0,0,0,0,0,0,0,0,0,0,0,0,0,0,0,0,0,0,0,0,0,0,0,0,0,0,0,0,0,0,0,0,0,0,0,0,0,0,0,0,0,0,0,0,0,0,0-.4.1-.9.3-1.4.6-1.2.6-3.7,1-4.8-.2-.4-.4-.8-.9-1.4-1.6,0,0,0,0,0,0,0,0,0,0,0,0,0,0,0,0,0,0,0,0,0,0,0,0,0,0,0,0,0,0,0,0,0,0,0,0,0,0,0,0,0,0,0,0,0,0,0,0,0,0,0,0,0,0,0,0,0,0,0,0,0,0,0,0,0,0,0,0,0,0,0,0,0,0,0,0,0,0,0,0,0,0,0,0,0,0,0,0,0,0,0,0,0,0,0,0,0,0,0,0,0,0-.7.6-1.2,1.4-1.5,2.5-.1.5-.4,1-.7,1.3-.4.5-1,.7-1.5.5-1.6-.6-2.3-1.8-2.2-3.8,0-.2,0-.4.2-.6l.8-1.3Z"/>
      <path class="st0" d="M146.2,264.6c-.7.4-1.4.3-2.5.4,0,0-.1,0-.2,0,0,0,0,0,0,0,0,0,0,0,0,0,0,0,0,0,0,0,0,0,0,0,0,0,0,0,0,0,0,0,0,0,0,0,0,0,0,0,0,0,0,0,0,0,0,0,0,0,0,0,0,0,0,0,0,0,0,.1,0,.1.5.6,1.5.8,3,1.2,3.2,1,4.6-.6,5.6-3.3,0-.2,0-.4,0-.5-1.1-1.6-2.4-2.6-4.2-3.2,0,0,0,0,0,0,0,0,0,0,0,0,0,0,0,0,0,0,0,0,0,0,0,0,0,0,0,0,0,0,0,0,0,0,0,0,0,0,0,0,0,0,0,0,0,0,0,0,0,0,0,0,0,0,0,.5,0,1,.2,1.4.6,1.2-.5,2.5-1.5,3Z"/>
      <path class="st0" d="M454.1,260.5s0,0,0,0c0,0,0,0,0-.1,0,0,0,0,0,0,0,0,0,0,0-.1,0,0,0,0,0,0,0,0,0,0,0,0,0,0,0,0,0,0,0,0,0,0-.1,0,0,0,0,0,0,0,0,0-.1,0-.2,0-1.7.6-3.1,1.6-4,3.1,0,.1-.1.3-.1.4,0,.3.2.7.5,1.3,1.1,1.9,2.6,2.8,4.8,2.3,1.3-.3,2.7-.6,3.4-1.6,0,0,0,0,0,0,0,0,0,0,0,0,0,0,0,0,0,0,0,0,0,0,0,0,0,0,0,0,0,0,0,0,0,0,0,0,0,0,0,0,0,0,0,0,0,0,0,0,0,0,0,0,0,0,0,0-.4,0-1.2-.1-.8,0-1.5-.4-2.3-1.1-1.1-.9-.8-2.1-.3-3.2,0,0,0-.1,0-.2Z"/>
      <path class="st0" d="M497.3,263.9c0,0,0-.1,0-.2l-.5-1.4c-.3-.9-1.1-1.6-2.1-1.8-1.9-.3-5.5.4-6.1,2.5-.4,1.4-.9,2.7-1.5,3.8-.2.4-.3.9-.2,1.3.3,1.9,1,3.6,2.3,5.5.6.8,1.2,1.9,1.7,3.4,0,0,0,0,0,0,0,0,0,0,0,0,0,0,0,0,0,0,0,0,0,0,0,0,0,0,0,0,0,0h.2c0,0,.1-.2,0-.2-.6-2-.9-4.2-1-6.7,0-3.4,1.9-6.7,5.8-5.3,0,0,.1,0,.2,0,0,0,0,0,0,0,0,0,0,0,.1,0,0,0,0,0,0,0,0,0,0,0,0,0,0,0,0,0,0,0,0,0,0,0,0,0,0,0,0,0,0,0,0,0,0,0,0,0,0,0,0,0,0,0,0,0,0,0,0,0,0,0,0,0,0,0,0,0,0,0,0,0,0,0,0,0,0,0,0,0,0,0,0,0,0,0,0,0,0,0,0,0,0,0,0,0,0,0,0,0,0,0,0,0,0,0,0,0,0,0,0,0,0,0,0,0,0,0,0-.1,0,0,0,0,0,0Z"/>
      <path class="st0" d="M206.2,265.8c0,2,1.3,3.6,2.5,5.3.3.4.3.9,0,1.3l-1.8,1.9c-.3.4-.5.8-.5,1.3,0,1.2.4,2.3,1.2,3.3,1.5,1.9,3.9,1.2,5.4-.4,0,0,0-.1.1-.2,0,0,0,0,0,0,0,0,0,0,0,0,0,0,0,0,0,0,0,0,0,0,0,0,0,0,0,0,0,0,0,0,0,0,0,0,0,0,0,0,0,0,0,0,0,0,0,0,0,0,0,0,0,0,0,0,0,0,0,0,0,0,0,0,0,0,0,0,0,0,0,0,0,0,0,0,0,0,0,0,0,0,0,0,0,0,0,0,0,0,0,0-.1,0-.2-.1,0,0-.2,0-.6-.1-2.5-.5-1.2-3.2.2-3.9,1.1-.6,2.3-.9,3.6-1.1,3.3-.4,7.2-.5,11.9-.5.1,0,.2,0,.3-.1l.2-.2s0,0,0,0c0,0,0,0,0,0,0,0,0,0,0,0,0,0,0,0,0,0,0,0,0,0,0,0,0,0,0,0,0,0,0,0,0,0,0,0,0,0,0,0,0,0,0,0,0,0,0,0,0,0,0,0,0,0,0,0,0,0,0,0h-7c-.1,0-.3,0-.4,0-1.1-.4-1.6-.7-2.8-.8-.7,0-1.5-.1-2.3-.4-.4-.1-.7-.1-1.1-.1-1.8,0-3.2,0-3.9-2-.2-.5,0-1.2.6-1.5.2-.1.6-.4,1.2-.7.3-.2.4-.5.3-.9-.8-1.7-2.6-1.7-4.3-1.3-1.4.3-2.1,1.2-2.2,2.6Z"/>
      <path class="st0" d="M379.6,271c-2.2,0-4.4,0-6.5,0,0,0,0,0,0,0,0,0,0,0,0,0,0,0,0,0,0,0,0,0,0,0,0,0,0,0,0,0,0,0,0,0,0,0,0,0,0,0,0,0,0,0,0,0,0,0,0,0,0,0,0,0,0,0h0c0,.2.2.3.3.3,3.6,0,7.3,0,11.1.4,2,.1,5.2.8,6.2,2.5.8,1.5-.3,2.5-1.7,2.8,0,0,0,0-.1,0,0,0,0,0,0,0,0,0,0,0,0,0,0,0,0,0,0,0,0,0,0,0,0,0,0,0,0,0,0,0,0,0,0,0,0,0,0,0,0,0,0,0,0,0,0,0,0,.1,1.4,2.8,5.3,3.1,6.3,0,.9-2.8-.3-3.8-2-5.5-.3-.3-.3-.8,0-1.2.8-.9,1.4-1.8,1.9-2.7,1.3-2.3.7-5.1-2.4-5.4-1.6-.1-3.1.1-3.4,1.9,0,.2,0,.5.3.6.6.3,1,.4,1.3.9.9,1.3-.6,3.1-2,3.2-1.3,0-3,.2-5.2.6-1.3.2-2.6.8-3.6.8Z"/>
      <path class="st0" d="M94.7,263.4c-7.8-1.2-15,.1-18.8,7.7-.9,1.7-1.7,3.1-1.7,4.6-.1,3.5.9,6.3,3.1,9,.6.7,1.2,1.6,1.9,2.6.1.2.3.4.5.6,2.5,2.1,5.9,2.8,9,2.4.6,0,1.2-.3,1.7-.6,1-.6,2.2-1.3,3.4-2.1.5-.4,1.4-1.4,2.7-3.2.5-.7.8-1.2.7-2.1-.1-1.5-.7-3.8-1.8-4.9-2.3-2.4-6.1-3-8.3-.1-.5.6-.6,1.3-.2,2.1,0,.2.2.3.4.3,1.5.3,4.7.7,4.2,2.9,0,.2-.1.4-.3.5l-1.3,1c-.2.1-.3.3-.4.5-.8,1.8-1.7,3.8-3.9,3.4,0,0,0,0,0,0,0,0,0,0,0,0,0,0,0,0-.1,0,0,0,0,0,0,0,0,0,0,0,0,0,0,0,0,0,0,0,0,0,0,0,0,0,0,0,0,0,0,0,0,0,0,0,0,0,0,0,0,0,0,0,0,0,0,0,0,0,0,0,0,0,0-.1,0,0,0,0,0-.1,0,0,0,0,0-.1,0,0,0,0,0-.1,0,0,0,0,0-.1,0,0,0,0,0-.1l.8-3.1c0,0,0-.1,0-.2,0,0,0,0,0,0,0,0,0,0,0,0,0,0,0,0,0,0,0,0,0,0,0-.1,0,0,0,0,0,0,0,0,0,0,0,0,0,0,0,0-.1,0,0,0,0,0-.1,0,0,0,0,0,0,0,0,0-.1,0-.2,0-2.2.6-4.2.4-6.1-.6-2.6-1.5-2.5-5.5-2.2-8.2.3-3.1,3.1-5.9,5.6-7.7.8-.6,1.8,0,2.3.8.6,1,1,1.6,1.2,2,.8,1.2,2-.4,2.9-1.3,1.1-1.1,1.9-.9,3.4-.6.2,0,.4,0,.7,0,1.6-.4,3.3-.6,5-.4,1.6.1,3.4,1,4,2.5,0,0,0,0,0,0,0,0,0,0,0,0,0,0,0,0,0,0,0,0,0,0,0,0,0,0,0,0,0,0,0,0,0,0,0,0,0,0,0,0,0,0,0,0,0,0,0,0,0,0,0,0,0,0,0,0,0,0,0,0,0,0,0,0,0,0,0,0,0,0,0,0,0,0,0,0,0,0,0,0,0,0,0,0,0,0,0,0,0,0,0,0,0,0,0,0,0,0,0,0,0,0l-1.9.7c-.2,0-.3.2-.4.4-.2,1-.3,1.7-.3,2.3,0,.5.4.8.8.9,1.6.3,4.7.4,4,2.8-.2.6,0,1.1.4,1.5,1.8,1.9,2.7,3.9,2.7,6.1,0,0,0,0,0,.1,0,0,0,0,0,0,0,0,0,0,0,0,0,0,0,0,0,0,0,0,0,0,0,0,0,0,0,0,0,0,0,0,0,0,0,0,0,0,0,0,0,0,0,0,0,0,.1,0h0c.3-.1.6-.4.6-.8,0-2.1-1-3.8-1.1-6-.1-2.3-.7-4.5-1.8-6.6-.7-1.4-1.3-2.8-2.4-3.8-1.7-1.6-5.2-4.1-7.7-4.5Z"/>
      <path class="st0" d="M515.6,263.4c-2.5-.2-5.1-.2-7.7,0-3.7.3-6.8,2.8-9.5,5.1-.2.1-.3.3-.4.5-1.6,2.6-2.6,5.1-3.1,7.6,0,.5-.2,1.7-.4,3.4,0,.3-.1.7-.2,1-.7,2.1-1,3.2,0,5,0,0,0,0,0,0,0,0,0,0,0,0,0,0,0,0,0,0,0,0,0,0,0,0,0,0,0,0,0,0,0,0,0,0,0,0,0,0,0,0,0,0,0,0,0,0,0,0,0,0,0,0,0,0,0,0,0,0,0,0,0,0,0,0,0-.1.5-2.9.5-5.2,2.9-7.2.2-.2.4-.5.4-.8v-1.7c0-.6.4-1.1,1-1.2l3-.6c.4,0,.8-.5.9-.9.3-1.8-.4-3-2.3-3.3-.2,0-.4-.2-.4-.3-1-1.8,2.5-3,3.7-3.1,1.7-.2,3.3,0,4.7.4.2,0,.4,0,.6,0,.8-.1,1.3-.2,1.5-.2,1.6-.4,2.8,1.2,3.7,2.3,0,0,0,0,.1.1,0,0,0,0,0,0,0,0,0,0,0,0,0,0,0,0,0,0,0,0,0,0,.1,0,0,0,0,0,0,0,0,0,0,0,.1,0,0,0,.1,0,.2,0,0,0,0,0,0,0,0,0,0,0,0,0,0,0,.1,0,.2,0,0,0,0,0,0,0,0,0,0,0,0,0,0,0,0,0,.1,0,0,0,0,0,0,0,0,0,0,0,0,0,0,0,0,0,.1-.1l1.4-2.5c.3-.5.9-.7,1.5-.6,2.1.7,4,3.2,5.2,5.1.9,1.5,1.3,3.2,1.2,5.1,0,1.1-.5,2.1-.6,3.2-.2,1.2-.9,2-2,2.6-2,1.1-4,1.3-5.9.7,0,0,0,0-.1,0,0,0,0,0,0,0,0,0,0,0,0,0,0,0,0,0,0,0,0,0,0,0,0,0,0,0,0,0,0,0,0,0,0,0,0,0,0,0,0,0,0,0,0,0,0,0,0,.1,0,.9,0,2,.4,3.1.1.4,0,.9-.3,1.5,0,.1-.2.2-.4.3-2.2.3-3-1.4-3.9-3.2,0-.1-.2-.3-.3-.4l-1.4-1.3c0,0-.1-.2-.2-.3-.6-2.4,2.1-2.9,3.7-3,.5,0,.9-.5.9-1.1-.2-2.6-2.8-3.8-5.1-3.3-2.2.5-3.7,1.7-4.6,3.7-.6,1.4-.8,2.5-.8,3.5,0,1.3,2.4,4.2,3.2,4.8.8.6,2.1,1.4,4,2.5,2.9,1.5,7.3.3,9.8-1.4,1.1-.8,1.6-2.3,2.5-3.3,3.8-4.1,4.5-9.2,1.6-14.1-2-3.3-4.7-5.7-8.3-7.1-.5-.2-1-.3-1.6-.4Z"/>
      <path class="st0" d="M397.3,274.3c0,0,.1,0,.2,0,0,0,.1,0,.2,0,0,0,.1,0,.2,0,0,0,.1,0,.2,0,0,0,.1,0,.2-.1,0,0,.1,0,.2-.1,0,0,.1,0,.2-.1,0,0,.1,0,.2-.1,0,0,0-.1.1-.2,0,0,0-.1.1-.2,0,0,0-.1,0-.2,0,0,0-.1,0-.2,0,0,0-.1,0-.2,0,0,0-.2,0-.2,0,0,0-.2,0-.2,0,0,0-.2,0-.3v-.8c0-1.4-.8-2.5-1.9-2.5h0s0,0,0,0l-.2,5.6s0,0,0,0h0s0,0,0,0Z"/>
      <path class="st0" d="M184.3,301.9c-.4,1.4-2.3,2.9-3.3,3.9,0,0,0,0,0,0,0,0,0,0,0,0,0,0,0,0,0,0,0,0,0,0,0,0,0,0,0,0,0,0,0,0,0,0,0,0,0,0,0,0,0,0,0,0,0,0,0,0,0,0,0,0,0,0,1.3,1.1,3.1,2.5,3.6,4,.5,1.9,1.1,3.5,1.7,4.9,3.2,7.5,11.8,11.8,19.7,12.5.5,0,1.6,0,3.3,0,1.8,0,2.9,0,3.3,0,7.9-.8,16.4-5.2,19.5-12.8.6-1.4,1.1-3,1.6-5,.4-1.5,2.2-2.9,3.5-4.1,0,0,0,0,0,0,0,0,0,0,0,0,0,0,0,0,0,0,0,0,0,0,0,0,0,0,0,0,0,0,0,0,0,0,0,0,0,0,0,0,0,0,0,0,0,0,0,0,0,0,0,0,0,0-1.1-1-3-2.4-3.4-3.8-2.3-8.4-7.6-13.9-15.9-16.3-1.5-.4-3-.7-4.4-.9-2.2-.2-3.8-.5-4.6-.5-.8,0-2.4.3-4.6.5-1.5.2-2.9.5-4.4.9-8.2,2.5-13.5,8.1-15.6,16.5ZM209.1,286.5c10.3,0,12.3,11.7,12.3,19.6,0,7.9-2.1,19.5-12.4,19.5-10.3,0-12.3-11.7-12.3-19.6,0-7.9,2.1-19.5,12.4-19.5Z"/>
      <path class="st0" d="M236.8,326.8c1.6.6,2.7,0,3.9-1.2.4-.4,1-.5,1.5-.3,4,1.8,7.6,2.7,12.2,2.6,3.1,0,4.9,0,5.4-.1,6.9-.9,14.3-4.7,14.7-12.3.4-7.8-5.8-11.4-12.4-13.1-2.5-.6-5.7-1.7-9.6-3.1-1.1-.4-2.3-1.2-3.4-2.3-1.7-1.6-2.3-4.2-1.2-6.2,1.4-2.3,3.4-3.6,6.2-3.9,8.1-.8,11.8,4.7,15,11.4.5,1,1.3,1.3,2.4,1.1.2,0,.3-.2.3-.4v-12.8c0-.2,0-.4-.2-.5,0,0-.2-.1-.2-.2,0,0-.2,0-.3,0h-1.6c-.2,0-.5,0-.6.2l-1.1.9c-.4.3-1,.4-1.4.2-3.1-1.5-6.4-2.3-10-2.3-5.3,0-9.7.2-14.1,3.3-4,2.9-5.6,6.8-4.5,11.7,1.1,5.2,5,7.8,9.8,9.3,1.7.5,4.7,1.4,9,2.8,2.6.8,5.3,2.1,6.7,4.2,1,1.5,1.2,3,.7,4.2-1.3,3.4-4.7,4.8-8.4,5.1-3.3.3-6.4-1.1-9.3-2.7-3.2-1.8-5.6-5.6-7.1-8.9-.5-1.1-1.4-1.5-2.6-1,0,0-.2.1-.2.2v13.7c0,.3.2.5.4.6Z"/>
      <path class="st0" d="M277.9,311c1,4.9,3.4,8.8,7,11.7,3.3,2.6,6.8,4.2,10.6,4.8,4.3.7,8.1.7,11.5,0,6.4-1.3,11.2-4.9,14.6-10.7,0,0,0-.1,0-.2l-2.1-1.2s-.1,0-.1,0c-3.9,4.8-8.6,8.3-15,8.3-7.7,0-12.3-5.1-13.9-12.3-.2-1,0-1.9.8-2.6.8-.8,1.5-1.6,2.3-2.4.2-.2.2-.6,0-.8-.9-.9-1.8-1.8-2.5-2.8-.7-.9-.8-1.5-.6-2.7.7-5,2.1-9.4,6.5-12.2,2.2-1.4,4.9-1.4,7.4-1.3,3.5.1,6.9,2.5,8.9,5.2,1.6,2.2,3,4.8,4.1,7.8,0,.2.2.3.4.4.6.1,1.2.1,1.8,0,.1,0,.2-.1.2-.3v-13.7c0-.4-.3-.7-.6-.8-1.3-.3-2.5.4-3.9,1.3-.2.1-.6.2-.8,0-2.8-1.1-4.7-1.9-7.4-2.1-2.1-.2-4.6-.2-7.4-.1-7.9.4-15.1,4.3-19.3,11.1-1.2,1.9-1.6,3.7-2.6,6.5,0,0,0,.2-.2.3l-3.2,3.4c-.2.2-.2.6,0,.8,1.2,1.2,3.1,2.9,3.5,4.5Z"/>
      <path class="st0" d="M442.4,377.6c.3.3.7.6,1.2.6,5.5.5,10.3,2.4,14.3,5.9.4.3.9.5,1.4.5h.5c0,0,.1,0,.2,0,0,0,0,0,0,0,0,0,0,0,0,0,0,0,0,0,0,0,0,0,0,0,0,0,0,0,0,0,0,0,0,0,0,0,0,0,0,0,0,0,0-.1,0,0,0,0,0-.1,0,0,0,0,0,0,0,0,0-.1,0-.2-8.2-9.9-16.4-19.9-24.6-29.9-.3-.3-.4-.6-.5-.9,0-.4.2-.8.6-1,5.3-1.7,10.1-4.7,10-10.9,0-1.8-.4-3.2-1-4.4-3.3-5.5-13.6-5.5-19-5.4-.9,0-1.6-.3-2.1-.9-5.9-7-12.3-14.7-19.1-23.1,0,0,0-.1-.1-.2,0,0,0,0,0,0,0,0,0,0,0,0,0,0,0,0,0,0,0,0,0,0,0,0,0,0,0,0,0,0,0,0,0,0,0,0,0,0,0,0,0,0,0,0,0,0,0,0,0,0,0,0,0,0,0,0,0,0,0,0,0,0,0,0,0,0,0,0,0,0,0,0,0,0,0,0,0,0,0,0,0,0,0,0,0,0,0,0,0,0,0,0,.1,0,.2-.1,3.8-1.4,8.5-3.3,9.7-7.8.9-3.3.6-7.1-2.3-9.4-2.8-2.2-6-2.8-9.6-3.3-1.2-.2-3.4-.2-6.5-.2-9.2.1-17.1.1-23.7,0,0,0,0,0,0,0,0,0,0,0-.1,0,0,0,0,0-.1,0,0,0,0,0,0,0,0,0,0,0,0,0s0,0,0,0c0,0,0,0,0,0,0,0,0,0,0,.1,0,0,0,0,0,.1v.7c0,.4.3.7.6.7,2.3.3,4.8.7,5.9,2.7.3.6.4,1.8.4,3.7,0,2.2,0,4.5,0,6.9,0,1.7-2.2,3.6-3.4,4.7,0,0,0,0,0,0,0,0,0,0,0,0,0,0,0,0,0,.1,0,0,0,0,0,.1,0,0,0,0,0,.1,0,0,0,0,0,.1,0,0,0,0,0,.1,0,0,0,0,0,.1,0,0,0,0,.1.1,1.2,1.1,3.4,3,3.4,4.5,0,2,0,5.3,0,10,0,2-.9,3.2-2.7,3.7-5,1.2-8.5-.4-10.5-4.9-4-9-9.1-20.4-15.3-34.2-.2-.4-.6-.7-1.1-.7-1,0-2.4,0-4,0-.9,0-1.6.4-1.9,1.1-1.9,4.2-4.5,10-7.9,17.4-.7,1.6-1.8,2.8-3.1,3.5-1.8,1-3.3,1.7-4.4,2.3,0,0-.1,0-.2.1,0,0,0,0,0,0,0,0,0,.1-.1.2,0,0,0,0,0,.1,0,0,0,0,0,.1,0,.1,0,.3.2.4.5.4,1.2,1.2,2.3,2.3.5.5.7,1.1.4,1.7-.9,2.3-2,4.6-3.1,6.7-.9,1.7-2.3,3-4,3.8-.2.1-1.4.4-3.4.9-.1,0-.3.1-.4.3-.2.4-.3.8-.2,1.1.1.3.3.4.7.4,5.2,0,10.6,0,16.3,0,.5,0,.8,0,1,0,0,0,.1,0,.2,0,0,0,0,0,0,0,0,0,0,0,.1,0,0,0,0,0,0,0,0,0,0,0,0,0,0,0,0,0,0,0,0,0,0,0,0,0,0,0,0,0,0,0,0,0,0,0,0,0,0,0,0,0,0,0,0,0,0,0,0,0,0,0,0,0,0,0,0,0,0,0,0,0,0,0,0,0,0,0,0,0,0,0,0,0,0,0,0,0,0,0,0,0,0,0,0-.1,0,0,0,0,0,0,0,0,0,0,0-.1,0,0,0,0,0,0,0,0,0,0-.1-.1,0,0,0,0,0,0,0,0,0,0-.2,0-1.3-.6-3-1.4-3.5-2.6,0-.1-.1-.3-.1-.5,0-.5.1-1.3.5-2.3.6-2,1.4-3.8,2.2-5.3.4-.7,1.1-1.1,2.1-1,1.6,0,5.6,0,11.9,0,1.4,0,2.1-.2,2.6,1.1.8,2.1,1.5,4.3,2.2,6.4.3.9.4,1.7.2,2.2-.1.5-.5.9-1,1l-4.7,1c-.3,0-.5.3-.5.6h0c0,.6.4,1,.8,1,12.4,0,18.6.1,18.8.1,2.6,0,5.9,0,9.8,0,2.3,0,7.4,0,15.5,0,.7,0,1.1,0,1.3,0,0,0,.2,0,.2,0,0,0,0,0,0,0,0,0,.1,0,.2-.1,0,0,0,0,0,0,0,0,.1-.1.1-.2,0,0,0,0,0,0,0,0,0-.1,0-.2,0,0,0,0,0,0,0,0,0,0,0,0,0,0,0,0,0-.1,0,0,0,0,0,0,0,0,0,0,0,0,0,0,0,0,0-.1,0,0,0,0,0,0,0,0,0-.1,0-.2,0,0,0,0,0,0,0,0,0-.1-.1-.2,0,0,0,0,0,0,0,0,0,0-.2-.1,0,0,0,0,0,0,0,0-.1,0-.2,0-2.1-.5-4.2-.8-5.3-2.5-.3-.5-.5-1.5-.5-2.9,0-2.8,0-5.6,0-8.4,0-1.1,0-2.1.2-3,0-.3.3-.5.6-.5.7,0,1.4.4,2,1,4.6,4.8,9.7,11.1,15.6,18.1,1,1.2,1.8,2.3,2.4,3.3,0,0,0,.1,0,.2,0,0,0,0,0,0,0,0,0,0,0,0,0,0,0,0,0,0,0,0,0,0,0,.1,0,0,0,0,0,0,0,0,0,0,0,0,0,0,0,0,0,0,0,0,0,0,0,0,0,0,0,0,0,0,0,0-.1,0-.2,0h-7.1c-.2,0-.4.2-.5.4-.4,1.9,1.9,2,3.4,2.3,2.3.5,3.5,1.9,3.4,4.3,0,5.5,0,8.3,0,8.7,0,1.6-1.8,3.1-3.5,4.9-.1.1-.1.3,0,.4,1.4,1.4,3.6,3.1,3.6,4.8,0,2.6,0,5.6,0,9.1,0,1.9-.4,3.7-2.2,4.3-4,1.3-8.1.7-10.3-3.3-.5-1-1.1-2.2-1.8-3.7-4.8-10.9-9.5-21.5-14.1-32-.2-.5-.7-.8-1.3-.8-1.6,0-3.1,0-4.3,0-.8,0-1.3.4-1.6,1.1-1.6,3.8-4.3,9.7-8,17.8-.5,1.2-1.2,2-1.8,2.4-1.8,1.1-3.7,2.1-5.7,3,0,0,0,0,0,0,0,0,0,0,0,0,0,0,0,0,0,0,0,0,0,0,0,0,0,0,0,0,0,0,0,0,0,0,0,0,0,0,0,0,0,0,0,0,0,0,0,0,0,0,0,0,0,.1,1,1.1,1.7,1.8,2.2,2.4,1.3,1.3.7,2.2,0,3.8-.5,1.1-1.2,2.6-2.2,4.6-1.6,3.4-3.9,4.3-7.5,5-.4,0-.7.5-.6.9h0c0,.5.5.8.9.8,4.8,0,10.4,0,16.7,0,.4,0,.6,0,.6,0,0,0,.2-.1.2-.2,0,0,0,0,0,0,0,0,.1-.1.1-.2,0,0,0,0,0,0,0,0,0,0,0,0,0,0,0,0,0,0,0,0,0,0,0,0,0,0,0,0,0,0,0,0,0,0,0,0,0,0,0,0,0,0,0,0,0,0,0,0,0,0,0,0,0,0,0,0,0,0,0,0,0,0,0,0,0,0,0,0,0-.1-.2-.2,0,0,0,0,0,0,0,0-.1-.1-.2-.1-1.5-.6-4.3-1.7-3.8-3.6.6-2.3,1.4-4.5,2.4-6.6.5-1,1.3-1.4,2.5-1.5,4.6,0,8.6,0,12.2,0,.6,0,1.2.2,1.8.5.2,0,.3.2.3.4,1.4,4.5,2.3,7.3,2.5,8.3.2.8-.2,1.3-1,1.5-2.1.6-3.6.9-4.5.8,0,0,0,0,0,0,0,0,0,0,0,0,0,0,0,0,0,0,0,0,0,0,0,0,0,0,0,0,0,0,0,0,0,0,0,0,0,0,0,0,0,0,0,0,0,0,0,0,0,0,0,0,0,0,0,0,0,0,0,0,0,0,0,0,0,0,0,0,0,0,0,0,0,0,0,0,0,0,0,0,0,0,0,0,0,0,0,0,0,0,0,0,0,0,0,0,0,0,0,0,0,0v.5h0c0,.2,0,.4.2.5,0,0,0,0,.1,0,.1,0,.3.1.4.1h45.5s0,0,.1,0c0,0,0,0,0,0,0,0,0,0,0,0,0,0,0,0,0,0,0,0,0,0,0,0,0,0,0,0,0,0,0,0,0,0,0,0,0,0,0,0,0,0,0,0,0,0,0,0,0,0,0,0,0,0,0,0,0,0,0,0,0,0,0,0,0,0,0,0,0,0,0,0,0,0,0,0,0,0,0,0,0,0,0,0,0,0,0,0,0,0,0,0,0,0,0-.1v-.3c-.2-.4-.5-.7-.9-.8-2.5-.3-5.4-.9-5.4-3.8,0-6.2-.3-10.3.2-12.8,0-.3.3-.5.6-.5.7,0,1.2.3,1.7.8,1.3,1.3,2.5,2.5,3.6,3.8,4.5,5.2,8.3,9.8,11.5,13.8,1.4,1.8,2.9,3.2,4.4,5.1ZM350.9,308.2s0,0,0,.1c0,0,0,0,0,0,0,0,0,0,0,0,0,0,0,0,0,0,0,0,0,0,0,0,0,0,0,0,0,0,0,0,0,0,0,0,0,0,0,0,0,0,0,0,0,0,0,0s0,0,0,0c0,0,0,0,0,0,0,0,0,0,0,0,0,0,0,0,0,0,0,0,0,0,0,0,0,0-.1,0-.2,0h-10.1c-.1,0-.3,0-.4,0,0,0,0,0,0,0,0,0,0,0,0,0,0,0,0,0-.1,0,0,0,0,0,0,0,0,0,0,0,0,0,0,0,0,0,0,0,0,0,0,0,0,0,0,0,0,0,0,0,0,0,0,0,0,0,0,0,0,0,0,0,0,0,0,0,0,0,0,0,0-.1,0-.2,0,0,0,0,0,0,0,0,0-.1,0-.2,0,0,0-.1,0-.2l5.6-12.9c0,0,0-.1,0-.2,0,0,0,0,0,0,0,0,0,0,.1-.1,0,0,0,0,0,0,0,0,0,0,.1,0,0,0,0,0,0,0,0,0,0,0,.1,0,0,0,0,0,0,0,0,0,0,0,0,0,0,0,0,0,.1,0,0,0,0,0,0,0,0,0,0,0,0,0,0,0,0,0,0,0,0,0,0,0,0,0,0,0,0,0,.1,0,0,0,0,0,0,0,0,0,0,0,.1,0,0,0,0,0,0,0,0,0,0,0,.1,0,0,0,0,0,0,0,0,0,0,0,.1.1,0,0,0,0,0,0,0,0,0,.1,0,.2l4.6,12.9c0,0,0,.1,0,.2,0,0,0,0,0,0,0,0,0,0,0,0,0,0,0,0,0,0ZM402.5,297.8s0,0,0,0c0,.1,0,.2,0,.3,0,.1,0,.3,0,.4,0,.1,0,.2,0,.3,0,.1,0,.3,0,.4,0,.1,0,.2,0,.3,0,.1,0,.2,0,.3,0,.1,0,.2-.1.3,0,.1,0,.2-.1.3,0,.1-.1.2-.2.3,0,.1,0,.2-.1.3,0,.1-.1.2-.2.3,0,0-.1.2-.2.3,0,.1-.2.2-.2.3,0,0-.1.2-.2.2,0,0-.2.2-.2.3,0,0-.1.2-.2.2,0,0-.2.2-.3.2,0,0-.2.2-.2.2,0,0-.2.1-.3.2,0,0-.2.1-.3.2,0,0-.2.1-.3.2-.1,0-.2.1-.3.2,0,0-.2,0-.3.1-.1,0-.2.1-.3.2-.1,0-.2,0-.3.1-.1,0-.2,0-.3.1-.1,0-.2,0-.3,0-.1,0-.2,0-.4,0-.1,0-.2,0-.3,0-.1,0-.2,0-.4,0-.1,0-.2,0-.3,0-.1,0-.3,0-.4,0h-4.7c-.6,0-1.1-.5-1.1-1.1v-14.4c0-.6.5-1.1,1.1-1.1h4.7c4,0,7.2,3.2,7.2,7.2v2.3ZM381.6,354s0,0,0,0c0,0,0,0,0,0,0,0,0,0,0,0,0,0,0,0,0,0,0,0,0,0,0,0,0,0,0,0,0,0,0,0,0,0,0,0,0,0,0,0,0,0,0,0,0,0,0,0,0,0,0,0,0,0,0,0,0,0,0,0,0,0,0,0,0,0,0,0,0,0,0,0,0,0-.2,0-.2,0h-10.3c-.1,0-.2,0-.3,0,0,0,0,0,0,0,0,0,0,0,0,0,0,0,0,0,0,0,0,0,0,0,0,0,0,0,0,0,0,0,0,0,0,0,0,0,0,0,0,0,0,0,0,0,0,0,0,0,0,0,0,0,0,0,0,0,0,0,0,0,0,0,0,0,0,0,0,0,0,0,0-.1,0,0,0,0,0,0,0,0,0-.1,0-.2,0,0,0-.1,0-.2l5.7-13.1c0,0,0,0,0-.1,0,0,0,0,0,0,0,0,0,0,0-.1,0,0,0,0,0,0,0,0,0,0,0,0,0,0,0,0,0,0,0,0,0,0,0,0,0,0,0,0,0,0,0,0,0,0,0,0,0,0,0,0,0,0,0,0,0,0,0,0,0,0,0,0,0,0,0,0,0,0,0,0,0,0,0,0,0,0,0,0,0,0,0,0,0,0,0,0,0,0,0,0,0,0,0,0,0,0,0,0,0,0,0,0,0,0,0,0,0,0,0,0,0,0,0,0,0,0,0,.1,0,0,0,0,0,0,0,0,0,0,0,.1l4.6,13.1c0,0,0,.2,0,.2,0,0,0,0,0,0,0,0,0,0,0,0ZM430.9,349.1c-1.9,2.2-6.9,2.3-9.8,2-.4,0-.7-.4-.7-.8v-15.5c0-.2.1-.3.3-.3,2.2-.2,5.3,2.4,6.6,3.4.5.4,1,.6,1.6.6,0,0,.1,0,.2,0,0,0,0,0,0,0,0,0,0,0,0,0,0,0,0,0,0,0,0,0,0,0,0,0,0,0,0,0,0,0,0,0,0,0,0,0,0,0,0,0,0-.1,0,0,0,0,0-.1,0,0,0,0,0,0,0,0,0-.1,0-.2l-1.5-2.4s0,0,0-.1c0,0,0,0,0,0,0,0,0,0,0,0,0,0,0,0,0,0,0,0,0,0,0,0,0,0,0,0,0,0,0,0,0,0,0,0,0,0,0,0,0,0,0,0,0,0,.1,0,3.7,0,5.4,3.9,5.4,7.1,0,2.8-.8,5.2-2.5,7.1Z"/>
      <path class="st0" d="M107.9,299c-.6-1.5-1.2-2.8-1.7-4-.8-1.6-1.8-1.9-3.5-2.7-2.2-1-3.5-1.6-5.1.4-.5.7-1,1.4-1.4,2.2-.3.5-.3,1.1,0,1.6.4.8,1,1.6,1.7,2.3,1.9,1.8,2.5-1,3.8-1.7,1.9-1,3.9,1.3,5,2.7,1.3,1.8,2.7,3.6,4,5.5,0,.1.2.1.3,0h0s0,0,0,0c0,0,0,0,0,0,0,0,0,0,0,0,0,0,0,0,0,0,0,0,0,0,0,0,0,0,0,0,0,0,0,0,0,0,0,0,0,0,0,0,0,0,0,0,0,0,0,0-1.2-1.9-2.3-3.9-3.1-6.1Z"/>
      <path class="st0" d="M499.7,297.2c1.3.7,1.9,3.6,3.8,1.7.7-.7,1.3-1.5,1.7-2.3.3-.5.3-1.1,0-1.6-.4-.8-.9-1.5-1.4-2.2-1.6-2.1-2.9-1.5-5.1-.4-1.8.8-2.7,1.1-3.5,2.8-.6,1.1-1.2,2.5-1.8,4-.9,2.3-2,4.2-3.2,6.1,0,0,0,0,0,0,0,0,0,0,0,0,0,0,0,0,0,0,0,0,0,0,0,0,0,0,0,0,0,0,0,0,0,0,0,0,0,0,0,0,0,0,0,0,0,0,0,0,0,0,0,0,0,0h0c.1,0,.2,0,.3,0,1.3-1.9,2.7-3.8,4-5.5,1.1-1.5,3.1-3.8,5-2.8Z"/>
      <path class="st0" d="M209.1,312.5c.3.2.6.2.9,0l6.2-5.8c.3-.2.3-.7,0-.9l-6.2-6.7s0,0,0,0c0,0,0,0,0,0,0,0,0,0-.1,0,0,0,0,0-.1,0,0,0,0,0-.1,0,0,0,0,0-.1,0,0,0,0,0-.1,0,0,0,0,0-.1,0,0,0,0,0-.1,0l-6.3,6.7c-.2.3-.2.7,0,.9l6.3,5.8Z"/>
      <path class="st0" d="M154.3,320.8c.6-.6,1.7-.8,2.1-1.2,0,0,0,0,0,0,0,0,0,0,0,0,0,0,0,0,0,0,0,0,0,0,0,0,0,0,0,0,0,0-2.1.5-7.2,3.1-5.1,6.1.9,1.3,2.2,1.6,3.8.8,0,0,0,0,.1-.1,0,0,0,0,0,0,0,0,0,0,0,0,0,0,0,0,0,0,0,0,0,0,0,0,0,0,0,0,0,0,0,0,0,0,0,0,0,0,0,0,0-.1,0,0,0-.1-.1-.1-.5-.4-.9-.8-1.2-1.1-.6-.4-.8-1.1-.7-1.8.1-.6.5-1.2,1.1-1.8Z"/>
      <path class="st0" d="M537.4,361.5c.4-7.8-5.8-11.4-12.4-13.2-2.5-.7-5.7-1.7-9.6-3.1-1.1-.4-2.3-1.2-3.4-2.3-1.7-1.6-2.3-4.2-1.2-6.2,1.4-2.3,3.4-3.6,6.2-3.9,8.1-.8,11.8,4.7,15,11.4.5,1,1.3,1.3,2.4,1.1.2,0,.3-.2.3-.4v-12.8c0-.4-.3-.8-.8-.8h-1.6c-.2,0-.5,0-.6.2l-1.1.9c-.4.3-1,.4-1.4.2-3.1-1.5-6.4-2.3-10-2.3-5.3,0-9.7.2-14.1,3.3-4.1,2.9-5.6,6.8-4.5,11.7,1.1,5.2,5,7.8,9.8,9.3,1.7.5,4.7,1.4,9,2.8,2.6.8,5.3,2.1,6.7,4.2,1,1.5,1.2,3,.7,4.3-1.3,3.4-4.7,4.8-8.4,5.1-3.3.3-6.4-1.1-9.3-2.8-3.2-1.8-5.6-5.6-7.1-8.9-.5-1.1-1.4-1.5-2.6-1,0,0-.2.1-.2.2v13.7c0,.3.2.5.4.6,1.6.6,2.7,0,3.9-1.2.4-.4,1-.5,1.5-.3,4,1.8,7.6,2.7,12.2,2.6,3.1,0,4.9,0,5.4-.1,6.9-.9,14.3-4.7,14.7-12.4Z"/>
      <path class="st0" d="M207.7,370.8c0-2.8.2-5.8.4-9,0-.3,0-.8-.2-1.4,0-.2-.2-.3-.3-.3-1,0-1.4,0-2,1-1.4,2.3-3.4,4.2-6.1,5.6-.1,0-.3.1-.4.2-3.5.9-6.9,1.2-10.4.9-1.5-.1-4.2-.5-5-1.9-1.1-2.1-.8-5.3-.9-7.9,0-1.2.2-2,.7-2.5.9-1,1.9-2.1,2.8-3,0,0,0,0,0,0,0,0,0,0,0,0,0,0,0,0,0,0,0,0,0,0,0,0,0,0,0,0,0,0s0,0,0,0c0,0,0,0,0,0,0,0,0,0,0,0,0,0,0,0,0,0-1.3-1.2-3.4-3-3.5-4.5,0-1.8,0-5,0-9.5,0-1.8.5-3.1,2.3-3.6,1.2-.3,2.5-.6,4-.8.4,0,.6-.3.6-.7v-.6c0-.3-.3-.6-.6-.6h-23.6c-.2,0-.4,0-.5.2,0,0,0,0,0,.1,0,.1-.1.2-.1.4v.2c0,.6.4,1.1,1,1.2,2.8.4,5.8,1.1,5.8,4.6,0,2.8,0,5.6,0,8.2,0,2.5-2.1,3.9-3.3,5.4-.2.3-.2.7.1,1,1.1.8,3.1,2.7,3.1,4.3,0,2.1,0,5.3,0,9.6,0,2.8-.8,3.9-3.5,4.4-4.5.8-7.7-.7-9.4-4.7-3.7-8.3-8.9-20-15.5-34.9-.1-.3-.5-.5-.8-.5h-4.9c-.5,0-1,.3-1.2.8-2.8,6.3-5.6,12.5-8.5,18.8-1,2.2-5.1,3.9-7.2,4.7,0,0-.1,0-.1,0,0,0,0,0,0,0,0,0,0,0,0,0,0,0,0,0,0,0,0,0,0,0,0,0,0,0,0,0,0,0,0,0,0,0,0,.1,0,0,0,0,0,0,0,0,0,.1,0,.1.9.9,1.5,1.5,2,2,.8.9,1.4,1.3,1,2.4-.9,2-1.8,4-2.7,5.9-1.6,3.4-3.7,4.4-7.7,5.4-.4.1-.7.3-.7.6,0,0,0,0,0,.1,0,0,0,0,0,0,0,0,0,0,0,0,0,0,0,0,0,0,0,0,0,0,0,0,0,0,0,0,0,0,0,0,0,0,0,0,0,0,0,0,0,0,0,0,0,0,0,0,0,0,0,0,0,0,0,0,0,0,0,0,0,0,0,0,0,0,0,0,0,0,0,0,0,0,0,0,0,0,0,0,0,0,0,0,0,0,0,0,0,0,0,0,.1,0,.2,0,5.2,0,10.5,0,16,0,.7,0,1.1,0,1.1,0,0,0,.1,0,.2,0,0,0,0,0,0,0,0,0,0,0,.1,0,0,0,0,0,0,0,0,0,0,0,0,0,0,0,0,0,0,0,0,0,0,0,0-.1,0,0,0,0,0,0,0,0,0-.1,0-.2,0,0,0,0,0,0,0,0,0,0,0,0,0-.1,0-.2,0-.3,0,0,0,0,0,0,0,0,0,0,0-.1,0,0,0,0,0,0,0,0,0,0,0,0,0,0,0,0,0,0,0,0-.1,0-.2-.1-2.3-1.1-4.6-2.1-3.4-5.2.7-2,1.4-3.9,2.3-5.5.4-.8,1.2-1.1,2.2-1.1,5.6,0,9.8,0,12.4,0,1.1,0,1.9.5,2.2,1.5,1.2,3.6,2,6,2.2,7.2.2,1,0,1.7-.9,2.1-1.4.6-3,.9-4.8.9-.3,0-.6.3-.6.6v.5c0,.4.3.7.7.7,16.7,0,37.8,0,63.4,0,1.4,0,1.3-1.3,1.3-2.3ZM144.3,354s0,0,0,0c0,0,0,0,0,0,0,0,0,0,0,0,0,0,0,0,0,0,0,0,0,0,0,0,0,0,0,0,0,0,0,0,0,0,0,0,0,0,0,0,0,0,0,0,0,0,0,0,0,0,0,0,0,0,0,0,0,0,0,0,0,0,0,0,0,0,0,0,0,0,0,0,0,0-.2,0-.3,0h-10.1c-.1,0-.2,0-.3,0,0,0,0,0,0,0,0,0,0,0,0,0,0,0,0,0-.1,0,0,0,0,0,0,0,0,0,0,0,0,0,0,0,0,0,0,0,0,0,0,0,0,0,0,0,0,0,0,0,0,0,0,0,0,0,0,0,0,0,0,0,0,0,0,0,0,0,0,0,0,0,0-.1,0,0,0,0,0,0,0,0,0-.1,0-.2,0,0,0-.1,0-.2l5.6-12.9c0,0,0-.1,0-.2,0,0,0,0,0,0,0,0,0,0,0-.1,0,0,0,0,0,0,0,0,0,0,0,0,0,0,0,0,0,0,0,0,0,0,0,0,0,0,0,0,0,0,0,0,0,0,0,0,0,0,0,0,0,0,0,0,0,0,0,0,0,0,0,0,0,0,0,0,0,0,0,0,0,0,0,0,0,0,0,0,0,0,0,0,0,0,0,0,0,0,0,0,0,0,0,0,0,0,0,0,0,0,0,0,0,0,0,0,0,0,0,0,0,0,0,0,0,0,0,.1,0,0,0,0,0,0,0,0,0,.1,0,.2l4.6,12.9c0,0,0,.2,0,.3,0,0,0,0,0,0,0,0,0,0,0,0Z"/>
      <path class="st0" d="M325.9,373.1c7.1,0,14.7-2.4,20-7.3,5-4.7,6.4-12.1,4.8-18.6-2.8-11.1-14.8-15.7-25-15.8-4,0-12.2,0-24.6,0-.3,0-.6.3-.6.6,0,.5,0,.8.4,1.1.1,0,.2.2.4.2,3,.6,5.7.8,6.1,3.9.2,1.1.2,4,.1,8.5,0,.9,0,1.8-.5,2.5-.6.9-1.6,2-2.9,3.4,0,0,0,0,0,0,0,0,0,0,0,.1,0,0,0,0,0,.1,0,0,0,0,0,.1,0,0,0,0,0,.1,0,0,0,0,0,.1,0,0,0,0,0,.1,0,0,0,0,0,.1,0,0,0,0,0,.1,1.7,1.5,3.4,2.9,3.4,5.4,0,5.5,0,8.4,0,8.7,0,3-1.7,4.6-4.8,4.6-3.2,0-5.6-.9-7.2-3-.6-.8-1.4-2.5-1.8-3.4-3.5-7.9-8.4-19.1-14.8-33.5-.2-.4-.5-.6-.9-.6h-4.7c-.6,0-1,.3-1.3.8-1.4,3.2-4.2,9.3-8.3,18.4-.6,1.2-1.5,2.2-2.7,2.8-1.7.9-3.3,1.6-4.6,2.3,0,0-.1,0-.2.1,0,0,0,0,0,0,0,0,0,.1,0,.2,0,0,0,0,0,0,0,0,0,0,0,0,0,0,0,.1,0,.2,0,0,0,.1.1.2l2.5,2.4c.4.4.6,1,.4,1.6-.9,2.4-1.9,4.7-3,6.8-.9,1.7-2.4,3.3-4.3,3.8,0,0-.1,0-.2,0,0,0,0,0,0,0,0,0,0,0-.1,0,0,0,0,0,0,0,0,0,0,0,0,0,0,0,0,0,0,0,0,0,0,0,0,0,0,0,0,0,0,0,0,0,0-.1,0-.2l.5-9.2c0-.1,0-.2-.1-.3-.5-.4-1-.5-1.6-.3-.1,0-.3.2-.3.3-1.7,2.4-2.5,3.5-5,5.4-.8.6-2,1.1-3.7,1.4-3.5.7-6.8.8-9.9.3-1-.1-2-.5-2.9-.9-.2,0-.3-.2-.4-.3-.5-.8-.8-1.3-.9-1.6-.4-2.2-.5-4.8-.3-7.8.1-1.6,2.3-3.5,3.3-4.4,0,0,0,0,0,0,0,0,0,0,0,0,0,0,0,0,0,0,0,0,0,0,0-.1,0,0,0,0,0-.1,0,0,0,0,0-.1,0,0,0,0,0-.1,0,0,0,0,0,0,0,0,0,0,0-.1-1.1-1-3.5-3-3.4-4.2.1-3.3.2-6.2.1-8.9,0-2.5.3-4.1,2.9-4.6,1.6-.3,2.6-.5,3.3-.5.4,0,.6-.3.7-.7v-.6s0,0,0,0c0,0,0,0,0-.1,0,0,0,0,0-.1,0,0,0,0,0-.1,0,0,0,0,0,0,0,0,0,0,0,0,0,0,0,0,0,0,0,0,0,0-.1,0,0,0,0,0-.1,0h-23.7c0,0-.1,0-.2,0,0,0,0,0,0,0,0,0,0,0,0,0,0,0,0,0,0,0,0,0,0,0,0,0,0,0,0,0,0,0s0,0,0,0c0,0,0,0,0,0,0,0,0,0,0,0,0,0,0,0,0,0,0,0,0,0,0,0,0,0,0,0,0,0,0,0,0,0,0,0,0,0,0,0,0,0,0,0,0,0,0,0,0,0,0,0,0,0,0,0,0,.1,0,.2v.4c.3.5.7.8,1.2.9,2.1.3,4.5.7,5.3,2.7,0,.3.2,1.4.2,3.4,0,4.2.1,6.4.1,6.6,0,2.3-1.9,3.9-3.4,5.6-.1.1-.1.3,0,.5.9,1.2,3.2,2.4,3.3,4.7,0,2.2,0,5.8,0,11,0,2.7-3.9,3-5.9,3.2-.4,0-.7.4-.7.8v.3s0,0,0,0c0,0,0,0,0,0,0,0,0,0,0,0,0,0,0,0,0,0,0,0,0,0,0,0,0,0,0,0,0,0,0,0,0,0,0,0,0,0,0,0,0,0,0,0,0,0,0,0s0,0,0,0c0,0,0,0,0,0,0,0,0,0,0,0,0,0,0,0,0,0,0,0,0,0,0,0,0,0,0,0,0,0,0,0,0,0,0,0,0,0,0,0,0,0,11.4,0,30.1,0,56.1,0s.7,0,.7,0c0,0,.1,0,.2-.1,0,0,0,0,0,0,0,0,.1-.1.1-.2,0,0,0,0,0,0,0,0,0,0,0,0,0,0,0-.1,0-.2,0,0,0,0,0,0,0,0,0,0,0,0,0,0,0,0,0,0,0,0,0,0,0,0,0,0,0,0,0,0,0,0,0,0,0,0,0,0,0-.1,0-.2,0,0,0,0,0,0,0,0,0-.1-.1-.2,0,0,0,0,0,0,0,0-.1-.1-.2-.2-1.7-1.1-4.3-1.4-3.6-4.2.7-2.5,1.5-5.5,3.1-7.3.2-.2.5-.4.8-.4h13.8c.6,0,1.1.4,1.2.9l2.9,8.2c.2.5,0,1-.5,1.3-1.5.9-3.1,1-5.4,1.3,0,0,0,0,0,0,0,0,0,0,0,0,0,0,0,0,0,0,0,0,0,0,0,0,0,0,0,0,0,0,0,0,0,0,0,0,0,0,0,0,0,0,0,0,0,0,0,0,0,0,0,0,0,0,0,0,0,0,0,0,0,0,0,0,0,0,0,0,0,0,0,0,0,0,0,0,0,0,0,0,0,0,0,0,0,0,0,0,0,0,0,0,0,0,0,0,0,0,0,0,0,0h0c0,.5.4.8.9.8,15.6,0,31.3,0,47.1,0ZM318.5,337c0-1,0-1.9.2-2.7,0-.3.3-.5.6-.5,1.7-.1,3.7-.1,6.1,0,7.3.4,11.5,6.3,12.8,12.8,1,4.9.8,9.8-.5,14.6-1.9,7-6.7,10.2-14.4,9.7-.9,0-1.8-.4-2.8-1.1-1.3-.8-1.9-2.1-1.9-3.7,0-5.5,0-15.3,0-29.1ZM279.8,353.9s0,0,0,0c0,0,0,0,0,0,0,0,0,0,0,0,0,0,0,0,0,0,0,0,0,0,0,0,0,0,0,0,0,0,0,0,0,0,0,0,0,0,0,0,0,0,0,0,0,0,0,0,0,0,0,0,0,0,0,0,0,0,0,0,0,0,0,0,0,0,0,0,0,0,0,0,0,0-.2,0-.3,0h-10.1c-.1,0-.2,0-.3,0,0,0,0,0,0,0,0,0,0,0,0,0,0,0-.1,0-.1,0,0,0,0,0,0,0,0,0,0,0,0,0,0,0,0,0,0,0,0,0,0,0,0,0,0,0,0,0,0,0,0,0,0,0,0,0,0,0,0,0,0,0,0,0,0,0,0,0,0,0,0-.1,0-.2,0,0,0,0,0,0,0,0,0-.1,0-.2,0,0,0-.1,0-.2l5.5-12.8c0,0,0-.1,0-.2,0,0,0,0,0,0,0,0,0,0,.1-.1,0,0,0,0,0,0,0,0,0,0,.1,0,0,0,0,0,0,0,0,0,0,0,.1,0,0,0,0,0,0,0,0,0,0,0,0,0,0,0,0,0,0,0,0,0,0,0,0,0,0,0,0,0,0,0,0,0,0,0,0,0,0,0,0,0,0,0,0,0,0,0,0,0,0,0,0,0,0,0,0,0,0,0,0,0,0,0,0,0,0,0,0,0,0,0,0,0,0,0,0,0,0,0,0,0,0,0,0,.1,0,0,0,0,0,0,0,0,0,.1,0,.2l4.5,12.8c0,0,0,.2,0,.3,0,0,0,0,0,0,0,0,0,0,0,0Z"/>
      <path class="st0" d="M496.5,372.7l.6-11.3c0-.2,0-.3,0-.5-.2-.4-.7-.5-1.6-.2-.1,0-.3.1-.4.3-.1.2-.5.8-1.1,2-1.4,2.6-3.3,3.9-6.3,4.6-4.3.9-8.4,1.1-12.3.6-3.2-.4-4-2.7-4-5.4,0-3,0-6.1,0-9.2,0-.4.3-.7.7-.8,2.1-.3,4.3-.2,6.5.1,4,.6,5.3,3.4,6.4,6.9,0,0,0,.1,0,.2,0,0,0,0,0,0,0,0,0,0,0,.1,0,0,0,0,0,0,0,0,0,0,0,0,0,0,0,0,0,0,0,0,0,0,0,0,0,0,0,0,.1,0,0,0,0,0,.1,0,0,0,0,0,.1,0,0,0,0,0,.1,0,0,0,0,0,.1,0,0,0,0,0,.1,0,0,0,0,0,.1,0,0,0,0,0,.1,0,0,0,0,0,.1,0,0,0,.1,0,.2,0,.3-.1.4-.4.4-.9,0-3.1-.1-8.3,0-15.5,0-.4-.3-.8-.7-.9-.8-.2-1.2,0-1.4.5-1.1,3.6-2.8,6.3-7,6.6-2.3.2-4.2.2-5.7,0-.3,0-.5-.2-.6-.5-.2-.5-.2-1.1-.2-1.7,0-2.7,0-6.6,0-11.6,0-.4.3-.8.8-.8,4.7-.2,9.3,0,13.8.4,3.3.4,4.3,2.4,5.8,4.9.6,1,1.3,1.2,2.1.7.2-.1.3-.3.3-.5v-9.4c0-.2-.2-.4-.4-.4h-39.6s0,0,0,0c0,0,0,0,0,0,0,0,0,0,0,0,0,0,0,0,0,0,0,0,0,0,0,0,0,0,0,0,0,0,0,0,0,0,0,0,0,0,0,0,0,0,0,0,0,0,0,0,0,0,0,0,0,0,0,0,0,0,0,0,0,0,0,0,0,0,0,0,0,0,0,0,0,0,0,0,0,0,0,0,0,0,0,0,0,0,0,0,0,0,0,0,0,0,0,.1.2,1.5,2,1.5,3.7,1.9,3.1.8,3,2.8,3,5.8,0,.8,0,2.7,0,5.6,0,1.4,0,2.5-.9,3.6-1.4,1.5-2.2,2.4-2.6,2.8-.1.2-.1.4,0,.5,1.7,1.6,3.5,2.8,3.5,5.4,0,4.4,0,7.2,0,8.3,0,1.8-.2,3.6-2,4.3-1.3.5-2.6.8-4,.8-.4,0-.7.3-.7.7v.3c0,.3.1.5.3.7,0,0,.2,0,.3.1,0,0,.1,0,.2,0h41.9c.2,0,.4-.2.4-.4Z"/>
      <path class="st0" d="M116.7,333.7c.5,0,.9-.5.9-1v-.2c0-.5-.4-.9-.9-.9h-16.6c-.3,0-.6.2-.6.5,0,.4,0,.8,0,1.1,0,.2.2.3.3.3,1.8.5,3.2.8,4.2,2.1.7.9-.5,4.1-.9,5-1.5,3.6-4.6,10.8-9.2,21.4-.2.5-.4.9-.6,1,0,0,0,0-.1,0,0,0,0,0,0,0,0,0,0,0,0,0,0,0,0,0,0,0,0,0,0,0,0,0,0,0,0,0,0,0,0,0,0,0,0,0,0,0,0,0,0,0,0,0,0,0,0,0,0,0,0,0,0,0,0,0,0,0,0,0,0,0,0,0,0,0,0,0,0,0,0,0,0,0,0,0,0,0,0,0,0,0,0,0,0,0,0,0,0,0,0,0,0,0,0-.1-4.4-9.1-8.2-17.5-11.4-25.3-.3-.7-.4-1.3-.4-1.8,0-.5.4-1,.8-1.2,1-.5,2.4-.7,4-.8,0,0,0,0,0,0,0,0,0,0,0,0,0,0,0,0,.1,0,0,0,0,0,.1,0,0,0,0,0,.1,0,0,0,0,0,0,0,0,0,0,0,0,0,0,0,0,0,0,0,0,0,0,0,0,0,0,0,0,0,0,0,0,0,0,0,0,0,0,0,0,0,0,0,0,0,0,0,0,0,0,0,0,0,0-.1,0,0,0,0,0-.1,0,0,0,0,0-.1,0,0,0,0,0-.1h0c0-.7-.6-1.2-1.2-1.2-7.2,0-14,.1-20.6,0-.5,0-.8.2-.9.6,0,.3,0,.7.2,1.2,0,.2.2.3.4.3.7.2,1.8.3,2.7.7,2.2,1,3.8,2.6,4.9,4.8,1.1,2.4,6.3,13.8,15.4,34,.2.5.7.8,1.2.8h4.7c.4,0,.8-.2,1-.6,4.7-9.9,10.1-21.2,16.1-33.9,1.4-3,3.1-5.2,6.5-5.7Z"/>
      <path class="st0" d="M101,399.5c.5-.5.7-1.2.5-1.8-.7-2.2-2.7-3.8-3.7-5.3-.9-1.3-1.9-2.1-3-3.3-3.2-3.3-7.7-4-12.1-4.8-2.7-.5-4.7.2-6.7,2.4-2.3,2.4-4.2,4.2-3.6,7.8.6,3.6,3,7,6.5,8,1.8.6,4.4,0,5.9-1.4.4-.4,1.3-1,1.6-1.6.3-.7.5-1.5.6-2.4.2-2.5-3.8-4.4-5.8-3.2-.4.3-.6.8-.4,1.3.2.5,1,1.6.9,2.4-.3,3-4.3,2.8-6,1.2-.5-.4-.6-1.2-.2-1.7.3-.4.7-.8,1.3-1.2,0,0,.1,0,.2-.2,0,0,0,0,0,0,0,0,0-.1.1-.2,0,0,0,0,0,0,0,0,0,0,0,0,0,0,0,0,0,0,0,0,0,0,0,0,0,0,0,0,0,0,0,0,0,0,0,0,0,0,0,0,0,0,0,0,0,0,0,0,0,0,0,0,0,0,0,0,0,0,0,0,0,0,0,0,0,0,0,0,0-.1-.1-.2,0,0,0,0,0,0,0,0-.1,0-.2-.1-1.2-.4-1.8-1.4-1.8-2.8,0-2.6,2.2-5.9,5.3-5.6.3,0,.5.3.5.5-.1,1.7-.4,2.5,1.1,3.9.6.5,1.2.6,1.8.2.1,0,.2-.2.3-.3.4-1,.4-3.1,2.1-3.4,2.5-.4,4.7,0,6.5,1.4.9.7,2,1.5,2.4,2.6,0,0,0,0,0,0,0,0,0,0,0,.1,0,0,0,0,0,.1,0,0,0,0,0,.1,0,0,0,0,0,.1,0,0,0,0,0,0,0,0,0,0,0,0,0,0,0,0-.1,0,0,0,0,0-.1,0l-1.8.6c-.4.1-.8.4-1,.8-.8,1.2-1.1,2.4-1,3.7,0,.2.1.5.3.7l1,1.1c0,0,.1.1.1.2,0,0,0,0,0,0,0,0,0,0,0,0,0,0,0,0,0,0,0,0,0,0,0,0,0,0,0,0,0,0,0,0,0,.1,0,.2,0,0,0,.1,0,.2,0,0,0,0,0,0,0,0,0,0,0,0,0,0,0,0,0,0,0,0,0,0,0,0,0,0-.1.1-.2.1-4.4,1.6-8.1,4.3-11,8.1-.7,1-1.1,1.4-1,2.5,0,.6,0,1.3,0,1.9-.4,2.1.3,5.8,1.9,7.4,1.9,1.9,3.4,3.4,6,4,.6.1,2,0,4.3-.5,1.9-.4,3.5-1.7,4.8-3.8,1.6-2.6,1.2-5-1-7-1.7-1.5-4.4-.4-5.7,1.1-.3.4-.3.9,0,1.2,2.3,2.2,4.3,3.4,1,6.2-.9.8-1.9,1.1-3,.9,0,0,0,0,0,0,0,0,0,0,0,0,0,0,0,0,0,0,0,0,0,0,0,0,0,0,0,0,0,0,0,0,0,0,0,0,0,0,0,0,0,0,0,0,0,0,0,0,0,0,0,0,0,0,0,0,0,0,0,0,0,0,0,0,0,0,0,0,0,0,0,0,0,0,0,0,0,0,0,0,0,0,0,0,0,0,0,0,0,0,0,0,0,0,0,0,0,0,0,0,0-.1l.5-2.1s0,0,0-.1c0,0,0,0,0,0,0,0,0,0,0,0,0,0,0,0,0,0,0,0,0,0,0,0,0,0,0,0,0,0,0,0,0,0,0,0,0,0,0,0,0,0,0,0-.1,0-.2,0-.4,0-1,0-1.8,0-2.5,0-4.6-3.6-3.6-5.8,0,0,0,0,0,0,0,0,0,0,0,0,0,0,0,0,0,0,0,0,0,0,0,0,0,0,0,0,0,0,0,0,0,0,0,0,0,0,0,0,0,0,0,0,0,0,0,0,0,0,0,0,0,0,0,0,0,0,0,0,0,0,0,0,.1,0,0,0,0,0,.1,0,0,0,0,0,.1,0,0,0,0,0,.1,0,0,0,0,0,.1,0,0,0,0,0,.1,0,0,0,.1,0,.1,0,.9.5,2.9,1.4,3.7.6.2-.2.2-.6,0-1.1,0,0,0-.3-.2-.7-.1-.4-.1-.8-.1-1.2.1-1.9-.1-4.4.6-5.6,1.1-2,3-3.1,5.3-2.9.2,0,.3.1.3.3,0,.9,0,1.8-.3,2.6,0,.3,0,.7.1,1,1.4,2.2,2.6,4.3,5.3,3.8,0,0,.1,0,.2,0,0,0,0,0,0,0,0,0,0,0,0,0,0,0,0,0,0,0,0,0,0,0,0,0,0,0,0,0,0,0,0,0,0,0,0,0,0,0,0,0,0,0,0,0,0,0,0,0,0,0,0,0,0,0,0,0,0,0,0,0,0,0,0,0,0,0,0,0,0,0,0,0,0,0,0,0,0,0,0,0,0,0,0,0,0,0,0,0,0,0,0,0,0-.1,0-.2-1-2.2.4-2.7.4-4.5,0-1.4.6-2.7,1.9-3.8ZM98.7,397.3s0,0,0,0c0,0,0,0,0,0,0,0,0,0,0,0l-4.3,1.7s0,0,0,0h0c-.3-.8.4-1.8,1.6-2.3h.1c0,0,0,0,0,0,0,0,.1,0,.2,0,0,0,.1,0,.2,0,0,0,.1,0,.2,0,0,0,.1,0,.2,0,0,0,.1,0,.2,0,0,0,.1,0,.2,0,0,0,.1,0,.2,0,0,0,.1,0,.2,0,0,0,.1,0,.2,0,0,0,.1,0,.2,0,0,0,0,0,.1,0,0,0,.1,0,.1,0,0,0,0,0,.1.1,0,0,0,0,.1.1,0,0,0,0,0,.1,0,0,0,0,0,.1h0s0,0,0,0c0,0,0,0,0,0Z"/>
      <path class="st0" d="M520.3,394c-2-1.2-6,.8-5.8,3.2,0,.9.3,1.7.6,2.4.3.6,1.2,1.2,1.6,1.6,1.6,1.5,4.1,2,6,1.4,3.5-1.1,5.9-4.4,6.5-8,.6-3.6-1.4-5.4-3.6-7.8-2.1-2.1-4-2.9-6.7-2.4-4.4.8-8.9,1.5-12.1,4.8-1.1,1.1-2.2,2-3,3.3-1,1.5-3,3.2-3.7,5.3-.2.6,0,1.3.5,1.8,1.3,1.2,1.9,2.5,1.9,3.8,0,1.8,1.4,2.3.4,4.5,0,0,0,.1,0,.2,0,0,0,0,0,0,0,0,0,0,0,0,0,0,0,0,0,0,0,0,0,0,0,0,0,0,0,0,0,0,0,0,0,0,0,0,0,0,0,0,0,0,0,0,0,0,0,0,0,0,0,0,0,0,0,0,0,0,0,0,0,0,0,0,0,0,0,0,0,0,0,0,0,0,0,0,0,0,0,0,0,0,0,0,0,0,0,0,0,0,0,0,0,0,.2,0,2.7.5,3.9-1.5,5.3-3.8.2-.3.2-.7.1-1-.2-.8-.3-1.7-.3-2.6,0-.2.1-.3.3-.3,2.3-.1,4.2,1,5.3,2.9.7,1.2.4,3.7.6,5.6,0,.4,0,.8-.1,1.2-.1.4-.2.6-.2.7-.2.5-.2.9,0,1.1.7.9,2.8,0,3.7-.6,0,0,0,0,0,0,0,0,0,0,0,0,0,0,0,0,.1,0,0,0,0,0,.1,0,0,0,0,0,.1,0,0,0,0,0,.1,0,0,0,0,0,.1,0,0,0,0,0,.1,0,0,0,0,0,0,0,0,0,0,0,0,0,0,0,0,0,0,0,0,0,0,0,0,0,0,0,0,0,0,0,0,0,0,0,0,0,0,0,0,0,0,0,0,0,0,0,0,0,0,0,0,0,0,.1,1,2.2-1.1,5.9-3.6,5.8-.8,0-1.4,0-1.8,0,0,0,0,0-.1,0,0,0,0,0,0,0,0,0,0,0,0,0,0,0,0,0,0,0,0,0,0,0,0,0,0,0,0,0,0,0,0,0,0,0,0,0,0,0,0,0,0,0,0,0,0,.1,0,.2l.5,2.1s0,0,0,0c0,0,0,0,0,0,0,0,0,0,0,0,0,0,0,0,0,0,0,0,0,0,0,0,0,0,0,0,0,0,0,0,0,0,0,0,0,0,0,0,0,0,0,0,0,0,0,0,0,0,0,0,0,0,0,0,0,0,0,0,0,0,0,0,0,0,0,0,0,0,0,0,0,0,0,0,0,0,0,0,0,0,0,0,0,0,0,0,0,0,0,0,0,0-.1,0-1.1.1-2.1-.2-3-.9-3.3-2.8-1.2-4,1.1-6.2.3-.3.4-.9,0-1.2-1.3-1.5-4.1-2.6-5.7-1.1-2.2,2.1-2.6,4.4-1,7,1.3,2.1,2.8,3.4,4.8,3.8,2.3.5,3.8.7,4.3.5,2.6-.7,4.2-2.2,6-4,1.6-1.6,2.3-5.3,1.9-7.4-.1-.7-.2-1.3,0-1.9.2-1.1-.2-1.6-1-2.5-3-3.8-6.7-6.6-11-8.2,0,0-.2,0-.2-.1,0,0,0,0,0,0s0,0,0,0c0,0,0,0,0-.1,0,0,0,0,0,0,0,0,0,0,0,0,0,0,0,0,0,0,0,0,0,0,0,0,0,0,0,0,0,0,0,0,0,0,0,0,0,0,0,0,0,0,0,0,0,0,0,0,0,0,0,0,0-.1,0,0,0,0,0,0,0,0,0-.2.1-.2l1-1.1c.2-.2.3-.4.3-.7.1-1.2-.2-2.4-1-3.7-.2-.4-.6-.6-1-.8l-1.8-.6s0,0,0,0c0,0,0,0,0,0,0,0,0,0-.1,0,0,0,0,0,0,0,0,0,0,0,0,0,0,0,0,0,0-.1,0,0,0,0,0-.1,0,0,0,0,0-.1,0,0,0,0,0-.1.4-1.1,1.5-1.9,2.4-2.6,1.8-1.4,4-1.9,6.6-1.4,1.7.3,1.7,2.4,2.1,3.4,0,.1.2.3.3.3.7.4,1.3.3,1.8-.2,1.5-1.4,1.2-2.2,1.1-3.9,0-.3.2-.5.5-.5,3.1-.3,5.2,2.9,5.3,5.6,0,1.5-.5,2.4-1.8,2.8,0,0-.1,0-.2.1,0,0,0,0,0,0,0,0-.1,0-.1.2,0,0,0,0,0,0,0,0,0,0,0,0,0,0,0,0,0,0,0,0,0,0,0,0,0,0,0,0,0,0,0,0,0,0,0,0,0,0,0,0,0,0,0,0,0,0,0,0,0,0,0,0,0,0,0,0,0,0,0,0,0,0,0,0,0,0,0,0,0,.1.1.2,0,0,0,0,0,0,0,0,0,.1.2.2.6.4,1.1.8,1.3,1.2.4.5.3,1.3-.2,1.7-1.7,1.5-5.8,1.8-6-1.3,0-.8.7-1.9.9-2.4.2-.5,0-1-.4-1.3ZM507.2,398.8h0c0,.1,0,.1,0,.1,0,0,0,0,0,0,0,0,0,0,0,0,0,0,0,0,0,0,0,0,0,0,0,0l-4.1-1.6s0,0,0-.1h0c.3-.8,1.3-1.1,2.2-.7l.8.3c1,.4,1.5,1.2,1.3,1.9Z"/>
      <path class="st0" d="M366.8,398.3c-3.9,2-8.4,4.8-7,10,.9,3.1,3.1,4.7,6.6,4.9,2.9.2,5.4-.3,7.5-1.5.9-.5,1.5-.8,1.8-1,.5-.2,1.1-.2,1.5.2,2.5,2.3,6.2,3.3,9,1,1.1-.9,1.7-2.2,2.5-3.2,0,0,0,0,0,0,0,0,0,0,0,0,0,0,0,0,0,0,0,0,0,0,0,0,0,0,0,0,0,0,0,0,0,0,0,0,0,0,0,0,0,0,0,0,0,0,0,0,0,0,0,0,0,0h0c-.1-.1-.3,0-.4,0-2.1,2.6-4.5,1-6.5-.8-.7-.6-.8-1.2-.4-1.7,1.2-1.7,2.5-3.7,3.9-6,.6-1,1.4-1.7,2.4-2.1,0,0,0,0,.1,0,0,0,0,0,0,0,0,0,0,0,0-.1,0,0,0,0,0,0,0,0,0,0,0,0,0,0,0,0,0,0,0,0,0,0,0,0,0,0,0,0,0,0,0,0,0,0,0,0,0,0,0,0,0,0,0,0,0,0-.1,0h-6.2s0,0-.1,0c0,0,0,0,0,0,0,0,0,0,0,0,0,0,0,0,0,0,0,0,0,0,0,0,0,0,0,0,0,0,0,0,0,0,0,0,0,0,0,0,0,0,0,0,0,0,0,0,0,0,0,0,0,0,0,0,0,0,0,0l1.1.8c0,0,.2.2.2.3.8,2.2-.7,4.5-2.2,6.2-.2.2-.6.3-.8.1-.3-.2-.6-.5-.9-.8-1.6-1.7-2.9-3.6-4.5-5.7-1.2-1.5,0-2.2,1.5-3,1.2-.6,2.1-1.2,2.7-1.7,1.3-1.1,2.2-3.8,1.3-5.4-1.7-3-5.8-3.2-8.7-2-4.4,1.9-4.8,6.2-3.5,10.3.2.5,0,1.1-.6,1.4ZM372.2,387.4c.2-.1.4-.2.6-.2.9-.1,1.8.4,2.5,1.5,1.4,2,1.4,3.9,0,5.6-.5.6-1.5,1.3-2.3,1.4-.3,0-.7-.1-.8-.4-1.2-2.3-2.7-6.2-.1-7.9ZM367.2,399.2s0,0,0,0c0,0,0,0,0,0,0,0,0,0,0,0,0,0,0,0,0,0,0,0,0,0,0,0,0,0,0,0,0,0,0,0,0,0,0,0,0,0,0,0,0,0,0,0,0,0,0,0,0,0,0,0,0,0,0,0,0,0,0,0,0,0,0,0,0,0l6.5,9h0s0,0,0,0c0,0,0,0,0,0,0,0,0,0,0,0,0,0,0,0,0,0,0,0,0,0,0,0,0,0,0,0,0,0,0,0,0,0,0,0,0,0,0,0,0,0,0,0,0,0,0,0,0,0,0,0,0,0,0,0,0,0,0,0,0,0,0,0,0,0,0,0,0,0,0,0,0,0,0,0,0,0,0,0,0,0,0,0,0,0,0,0,0,0l-.3.2s0,0,0,0c0,0-.1,0-.2.1,0,0-.1,0-.2.1,0,0-.1,0-.2.1,0,0-.1,0-.2.1,0,0-.2,0-.2,0,0,0-.2,0-.2,0,0,0-.2,0-.2,0,0,0-.2,0-.2,0,0,0-.2,0-.2,0,0,0-.2,0-.2,0,0,0-.2,0-.2,0,0,0-.2,0-.3,0,0,0-.2,0-.2,0,0,0-.2,0-.3,0,0,0-.2,0-.2,0,0,0-.2,0-.3,0,0,0-.2,0-.2,0,0,0-.2,0-.3,0,0,0-.2,0-.2,0,0,0-.2,0-.3,0,0,0-.2,0-.2-.1,0,0-.2,0-.2-.1,0,0-.2,0-.2-.1,0,0-.2,0-.2-.1,0,0-.1-.1-.2-.2,0,0-.1-.1-.2-.2,0,0-.1-.1-.2-.2,0,0-.1-.1-.2-.2,0,0-.1-.1-.2-.2,0,0-.1-.1-.2-.2,0,0-.1-.2-.2-.2,0,0-.1-.1-.2-.2l-.7-.9c-1.9-2.6-1.6-6,.7-7.6l.3-.2h0s0,0,0,0c0,0,0,0,0,0,0,0,0,0,0,0,0,0,0,0,0,0Z"/>
      <path class="st0" d="M196.7,397.3c-.6-1.2-1.1-3-1.8-4.2-2.8-4.8-7.7-6.7-13-6.7-5.4,0-10.3,2-13,6.8-.7,1.2-1.2,3.1-1.8,4.3-.1.2-.3.5-.5.7-.4.5-1,.9-1,1.3,0,.4.6.8,1,1.3.2.2.4.4.5.7.6,1.2,1.1,3,1.8,4.2,2.8,4.8,7.7,6.7,13,6.7,5.4,0,10.3-2,13-6.8.7-1.2,1.2-3.1,1.8-4.3.1-.2.3-.5.5-.7.4-.5,1-.9,1-1.3,0-.4-.6-.8-1-1.3-.2-.2-.4-.4-.5-.7ZM182.8,411.1c-.1,0-.4,0-.8,0-.4,0-.7,0-.8,0-5.6-1.6-6.5-6.7-6.5-11.8,0-5.1.9-10.2,6.5-11.8.1,0,.4,0,.8,0,.4,0,.7,0,.8,0,5.6,1.6,6.5,6.7,6.5,11.8,0,5.1-.9,10.2-6.5,11.8Z"/>
      <path class="st0" d="M345.2,397.2c-.4-.9-.8-1.9-1.1-2.8-1.7-4.3-5.9-7.1-10.4-7.8-6.3-.9-13.6,1-16.5,7.1-.1.3-.5,1.4-1.1,3.2,0,.2-.1.3-.2.4-.4.6-.8,1.1-1.4,1.6-.2.1-.2.3-.2.5s0,.4.2.5c.6.5,1,1,1.4,1.6,0,.1.2.3.2.4.6,1.8,1,2.8,1.2,3.1,2.9,6.1,10.3,8,16.6,7,4.5-.7,8.7-3.5,10.4-7.8.4-.9.7-1.9,1.1-2.8,0-.2.1-.3.3-.4.4-.5.7-.9,1.2-1.3,0,0,.1-.2.1-.4s0-.3-.1-.4c-.4-.4-.8-.8-1.2-1.3-.1-.1-.2-.3-.3-.4ZM337.5,403.3c-.5,3.9-2.9,7.7-7.1,7.7-4.2,0-6.5-3.9-7-7.8-.6-5-.6-15.6,7.1-15.5,7.7,0,7.6,10.6,7,15.6Z"/>
      <path class="st0" d="M430.5,404.2c2.5,6.4,9.8,8.6,16.1,7.9,6.1-.7,10-3.8,11.9-9.2.6-1.6.9-2.3,2-3.2.1-.1.2-.3.2-.5,0-.2,0-.3-.2-.5-1.1-.9-1.5-1.6-2.1-3.2-1.9-5.4-5.9-8.5-12-9.1-6.3-.7-13.6,1.6-16.1,8-.7,1.8-.9,3.2-2.6,4.5-.1,0-.2.2-.2.4s0,.3.2.4c1.7,1.3,1.9,2.7,2.6,4.4ZM436.8,397.4c.5-3.8,1.3-7.7,5.1-9.3,3.5-1.4,6.7.3,8.3,3.5,1.2,2.5,1.4,4.8,1.4,7.8,0,3-.2,5.3-1.4,7.8-1.6,3.2-4.8,4.9-8.3,3.4-3.8-1.6-4.5-5.5-5-9.3-.1-.9-.2-1.6-.2-1.9,0-.3,0-1,.2-1.9Z"/>
      <path class="st0" d="M269.6,411.9c6.2,1,11.7.2,15.2-5.5.2-.3.3-.6.2-.8,0,0,0-.1-.1-.2,0,0,0,0,0,0,0,0,0,0,0,0,0,0,0,0,0,0,0,0,0,0,0,0,0,0,0,0,0,0,0,0,0,0,0,0,0,0,0,0,0,0,0,0,0,0,0,0,0,0,0,0,0,0,0,0,0,0,0,0,0,0,0,0,0,0,0,0,0,0,0,0,0,0,0,0,0,0,0,0,0,0,0,0,0,0,0,0,0,0,0,0-.2,0-.2.2-2.5,2.6-4.7,4.4-8.6,4.4-4.2,0-6.9-2.6-8.1-6.5-.5-1.6.2-2.5,1.3-3.5.3-.2.3-.7,0-.9l-1.1-1.4c-.3-.4-.5-.9-.5-1.4.3-3.7,2-7.7,6.1-8.2,5.9-.7,7.8,3.2,10,7.6,0,0,0,0,0,.1,0,0,0,0,0,0,0,0,0,0,0,0,0,0,0,0,0,0,0,0,0,0,0,0,0,0,.1,0,.2.1,0,0,0,0,0,0,0,0,.2,0,.2,0,0,0,0,0,0,0,0,0,.2,0,.2,0,0,0,0,0,0,0,0,0,.1,0,.2-.2,0,0,0-.2,0-.6,0-2.5,0-5-.1-7.5,0,0,0,0,0,0,0,0,0,0,0,0,0,0,0,0,0,0,0,0,0,0,0,0,0,0,0,0,0,0,0,0,0,0,0,0,0,0,0,0,0,0,0,0,0,0,0,0,0,0,0,0,0,0-1,0-2.3.8-3.3.5-4-1.6-8.1-1.7-12.3-.2-3.8,1.3-6.5,4-8.1,7.9-.7,1.7-1,2.3-2.2,3.4,0,0,0,0,0,0,0,0,0,.1-.1.2,0,0,0,0,0,0,0,0,0,.2,0,.2,0,0,0,0,0,0,0,0,0,.2,0,.2,0,0,0,0,0,0,0,0,0,.1.1.2,0,0,0,0,0,0,1.8,1.6,2.1,3.8,2.9,5.6,1.4,3.2,5.4,6,8.8,6.5Z"/>
      <path class="st0" d="M297.9,411.9c6.2.9,11.8.1,15.2-5.6.2-.3.3-.6.2-.8,0,0,0-.1-.1-.2,0,0,0,0,0,0,0,0,0,0,0,0,0,0,0,0,0,0,0,0,0,0,0,0,0,0,0,0,0,0,0,0,0,0,0,0,0,0,0,0,0,0,0,0,0,0,0,0,0,0,0,0,0,0,0,0,0,0,0,0,0,0,0,0,0,0,0,0,0,0,0,0,0,0,0,0,0,0,0,0,0,0,0,0,0,0,0,0,0,0,0,0-.2,0-.2.2-2.5,2.6-4.7,4.4-8.6,4.5-4.2,0-6.9-2.6-8.1-6.5-.5-1.6.2-2.5,1.3-3.5.3-.2.3-.7,0-.9l-1.1-1.4c-.3-.4-.5-.9-.5-1.4.2-3.7,2-7.7,6.1-8.2,5.9-.8,7.8,3.2,10,7.5,0,0,0,0,0,.1,0,0,0,0,0,0,0,0,0,0,0,0,0,0,0,0,0,0,0,0,0,0,0,0,0,0,.1,0,.2.1,0,0,0,0,0,0,0,0,.2,0,.2,0,0,0,0,0,0,0,0,0,.2,0,.2,0,0,0,0,0,0,0,0,0,.1,0,.2-.2,0,0,0-.2,0-.6,0-2.5,0-5-.2-7.5,0-.2-.2-.3-.4-.3-1,0-2.3.8-3.3.5-4.1-1.6-8.2-1.6-12.3-.2-3.8,1.3-6.5,4-8.1,8-.7,1.7-1,2.3-2.2,3.5,0,0,0,0,0,0,0,0,0,.1-.1.2,0,0,0,0,0,0,0,0,0,.2,0,.2,0,0,0,0,0,0,0,0,0,.2,0,.2,0,0,0,0,0,0,0,0,0,.2.1.2,0,0,0,0,0,0,1.8,1.6,2.2,3.8,2.9,5.6,1.4,3.2,5.4,6,8.9,6.5Z"/>
      <path class="st0" d="M414.7,387.9c5.9-.8,7.8,3.2,10,7.6,0,0,0,0,0,.1,0,0,0,0,0,0,0,0,0,0,0,0,0,0,0,0,0,0,0,0,0,0,0,0,0,0,0,0,0,0,0,0,0,0,0,0,0,0,0,0,0,0,0,0,0,0,0,0,0,0,0,0,0,0,0,0,0,0,0,0,0,0,0,0,0,0,0,0,0,0,0,0,0,0,0,0,0,0,0,0,0,0,0,0,0,0,0,0,0,0,0,0,0,0,0,0,0,0,0,0,0,0,0,0,0,0,.1-.1,0,0,0-.2,0-.6,0-2.5,0-5-.1-7.5,0,0,0,0,0,0,0,0,0,0,0,0,0,0,0,0,0,0,0,0,0,0,0,0,0,0,0,0,0,0,0,0,0,0,0,0,0,0,0,0,0,0,0,0,0,0,0,0,0,0,0,0,0,0-1,0-2.3.8-3.3.5-4.1-1.6-8.2-1.6-12.3-.2-3.8,1.3-6.5,4-8.1,8-.7,1.7-1,2.3-2.2,3.5,0,0,0,0,0,0,0,0,0,.1-.1.2,0,0,0,0,0,0,0,0,0,.2,0,.2,0,0,0,0,0,0,0,0,0,.2,0,.2,0,0,0,0,0,0,0,0,0,.2.1.2,0,0,0,0,0,0,1.8,1.6,2.2,3.8,2.9,5.6,1.4,3.2,5.4,6,8.9,6.5,6.2,1,11.8.2,15.2-5.5.2-.3.3-.6.2-.8,0,0,0-.1-.1-.2,0,0,0,0,0,0,0,0,0,0,0,0,0,0,0,0,0,0,0,0,0,0,0,0,0,0,0,0,0,0,0,0,0,0,0,0,0,0,0,0,0,0,0,0,0,0,0,0,0,0,0,0,0,0,0,0,0,0,0,0,0,0,0,0,0,0,0,0,0,0,0,0,0,0,0,0,0,0,0,0,0,0,0,0,0,0,0,0,0,0,0,0-.1,0-.2.2-2.5,2.6-4.7,4.4-8.6,4.5-4.2,0-6.9-2.6-8.1-6.5-.5-1.6.2-2.5,1.3-3.5.3-.2.3-.7,0-1l-1.1-1.4c-.3-.4-.5-.9-.5-1.4.2-3.7,2-7.7,6.1-8.2Z"/>
      <path class="st0" d="M258.3,411.2s0,0,0-.1c0,0,0,0,0,0,0,0,0,0,0,0,0,0,0,0,0,0,0,0-.1,0-.2,0-2.9-.5-3.4-2.1-4.7-4.9-2.1-4.9-4.8-11-8-18.3-.1-.3-.4-.6-.8-.6-.9-.2-1.7-.2-2.6,0-.4,0-.8.4-1,.8-.5,1.2-2.2,4.7-4.9,10.7-.6,1.4-2.6,2.1-3.8,2.7,0,0-.1,0-.2.1,0,0,0,0,0,0,0,0,0,0,0,0,0,0,0,0,0,.1,0,0,0,0,0,0,0,0,0,0,0,0,0,0,0,0,0,.1,0,0,0,0,0,0,0,0,0,.1.1.2,1,.7,1.5,1.7.9,3-1.1,2.6-2.1,4.9-5.1,5.8-.4.1-.8.4-.7.9,0,.1.1.2.2.2h9.8s0,0,.1,0c0,0,0,0,0,0,0,0,0,0,0,0,0,0,0,0,0,0,0,0,0,0,0,0,0,0,0,0,0,0,0,0,0,0,0,0,0,0,0,0,0,0,0,0,0-.1,0-.2-.2-.5-.9-.9-1.7-1.4-.5-.3-.7-.9-.6-1.5.3-1.1.7-2.3,1.2-3.5.5-1.2,1.3-1.1,2.4-1.1,2.8,0,5,0,6.7,0,.4,0,.8.2,1,.6.7,1.5,1.2,3,1.5,4.6,0,.6-.3,1.2-.9,1.3-.6.2-1.3.3-2,.5-.4.1-.6.3-.5.7,0,.2.2.3.4.3h12.6c0,0,.1,0,.2,0,0,0,0,0,0,0,0,0,0,0,.1,0,0,0,0,0,0,0,0,0,0,0,0-.1,0,0,0,0,0,0,0,0,0,0,0,0,0,0,0,0,0,0,0,0,0,0,0-.1,0,0,0,0,0,0ZM245.8,400.6s0,0,0,.1c0,0,0,0,0,0,0,0,0,0,0,0,0,0,0,0,0,.1,0,0,0,0,0,0,0,0,0,0,0,0,0,0,0,0-.1.1,0,0,0,0,0,0,0,0,0,0,0,0,0,0,0,0-.1,0,0,0,0,0,0,0,0,0,0,0,0,0,0,0-.1,0-.2,0l-5.6-.2c0,0-.1,0-.2,0,0,0,0,0,0,0,0,0,0,0,0,0,0,0,0,0,0,0,0,0,0,0-.1,0,0,0,0,0,0,0,0,0,0,0,0,0,0,0,0,0,0-.1,0,0,0,0,0,0,0,0,0,0,0,0,0,0,0,0,0-.2,0,0,0,0,0,0,0,0,0,0,0,0,0,0,0,0,0-.1,0,0,0,0,0,0,0,0,0,0,0,0,0,0,0-.1,0-.2l3-6.8c0-.1.2-.3.3-.4,0,0,0,0,0,0,0,0,0,0,.1,0,0,0,0,0,0,0,0,0,0,0,0,0,0,0,0,0,0,0,0,0,0,0,0,0,0,0,0,0,0,0,0,0,0,0,0,0,0,0,0,0,0,0,0,0,0,0,0,0,0,0,0,0,0,0,0,0,0,0,0,0,0,0,0,0,0,0,0,0,.1.1.2.2,0,0,0,.1.1.2l2.5,7c0,0,0,.1,0,.2,0,0,0,0,0,0,0,0,0,0,0,0,0,0,0,0,0,0Z"/>
      <path class="st0" d="M156.2,389.7c1.7-.2,3.3,0,5,.4,1.3.4,2.5,2.7,3.4,3.7,0,0,0,0,.1.1,0,0,0,0,0,0,0,0,0,0,.1,0,0,0,0,0,0,0,0,0,0,0,0,0,0,0,0,0,0,0,0,0,0,0,0,0,0,0,0,0,0,0,0,0,0,0,0-.1,0,0,0,0,0,0,0,0,0-.1,0-.2v-5.9c0-.2-.1-.3-.3-.3-.4,0-4.7,0-12.8,0-8.1,0-12.3,0-12.8,0-.2,0-.3.1-.3.3v5.9c0,0,0,.1,0,.2,0,0,0,0,0,0,0,0,0,0,0,.1,0,0,0,0,0,0,0,0,0,0,0,0,0,0,0,0,0,0,0,0,0,0,0,0,0,0,0,0,0,0,0,0,0,0,.1,0,0,0,0,0,0,0,0,0,.1,0,.1-.1.9-1,2.1-3.3,3.3-3.7,1.6-.5,3.3-.7,5-.4.3,0,.6.3.6.6.2,1.5.6,6.2-.5,7.3,0,0-.2.2-.2.2l-1.4,1.2s0,0,0,.1c0,0,0,0,0,0,0,0,0,0,0,0,0,0,0,0,0,0,0,0,0,0,0,0,0,0,0,0,0,0,0,0,0,0,0,0,0,0,0,0,0,0,0,0,0,0,.1.1,1.2.8,2.1,1.4,2.2,3.1,0,2.6.1,5.5,0,8.6,0,.2.1.4.3.4.9,0,1.9,0,2.9,0,1,0,2,0,2.9,0,.2,0,.3-.2.3-.4,0-3.2,0-6,0-8.6,0-1.6.9-2.3,2.1-3.1,0,0,0,0,.1,0,0,0,0,0,0,0,0,0,0,0,0,0,0,0,0,0,0,0,0,0,0,0,0,0,0,0,0,0,0,0,0,0,0,0,0,0,0,0,0,0,0,0,0,0,0,0-.1-.1l-1.4-1.2c0,0-.2-.2-.2-.2-1.1-1.1-.7-5.8-.5-7.3,0-.3.3-.6.6-.6Z"/>
      <path class="st0" d="M200.3,410.9c-.3.1-.4.3-.4.7,0,.1.1.2.3.2,2,0,6.8,0,14.4,0,1.6,0,2.7,0,3.3-.2,3.5-.7,7.9-1.5,8.1-6,.2-3.3-2.1-4.9-5-5.9-1.6-.6-2.6-1-2.8-1.1,0,0,0,0,0,0,0,0,0,0,0,0,0,0,0,0,0,0,0,0,0,0,0,0,0,0,0,0,0,0,1.9-.9,5.3-1.8,6.1-4.6.6-1.9-.3-4.1-2-5-2-1.1-4.3-1.6-6.9-1.6-.5,0-5.6,0-15.2,0-.2,0-.3,0-.4,0,0,0,0,0,0,.1,0,0,0,0,0,0,0,0,0,0,0,0,0,0,0,0,0,0,0,0,0,0,0,0,0,0,0,0,0,0,0,0,0,0,0,0,0,0,0,0,0,0,0,0,0,0,.1,0,.8.5,2.7,1,3.2,1.9.8,1.6.6,3.7.6,5.6,0,1.5-.7,2.5-1.7,3.4,0,0-.1.1-.2.2,0,0,0,0,0,0,0,0,0,0,0,0,0,0,0,0,0,0,0,0,0,0,0,0,0,0,0,0,0,0,0,0,0,0,0,0,0,0,0,0,0,0,0,0,0,0,0,0,0,0,0,0,0,0,0,0,0,0,0,0,0,0,0,0,0,0,0,0,0,0,0,0,0,0,0,0,0,0,0,0,0,0,0,0,0,0,0,0,0,0,0,0,.1.1.2.2,1.2.7,1.7,1.8,1.7,3.2,0,3.3,0,5,0,5-.3,1.8-1.8,2.1-3.3,2.5ZM218.8,404.8v.2s0,0,0,0c0,.1,0,.2,0,.3,0,0,0,.2,0,.2,0,0,0,.2,0,.3,0,0,0,.2,0,.3,0,0,0,.2,0,.3,0,0,0,.2,0,.3,0,0,0,.2,0,.3,0,0,0,.2,0,.2,0,0,0,.2-.1.3,0,0,0,.2-.1.2,0,0,0,.1-.1.2,0,0,0,.2-.1.2,0,0-.1.1-.2.2,0,0,0,.1-.1.2,0,0-.1.1-.2.2,0,0-.1.1-.2.2,0,0-.1.1-.2.2,0,0-.1.1-.2.2,0,0-.1,0-.2.1,0,0-.2.1-.2.2,0,0-.1,0-.2.1,0,0-.2.1-.2.2,0,0-.1,0-.2,0,0,0-.2,0-.3.1,0,0-.1,0-.2,0,0,0-.2,0-.3.1,0,0-.2,0-.2,0,0,0-.2,0-.3,0,0,0-.1,0-.2,0-.1,0-.2,0-.3,0,0,0-.2,0-.3,0,0,0-.2,0-.3,0h-1.8s0,0,0,0c0,0,0,0-.1,0-.4,0-.7-.1-1-.3,0,0-.1,0-.2-.1,0,0,0,0-.1,0,0,0-.1-.1-.2-.2,0,0,0,0,0,0,0,0,0-.1-.1-.2,0,0,0,0,0-.1,0-.2-.1-.4-.1-.6,0,0,0,0,0-.1v-7.1q0,0,0,0c0,0,0-.1,0-.2,0,0,0-.1,0-.2,0,0,0-.2,0-.2,0,0,0,0,0-.1,0,0,0-.1.1-.2,0,0,0,0,0-.1,0,0,0-.1.1-.2,0,0,0,0,0-.1,0,0,.1-.1.2-.2,0,0,0,0,0,0,0,0,.1,0,.2-.1,0,0,0,0,.1,0,.2,0,.4-.1.6-.1,0,0,0,0,.1,0h1.8c2.9,0,5.3,2.4,5.3,5.3ZM209.9,389.5h0c0,0,0-.1,0-.2,0,0,0,0,0,0,0,0,0,0,0-.1,0,0,0,0,0-.1,0,0,0,0,0-.1,0,0,0,0,0,0,0,0,0-.1.1-.2,0,0,0,0,0,0,0,0,0,0,.1-.1,0,0,0,0,0,0,0,0,0,0,.1,0,0,0,0,0,.1,0,0,0,.1,0,.2,0,0,0,0,0,0,0,0,0,.1,0,.2,0,0,0,0,0,0,0h1.2s0,0,0,0c0,0,.2,0,.3,0,0,0,.2,0,.2,0,0,0,.1,0,.2,0,.1,0,.2,0,.3,0,0,0,.1,0,.2,0,.1,0,.2,0,.3,0,0,0,.2,0,.3.1,0,0,.1,0,.2,0,0,0,.2,0,.2.1,0,0,.1,0,.2,0,0,0,.2,0,.2.1,0,0,.1,0,.2.1,0,0,.2.1.3.2,0,0,0,0,.1,0,0,0,.1.1.2.2,0,0,.1,0,.2.2,0,0,0,0,.1.1,0,0,.1.1.2.2,0,0,0,.1.1.2,0,0,.1.1.2.2,0,0,0,.2.1.2,0,0,0,.1.1.2,0,0,0,.1,0,.2,0,0,0,.2.1.2,0,0,0,.1,0,.2,0,0,0,.2,0,.2,0,0,0,.2,0,.2,0,0,0,.1,0,.2,0,0,0,.1,0,.2,0,.1,0,.2,0,.3,0,0,0,0,0,.1,0,.1,0,.3,0,.4v.2c0,2.6-2.4,4.7-5.2,4.7h-1.2s0,0,0,0c0,0,0,0-.1,0,0,0,0,0-.1,0,0,0,0,0-.1,0,0,0,0,0-.1,0,0,0,0,0-.1,0,0,0,0,0-.1,0,0,0,0,0-.1,0,0,0,0,0,0,0,0,0,0,0,0-.1,0,0,0,0,0,0,0,0,0,0,0-.1,0,0,0,0,0-.1,0,0,0,0,0,0,0,0,0-.1,0-.2,0,0,0,0,0,0,0,0,0-.1,0-.2v-7.2Z"/>
      <path class="st0" d="M116.4,399.5c.8,0,2.2-.1,4.1-.4.2,0,.3,0,.5-.1,1.2-.5,2.3-.7,3.1-.6,2.7.2,4.8.3,6.2.2.1,0,.3-.1.3-.3h0s0,0,0,0c0,0,0,0,0,0,0,0,0,0,0,0,0,0,0,0,0,0,0,0,0,0,0,0,0,0,0,0,0,0,0,0,0,0,0,0,0,0,0,0,0,0,0,0,0,0,0,0-4.9-.2-9.4-.5-13.6-1-1.3-.2-2.5-.8-3.7-2-.1-.1-.2-.3-.3-.5-.3-1.5.6-2.2,1.9-2.6,0,0,.2,0,.2-.1,0,0,0,0,0,0,0,0,0,0,0,0,0,0,.1-.1.2-.2,0,0,0,0,0,0,0,0,0-.1,0-.2,0,0,0,0,0,0,0,0,0-.2,0-.2,0,0,0-.2-.1-.2-1.2-1.4-3.9-2.5-5.4-.7-2.3,2.8-1.4,4.3.9,6.6.4.4.5,1,.1,1.5-.6.8-2,2.7-2.3,4-.7,3.7,3.6,5.8,6.2,3,0,0,0,0,.1-.2,0,0,0,0,0,0,0,0,0,0,0,0,0,0,0,0,0-.1,0,0,0,0,0,0,0,0,0,0,0,0,0,0,0,0,0,0,0,0,0,0,0,0,0,0,0,0,0,0,0,0,0,0,0,0,0,0,0,0,0,0,0,0,0,0,0,0,0,0,0,0,0,0,0,0,0,0,0,0,0,0,0,0,0,0,0,0,0,0,0,0,0,0,0,0-.2-.1l-1-.6c-.5-.3-.7-.8-.6-1.3.4-1.8,1.8-2.3,3.7-2.3Z"/>
      <path class="st0" d="M492.8,391.6c-1-1.9-2.1-2.8-4.3-2.3-1,.3-1.7.8-2.1,1.8,0,0,0,0,0,0,0,0,0,0,0,0,0,0,0,0,0,0,0,0,0,0,0,0,0,0,0,0,0,0,0,0,0,0,0,0,0,0,0,0,0,0,0,0,0,0,0,0,0,0,0,0,0,0,1.8.6,2.5,2.3,1.2,3.7-1,1-3.3,1.6-5,1.7-3.3.2-6.2.4-8.8.7-.9,0-2,0-2.7,0,0,0,0,0,0,0,0,0,0,0,0,0,0,0,0,0,0,0,0,0,0,0,0,0,0,0,0,0,0,0,0,0,0,0,0,0,0,0,0,0,0,0,0,0,0,0,0,0,0,0,0,0,0,0h0c0,.2.2.4.4.4,1.7.1,3.5,0,5.5-.1.2,0,.4,0,.6,0,.5,0,1.8.3,3.7.8,1.1.3,2.4.4,3.7.4,1.9,0,3.3.3,3.8,2.2.1.5,0,1-.5,1.2-.6.3-1,.7-1.2.9-.3.4-.3,1,0,1.3,1.1,1.2,2.4,1.5,3.8,1,1.3-.5,2-1.2,2.3-2.3.5-2.2-1.2-4.1-2.5-5.8-.3-.3-.2-.8,0-1.1,1.3-1.6,3.5-3.1,2.2-5.5Z"/>
      <path class="st0" d="M334.5,399.1s0,0,0,0c0,0,0-.1,0-.2,0,0-.1-.2-.2-.2l-2.8-2.8c-.4-.4-1-.4-1.4,0l-2.8,2.8c-.1.1-.2.3-.3.5s0,.3,0,.4c0,.1,0,.2.1.4,0,0,0,.1.1.2l2.8,2.8c.1.1.3.2.5.3s.3,0,.4,0c.1,0,.2,0,.4-.1s.1,0,.2-.1l2.8-2.8c.2-.2.3-.4.3-.6,0,0,0-.2,0-.2Z"/>
      <path class="st0" d="M444.1,402.9c.4.3,1,.3,1.3,0l2.7-2.9s0,0,.1-.1c0-.1.1-.2.1-.3,0-.1,0-.2,0-.3,0-.2-.1-.3-.2-.5l-2.9-3.1s0,0,0,0c0,0,0,0,0,0,0,0,0,0,0,0,0,0,0,0,0,0,0,0,0,0,0,0,0,0,0,0,0,0,0,0,0,0,0,0,0,0,0,0,0,0,0,0,0,0,0,0s0,0,0,0c0,0,0,0,0,0,0,0,0,0,0,0,0,0,0,0,0,0,0,0,0,0,0,0,0,0,0,0,0,0,0,0,0,0,0,0,0,0,0,0,0,0l-2.9,3.1c-.3.4-.3,1,0,1.3l3.1,2.8Z"/>
      <path class="st0" d="M186,399.1c0-.1,0-.2,0-.3,0,0,0-.2-.2-.2l-2.8-2.8c-.4-.4-1-.4-1.4,0l-2.8,2.8c-.2.2-.3.4-.3.7,0,.2,0,.5.3.7l2.8,2.8c.2.2.6.3.9.3.1,0,.2,0,.3-.1,0,0,.1,0,.2-.1l2.8-2.8c.2-.2.3-.5.3-.8Z"/>
      <path class="st0" d="M469.2,406c-.6-.5-1.4-.8-2.3-.8-2,0-3.6,1.6-3.6,3.6s.3,1.7.8,2.3c0,0,.1.2.2.3.2.2.5.4.8.6.5.3,1.1.4,1.7.4s1,0,1.4-.3c.2,0,.4-.2.6-.3.4-.3.7-.6,1-1,.3-.4.4-.8.5-1.3,0-.1,0-.2,0-.4,0-.1,0-.2,0-.4,0-.6-.2-1.2-.4-1.7-.2-.3-.4-.6-.6-.8,0,0-.2-.2-.3-.2Z"/>
    </g>
    <path class="st0" d="M563.5,290.6c0-.3-.1-.7-.3-1l-.3-.5c-.1-.2-.2-.4-.2-.6.3-8.5.4-13.8.5-16,.2-5.8-.9-14.9-.8-22.3,0-4.3,0-8.4-.5-12.4-.1-1.3-.4-2.7-.9-4.2-.3-1-.9-1.3-1.8-1.4-1.2-.2-2.4-.3-3.5-.4-.4,0-.9-.1-1.3-.2-2.1-.6-4.1-1.5-6.3-1.6-4.5-.2-9.9-.2-16-.1-8,.1-17.2.3-27.6.6-1.9,0-4.2.2-6,.2-9.9,0-20.2,0-30.9,0-.5,0-1.6.1-3.1.4-.2,0-.3,0-.5,0l-3.1-.6c-.4,0-.7-.3-1-.6-2.7-3.2-5.5-6.7-8.2-9.7-2.4-2.5-6.8-7.4-10.4-10.8-3-2.8-5.6-5.2-7.8-7.2-22.8-20.3-49.9-35.4-79.6-43-13.8-3.5-27.6-5.7-41.4-6.5-2.7-.2-5.1-.1-7.7-.3-1.5,0-3.4-.1-5.8,0-6.4.1-12.4.4-18.1.9-10.9,1-22,2.9-33.2,5.9-37.5,10-71.8,30.7-98,59.7-2.2,2.5-5.2,6-8.9,10.4-.6.7-1.3,1-2.2,1-7.3,0-13.2,0-17.6.2-8.2.3-13.6.1-22.7.2-5,0-10.9-.4-16.1-.2-6.6.3-13.5.2-20.7-.3-6.1-.4-13.1-.5-17.5-.3-2.1,0-3.6.2-4.4.5-1.9.5-1.7,2.3-1.7,3.9,0,.4,0,1.2-.3,2.2-.7,3.3-1.5,6.3-1.5,9.6,0,12.5,0,21.3,0,26.2,0,1.8.3,4.8.3,7.3,0,.6,0,6.7,0,18.4,0,0,0,.1,0,.2l-.5,1.7c0,.2,0,.4,0,.6l.3,1.4c0,.4.4.6.8.6h1.9c.2,0,.4-.2.4-.4.2-5.8.2-12.3.3-19.1,0-1.9,0-4,0-6.1-.3-7.9-.3-18.5,0-31.9,0-.8,0-1.4.2-1.8.7-1.9,1-3.9,1-5.9,0-.1.1-.7.4-1.8.3-1.3,1.3-1.6,2.4-1.6,1.2,0,2.3-.1,3.6-.1,35.7,0,67.4-.1,95,0,.5,0,.9-.2,1.2-.6,1.5-1.8,2.5-4,4-5.8,7.4-8.9,15.6-17.1,24.7-24.6,28.1-23.4,60-38.1,95.8-44.1,8.3-1.4,16.3-2,25.5-2.5,5.4-.3,10.8-.2,16.3.1,7.7.5,12.7.9,14.9,1.2,38.8,5.1,73,19.9,102.8,44.5,6.5,5.3,12.3,11,18,16.9,4.4,4.6,8,8.8,10.9,12.7.6.8,1.1,1.4,1.6,1.8.4.3.8.4,1.3.4,7,0,12.3,0,16,0,4.8-.1,8.4,0,13.3,0,5.1,0,20.2,0,45.5.1.3,0,1.1,0,2.5.1,2.1.1,3.8.6,5.8.5.8,0,1.9,0,3.3.2,3.2.4,6.4.9,9.6,1.4.7.1,1.4.4,1.9.7.1.1.2.3.3.4.7,3.5,1,5.8,1,7.1,0,3.9,0,7,.3,9.2.3,2.5,1.3,5.6,1.4,8.6.1,4.6.3,8.3.3,11.3,0,3-.4,7.7-.2,10.6.3,2.7.3,5.4.2,8-.1,2.5.2,5.6.4,7.3.2,1.4.3,3.2.2,5.5,0,1.7,0,6.4.2,13.8,0,2.7,0,8.6,0,17.8,0,1.5.3,3.2.3,4.8,0,9.7,0,22.1,0,37.3,0,2.7,0,6.8-.3,12.5-.1,4.4,0,8.5.1,12.5.2,4.3.3,7.9.2,10.7,0,2.2-.1,6.4,0,12.6,0,1.5,0,3.2-.3,5.3-.3,4-.6,7.2-1.5,10.4-.1.4-.4.6-.8.7-3.2.6-6.5.9-9.8.9-7.4,0-14.9.1-22.4.2-7.7,0-13.9-.1-20.7.1-6.8.2-11.9.4-15.6.4-19.3.2-30.6.4-33.7.4-3.8,0-7.4-.4-11.4-.2-2.4.1-6,.2-10.7.3-3.2,0-6.8-.3-9.8,0-1.4.2-2.9.2-4.5.2-3.2,0-5.7.3-8.8,0-1.5-.1-2.9,0-4.3,0-5,.4-11,.2-15.7.2-.4,0-2.5-.1-6.2-.3-2.1-.1-4.2-.2-6.2-.2-25.1,0-39.1,0-41.9-.1-7.5,0-11.4,0-12,0-4-.1-8,0-12,0-3.6.2-7.5-.3-11.5-.1-6.6.3-10.5.2-19.6.2-.6,0-1.5,0-2.7.2-.5,0-1,0-1.4,0-2.2-.3-4.5-.2-7,.3-.3,0-1.2,0-2.6-.4-.2,0-.4,0-.7,0-.8,0-1.8.2-2.9,0-4.5-.4-10.1.2-15.2.2-7.6,0-21.4,0-41.5,0-4.5,0-10.7.1-18.7.3-8.2.2-16.7.1-25.5-.3-1.7,0-8,0-19,0-1.9,0-3.5-.5-5.2-.3-1.1.1-2.4.2-3.9,0-3.7-.2-6.1-.5-9.1-.4-5.6.2-12.2.3-19.8.2-8.5,0-18.7,1.1-27,.3-2.3-.2-3.7-.3-4.1-.2-1.5.3-3.3.5-5.5.6-3.4,0-6,0-7.8,0-5.4-.2-10.5,0-16.7,0-1.8,0-3.3-.2-4.7-.5-1.2-.3-1.8-1-2-2.1-.1-.7-.2-1.2-.1-1.3,0,0,0,0,0,0,0,0,0,0,0,0,0,0,0,0,0,0,0,0,0,0,0,0,0,0,0,0,0,0,0,0,0,0,0,0,0,0,0,0,0,0,0,0,0,0,0,0,0,0,0,0,0,0h-1.6s0,0,0,0h0c0-.2,0-.3.1-.3.5-.1,1-.1,1.4,0,0,0,0,0,0,0,0,0,0,0,0,0,0,0,0,0,0,0,0,0,0,0,0,0,0,0,0,0,0,0,0,0,0,0,0,0,0,0,0,0,0,0,0,0,0,0,0,0,0,0,0,0,0,0,.2-.7.3-1.2.3-1.3,0-2.7,0-5.3-.1-7.8,0-.3,0-.6.1-.9.5-1.8.8-3.8.8-6.1,0-2.7,0-8.1,0-16.2,0-2.6,0-4.3-.1-5-.2-1.6-.2-3.2-.1-5,.2-3.8.2-9.6.2-17.4,0-17.9,0-39.4,0-64.5,0-1.5-.1-4.3-.4-8.5,0,0,0-.1,0-.2,0,0,0,0,0,0,0,0,0,0,0,0,0,0,0,0,0,0,0,0,0,0,0,0,0,0,0,0,0,0s0,0,0,0c0,0,0,0,0,0,0,0,0,0,0,0,0,0,0,0,0,0,0,0,0,0,0,0,0,0,0,0,0,0,0,0,0,0,0,0,0,0,0,0,0,0,0,0,0,0,0,0,0,0,0,0,0,0,0,0-.1,0-.2,0h0c-.6.2-.9.8-.9,1.4,0,12.6,0,24.7,0,36.3,0,3.6-.4,6.5-.2,9.5.2,2.5.3,4.8.2,7.1,0,3.6,0,7.9-.1,13.1,0,1.2,0,2.2-.6,3.4-.3.5-.4,1.1-.5,1.6-.6,4.2-.8,8.5-.6,12.8.3,8.1.3,11.7.4,23,0,1.1.5,2.3.2,3.3-.2.5-.2,1.2,0,2,.1,1.3.2,2.7.2,4.3,0,5.6,0,10.9-.2,15.8,0,2.1.6,4.7,2.3,5.5,1,.5,2,.8,3.1,1,1.5.2,3,.3,4.5.2,2.4,0,3.9,0,4.5,0,2.2.4,6,.5,8.7.4,4.6-.1,9.2,0,14.3,0,12.6-.2,29.3-.4,50.1-.6,3.2,0,6.7,0,10,0,2.4,0,27,0,73.7,0,8.6,0,16.3,0,23.1-.3,1.9,0,3.7,0,5.4.1,2.1.2,3.8.3,5.4.3,12.7,0,19.2,0,19.5,0,30.5-.1,46.6-.2,48.1-.3,1.5,0,2.8,0,4.1-.1,2.8,0,9.4,0,20,0,3.6,0,6.4.4,9.6.2,2.1-.1,4.5-.2,7.2-.2,7.8,0,14.6,0,20.6,0,2.6,0,5.5-.3,7.8-.3.7,0,1.9.2,3.4.5,1.2.2,2.4.4,3.4.4,24.1-.1,45.4-.2,63.9-.1.2,0,2.1,0,5.7.1,2.6,0,7.7,0,15.2,0,16.7-.1,33.4,0,50.3-.2,2,0,3.7-.2,5.2-.5.7-.2,1.4-.2,2.1-.2,6.7,0,13,0,19.1-.3.5,0,1.8-.2,4-.7.2,0,.3,0,.5,0h.5c.1,0,.2,0,.3-.1l.2-1c0-.4.5-.6.9-.6.4,0,.8.2,1.2.3.5.2.7,1,1.1,1.4.1.1.3.2.5.2,2.1.3,3.9.4,5.4.3,1.4-.1,1.9-1.3,2-2.7.1-3.1.4-6,.6-8.9.1-1.4.2-3.7,0-6.9,0-2.6,0-4.9,0-6.9.3-12.6.4-21.8.3-27.6,0-3-.2-5.7-.4-8.1-.2-3.1-.3-5.8-.3-8.1,0-8,0-15.5,0-22.7,0-1.1-.3-2.2-.4-3.3-.1-7.9-.1-15.2,0-21.6,0-3.7.4-8.7.4-13,0-2.9,0-7.3,0-13.3,0-1.8.2-2.5.8-4.1.6-1.6-.7-2.3-.8-3.7,0-1.1-.2-2.8-.5-5.2ZM59.9,448.2h-.6s0,0,0,0c-.4,0-.7-.3-.7-.7h0c0-.5.2-.7.5-.8,0,0,0,0,.1,0h.6s0,0,.1,0,0,0,.1,0c0,0,.1,0,.2,0,.2.1.3.3.3.5h0c0,.5-.3.8-.7.8Z"/>
    <path class="st0" d="M551.1,256.2c-.3-2.9-.5-7.3-.6-13.3,0-.2-.1-.3-.3-.3-4.1,0-9,.1-13.5-.3-3.5-.3-7.2.3-10.8.3-18.3,0-33.2,0-44.8,0-1.4,0-3.9-.1-7.4-.3-2.6-.2-5.2-.2-7.6,0-2.6.2-4.6.3-6,.3-3.1,0-5.1,0-6.1,0-.4,0-.9-.2-1.1-.6-6.2-8.1-12.8-15.8-20-22.8-18.2-17.6-39-31-62.2-40.4-9.6-3.8-20-7-31.4-9.4-4.9-1-9.8-1.7-16.4-2.7-.6,0-2.6-.2-5.9-.4-.4,0-.8,0-1.2-.2-1-.2-1.8-.4-2.3-.4-2.4,0-6.5-.2-12.6-.3-3.6,0-8.7.4-11.7.3-1.4,0-3,0-4.6.4-1.1.2-2.6.3-4.7.4-2.1,0-3.7.6-5.8.7-2,.1-4.6.8-7.2,1.1-.4,0-1.3.2-2.9.5-31.6,6.2-59.9,19.5-84.7,40-12.2,10-22.7,21.2-31.9,33.5-.3.4-.7.6-1.2.6-7.3,0-15.6,0-24.9,0-2.9,0-5.6.7-8.6,0-.3,0-.6,0-.9,0-5.3,0-11.2,0-17.7-.2-11.6-.3-26.3-.2-36.1-.2-3.7,0-6.4.3-9.4.3-.2,0-.4.2-.4.4-.1,12.6,0,25.3.2,38,.1,6.3.2,12.3.2,18,0,1.7.6,3.3.7,5,.1,2.5.2,5.4.1,8.9,0,3.1,0,8.2,0,15.5,0,2.9-.3,5.1-.2,7.9.5,8.4.3,16.9.3,27.1,0,2.1-.2,3.5-.6,4.3-.1.2-.2.5-.1.8.5,4,.7,8,.5,11.9-.2,3.5-.3,6.1-.3,7.8,0,7.1,0,12.7.1,16.8.3,11.5.4,22.2.4,29.7,0,.4,0,.8,0,1.1,0,.2.2.4.4.4,8.3,0,14.2,0,17.7,0,1.7,0,3.7-.3,5.3-.3,7.9,0,13.8,0,17.6-.2,15.5-.4,23-.3,43.9-.2,17.6,0,35.8.4,53.8.3,1.5,0,3.4.5,5.1.5,14,.3,25.2,0,36.9.3,4.1,0,8.3,0,12.7-.2,2.2-.1,10.7-.2,25.4-.1,3.4,0,5.1-.2,8.5-.4,0,0,0,0,.1,0l5.1.5c0,0,.1,0,.2,0,0,0,0,0,0,0,0,0,0,0,0,0,0,0,0,0,0,0,0,0,0,0,.1-.1,0,0,0,0,0,0,0,0,0,0,0,0,0,0,0,0,0-.2,0,0,0,0,0-.1,0,0,0,0,0,0,0,0,0-.1,0-.2l-.5-.6c-.4-.5-.9-.7-1.5-.7h-11c0-.1-.2-.1-.2-.2l-1.5-.6c-.2,0-.4-.1-.5-.1-.5,0-3,0-7.7.1-4.5.1-10.3,0-15.6.2-10,.4-22-.2-30.5-.2-10.3,0-19.5.1-29.2,0-12.5-.2-26.1-.1-40.7.2-6.7.1-12.4-.4-19.3-.4-15.8,0-25.1,0-27.9.1-11.4.3-23.8.3-38,.2-1.9,0-3.6-.1-5.2-.3-.4,0-.7-.4-.7-.8,0-3.4-.2-6.8-.3-10-.4-13.1-.2-30.9-.3-63.7,0-2.1,0-4.8-.2-8.3-.1-2.2-.1-5,0-8.3.1-4.7.2-12.9.3-24.6,0-2.8.7-5.4.3-8.1-.2-1.5-.3-3-.3-4.7,0-5.7-.1-11.4-.3-17.1,0-1.7,0-6.5.2-14.3,0-3.6,0-9.5,0-17.5,0-.4,0-1.6-.3-3.6,0-.5,0-.9,0-1.4.2-1.3.2-2.6,0-4,0,0,0,0,0,0,0,0,0,0,0,0,0,0,0,0,0,0,0,0,0,0,0,0,0,0,0,0,0,0,0,0,0,0,0,0,0,0,0,0,0,0,0,0,0,0,0,0,0,0,0,0,0,0,5.9-.6,11.5-.4,18.2-.8,2.6-.1,6.1-.2,10.5,0,2,0,4,.3,6.1.3,7.7,0,15.3,0,22.8-.1,1.6,0,3.4-.3,4.8-.3,2.5,0,6,0,10.4,0,2.2,0,5.7.1,10.4.4,3.4.2,7.7.2,12.9.2.2,0,.3,0,.4,0,.9-.3,1.5-.8,2-1.4,25-33.6,60.3-57.9,100.7-69,7.8-2.1,16-3.8,24.7-5,4-.5,6.5-.8,7.6-.9,2.4,0,4.8-.5,6.7-.6,4.8,0,10.9,0,18,0,4,0,7.7.6,11.6.8,2.2.1,4,.6,6.2.8,1.2.1,2.8.3,4.7.6,37.7,6.4,70.4,22.8,98.3,49.2,7.7,7.3,14.9,15.4,21.5,24.4.6.8,1.2,1.1,2,1.1,21.1-.3,42.8-.3,65.1,0,8.1,0,16.9,0,25.1-.5,1.3,0,2.7,0,4.1.4.4,0,.6.4.7.8.2,2.3.7,4.8.7,7,0,6.2.9,15,.9,22.5,0,9.7.1,19.6.5,29.7,0,2-.2,3.7,0,5.7.1.9.2,2.4.2,4.3,0,14.1,0,26.6-.2,37.6,0,1.7.2,3.6.2,5.5.1,9.9,0,18.3,0,25.1,0,2.5.2,4.9.3,6.6,0,.9.1,2.6.1,5,0,10.6-.2,20,.3,29.7,0,.3,0,.7,0,1l-.2,1.4c0,0,0,.2,0,.2v4.3c0,.3-.3.5-.5.5-.9,0-2.2,0-3.9,0-19.3,0-50.1,0-92.3-.1-6.8,0-10.9,0-12.1.3-.4,0-.9,0-1.4,0-.6,0-1.5-.2-2.7-.3-3.8-.4-8.7.1-13.1.2-4.8,0-9,0-12.6,0-1.9,0-4,.4-5.9.2-1.6-.2-2.6,0-4.4.1-7.3.1-16.8.1-28.4,0-3.4,0-7-.7-10.1-.7-3,0-6.7.3-11.1.6-1,0-4,0-8.8-.3-2-.1-4,.4-6.1.3-2.1,0-3.6,0-4.5,0-1.6.1-3.1.2-4.5,0-4.4-.3-9.4.4-13.4.2-5-.2-10.6-.3-17-.2-.3,0-.6.3-.6.6v1.3c0,.3.2.6.5.6,18.2.1,36.1,0,53.7-.2,4.3,0,8.1,0,12.6,0,1.9,0,3.9.3,5.9.3,18.4,0,28.2,0,29.4,0,3.8,0,9.3,0,16.6-.2,9.1-.3,21.1,0,30.8,0,8-.1,18.3.4,27.2.2,2.2,0,7.5-.3,14.5-.2,24.5.2,46.2.2,65.2,0,0,0,0,0,0,0,0,0,0,0,0,0,0,0,0,0,.1,0,0,0,0,0,0,0,0,0,0,0,0,0,0,0,0,0,0,0,0,0,0,0,0,0,0,0,0,0,0-.1,0,0,0,0,0-.1-.1-1.4,0-2.9.1-4.5,0-.3,0-.7-.3-1.1-.4-.7-.5-1-.2-1.9.4-1.3.5-2.2.5-2.8-.3-3.5-.4-7.4-.3-11.6,0-.7,0-1.7-.2-3.1-.2-2.1.5-4.1-.3-6.4,0-.2,0-.4,0-.5,0-.5.2-1.2.3-2.2.2-1.4.1-3-.3-4.8,0-.3,0-1.1.4-2.2,0-.3,0-.6,0-.9-.5-1.5,0-2.8,0-4.2,0-6.5-.2-11.6-.3-15.4,0-1.4-.7-3.7-.2-5.6,0-.1.1-.2.3-.3.1,0,.2,0,.3-.2,0,0,0,0,0,0,0,0,0,0,0,0,0,0,0,0,0,0,0,0,0,0,0,0,0,0,0,0,0,0-.8-.3-.8-1.8-.8-2.7,0-25.8,0-44.8,0-57.2,0-4.4-.7-9.4-.7-13.3,0-7.9,0-16,0-24.5s-.2-8.5-.7-13.4Z"/>
    <path class="st0" d="M199.7,226.9c-.5-.4-1.1-.5-1.4-.1-.1.1-.1.3-.1.5,0,0,0,0,0,.1,0,0,0,0,0,0,0,0,0,0,0,0,0,.2.2.4.3.5,0,0,.1.1.2.2.4.3.8.4,1.2.3.1,0,.2-.1.3-.2,0,0,0,0,0-.1,0,0,0,0,0-.1,0-.3-.1-.8-.5-1.1Z"/>
    <path class="st0" d="M390.5,246.5s0,0,0,0c0,0,0,0,0,0,0,0,0,0,0,0,0,0,0,0,0,0,0,0,0,0,0,0,0,0,0,0,0,0,0,0,0,0,0,0,0,0,0,0,0,0,0,0,0,0,0,0,0,0,0,0,0,0,0,0,0,0,0,0,0,0,0,0,0,0,0,0,0,0,0,0,0,0,0,0,0,0-.9,1.5-1.9,3.2-2.9,5.1-2.1,4-3,7.5-3.2,11.9,0,0,0,0,0,.1,0,0,0,0,0,0,0,0,0,0,0,0,0,0,0,0,0,0,0,0,0,0,0,0,0,0,0,0,0,0,0,0,0,0,0,0,0,0,0,0,0,0,0,0,0,0,0,0,0,0,0,0,0,0,0,0,0,0,0,0,1.2-1.5,1.7-2.9,3.9-3.5.2,0,.3-.2.3-.4-.4-4.6.6-8.6,1.8-13,0,0,0,0,0,0Z"/>
    <path class="st0" d="M209,257.1s0,0,0,0c0,0,0,0,0,0,0,0,0,0,0,0,0,0,0,0,0,0,0,0,0,0,0,0,0,0,0,0,0,0,0,0,0,0,0,0,0,0,0,0,0,0,0,0,0,0,0,0,0,0,0-.1,0-.2l.4-4.4c0,0,0-.1,0-.2-.3-1.7-.6-3.1-.7-4.4,0-.1-.1-.3-.3-.3h0s0,0,0,0c0,0,0,0,0,0,0,0,0,0,0,0,0,0,0,0,0,0,0,0,0,0,0,0,0,0,0,0,0,0,0,0,0,0,0,0,0,0,0,0,0,0,0,0,0,0,0,0,0,.9,0,1.9,0,2.9,0,.7-.3,2.2-.9,4.4-.2.5,0,1.1.4,1.5l.7.6s0,0,.2,0Z"/>
    <path class="st0" d="M213.6,260.7s0,0,0,0c0,0,0,0,0,0,0,0,0,0,0,0,0,0,0,0,0,0,0,0,0,0,0,0,0,0,0,0,0,0,0,0,0,0,0,0,0,0,0,0,0,0,0,0,0,0,0,0,0,0,0,0,0,0,0,0,0,0,0,0,0,0,0,0,0,0,0,0,0,0,0,0,0,0,0,0,0,0,0,0,0,0,0,0,0,0,0,0,0,0,1,0,1.8.2,2.4,1.3.1.2.6,1,1.4,2.3,0,0,0,0,0,0,0,0,0,0,0,0,0,0,0,0,0,0,0,0,0,0,0,0,0,0,0,0,0,0,0,0,0,0,0,0,0,0,0,0,0,0,0,0,0,0,0,0,0,0,0,0,0,0,0,0,0,0,0,0,0,0,0,0,0,0,0-1.5-.2-2.8-.4-3.9-1.1-4.9-3.1-9.2-5.9-13.1,0,0,0,0-.1,0,0,0,0,0,0,0,0,0,0,0,0,0,0,0,0,0,0,0,0,0,0,0,0,0,0,0,0,0,0,0,0,0,0,0,0,0,0,0,0,0,0,0,1.4,4,2,8.2,1.9,12.7,0,0,0,0,0,0Z"/>
    <path class="st0" d="M533,265.9c-.7-.4-.8-1.4-1-2.2-.2-.7-.6-1.3-1.2-1.7-.4-.3-1-.2-1.3.2-.9,1.2-1.6,2.2-3.3,2.1-1.4,0-2.7-.4-3.8-1.1,0,0,0,0,0,0,0,0,0,0,0,0,0,0,0,0,0,0,0,0,0,0,0,0,0,0,0,0,0,0,0,0,0,0,0,0,0,0,0,0,0,0,0,0,0,0,0,0,0,0,0,0,0,0h0c0,.3.1.5.3.6,1.3.8,2.7,1.7,4.2,2.7.8.5,2.7,1.2,5.8,2.2,2.7.8,6,.4,7.7-2.1,1.3-2,1.9-5.1,0-6.7-1.3-1-3.5-1.8-4.5-.1-.1.2,0,.4,0,.5,1.1,1,1.5,2.1,1.2,3.3-.4,1.5-1.9,3.2-3.6,2.2Z"/>
    <path class="st0" d="M113.1,263.9c-.3-1-.6-1.7-1-2-2-1.8-6.4-2.9-7.7.4-.3.7-.3,1.4,0,2.1,0,.3.3.4.6.4.8,0,1.8-.4,2.6-.3,4.9,1.1,3.2,8.2,2.7,11.6,0,0,0,0,0,0,0,0,0,0,0,0,0,0,0,0,0,0h0s.1,0,.1,0c0,0,0,0,0,0,0,0,0,0,0,0,.1-.2.7-1.1,1.9-3,1.2-1.8,1.7-3.4,2.2-5.4,0-.2,0-.5-.1-.7-.7-1.1-1.2-2.2-1.4-3.3Z"/>
    <path class="st0" d="M202.1,271.9s0,0,0,.1c0,0,0,.1,0,.2,0,0,0,0,0,.1,0,0,0,.1,0,.2,0,0,0,0,0,0,0,0,0,.1,0,.2,0,0,0,0,0,.1,0,0,0,0,0,.1,0,0,0,0,0,.1,0,0,0,0,0,.1,0,0,0,0,0,.1,0,0,0,0,0,0,0,0,0,0,0,.1,0,0,0,0,0,0,0,0,0,0,0,0,0,0,0,0,0,0,0,0,0,0,0,0,0,0,0,0,0,0,0,0,0,0,0,0,0,0,0,0,0,0,0,0,0,0,0,0,0,0,0,0,.1,0,0,0,0,0,0,0,0,0,0,0,.1,0,0,0,0,0,0,0,0,0,0,0,0,0,0,0,0,0,0,0,0,0,0,0,.1,0,0,0,0,0,0,0,0,0,0,0,.1,0h0s0,0,0,0c0,0,0,0,0,0v-5.6c0,0,0,0-.1,0h0c-1.1,0-2,1.2-2,2.7v.2s0,0,0,0c0,0,0,0,0,.1,0,0,0,.1,0,.2Z"/>
    <path class="st0" d="M159.1,318.3s0,0,0,0h-.1c-1.1,0-2,.3-2.1.9,0,0,0,0,0,0,0,0,0,0,0,0,0,0,0,0,0,0,0,0,0,0,0,0,0,0,0,0,0,0,0,0,0,0,0,0,0,0,0,0,0,0,0,0,0,0,.1,0,0,0,0,0,.1,0,0,0,0,0,.1,0,0,0,.1,0,.2,0,0,0,.1,0,.2,0,0,0,.1,0,.2,0,0,0,.1,0,.2,0,0,0,.1,0,.2,0,0,0,.1,0,.2,0,0,0,.1,0,.2,0h.1s0,0,0,0c0,0,0,0,0,0,0,0,0,0,0,0,0,0,0,0,0,0,0,0,0,0,0,0v-1.7c0,0,0,0,0,0,0,0,0,0,0,0,0,0,0,0,0,0,0,0,0,0,0,0Z"/>
    <path class="st0" d="M448.1,323.9l-1.5,1.3s0,0-.1.1c0,0,0,0,0,0,0,0,0,0,0,.1,0,0,0,0,0,0,0,0,0,0,0,0,0,0,0,0,0,0,0,0,0,0,0,0,0,0,0,0,0,0,0,0,0,0,0,0,0,0,0,0,0,0,0,0,0,0,0,0,0,0,0,0,0,0,0,0,0,0,0,0,0,0,0,0,0,0,0,0,0,0,0,0,0,0,0,0,0,0,0,0,0,0,0,0,0,0,0,0,0,0,0,0,0,0,.1,0,1.7.7,3.3.1,3.8-1.7.8-2.5-3.5-4.6-5.4-5.3-.1,0-.2-.1-.3-.2l-.2-.2c-.1-.1-.3-.2-.4-.3l-1.7-.4s0,0,0,0c0,0,0,0,0,0,0,0,0,0,0,0,0,0,0,0,0,0,0,0,0,0,0,0v1.6c0,0,0,.1,0,.2,0,0,0,0,0,0,0,0,0,0,0,0,0,0,0,0,0,0,0,0,0,0,0,0,0,0,0,0,0,0,0,0,0,0,0,0,0,0,0,0,.1,0,0,0,0,0,.1,0,0,0,0,0,0,0,0,0,.1,0,.2,0l.7-.6c.1,0,.2-.1.4-.1,1.9.3,3.3,1.2,4.1,2.9.2.5,0,1.1-.3,1.4Z"/>
    <path class="st0" d="M106,395.2h-.2c-.9,0-1.6,1-1.6,2.2v.9h0c0,0,0,.2,0,.2,0,0,0,.1,0,.2,0,0,0,.1,0,.2,0,0,0,.1,0,.2,0,0,0,.1,0,.2,0,0,0,.1,0,.2,0,0,0,.1.1.2,0,0,0,.1,0,.1,0,0,0,0,.1.1,0,0,0,0,.1.1,0,0,0,0,.1.1,0,0,0,0,.1,0,0,0,.1,0,.2,0,0,0,0,0,.1,0,0,0,.1,0,.2,0,0,0,.1,0,.2,0h.2c0,0,.1,0,.1-.1v-5c0,0,0-.1-.2-.1Z"/>
    <path class="st0" d="M495,400.1s0,0,0,0c0,0,0,0,0,0,0,0,0,0,0,0,0,0,0,0,0,0,0,0,0,0,0,0,0,0,.1,0,.2,0,.5,0,.9-.2,1.2-.6.8-1.3.8-2.6,0-3.9-.3-.6-.8-.9-1.3-.8,0,0,0,0,0,0,0,0,0,0,0,0,0,0,0,0,0,0,0,0,0,0,0,0,0,0,0,0,0,0,0,0,0,0,0,0,0,0,0,0,0,0,0,0,0,0,0,0,0,0,0,0,0,0,.4,1.6.3,3,0,4.1,0,0,0,.1,0,.2,0,0,0,0,0,0,0,0,0,0,0,.1Z"/>
    <path class="st0" d="M287.1,434.6c-.2,0-.3,0-.5,0-.2,0-.3,0-.4.1-.1,0-.2,0-.3.2,0,0,0,0,0,0s0,0,0,0c0,0,0,0,0,0,.1.2.6.4,1.3.4.4,0,.8,0,1.1-.2.1,0,.2-.2.2-.3,0,0,0-.1-.1-.2-.1-.1-.4-.2-.8-.3-.1,0-.2,0-.4,0Z"/>
  </g>
</svg>