<?xml version="1.0" encoding="UTF-8"?>
<svg xmlns="http://www.w3.org/2000/svg" version="1.1" viewBox="0 0 600 600">
  <!-- Generator: Adobe Illustrator 29.3.1, SVG Export Plug-In . SVG Version: 2.1.0 Build 151)  -->
  <defs>
    <style>
      .st0 {
        fill: #c3913f;
      }

      .st1 {
        fill: #771214;
      }
    </style>
  </defs>
  <g id="Layer_4">
    <rect class="st1" x=".4" width="599.6" height="599.6"/>
  </g>
  <g id="Layer_3">
    <g>
      <path class="st0" d="M494.1,369.9c-19-10.1-82.5-24.8-150.2-17-47.6,5.5-84.1,13.9-113.6,23.7-36.5-16.8-58.9-35.5-77.4-52.5-3.9-3.6-7.3-7.1-10.4-10.5,18.5-18.1,32.8-38.8,32.8-38.8,5.9-9.4,11.9-18.9,18.2-28.5,2.1,1.5,5.1,2.8,9,3.7,24,5.6,50.5-1.9,74.5-22.7,24-20.9,33-51.8,17.1-75.1-15.8-23.3-56.4-31.5-96.7-27.2-40.2,4.3-67.6,18.4-89.8,38.7-13.9,12.7-22.5,33.5-22.3,51.4-33.2,8.7-70.2,51.4-58.7,89.7,12.1,40.3,49.6,44.4,81.2,33,9.7-3.5,19.8-10.8,29.1-19.2,3.3,4.3,7,8.8,11.5,13.4,13.4,14,35.8,33.1,65.4,50.3-6.2,2.4-12,4.8-17.6,7.2-1.8.8-3.6,1.6-5.4,2.3-1.2-.7-2.3-1.4-3.4-2.1-25.5-16.3-54.4-17-65.2-9.8-10.9,7.2-12,25.4,8.3,29.7,14.6,3.1,33-2.8,56.5-10.8,17.7,11,35.2,25.1,53.5,37.1,29.6,19.4,84.4,43.9,131.5,39.7,55.7-5,92.2-40.4,92.2-40.4-47.3,15.6-123,13.2-169.9,0-41.4-11.7-73-25.4-97.4-39.7,6.3-2.1,12.9-4.3,19.9-6.5,1.9-.6,3.9-1.2,5.8-1.7,27.1,14.7,59.7,27.4,96.6,33.4,83.4,13.6,133.7-2.1,157.3-13.1,25.1-11.7,37.4-27.3,17.6-37.8ZM108.7,205.9c6.2-21,23-42.1,40.8-56.4,17.8-14.3,62.2-26.8,96.8-16.7,34.6,10.1,37.2,35.6,27.1,63.3-10.1,27.7-20.8,35.5-36.4,44.3-12.1,6.8-39.2,7-38.2-2.5,1.8-2.7,3.7-5.5,5.6-8.3,10.6-9.6,26.1-10.3,26.1-10.3,9.3-.3,9,3.2,11.8,3.8,1.9.4,4.3-6.9-4.8-9.3-7-1.8-14.6-1.6-22.1.2,2.8-3.8,5.7-7.7,8.6-11.6,21.8-28.7,44.5-32.6,44.5-32.6-25.4,1.4-46.6,14.7-66.4,30.5-19.8,15.9-34,39.2-55.4,74.2-5.6,9.2-11,17.2-16.1,24.2-3.2-4.4-6.1-8.7-8.8-12.7,8.6-10.3,14.9-23.6,16.1-37.4,0-.4,0-.8,0-1.2,5.4-2.2,10.5-5.2,15.1-8.3,16.8-11.1,22.2-32.6,17.5-45.2-3.4-9.3-11-12.4-14.8-13.3-1.2-.3-2.4.3-2.9,1.5-.5,1.3.2,2.7,1.4,3.2,3.9,1.4,11.2,5.8,10.7,19.2-.6,15.3-11.4,30.7-27,36.7-1-17.7-11.8-27.4-30.9-28.4.4-2.3,1-4.7,1.7-7.1ZM106.2,220.1c8-.7,15,1.9,20.5,6.6,4.6,4,5.8,10.1,5.5,16.3-1.2.3-2.3.5-3.5.6-16.7,2.1-23.2-8.9-22.5-23.6ZM91.1,334.1c-20.2,8.1-48.7,1-49.9-23.3-1.4-27.5,3.1-36,25.7-64,7-8.6,13.8-14.9,20.2-19.2,1.7,5.6,4.7,10.6,9,14.3,11.9,10.2,24,11.1,35.2,8.1-1.9,9.4-6,17.6-6,17.6-2,4.5-4.6,8.9-7.5,12.9-3.3-4.6-6.6-8.8-10.5-12.4-14.1-13.3-40-6.7-45.1,11.1-5.1,17.8,9.4,31,29.9,26.8,8.9-1.8,18.2-7.6,26.1-15.8,2.8,4.2,5.5,8.8,8.5,13.8-12.6,16.1-24,25.5-35.7,30.2ZM114.5,284.7c-12.2,14.5-28.7,22.5-39.3,13.5-15.7-13.3,4.5-38,23.1-27.8,7,3.8,11.9,8.6,16.2,14.4ZM122.5,401.2c-6.3-9.5,1.2-25.9,31.2-17.7,9.5,2.6,18.7,6.9,27.8,12.1-28.7,10.6-53.5,13.7-58.9,5.6ZM498.6,388.9c-4.5,4.3-30.3,15.9-66.1,18.1-35.9,2.2-105.3,4.3-165.1-15.8-8.7-2.9-16.8-6-24.3-9.1,33.8-7.5,72.2-11.8,101.7-15.2,37.5-4.3,110.5.5,133,5.8,21.7,5.1,25.4,11.8,20.8,16.1Z"/>
      <path class="st0" d="M575.4,286.6c-.1-.6-.9-.6-1.2-.1-7.1,14.9-22.9,29.8-30.8,34.5-7.6,4.5-17.3,7.8-19.8,4.2-2.6-3.6,0-10.9,8.8-22.1,8.8-11.3,21.6-25.9,19.6-36.6-1.5-7.9-11-7.8-16.7-4.1-5.8,3.7-16.6,13.6-19,15.1-1.1.7-2,.1-2.6-.7,7.2-11.2,13.5-21.3,13.5-21.3-11.6,6.8-21,4.8-21,4.8l-10.2,15.7c-4.2,3.3-9.5,7.3-12.1,8.6-3.5,1.8-7.4,2.3-10.8,1.6,2.6-8.3,2.7-15.8-.2-21.2-.2-1.6-1-3.9-3.6-5.4-.7-.4-1.4-.5-2.1-.4-10.6-5.7-29,3.7-42.3,22.1-5.6,7.8-9.4,16-11.3,23.5-2.6,3-5.7,6.5-8.7,9.2-6.2,5.6-12.3,11.1-15.4,11.1s-4.4-3.4-1.2-8.3c3.2-4.9,17.3-24.3,19.8-36.4,2.3-11.1-7.5-21.3-15.4-25.6,1.6-3.5,3-6.8,4.1-9.9,2.9-8.7-4.3-12.4-7.6-4.6-3.3,7.8-.9,15.5-.9,15.5-15.9,26.3-39,52.7-47.9,60.3-8.8,7.6-15.5,8.1-16.6,3-1-4.3,4.6-9.9,9.4-17.7,4.8-7.8,30.2-43.6,38.8-57.7,8.6-14.1,9.9-27.3-2.9-35.7-12.9-8.4-27.2-4.8-35.4,1.2-5.2,3.8-8.5,8.9-10.3,12.1-.9,1.7-.5,3.9,1.1,5.1,1.6,1.2,3.8,1.1,5.2-.2,4.5-4,10.6-12,16.6-16.5,7.5-5.6,25.3-.9,22.5,10.2-2.7,11.1-10.1,19.8-18.9,32.5-2.2,3.2-4.7,6.8-7.4,10.6-4.1-5.1-16.5-6.9-27.1-.7-10.9,6.4-33.6,26.5-39,41.8-.5,1.3-.8,2.5-1.2,3.7-4.5,3.9-10.2,8.4-15.2,11.4-11.1,6.5-11.2-1.8-7.8-5.9,3.4-4.1,22.6-31.9,27.7-39.2,5.1-7.3,12.9-19.5,12.9-19.5,0,0-7.3,7.4-20.7,3.4,0,0-.6,1-1.7,2.6-1-1.6-3-3.6-6.5-4.7-7.9-2.5-29.4,5.5-47.1,25-17.7,19.6-21.5,34.9-16.5,44.9,4.7,9.3,23.5,4.6,33.5-7.3-.8,5.5,1.1,10.4,7.8,13.1,9.6,3.8,23.7-7.8,32.1-15.5-.6,8.9,3.2,14.7,12.4,13.9,8.8-.7,15.5-5.8,18.9-9,0,.2,0,.3,0,.3-1,8.2,9.8,18.7,32.2,4.1,22.3-14.5,39.6-40.2,45.3-50.6,2.8-5.1,5.5-10.2,8-15.1,1.6.9,3.8,2.9,5,7.5,2.6,9.8-7.4,21.7-16.1,36.3-8.9,14.9-9.5,20.8-2.3,26.7,7.4,6,23.8-1.9,35.2-16.2-.2,6.9,1.8,12.5,6.1,15.6,10.2,7.3,29.6-2.3,43.4-21.5,3.9-5.4,7.1-11,9.3-16.4,2.3.4,4.9.5,7.9.2,3.1-.3,6-1.5,8.6-2.8l-27.9,43,16.2.2s13.4-19.3,23.1-33.1c.7-1,1.5-2.1,2.3-3.3,7.8-6.4,19-15.8,21.6-18.3,3.9-3.8,8.3-7.7,10.3-6,1.9,1.7.2,4.2-3,8.9-3.2,4.6-9.4,13.7-14.9,21.9-5.5,8.1-10.7,16.2-4.5,24,6.1,7.7,18.3,9.4,33,.8,14.7-8.6,23.8-21.3,28.9-29.2,3.4-5.2,3.3-9,2.8-11ZM240.7,304.3c-.6.7-1.1,1.4-1.6,2.2-4.6,4.1-11.8,10.4-16.5,13.5-8.3,5.4-12,.3-9-5.7,0,0,9.3-17.9,20.6-30.9,11.3-12.9,21.8-20.6,25.9-21.7,3-.8,6,.8,6.6,4.8-7.5,11.4-20.6,31.1-25.9,37.9ZM316.3,300.1c-3.8,5.2-6.3,9.3-8,12.3-11.5,12-23.2,13.9-22.1,5.9,1.2-8.8,11.3-20.8,20.2-32.6,8.9-11.8,23.6-24.1,29-22.3,2.7.9,3.5,2.8,3.6,4.5-7.1,10.2-15.1,21.5-22.8,32.1ZM465.3,280.6c-2.2-4.4.2-11.1,3.6-13.4,0,0,.1,0,.2.1,3.8,2.3,3.3,8.9,0,17.2-1.6-1-2.9-2.3-3.7-4ZM458.1,303.6c-12.6,17.2-24.5,24.4-30.8,22-10.8-4.2-.5-20.1,11-36.2,7.9-10.9,15.1-19.7,21.8-22.5-1,2.4-1.6,5.3-1.6,8.3,0,6.7,2.4,12.2,8.1,14.9-2.2,4.3-5.1,8.9-8.4,13.5Z"/>
      <path class="st0" d="M512.9,232.1c-1.8-2.3-5.1-2.7-7.4-.9l-29.2,23.1,34.5-14.1c3.2-1.3,4.3-5.4,2.1-8.1Z"/>
    </g>
  </g>
</svg>