<?xml version="1.0" encoding="UTF-8"?>
<svg id="Layer_4" xmlns="http://www.w3.org/2000/svg" xmlns:xlink="http://www.w3.org/1999/xlink" version="1.1" viewBox="0 0 600 600">
  <!-- Generator: Adobe Illustrator 29.3.1, SVG Export Plug-In . SVG Version: 2.1.0 Build 151)  -->
  <defs>
    <style>
      .st0 {
        fill: url(#_ÂÁ_Ï_ÌÌ_È_ËÂÌÚ_161);
      }

      .st1 {
        fill: url(#_ÂÁ_Ï_ÌÌ_È_ËÂÌÚ_16);
      }
    </style>
    <linearGradient id="_ÂÁ_Ï_ÌÌ_È_ËÂÌÚ_16" data-name="¡ÂÁ˚ÏˇÌÌ˚È „‡‰ËÂÌÚ 16" x1="243.9" y1="121.2" x2="356.1" y2="121.2" gradientUnits="userSpaceOnUse">
      <stop offset="0" stop-color="#00c5ff"/>
      <stop offset="1" stop-color="#008bff"/>
    </linearGradient>
    <linearGradient id="_ÂÁ_Ï_ÌÌ_È_ËÂÌÚ_161" data-name="¡ÂÁ˚ÏˇÌÌ˚È „‡‰ËÂÌÚ 16" x1="184.6" y1="327.2" x2="415.4" y2="327.2" xlink:href="#_ÂÁ_Ï_ÌÌ_È_ËÂÌÚ_16"/>
  </defs>
  <path class="st1" d="M356.1,89.1l-.6.3c-4.4,2.3-9.6,2.2-14-.1l-3-1.6c-1.2-.6-2.7-.5-3.7.4l-.2.2c-4.8,4.3-11.8,4.9-17.4,1.7l-2-1.2c-1.1-.7-2.5-.6-3.5.2l-2.3,1.7c-5.5,4-13.1,3.8-18.3-.7-1.2-1-2.9-1-4.1,0l-.8.7c-4.4,3.5-10.6,4.2-15.6,1.7l-5.9-2.8c-.8-.4-1.8-.4-2.6,0l-4.9,1.9c-3.3,1.3-6.9,1.4-10.2.3l-3.2-1.1v64.6h112.2v-66ZM312.8,143.5h-54.1c-3.2,0-5.8-2.6-5.8-5.8s2.6-5.8,5.8-5.8h54.1c3.2,0,5.8,2.6,5.8,5.8s-2.6,5.8-5.8,5.8ZM312.8,118.5h-54.1c-3.2,0-5.8-2.6-5.8-5.8s2.6-5.8,5.8-5.8h54.1c3.2,0,5.8,2.6,5.8,5.8s-2.6,5.8-5.8,5.8Z"/>
  <path class="st0" d="M383.7,141.8h-16v13.4h18.3c3.2,0,5.8,2.6,5.8,5.8s-2.6,5.8-5.8,5.8h-172.1c-3.2,0-5.8-2.6-5.8-5.8s2.6-5.8,5.8-5.8h18.3v-13.4h-16c-17.5,0-31.7,14.2-31.7,31.7v307.6c0,17.5,14.2,31.7,31.7,31.7h167.5c17.5,0,31.7-14.2,31.7-31.7V173.4c0-17.5-14.2-31.7-31.7-31.7ZM214.5,428.8v-12.5c0-7.1,5.8-12.9,12.9-12.9h21.8c7.1,0,12.9,5.8,12.9,12.9v12.5c0,7.1-5.8,12.9-12.9,12.9h-21.8c-7.1,0-12.9-5.8-12.9-12.9ZM227.5,355.1h21.8c7.1,0,12.9,5.8,12.9,12.9v12.5c0,7.1-5.8,12.9-12.9,12.9h-21.8c-7.1,0-12.9-5.8-12.9-12.9v-12.5c0-7.1,5.8-12.9,12.9-12.9ZM214.5,332.3v-12.5c0-7.1,5.8-12.9,12.9-12.9h21.8c7.1,0,12.9,5.8,12.9,12.9v12.5c0,7.1-5.8,12.9-12.9,12.9h-21.8c-7.1,0-12.9-5.8-12.9-12.9ZM333.1,499.9h-66.3c-13.1,0-23.8-10.7-23.8-23.8s10.7-23.8,23.8-23.8h66.3c13.1,0,23.8,10.7,23.8,23.8s-10.7,23.8-23.8,23.8ZM289.1,355.1h21.8c7.1,0,12.9,5.8,12.9,12.9v12.5c0,7.1-5.8,12.9-12.9,12.9h-21.8c-7.1,0-12.9-5.8-12.9-12.9v-12.5c0-7.1,5.8-12.9,12.9-12.9ZM276.2,332.3v-12.5c0-7.1,5.8-12.9,12.9-12.9h21.8c7.1,0,12.9,5.8,12.9,12.9v12.5c0,7.1-5.8,12.9-12.9,12.9h-21.8c-7.1,0-12.9-5.8-12.9-12.9ZM289.1,403.4h21.8c7.1,0,12.9,5.8,12.9,12.9v12.5c0,7.1-5.8,12.9-12.9,12.9h-21.8c-7.1,0-12.9-5.8-12.9-12.9v-12.5c0-7.1,5.8-12.9,12.9-12.9ZM385.5,428.8c0,7.1-5.8,12.9-12.9,12.9h-21.8c-7.1,0-12.9-5.8-12.9-12.9v-12.5c0-7.1,5.8-12.9,12.9-12.9h21.8c7.1,0,12.9,5.8,12.9,12.9v12.5ZM385.5,380.6c0,7.1-5.8,12.9-12.9,12.9h-21.8c-7.1,0-12.9-5.8-12.9-12.9v-12.5c0-7.1,5.8-12.9,12.9-12.9h21.8c7.1,0,12.9,5.8,12.9,12.9v12.5ZM385.5,332.3c0,7.1-5.8,12.9-12.9,12.9h-21.8c-7.1,0-12.9-5.8-12.9-12.9v-12.5c0-7.1,5.8-12.9,12.9-12.9h21.8c7.1,0,12.9,5.8,12.9,12.9v12.5ZM393.3,275.2c0,7.5-6.1,13.7-13.7,13.7h-159.3c-7.5,0-13.7-6.1-13.7-13.7v-79.7c0-7.5,6.1-13.7,13.7-13.7h159.3c7.5,0,13.7,6.1,13.7,13.7v79.7Z"/>
</svg>