<?xml version="1.0" encoding="UTF-8"?>
<svg id="Layer_4" xmlns="http://www.w3.org/2000/svg" xmlns:xlink="http://www.w3.org/1999/xlink" version="1.1" viewBox="0 0 600 600">
  <!-- Generator: Adobe Illustrator 29.3.1, SVG Export Plug-In . SVG Version: 2.1.0 Build 151)  -->
  <defs>
    <style>
      .st0 {
        fill: url(#_ÂÁ_Ï_ÌÌ_È_ËÂÌÚ_16);
      }
    </style>
    <linearGradient id="_ÂÁ_Ï_ÌÌ_È_ËÂÌÚ_16" data-name="¡ÂÁ˚ÏˇÌÌ˚È „‡‰ËÂÌÚ 16" x1="129.4" y1="300" x2="470.6" y2="300" gradientUnits="userSpaceOnUse">
      <stop offset="0" stop-color="#00c5ff"/>
      <stop offset="1" stop-color="#008bff"/>
    </linearGradient>
  </defs>
  <path class="st0" d="M415.8,379c-19.8,0-37.1,10.5-46.7,26.2l3-5.2-136.9-79.1-2.7,4.6c4-7.6,6.3-16.3,6.3-25.5s-2.3-18-6.4-25.7l2.8,4.8,136.9-79.1-3-5.2c9.6,15.7,26.9,26.1,46.7,26.1,30.2,0,54.7-24.5,54.7-54.7s-24.5-54.7-54.7-54.7-54.7,24.5-54.7,54.7,2.4,18.2,6.5,25.9l-2.9-5-136.9,79.1,2.9,5c-9.7-15.5-26.9-25.9-46.5-25.9-30.2,0-54.7,24.5-54.7,54.7s24.5,54.7,54.7,54.7,36.7-10.3,46.4-25.7l-2.7,4.7,136.9,79.1,2.9-5.1c-4.2,7.7-6.6,16.6-6.6,26,0,30.2,24.5,54.7,54.7,54.7s54.7-24.5,54.7-54.7-24.5-54.7-54.7-54.7Z"/>
</svg>