<?xml version="1.0" encoding="UTF-8"?>
<svg xmlns="http://www.w3.org/2000/svg" version="1.1" viewBox="0 0 600 600">
  <!-- Generator: Adobe Illustrator 29.3.1, SVG Export Plug-In . SVG Version: 2.1.0 Build 151)  -->
  <defs>
    <style>
      .st0 {
        fill: #f4b75d;
      }

      .st1 {
        isolation: isolate;
      }

      .st2 {
        fill: #76411e;
      }

      .st3 {
        fill: #683c1d;
      }

      .st4 {
        fill: #d27728;
        mix-blend-mode: screen;
      }

      .st4, .st5 {
        opacity: .2;
      }

      .st6 {
        opacity: 0;
      }

      .st7 {
        fill: #db3a32;
      }

      .st8 {
        fill: #b7beba;
      }

      .st9 {
        fill: #633117;
      }
    </style>
  </defs>
  <g class="st1">
    <g id="Layer_4">
      <g>
        <path class="st2" d="M174.7,244.3c4.1.4,1.4,7.8.7,10-1.6,5.3-3.3,10.5-4.9,15.8-.5,1.7-1.1,3.5-.9,5.2.3,2.6,2.1,4.9,3.9,7.1,2.9,3.5,6,6.9,8.6,10.6v-59.5c-2.1.4-4.3.6-6.6.6-5,0-9.7-1-14-2.8,1,13.8,1.8,27.5,2.2,41.3h0s0,0,0,0c5.9-9.1,9.3-18.1,11.1-28.4Z"/>
        <path class="st2" d="M182,324.2v-19.5c-1.3-3.1-2.8-6.2-4.4-9.2-3.2-6.3-6.6-12.9-13.1-17.4-.3.3-.5.6-.8.9,0,0,0,0,0,0,.5,18.8.4,37.6-.1,56.4,4.7-2.5,9.2-5.1,13.5-7.9,1.6-1.1,3.3-2.2,4.8-3.3Z"/>
        <path class="st2" d="M195.4,318.8v52.6c.2,1.6.2,3.3,0,4.9v60.3c1.5-3.1,3.3-6.1,4.7-9.2,10.3-22.9-1.2-49.5,7.6-72.2v-51.5c-2,3.1-4.3,6.1-6.7,9.1-1.7,2.1-3.6,4.1-5.6,6Z"/>
        <path class="st2" d="M176.6,167.7c0-.5,0-1.1,0-1.6,0-5.4,2.4-10.7,3.1-16.1,1.3-10.4-4.5-18.9-13-26.5,5.4-.1,10.8,8.7,12.6,12.2,1.3,2.5,2.2,5.2,2.7,7.8v-39.7c-3.6-.4-7.3-.7-10.9-.9-1.1,0-2.1-.2-3.2-.2.1,1.7.1,3.5,0,5.2-.9,12.8-7.3,25-10.2,37.7-2.1,9.2-2.4,18.5-1.9,27.8,5.6-3.6,12.3-5.7,19.6-5.7s.8,0,1.2,0Z"/>
        <path class="st2" d="M197.3,460.5c2-2.2,3.9-4.4,5.7-6.6,0,0,0,0,0,0,0-4.7-3.4-17.8-.4-21.6-2.4,3.1-4.8,6.2-7.2,9.4v20.9c.7-.7,1.3-1.4,2-2.1Z"/>
        <path class="st2" d="M182,474v-144.5c-.5.4-1.1.7-1.6,1.1-5.4,3.4-11,6.5-16.9,9.3-.8,24.8-2.3,49.6-4.4,74.3,0,0,0,0,0,0,0,0,0,0,0,0,1.3-3.3,1.1-6,1-6.8-.6-9.6,6.6-46.2,7.6-46.1.8,0,1.6,25.3-4.8,55.8-3.4,15.8-5.4,17.4-5.8,27.6-.5,13.3,2.3,24.9,6.4,40.6,4.7-2.5,9.3-5.1,13.6-7.9,1.6-1.1,3.2-2.2,4.8-3.3Z"/>
        <path class="st2" d="M179.6,167.9c.8,0,1.6.2,2.4.4v-15.6c-.7,3.6-2.1,7.2-2.5,10.8-.1,1.5,0,3,0,4.5Z"/>
        <path class="st2" d="M180.4,480.3c-5,3.2-10.3,6.1-15.8,8.8,1.8,6.7,3.6,12.4,5.1,16.9,0,0,0,0,0,0,0,0,0,0,0,0,4.1,0,8.2.1,12.3.1v-26.9c-.5.4-1.1.7-1.6,1.1Z"/>
        <path class="st2" d="M202.9,499.4c.1-7.7.2-15.4.3-23,0-5.5,0-11,0-16.4,0,0,0,0,0,0-.7.9-1.4,1.7-2.1,2.6-1.7,2.1-3.6,4.1-5.6,6.1v37.5c.6,0,1.2,0,1.8,0,.9,0,1.9,0,3,0,.5,0,1.1,0,1.7,0,.6,0,1.2,0,1.8,0-.6,0-1.2,0-1.8,0,.2-2.9,1-5.8,1-6.8Z"/>
        <path class="st2" d="M160.9,490.9c-1.1.5-2.1,1-3.2,1.5.5,4.5.6,9.4.1,14.2,2.5,0,5.1-.2,7.6-.4,1.1,0,2.3-.1,3.4-.1-1.7-2.8-3.4-5.7-5-8.8-1.1-2.1-2.1-4.3-3-6.4Z"/>
        <path class="st2" d="M159.5,487.4c-1.2-3.2-2.3-6.3-3.1-9.4.2,3.5.5,7,.9,10.5.8-.4,1.5-.7,2.2-1.1Z"/>
        <path class="st2" d="M200.2,107.7c-1.5-.6-3.1-1.1-4.8-1.6v57c.7-.7,1.3-1.4,2-2.1,3.7-4,7.1-8.2,10.4-12.5v-33.5c0-1.6-.2-3.1-.6-4.6-.3-1-.6-1.9-1.1-2.8.4.9.8,1.9,1,2.8-2.3-.9-4.6-1.9-6.9-2.8Z"/>
        <path class="st2" d="M195.4,169v4.6c4.8,3.2,8.8,7.5,11.4,12.6,0,0,0,0,0,0,.3,0,.6.2.9.3v-32.5c-2,3.1-4.3,6.1-6.7,9.1-1.7,2.1-3.6,4.1-5.6,6Z"/>
        <path class="st2" d="M195.4,228.2v84.7c.7-.7,1.3-1.4,2-2.1,3.7-4,7.1-8.2,10.4-12.5v-79.1c-.9-.1-1.9-.3-2.9-.4-2.5,3.7-5.7,6.8-9.5,9.3Z"/>
        <path class="st9" d="M195.4,163.1v5.9c2-1.9,3.9-4,5.6-6,2.5-2.9,4.7-6,6.7-9.1v-5.4c-3.3,4.3-6.7,8.5-10.4,12.5-.6.7-1.3,1.4-2,2.1Z"/>
        <path class="st3" d="M207.7,498.9v-143.7s0,0,0,0c-8.8,22.7,2.7,49.3-7.6,72.2-1.4,3.1-3.2,6.1-4.7,9.2v5.1c2.4-3.1,4.8-6.2,7.2-9.4-3,3.8.4,16.9.4,21.6,1.6-1.9,3.1-3.9,4.7-5.9v5.4c-1.4,2.2-3,4.3-4.6,6.5,0,5.5,0,11,0,16.4,0,7.7-.1,15.4-.3,23,0,1-.8,4-1,6.8.6,0,1.2,0,1.8,0,1.9,0,3.5-.4,4.1-1.4,0-.1,0-.4,0-.6,0-.2,0-.5,0-.7,0,0,0-.1,0-.2.2-1.4,0-3,0-4.4Z"/>
        <path class="st9" d="M182,329.5v-5.3c-1.6,1.1-3.2,2.2-4.8,3.3-4.3,2.8-8.9,5.4-13.5,7.9,0,1.5,0,3-.1,4.4,5.9-2.8,11.6-5.9,16.9-9.3.5-.3,1.1-.7,1.6-1.1Z"/>
        <path class="st9" d="M195.4,312.8v5.9c2-1.9,3.9-4,5.6-6,2.5-2.9,4.7-6,6.7-9.1v-5.4c-3.3,4.3-6.7,8.5-10.4,12.5-.6.7-1.3,1.4-2,2.1Z"/>
        <path class="st9" d="M177.2,477.3c-4.3,2.8-8.9,5.4-13.6,7.9.2.6.3,1.3.5,1.9.2.7.3,1.3.5,1.9,5.5-2.6,10.8-5.6,15.8-8.8.5-.3,1.1-.7,1.6-1.1v-5.3c-1.6,1.1-3.2,2.2-4.8,3.3Z"/>
        <path class="st9" d="M197.3,460.5c-.6.7-1.3,1.4-2,2.1v5.9c2-1.9,3.9-4,5.6-6.1.7-.9,1.4-1.7,2.1-2.6,0,0,0,0,0,0,1.6-2.1,3.2-4.3,4.6-6.5v-5.4c-1.5,2-3.1,4-4.7,5.9,0,0,0,0,0,0-1.8,2.2-3.7,4.5-5.7,6.6Z"/>
        <path class="st9" d="M157.5,490.3c0,.7.2,1.4.2,2.1,1.1-.5,2.2-.9,3.2-1.5-.5-1.2-1-2.3-1.4-3.5-.7.4-1.5.8-2.2,1.1,0,.6.1,1.2.2,1.8Z"/>
        <path class="st3" d="M200.2,107.7c2.3.9,4.6,1.9,6.9,2.8-.3-1-.6-1.9-1-2.8-1.3-2.8-3.3-5.3-5.9-7.4-1.4-1.2-3-2.3-4.8-3.2v9c1.7.5,3.3,1,4.8,1.6Z"/>
        <path class="st3" d="M171.1,102.9c3.7.2,7.3.5,10.9.9v-10.3c-.7,0-1.4,0-2.1,0h-9.1c-1.9,0-3.8.1-5.6.4,1.6,2.7,2.4,5.8,2.6,8.8,1.1,0,2.1.1,3.2.2Z"/>
        <path class="st3" d="M179.5,163.4c.3-3.7,1.8-7.2,2.5-10.8v-9.1c-.5-2.7-1.4-5.3-2.7-7.8-1.8-3.4-7.2-12.3-12.6-12.2,8.4,7.6,14.3,16,13,26.5-.7,5.4-3.2,10.7-3.1,16.1,0,.5,0,1.1,0,1.6,1,0,2,.1,3,.2-.1-1.5-.2-3,0-4.5Z"/>
        <polygon class="st3" points="143 302.1 143 303.8 143 303.8 143 302.1 143 302.1"/>
        <path class="st3" d="M195.4,371.4v4.9c.2-1.6.2-3.2,0-4.9Z"/>
        <path class="st3" d="M177.7,295.5c1.5,3,3.1,6.1,4.4,9.2v-11.7c-2.6-3.6-5.7-7.1-8.6-10.6-1.8-2.2-3.6-4.5-3.9-7.1-.2-1.8.4-3.5.9-5.2,1.7-5.3,3.3-10.5,4.9-15.8.7-2.2,3.4-9.6-.7-10-1.8,10.3-5.2,19.2-11.1,28.4,0,0,0,0,0,0,0,2.1.1,4.2.2,6.4.3-.3.5-.6.8-.9,6.5,4.5,9.9,11.1,13.1,17.4Z"/>
        <polygon class="st3" points="143 432.6 143 439.1 143 439.1 143 432.6 143 432.6"/>
        <path class="st3" d="M164.7,489.1c-.2-.6-.3-1.3-.5-1.9-.2-.7-.3-1.3-.5-1.9-4.1-15.6-6.9-27.3-6.4-40.6.4-10.2,2.4-11.7,5.8-27.6,6.5-30.5,5.7-55.7,4.8-55.8-1,0-8.2,36.5-7.6,46.1,0,.8.3,3.5-1,6.8,0,0,0,0,0,0,0,.1,0,.3,0,.4-1.8,21.1-4,42.2-2.7,63.2,0,0,0,0,0,0,.9,3.1,1.9,6.2,3.1,9.4.4,1.2.9,2.3,1.4,3.5.9,2.1,1.9,4.2,3,6.4,1.6,3.1,3.2,6,5,8.8,0,0,0,0,0,0,.3,0,.6,0,.9,0,0,0,0,0,0,0-1.5-4.4-3.3-10.2-5.1-16.9Z"/>
        <polygon class="st6" points="143 217.9 143 219.2 143 219.2 143 217.9 143 217.9"/>
        <polygon class="st6" points="207.7 188.8 207.7 217.9 207.7 217.9 207.7 219.2 207.7 219.2 207.7 186.4 207.7 186.4 207.7 188.8 207.7 188.8"/>
        <polygon class="st6" points="143 185.8 143 185.8 143 188 143 188 143 185.8"/>
        <path class="st2" d="M206.8,186.2c-2.6-5.1-6.6-9.4-11.4-12.6v4c3.5,2.7,6.4,6.1,8.4,10,0,0,0,0,0,0,1.4.4,2.7.8,3.9,1.2v-2.4c-.3,0-.6-.2-.9-.3,0,0,0,0,0,0Z"/>
        <path class="st6" d="M206.8,186.2c-2.6-5.1-6.6-9.4-11.4-12.6v4c3.5,2.7,6.4,6.1,8.4,10,0,0,0,0,0,0,1.4.4,2.7.8,3.9,1.2v-2.4c-.3,0-.6-.2-.9-.3,0,0,0,0,0,0Z"/>
        <path class="st2" d="M177.2,170.9c-.3-1.1-.5-2.2-.6-3.2-.4,0-.8,0-1.2,0-7.3,0-14,2.1-19.6,5.7,0,1.3.2,2.5.3,3.8,0,0,0,0,0,0,5.4-3.9,12.1-6.3,19.4-6.3s1.2,0,1.8,0Z"/>
        <path class="st6" d="M177.2,170.9c-.3-1.1-.5-2.2-.6-3.2-.4,0-.8,0-1.2,0-7.3,0-14,2.1-19.6,5.7,0,1.3.2,2.5.3,3.8,0,0,0,0,0,0,5.4-3.9,12.1-6.3,19.4-6.3s1.2,0,1.8,0Z"/>
        <path class="st2" d="M202,217.1s0,0,0,0c-1.8,2.7-4,5-6.6,7v4c3.8-2.5,7-5.6,9.5-9.3,1,.1,1.9.2,2.9.4v-1.3c-1.8-.3-3.7-.5-5.7-.8Z"/>
        <path class="st6" d="M202,217.1s0,0,0,0c-1.8,2.7-4,5-6.6,7v4c3.8-2.5,7-5.6,9.5-9.3,1,.1,1.9.2,2.9.4v-1.3c-1.8-.3-3.7-.5-5.7-.8Z"/>
        <path class="st2" d="M182,233.5v-3.3c-2.1.4-4.3.7-6.6.7-5.1,0-10-1.2-14.3-3.2,0,1.2.2,2.5.3,3.7,4.3,1.8,9,2.8,14,2.8s4.5-.2,6.6-.6Z"/>
        <path class="st6" d="M182,233.5v-3.3c-2.1.4-4.3.7-6.6.7-5.1,0-10-1.2-14.3-3.2,0,1.2.2,2.5.3,3.7,4.3,1.8,9,2.8,14,2.8s4.5-.2,6.6-.6Z"/>
        <path class="st2" d="M179.6,167.9c.1,1.1.3,2.2.4,3.3.7,0,1.3.2,2,.3v-3.3c-.8-.1-1.6-.3-2.4-.4Z"/>
        <path class="st6" d="M179.6,167.9c.1,1.1.3,2.2.4,3.3.7,0,1.3.2,2,.3v-3.3c-.8-.1-1.6-.3-2.4-.4Z"/>
        <path class="st3" d="M176.6,167.7c.1,1.1.3,2.2.6,3.2,1,0,1.9.1,2.9.3-.2-1.1-.3-2.2-.4-3.3-1-.1-2-.2-3-.2Z"/>
        <path class="st6" d="M176.6,167.7c.1,1.1.3,2.2.6,3.2,1,0,1.9.1,2.9.3-.2-1.1-.3-2.2-.4-3.3-1-.1-2-.2-3-.2Z"/>
        <polygon class="st8" points="143 198.8 143 195.7 143 188 143 188 143 188 143 217.9 143 217.9 143 217.9 143 198.8"/>
        <path class="st8" d="M202,217.1s0,0,0,0c2,.2,3.9.5,5.7.8,0,0,0,0,0,0v-29.1s0,0,0,0c-1.3-.4-2.6-.8-3.9-1.2,0,0,0,0,0,0,2.1,4,3.3,8.5,3.3,13.3s-1.9,11.6-5,16.2Z"/>
        <path class="st0" d="M202.4,200.9c0,6.6-2.6,12.6-7,17.2v6.1c2.6-2,4.8-4.4,6.6-7,3.2-4.7,5-10.2,5-16.2s-1.2-9.3-3.3-13.3c-2-3.9-4.9-7.3-8.4-10v6.1c4.3,4.5,7,10.6,7,17.2Z"/>
        <path class="st0" d="M182,230.2v-4.6c-2.1.5-4.3.8-6.6.8-5.4,0-10.5-1.5-14.7-4.1,0,0,0,0,0,0,.2,1.8.3,3.6.4,5.4,0,0,0,0,0,0,4.3,2.1,9.1,3.2,14.3,3.2s4.5-.2,6.6-.7Z"/>
        <path class="st0" d="M156.5,182.7c4.9-4.5,11.5-7.3,18.9-7.3s4.5.3,6.6.8v-4.6c-.6-.1-1.3-.2-2-.3-.9-.1-1.9-.2-2.9-.3-.6,0-1.2,0-1.8,0-7.3,0-14,2.4-19.4,6.3.1,1.8.3,3.7.5,5.5,0,0,0,0,0,0Z"/>
        <path class="st7" d="M158.6,201c0-7.2,7.5-13.1,16.8-13.1s4.6.4,6.6,1.1v-12.8c-2.1-.5-4.3-.8-6.6-.8-7.4,0-14,2.8-18.9,7.3,0,.9.2,1.7.2,2.6.5,4.3,1,8.7,1.5,13,.7,5.9,1.3,11.9,1.9,17.8.2,2.1.4,4.2.6,6.3,4.2,2.6,9.3,4.1,14.7,4.1s4.5-.3,6.6-.8v-24.7h-23.4ZM175.4,212.6c-3.1,0-5.6-1.9-5.6-4.3s2.5-4.3,5.6-4.3,5.6,1.9,5.6,4.3-2.5,4.3-5.6,4.3Z"/>
        <path class="st7" d="M202.4,200.9c0-6.6-2.6-12.6-7-17.2v34.3c4.3-4.5,7-10.6,7-17.2Z"/>
        <path class="st0" d="M158.6,201h23.4v-12c-2-.7-4.3-1.1-6.6-1.1-9.3,0-16.8,5.9-16.8,13.1Z"/>
        <path class="st8" d="M175.4,203.9c-3.1,0-5.6,1.9-5.6,4.3s2.5,4.3,5.6,4.3,5.6-1.9,5.6-4.3-2.5-4.3-5.6-4.3Z"/>
        <path class="st2" d="M182,293c2,2.7,3.7,5.6,4.8,8.6,0,.1.1.3.2.4,2,5.5,1.9,11.3,1.6,17,2.4-2,4.6-4.1,6.8-6.3v-84.7c-3.9,2.6-8.5,4.5-13.4,5.4v59.5Z"/>
        <path class="st4" d="M182,293c2,2.7,3.7,5.6,4.8,8.6,0,.1.1.3.2.4,2,5.5,1.9,11.3,1.6,17,2.4-2,4.6-4.1,6.8-6.3v-84.7c-3.9,2.6-8.5,4.5-13.4,5.4v59.5Z"/>
        <path class="st2" d="M195.4,173.6v-4.6c-1,.9-2,1.9-3,2.8,1,.5,2,1.1,3,1.8Z"/>
        <path class="st4" d="M195.4,173.6v-4.6c-1,.9-2,1.9-3,2.8,1,.5,2,1.1,3,1.8Z"/>
        <path class="st2" d="M193.3,362.6c.8,2.9,1.7,5.8,2.1,8.7v-52.6c-2.2,2.1-4.5,4.1-6.9,6.1-.2,12.7,1.3,25.4,4.8,37.8Z"/>
        <path class="st4" d="M193.3,362.6c.8,2.9,1.7,5.8,2.1,8.7v-52.6c-2.2,2.1-4.5,4.1-6.9,6.1-.2,12.7,1.3,25.4,4.8,37.8Z"/>
        <path class="st2" d="M182.1,152.4c0,0,0,.2,0,.2v15.6c2.1.4,4.1.9,6,1.6,2.6-2.2,5.1-4.4,7.4-6.8v-57c-1.1-.3-2.3-.6-3.5-.8-1.3-.3-2.6-.5-3.9-.7.1.3.2.5.4.7,2.3,2.6,3.2,6,2.4,9.1.6-2.5-6.8-6.8-8.1-10.4h0c-.2,0-.5,0-.7,0v39.7c.5,2.9.6,5.9,0,8.8Z"/>
        <path class="st4" d="M182.1,152.4c0,0,0,.2,0,.2v15.6c2.1.4,4.1.9,6,1.6,2.6-2.2,5.1-4.4,7.4-6.8v-57c-1.1-.3-2.3-.6-3.5-.8-1.3-.3-2.6-.5-3.9-.7.1.3.2.5.4.7,2.3,2.6,3.2,6,2.4,9.1.6-2.5-6.8-6.8-8.1-10.4h0c-.2,0-.5,0-.7,0v39.7c.5,2.9.6,5.9,0,8.8Z"/>
        <path class="st2" d="M182,479.2v26.9c.7,0,1.3,0,2,0s1.9,0,2.8,0c2.9,0,5.7,0,8.6,0v-37.5c-4,3.9-8.5,7.5-13.4,10.7Z"/>
        <path class="st4" d="M182,479.2v26.9c.7,0,1.3,0,2,0s1.9,0,2.8,0c2.9,0,5.7,0,8.6,0v-37.5c-4,3.9-8.5,7.5-13.4,10.7Z"/>
        <path class="st2" d="M194.4,379.7c-3.8-13.2-6.3-26.7-7.5-40.2-.4-4.2-.6-8.5-.8-12.8,0,0,0,0,0,0-1.3,1-2.7,1.9-4,2.8v144.5c4.9-3.5,9.3-7.3,13.4-11.4v-20.9c-.9,1.2-1.9,2.4-2.8,3.7.3-3,1.4-5.9,2.8-8.8v-60.3c-.2,1.2-.5,2.3-1,3.4Z"/>
        <path class="st4" d="M194.4,379.7c-3.8-13.2-6.3-26.7-7.5-40.2-.4-4.2-.6-8.5-.8-12.8,0,0,0,0,0,0-1.3,1-2.7,1.9-4,2.8v144.5c4.9-3.5,9.3-7.3,13.4-11.4v-20.9c-.9,1.2-1.9,2.4-2.8,3.7.3-3,1.4-5.9,2.8-8.8v-60.3c-.2,1.2-.5,2.3-1,3.4Z"/>
        <path class="st2" d="M185.2,315c-.6-3.5-1.8-6.9-3.2-10.2v19.5c1.3-.9,2.6-1.9,3.9-2.9-.1-2.1-.3-4.3-.7-6.4Z"/>
        <path class="st4" d="M185.2,315c-.6-3.5-1.8-6.9-3.2-10.2v19.5c1.3-.9,2.6-1.9,3.9-2.9-.1-2.1-.3-4.3-.7-6.4Z"/>
        <path class="st9" d="M192.4,171.8c1-.9,2-1.8,3-2.8v-5.9c-2.3,2.4-4.8,4.6-7.4,6.8,1.5.6,3,1.2,4.4,1.9Z"/>
        <path class="st4" d="M192.4,171.8c1-.9,2-1.8,3-2.8v-5.9c-2.3,2.4-4.8,4.6-7.4,6.8,1.5.6,3,1.2,4.4,1.9Z"/>
        <path class="st3" d="M195.4,441.7v-5.1c-1.4,2.9-2.5,5.8-2.8,8.8.9-1.2,1.9-2.4,2.8-3.7Z"/>
        <path class="st4" d="M195.4,441.7v-5.1c-1.4,2.9-2.5,5.8-2.8,8.8.9-1.2,1.9-2.4,2.8-3.7Z"/>
        <path class="st9" d="M182,324.2v5.3c1.4-.9,2.7-1.9,4-2.8,0-1.8,0-3.6-.2-5.4-1.3,1-2.5,2-3.9,2.9Z"/>
        <path class="st4" d="M182,324.2v5.3c1.4-.9,2.7-1.9,4-2.8,0-1.8,0-3.6-.2-5.4-1.3,1-2.5,2-3.9,2.9Z"/>
        <path class="st9" d="M188.5,323.4c0,.5,0,1,0,1.5,2.4-1.9,4.8-3.9,6.9-6.1v-5.9c-2.1,2.2-4.4,4.3-6.8,6.3,0,1.4-.1,2.9-.2,4.3Z"/>
        <path class="st4" d="M188.5,323.4c0,.5,0,1,0,1.5,2.4-1.9,4.8-3.9,6.9-6.1v-5.9c-2.1,2.2-4.4,4.3-6.8,6.3,0,1.4-.1,2.9-.2,4.3Z"/>
        <path class="st9" d="M182,474v5.3c4.8-3.2,9.4-6.8,13.4-10.7v-5.9c-4,4.1-8.5,7.9-13.4,11.4Z"/>
        <path class="st4" d="M182,474v5.3c4.8-3.2,9.4-6.8,13.4-10.7v-5.9c-4,4.1-8.5,7.9-13.4,11.4Z"/>
        <path class="st3" d="M182.8,103.9h0c1.3,3.6,8.7,7.9,8.1,10.4.8-3.1-.1-6.4-2.4-9.1-.2-.2-.3-.4-.4-.7,1.3.2,2.6.4,3.9.7,1.2.2,2.4.5,3.5.8v-9c-2.6-1.4-5.5-2.4-8.6-3-1.6-.3-3.2-.5-4.8-.6v10.3c.2,0,.5,0,.7,0Z"/>
        <path class="st4" d="M182.8,103.9h0c1.3,3.6,8.7,7.9,8.1,10.4.8-3.1-.1-6.4-2.4-9.1-.2-.2-.3-.4-.4-.7,1.3.2,2.6.4,3.9.7,1.2.2,2.4.5,3.5.8v-9c-2.6-1.4-5.5-2.4-8.6-3-1.6-.3-3.2-.5-4.8-.6v10.3c.2,0,.5,0,.7,0Z"/>
        <path class="st3" d="M182.1,152.4c.5-2.9.5-5.9,0-8.8v9.1c0,0,0-.2,0-.2Z"/>
        <path class="st4" d="M182.1,152.4c.5-2.9.5-5.9,0-8.8v9.1c0,0,0-.2,0-.2Z"/>
        <path class="st3" d="M188.5,324.8c0-.5,0-1,0-1.5,0-1.4.1-2.8.2-4.3.2-5.7.3-11.5-1.6-17,0-.1-.1-.3-.2-.4-1.1-3-2.8-5.9-4.8-8.6v11.7c1.4,3.3,2.6,6.7,3.2,10.2.4,2.1.6,4.2.7,6.4,0,1.8.1,3.6.2,5.4,0,0,0,0,0,0,.1,4.3.4,8.5.8,12.8,1.2,13.5,3.7,27,7.5,40.2.5-1.1.8-2.3,1-3.4v-4.9c-.4-2.9-1.3-5.9-2.1-8.7-3.5-12.4-5.1-25.1-4.8-37.8Z"/>
        <path class="st4" d="M188.5,324.8c0-.5,0-1,0-1.5,0-1.4.1-2.8.2-4.3.2-5.7.3-11.5-1.6-17,0-.1-.1-.3-.2-.4-1.1-3-2.8-5.9-4.8-8.6v11.7c1.4,3.3,2.6,6.7,3.2,10.2.4,2.1.6,4.2.7,6.4,0,1.8.1,3.6.2,5.4,0,0,0,0,0,0,.1,4.3.4,8.5.8,12.8,1.2,13.5,3.7,27,7.5,40.2.5-1.1.8-2.3,1-3.4v-4.9c-.4-2.9-1.3-5.9-2.1-8.7-3.5-12.4-5.1-25.1-4.8-37.8Z"/>
        <path class="st2" d="M182,233.5c4.9-.9,9.4-2.8,13.4-5.4v-4c-3.8,3-8.4,5.1-13.4,6.1v3.3Z"/>
        <path class="st6" d="M182,233.5c4.9-.9,9.4-2.8,13.4-5.4v-4c-3.8,3-8.4,5.1-13.4,6.1v3.3Z"/>
        <path class="st4" d="M182,233.5c4.9-.9,9.4-2.8,13.4-5.4v-4c-3.8,3-8.4,5.1-13.4,6.1v3.3Z"/>
        <path class="st2" d="M188,169.9c-1.9-.7-3.9-1.2-6-1.6v3.3c1,.2,2,.5,3,.7,1-.8,2-1.6,3-2.4Z"/>
        <path class="st6" d="M188,169.9c-1.9-.7-3.9-1.2-6-1.6v3.3c1,.2,2,.5,3,.7,1-.8,2-1.6,3-2.4Z"/>
        <path class="st4" d="M188,169.9c-1.9-.7-3.9-1.2-6-1.6v3.3c1,.2,2,.5,3,.7,1-.8,2-1.6,3-2.4Z"/>
        <path class="st2" d="M189.7,174.1c2,1,4,2.2,5.7,3.5v-4c-1-.6-2-1.2-3-1.8-.9.8-1.8,1.5-2.7,2.3Z"/>
        <path class="st6" d="M189.7,174.1c2,1,4,2.2,5.7,3.5v-4c-1-.6-2-1.2-3-1.8-.9.8-1.8,1.5-2.7,2.3Z"/>
        <path class="st4" d="M189.7,174.1c2,1,4,2.2,5.7,3.5v-4c-1-.6-2-1.2-3-1.8-.9.8-1.8,1.5-2.7,2.3Z"/>
        <path class="st9" d="M189.7,174.1c.9-.8,1.8-1.5,2.7-2.3-1.4-.7-2.9-1.4-4.4-1.9-1,.8-2,1.6-3,2.4,1.6.5,3.2,1.1,4.7,1.8Z"/>
        <path class="st6" d="M189.7,174.1c.9-.8,1.8-1.5,2.7-2.3-1.4-.7-2.9-1.4-4.4-1.9-1,.8-2,1.6-3,2.4,1.6.5,3.2,1.1,4.7,1.8Z"/>
        <path class="st4" d="M189.7,174.1c.9-.8,1.8-1.5,2.7-2.3-1.4-.7-2.9-1.4-4.4-1.9-1,.8-2,1.6-3,2.4,1.6.5,3.2,1.1,4.7,1.8Z"/>
        <path class="st0" d="M182,225.7v4.6c5-1,9.6-3.1,13.4-6.1v-6.1c-3.5,3.7-8.1,6.4-13.4,7.6Z"/>
        <path class="st4" d="M182,225.7v4.6c5-1,9.6-3.1,13.4-6.1v-6.1c-3.5,3.7-8.1,6.4-13.4,7.6Z"/>
        <path class="st0" d="M185,172.3c-1-.3-2-.5-3-.7v4.6c5.2,1.3,9.9,4,13.4,7.6v-6.1c-1.8-1.4-3.7-2.5-5.7-3.5-1.5-.7-3.1-1.3-4.7-1.8Z"/>
        <path class="st4" d="M185,172.3c-1-.3-2-.5-3-.7v4.6c5.2,1.3,9.9,4,13.4,7.6v-6.1c-1.8-1.4-3.7-2.5-5.7-3.5-1.5-.7-3.1-1.3-4.7-1.8Z"/>
        <path class="st7" d="M195.4,183.7c-3.5-3.7-8.1-6.4-13.4-7.6v12.8c6,2,10.2,6.6,10.2,12h-10.2v24.7c5.2-1.3,9.9-4,13.4-7.6v-34.3Z"/>
        <path class="st4" d="M195.4,183.7c-3.5-3.7-8.1-6.4-13.4-7.6v12.8c6,2,10.2,6.6,10.2,12h-10.2v24.7c5.2-1.3,9.9-4,13.4-7.6v-34.3Z"/>
        <path class="st0" d="M192.2,201c0-5.4-4.2-10-10.2-12v12h10.2Z"/>
        <path class="st4" d="M192.2,201c0-5.4-4.2-10-10.2-12v12h10.2Z"/>
        <path class="st2" d="M163.7,335.5c.5-18.8.6-37.6.1-56.4,0,0,0,0,0,0,0,0,0,0,0,0-6.9,8.2-13.8,16.5-20.8,24.7v41.7c3.3-1.5,6.6-3,9.8-4.5,3.7-1.8,7.3-3.6,10.8-5.4Z"/>
        <path class="st5" d="M163.7,335.5c.5-18.8.6-37.6.1-56.4,0,0,0,0,0,0,0,0,0,0,0,0-6.9,8.2-13.8,16.5-20.8,24.7v41.7c3.3-1.5,6.6-3,9.8-4.5,3.7-1.8,7.3-3.6,10.8-5.4Z"/>
        <path class="st2" d="M154.7,420.7c1.6-1.9,3.3-3.8,4.2-5.9,0-.2.2-.4.2-.6,0,0,0,0,0,0,2.1-24.7,3.6-49.5,4.4-74.3-2.8,1.3-5.7,2.6-8.6,3.9-3.9,1.7-7.9,3.2-11.9,4.7v84.1c4.1-4.8,9.8-9.8,11.7-11.9Z"/>
        <path class="st5" d="M154.7,420.7c1.6-1.9,3.3-3.8,4.2-5.9,0-.2.2-.4.2-.6,0,0,0,0,0,0,2.1-24.7,3.6-49.5,4.4-74.3-2.8,1.3-5.7,2.6-8.6,3.9-3.9,1.7-7.9,3.2-11.9,4.7v84.1c4.1-4.8,9.8-9.8,11.7-11.9Z"/>
        <path class="st2" d="M163.6,272.6h0c-.4-13.8-1.1-27.5-2.2-41.3-6.4-2.6-11.7-7-15.5-12.5h0c-1,.1-2,.2-2.9.4v82.8c5.2-9.2,12.3-17.6,18.6-26.4.7-1,1.4-2,2-3Z"/>
        <path class="st5" d="M163.6,272.6h0c-.4-13.8-1.1-27.5-2.2-41.3-6.4-2.6-11.7-7-15.5-12.5h0c-1,.1-2,.2-2.9.4v82.8c5.2-9.2,12.3-17.6,18.6-26.4.7-1,1.4-2,2-3Z"/>
        <path class="st2" d="M144.4,185.5c2.7-4.9,6.6-9,11.4-12.1-.5-9.3-.3-18.6,1.9-27.8,2.9-12.6,9.4-24.8,10.2-37.7.1-1.7.1-3.4,0-5.2-2.1-.1-4.2-.1-6.3,0-5.5.4-10.8,2.3-16.2,3.5-1.6,2.7-2.4,5.7-2.4,8.8v70.7c.4-.1.9-.2,1.3-.3h0Z"/>
        <path class="st5" d="M144.4,185.5c2.7-4.9,6.6-9,11.4-12.1-.5-9.3-.3-18.6,1.9-27.8,2.9-12.6,9.4-24.8,10.2-37.7.1-1.7.1-3.4,0-5.2-2.1-.1-4.2-.1-6.3,0-5.5.4-10.8,2.3-16.2,3.5-1.6,2.7-2.4,5.7-2.4,8.8v70.7c.4-.1.9-.2,1.3-.3h0Z"/>
        <path class="st2" d="M157.3,488.5c-.4-3.5-.7-7-.9-10.5,0,0,0,0,0,0-5.1-18.3-4.5-35.1-2.3-48.2-3.7,3.1-7.2,6.4-11,9.4v56c3.3-1.5,6.6-3,9.8-4.5,1.5-.7,3-1.4,4.5-2.2Z"/>
        <path class="st5" d="M157.3,488.5c-.4-3.5-.7-7-.9-10.5,0,0,0,0,0,0-5.1-18.3-4.5-35.1-2.3-48.2-3.7,3.1-7.2,6.4-11,9.4v56c3.3-1.5,6.6-3,9.8-4.5,1.5-.7,3-1.4,4.5-2.2Z"/>
        <path class="st2" d="M157.7,492.3c-.9.4-1.8.8-2.8,1.2-3.9,1.7-7.9,3.2-11.9,4.7v5.4c0,.8,0,1.8,0,2.5,2.2,0,4.5-.3,6.7-.3,1.1,0,2.2.2,3.4.4,1.6.2,3.2.3,4.8.2.5-4.8.3-9.7-.1-14.2Z"/>
        <path class="st5" d="M157.7,492.3c-.9.4-1.8.8-2.8,1.2-3.9,1.7-7.9,3.2-11.9,4.7v5.4c0,.8,0,1.8,0,2.5,2.2,0,4.5-.3,6.7-.3,1.1,0,2.2.2,3.4.4,1.6.2,3.2.3,4.8.2.5-4.8.3-9.7-.1-14.2Z"/>
        <path class="st9" d="M163.5,339.9c0-1.5,0-3,.1-4.4-3.5,1.9-7.2,3.7-10.8,5.4-3.2,1.5-6.5,3-9.8,4.5v3.1c4-1.5,8-3.1,11.9-4.7,2.9-1.2,5.8-2.5,8.6-3.9Z"/>
        <path class="st5" d="M163.5,339.9c0-1.5,0-3,.1-4.4-3.5,1.9-7.2,3.7-10.8,5.4-3.2,1.5-6.5,3-9.8,4.5v3.1c4-1.5,8-3.1,11.9-4.7,2.9-1.2,5.8-2.5,8.6-3.9Z"/>
        <path class="st9" d="M157.7,492.3c0-.7-.1-1.4-.2-2.1,0-.6-.1-1.2-.2-1.8-1.5.7-3,1.5-4.5,2.2-3.2,1.5-6.5,3-9.8,4.5v3.1c4-1.5,8-3.1,11.9-4.7.9-.4,1.8-.8,2.8-1.2Z"/>
        <path class="st5" d="M157.7,492.3c0-.7-.1-1.4-.2-2.1,0-.6-.1-1.2-.2-1.8-1.5.7-3,1.5-4.5,2.2-3.2,1.5-6.5,3-9.8,4.5v3.1c4-1.5,8-3.1,11.9-4.7.9-.4,1.8-.8,2.8-1.2Z"/>
        <path class="st3" d="M167.9,102.7c-.3-3-1-6-2.6-8.8-8.9,1.4-16.2,6.1-19.8,12.3,5.3-1.2,10.7-3.1,16.2-3.5,2.1-.2,4.2-.1,6.3,0Z"/>
        <path class="st5" d="M167.9,102.7c-.3-3-1-6-2.6-8.8-8.9,1.4-16.2,6.1-19.8,12.3,5.3-1.2,10.7-3.1,16.2-3.5,2.1-.2,4.2-.1,6.3,0Z"/>
        <path class="st3" d="M163.8,279c0-2.1-.1-4.3-.2-6.4-.6,1-1.3,2-2,3-6.2,8.8-13.4,17.2-18.6,26.4v1.7c6.9-8.2,13.8-16.5,20.8-24.7,0,0,0,0,0,0Z"/>
        <path class="st5" d="M163.8,279c0-2.1-.1-4.3-.2-6.4-.6,1-1.3,2-2,3-6.2,8.8-13.4,17.2-18.6,26.4v1.7c6.9-8.2,13.8-16.5,20.8-24.7,0,0,0,0,0,0Z"/>
        <path class="st3" d="M156.4,477.9s0,0,0,0c0,0,0,0,0,0-1.2-21,.9-42.2,2.7-63.2,0-.1,0-.3,0-.4,0,.2-.1.4-.2.6-.9,2.1-2.6,4-4.2,5.9-1.9,2.1-7.6,7.1-11.7,11.9v6.5c3.8-3.1,7.3-6.3,11-9.4-2.2,13.1-2.8,29.9,2.3,48.2Z"/>
        <path class="st5" d="M156.4,477.9s0,0,0,0c0,0,0,0,0,0-1.2-21,.9-42.2,2.7-63.2,0-.1,0-.3,0-.4,0,.2-.1.4-.2.6-.9,2.1-2.6,4-4.2,5.9-1.9,2.1-7.6,7.1-11.7,11.9v6.5c3.8-3.1,7.3-6.3,11-9.4-2.2,13.1-2.8,29.9,2.3,48.2Z"/>
        <path class="st2" d="M146,218.9c3.7,5.5,9.1,9.9,15.5,12.5,0-1.2-.2-2.5-.3-3.7-5-2.4-9.3-6.1-12.3-10.6,0,0,0,0,0,0-2,.2-3.9.5-5.8.8v1.3c1-.1,1.9-.3,2.9-.4h0Z"/>
        <path class="st6" d="M146,218.9c3.7,5.5,9.1,9.9,15.5,12.5,0-1.2-.2-2.5-.3-3.7-5-2.4-9.3-6.1-12.3-10.6,0,0,0,0,0,0-2,.2-3.9.5-5.8.8v1.3c1-.1,1.9-.3,2.9-.4h0Z"/>
        <path class="st5" d="M146,218.9c3.7,5.5,9.1,9.9,15.5,12.5,0-1.2-.2-2.5-.3-3.7-5-2.4-9.3-6.1-12.3-10.6,0,0,0,0,0,0-2,.2-3.9.5-5.8.8v1.3c1-.1,1.9-.3,2.9-.4h0Z"/>
        <path class="st2" d="M147.4,187s0,0,0,0c2.1-3.8,5.1-7.2,8.6-9.8,0,0,0,0,0,0,0-1.3-.2-2.5-.3-3.8-4.8,3.1-8.7,7.2-11.4,12.1h0c-.5.1-.9.2-1.3.3v2.2c1.4-.4,2.8-.7,4.4-1Z"/>
        <path class="st6" d="M147.4,187s0,0,0,0c2.1-3.8,5.1-7.2,8.6-9.8,0,0,0,0,0,0,0-1.3-.2-2.5-.3-3.8-4.8,3.1-8.7,7.2-11.4,12.1h0c-.5.1-.9.2-1.3.3v2.2c1.4-.4,2.8-.7,4.4-1Z"/>
        <path class="st5" d="M147.4,187s0,0,0,0c2.1-3.8,5.1-7.2,8.6-9.8,0,0,0,0,0,0,0-1.3-.2-2.5-.3-3.8-4.8,3.1-8.7,7.2-11.4,12.1h0c-.5.1-.9.2-1.3.3v2.2c1.4-.4,2.8-.7,4.4-1Z"/>
        <path class="st8" d="M147.4,187s0,0,0,0c-1.5.3-3,.7-4.4,1v29.9c1.8-.3,3.8-.5,5.8-.8,0,0,0,0,0,0-3.2-4.7-5-10.2-5-16.2s1.3-9.8,3.6-13.9Z"/>
        <path class="st5" d="M147.4,187s0,0,0,0c-1.5.3-3,.7-4.4,1v29.9c1.8-.3,3.8-.5,5.8-.8,0,0,0,0,0,0-3.2-4.7-5-10.2-5-16.2s1.3-9.8,3.6-13.9Z"/>
        <path class="st0" d="M160.7,222.3s0,0,0,0c-7.4-4.6-12.2-12.5-12.2-21.4s3.1-13.6,8.1-18.2c0,0,0,0,0,0-.2-1.8-.4-3.7-.5-5.5-3.6,2.6-6.5,6-8.6,9.8-2.3,4.2-3.6,8.9-3.6,13.9s1.9,11.5,5,16.2c3,4.5,7.3,8.1,12.3,10.6,0,0,0,0,0,0-.1-1.8-.3-3.6-.4-5.4Z"/>
        <path class="st5" d="M160.7,222.3s0,0,0,0c-7.4-4.6-12.2-12.5-12.2-21.4s3.1-13.6,8.1-18.2c0,0,0,0,0,0-.2-1.8-.4-3.7-.5-5.5-3.6,2.6-6.5,6-8.6,9.8-2.3,4.2-3.6,8.9-3.6,13.9s1.9,11.5,5,16.2c3,4.5,7.3,8.1,12.3,10.6,0,0,0,0,0,0-.1-1.8-.3-3.6-.4-5.4Z"/>
        <path class="st7" d="M158.3,198.2c-.5-4.3-1-8.6-1.5-13,0-.9-.2-1.7-.2-2.6-5,4.6-8.1,11.1-8.1,18.2s4.9,16.9,12.2,21.4c-.2-2.1-.4-4.2-.6-6.3-.5-5.9-1.2-11.9-1.9-17.8Z"/>
        <path class="st5" d="M158.3,198.2c-.5-4.3-1-8.6-1.5-13,0-.9-.2-1.7-.2-2.6-5,4.6-8.1,11.1-8.1,18.2s4.9,16.9,12.2,21.4c-.2-2.1-.4-4.2-.6-6.3-.5-5.9-1.2-11.9-1.9-17.8Z"/>
        <path class="st2" d="M265.1,324.2v-19.5c-1.3-3.1-2.8-6.2-4.4-9.2-3.2-6.3-6.6-12.9-13.1-17.4-.3.3-.5.6-.8.9,0,0,0,0,0,0,.5,18.8.4,37.6-.1,56.4,4.7-2.5,9.2-5.1,13.5-7.9,1.6-1.1,3.3-2.2,4.8-3.3Z"/>
        <path class="st2" d="M286,499.4c.1-7.7.2-15.4.3-23,0-5.5,0-11,0-16.4,0,0,0,0,0,0-.7.9-1.4,1.7-2.1,2.6-1.7,2.1-3.6,4.1-5.6,6.1v37.5c.6,0,1.2,0,1.8,0,.9,0,1.9,0,3,0,.5,0,1.1,0,1.7,0,.6,0,1.2,0,1.8,0-.6,0-1.2,0-1.8,0,.2-2.9,1-5.8,1-6.8Z"/>
        <path class="st2" d="M259.7,167.7c0-.5,0-1.1,0-1.6,0-5.4,2.4-10.7,3.1-16.1,1.3-10.4-4.5-18.9-13-26.5,5.4-.1,10.8,8.7,12.6,12.2,1.3,2.5,2.2,5.2,2.7,7.8v-39.7c-3.6-.4-7.3-.7-10.9-.9-1.1,0-2.1-.2-3.2-.2.1,1.7.1,3.5,0,5.2-.9,12.8-7.3,25-10.2,37.7-2.1,9.2-2.4,18.5-1.9,27.8,5.6-3.6,12.3-5.7,19.6-5.7s.8,0,1.2,0Z"/>
        <path class="st2" d="M262.7,167.9c.8,0,1.6.2,2.4.4v-15.6c-.7,3.6-2.1,7.2-2.5,10.8-.1,1.5,0,3,0,4.5Z"/>
        <path class="st2" d="M244,490.9c-1.1.5-2.1,1-3.2,1.5.5,4.5.6,9.4.1,14.2,2.5,0,5.1-.2,7.6-.4,1.1,0,2.3-.1,3.4-.1-1.7-2.8-3.4-5.7-5-8.8-1.1-2.1-2.1-4.3-3-6.4Z"/>
        <path class="st2" d="M257.7,244.3c4.1.4,1.4,7.8.7,10-1.6,5.3-3.3,10.5-4.9,15.8-.5,1.7-1.1,3.5-.9,5.2.3,2.6,2.1,4.9,3.9,7.1,2.9,3.5,6,6.9,8.6,10.6v-59.5c-2.1.4-4.3.6-6.6.6-5,0-9.7-1-14-2.8,1,13.8,1.8,27.5,2.2,41.3,0,0,0,0,0,0,5.9-9.1,9.3-18.1,11.1-28.4Z"/>
        <path class="st2" d="M263.5,480.3c-5,3.2-10.3,6.1-15.8,8.8,1.8,6.7,3.6,12.4,5.1,16.9,0,0,0,0,0,0,0,0,0,0,0,0,4.1,0,8.2.1,12.3.1v-26.9c-.5.4-1.1.7-1.6,1.1Z"/>
        <path class="st2" d="M280.4,460.5c2-2.2,3.9-4.4,5.7-6.6,0,0,0,0,0,0,0-4.7-3.4-17.8-.4-21.6-2.4,3.1-4.8,6.2-7.2,9.4v20.9c.7-.7,1.3-1.4,2-2.1Z"/>
        <path class="st2" d="M278.5,318.8v52.6c.2,1.6.2,3.3,0,4.9v60.3c1.5-3.1,3.3-6.1,4.7-9.2,10.3-22.9-1.2-49.5,7.6-72.2v-51.5c-2,3.1-4.3,6.1-6.7,9.1-1.7,2.1-3.6,4.1-5.6,6Z"/>
        <path class="st2" d="M283.3,107.7c-1.5-.6-3.1-1.1-4.8-1.6v57c.7-.7,1.3-1.4,2-2.1,3.7-4,7.1-8.2,10.4-12.5v-33.5c0-1.6-.2-3.1-.6-4.6-.3-1-.6-1.9-1.1-2.8.4.9.8,1.9,1,2.8-2.3-.9-4.6-1.9-6.9-2.8Z"/>
        <path class="st2" d="M242.6,487.4c-1.2-3.2-2.3-6.3-3.1-9.4.2,3.5.5,7,.9,10.5.8-.4,1.5-.7,2.2-1.1Z"/>
        <path class="st2" d="M278.5,228.2v84.7c.7-.7,1.3-1.4,2-2.1,3.7-4,7.1-8.2,10.4-12.5v-79.1c-.9-.1-1.9-.3-2.9-.4-2.5,3.7-5.7,6.8-9.5,9.3Z"/>
        <path class="st2" d="M278.5,169v4.6c4.8,3.2,8.8,7.5,11.4,12.6,0,0,0,0,0,0,.3,0,.6.2.9.3v-32.5c-2,3.1-4.3,6.1-6.7,9.1-1.7,2.1-3.6,4.1-5.6,6Z"/>
        <path class="st2" d="M265.1,474v-144.5c-.5.4-1.1.7-1.6,1.1-5.4,3.4-11,6.5-16.9,9.3-.8,24.8-2.3,49.6-4.4,74.3,0,0,0,0,0,0,0,0,0,0,0,0,1.3-3.3,1.1-6,1-6.8-.6-9.6,6.6-46.2,7.6-46.1.8,0,1.6,25.3-4.8,55.8-3.4,15.8-5.4,17.4-5.8,27.6-.5,13.3,2.3,24.9,6.4,40.6,4.7-2.5,9.3-5.1,13.6-7.9,1.6-1.1,3.2-2.2,4.8-3.3Z"/>
        <path class="st9" d="M278.5,163.1v5.9c2-1.9,3.9-4,5.6-6,2.5-2.9,4.7-6,6.7-9.1v-5.4c-3.3,4.3-6.7,8.5-10.4,12.5-.6.7-1.3,1.4-2,2.1Z"/>
        <path class="st3" d="M290.8,498.9v-143.7s0,0,0,0c-8.8,22.7,2.7,49.3-7.6,72.2-1.4,3.1-3.2,6.1-4.7,9.2v5.1c2.4-3.1,4.8-6.2,7.2-9.4-3,3.8.4,16.9.4,21.6,1.6-1.9,3.1-3.9,4.7-5.9v5.4c-1.4,2.2-3,4.3-4.6,6.5,0,5.5,0,11,0,16.4,0,7.7-.1,15.4-.3,23,0,1-.8,4-1,6.8.6,0,1.2,0,1.8,0,1.9,0,3.5-.4,4.1-1.4,0-.2,0-.4,0-.6,0-.2,0-.4,0-.6,0,0,0-.2,0-.2.2-1.4,0-3,0-4.4Z"/>
        <path class="st9" d="M265.1,329.5v-5.3c-1.6,1.1-3.2,2.2-4.8,3.3-4.3,2.8-8.9,5.4-13.5,7.9,0,1.5,0,3-.1,4.4,5.9-2.8,11.6-5.9,16.9-9.3.5-.3,1.1-.7,1.6-1.1Z"/>
        <path class="st9" d="M278.5,312.8v5.9c2-1.9,3.9-4,5.6-6,2.5-2.9,4.7-6,6.7-9.1v-5.4c-3.3,4.3-6.7,8.5-10.4,12.5-.6.7-1.3,1.4-2,2.1Z"/>
        <path class="st9" d="M280.4,460.5c-.6.7-1.3,1.4-2,2.1v5.9c2-1.9,3.9-4,5.6-6.1.7-.9,1.4-1.7,2.1-2.6,0,0,0,0,0,0,1.6-2.1,3.2-4.3,4.6-6.5v-5.4c-1.5,2-3.1,4-4.7,5.9,0,0,0,0,0,0-1.8,2.2-3.7,4.5-5.7,6.6Z"/>
        <path class="st9" d="M260.3,477.3c-4.3,2.8-8.9,5.4-13.6,7.9.2.6.3,1.3.5,1.9.2.7.3,1.3.5,1.9,5.5-2.6,10.8-5.6,15.8-8.8.5-.3,1.1-.7,1.6-1.1v-5.3c-1.6,1.1-3.2,2.2-4.8,3.3Z"/>
        <path class="st9" d="M240.5,490.3c0,.7.2,1.4.2,2.1,1.1-.5,2.2-.9,3.2-1.5-.5-1.2-1-2.3-1.4-3.5-.7.4-1.5.8-2.2,1.1,0,.6.1,1.2.2,1.8Z"/>
        <path class="st3" d="M283.3,107.7c2.3.9,4.6,1.9,6.9,2.8-.3-1-.6-1.9-1-2.8-1.3-2.8-3.3-5.3-5.9-7.4-1.4-1.2-3.1-2.3-4.8-3.2v9c1.7.5,3.3,1,4.8,1.6Z"/>
        <path class="st3" d="M254.1,102.9c3.7.2,7.3.5,10.9.9v-10.3c-.7,0-1.4,0-2.1,0h-9.1c-1.9,0-3.8.1-5.6.4,1.6,2.7,2.4,5.8,2.6,8.8,1.1,0,2.1.1,3.2.2Z"/>
        <path class="st3" d="M262.6,163.4c.3-3.7,1.8-7.2,2.5-10.8v-9.1c-.5-2.7-1.4-5.3-2.7-7.8-1.8-3.4-7.2-12.3-12.6-12.2,8.4,7.6,14.3,16,13,26.5-.7,5.4-3.2,10.7-3.1,16.1,0,.5,0,1.1,0,1.6,1,0,2,.1,3,.2-.1-1.5-.2-3,0-4.5Z"/>
        <polygon class="st3" points="226.1 302.1 226.1 303.8 226.1 303.8 226.1 302 226.1 302.1"/>
        <path class="st3" d="M278.5,371.4v4.9c.2-1.6.2-3.2,0-4.9Z"/>
        <path class="st3" d="M260.7,295.5c1.5,3,3.1,6.1,4.4,9.2v-11.7c-2.6-3.6-5.7-7.1-8.6-10.6-1.8-2.2-3.6-4.5-3.9-7.1-.2-1.8.4-3.5.9-5.2,1.7-5.3,3.3-10.5,4.9-15.8.7-2.2,3.4-9.6-.7-10-1.8,10.3-5.2,19.2-11.1,28.4,0,0,0,0,0,0h0c0,2.1.1,4.2.2,6.4.3-.3.5-.6.8-.9,6.5,4.5,9.9,11.1,13.1,17.4Z"/>
        <polygon class="st3" points="226.1 432.6 226.1 439.1 226.1 439.1 226.1 432.6 226.1 432.6"/>
        <path class="st3" d="M247.7,489.1c-.2-.6-.3-1.3-.5-1.9-.2-.7-.3-1.3-.5-1.9-4.1-15.6-6.9-27.3-6.4-40.6.4-10.2,2.4-11.7,5.8-27.6,6.5-30.5,5.7-55.7,4.8-55.8-1,0-8.2,36.5-7.6,46.1,0,.8.3,3.5-1,6.8,0,0,0,0,0,0,0,.1,0,.3,0,.4-1.8,21.1-4,42.2-2.7,63.2,0,0,0,0,0,0,.9,3.1,1.9,6.2,3.1,9.4.4,1.2.9,2.3,1.4,3.5.9,2.1,1.9,4.2,3,6.4,1.6,3.1,3.2,6,5,8.8,0,0,0,0,0,0,.3,0,.6,0,.9,0,0,0,0,0,0,0-1.5-4.4-3.3-10.2-5.1-16.9Z"/>
        <polygon class="st6" points="290.8 188.8 290.8 217.9 290.8 217.9 290.8 219.2 290.8 219.2 290.8 186.4 290.8 186.4 290.8 188.8 290.8 188.8"/>
        <polygon class="st6" points="226.1 217.9 226.1 219.2 226.1 219.2 226.1 217.9 226.1 217.9"/>
        <polygon class="st6" points="226.1 185.8 226.1 185.8 226.1 188 226.1 188 226.1 185.8"/>
        <path class="st2" d="M262.7,167.9c.1,1.1.3,2.2.4,3.3.7,0,1.3.2,2,.3v-3.3c-.8-.1-1.6-.3-2.4-.4Z"/>
        <path class="st6" d="M262.7,167.9c.1,1.1.3,2.2.4,3.3.7,0,1.3.2,2,.3v-3.3c-.8-.1-1.6-.3-2.4-.4Z"/>
        <path class="st2" d="M260.3,170.9c-.3-1.1-.5-2.2-.6-3.2-.4,0-.8,0-1.2,0-7.3,0-14,2.1-19.6,5.7,0,1.3.2,2.5.3,3.8h0c5.4-3.9,12.1-6.3,19.4-6.3s1.2,0,1.8,0Z"/>
        <path class="st6" d="M260.3,170.9c-.3-1.1-.5-2.2-.6-3.2-.4,0-.8,0-1.2,0-7.3,0-14,2.1-19.6,5.7,0,1.3.2,2.5.3,3.8h0c5.4-3.9,12.1-6.3,19.4-6.3s1.2,0,1.8,0Z"/>
        <path class="st2" d="M289.9,186.2c-2.6-5.1-6.6-9.4-11.4-12.6v4c3.5,2.7,6.4,6.1,8.4,10,0,0,0,0,0,0,1.4.4,2.7.8,3.9,1.2v-2.4c-.3,0-.6-.2-.9-.3,0,0,0,0,0,0Z"/>
        <path class="st6" d="M289.9,186.2c-2.6-5.1-6.6-9.4-11.4-12.6v4c3.5,2.7,6.4,6.1,8.4,10,0,0,0,0,0,0,1.4.4,2.7.8,3.9,1.2v-2.4c-.3,0-.6-.2-.9-.3,0,0,0,0,0,0Z"/>
        <path class="st2" d="M285.1,217.1s0,0,0,0c-1.8,2.7-4,5-6.6,7v4c3.8-2.5,7-5.6,9.5-9.3,1,.1,1.9.2,2.9.4v-1.3c-1.8-.3-3.7-.5-5.7-.8Z"/>
        <path class="st6" d="M285.1,217.1s0,0,0,0c-1.8,2.7-4,5-6.6,7v4c3.8-2.5,7-5.6,9.5-9.3,1,.1,1.9.2,2.9.4v-1.3c-1.8-.3-3.7-.5-5.7-.8Z"/>
        <path class="st2" d="M265.1,233.5v-3.3c-2.1.4-4.3.7-6.6.7-5.1,0-10-1.2-14.3-3.2,0,1.2.2,2.5.3,3.7,4.3,1.8,9,2.8,14,2.8s4.5-.2,6.6-.6Z"/>
        <path class="st6" d="M265.1,233.5v-3.3c-2.1.4-4.3.7-6.6.7-5.1,0-10-1.2-14.3-3.2,0,1.2.2,2.5.3,3.7,4.3,1.8,9,2.8,14,2.8s4.5-.2,6.6-.6Z"/>
        <path class="st3" d="M259.7,167.7c.1,1.1.3,2.2.6,3.2,1,0,1.9.1,2.9.3-.2-1.1-.3-2.2-.4-3.3-1-.1-2-.2-3-.2Z"/>
        <path class="st6" d="M259.7,167.7c.1,1.1.3,2.2.6,3.2,1,0,1.9.1,2.9.3-.2-1.1-.3-2.2-.4-3.3-1-.1-2-.2-3-.2Z"/>
        <polygon class="st8" points="226.1 198.8 226.1 195.7 226.1 188 226.1 188 226.1 188 226.1 217.9 226.1 217.9 226.1 217.9 226.1 198.8"/>
        <path class="st8" d="M285.1,217.1s0,0,0,0c2,.2,3.9.5,5.7.8,0,0,0,0,0,0v-29.1s0,0,0,0c-1.3-.4-2.6-.8-3.9-1.2,0,0,0,0,0,0,2.1,4,3.3,8.5,3.3,13.3s-1.9,11.6-5,16.2Z"/>
        <path class="st0" d="M265.1,230.2v-4.6c-2.1.5-4.3.8-6.6.8-5.4,0-10.5-1.5-14.7-4.1,0,0,0,0,0,0,.2,1.8.3,3.6.4,5.4,0,0,0,0,0,0,4.3,2.1,9.1,3.2,14.3,3.2s4.5-.2,6.6-.7Z"/>
        <path class="st0" d="M239.6,182.7c4.9-4.5,11.5-7.3,18.9-7.3s4.5.3,6.6.8v-4.6c-.6-.1-1.3-.2-2-.3-.9-.1-1.9-.2-2.9-.3-.6,0-1.2,0-1.8,0-7.3,0-14,2.4-19.4,6.3.1,1.8.3,3.7.5,5.5,0,0,0,0,0,0Z"/>
        <path class="st0" d="M285.4,200.9c0,6.6-2.6,12.6-7,17.2v6.1c2.6-2,4.8-4.4,6.6-7,3.2-4.7,5-10.2,5-16.2s-1.2-9.3-3.3-13.3c-2-3.9-4.9-7.3-8.4-10v6.1c4.3,4.5,7,10.6,7,17.2Z"/>
        <path class="st7" d="M241.7,201c0-7.2,7.5-13.1,16.8-13.1s4.6.4,6.6,1.1v-12.8c-2.1-.5-4.3-.8-6.6-.8-7.4,0-14,2.8-18.9,7.3,0,.9.2,1.7.2,2.6.5,4.3,1,8.7,1.5,13,.7,5.9,1.3,11.9,1.9,17.8.2,2.1.4,4.2.6,6.3,4.2,2.6,9.3,4.1,14.7,4.1s4.5-.3,6.6-.8v-24.7h-23.4ZM258.5,212.6c-3.1,0-5.6-1.9-5.6-4.3s2.5-4.3,5.6-4.3,5.6,1.9,5.6,4.3-2.5,4.3-5.6,4.3Z"/>
        <path class="st7" d="M285.4,200.9c0-6.6-2.6-12.6-7-17.2v34.3c4.3-4.5,7-10.6,7-17.2Z"/>
        <path class="st0" d="M241.7,201h23.4v-12c-2-.7-4.3-1.1-6.6-1.1-9.3,0-16.8,5.9-16.8,13.1Z"/>
        <path class="st8" d="M258.5,203.9c-3.1,0-5.6,1.9-5.6,4.3s2.5,4.3,5.6,4.3,5.6-1.9,5.6-4.3-2.5-4.3-5.6-4.3Z"/>
        <path class="st2" d="M278.5,173.6v-4.6c-1,.9-2,1.9-3,2.8,1,.5,2,1.1,3,1.8Z"/>
        <path class="st4" d="M278.5,173.6v-4.6c-1,.9-2,1.9-3,2.8,1,.5,2,1.1,3,1.8Z"/>
        <path class="st2" d="M265.1,152.4c0,0,0,.2,0,.2v15.6c2.1.4,4.1.9,6,1.6,2.6-2.2,5.1-4.4,7.4-6.8v-57c-1.1-.3-2.3-.6-3.5-.8-1.3-.3-2.6-.5-3.9-.7.1.3.2.5.4.7,2.3,2.6,3.2,6,2.4,9.1.6-2.5-6.8-6.8-8.1-10.4h0c-.2,0-.5,0-.7,0v39.7c.5,2.9.6,5.9,0,8.8Z"/>
        <path class="st4" d="M265.1,152.4c0,0,0,.2,0,.2v15.6c2.1.4,4.1.9,6,1.6,2.6-2.2,5.1-4.4,7.4-6.8v-57c-1.1-.3-2.3-.6-3.5-.8-1.3-.3-2.6-.5-3.9-.7.1.3.2.5.4.7,2.3,2.6,3.2,6,2.4,9.1.6-2.5-6.8-6.8-8.1-10.4h0c-.2,0-.5,0-.7,0v39.7c.5,2.9.6,5.9,0,8.8Z"/>
        <path class="st2" d="M265.1,293c2,2.7,3.7,5.6,4.8,8.6,0,.1.1.3.2.4,2,5.5,1.9,11.3,1.6,17,2.4-2,4.6-4.1,6.8-6.3v-84.7c-3.9,2.6-8.5,4.5-13.4,5.4v59.5Z"/>
        <path class="st4" d="M265.1,293c2,2.7,3.7,5.6,4.8,8.6,0,.1.1.3.2.4,2,5.5,1.9,11.3,1.6,17,2.4-2,4.6-4.1,6.8-6.3v-84.7c-3.9,2.6-8.5,4.5-13.4,5.4v59.5Z"/>
        <path class="st2" d="M276.4,362.6c.8,2.9,1.7,5.8,2.1,8.8v-52.6c-2.2,2.1-4.5,4.1-6.9,6.1-.2,12.7,1.3,25.4,4.8,37.8Z"/>
        <path class="st4" d="M276.4,362.6c.8,2.9,1.7,5.8,2.1,8.8v-52.6c-2.2,2.1-4.5,4.1-6.9,6.1-.2,12.7,1.3,25.4,4.8,37.8Z"/>
        <path class="st2" d="M277.4,379.7c-3.8-13.2-6.3-26.7-7.5-40.2-.4-4.2-.6-8.5-.8-12.8,0,0,0,0,0,0-1.3,1-2.7,1.9-4,2.8v144.5c4.9-3.5,9.3-7.3,13.4-11.4v-20.9c-.9,1.2-1.9,2.4-2.8,3.7.3-3,1.4-5.9,2.8-8.8v-60.3c-.2,1.2-.5,2.3-1,3.4Z"/>
        <path class="st4" d="M277.4,379.7c-3.8-13.2-6.3-26.7-7.5-40.2-.4-4.2-.6-8.5-.8-12.8,0,0,0,0,0,0-1.3,1-2.7,1.9-4,2.8v144.5c4.9-3.5,9.3-7.3,13.4-11.4v-20.9c-.9,1.2-1.9,2.4-2.8,3.7.3-3,1.4-5.9,2.8-8.8v-60.3c-.2,1.2-.5,2.3-1,3.4Z"/>
        <path class="st2" d="M268.3,315c-.6-3.5-1.8-6.9-3.2-10.2v19.5c1.3-.9,2.6-1.9,3.9-2.9-.1-2.1-.3-4.3-.7-6.4Z"/>
        <path class="st4" d="M268.3,315c-.6-3.5-1.8-6.9-3.2-10.2v19.5c1.3-.9,2.6-1.9,3.9-2.9-.1-2.1-.3-4.3-.7-6.4Z"/>
        <path class="st2" d="M265.1,479.2v26.9c.7,0,1.3,0,2,0s1.9,0,2.8,0c2.9,0,5.7,0,8.6,0v-37.5c-4,3.9-8.5,7.5-13.4,10.7Z"/>
        <path class="st4" d="M265.1,479.2v26.9c.7,0,1.3,0,2,0s1.9,0,2.8,0c2.9,0,5.7,0,8.6,0v-37.5c-4,3.9-8.5,7.5-13.4,10.7Z"/>
        <path class="st9" d="M275.4,171.8c1-.9,2-1.8,3-2.8v-5.9c-2.3,2.4-4.8,4.6-7.4,6.8,1.5.6,3,1.2,4.4,1.9Z"/>
        <path class="st4" d="M275.4,171.8c1-.9,2-1.8,3-2.8v-5.9c-2.3,2.4-4.8,4.6-7.4,6.8,1.5.6,3,1.2,4.4,1.9Z"/>
        <path class="st3" d="M278.5,441.7v-5.1c-1.4,2.9-2.5,5.8-2.8,8.8.9-1.2,1.9-2.4,2.8-3.7Z"/>
        <path class="st4" d="M278.5,441.7v-5.1c-1.4,2.9-2.5,5.8-2.8,8.8.9-1.2,1.9-2.4,2.8-3.7Z"/>
        <path class="st9" d="M265.1,324.2v5.3c1.4-.9,2.7-1.9,4-2.8,0-1.8,0-3.6-.2-5.4-1.3,1-2.5,2-3.9,2.9Z"/>
        <path class="st4" d="M265.1,324.2v5.3c1.4-.9,2.7-1.9,4-2.8,0-1.8,0-3.6-.2-5.4-1.3,1-2.5,2-3.9,2.9Z"/>
        <path class="st9" d="M271.5,323.4c0,.5,0,1,0,1.5,2.4-1.9,4.8-3.9,6.9-6.1v-5.9c-2.1,2.2-4.4,4.3-6.8,6.3,0,1.4-.1,2.9-.2,4.3Z"/>
        <path class="st4" d="M271.5,323.4c0,.5,0,1,0,1.5,2.4-1.9,4.8-3.9,6.9-6.1v-5.9c-2.1,2.2-4.4,4.3-6.8,6.3,0,1.4-.1,2.9-.2,4.3Z"/>
        <path class="st9" d="M265.1,474v5.3c4.8-3.2,9.4-6.8,13.4-10.7v-5.9c-4,4.1-8.5,7.9-13.4,11.4Z"/>
        <path class="st4" d="M265.1,474v5.3c4.8-3.2,9.4-6.8,13.4-10.7v-5.9c-4,4.1-8.5,7.9-13.4,11.4Z"/>
        <path class="st3" d="M265.8,103.9h0c1.3,3.6,8.7,7.9,8.1,10.4.8-3.1-.1-6.4-2.4-9.1-.2-.2-.3-.4-.4-.7,1.3.2,2.6.4,3.9.7,1.2.2,2.4.5,3.5.8v-9c-2.6-1.4-5.5-2.4-8.6-3-1.6-.3-3.2-.5-4.8-.6v10.3c.2,0,.5,0,.7,0Z"/>
        <path class="st4" d="M265.8,103.9h0c1.3,3.6,8.7,7.9,8.1,10.4.8-3.1-.1-6.4-2.4-9.1-.2-.2-.3-.4-.4-.7,1.3.2,2.6.4,3.9.7,1.2.2,2.4.5,3.5.8v-9c-2.6-1.4-5.5-2.4-8.6-3-1.6-.3-3.2-.5-4.8-.6v10.3c.2,0,.5,0,.7,0Z"/>
        <path class="st3" d="M265.1,152.4c.5-2.9.5-5.9,0-8.8v9.1c0,0,0-.2,0-.2Z"/>
        <path class="st4" d="M265.1,152.4c.5-2.9.5-5.9,0-8.8v9.1c0,0,0-.2,0-.2Z"/>
        <path class="st3" d="M271.5,324.8c0-.5,0-1,0-1.5,0-1.4.1-2.8.2-4.3.2-5.7.3-11.5-1.6-17,0-.1-.1-.3-.2-.4-1.1-3-2.8-5.9-4.8-8.6v11.7c1.4,3.3,2.6,6.7,3.2,10.2.4,2.1.6,4.2.7,6.4,0,1.8.1,3.6.2,5.4,0,0,0,0,0,0,.1,4.3.4,8.5.8,12.8,1.2,13.5,3.7,27,7.5,40.2.5-1.1.8-2.3,1-3.4v-4.9c-.4-2.9-1.3-5.9-2.1-8.8-3.5-12.4-5.1-25.1-4.8-37.8Z"/>
        <path class="st4" d="M271.5,324.8c0-.5,0-1,0-1.5,0-1.4.1-2.8.2-4.3.2-5.7.3-11.5-1.6-17,0-.1-.1-.3-.2-.4-1.1-3-2.8-5.9-4.8-8.6v11.7c1.4,3.3,2.6,6.7,3.2,10.2.4,2.1.6,4.2.7,6.4,0,1.8.1,3.6.2,5.4,0,0,0,0,0,0,.1,4.3.4,8.5.8,12.8,1.2,13.5,3.7,27,7.5,40.2.5-1.1.8-2.3,1-3.4v-4.9c-.4-2.9-1.3-5.9-2.1-8.8-3.5-12.4-5.1-25.1-4.8-37.8Z"/>
        <path class="st2" d="M271.1,169.9c-1.9-.7-3.9-1.2-6-1.6v3.3c1,.2,2,.5,3,.7,1-.8,2-1.6,3-2.4Z"/>
        <path class="st6" d="M271.1,169.9c-1.9-.7-3.9-1.2-6-1.6v3.3c1,.2,2,.5,3,.7,1-.8,2-1.6,3-2.4Z"/>
        <path class="st4" d="M271.1,169.9c-1.9-.7-3.9-1.2-6-1.6v3.3c1,.2,2,.5,3,.7,1-.8,2-1.6,3-2.4Z"/>
        <path class="st2" d="M272.7,174.1c2,1,4,2.2,5.7,3.5v-4c-1-.6-2-1.2-3-1.8-.9.8-1.8,1.5-2.7,2.3Z"/>
        <path class="st6" d="M272.7,174.1c2,1,4,2.2,5.7,3.5v-4c-1-.6-2-1.2-3-1.8-.9.8-1.8,1.5-2.7,2.3Z"/>
        <path class="st4" d="M272.7,174.1c2,1,4,2.2,5.7,3.5v-4c-1-.6-2-1.2-3-1.8-.9.8-1.8,1.5-2.7,2.3Z"/>
        <path class="st2" d="M265.1,233.5c4.9-.9,9.4-2.8,13.4-5.4v-4c-3.8,3-8.4,5.1-13.4,6.1v3.3Z"/>
        <path class="st6" d="M265.1,233.5c4.9-.9,9.4-2.8,13.4-5.4v-4c-3.8,3-8.4,5.1-13.4,6.1v3.3Z"/>
        <path class="st4" d="M265.1,233.5c4.9-.9,9.4-2.8,13.4-5.4v-4c-3.8,3-8.4,5.1-13.4,6.1v3.3Z"/>
        <path class="st9" d="M272.7,174.1c.9-.8,1.8-1.5,2.7-2.3-1.4-.7-2.9-1.4-4.4-1.9-1,.8-2,1.6-3,2.4,1.6.5,3.2,1.1,4.7,1.8Z"/>
        <path class="st6" d="M272.7,174.1c.9-.8,1.8-1.5,2.7-2.3-1.4-.7-2.9-1.4-4.4-1.9-1,.8-2,1.6-3,2.4,1.6.5,3.2,1.1,4.7,1.8Z"/>
        <path class="st4" d="M272.7,174.1c.9-.8,1.8-1.5,2.7-2.3-1.4-.7-2.9-1.4-4.4-1.9-1,.8-2,1.6-3,2.4,1.6.5,3.2,1.1,4.7,1.8Z"/>
        <path class="st0" d="M265.1,225.7v4.6c5-1,9.6-3.1,13.4-6.1v-6.1c-3.5,3.7-8.1,6.4-13.4,7.6Z"/>
        <path class="st4" d="M265.1,225.7v4.6c5-1,9.6-3.1,13.4-6.1v-6.1c-3.5,3.7-8.1,6.4-13.4,7.6Z"/>
        <path class="st0" d="M268,172.3c-1-.3-2-.5-3-.7v4.6c5.2,1.3,9.9,4,13.4,7.6v-6.1c-1.8-1.4-3.7-2.5-5.7-3.5-1.5-.7-3.1-1.3-4.7-1.8Z"/>
        <path class="st4" d="M268,172.3c-1-.3-2-.5-3-.7v4.6c5.2,1.3,9.9,4,13.4,7.6v-6.1c-1.8-1.4-3.7-2.5-5.7-3.5-1.5-.7-3.1-1.3-4.7-1.8Z"/>
        <path class="st7" d="M278.5,183.7c-3.5-3.7-8.1-6.4-13.4-7.6v12.8c6,2,10.2,6.6,10.2,12h-10.2v24.7c5.2-1.3,9.9-4,13.4-7.6v-34.3Z"/>
        <path class="st4" d="M278.5,183.7c-3.5-3.7-8.1-6.4-13.4-7.6v12.8c6,2,10.2,6.6,10.2,12h-10.2v24.7c5.2-1.3,9.9-4,13.4-7.6v-34.3Z"/>
        <path class="st0" d="M275.3,201c0-5.4-4.2-10-10.2-12v12h10.2Z"/>
        <path class="st4" d="M275.3,201c0-5.4-4.2-10-10.2-12v12h10.2Z"/>
        <path class="st2" d="M246.7,335.5c.5-18.8.6-37.6.1-56.4,0,0,0,0,0,0,0,0,0,0,0,0-6.9,8.2-13.8,16.5-20.8,24.7v41.7c3.3-1.5,6.6-3,9.8-4.5,3.7-1.8,7.3-3.6,10.8-5.4Z"/>
        <path class="st5" d="M246.7,335.5c.5-18.8.6-37.6.1-56.4,0,0,0,0,0,0,0,0,0,0,0,0-6.9,8.2-13.8,16.5-20.8,24.7v41.7c3.3-1.5,6.6-3,9.8-4.5,3.7-1.8,7.3-3.6,10.8-5.4Z"/>
        <path class="st2" d="M240.3,488.5c-.4-3.5-.7-7-.9-10.5,0,0,0,0,0,0-5.1-18.3-4.5-35.1-2.3-48.2-3.7,3.1-7.2,6.4-11,9.4v56c3.3-1.5,6.6-3,9.8-4.5,1.5-.7,3-1.4,4.5-2.2Z"/>
        <path class="st5" d="M240.3,488.5c-.4-3.5-.7-7-.9-10.5,0,0,0,0,0,0-5.1-18.3-4.5-35.1-2.3-48.2-3.7,3.1-7.2,6.4-11,9.4v56c3.3-1.5,6.6-3,9.8-4.5,1.5-.7,3-1.4,4.5-2.2Z"/>
        <path class="st2" d="M246.7,272.6c-.4-13.8-1.1-27.5-2.2-41.3-6.4-2.6-11.7-7-15.5-12.5h0c-1,.1-2,.2-2.9.4v82.8c5.2-9.2,12.3-17.6,18.6-26.4.7-1,1.4-2,2-3Z"/>
        <path class="st5" d="M246.7,272.6c-.4-13.8-1.1-27.5-2.2-41.3-6.4-2.6-11.7-7-15.5-12.5h0c-1,.1-2,.2-2.9.4v82.8c5.2-9.2,12.3-17.6,18.6-26.4.7-1,1.4-2,2-3Z"/>
        <path class="st2" d="M227.4,185.5c2.7-4.9,6.6-9,11.4-12.1-.5-9.3-.3-18.6,1.9-27.8,2.9-12.6,9.4-24.8,10.2-37.7.1-1.7.1-3.4,0-5.2-2.1-.1-4.2-.1-6.3,0-5.5.4-10.8,2.3-16.2,3.5-1.6,2.7-2.4,5.7-2.4,8.8v70.7c.4-.1.9-.2,1.3-.3h0Z"/>
        <path class="st5" d="M227.4,185.5c2.7-4.9,6.6-9,11.4-12.1-.5-9.3-.3-18.6,1.9-27.8,2.9-12.6,9.4-24.8,10.2-37.7.1-1.7.1-3.4,0-5.2-2.1-.1-4.2-.1-6.3,0-5.5.4-10.8,2.3-16.2,3.5-1.6,2.7-2.4,5.7-2.4,8.8v70.7c.4-.1.9-.2,1.3-.3h0Z"/>
        <path class="st2" d="M240.8,492.3c-.9.4-1.8.8-2.8,1.2-3.9,1.7-7.9,3.2-11.9,4.7v5.4c0,.8,0,1.8,0,2.5,2.2,0,4.5-.3,6.7-.3,1.1,0,2.2.2,3.4.4,1.6.2,3.2.3,4.8.2.5-4.8.3-9.7-.1-14.2Z"/>
        <path class="st5" d="M240.8,492.3c-.9.4-1.8.8-2.8,1.2-3.9,1.7-7.9,3.2-11.9,4.7v5.4c0,.8,0,1.8,0,2.5,2.2,0,4.5-.3,6.7-.3,1.1,0,2.2.2,3.4.4,1.6.2,3.2.3,4.8.2.5-4.8.3-9.7-.1-14.2Z"/>
        <path class="st2" d="M237.7,420.7c1.6-1.9,3.3-3.8,4.2-5.9,0-.2.2-.4.2-.6,0,0,0,0,0,0,2.1-24.7,3.6-49.5,4.4-74.3-2.8,1.3-5.7,2.6-8.6,3.9-3.9,1.7-7.9,3.2-11.9,4.7v84.1c4.1-4.8,9.8-9.8,11.7-11.9Z"/>
        <path class="st5" d="M237.7,420.7c1.6-1.9,3.3-3.8,4.2-5.9,0-.2.2-.4.2-.6,0,0,0,0,0,0,2.1-24.7,3.6-49.5,4.4-74.3-2.8,1.3-5.7,2.6-8.6,3.9-3.9,1.7-7.9,3.2-11.9,4.7v84.1c4.1-4.8,9.8-9.8,11.7-11.9Z"/>
        <path class="st9" d="M246.6,339.9c0-1.5,0-3,.1-4.4-3.5,1.9-7.2,3.7-10.8,5.4-3.2,1.5-6.5,3-9.8,4.5v3.1c4-1.5,8-3.1,11.9-4.7,2.9-1.2,5.8-2.5,8.6-3.9Z"/>
        <path class="st5" d="M246.6,339.9c0-1.5,0-3,.1-4.4-3.5,1.9-7.2,3.7-10.8,5.4-3.2,1.5-6.5,3-9.8,4.5v3.1c4-1.5,8-3.1,11.9-4.7,2.9-1.2,5.8-2.5,8.6-3.9Z"/>
        <path class="st9" d="M240.8,492.3c0-.7-.1-1.4-.2-2.1,0-.6-.1-1.2-.2-1.8-1.5.7-3,1.5-4.5,2.2-3.2,1.5-6.5,3-9.8,4.5v3.1c4-1.5,8-3.1,11.9-4.7.9-.4,1.8-.8,2.8-1.2Z"/>
        <path class="st5" d="M240.8,492.3c0-.7-.1-1.4-.2-2.1,0-.6-.1-1.2-.2-1.8-1.5.7-3,1.5-4.5,2.2-3.2,1.5-6.5,3-9.8,4.5v3.1c4-1.5,8-3.1,11.9-4.7.9-.4,1.8-.8,2.8-1.2Z"/>
        <path class="st3" d="M251,102.7c-.3-3-1-6-2.6-8.8-8.9,1.4-16.2,6.1-19.8,12.3,5.3-1.2,10.7-3.1,16.2-3.5,2.1-.2,4.2-.1,6.3,0Z"/>
        <path class="st5" d="M251,102.7c-.3-3-1-6-2.6-8.8-8.9,1.4-16.2,6.1-19.8,12.3,5.3-1.2,10.7-3.1,16.2-3.5,2.1-.2,4.2-.1,6.3,0Z"/>
        <path class="st3" d="M246.9,279c0-2.1-.1-4.3-.2-6.4h0c-.6,1-1.3,2-2,3-6.2,8.8-13.4,17.2-18.6,26.4v1.7c6.9-8.2,13.8-16.5,20.8-24.7,0,0,0,0,0,0Z"/>
        <path class="st5" d="M246.9,279c0-2.1-.1-4.3-.2-6.4h0c-.6,1-1.3,2-2,3-6.2,8.8-13.4,17.2-18.6,26.4v1.7c6.9-8.2,13.8-16.5,20.8-24.7,0,0,0,0,0,0Z"/>
        <path class="st3" d="M239.4,477.9s0,0,0,0c0,0,0,0,0,0-1.2-21,.9-42.2,2.7-63.2,0-.1,0-.3,0-.4,0,.2-.1.4-.2.6-.9,2.1-2.6,4-4.2,5.9-1.9,2.1-7.6,7.1-11.7,11.9v6.5c3.8-3.1,7.3-6.3,11-9.4-2.2,13.1-2.8,29.9,2.3,48.2Z"/>
        <path class="st5" d="M239.4,477.9s0,0,0,0c0,0,0,0,0,0-1.2-21,.9-42.2,2.7-63.2,0-.1,0-.3,0-.4,0,.2-.1.4-.2.6-.9,2.1-2.6,4-4.2,5.9-1.9,2.1-7.6,7.1-11.7,11.9v6.5c3.8-3.1,7.3-6.3,11-9.4-2.2,13.1-2.8,29.9,2.3,48.2Z"/>
        <path class="st2" d="M230.4,187s0,0,0,0c2.1-3.8,5.1-7.2,8.6-9.8h0c0-1.3-.2-2.5-.3-3.8-4.8,3.1-8.7,7.2-11.4,12.1h0c-.5.1-.9.2-1.3.3v2.2c1.4-.4,2.8-.7,4.4-1Z"/>
        <path class="st6" d="M230.4,187s0,0,0,0c2.1-3.8,5.1-7.2,8.6-9.8h0c0-1.3-.2-2.5-.3-3.8-4.8,3.1-8.7,7.2-11.4,12.1h0c-.5.1-.9.2-1.3.3v2.2c1.4-.4,2.8-.7,4.4-1Z"/>
        <path class="st5" d="M230.4,187s0,0,0,0c2.1-3.8,5.1-7.2,8.6-9.8h0c0-1.3-.2-2.5-.3-3.8-4.8,3.1-8.7,7.2-11.4,12.1h0c-.5.1-.9.2-1.3.3v2.2c1.4-.4,2.8-.7,4.4-1Z"/>
        <path class="st2" d="M229,218.9c3.7,5.5,9.1,9.9,15.5,12.5,0-1.2-.2-2.5-.3-3.7-5-2.4-9.3-6.1-12.3-10.6,0,0,0,0,0,0-2,.2-3.9.5-5.8.8v1.3c1-.1,1.9-.3,2.9-.4h0Z"/>
        <path class="st6" d="M229,218.9c3.7,5.5,9.1,9.9,15.5,12.5,0-1.2-.2-2.5-.3-3.7-5-2.4-9.3-6.1-12.3-10.6,0,0,0,0,0,0-2,.2-3.9.5-5.8.8v1.3c1-.1,1.9-.3,2.9-.4h0Z"/>
        <path class="st5" d="M229,218.9c3.7,5.5,9.1,9.9,15.5,12.5,0-1.2-.2-2.5-.3-3.7-5-2.4-9.3-6.1-12.3-10.6,0,0,0,0,0,0-2,.2-3.9.5-5.8.8v1.3c1-.1,1.9-.3,2.9-.4h0Z"/>
        <path class="st8" d="M230.5,187s0,0,0,0c-1.5.3-3,.7-4.4,1v29.9c1.8-.3,3.8-.5,5.8-.8,0,0,0,0,0,0-3.2-4.7-5-10.2-5-16.2s1.3-9.8,3.6-13.9Z"/>
        <path class="st5" d="M230.5,187s0,0,0,0c-1.5.3-3,.7-4.4,1v29.9c1.8-.3,3.8-.5,5.8-.8,0,0,0,0,0,0-3.2-4.7-5-10.2-5-16.2s1.3-9.8,3.6-13.9Z"/>
        <path class="st0" d="M243.8,222.3s0,0,0,0c-7.4-4.6-12.2-12.5-12.2-21.4s3.1-13.6,8.1-18.2c0,0,0,0,0,0-.2-1.8-.4-3.7-.5-5.5-3.6,2.6-6.5,6-8.6,9.8-2.3,4.2-3.6,8.9-3.6,13.9s1.9,11.5,5,16.2c3,4.5,7.3,8.1,12.3,10.6,0,0,0,0,0,0-.1-1.8-.3-3.6-.4-5.4Z"/>
        <path class="st5" d="M243.8,222.3s0,0,0,0c-7.4-4.6-12.2-12.5-12.2-21.4s3.1-13.6,8.1-18.2c0,0,0,0,0,0-.2-1.8-.4-3.7-.5-5.5-3.6,2.6-6.5,6-8.6,9.8-2.3,4.2-3.6,8.9-3.6,13.9s1.9,11.5,5,16.2c3,4.5,7.3,8.1,12.3,10.6,0,0,0,0,0,0-.1-1.8-.3-3.6-.4-5.4Z"/>
        <path class="st7" d="M241.3,198.2c-.5-4.3-1-8.6-1.5-13,0-.9-.2-1.7-.2-2.6-5,4.6-8.1,11.1-8.1,18.2s4.9,16.9,12.2,21.4c-.2-2.1-.4-4.2-.6-6.3-.6-5.9-1.2-11.9-1.9-17.8Z"/>
        <path class="st5" d="M241.3,198.2c-.5-4.3-1-8.6-1.5-13,0-.9-.2-1.7-.2-2.6-5,4.6-8.1,11.1-8.1,18.2s4.9,16.9,12.2,21.4c-.2-2.1-.4-4.2-.6-6.3-.6-5.9-1.2-11.9-1.9-17.8Z"/>
        <path class="st2" d="M327,490.9c-1.1.5-2.1,1-3.2,1.5.5,4.5.6,9.4.1,14.2,2.5,0,5.1-.2,7.6-.4,1.1,0,2.3-.1,3.4-.1-1.7-2.8-3.4-5.7-5-8.8-1.1-2.1-2.1-4.3-3-6.4Z"/>
        <path class="st2" d="M345.7,167.9c.8,0,1.6.2,2.4.4v-15.6c-.7,3.6-2.1,7.2-2.5,10.8-.1,1.5,0,3,0,4.5Z"/>
        <path class="st2" d="M342.7,167.7c0-.5,0-1.1,0-1.6,0-5.4,2.4-10.7,3.1-16.1,1.3-10.4-4.5-18.9-13-26.5,5.4-.1,10.8,8.7,12.6,12.2,1.3,2.5,2.2,5.2,2.7,7.8v-39.7c-3.6-.4-7.3-.7-10.9-.9-1.1,0-2.1-.2-3.2-.2.1,1.7.1,3.5,0,5.2-.9,12.8-7.3,25-10.2,37.7-2.1,9.2-2.4,18.5-1.9,27.8,5.6-3.6,12.3-5.7,19.6-5.7s.8,0,1.2,0Z"/>
        <path class="st2" d="M346.5,480.3c-5,3.2-10.3,6.1-15.8,8.8,1.8,6.7,3.6,12.4,5.1,16.9,0,0,0,0,0,0,0,0,0,0,0,0,4.1,0,8.2.1,12.3.1v-26.9c-.5.4-1.1.7-1.6,1.1Z"/>
        <path class="st2" d="M361.5,169v4.6c4.8,3.2,8.8,7.5,11.4,12.6,0,0,0,0,0,0,.3,0,.6.2.9.3v-32.5c-2,3.1-4.3,6.1-6.7,9.1-1.7,2.1-3.6,4.1-5.6,6Z"/>
        <path class="st2" d="M369,499.4c.1-7.7.2-15.4.3-23,0-5.5,0-11,0-16.4,0,0,0,0,0,0-.7.9-1.4,1.7-2.1,2.6-1.7,2.1-3.6,4.1-5.6,6.1v37.5c.6,0,1.2,0,1.8,0,.9,0,1.9,0,3,0,.5,0,1.1,0,1.7,0,.6,0,1.2,0,1.8,0-.6,0-1.2,0-1.8,0,.2-2.9,1-5.8,1-6.8Z"/>
        <path class="st2" d="M366.3,107.7c-1.5-.6-3.1-1.1-4.8-1.6v57c.7-.7,1.3-1.4,2-2.1,3.7-4,7.1-8.2,10.4-12.5v-33.5c0-1.6-.2-3.1-.6-4.6-.3-1-.6-1.9-1.1-2.8.4.9.8,1.9,1,2.8-2.3-.9-4.6-1.9-6.9-2.8Z"/>
        <path class="st2" d="M361.5,318.8v52.6c.2,1.6.2,3.3,0,4.9v60.3c1.5-3.1,3.3-6.1,4.7-9.2,10.3-22.9-1.2-49.5,7.6-72.2v-51.5c-2,3.1-4.3,6.1-6.7,9.1-1.7,2.1-3.6,4.1-5.6,6Z"/>
        <path class="st2" d="M348.1,474v-144.5c-.5.4-1.1.7-1.6,1.1-5.4,3.4-11,6.5-16.9,9.3-.8,24.8-2.3,49.6-4.4,74.3,0,0,0,0,0,0,0,0,0,0,0,0,1.3-3.3,1.1-6,1-6.8-.6-9.6,6.6-46.2,7.6-46.1.8,0,1.6,25.3-4.8,55.8-3.4,15.8-5.4,17.4-5.8,27.6-.5,13.3,2.3,24.9,6.4,40.6,4.7-2.5,9.3-5.1,13.6-7.9,1.6-1.1,3.2-2.2,4.8-3.3Z"/>
        <path class="st2" d="M363.5,460.5c2-2.2,3.9-4.4,5.7-6.6,0,0,0,0,0,0,0-4.7-3.4-17.8-.4-21.6-2.4,3.1-4.8,6.2-7.2,9.4v20.9c.7-.7,1.3-1.4,2-2.1Z"/>
        <path class="st2" d="M340.8,244.3c4.1.4,1.4,7.8.7,10-1.6,5.3-3.3,10.5-4.9,15.8-.5,1.7-1.1,3.5-.9,5.2.3,2.6,2.1,4.9,3.9,7.1,2.9,3.5,6,6.9,8.6,10.6v-59.5c-2.1.4-4.3.6-6.6.6-5,0-9.7-1-14-2.8,1,13.8,1.8,27.5,2.2,41.3h0s0,0,0,0c5.9-9.1,9.3-18.1,11.1-28.4Z"/>
        <path class="st2" d="M348.1,324.2v-19.5c-1.3-3.1-2.8-6.2-4.4-9.2-3.2-6.3-6.6-12.9-13.1-17.4-.3.3-.5.6-.8.9,0,0,0,0,0,0,.5,18.8.4,37.6-.1,56.4,4.7-2.5,9.2-5.1,13.5-7.9,1.6-1.1,3.3-2.2,4.8-3.3Z"/>
        <path class="st2" d="M361.5,228.2v84.7c.7-.7,1.3-1.4,2-2.1,3.7-4,7.1-8.2,10.4-12.5v-79.1c-.9-.1-1.9-.3-2.9-.4-2.5,3.7-5.7,6.8-9.5,9.3Z"/>
        <path class="st2" d="M325.6,487.4c-1.2-3.2-2.3-6.3-3.1-9.4.2,3.5.5,7,.9,10.5.8-.4,1.5-.7,2.2-1.1Z"/>
        <path class="st9" d="M361.5,163.1v5.9c2-1.9,3.9-4,5.6-6,2.5-2.9,4.7-6,6.7-9.1v-5.4c-3.3,4.3-6.7,8.5-10.4,12.5-.6.7-1.3,1.4-2,2.1Z"/>
        <path class="st3" d="M373.9,498.9v-143.7s0,0,0,0c-8.8,22.7,2.7,49.3-7.6,72.2-1.4,3.1-3.2,6.1-4.7,9.2v5.1c2.4-3.1,4.8-6.2,7.2-9.4-2.9,3.8.4,16.9.4,21.6,1.6-1.9,3.1-3.9,4.7-5.9v5.4c-1.4,2.2-3,4.3-4.6,6.5,0,5.5,0,11,0,16.4,0,7.7-.1,15.4-.3,23,0,1-.8,4-1,6.8.6,0,1.2,0,1.8,0,1.9,0,3.5-.4,4.1-1.4,0-.2,0-.4,0-.6,0-.2,0-.4,0-.6,0,0,0-.1,0-.2.2-1.4,0-3,0-4.4Z"/>
        <path class="st9" d="M361.5,312.8v5.9c2-1.9,3.9-4,5.6-6,2.5-2.9,4.7-6,6.7-9.1v-5.4c-3.3,4.3-6.7,8.5-10.4,12.5-.6.7-1.3,1.4-2,2.1Z"/>
        <path class="st9" d="M348.1,329.5v-5.3c-1.6,1.1-3.2,2.2-4.8,3.3-4.3,2.8-8.9,5.4-13.5,7.9,0,1.5,0,3-.1,4.4,5.9-2.8,11.6-5.9,16.9-9.3.5-.3,1.1-.7,1.6-1.1Z"/>
        <path class="st9" d="M363.5,460.5c-.6.7-1.3,1.4-2,2.1v5.9c2-1.9,3.9-4,5.6-6.1.7-.9,1.4-1.7,2.1-2.6,0,0,0,0,0,0,1.6-2.1,3.2-4.3,4.6-6.5v-5.4c-1.5,2-3.1,4-4.7,5.9,0,0,0,0,0,0-1.8,2.2-3.7,4.5-5.7,6.6Z"/>
        <path class="st9" d="M343.3,477.3c-4.3,2.8-8.9,5.4-13.6,7.9.2.6.3,1.3.5,1.9.2.7.3,1.3.5,1.9,5.5-2.6,10.8-5.6,15.8-8.8.5-.3,1.1-.7,1.6-1.1v-5.3c-1.6,1.1-3.2,2.2-4.8,3.3Z"/>
        <path class="st9" d="M323.6,490.3c0,.7.2,1.4.2,2.1,1.1-.5,2.2-.9,3.2-1.5-.5-1.2-1-2.3-1.4-3.5-.7.4-1.5.8-2.2,1.1,0,.6.1,1.2.2,1.8Z"/>
        <path class="st3" d="M337.2,102.9c3.7.2,7.3.5,10.9.9v-10.3c-.7,0-1.4,0-2.1,0h-9.1c-1.9,0-3.8.1-5.6.4,1.6,2.7,2.4,5.8,2.6,8.8,1.1,0,2.1.1,3.2.2Z"/>
        <path class="st3" d="M366.3,107.7c2.3.9,4.6,1.9,6.9,2.8-.3-1-.6-1.9-1-2.8-1.3-2.8-3.3-5.3-5.9-7.4-1.4-1.2-3.1-2.3-4.8-3.2v9c1.7.5,3.3,1,4.8,1.6Z"/>
        <path class="st3" d="M345.7,163.4c.3-3.7,1.8-7.2,2.5-10.8v-9.1c-.5-2.7-1.4-5.3-2.7-7.8-1.8-3.4-7.2-12.3-12.6-12.2,8.4,7.6,14.3,16,13,26.5-.7,5.4-3.2,10.7-3.1,16.1,0,.5,0,1.1,0,1.6,1,0,2,.1,3,.2-.1-1.5-.2-3,0-4.5Z"/>
        <polygon class="st3" points="309.1 302.1 309.1 303.8 309.1 303.8 309.1 302 309.1 302.1"/>
        <path class="st3" d="M343.8,295.5c1.5,3,3.1,6.1,4.4,9.2v-11.7c-2.6-3.6-5.7-7.1-8.6-10.6-1.8-2.2-3.6-4.5-3.9-7.1-.2-1.8.4-3.5.9-5.2,1.7-5.3,3.3-10.5,4.9-15.8.7-2.2,3.4-9.6-.7-10-1.8,10.3-5.2,19.2-11.1,28.4,0,0,0,0,0,0,0,2.1.1,4.2.2,6.4.3-.3.5-.6.8-.9,6.5,4.5,9.9,11.1,13.1,17.4Z"/>
        <path class="st3" d="M361.5,371.4v4.9c.2-1.6.2-3.2,0-4.9Z"/>
        <polygon class="st3" points="309.1 432.6 309.1 439.1 309.1 439.1 309.1 432.6 309.1 432.6"/>
        <path class="st3" d="M330.8,489.1c-.2-.6-.3-1.3-.5-1.9-.2-.7-.3-1.3-.5-1.9-4.1-15.6-6.9-27.3-6.4-40.6.4-10.2,2.4-11.7,5.8-27.6,6.5-30.5,5.7-55.7,4.8-55.8-1,0-8.2,36.5-7.6,46.1,0,.8.3,3.5-1,6.8,0,0,0,0,0,0,0,.1,0,.3,0,.4-1.8,21.1-4,42.2-2.7,63.2,0,0,0,0,0,0,.9,3.1,1.9,6.2,3.1,9.4.4,1.2.9,2.3,1.4,3.5.9,2.1,1.9,4.2,3,6.4,1.6,3.1,3.2,6,5,8.8,0,0,0,0,0,0,.3,0,.6,0,.9,0,0,0,0,0,0,0-1.5-4.4-3.3-10.2-5.1-16.9Z"/>
        <polygon class="st6" points="373.9 188.8 373.9 217.9 373.9 217.9 373.9 219.2 373.9 219.2 373.9 186.4 373.9 186.4 373.9 188.8 373.9 188.8"/>
        <polygon class="st6" points="309.1 185.8 309.1 185.8 309.1 188 309.1 188 309.1 185.8"/>
        <polygon class="st6" points="309.1 217.9 309.1 219.2 309.1 219.2 309.1 217.9 309.1 217.9"/>
        <path class="st2" d="M345.7,167.9c.1,1.1.3,2.2.4,3.3.7,0,1.3.2,2,.3v-3.3c-.8-.1-1.6-.3-2.4-.4Z"/>
        <path class="st6" d="M345.7,167.9c.1,1.1.3,2.2.4,3.3.7,0,1.3.2,2,.3v-3.3c-.8-.1-1.6-.3-2.4-.4Z"/>
        <path class="st2" d="M368.1,217.1s0,0,0,0c-1.8,2.7-4,5-6.6,7v4c3.8-2.5,7-5.6,9.5-9.3,1,.1,1.9.2,2.9.4v-1.3c-1.8-.3-3.7-.5-5.7-.8Z"/>
        <path class="st6" d="M368.1,217.1s0,0,0,0c-1.8,2.7-4,5-6.6,7v4c3.8-2.5,7-5.6,9.5-9.3,1,.1,1.9.2,2.9.4v-1.3c-1.8-.3-3.7-.5-5.7-.8Z"/>
        <path class="st2" d="M348.1,233.5v-3.3c-2.1.4-4.3.7-6.6.7-5.1,0-10-1.2-14.3-3.2,0,1.2.2,2.5.3,3.7,4.3,1.8,9,2.8,14,2.8s4.5-.2,6.6-.6Z"/>
        <path class="st6" d="M348.1,233.5v-3.3c-2.1.4-4.3.7-6.6.7-5.1,0-10-1.2-14.3-3.2,0,1.2.2,2.5.3,3.7,4.3,1.8,9,2.8,14,2.8s4.5-.2,6.6-.6Z"/>
        <path class="st2" d="M373,186.2c-2.6-5.1-6.6-9.4-11.4-12.6v4c3.5,2.7,6.4,6.1,8.4,10,0,0,0,0,0,0,1.4.4,2.7.8,3.9,1.2v-2.4c-.3,0-.6-.2-.9-.3,0,0,0,0,0,0Z"/>
        <path class="st6" d="M373,186.2c-2.6-5.1-6.6-9.4-11.4-12.6v4c3.5,2.7,6.4,6.1,8.4,10,0,0,0,0,0,0,1.4.4,2.7.8,3.9,1.2v-2.4c-.3,0-.6-.2-.9-.3,0,0,0,0,0,0Z"/>
        <path class="st2" d="M343.3,170.9c-.3-1.1-.5-2.2-.6-3.2-.4,0-.8,0-1.2,0-7.3,0-14,2.1-19.6,5.7,0,1.3.2,2.5.3,3.8h0c5.4-3.9,12.1-6.3,19.4-6.3s1.2,0,1.8,0Z"/>
        <path class="st6" d="M343.3,170.9c-.3-1.1-.5-2.2-.6-3.2-.4,0-.8,0-1.2,0-7.3,0-14,2.1-19.6,5.7,0,1.3.2,2.5.3,3.8h0c5.4-3.9,12.1-6.3,19.4-6.3s1.2,0,1.8,0Z"/>
        <path class="st3" d="M342.7,167.7c.1,1.1.3,2.2.6,3.2,1,0,1.9.1,2.9.3-.2-1.1-.3-2.2-.4-3.3-1-.1-2-.2-3-.2Z"/>
        <path class="st6" d="M342.7,167.7c.1,1.1.3,2.2.6,3.2,1,0,1.9.1,2.9.3-.2-1.1-.3-2.2-.4-3.3-1-.1-2-.2-3-.2Z"/>
        <polygon class="st8" points="309.1 198.8 309.1 195.7 309.1 188 309.1 188 309.1 188 309.1 217.9 309.1 217.9 309.1 217.9 309.1 198.8"/>
        <path class="st8" d="M368.1,217.1s0,0,0,0c2,.2,3.9.5,5.7.8,0,0,0,0,0,0v-29.1s0,0,0,0c-1.3-.4-2.6-.8-3.9-1.2,0,0,0,0,0,0,2.1,4,3.3,8.5,3.3,13.3s-1.9,11.6-5,16.2Z"/>
        <path class="st0" d="M348.1,230.2v-4.6c-2.1.5-4.3.8-6.6.8-5.4,0-10.5-1.5-14.7-4.1,0,0,0,0,0,0,.2,1.8.3,3.6.4,5.4,0,0,0,0,0,0,4.3,2.1,9.1,3.2,14.3,3.2s4.5-.2,6.6-.7Z"/>
        <path class="st0" d="M322.6,182.7c4.9-4.5,11.5-7.3,18.9-7.3s4.5.3,6.6.8v-4.6c-.6-.1-1.3-.2-2-.3-.9-.1-1.9-.2-2.9-.3-.6,0-1.2,0-1.8,0-7.3,0-14,2.4-19.4,6.3.1,1.8.3,3.7.5,5.5,0,0,0,0,0,0Z"/>
        <path class="st0" d="M368.5,200.9c0,6.6-2.6,12.6-7,17.2v6.1c2.6-2,4.8-4.4,6.6-7,3.2-4.7,5-10.2,5-16.2s-1.2-9.3-3.3-13.3c-2-3.9-4.9-7.3-8.4-10v6.1c4.3,4.5,7,10.6,7,17.2Z"/>
        <path class="st7" d="M324.7,201c0-7.2,7.5-13.1,16.8-13.1s4.6.4,6.6,1.1v-12.8c-2.1-.5-4.3-.8-6.6-.8-7.4,0-14,2.8-18.9,7.3,0,.9.2,1.7.2,2.6.5,4.3,1,8.7,1.5,13,.7,5.9,1.3,11.9,1.9,17.8.2,2.1.4,4.2.6,6.3,4.2,2.6,9.3,4.1,14.7,4.1s4.5-.3,6.6-.8v-24.7h-23.4ZM341.5,212.6c-3.1,0-5.6-1.9-5.6-4.3s2.5-4.3,5.6-4.3,5.6,1.9,5.6,4.3-2.5,4.3-5.6,4.3Z"/>
        <path class="st7" d="M368.5,200.9c0-6.6-2.6-12.6-7-17.2v34.3c4.3-4.5,7-10.6,7-17.2Z"/>
        <path class="st0" d="M324.7,201h23.4v-12c-2-.7-4.3-1.1-6.6-1.1-9.3,0-16.8,5.9-16.8,13.1Z"/>
        <path class="st8" d="M341.5,203.9c-3.1,0-5.6,1.9-5.6,4.3s2.5,4.3,5.6,4.3,5.6-1.9,5.6-4.3-2.5-4.3-5.6-4.3Z"/>
        <path class="st2" d="M359.4,362.6c.8,2.9,1.7,5.8,2.1,8.8v-52.6c-2.2,2.1-4.5,4.1-6.9,6.1-.2,12.7,1.3,25.4,4.8,37.8Z"/>
        <path class="st4" d="M359.4,362.6c.8,2.9,1.7,5.8,2.1,8.8v-52.6c-2.2,2.1-4.5,4.1-6.9,6.1-.2,12.7,1.3,25.4,4.8,37.8Z"/>
        <path class="st2" d="M348.2,152.4c0,0,0,.2,0,.2v15.6c2.1.4,4.1.9,6,1.6,2.6-2.2,5.1-4.4,7.4-6.8v-57c-1.1-.3-2.3-.6-3.5-.8-1.3-.3-2.6-.5-3.9-.7.1.3.2.5.4.7,2.3,2.6,3.2,6,2.4,9.1.6-2.5-6.8-6.8-8.1-10.4h0c-.2,0-.5,0-.7,0v39.7c.5,2.9.6,5.9,0,8.8Z"/>
        <path class="st4" d="M348.2,152.4c0,0,0,.2,0,.2v15.6c2.1.4,4.1.9,6,1.6,2.6-2.2,5.1-4.4,7.4-6.8v-57c-1.1-.3-2.3-.6-3.5-.8-1.3-.3-2.6-.5-3.9-.7.1.3.2.5.4.7,2.3,2.6,3.2,6,2.4,9.1.6-2.5-6.8-6.8-8.1-10.4h0c-.2,0-.5,0-.7,0v39.7c.5,2.9.6,5.9,0,8.8Z"/>
        <path class="st2" d="M348.1,479.2v26.9c.7,0,1.3,0,2,0s1.9,0,2.8,0c2.9,0,5.7,0,8.6,0v-37.5c-4,3.9-8.5,7.5-13.4,10.7Z"/>
        <path class="st4" d="M348.1,479.2v26.9c.7,0,1.3,0,2,0s1.9,0,2.8,0c2.9,0,5.7,0,8.6,0v-37.5c-4,3.9-8.5,7.5-13.4,10.7Z"/>
        <path class="st2" d="M348.1,293c2,2.7,3.7,5.6,4.8,8.6,0,.1.1.3.2.4,2,5.5,1.9,11.3,1.6,17,2.4-2,4.6-4.1,6.8-6.3v-84.7c-3.9,2.6-8.5,4.5-13.4,5.4v59.5Z"/>
        <path class="st4" d="M348.1,293c2,2.7,3.7,5.6,4.8,8.6,0,.1.1.3.2.4,2,5.5,1.9,11.3,1.6,17,2.4-2,4.6-4.1,6.8-6.3v-84.7c-3.9,2.6-8.5,4.5-13.4,5.4v59.5Z"/>
        <path class="st2" d="M360.5,379.7c-3.8-13.2-6.3-26.7-7.5-40.2-.4-4.2-.6-8.5-.8-12.8,0,0,0,0,0,0-1.3,1-2.7,1.9-4,2.8v144.5c4.9-3.5,9.3-7.3,13.4-11.4v-20.9c-.9,1.2-1.9,2.4-2.8,3.7.3-3,1.4-5.9,2.8-8.8v-60.3c-.2,1.2-.5,2.3-1,3.4Z"/>
        <path class="st4" d="M360.5,379.7c-3.8-13.2-6.3-26.7-7.5-40.2-.4-4.2-.6-8.5-.8-12.8,0,0,0,0,0,0-1.3,1-2.7,1.9-4,2.8v144.5c4.9-3.5,9.3-7.3,13.4-11.4v-20.9c-.9,1.2-1.9,2.4-2.8,3.7.3-3,1.4-5.9,2.8-8.8v-60.3c-.2,1.2-.5,2.3-1,3.4Z"/>
        <path class="st2" d="M351.3,315c-.6-3.5-1.8-6.9-3.2-10.2v19.5c1.3-.9,2.6-1.9,3.9-2.9-.1-2.1-.3-4.3-.7-6.4Z"/>
        <path class="st4" d="M351.3,315c-.6-3.5-1.8-6.9-3.2-10.2v19.5c1.3-.9,2.6-1.9,3.9-2.9-.1-2.1-.3-4.3-.7-6.4Z"/>
        <path class="st2" d="M361.5,173.6v-4.6c-1,.9-2,1.9-3,2.8,1,.5,2,1.1,3,1.8Z"/>
        <path class="st4" d="M361.5,173.6v-4.6c-1,.9-2,1.9-3,2.8,1,.5,2,1.1,3,1.8Z"/>
        <path class="st9" d="M358.5,171.8c1-.9,2-1.8,3-2.8v-5.9c-2.3,2.4-4.8,4.6-7.4,6.8,1.5.6,3,1.2,4.4,1.9Z"/>
        <path class="st4" d="M358.5,171.8c1-.9,2-1.8,3-2.8v-5.9c-2.3,2.4-4.8,4.6-7.4,6.8,1.5.6,3,1.2,4.4,1.9Z"/>
        <path class="st3" d="M361.5,441.7v-5.1c-1.4,2.9-2.5,5.8-2.8,8.8.9-1.2,1.9-2.4,2.8-3.7Z"/>
        <path class="st4" d="M361.5,441.7v-5.1c-1.4,2.9-2.5,5.8-2.8,8.8.9-1.2,1.9-2.4,2.8-3.7Z"/>
        <path class="st9" d="M348.1,324.2v5.3c1.4-.9,2.7-1.9,4-2.8,0-1.8,0-3.6-.2-5.4-1.3,1-2.5,2-3.9,2.9Z"/>
        <path class="st4" d="M348.1,324.2v5.3c1.4-.9,2.7-1.9,4-2.8,0-1.8,0-3.6-.2-5.4-1.3,1-2.5,2-3.9,2.9Z"/>
        <path class="st9" d="M354.6,323.4c0,.5,0,1,0,1.5,2.4-1.9,4.8-3.9,6.9-6.1v-5.9c-2.1,2.2-4.4,4.3-6.8,6.3,0,1.4-.1,2.9-.2,4.3Z"/>
        <path class="st4" d="M354.6,323.4c0,.5,0,1,0,1.5,2.4-1.9,4.8-3.9,6.9-6.1v-5.9c-2.1,2.2-4.4,4.3-6.8,6.3,0,1.4-.1,2.9-.2,4.3Z"/>
        <path class="st9" d="M348.1,474v5.3c4.8-3.2,9.4-6.8,13.4-10.7v-5.9c-4,4.1-8.5,7.9-13.4,11.4Z"/>
        <path class="st4" d="M348.1,474v5.3c4.8-3.2,9.4-6.8,13.4-10.7v-5.9c-4,4.1-8.5,7.9-13.4,11.4Z"/>
        <path class="st3" d="M348.9,103.9h0c1.3,3.6,8.7,7.9,8.1,10.4.8-3.1-.1-6.4-2.4-9.1-.2-.2-.3-.4-.4-.7,1.3.2,2.6.4,3.9.7,1.2.2,2.4.5,3.5.8v-9c-2.6-1.4-5.5-2.4-8.6-3-1.6-.3-3.2-.5-4.8-.6v10.3c.2,0,.5,0,.7,0Z"/>
        <path class="st4" d="M348.9,103.9h0c1.3,3.6,8.7,7.9,8.1,10.4.8-3.1-.1-6.4-2.4-9.1-.2-.2-.3-.4-.4-.7,1.3.2,2.6.4,3.9.7,1.2.2,2.4.5,3.5.8v-9c-2.6-1.4-5.5-2.4-8.6-3-1.6-.3-3.2-.5-4.8-.6v10.3c.2,0,.5,0,.7,0Z"/>
        <path class="st3" d="M348.2,152.4c.5-2.9.5-5.9,0-8.8v9.1c0,0,0-.2,0-.2Z"/>
        <path class="st4" d="M348.2,152.4c.5-2.9.5-5.9,0-8.8v9.1c0,0,0-.2,0-.2Z"/>
        <path class="st3" d="M354.6,324.8c0-.5,0-1,0-1.5,0-1.4.1-2.8.2-4.3.2-5.7.3-11.5-1.6-17,0-.1-.1-.3-.2-.4-1.1-3-2.8-5.9-4.8-8.6v11.7c1.4,3.3,2.6,6.7,3.2,10.2.4,2.1.6,4.2.7,6.4,0,1.8.1,3.6.2,5.4,0,0,0,0,0,0,.1,4.3.4,8.5.8,12.8,1.2,13.5,3.7,27,7.5,40.2.5-1.1.8-2.3,1-3.4v-4.9c-.4-2.9-1.3-5.9-2.1-8.8-3.5-12.4-5.1-25.1-4.8-37.8Z"/>
        <path class="st4" d="M354.6,324.8c0-.5,0-1,0-1.5,0-1.4.1-2.8.2-4.3.2-5.7.3-11.5-1.6-17,0-.1-.1-.3-.2-.4-1.1-3-2.8-5.9-4.8-8.6v11.7c1.4,3.3,2.6,6.7,3.2,10.2.4,2.1.6,4.2.7,6.4,0,1.8.1,3.6.2,5.4,0,0,0,0,0,0,.1,4.3.4,8.5.8,12.8,1.2,13.5,3.7,27,7.5,40.2.5-1.1.8-2.3,1-3.4v-4.9c-.4-2.9-1.3-5.9-2.1-8.8-3.5-12.4-5.1-25.1-4.8-37.8Z"/>
        <path class="st2" d="M355.8,174.1c2,1,4,2.2,5.7,3.5v-4c-1-.6-2-1.2-3-1.8-.9.8-1.8,1.5-2.7,2.3Z"/>
        <path class="st6" d="M355.8,174.1c2,1,4,2.2,5.7,3.5v-4c-1-.6-2-1.2-3-1.8-.9.8-1.8,1.5-2.7,2.3Z"/>
        <path class="st4" d="M355.8,174.1c2,1,4,2.2,5.7,3.5v-4c-1-.6-2-1.2-3-1.8-.9.8-1.8,1.5-2.7,2.3Z"/>
        <path class="st2" d="M354.1,169.9c-1.9-.7-3.9-1.2-6-1.6v3.3c1,.2,2,.5,3,.7,1-.8,2-1.6,3-2.4Z"/>
        <path class="st6" d="M354.1,169.9c-1.9-.7-3.9-1.2-6-1.6v3.3c1,.2,2,.5,3,.7,1-.8,2-1.6,3-2.4Z"/>
        <path class="st4" d="M354.1,169.9c-1.9-.7-3.9-1.2-6-1.6v3.3c1,.2,2,.5,3,.7,1-.8,2-1.6,3-2.4Z"/>
        <path class="st2" d="M348.1,233.5c4.9-.9,9.4-2.8,13.4-5.4v-4c-3.8,3-8.4,5.1-13.4,6.1v3.3Z"/>
        <path class="st6" d="M348.1,233.5c4.9-.9,9.4-2.8,13.4-5.4v-4c-3.8,3-8.4,5.1-13.4,6.1v3.3Z"/>
        <path class="st4" d="M348.1,233.5c4.9-.9,9.4-2.8,13.4-5.4v-4c-3.8,3-8.4,5.1-13.4,6.1v3.3Z"/>
        <path class="st9" d="M355.8,174.1c.9-.8,1.8-1.5,2.7-2.3-1.4-.7-2.9-1.4-4.4-1.9-1,.8-2,1.6-3,2.4,1.6.5,3.2,1.1,4.7,1.8Z"/>
        <path class="st6" d="M355.8,174.1c.9-.8,1.8-1.5,2.7-2.3-1.4-.7-2.9-1.4-4.4-1.9-1,.8-2,1.6-3,2.4,1.6.5,3.2,1.1,4.7,1.8Z"/>
        <path class="st4" d="M355.8,174.1c.9-.8,1.8-1.5,2.7-2.3-1.4-.7-2.9-1.4-4.4-1.9-1,.8-2,1.6-3,2.4,1.6.5,3.2,1.1,4.7,1.8Z"/>
        <path class="st0" d="M348.1,225.7v4.6c5-1,9.6-3.1,13.4-6.1v-6.1c-3.5,3.7-8.1,6.4-13.4,7.6Z"/>
        <path class="st4" d="M348.1,225.7v4.6c5-1,9.6-3.1,13.4-6.1v-6.1c-3.5,3.7-8.1,6.4-13.4,7.6Z"/>
        <path class="st0" d="M351.1,172.3c-1-.3-2-.5-3-.7v4.6c5.2,1.3,9.9,4,13.4,7.6v-6.1c-1.8-1.4-3.7-2.5-5.7-3.5-1.5-.7-3.1-1.3-4.7-1.8Z"/>
        <path class="st4" d="M351.1,172.3c-1-.3-2-.5-3-.7v4.6c5.2,1.3,9.9,4,13.4,7.6v-6.1c-1.8-1.4-3.7-2.5-5.7-3.5-1.5-.7-3.1-1.3-4.7-1.8Z"/>
        <path class="st7" d="M361.5,183.7c-3.5-3.7-8.1-6.4-13.4-7.6v12.8c6,2,10.2,6.6,10.2,12h-10.2v24.7c5.2-1.3,9.9-4,13.4-7.6v-34.3Z"/>
        <path class="st4" d="M361.5,183.7c-3.5-3.7-8.1-6.4-13.4-7.6v12.8c6,2,10.2,6.6,10.2,12h-10.2v24.7c5.2-1.3,9.9-4,13.4-7.6v-34.3Z"/>
        <path class="st0" d="M358.3,201c0-5.4-4.2-10-10.2-12v12h10.2Z"/>
        <path class="st4" d="M358.3,201c0-5.4-4.2-10-10.2-12v12h10.2Z"/>
        <path class="st2" d="M323.4,488.5c-.4-3.5-.7-7-.9-10.5,0,0,0,0,0,0-5.1-18.3-4.5-35.1-2.3-48.2-3.7,3.1-7.2,6.4-11,9.4v56c3.3-1.5,6.6-3,9.8-4.5,1.5-.7,3-1.4,4.5-2.2Z"/>
        <path class="st5" d="M323.4,488.5c-.4-3.5-.7-7-.9-10.5,0,0,0,0,0,0-5.1-18.3-4.5-35.1-2.3-48.2-3.7,3.1-7.2,6.4-11,9.4v56c3.3-1.5,6.6-3,9.8-4.5,1.5-.7,3-1.4,4.5-2.2Z"/>
        <path class="st2" d="M310.5,185.5c2.7-4.9,6.6-9,11.4-12.1-.5-9.3-.3-18.6,1.9-27.8,2.9-12.6,9.4-24.8,10.2-37.7.1-1.7.1-3.4,0-5.2-2.1-.1-4.2-.1-6.3,0-5.5.4-10.8,2.3-16.2,3.5-1.6,2.7-2.4,5.7-2.4,8.8v70.7c.4-.1.9-.2,1.3-.3h0Z"/>
        <path class="st5" d="M310.5,185.5c2.7-4.9,6.6-9,11.4-12.1-.5-9.3-.3-18.6,1.9-27.8,2.9-12.6,9.4-24.8,10.2-37.7.1-1.7.1-3.4,0-5.2-2.1-.1-4.2-.1-6.3,0-5.5.4-10.8,2.3-16.2,3.5-1.6,2.7-2.4,5.7-2.4,8.8v70.7c.4-.1.9-.2,1.3-.3h0Z"/>
        <path class="st2" d="M323.8,492.3c-.9.4-1.8.8-2.8,1.2-3.9,1.7-7.9,3.2-11.9,4.7v5.4c0,.8,0,1.8,0,2.5,2.2,0,4.5-.3,6.7-.3,1.1,0,2.2.2,3.4.4,1.6.2,3.2.3,4.8.2.5-4.8.3-9.7-.1-14.2Z"/>
        <path class="st5" d="M323.8,492.3c-.9.4-1.8.8-2.8,1.2-3.9,1.7-7.9,3.2-11.9,4.7v5.4c0,.8,0,1.8,0,2.5,2.2,0,4.5-.3,6.7-.3,1.1,0,2.2.2,3.4.4,1.6.2,3.2.3,4.8.2.5-4.8.3-9.7-.1-14.2Z"/>
        <path class="st2" d="M320.8,420.7c1.6-1.9,3.3-3.8,4.2-5.9,0-.2.2-.4.2-.6,0,0,0,0,0,0,2.1-24.7,3.6-49.5,4.4-74.3-2.8,1.3-5.7,2.6-8.6,3.9-3.9,1.7-7.9,3.2-11.9,4.7v84.1c4.1-4.8,9.8-9.8,11.7-11.9Z"/>
        <path class="st5" d="M320.8,420.7c1.6-1.9,3.3-3.8,4.2-5.9,0-.2.2-.4.2-.6,0,0,0,0,0,0,2.1-24.7,3.6-49.5,4.4-74.3-2.8,1.3-5.7,2.6-8.6,3.9-3.9,1.7-7.9,3.2-11.9,4.7v84.1c4.1-4.8,9.8-9.8,11.7-11.9Z"/>
        <path class="st2" d="M329.8,335.5c.5-18.8.6-37.6.1-56.4,0,0,0,0,0,0,0,0,0,0,0,0-6.9,8.2-13.8,16.5-20.8,24.7v41.7c3.3-1.5,6.6-3,9.8-4.5,3.7-1.8,7.3-3.6,10.8-5.4Z"/>
        <path class="st5" d="M329.8,335.5c.5-18.8.6-37.6.1-56.4,0,0,0,0,0,0,0,0,0,0,0,0-6.9,8.2-13.8,16.5-20.8,24.7v41.7c3.3-1.5,6.6-3,9.8-4.5,3.7-1.8,7.3-3.6,10.8-5.4Z"/>
        <path class="st2" d="M329.7,272.6h0c-.4-13.8-1.1-27.5-2.2-41.3-6.4-2.6-11.7-7-15.5-12.5h0c-1,.1-2,.2-2.9.4v82.8c5.2-9.2,12.3-17.6,18.6-26.4.7-1,1.4-2,2-3Z"/>
        <path class="st5" d="M329.7,272.6h0c-.4-13.8-1.1-27.5-2.2-41.3-6.4-2.6-11.7-7-15.5-12.5h0c-1,.1-2,.2-2.9.4v82.8c5.2-9.2,12.3-17.6,18.6-26.4.7-1,1.4-2,2-3Z"/>
        <path class="st9" d="M329.6,339.9c0-1.5,0-3,.1-4.4-3.5,1.9-7.2,3.7-10.8,5.4-3.2,1.5-6.5,3-9.8,4.5v3.1c4-1.5,8-3.1,11.9-4.7,2.9-1.2,5.8-2.5,8.6-3.9Z"/>
        <path class="st5" d="M329.6,339.9c0-1.5,0-3,.1-4.4-3.5,1.9-7.2,3.7-10.8,5.4-3.2,1.5-6.5,3-9.8,4.5v3.1c4-1.5,8-3.1,11.9-4.7,2.9-1.2,5.8-2.5,8.6-3.9Z"/>
        <path class="st9" d="M323.8,492.3c0-.7-.1-1.4-.2-2.1,0-.6-.1-1.2-.2-1.8-1.5.7-3,1.5-4.5,2.2-3.2,1.5-6.5,3-9.8,4.5v3.1c4-1.5,8-3.1,11.9-4.7.9-.4,1.8-.8,2.8-1.2Z"/>
        <path class="st5" d="M323.8,492.3c0-.7-.1-1.4-.2-2.1,0-.6-.1-1.2-.2-1.8-1.5.7-3,1.5-4.5,2.2-3.2,1.5-6.5,3-9.8,4.5v3.1c4-1.5,8-3.1,11.9-4.7.9-.4,1.8-.8,2.8-1.2Z"/>
        <path class="st3" d="M334,102.7c-.3-3-1-6-2.6-8.8-8.9,1.4-16.2,6.1-19.8,12.3,5.3-1.2,10.7-3.1,16.2-3.5,2.1-.2,4.2-.1,6.3,0Z"/>
        <path class="st5" d="M334,102.7c-.3-3-1-6-2.6-8.8-8.9,1.4-16.2,6.1-19.8,12.3,5.3-1.2,10.7-3.1,16.2-3.5,2.1-.2,4.2-.1,6.3,0Z"/>
        <path class="st3" d="M329.9,279c0-2.1-.1-4.3-.2-6.4-.6,1-1.3,2-2,3-6.2,8.8-13.4,17.2-18.6,26.4v1.7c6.9-8.2,13.8-16.5,20.8-24.7,0,0,0,0,0,0Z"/>
        <path class="st5" d="M329.9,279c0-2.1-.1-4.3-.2-6.4-.6,1-1.3,2-2,3-6.2,8.8-13.4,17.2-18.6,26.4v1.7c6.9-8.2,13.8-16.5,20.8-24.7,0,0,0,0,0,0Z"/>
        <path class="st3" d="M322.5,477.9s0,0,0,0c0,0,0,0,0,0-1.2-21,.9-42.2,2.7-63.2,0-.1,0-.3,0-.4,0,.2-.1.4-.2.6-.9,2.1-2.6,4-4.2,5.9-1.9,2.1-7.6,7.1-11.7,11.9v6.5c3.8-3.1,7.3-6.3,11-9.4-2.2,13.1-2.8,29.9,2.3,48.2Z"/>
        <path class="st5" d="M322.5,477.9s0,0,0,0c0,0,0,0,0,0-1.2-21,.9-42.2,2.7-63.2,0-.1,0-.3,0-.4,0,.2-.1.4-.2.6-.9,2.1-2.6,4-4.2,5.9-1.9,2.1-7.6,7.1-11.7,11.9v6.5c3.8-3.1,7.3-6.3,11-9.4-2.2,13.1-2.8,29.9,2.3,48.2Z"/>
        <path class="st2" d="M312.1,218.9c3.7,5.5,9.1,9.9,15.5,12.5,0-1.2-.2-2.5-.3-3.7-5-2.4-9.3-6.1-12.3-10.6,0,0,0,0,0,0-2,.2-3.9.5-5.8.8v1.3c1-.1,1.9-.3,2.9-.4h0Z"/>
        <path class="st6" d="M312.1,218.9c3.7,5.5,9.1,9.9,15.5,12.5,0-1.2-.2-2.5-.3-3.7-5-2.4-9.3-6.1-12.3-10.6,0,0,0,0,0,0-2,.2-3.9.5-5.8.8v1.3c1-.1,1.9-.3,2.9-.4h0Z"/>
        <path class="st5" d="M312.1,218.9c3.7,5.5,9.1,9.9,15.5,12.5,0-1.2-.2-2.5-.3-3.7-5-2.4-9.3-6.1-12.3-10.6,0,0,0,0,0,0-2,.2-3.9.5-5.8.8v1.3c1-.1,1.9-.3,2.9-.4h0Z"/>
        <path class="st2" d="M313.5,187s0,0,0,0c2.1-3.8,5.1-7.2,8.6-9.8h0c0-1.3-.2-2.5-.3-3.8-4.8,3.1-8.7,7.2-11.4,12.1h0c-.5.1-.9.2-1.3.3v2.2c1.4-.4,2.8-.7,4.4-1Z"/>
        <path class="st6" d="M313.5,187s0,0,0,0c2.1-3.8,5.1-7.2,8.6-9.8h0c0-1.3-.2-2.5-.3-3.8-4.8,3.1-8.7,7.2-11.4,12.1h0c-.5.1-.9.2-1.3.3v2.2c1.4-.4,2.8-.7,4.4-1Z"/>
        <path class="st5" d="M313.5,187s0,0,0,0c2.1-3.8,5.1-7.2,8.6-9.8h0c0-1.3-.2-2.5-.3-3.8-4.8,3.1-8.7,7.2-11.4,12.1h0c-.5.1-.9.2-1.3.3v2.2c1.4-.4,2.8-.7,4.4-1Z"/>
        <path class="st8" d="M313.5,187s0,0,0,0c-1.5.3-3,.7-4.4,1v29.9c1.8-.3,3.8-.5,5.8-.8,0,0,0,0,0,0-3.2-4.7-5-10.2-5-16.2s1.3-9.8,3.6-13.9Z"/>
        <path class="st5" d="M313.5,187s0,0,0,0c-1.5.3-3,.7-4.4,1v29.9c1.8-.3,3.8-.5,5.8-.8,0,0,0,0,0,0-3.2-4.7-5-10.2-5-16.2s1.3-9.8,3.6-13.9Z"/>
        <path class="st0" d="M326.8,222.3s0,0,0,0c-7.4-4.6-12.2-12.5-12.2-21.4s3.1-13.6,8.1-18.2c0,0,0,0,0,0-.2-1.8-.4-3.7-.5-5.5-3.6,2.6-6.5,6-8.6,9.8-2.3,4.2-3.6,8.9-3.6,13.9s1.9,11.5,5,16.2c3,4.5,7.3,8.1,12.3,10.6,0,0,0,0,0,0-.1-1.8-.3-3.6-.4-5.4Z"/>
        <path class="st5" d="M326.8,222.3s0,0,0,0c-7.4-4.6-12.2-12.5-12.2-21.4s3.1-13.6,8.1-18.2c0,0,0,0,0,0-.2-1.8-.4-3.7-.5-5.5-3.6,2.6-6.5,6-8.6,9.8-2.3,4.2-3.6,8.9-3.6,13.9s1.9,11.5,5,16.2c3,4.5,7.3,8.1,12.3,10.6,0,0,0,0,0,0-.1-1.8-.3-3.6-.4-5.4Z"/>
        <path class="st7" d="M324.4,198.2c-.5-4.3-1-8.6-1.5-13,0-.9-.2-1.7-.2-2.6-5,4.6-8.1,11.1-8.1,18.2s4.9,16.9,12.2,21.4c-.2-2.1-.4-4.2-.6-6.3-.5-5.9-1.2-11.9-1.9-17.8Z"/>
        <path class="st5" d="M324.4,198.2c-.5-4.3-1-8.6-1.5-13,0-.9-.2-1.7-.2-2.6-5,4.6-8.1,11.1-8.1,18.2s4.9,16.9,12.2,21.4c-.2-2.1-.4-4.2-.6-6.3-.5-5.9-1.2-11.9-1.9-17.8Z"/>
        <path class="st2" d="M408.7,487.4c-1.2-3.2-2.3-6.3-3.1-9.4.2,3.5.5,7,.9,10.5.8-.4,1.5-.7,2.2-1.1Z"/>
        <path class="st2" d="M431.2,324.2v-19.5c-1.3-3.1-2.8-6.2-4.4-9.2-3.2-6.3-6.6-12.9-13.1-17.4-.3.3-.5.6-.8.9,0,0,0,0,0,0,.5,18.8.4,37.6-.1,56.4,4.7-2.5,9.2-5.1,13.5-7.9,1.6-1.1,3.3-2.2,4.8-3.3Z"/>
        <path class="st2" d="M444.6,228.2v84.7c.7-.7,1.3-1.4,2-2.1,3.7-4,7.1-8.2,10.4-12.5v-79.1c-.9-.1-1.9-.3-2.9-.4-2.5,3.7-5.7,6.8-9.5,9.3Z"/>
        <path class="st2" d="M425.8,167.7c0-.5,0-1.1,0-1.6,0-5.4,2.4-10.7,3.1-16.1,1.3-10.4-4.5-18.9-13-26.5,5.4-.1,10.8,8.7,12.6,12.2,1.3,2.5,2.2,5.2,2.7,7.8v-39.7c-3.6-.4-7.3-.7-10.9-.9-1.1,0-2.1-.2-3.2-.2.1,1.7.1,3.5,0,5.2-.9,12.8-7.3,25-10.2,37.7-2.1,9.2-2.4,18.5-1.9,27.8,5.6-3.6,12.3-5.7,19.6-5.7s.8,0,1.2,0Z"/>
        <path class="st2" d="M410.1,490.9c-1.1.5-2.1,1-3.2,1.5.5,4.5.6,9.4.1,14.2,2.5,0,5.1-.2,7.6-.4,1.1,0,2.3-.1,3.4-.1-1.7-2.8-3.4-5.7-5-8.8-1.1-2.1-2.1-4.3-3-6.4Z"/>
        <path class="st2" d="M452.1,499.4c.1-7.7.2-15.4.3-23,0-5.5,0-11,0-16.4,0,0,0,0,0,0-.7.9-1.4,1.7-2.1,2.6-1.7,2.1-3.6,4.1-5.6,6.1v37.5c.6,0,1.2,0,1.8,0,.9,0,1.9,0,3,0,.5,0,1.1,0,1.7,0,.6,0,1.2,0,1.8,0-.6,0-1.2,0-1.8,0,.2-2.9,1-5.8,1-6.8Z"/>
        <path class="st2" d="M444.6,318.8v52.6c.2,1.6.2,3.3,0,4.9v60.3c1.5-3.1,3.3-6.1,4.7-9.2,10.3-22.9-1.2-49.5,7.6-72.2v-51.5c-2,3.1-4.3,6.1-6.7,9.1-1.7,2.1-3.6,4.1-5.6,6Z"/>
        <path class="st2" d="M429.6,480.3c-5,3.2-10.3,6.1-15.8,8.8,1.8,6.7,3.6,12.4,5.1,16.9,0,0,0,0,0,0,0,0,0,0,0,0,4.1,0,8.2.1,12.3.1v-26.9c-.5.4-1.1.7-1.6,1.1Z"/>
        <path class="st2" d="M423.9,244.3c4.1.4,1.4,7.8.7,10-1.6,5.3-3.3,10.5-4.9,15.8-.5,1.7-1.1,3.5-.9,5.2.3,2.6,2.1,4.9,3.9,7.1,2.9,3.5,6,6.9,8.6,10.6v-59.5c-2.1.4-4.3.6-6.6.6-5,0-9.7-1-14-2.8,1,13.8,1.8,27.5,2.2,41.3,0,0,0,0,0,0,5.9-9.1,9.3-18.1,11.1-28.4Z"/>
        <path class="st2" d="M428.8,167.9c.8,0,1.6.2,2.4.4v-15.6c-.7,3.6-2.1,7.2-2.5,10.8-.1,1.5,0,3,0,4.5Z"/>
        <path class="st2" d="M446.5,460.5c2-2.2,3.9-4.4,5.7-6.6,0,0,0,0,0,0,0-4.7-3.4-17.8-.4-21.6-2.4,3.1-4.8,6.2-7.2,9.4v20.9c.7-.7,1.3-1.4,2-2.1Z"/>
        <path class="st2" d="M449.4,107.7c-1.5-.6-3.1-1.1-4.8-1.6v57c.7-.7,1.3-1.4,2-2.1,3.7-4,7.1-8.2,10.4-12.5v-33.5c0-1.6-.2-3.1-.6-4.6-.3-1-.6-1.9-1.1-2.8.4.9.8,1.9,1,2.8-2.3-.9-4.6-1.9-6.9-2.8Z"/>
        <path class="st2" d="M431.2,474v-144.5c-.5.4-1.1.7-1.6,1.1-5.4,3.4-11,6.5-16.9,9.3-.8,24.8-2.3,49.6-4.4,74.3,0,0,0,0,0,0,0,0,0,0,0,0,1.3-3.3,1.1-6,1-6.8-.6-9.6,6.6-46.2,7.6-46.1.8,0,1.6,25.3-4.8,55.8-3.4,15.8-5.4,17.4-5.8,27.6-.5,13.3,2.3,24.9,6.4,40.6,4.7-2.5,9.3-5.1,13.6-7.9,1.6-1.1,3.2-2.2,4.8-3.3Z"/>
        <path class="st2" d="M444.6,169v4.6c4.8,3.2,8.8,7.5,11.4,12.6,0,0,0,0,0,0,.3,0,.6.2.9.3v-32.5c-2,3.1-4.3,6.1-6.7,9.1-1.7,2.1-3.6,4.1-5.6,6Z"/>
        <path class="st9" d="M444.6,163.1v5.9c2-1.9,3.9-4,5.6-6,2.5-2.9,4.7-6,6.7-9.1v-5.4c-3.3,4.3-6.7,8.5-10.4,12.5-.6.7-1.3,1.4-2,2.1Z"/>
        <path class="st3" d="M456.9,503.5c0,0,0-.1,0-.2.2-1.4,0-3,0-4.4v-143.7h0c-8.8,22.7,2.7,49.3-7.6,72.2-1.4,3.1-3.2,6.1-4.7,9.2v5.1c2.4-3.1,4.8-6.2,7.2-9.4-3,3.8.4,16.9.4,21.6,1.6-1.9,3.1-3.9,4.7-5.9v5.4c-1.4,2.2-3,4.3-4.6,6.5,0,5.5,0,11,0,16.4,0,7.7-.1,15.4-.3,23,0,1-.8,4-1,6.8.6,0,1.2,0,1.8,0,1.9,0,3.5-.4,4.1-1.4,0-.1,0-.4,0-.6,0-.2,0-.5,0-.7Z"/>
        <path class="st9" d="M444.6,312.8v5.9c2-1.9,3.9-4,5.6-6,2.5-2.9,4.7-6,6.7-9.1v-5.4c-3.3,4.3-6.7,8.5-10.4,12.5-.6.7-1.3,1.4-2,2.1Z"/>
        <path class="st9" d="M431.2,329.5v-5.3c-1.6,1.1-3.2,2.2-4.8,3.3-4.3,2.8-8.9,5.4-13.5,7.9,0,1.5,0,3-.1,4.4,5.9-2.8,11.6-5.9,16.9-9.3.5-.3,1.1-.7,1.6-1.1Z"/>
        <path class="st9" d="M426.4,477.3c-4.3,2.8-8.9,5.4-13.6,7.9.2.6.3,1.3.5,1.9.2.7.3,1.3.5,1.9,5.5-2.6,10.8-5.6,15.8-8.8.5-.3,1.1-.7,1.6-1.1v-5.3c-1.6,1.1-3.2,2.2-4.8,3.3Z"/>
        <path class="st9" d="M446.5,460.5c-.6.7-1.3,1.4-2,2.1v5.9c2-1.9,3.9-4,5.6-6.1.7-.9,1.4-1.7,2.1-2.6,0,0,0,0,0,0,1.6-2.1,3.2-4.3,4.6-6.5v-5.4c-1.5,2-3.1,4-4.7,5.9,0,0,0,0,0,0-1.8,2.2-3.7,4.5-5.7,6.6Z"/>
        <path class="st9" d="M406.7,490.3c0,.7.2,1.4.2,2.1,1.1-.5,2.2-.9,3.2-1.5-.5-1.2-1-2.3-1.4-3.5-.7.4-1.5.8-2.2,1.1,0,.6.1,1.2.2,1.8Z"/>
        <path class="st3" d="M420.3,102.9c3.7.2,7.3.5,10.9.9v-10.3c-.7,0-1.4,0-2.1,0h-9.1c-1.9,0-3.8.1-5.6.4,1.6,2.7,2.4,5.8,2.6,8.8,1.1,0,2.1.1,3.2.2Z"/>
        <path class="st3" d="M449.4,107.7c2.3.9,4.6,1.9,6.9,2.8-.3-1-.6-1.9-1-2.8-1.3-2.8-3.3-5.3-5.9-7.4-1.4-1.2-3-2.3-4.8-3.2v9c1.7.5,3.3,1,4.8,1.6Z"/>
        <path class="st3" d="M428.7,163.4c.3-3.7,1.8-7.2,2.5-10.8v-9.1c-.5-2.7-1.4-5.3-2.7-7.8-1.8-3.4-7.2-12.3-12.6-12.2,8.4,7.6,14.3,16,13,26.5-.7,5.4-3.2,10.7-3.1,16.1,0,.5,0,1.1,0,1.6,1,0,2,.1,3,.2-.1-1.5-.2-3,0-4.5Z"/>
        <polygon class="st3" points="392.2 302.1 392.2 303.8 392.2 303.8 392.2 302.1 392.2 302.1"/>
        <path class="st3" d="M444.6,371.4v4.9c.2-1.6.2-3.2,0-4.9Z"/>
        <path class="st3" d="M426.8,295.5c1.5,3,3.1,6.1,4.4,9.2v-11.7c-2.6-3.6-5.7-7.1-8.6-10.6-1.8-2.2-3.6-4.5-3.9-7.1-.2-1.8.4-3.5.9-5.2,1.7-5.3,3.3-10.5,4.9-15.8.7-2.2,3.4-9.6-.7-10-1.8,10.3-5.2,19.2-11.1,28.4,0,0,0,0,0,0,0,2.1.1,4.2.2,6.4.3-.3.5-.6.8-.9,6.5,4.5,9.9,11.1,13.1,17.4Z"/>
        <polygon class="st3" points="392.2 432.6 392.2 439.1 392.2 439.1 392.2 432.6 392.2 432.6"/>
        <path class="st3" d="M413.8,489.1c-.2-.6-.3-1.3-.5-1.9-.2-.7-.3-1.3-.5-1.9-4.1-15.6-6.9-27.3-6.4-40.6.4-10.2,2.4-11.7,5.8-27.6,6.5-30.5,5.7-55.7,4.8-55.8-1,0-8.2,36.5-7.6,46.1,0,.8.3,3.5-1,6.8,0,0,0,0,0,0,0,.1,0,.3,0,.4-1.8,21.1-4,42.2-2.7,63.2,0,0,0,0,0,0,.9,3.1,1.9,6.2,3.1,9.4.4,1.2.9,2.3,1.4,3.5.9,2.1,1.9,4.2,3,6.4,1.6,3.1,3.2,6,5,8.8,0,0,0,0,0,0,.3,0,.6,0,.9,0,0,0,0,0,0,0-1.5-4.4-3.3-10.2-5.1-16.9Z"/>
        <polygon class="st6" points="456.9 188.8 456.9 217.9 456.9 217.9 456.9 219.2 456.9 219.2 456.9 186.4 456.9 186.4 456.9 188.8 456.9 188.8"/>
        <polygon class="st6" points="392.2 185.8 392.2 185.8 392.2 188 392.2 188 392.2 185.8"/>
        <polygon class="st6" points="392.2 217.9 392.2 219.2 392.2 219.2 392.2 217.9 392.2 217.9"/>
        <path class="st2" d="M431.2,233.5v-3.3c-2.1.4-4.3.7-6.6.7-5.1,0-10-1.2-14.3-3.2,0,1.2.2,2.5.3,3.7,4.3,1.8,9,2.8,14,2.8s4.5-.2,6.6-.6Z"/>
        <path class="st6" d="M431.2,233.5v-3.3c-2.1.4-4.3.7-6.6.7-5.1,0-10-1.2-14.3-3.2,0,1.2.2,2.5.3,3.7,4.3,1.8,9,2.8,14,2.8s4.5-.2,6.6-.6Z"/>
        <path class="st2" d="M426.4,170.9c-.3-1.1-.5-2.2-.6-3.2-.4,0-.8,0-1.2,0-7.3,0-14,2.1-19.6,5.7,0,1.3.2,2.5.3,3.8,0,0,0,0,0,0,5.4-3.9,12.1-6.3,19.4-6.3s1.2,0,1.8,0Z"/>
        <path class="st6" d="M426.4,170.9c-.3-1.1-.5-2.2-.6-3.2-.4,0-.8,0-1.2,0-7.3,0-14,2.1-19.6,5.7,0,1.3.2,2.5.3,3.8,0,0,0,0,0,0,5.4-3.9,12.1-6.3,19.4-6.3s1.2,0,1.8,0Z"/>
        <path class="st2" d="M451.2,217.1s0,0,0,0c-1.8,2.7-4,5-6.6,7v4c3.8-2.5,7-5.6,9.5-9.3,1,.1,1.9.2,2.9.4v-1.3c-1.8-.3-3.7-.5-5.7-.8Z"/>
        <path class="st6" d="M451.2,217.1s0,0,0,0c-1.8,2.7-4,5-6.6,7v4c3.8-2.5,7-5.6,9.5-9.3,1,.1,1.9.2,2.9.4v-1.3c-1.8-.3-3.7-.5-5.7-.8Z"/>
        <path class="st2" d="M456,186.2c-2.6-5.1-6.6-9.4-11.4-12.6v4c3.5,2.7,6.4,6.1,8.4,10,0,0,0,0,0,0,1.4.4,2.7.8,3.9,1.2v-2.4c-.3,0-.6-.2-.9-.3,0,0,0,0,0,0Z"/>
        <path class="st6" d="M456,186.2c-2.6-5.1-6.6-9.4-11.4-12.6v4c3.5,2.7,6.4,6.1,8.4,10,0,0,0,0,0,0,1.4.4,2.7.8,3.9,1.2v-2.4c-.3,0-.6-.2-.9-.3,0,0,0,0,0,0Z"/>
        <path class="st2" d="M428.8,167.9c.1,1.1.3,2.2.4,3.3.7,0,1.3.2,2,.3v-3.3c-.8-.1-1.6-.3-2.4-.4Z"/>
        <path class="st6" d="M428.8,167.9c.1,1.1.3,2.2.4,3.3.7,0,1.3.2,2,.3v-3.3c-.8-.1-1.6-.3-2.4-.4Z"/>
        <path class="st3" d="M425.8,167.7c.1,1.1.3,2.2.6,3.2,1,0,1.9.1,2.9.3-.2-1.1-.3-2.2-.4-3.3-1-.1-2-.2-3-.2Z"/>
        <path class="st6" d="M425.8,167.7c.1,1.1.3,2.2.6,3.2,1,0,1.9.1,2.9.3-.2-1.1-.3-2.2-.4-3.3-1-.1-2-.2-3-.2Z"/>
        <polygon class="st8" points="392.2 198.8 392.2 195.7 392.2 188 392.2 188 392.2 188 392.2 217.9 392.2 217.9 392.2 217.9 392.2 198.8"/>
        <path class="st8" d="M451.2,217.1s0,0,0,0c2,.2,3.9.5,5.7.8,0,0,0,0,0,0v-29.1s0,0,0,0c-1.3-.4-2.6-.8-3.9-1.2,0,0,0,0,0,0,2.1,4,3.3,8.5,3.3,13.3s-1.9,11.6-5,16.2Z"/>
        <path class="st0" d="M405.7,182.7c4.9-4.5,11.5-7.3,18.9-7.3s4.5.3,6.6.8v-4.6c-.6-.1-1.3-.2-2-.3-.9-.1-1.9-.2-2.9-.3-.6,0-1.2,0-1.8,0-7.3,0-14,2.4-19.4,6.3.1,1.8.3,3.7.5,5.5,0,0,0,0,0,0Z"/>
        <path class="st0" d="M451.5,200.9c0,6.6-2.6,12.6-7,17.2v6.1c2.6-2,4.8-4.4,6.6-7,3.2-4.7,5-10.2,5-16.2s-1.2-9.3-3.3-13.3c-2-3.9-4.9-7.3-8.4-10v6.1c4.3,4.5,7,10.6,7,17.2Z"/>
        <path class="st0" d="M431.2,230.2v-4.6c-2.1.5-4.3.8-6.6.8-5.4,0-10.5-1.5-14.7-4.1,0,0,0,0,0,0,.2,1.8.3,3.6.4,5.4,0,0,0,0,0,0,4.3,2.1,9.1,3.2,14.3,3.2s4.5-.2,6.6-.7Z"/>
        <path class="st7" d="M451.5,200.9c0-6.6-2.6-12.6-7-17.2v34.3c4.3-4.5,7-10.6,7-17.2Z"/>
        <path class="st7" d="M407.8,201c0-7.2,7.5-13.1,16.8-13.1s4.6.4,6.6,1.1v-12.8c-2.1-.5-4.3-.8-6.6-.8-7.4,0-14,2.8-18.9,7.3,0,.9.2,1.7.2,2.6.5,4.3,1,8.7,1.5,13,.7,5.9,1.3,11.9,1.9,17.8.2,2.1.4,4.2.6,6.3,4.2,2.6,9.3,4.1,14.7,4.1s4.5-.3,6.6-.8v-24.7h-23.4ZM424.6,212.6c-3.1,0-5.6-1.9-5.6-4.3s2.5-4.3,5.6-4.3,5.6,1.9,5.6,4.3-2.5,4.3-5.6,4.3Z"/>
        <path class="st0" d="M407.8,201h23.4v-12c-2-.7-4.3-1.1-6.6-1.1-9.3,0-16.8,5.9-16.8,13.1Z"/>
        <path class="st8" d="M424.6,203.9c-3.1,0-5.6,1.9-5.6,4.3s2.5,4.3,5.6,4.3,5.6-1.9,5.6-4.3-2.5-4.3-5.6-4.3Z"/>
        <path class="st2" d="M431.2,152.4c0,0,0,.2,0,.2v15.6c2.1.4,4.1.9,6,1.6,2.6-2.2,5.1-4.4,7.4-6.8v-57c-1.1-.3-2.3-.6-3.5-.8-1.3-.3-2.6-.5-3.9-.7.1.3.2.5.4.7,2.3,2.6,3.2,6,2.4,9.1.6-2.5-6.8-6.8-8.1-10.4h0c-.2,0-.5,0-.7,0v39.7c.5,2.9.6,5.9,0,8.8Z"/>
        <path class="st4" d="M431.2,152.4c0,0,0,.2,0,.2v15.6c2.1.4,4.1.9,6,1.6,2.6-2.2,5.1-4.4,7.4-6.8v-57c-1.1-.3-2.3-.6-3.5-.8-1.3-.3-2.6-.5-3.9-.7.1.3.2.5.4.7,2.3,2.6,3.2,6,2.4,9.1.6-2.5-6.8-6.8-8.1-10.4h0c-.2,0-.5,0-.7,0v39.7c.5,2.9.6,5.9,0,8.8Z"/>
        <path class="st2" d="M443.6,379.7c-3.8-13.2-6.3-26.7-7.5-40.2-.4-4.2-.6-8.5-.8-12.8h0c-1.3.9-2.7,1.8-4,2.7v144.5c4.9-3.5,9.3-7.3,13.4-11.4v-20.9c-.9,1.2-1.9,2.4-2.8,3.7.3-3,1.4-5.9,2.8-8.8v-60.3c-.2,1.2-.5,2.3-1,3.4Z"/>
        <path class="st4" d="M443.6,379.7c-3.8-13.2-6.3-26.7-7.5-40.2-.4-4.2-.6-8.5-.8-12.8h0c-1.3.9-2.7,1.8-4,2.7v144.5c4.9-3.5,9.3-7.3,13.4-11.4v-20.9c-.9,1.2-1.9,2.4-2.8,3.7.3-3,1.4-5.9,2.8-8.8v-60.3c-.2,1.2-.5,2.3-1,3.4Z"/>
        <path class="st2" d="M444.6,173.6v-4.6c-1,.9-2,1.9-3,2.8,1,.5,2,1.1,3,1.8Z"/>
        <path class="st4" d="M444.6,173.6v-4.6c-1,.9-2,1.9-3,2.8,1,.5,2,1.1,3,1.8Z"/>
        <path class="st2" d="M431.2,479.2v26.9c.7,0,1.3,0,2,0s1.9,0,2.8,0c2.9,0,5.7,0,8.6,0v-37.5c-4,3.9-8.5,7.5-13.4,10.7Z"/>
        <path class="st4" d="M431.2,479.2v26.9c.7,0,1.3,0,2,0s1.9,0,2.8,0c2.9,0,5.7,0,8.6,0v-37.5c-4,3.9-8.5,7.5-13.4,10.7Z"/>
        <path class="st2" d="M431.2,293c2,2.7,3.7,5.6,4.8,8.6,0,.1.1.3.2.4,2,5.5,1.9,11.3,1.6,17,2.4-2,4.6-4.1,6.8-6.3v-84.7c-3.9,2.6-8.5,4.5-13.4,5.4v59.5Z"/>
        <path class="st4" d="M431.2,293c2,2.7,3.7,5.6,4.8,8.6,0,.1.1.3.2.4,2,5.5,1.9,11.3,1.6,17,2.4-2,4.6-4.1,6.8-6.3v-84.7c-3.9,2.6-8.5,4.5-13.4,5.4v59.5Z"/>
        <path class="st2" d="M434.4,315c-.6-3.5-1.8-6.9-3.2-10.2v19.5c1.3-.9,2.6-1.9,3.9-2.9-.1-2.1-.3-4.3-.7-6.4Z"/>
        <path class="st4" d="M434.4,315c-.6-3.5-1.8-6.9-3.2-10.2v19.5c1.3-.9,2.6-1.9,3.9-2.9-.1-2.1-.3-4.3-.7-6.4Z"/>
        <path class="st2" d="M442.5,362.6c.8,2.9,1.7,5.8,2.1,8.7v-52.6c-2.2,2.1-4.5,4.1-6.9,6.1-.2,12.7,1.3,25.4,4.8,37.8Z"/>
        <path class="st4" d="M442.5,362.6c.8,2.9,1.7,5.8,2.1,8.7v-52.6c-2.2,2.1-4.5,4.1-6.9,6.1-.2,12.7,1.3,25.4,4.8,37.8Z"/>
        <path class="st9" d="M441.6,171.8c1-.9,2-1.8,3-2.8v-5.9c-2.3,2.4-4.8,4.6-7.4,6.8,1.5.6,3,1.2,4.4,1.9Z"/>
        <path class="st4" d="M441.6,171.8c1-.9,2-1.8,3-2.8v-5.9c-2.3,2.4-4.8,4.6-7.4,6.8,1.5.6,3,1.2,4.4,1.9Z"/>
        <path class="st3" d="M444.6,441.7v-5.1c-1.4,2.9-2.5,5.8-2.8,8.8.9-1.2,1.9-2.4,2.8-3.7Z"/>
        <path class="st4" d="M444.6,441.7v-5.1c-1.4,2.9-2.5,5.8-2.8,8.8.9-1.2,1.9-2.4,2.8-3.7Z"/>
        <path class="st9" d="M431.2,324.2v5.3c1.4-.9,2.7-1.9,4-2.8,0-1.8,0-3.6-.2-5.4-1.3,1-2.5,2-3.9,2.9Z"/>
        <path class="st4" d="M431.2,324.2v5.3c1.4-.9,2.7-1.9,4-2.8,0-1.8,0-3.6-.2-5.4-1.3,1-2.5,2-3.9,2.9Z"/>
        <path class="st9" d="M437.6,323.4c0,.5,0,1,0,1.5,2.4-1.9,4.8-3.9,6.9-6.1v-5.9c-2.1,2.2-4.4,4.3-6.8,6.3,0,1.4-.1,2.9-.2,4.3Z"/>
        <path class="st4" d="M437.6,323.4c0,.5,0,1,0,1.5,2.4-1.9,4.8-3.9,6.9-6.1v-5.9c-2.1,2.2-4.4,4.3-6.8,6.3,0,1.4-.1,2.9-.2,4.3Z"/>
        <path class="st9" d="M431.2,474v5.3c4.8-3.2,9.4-6.8,13.4-10.7v-5.9c-4,4.1-8.5,7.9-13.4,11.4Z"/>
        <path class="st4" d="M431.2,474v5.3c4.8-3.2,9.4-6.8,13.4-10.7v-5.9c-4,4.1-8.5,7.9-13.4,11.4Z"/>
        <path class="st3" d="M431.9,103.9h0c1.3,3.6,8.7,7.9,8.1,10.4.8-3.1-.1-6.4-2.4-9.1-.2-.2-.3-.4-.4-.7,1.3.2,2.6.4,3.9.7,1.2.2,2.4.5,3.5.8v-9c-2.6-1.4-5.5-2.4-8.6-3-1.6-.3-3.2-.5-4.8-.6v10.3c.2,0,.5,0,.7,0Z"/>
        <path class="st4" d="M431.9,103.9h0c1.3,3.6,8.7,7.9,8.1,10.4.8-3.1-.1-6.4-2.4-9.1-.2-.2-.3-.4-.4-.7,1.3.2,2.6.4,3.9.7,1.2.2,2.4.5,3.5.8v-9c-2.6-1.4-5.5-2.4-8.6-3-1.6-.3-3.2-.5-4.8-.6v10.3c.2,0,.5,0,.7,0Z"/>
        <path class="st3" d="M431.2,152.4c.5-2.9.5-5.9,0-8.8v9.1c0,0,0-.2,0-.2Z"/>
        <path class="st4" d="M431.2,152.4c.5-2.9.5-5.9,0-8.8v9.1c0,0,0-.2,0-.2Z"/>
        <path class="st3" d="M437.6,324.8c0-.5,0-1,0-1.5,0-1.4.1-2.8.2-4.3.2-5.7.3-11.5-1.6-17,0-.1-.1-.3-.2-.4-1.1-3-2.8-5.9-4.8-8.6v11.7c1.4,3.3,2.6,6.7,3.2,10.2.4,2.1.6,4.2.7,6.4,0,1.8.1,3.6.2,5.4h0c.1,4.3.4,8.6.8,12.8,1.2,13.5,3.7,27,7.5,40.2.5-1.1.8-2.3,1-3.4v-4.9c-.4-2.9-1.3-5.9-2.1-8.7-3.5-12.4-5.1-25.1-4.8-37.8Z"/>
        <path class="st4" d="M437.6,324.8c0-.5,0-1,0-1.5,0-1.4.1-2.8.2-4.3.2-5.7.3-11.5-1.6-17,0-.1-.1-.3-.2-.4-1.1-3-2.8-5.9-4.8-8.6v11.7c1.4,3.3,2.6,6.7,3.2,10.2.4,2.1.6,4.2.7,6.4,0,1.8.1,3.6.2,5.4h0c.1,4.3.4,8.6.8,12.8,1.2,13.5,3.7,27,7.5,40.2.5-1.1.8-2.3,1-3.4v-4.9c-.4-2.9-1.3-5.9-2.1-8.7-3.5-12.4-5.1-25.1-4.8-37.8Z"/>
        <path class="st2" d="M437.2,169.9c-1.9-.7-3.9-1.2-6-1.6v3.3c1,.2,2,.5,3,.7,1-.8,2-1.6,3-2.4Z"/>
        <path class="st6" d="M437.2,169.9c-1.9-.7-3.9-1.2-6-1.6v3.3c1,.2,2,.5,3,.7,1-.8,2-1.6,3-2.4Z"/>
        <path class="st4" d="M437.2,169.9c-1.9-.7-3.9-1.2-6-1.6v3.3c1,.2,2,.5,3,.7,1-.8,2-1.6,3-2.4Z"/>
        <path class="st2" d="M438.9,174.1c2,1,4,2.2,5.7,3.5v-4c-1-.6-2-1.2-3-1.8-.9.8-1.8,1.5-2.7,2.3Z"/>
        <path class="st6" d="M438.9,174.1c2,1,4,2.2,5.7,3.5v-4c-1-.6-2-1.2-3-1.8-.9.8-1.8,1.5-2.7,2.3Z"/>
        <path class="st4" d="M438.9,174.1c2,1,4,2.2,5.7,3.5v-4c-1-.6-2-1.2-3-1.8-.9.8-1.8,1.5-2.7,2.3Z"/>
        <path class="st2" d="M431.2,233.5c4.9-.9,9.4-2.8,13.4-5.4v-4c-3.8,3-8.4,5.1-13.4,6.1v3.3Z"/>
        <path class="st6" d="M431.2,233.5c4.9-.9,9.4-2.8,13.4-5.4v-4c-3.8,3-8.4,5.1-13.4,6.1v3.3Z"/>
        <path class="st4" d="M431.2,233.5c4.9-.9,9.4-2.8,13.4-5.4v-4c-3.8,3-8.4,5.1-13.4,6.1v3.3Z"/>
        <path class="st9" d="M438.9,174.1c.9-.8,1.8-1.5,2.7-2.3-1.4-.7-2.9-1.4-4.4-1.9-1,.8-2,1.6-3,2.4,1.6.5,3.2,1.1,4.7,1.8Z"/>
        <path class="st6" d="M438.9,174.1c.9-.8,1.8-1.5,2.7-2.3-1.4-.7-2.9-1.4-4.4-1.9-1,.8-2,1.6-3,2.4,1.6.5,3.2,1.1,4.7,1.8Z"/>
        <path class="st4" d="M438.9,174.1c.9-.8,1.8-1.5,2.7-2.3-1.4-.7-2.9-1.4-4.4-1.9-1,.8-2,1.6-3,2.4,1.6.5,3.2,1.1,4.7,1.8Z"/>
        <path class="st0" d="M431.2,225.7v4.6c5-1,9.6-3.1,13.4-6.1v-6.1c-3.5,3.7-8.1,6.4-13.4,7.6Z"/>
        <path class="st4" d="M431.2,225.7v4.6c5-1,9.6-3.1,13.4-6.1v-6.1c-3.5,3.7-8.1,6.4-13.4,7.6Z"/>
        <path class="st0" d="M434.2,172.3c-1-.3-2-.5-3-.7v4.6c5.2,1.3,9.9,4,13.4,7.6v-6.1c-1.8-1.4-3.7-2.5-5.7-3.5-1.5-.7-3.1-1.3-4.7-1.8Z"/>
        <path class="st4" d="M434.2,172.3c-1-.3-2-.5-3-.7v4.6c5.2,1.3,9.9,4,13.4,7.6v-6.1c-1.8-1.4-3.7-2.5-5.7-3.5-1.5-.7-3.1-1.3-4.7-1.8Z"/>
        <path class="st7" d="M444.6,183.7c-3.5-3.7-8.1-6.4-13.4-7.6v12.8c6,2,10.2,6.6,10.2,12h-10.2v24.7c5.2-1.3,9.9-4,13.4-7.6v-34.3Z"/>
        <path class="st4" d="M444.6,183.7c-3.5-3.7-8.1-6.4-13.4-7.6v12.8c6,2,10.2,6.6,10.2,12h-10.2v24.7c5.2-1.3,9.9-4,13.4-7.6v-34.3Z"/>
        <path class="st0" d="M441.4,201c0-5.4-4.2-10-10.2-12v12h10.2Z"/>
        <path class="st4" d="M441.4,201c0-5.4-4.2-10-10.2-12v12h10.2Z"/>
        <path class="st2" d="M412.8,335.5c.5-18.8.6-37.6.1-56.4,0,0,0,0,0,0,0,0,0,0,0,0-6.9,8.2-13.8,16.5-20.8,24.7v41.7c3.3-1.5,6.6-3,9.8-4.5,3.7-1.8,7.3-3.6,10.8-5.4Z"/>
        <path class="st5" d="M412.8,335.5c.5-18.8.6-37.6.1-56.4,0,0,0,0,0,0,0,0,0,0,0,0-6.9,8.2-13.8,16.5-20.8,24.7v41.7c3.3-1.5,6.6-3,9.8-4.5,3.7-1.8,7.3-3.6,10.8-5.4Z"/>
        <path class="st2" d="M406.9,492.3c-.9.4-1.8.8-2.8,1.2-3.9,1.7-7.9,3.2-11.9,4.7v5.4c0,.8,0,1.8,0,2.5,2.2,0,4.5-.3,6.7-.3,1.1,0,2.2.2,3.4.4,1.6.2,3.2.3,4.8.2.5-4.8.3-9.7-.1-14.2Z"/>
        <path class="st5" d="M406.9,492.3c-.9.4-1.8.8-2.8,1.2-3.9,1.7-7.9,3.2-11.9,4.7v5.4c0,.8,0,1.8,0,2.5,2.2,0,4.5-.3,6.7-.3,1.1,0,2.2.2,3.4.4,1.6.2,3.2.3,4.8.2.5-4.8.3-9.7-.1-14.2Z"/>
        <path class="st2" d="M406.4,488.5c-.4-3.5-.7-7-.9-10.5,0,0,0,0,0,0-5.1-18.3-4.5-35.1-2.3-48.2-3.7,3.1-7.2,6.4-11,9.4v56c3.3-1.5,6.6-3,9.8-4.5,1.5-.7,3-1.4,4.5-2.2Z"/>
        <path class="st5" d="M406.4,488.5c-.4-3.5-.7-7-.9-10.5,0,0,0,0,0,0-5.1-18.3-4.5-35.1-2.3-48.2-3.7,3.1-7.2,6.4-11,9.4v56c3.3-1.5,6.6-3,9.8-4.5,1.5-.7,3-1.4,4.5-2.2Z"/>
        <path class="st2" d="M403.9,420.7c1.6-1.9,3.3-3.8,4.2-5.9,0-.2.2-.4.2-.6,0,0,0,0,0,0,2.1-24.7,3.6-49.5,4.4-74.3-2.8,1.3-5.7,2.6-8.6,3.9-3.9,1.7-7.9,3.2-11.9,4.7v84.1c4.1-4.8,9.8-9.8,11.7-11.9Z"/>
        <path class="st5" d="M403.9,420.7c1.6-1.9,3.3-3.8,4.2-5.9,0-.2.2-.4.2-.6,0,0,0,0,0,0,2.1-24.7,3.6-49.5,4.4-74.3-2.8,1.3-5.7,2.6-8.6,3.9-3.9,1.7-7.9,3.2-11.9,4.7v84.1c4.1-4.8,9.8-9.8,11.7-11.9Z"/>
        <path class="st2" d="M412.8,272.6c-.4-13.8-1.1-27.5-2.2-41.3-6.4-2.6-11.7-7-15.5-12.5h0c-1,.1-2,.2-2.9.4v82.8c5.2-9.2,12.3-17.6,18.6-26.4.7-1,1.4-2,2-3Z"/>
        <path class="st5" d="M412.8,272.6c-.4-13.8-1.1-27.5-2.2-41.3-6.4-2.6-11.7-7-15.5-12.5h0c-1,.1-2,.2-2.9.4v82.8c5.2-9.2,12.3-17.6,18.6-26.4.7-1,1.4-2,2-3Z"/>
        <path class="st2" d="M393.6,185.5c2.7-4.9,6.6-9,11.4-12.1-.5-9.3-.3-18.6,1.9-27.8,2.9-12.6,9.4-24.8,10.2-37.7.1-1.7.1-3.4,0-5.2-2.1-.1-4.2-.1-6.3,0-5.5.4-10.8,2.3-16.2,3.5-1.6,2.7-2.4,5.7-2.4,8.8v70.7c.4-.1.9-.2,1.3-.3h0Z"/>
        <path class="st5" d="M393.6,185.5c2.7-4.9,6.6-9,11.4-12.1-.5-9.3-.3-18.6,1.9-27.8,2.9-12.6,9.4-24.8,10.2-37.7.1-1.7.1-3.4,0-5.2-2.1-.1-4.2-.1-6.3,0-5.5.4-10.8,2.3-16.2,3.5-1.6,2.7-2.4,5.7-2.4,8.8v70.7c.4-.1.9-.2,1.3-.3h0Z"/>
        <path class="st9" d="M412.7,339.9c0-1.5,0-3,.1-4.4-3.5,1.9-7.2,3.7-10.8,5.4-3.2,1.5-6.5,3-9.8,4.5v3.1c4-1.5,8-3.1,11.9-4.7,2.9-1.2,5.8-2.5,8.6-3.9Z"/>
        <path class="st5" d="M412.7,339.9c0-1.5,0-3,.1-4.4-3.5,1.9-7.2,3.7-10.8,5.4-3.2,1.5-6.5,3-9.8,4.5v3.1c4-1.5,8-3.1,11.9-4.7,2.9-1.2,5.8-2.5,8.6-3.9Z"/>
        <path class="st9" d="M406.9,492.3c0-.7-.1-1.4-.2-2.1,0-.6-.1-1.2-.2-1.8-1.5.7-3,1.5-4.5,2.2-3.2,1.5-6.5,3-9.8,4.5v3.1c4-1.5,8-3.1,11.9-4.7.9-.4,1.8-.8,2.8-1.2Z"/>
        <path class="st5" d="M406.9,492.3c0-.7-.1-1.4-.2-2.1,0-.6-.1-1.2-.2-1.8-1.5.7-3,1.5-4.5,2.2-3.2,1.5-6.5,3-9.8,4.5v3.1c4-1.5,8-3.1,11.9-4.7.9-.4,1.8-.8,2.8-1.2Z"/>
        <path class="st3" d="M417.1,102.7c-.3-3-1-6-2.6-8.8-8.9,1.4-16.2,6.1-19.8,12.3,5.3-1.2,10.7-3.1,16.2-3.5,2.1-.2,4.2-.1,6.3,0Z"/>
        <path class="st5" d="M417.1,102.7c-.3-3-1-6-2.6-8.8-8.9,1.4-16.2,6.1-19.8,12.3,5.3-1.2,10.7-3.1,16.2-3.5,2.1-.2,4.2-.1,6.3,0Z"/>
        <path class="st3" d="M413,279c0-2.1-.1-4.3-.2-6.4-.6,1-1.3,2-2,3-6.2,8.8-13.4,17.2-18.6,26.4v1.7c6.9-8.2,13.8-16.5,20.8-24.7,0,0,0,0,0,0Z"/>
        <path class="st5" d="M413,279c0-2.1-.1-4.3-.2-6.4-.6,1-1.3,2-2,3-6.2,8.8-13.4,17.2-18.6,26.4v1.7c6.9-8.2,13.8-16.5,20.8-24.7,0,0,0,0,0,0Z"/>
        <path class="st3" d="M405.5,477.9s0,0,0,0c0,0,0,0,0,0-1.2-21,.9-42.2,2.7-63.2,0-.1,0-.3,0-.4,0,.2-.1.4-.2.6-.9,2.1-2.6,4-4.2,5.9-1.9,2.1-7.6,7.1-11.7,11.9v6.5c3.8-3.1,7.3-6.3,11-9.4-2.2,13.1-2.8,29.9,2.3,48.2Z"/>
        <path class="st5" d="M405.5,477.9s0,0,0,0c0,0,0,0,0,0-1.2-21,.9-42.2,2.7-63.2,0-.1,0-.3,0-.4,0,.2-.1.4-.2.6-.9,2.1-2.6,4-4.2,5.9-1.9,2.1-7.6,7.1-11.7,11.9v6.5c3.8-3.1,7.3-6.3,11-9.4-2.2,13.1-2.8,29.9,2.3,48.2Z"/>
        <path class="st2" d="M396.6,187s0,0,0,0c2.1-3.8,5.1-7.2,8.6-9.8,0,0,0,0,0,0,0-1.3-.2-2.5-.3-3.8-4.8,3.1-8.7,7.2-11.4,12.1h0c-.5.1-.9.2-1.3.3v2.2c1.4-.4,2.8-.7,4.4-1Z"/>
        <path class="st6" d="M396.6,187s0,0,0,0c2.1-3.8,5.1-7.2,8.6-9.8,0,0,0,0,0,0,0-1.3-.2-2.5-.3-3.8-4.8,3.1-8.7,7.2-11.4,12.1h0c-.5.1-.9.2-1.3.3v2.2c1.4-.4,2.8-.7,4.4-1Z"/>
        <path class="st5" d="M396.6,187s0,0,0,0c2.1-3.8,5.1-7.2,8.6-9.8,0,0,0,0,0,0,0-1.3-.2-2.5-.3-3.8-4.8,3.1-8.7,7.2-11.4,12.1h0c-.5.1-.9.2-1.3.3v2.2c1.4-.4,2.8-.7,4.4-1Z"/>
        <path class="st2" d="M395.1,218.9c3.7,5.5,9.1,9.9,15.5,12.5,0-1.2-.2-2.5-.3-3.7-5-2.4-9.3-6.1-12.3-10.6,0,0,0,0,0,0-2,.2-3.9.5-5.8.8v1.3c1-.1,1.9-.3,2.9-.4h0Z"/>
        <path class="st6" d="M395.1,218.9c3.7,5.5,9.1,9.9,15.5,12.5,0-1.2-.2-2.5-.3-3.7-5-2.4-9.3-6.1-12.3-10.6,0,0,0,0,0,0-2,.2-3.9.5-5.8.8v1.3c1-.1,1.9-.3,2.9-.4h0Z"/>
        <path class="st5" d="M395.1,218.9c3.7,5.5,9.1,9.9,15.5,12.5,0-1.2-.2-2.5-.3-3.7-5-2.4-9.3-6.1-12.3-10.6,0,0,0,0,0,0-2,.2-3.9.5-5.8.8v1.3c1-.1,1.9-.3,2.9-.4h0Z"/>
        <path class="st8" d="M396.6,187s0,0,0,0c-1.5.3-3,.7-4.4,1v29.9c1.8-.3,3.8-.5,5.8-.8,0,0,0,0,0,0-3.2-4.7-5-10.2-5-16.2s1.3-9.8,3.6-13.9Z"/>
        <path class="st5" d="M396.6,187s0,0,0,0c-1.5.3-3,.7-4.4,1v29.9c1.8-.3,3.8-.5,5.8-.8,0,0,0,0,0,0-3.2-4.7-5-10.2-5-16.2s1.3-9.8,3.6-13.9Z"/>
        <path class="st0" d="M409.9,222.3s0,0,0,0c-7.4-4.6-12.2-12.5-12.2-21.4s3.1-13.6,8.1-18.2c0,0,0,0,0,0-.2-1.8-.4-3.7-.5-5.5-3.6,2.6-6.5,6-8.6,9.8-2.3,4.2-3.6,8.9-3.6,13.9s1.9,11.5,5,16.2c3,4.5,7.3,8.1,12.3,10.6,0,0,0,0,0,0-.1-1.8-.3-3.6-.4-5.4Z"/>
        <path class="st5" d="M409.9,222.3s0,0,0,0c-7.4-4.6-12.2-12.5-12.2-21.4s3.1-13.6,8.1-18.2c0,0,0,0,0,0-.2-1.8-.4-3.7-.5-5.5-3.6,2.6-6.5,6-8.6,9.8-2.3,4.2-3.6,8.9-3.6,13.9s1.9,11.5,5,16.2c3,4.5,7.3,8.1,12.3,10.6,0,0,0,0,0,0-.1-1.8-.3-3.6-.4-5.4Z"/>
        <path class="st7" d="M407.5,198.2c-.5-4.3-1-8.6-1.5-13,0-.9-.2-1.7-.2-2.6-5,4.6-8.1,11.1-8.1,18.2s4.9,16.9,12.2,21.4c-.2-2.1-.4-4.2-.6-6.3-.5-5.9-1.2-11.9-1.9-17.8Z"/>
        <path class="st5" d="M407.5,198.2c-.5-4.3-1-8.6-1.5-13,0-.9-.2-1.7-.2-2.6-5,4.6-8.1,11.1-8.1,18.2s4.9,16.9,12.2,21.4c-.2-2.1-.4-4.2-.6-6.3-.5-5.9-1.2-11.9-1.9-17.8Z"/>
      </g>
    </g>
  </g>
</svg>