<?xml version="1.0" encoding="UTF-8"?>
<svg id="Layer_4" xmlns="http://www.w3.org/2000/svg" xmlns:xlink="http://www.w3.org/1999/xlink" version="1.1" viewBox="0 0 600 600">
  <!-- Generator: Adobe Illustrator 29.3.1, SVG Export Plug-In . SVG Version: 2.1.0 Build 151)  -->
  <defs>
    <style>
      .st0 {
        fill: url(#_ÂÁ_Ï_ÌÌ_È_ËÂÌÚ_163);
      }

      .st1 {
        fill: url(#_ÂÁ_Ï_ÌÌ_È_ËÂÌÚ_161);
      }

      .st2 {
        fill: url(#_ÂÁ_Ï_ÌÌ_È_ËÂÌÚ_162);
      }

      .st3 {
        fill: url(#_ÂÁ_Ï_ÌÌ_È_ËÂÌÚ_16);
      }
    </style>
    <linearGradient id="_ÂÁ_Ï_ÌÌ_È_ËÂÌÚ_16" data-name="¡ÂÁ˚ÏˇÌÌ˚È „‡‰ËÂÌÚ 16" x1="58.6" y1="244" x2="541.4" y2="244" gradientUnits="userSpaceOnUse">
      <stop offset="0" stop-color="#00c5ff"/>
      <stop offset="1" stop-color="#008bff"/>
    </linearGradient>
    <linearGradient id="_ÂÁ_Ï_ÌÌ_È_ËÂÌÚ_161" data-name="¡ÂÁ˚ÏˇÌÌ˚È „‡‰ËÂÌÚ 16" x1="165" y1="396.6" x2="200.4" y2="396.6" xlink:href="#_ÂÁ_Ï_ÌÌ_È_ËÂÌÚ_16"/>
    <linearGradient id="_ÂÁ_Ï_ÌÌ_È_ËÂÌÚ_162" data-name="¡ÂÁ˚ÏˇÌÌ˚È „‡‰ËÂÌÚ 16" x1="147.7" y1="347" x2="168.3" y2="347" xlink:href="#_ÂÁ_Ï_ÌÌ_È_ËÂÌÚ_16"/>
    <linearGradient id="_ÂÁ_Ï_ÌÌ_È_ËÂÌÚ_163" data-name="¡ÂÁ˚ÏˇÌÌ˚È „‡‰ËÂÌÚ 16" x1="198.7" y1="376.6" x2="450.4" y2="376.6" xlink:href="#_ÂÁ_Ï_ÌÌ_È_ËÂÌÚ_16"/>
  </defs>
  <path class="st3" d="M537.1,237.7c-.9-.5-2.7-1.5-5.6-2.8-105.3-50.2-175.9-83.9-212-101.1-5.3-2.5-9.1-4-11.7-4.4-7.5-1.2-16.2-.9-23.2,2.5-128.4,61.2-201.9,96.2-220.6,105.2-7.3,3.5-7.1,10.4.2,13.9,47.2,22.6,80.7,38.5,100.5,47.9,3.6,1.7,7.3,3.3,11.2,4.9,0,0,0,0,0,0,.2,0,.4-.1.5-.4.3-2,.9-3.4,1.7-4.2.1,0,.2-.2.3-.2l95.6-50.2c.2-.1.3-.4.2-.6-1.5-3.7-1.2-7.2,1.1-10.6,4-6,12.1-8.9,19-9.8,6.8-.9,13.3-.2,19.7,2.2,6.1,2.3,12.6,7.3,12.6,14.3,0,5-4.4,9.8-8.6,12-9.3,4.9-19.4,5.8-30.2,2.5-.2,0-.5,0-.7,0-.4.2-30.9,16.1-91.7,47.6-2.4,1.3-3.3,2.9-2.2,5.2.3.5.7.9,1.2,1.2.1,0,1.4.7,3.7,1.8,10.4,5.1,38.1,18.3,82.9,39.6,5.1,2.4,8.9,3.9,11.3,4.2,6.2,1,12.3.8,18.3-.6,1.2-.3,7.4-3.1,18.5-8.4,121.1-57.7,190-90.6,206.6-98.5,6.2-3,8.3-9.3,1.4-13.3Z"/>
  <path class="st1" d="M182.9,322.8c0-.3-.1-.6-.3-.8,0,0,0,0-.2,0-.1,0-.2,0-.2.2,0,.3,0,.6,0,.8,0,.4-5.6,43.5-16.9,129.2-.4,3.3-.7,4.4.4,6.9,3.5,8.2,9.2,12.2,17.1,12.1,9.1-.1,15.3-6.3,17.4-14.7,0-.3,0-.6,0-.9-3-22.4-8.8-66.6-17.4-132.8Z"/>
  <path class="st2" d="M167.9,314.3l-19.9-9.6s0,0-.1,0c-.1,0-.2,0-.2.2,0,37.9,0,57.1,0,57.7-.1,4.9.6,8.9,2.4,13.1,2.2,4.9,5.1,9.4,8.6,13.7,0,0,0,0,.1,0,.1,0,.2,0,.2-.2l9.2-74.2c0-.3-.1-.6-.4-.7Z"/>
  <path class="st0" d="M450.3,305.7c0-.2-.3-.2-.5-.2-75.1,36.2-119.9,57.9-134.5,64.9-6.5,3.1-13.7,4.1-21.5,3-3.6-.5-9.2-2.7-16.8-6.5-1.3-.6-27.2-13.1-77.9-37.5,0,0-.1,0-.2,0-.2,0-.3.2-.3.4l12.1,97.5c0,.2.1.3.3.3,22.3,10.6,45.7,17,70.3,19.3,25.8,2.4,51.7-.4,77.8-8.3,25.4-7.7,50.8-20.8,70.3-38.7,7.9-7.2,15.6-16.2,19.2-26,1.1-3,1.6-5.5,1.6-7.5,0-12.1,0-32.3,0-60.4,0,0,0-.1,0-.1Z"/>
</svg>