<?xml version="1.0" encoding="UTF-8"?>
<svg id="Layer_1" xmlns="http://www.w3.org/2000/svg" version="1.1" viewBox="0 0 974 1006">
  <!-- Generator: Adobe Illustrator 29.3.1, SVG Export Plug-In . SVG Version: 2.1.0 Build 151)  -->
  <defs>
    <style>
      .st0 {
        fill: none;
      }

      .st1 {
        fill: #4782c6;
      }

      .st2 {
        fill: #89693f;
      }

      .st3 {
        opacity: .9;
      }

      .st3, .st4 {
        fill: #3f2a0a;
      }

      .st5 {
        fill: #6d5232;
      }
    </style>
  </defs>
  <rect width="974" height="1006"/>
  <g>
    <g>
      <path class="st0" d="M231,117c-.8.2-1.7.4-2.6.5.9-.1,1.8-.3,2.6-.5Z"/>
      <polygon class="st0" points="121.5 117.8 191.4 117.7 121.5 117.8 121.5 117.8"/>
      <path class="st0" d="M226.3,84.2h0c.4,0,.7,0,1.1,0-.4,0-.7,0-1.1,0Z"/>
      <polygon class="st0" points="226.3 84.2 173.9 84.3 226.3 84.2 226.3 84.2"/>
      <path class="st0" d="M121.5,117.8h0c-.9,0-1.8,0-2.7-.2.9.1,1.8.2,2.7.2Z"/>
      <path class="st4" d="M312.3,34H35.6c-.5,0-.8.4-.8.8v450.6c0,.4.4.8.8.8h276.7c.5,0,.8-.4.8-.8V34.8c0-.4-.4-.8-.8-.8ZM104.6,100.7c0-5,2.3-9.5,6-12.5.1-.1.3-.2.4-.3.6-.4,1.2-.8,1.8-1.2.4-.2.9-.5,1.3-.7,2.2-1,4.7-1.6,7.3-1.6h52.4c0,0,52.4-.2,52.4-.2h0c.4,0,.7,0,1.1,0,.4,0,.7,0,1.1.1.7,0,1.4.2,2.1.4.5.1.9.2,1.3.4.6.2,1.2.4,1.8.7,1.2.6,2.4,1.3,3.4,2.1.8.7,1.6,1.4,2.3,2.2.7.8,1.3,1.7,1.8,2.6.3.5.5.9.7,1.4.3.6.5,1.3.7,1.9.2.8.4,1.7.5,2.5,0,.6.1,1.3.1,1.9v.9s0,0,0,0c0,3.6-1.2,6.9-3.2,9.5-.4.5-.8,1-1.2,1.4-.5.5-1,1-1.5,1.4-.9.8-1.9,1.4-3,2-.4.2-.7.4-1.1.5-.4.2-.8.3-1.2.5-.3.1-.7.2-1,.3-.8.2-1.7.4-2.6.5-.7,0-1.3.1-2,.1h-35c0,0-69.9.2-69.9.2h0c-.9,0-1.8,0-2.7-.2s-1.7-.3-2.5-.6c-.7-.2-1.3-.4-1.9-.7-.3-.1-.6-.3-.9-.4-1.9-1-3.6-2.3-5-4-2.4-2.8-3.9-6.4-3.9-10.3v-.9h0ZM165.4,430.3c0,9.3-7.9,16.9-17.6,16.9h-69.2c-9.7,0-17.6-7.6-17.6-16.9v-100.2c0-1.2.1-2.3.4-3.4.1-.6.3-1.1.4-1.6.1-.4.3-.8.4-1.2.3-.8.7-1.5,1.1-2.2.2-.4.4-.7.7-1,3.2-4.5,8.5-7.5,14.6-7.5h69.2c1.2,0,2.4.1,3.5.3.6.1,1.1.3,1.7.4,1.1.3,2.2.8,3.1,1.3s1.9,1.1,2.8,1.8c.4.3.8.7,1.2,1.1.8.8,1.5,1.6,2.1,2.5.9,1.3,1.7,2.8,2.2,4.4.2.5.3,1.1.4,1.6.2,1.1.4,2.2.4,3.4v100.2ZM278.1,168.5c0,9.1-7.7,16.4-17.1,16.4l-174.2-.3c-9.4,0-17-7.4-17-16.5v-.6c0-9.1,7.7-16.4,17.1-16.4l174.2.3c9.4,0,17,7.4,17,16.5v.6Z"/>
      <path class="st1" d="M129.9,346.7h-33.2c-.5,0-.8.4-.8.8v65.4c0,.4.4.8.8.8h33.2c.5,0,.8-.4.8-.8v-65.4c0-.4-.4-.8-.8-.8Z"/>
    </g>
    <path class="st3" d="M129.9,346.7h-33.2c-.5,0-.8.4-.8.8v65.4c0,.4.4.8.8.8h33.2c.5,0,.8-.4.8-.8v-65.4c0-.4-.4-.8-.8-.8Z"/>
    <path class="st0" d="M544,117c-.8.2-1.7.4-2.6.5.9-.1,1.8-.3,2.6-.5Z"/>
    <polygon class="st0" points="434.5 117.8 504.5 117.7 434.5 117.8 434.5 117.8"/>
    <path class="st0" d="M539.4,84.2h0c.4,0,.7,0,1.1,0-.4,0-.7,0-1.1,0Z"/>
    <polygon class="st0" points="539.4 84.2 486.9 84.3 539.4 84.2 539.4 84.2"/>
    <path class="st0" d="M434.5,117.8h0c-.9,0-1.8,0-2.7-.2.9.1,1.8.2,2.7.2Z"/>
    <path class="st2" d="M625.3,34h-276.7c-.5,0-.8.4-.8.8v450.6c0,.4.4.8.8.8h276.7c.5,0,.8-.4.8-.8V34.8c0-.4-.4-.8-.8-.8ZM417.6,100.7c0-5,2.3-9.5,6-12.5.1-.1.3-.2.4-.3.6-.4,1.2-.8,1.8-1.2.4-.2.9-.5,1.3-.7,2.2-1,4.7-1.6,7.3-1.6h52.4c0,0,52.4-.2,52.4-.2h0c.4,0,.7,0,1.1,0,.4,0,.7,0,1.1.1.7,0,1.4.2,2.1.4.5.1.9.2,1.3.4.6.2,1.2.4,1.8.7,1.2.6,2.4,1.3,3.4,2.1.8.7,1.6,1.4,2.3,2.2.7.8,1.3,1.7,1.8,2.6.3.5.5.9.7,1.4.3.6.5,1.3.7,1.9.2.8.4,1.7.5,2.5,0,.6.1,1.3.1,1.9v.9s0,0,0,0c0,3.6-1.2,6.9-3.2,9.5-.4.5-.8,1-1.2,1.4-.5.5-1,1-1.5,1.4-.9.8-1.9,1.4-3,2-.4.2-.7.4-1.1.5-.4.2-.8.3-1.2.5-.3.1-.7.2-1,.3-.8.2-1.7.4-2.6.5-.7,0-1.3.1-2,.1h-35c0,0-69.9.2-69.9.2h0c-.9,0-1.8,0-2.7-.2s-1.7-.3-2.5-.6c-.7-.2-1.3-.4-1.9-.7-.3-.1-.6-.3-.9-.4-1.9-1-3.6-2.3-5-4-2.4-2.8-3.9-6.4-3.9-10.3v-.9h0ZM478.5,430.3c0,9.3-7.9,16.9-17.6,16.9h-69.2c-9.7,0-17.6-7.6-17.6-16.9v-100.2c0-1.2.1-2.3.4-3.4.1-.6.3-1.1.4-1.6.1-.4.3-.8.4-1.2.3-.8.7-1.5,1.1-2.2.2-.4.4-.7.7-1,3.2-4.5,8.5-7.5,14.6-7.5h69.2c1.2,0,2.4.1,3.5.3.6.1,1.1.3,1.7.4,1.1.3,2.2.8,3.1,1.3s1.9,1.1,2.8,1.8c.4.3.8.7,1.2,1.1.8.8,1.5,1.6,2.1,2.5.9,1.3,1.7,2.8,2.2,4.4.2.5.3,1.1.4,1.6.2,1.1.4,2.2.4,3.4v100.2ZM591.1,168.5c0,9.1-7.7,16.4-17.1,16.4l-174.2-.3c-9.4,0-17-7.4-17-16.5v-.6c0-9.1,7.7-16.4,17.1-16.4l174.2.3c9.4,0,17,7.4,17,16.5v.6Z"/>
    <path class="st5" d="M442.9,346.7h-33.2c-.5,0-.8.4-.8.8v65.4c0,.4.4.8.8.8h33.2c.5,0,.8-.4.8-.8v-65.4c0-.4-.4-.8-.8-.8Z"/>
    <g>
      <path class="st0" d="M857.1,117c-.8.2-1.7.4-2.6.5.9-.1,1.8-.3,2.6-.5Z"/>
      <polygon class="st0" points="747.6 117.8 817.6 117.7 747.6 117.8 747.6 117.8"/>
      <path class="st0" d="M852.5,84.2h0c.4,0,.7,0,1.1,0-.4,0-.7,0-1.1,0Z"/>
      <polygon class="st0" points="852.5 84.2 800 84.3 852.5 84.2 852.5 84.2"/>
      <path class="st0" d="M747.6,117.8h0c-.9,0-1.8,0-2.7-.2.9.1,1.8.2,2.7.2Z"/>
      <path class="st4" d="M938.4,34h-276.7c-.5,0-.8.4-.8.8v450.6c0,.4.4.8.8.8h276.7c.5,0,.8-.4.8-.8V34.8c0-.4-.4-.8-.8-.8ZM730.7,100.7c0-5,2.3-9.5,6-12.5.1-.1.3-.2.4-.3.6-.4,1.2-.8,1.8-1.2.4-.2.9-.5,1.3-.7,2.2-1,4.7-1.6,7.3-1.6h52.4c0,0,52.4-.2,52.4-.2h0c.4,0,.7,0,1.1,0,.4,0,.7,0,1.1.1.7,0,1.4.2,2.1.4.5.1.9.2,1.3.4.6.2,1.2.4,1.8.7,1.2.6,2.4,1.3,3.4,2.1.8.7,1.6,1.4,2.3,2.2.7.8,1.3,1.7,1.8,2.6.3.5.5.9.7,1.4.3.6.5,1.3.7,1.9.2.8.4,1.7.5,2.5,0,.6.1,1.3.1,1.9v.9s0,0,0,0c0,3.6-1.2,6.9-3.2,9.5-.4.5-.8,1-1.2,1.4-.5.5-1,1-1.5,1.4-.9.8-1.9,1.4-3,2-.4.2-.7.4-1.1.5-.4.2-.8.3-1.2.5-.3.1-.7.2-1,.3-.8.2-1.7.4-2.6.5-.7,0-1.3.1-2,.1h-35c0,0-69.9.2-69.9.2h0c-.9,0-1.8,0-2.7-.2s-1.7-.3-2.5-.6c-.7-.2-1.3-.4-1.9-.7-.3-.1-.6-.3-.9-.4-1.9-1-3.6-2.3-5-4-2.4-2.8-3.9-6.4-3.9-10.3v-.9h0ZM791.5,430.3c0,9.3-7.9,16.9-17.6,16.9h-69.2c-9.7,0-17.6-7.6-17.6-16.9v-100.2c0-1.2.1-2.3.4-3.4.1-.6.3-1.1.4-1.6.1-.4.3-.8.4-1.2.3-.8.7-1.5,1.1-2.2.2-.4.4-.7.7-1,3.2-4.5,8.5-7.5,14.6-7.5h69.2c1.2,0,2.4.1,3.5.3.6.1,1.1.3,1.7.4,1.1.3,2.2.8,3.1,1.3s1.9,1.1,2.8,1.8c.4.3.8.7,1.2,1.1.8.8,1.5,1.6,2.1,2.5.9,1.3,1.7,2.8,2.2,4.4.2.5.3,1.1.4,1.6.2,1.1.4,2.2.4,3.4v100.2ZM904.2,168.5c0,9.1-7.7,16.4-17.1,16.4l-174.2-.3c-9.4,0-17-7.4-17-16.5v-.6c0-9.1,7.7-16.4,17.1-16.4l174.2.3c9.4,0,17,7.4,17,16.5v.6Z"/>
      <path class="st3" d="M756,346.7h-33.2c-.5,0-.8.4-.8.8v65.4c0,.4.4.8.8.8h33.2c.5,0,.8-.4.8-.8v-65.4c0-.4-.4-.8-.8-.8Z"/>
    </g>
    <g>
      <path class="st0" d="M857.2,602.7c-.8.2-1.7.4-2.6.5.9-.1,1.8-.3,2.6-.5Z"/>
      <polygon class="st0" points="747.7 603.6 817.6 603.4 747.7 603.6 747.7 603.6"/>
      <path class="st0" d="M852.5,569.9h0c.4,0,.7,0,1.1,0-.4,0-.7,0-1.1,0Z"/>
      <polygon class="st0" points="852.5 569.9 800.1 570 852.5 569.9 852.5 569.9"/>
      <path class="st0" d="M747.7,603.6h0c-.9,0-1.8,0-2.7-.2.9.1,1.8.2,2.7.2Z"/>
      <path class="st2" d="M938.4,519.7h-276.7c-.5,0-.8.4-.8.8v450.6c0,.4.4.8.8.8h276.7c.5,0,.8-.4.8-.8v-450.6c0-.4-.4-.8-.8-.8ZM730.7,586.4c0-5,2.3-9.5,6-12.5.1-.1.3-.2.4-.3.6-.4,1.2-.8,1.8-1.2.4-.2.9-.5,1.3-.7,2.2-1,4.7-1.6,7.3-1.6h52.4c0,0,52.4-.2,52.4-.2h0c.4,0,.7,0,1.1,0,.4,0,.7,0,1.1.1.7,0,1.4.2,2.1.4.5.1.9.2,1.3.4.6.2,1.2.4,1.8.7,1.2.6,2.4,1.3,3.4,2.1.8.7,1.6,1.4,2.3,2.2.7.8,1.3,1.7,1.8,2.6.3.5.5.9.7,1.4.3.6.5,1.3.7,1.9.2.8.4,1.7.5,2.5,0,.6.1,1.3.1,1.9v.9s0,0,0,0c0,3.6-1.2,6.9-3.2,9.5-.4.5-.8,1-1.2,1.4-.5.5-1,1-1.5,1.4-.9.8-1.9,1.4-3,2-.4.2-.7.4-1.1.5-.4.2-.8.3-1.2.5-.3.1-.7.2-1,.3-.8.2-1.7.4-2.6.5-.7,0-1.3.1-2,.1h-35c0,0-69.9.2-69.9.2h0c-.9,0-1.8,0-2.7-.2s-1.7-.3-2.5-.6c-.7-.2-1.3-.4-1.9-.7-.3-.1-.6-.3-.9-.4-1.9-1-3.6-2.3-5-4-2.4-2.8-3.9-6.4-3.9-10.3v-.9h0ZM791.6,916c0,9.3-7.9,16.9-17.6,16.9h-69.2c-9.7,0-17.6-7.6-17.6-16.9v-100.2c0-1.2.1-2.3.4-3.4.1-.6.3-1.1.4-1.6.1-.4.3-.8.4-1.2.3-.8.7-1.5,1.1-2.2.2-.4.4-.7.7-1,3.2-4.5,8.5-7.5,14.6-7.5h69.2c1.2,0,2.4.1,3.5.3.6.1,1.1.3,1.7.4,1.1.3,2.2.8,3.1,1.3s1.9,1.1,2.8,1.8c.4.3.8.7,1.2,1.1.8.8,1.5,1.6,2.1,2.5.9,1.3,1.7,2.8,2.2,4.4.2.5.3,1.1.4,1.6.2,1.1.4,2.2.4,3.4v100.2ZM904.2,654.2c0,9.1-7.7,16.4-17.1,16.4l-174.2-.3c-9.4,0-17-7.4-17-16.5v-.6c0-9.1,7.7-16.4,17.1-16.4l174.2.3c9.4,0,17,7.4,17,16.5v.6Z"/>
      <path class="st5" d="M756,832.4h-33.2c-.5,0-.8.4-.8.8v65.4c0,.4.4.8.8.8h33.2c.5,0,.8-.4.8-.8v-65.4c0-.4-.4-.8-.8-.8Z"/>
    </g>
    <g>
      <path class="st0" d="M544.1,602.7c-.8.2-1.7.4-2.6.5.9-.1,1.8-.3,2.6-.5Z"/>
      <polygon class="st0" points="434.6 603.6 504.5 603.4 434.6 603.6 434.6 603.6"/>
      <path class="st0" d="M539.4,569.9h0c.4,0,.7,0,1.1,0-.4,0-.7,0-1.1,0Z"/>
      <polygon class="st0" points="539.4 569.9 487 570 539.4 569.9 539.4 569.9"/>
      <path class="st0" d="M434.6,603.6h0c-.9,0-1.8,0-2.7-.2.9.1,1.8.2,2.7.2Z"/>
      <path class="st4" d="M625.4,519.7h-276.7c-.5,0-.8.4-.8.8v450.6c0,.4.4.8.8.8h276.7c.5,0,.8-.4.8-.8v-450.6c0-.4-.4-.8-.8-.8ZM417.7,586.4c0-5,2.3-9.5,6-12.5.1-.1.3-.2.4-.3.6-.4,1.2-.8,1.8-1.2.4-.2.9-.5,1.3-.7,2.2-1,4.7-1.6,7.3-1.6h52.4c0,0,52.4-.2,52.4-.2h0c.4,0,.7,0,1.1,0,.4,0,.7,0,1.1.1.7,0,1.4.2,2.1.4.5.1.9.2,1.3.4.6.2,1.2.4,1.8.7,1.2.6,2.4,1.3,3.4,2.1.8.7,1.6,1.4,2.3,2.2.7.8,1.3,1.7,1.8,2.6.3.5.5.9.7,1.4.3.6.5,1.3.7,1.9.2.8.4,1.7.5,2.5,0,.6.1,1.3.1,1.9v.9s0,0,0,0c0,3.6-1.2,6.9-3.2,9.5-.4.5-.8,1-1.2,1.4-.5.5-1,1-1.5,1.4-.9.8-1.9,1.4-3,2-.4.2-.7.4-1.1.5-.4.2-.8.3-1.2.5-.3.1-.7.2-1,.3-.8.2-1.7.4-2.6.5-.7,0-1.3.1-2,.1h-35c0,0-69.9.2-69.9.2h0c-.9,0-1.8,0-2.7-.2s-1.7-.3-2.5-.6c-.7-.2-1.3-.4-1.9-.7-.3-.1-.6-.3-.9-.4-1.9-1-3.6-2.3-5-4-2.4-2.8-3.9-6.4-3.9-10.3v-.9h0ZM478.5,916c0,9.3-7.9,16.9-17.6,16.9h-69.2c-9.7,0-17.6-7.6-17.6-16.9v-100.2c0-1.2.1-2.3.4-3.4.1-.6.3-1.1.4-1.6.1-.4.3-.8.4-1.2.3-.8.7-1.5,1.1-2.2.2-.4.4-.7.7-1,3.2-4.5,8.5-7.5,14.6-7.5h69.2c1.2,0,2.4.1,3.5.3.6.1,1.1.3,1.7.4,1.1.3,2.2.8,3.1,1.3s1.9,1.1,2.8,1.8c.4.3.8.7,1.2,1.1.8.8,1.5,1.6,2.1,2.5.9,1.3,1.7,2.8,2.2,4.4.2.5.3,1.1.4,1.6.2,1.1.4,2.2.4,3.4v100.2ZM591.2,654.2c0,9.1-7.7,16.4-17.1,16.4l-174.2-.3c-9.4,0-17-7.4-17-16.5v-.6c0-9.1,7.7-16.4,17.1-16.4l174.2.3c9.4,0,17,7.4,17,16.5v.6Z"/>
      <path class="st3" d="M443,832.4h-33.2c-.5,0-.8.4-.8.8v65.4c0,.4.4.8.8.8h33.2c.5,0,.8-.4.8-.8v-65.4c0-.4-.4-.8-.8-.8Z"/>
    </g>
    <g>
      <path class="st0" d="M231.2,602.7c-.8.2-1.7.4-2.6.5.9-.1,1.8-.3,2.6-.5Z"/>
      <polygon class="st0" points="121.7 603.5 191.6 603.4 121.7 603.5 121.7 603.5"/>
      <path class="st0" d="M226.5,569.9h0c.4,0,.7,0,1.1,0-.4,0-.7,0-1.1,0Z"/>
      <polygon class="st0" points="226.5 569.9 174.1 570 226.5 569.9 226.5 569.9"/>
      <path class="st0" d="M121.7,603.5h0c-.9,0-1.8,0-2.7-.2.9.1,1.8.2,2.7.2Z"/>
      <path class="st2" d="M312.5,519.7H35.8c-.5,0-.8.4-.8.8v450.6c0,.4.4.8.8.8h276.7c.5,0,.8-.4.8-.8v-450.6c0-.4-.4-.8-.8-.8ZM104.8,586.4c0-5,2.3-9.5,6-12.5.1-.1.3-.2.4-.3.6-.4,1.2-.8,1.8-1.2.4-.2.9-.5,1.3-.7,2.2-1,4.7-1.6,7.3-1.6h52.4c0,0,52.4-.2,52.4-.2h0c.4,0,.7,0,1.1,0,.4,0,.7,0,1.1.1.7,0,1.4.2,2.1.4.5.1.9.2,1.3.4.6.2,1.2.4,1.8.7,1.2.6,2.4,1.3,3.4,2.1.8.7,1.6,1.4,2.3,2.2.7.8,1.3,1.7,1.8,2.6.3.5.5.9.7,1.4.3.6.5,1.3.7,1.9.2.8.4,1.7.5,2.5,0,.6.1,1.3.1,1.9v.9s0,0,0,0c0,3.6-1.2,6.9-3.2,9.5-.4.5-.8,1-1.2,1.4-.5.5-1,1-1.5,1.4-.9.8-1.9,1.4-3,2-.4.2-.7.4-1.1.5-.4.2-.8.3-1.2.5-.3.1-.7.2-1,.3-.8.2-1.7.4-2.6.5-.7,0-1.3.1-2,.1h-35c0,0-69.9.2-69.9.2h0c-.9,0-1.8,0-2.7-.2s-1.7-.3-2.5-.6c-.7-.2-1.3-.4-1.9-.7-.3-.1-.6-.3-.9-.4-1.9-1-3.6-2.3-5-4-2.4-2.8-3.9-6.4-3.9-10.3v-.9h0ZM165.6,916c0,9.3-7.9,16.9-17.6,16.9h-69.2c-9.7,0-17.6-7.6-17.6-16.9v-100.2c0-1.2.1-2.3.4-3.4.1-.6.3-1.1.4-1.6.1-.4.3-.8.4-1.2.3-.8.7-1.5,1.1-2.2.2-.4.4-.7.7-1,3.2-4.5,8.5-7.5,14.6-7.5h69.2c1.2,0,2.4.1,3.5.3.6.1,1.1.3,1.7.4,1.1.3,2.2.8,3.1,1.3s1.9,1.1,2.8,1.8c.4.3.8.7,1.2,1.1.8.8,1.5,1.6,2.1,2.5.9,1.3,1.7,2.8,2.2,4.4.2.5.3,1.1.4,1.6.2,1.1.4,2.2.4,3.4v100.2ZM278.3,654.2c0,9.1-7.7,16.4-17.1,16.4l-174.2-.3c-9.4,0-17-7.4-17-16.5v-.6c0-9.1,7.7-16.4,17.1-16.4l174.2.3c9.4,0,17,7.4,17,16.5v.6Z"/>
      <path class="st5" d="M130.1,832.4h-33.2c-.5,0-.8.4-.8.8v65.4c0,.4.4.8.8.8h33.2c.5,0,.8-.4.8-.8v-65.4c0-.4-.4-.8-.8-.8Z"/>
    </g>
  </g>
</svg>
