<?xml version="1.0" encoding="UTF-8"?>
<svg id="Layer_4" xmlns="http://www.w3.org/2000/svg" xmlns:xlink="http://www.w3.org/1999/xlink" version="1.1" viewBox="0 0 575.7 400.6">
  <!-- Generator: Adobe Illustrator 29.3.1, SVG Export Plug-In . SVG Version: 2.1.0 Build 151)  -->
  <defs>
    <style>
      .st0 {
        fill: none;
      }

      .st1 {
        fill: #291510;
      }

      .st2 {
        fill: #6e3621;
      }

      .st3 {
        fill: #fff;
      }

      .st4 {
        fill: #eecd9a;
      }

      .st5 {
        fill: #ca2127;
      }

      .st6 {
        fill: #a67f45;
      }
    </style>
  </defs>
  <path class="st0" d="M324.5,333.4c5.3-7.9,7.7-14.7,7.3-20.3-.2-1.9-.5-3.5-.7-3.6-.1,0-.3,0-.5-.1-2.7,0-11.3,4.4-16.7,8.7-8.4,6.8-12.9,15.7-11.2,22.4.5,2.1,1.4,3.5,2.7,4.2,1.2.7,2.9.8,4.9.3,5-1.4,10.4-5.8,14.3-11.5Z"/>
  <path class="st0" d="M362.8,319.8c1.2-.3,4.4-3.9,4.6-4.4-.2-.4-1.8-3-2.9-4.7-.7,1.2-3.1,6.6-3,7.9,0,.6.2,1,.5,1.2.2.1.5.2.8,0Z"/>
  <path class="st0" d="M332.6,370.8c0,.2,0,.4,0,.5,0,0-.1.2-.4.3-1,.4-3,2.3-3,3.1,0,1.1,2.8,3.5,3.4,3.7.4-.6.8-5.6,0-7.3,0-.1-.1-.2-.2-.4Z"/>
  <path class="st0" d="M368.2,314.2c.7-.4,2.6-6.5,2.4-8.7-.1-1.1-.6-1.6-.9-1.8-.3-.2-.7-.3-1-.2-.5.1-1.2.9-1.8,1.5.3-.1.6-.3.8-.3.4-.1.8-.2,1.3-.2.3,0,.6,0,1,.2.2,0,.4.3.4.5,0,.4-.2.7-.6.8-1.3.4-4,2.3-4.3,3.5-.3,1.3,2.2,4.4,2.7,4.7Z"/>
  <path class="st0" d="M258.4,140.5c-5,1.7-11.4,7.6-14.2,13,2.6,7,8.5,11.3,15,13.6,4.1-9.3,5.3-21.6,3-27.9-2.1-5.6-6.6-6.8-9.6-5.7-3.4,1.2-5.7,3.1-7.8,8.1,1.7-1,3.8-2.1,5.6-2.7,2.7-.9,4.9-1.3,8.1-1,.7.2,1,.4,1.1.8.2.5.3,1.4-1.1,1.9Z"/>
  <path class="st0" d="M393.3,354.9c1.8-.6,2.9-2.3,3.3-3.5.3-.9.4-1.7,0-2.2,0-.1-.2-.2-.4-.2,0,0-.2,0-.3,0-1,.4-2.8,4.8-3.2,6,.1,0,.2,0,.3-.1h0Z"/>
  <path class="st0" d="M257.7,170c-7.3-1.9-13.3-8.1-15.4-13.7-5,7.7-7.4,21.6-5.7,26.1,1.3,3.4,3.4,4.8,7,3.6,4.6-1.6,11.2-10.2,14.1-16Z"/>
  <path class="st0" d="M104,188.6c-24.2,8.3-44.5,18.7-63.7,36.2-28.2,26-39.5,57.4-31.4,79,5.6,14.8,17.1,17,32.2,11.8,20.5-7.1,42.7-24.5,55.4-45,12.4-19.9,22.5-47,13.8-70-1.7-4.6-3.4-8.4-6.3-12Z"/>
  <path class="st0" d="M376.5,100.6c-.4-1.2-2.1-1.4-3.7-.8-6.2,2.1-16.6,16.7-20.3,25.6,1.3-.3,2.4-.6,3.4-1,12.8-4.4,22.7-18.4,20.6-23.8Z"/>
  <path class="st0" d="M328.7,375.9c-.3,1.2-1.2,5.6-.9,6.7.4,1.1.9,1.1,1.4,1,.9-.3,3-3.5,3-3.9-.1-.2-1.9-2-3.5-3.7Z"/>
  <path class="st0" d="M331.5,370.3c.2,0,.4,0,.7,0,.2,0,.3.2.4.3-.6-1.1-1.4-1.3-1.9-1.2-.3.1-.8.7-1.1,1.3.2-.1.4-.2.6-.3.4-.1.8-.3,1.4-.2Z"/>
  <path class="st1" d="M141.5,213.3c2.3-11.3,18.4-41,25.8-43.6,1.4-.5,2.6.3,3.2,1.8,2.4,6.5-2,26.9-1.3,28.8.8,2.3,3,3.7,5.4,2.9.6-.2,1.5-.8,1.6-1.9,2-9.7,16.8-40.6,24.5-43.3,1.6-.5,2.8-.1,3.5,1.7.7,1.8-2.7,16.6,1.6,28,4.2,11.1,15.5,17.5,30.4,12.3,7.7-2.7,19.5-13.4,18.1-17.3-.2-.6-.5-.8-.9-1,3.2-3.8,6-8,7.8-11.3,4.7.3,9.1-.4,12.8-1.7,4-1.4,7.5-3.7,10.5-6.6-.4,2.9-.6,5.1-.3,5.9,1.5,3.9,4.1,5.1,5.7,4.6.5-.2,1.5-.9,1.7-1.9,2.8-14.4,22-46.8,32-50.2,1.4-.5,2.8,0,3.6,2,2.4,6.3-6.2,16.2-11.9,18.1-2,.7-4.2,0-6.3.8-1.4.5-2.3,2.3-1.7,4,2.2,5.9,26.2,31.8,52.9,22.6,11.7-4.1,20.5-15.1,19.2-18.4-.4-1-1-1.2-1.9-.9-.9.3-2.4,1.2-3.5,2.4-1.9,1.8-.4,4.4-2.1,6.1-3.5,3.5-7,5.5-11.1,6.9-8,2.8-16.9.6-24.8-3-6-2.7-15.7-12.8-16.6-15.4-.3-.7-.5-1.8,0-1.9,10.9-3.7,22.1-19.3,17.8-30.7-1.2-3.2-5.3-4.3-8.8-3.1-12.5,4.3-32.5,40.2-32.7,40.3-.4.1-.6-.6-.7-.7.4-2.6,9.5-48.4,15.9-78.5,1.7-7.9,4.4-19.2,4.9-21.7.2-.6.2-2.2-.3-3.4-.8-2-5.7-6.1-7.7-5.4-2,.7-3.1,3.4-3.9,5.2-1.6,4.2-2.8,8.1-1.5,11.6.6,1.5,1,2.1,1.2,2.7.9,2.4.6,4.4-.1,8.3-.6,3.3-15.3,70.6-16.4,77.7-.5,3.3-1.3,7.2-1.9,10.8-3.3,4.3-7.4,7.4-12.5,9.2-3.4,1.2-6.4,1.8-9.9,1.5,5-9.2,9.2-20.9,5.2-31.7-2.7-7.1-8.6-8.9-14.1-7-5.7,2-11,7.6-12.6,15.1-3.5,3.1-6.8,7.5-10,13.6-4.9,10-5.1,18.6-2.8,24.6,2,5.3,7.1,10.2,13.8,7.9,1.9-.7,3.9-1.8,5.7-3.3,0,.9-.2,1.8-.9,2.5-3.5,3.6-7.5,6-12,7.5-9.3,3.2-17.7.2-21.5-9.8-5.8-15.4,1.6-30.3-.5-36-1.1-2.9-4.3-3.4-7.3-2.4-11.8,4.1-27.4,36-27.6,35.5-.2-.5,0-1.5,0-1.9,1.1-5.1,2.6-13.8.7-19.1-1.1-2.9-4-3.9-7.1-2.8-10,3.4-28.3,36.8-29,36.5.2-.3.9-2.8,4.7-19.1.1-.6.2-1.9-.2-3-.6-1.7-4.5-4.9-7-4-1.3.4-1.9,1.7-2.7,3.3-.4,1.1-.8,2.2-1.1,3.4-7.9.6-18.1,2.9-21.6,3.8-13.8-19.2-40.8-18-45.4-30-6-15.9,24.9-41.1,35.6-44.8,10.2-3.5,12.7-1.7,14.4,2.8,1.8,4.8.4,14.5-2.8,18.7-1.2,1.5-3.6,2.5-5.4,3.1-6.8,2.3-14.2,13.4-12.4,18.2.8,2,6.7,2.3,9.1,1.5,12-4.1,21-30.8,16.4-42.8-3.6-9.6-12.2-8.7-21.5-5.5-17.6,6.1-55,36.1-47.5,56,4.4,11.6,30.7,11.9,45.8,26.5-23.2,8-43.2,18-64,37.1C7.5,249.4-6.1,283.1,2.6,306.2c7.4,19.6,24.9,23.9,45.4,16.9,21.3-7.3,45.8-25.6,60-47.8,14.4-22.7,24.5-53.3,14.7-79.5-1.5-4.1-2.9-7.1-5.5-11,8-1.9,13.3-2.5,17.9-2.8.3,0,.5,0,.8,0,0,1.2,0,2.4.4,3.5.3.8.7,1.3,1.2,2.7.7,2,.5,3.2,0,5.4-.6,2.7-3.8,16.8-3.2,18.6.7,2,3.2,3.8,5.9,2.9.5-.2,1-.7,1.2-1.6ZM259.5,138.6c-.1-.3-.4-.6-1.1-.8-3.1-.3-5.4.1-8.1,1-1.8.6-4,1.8-5.6,2.7,2.2-5,4.4-6.9,7.8-8.1,3-1,7.5.1,9.6,5.7,2.4,6.3,1.2,18.6-3,27.9-6.5-2.4-12.4-6.7-15-13.6,2.8-5.4,9.2-11.3,14.2-13,1.4-.5,1.3-1.4,1.1-1.9ZM243.6,186c-3.6,1.2-5.7-.2-7-3.6-1.7-4.6.7-18.5,5.7-26.1,2.1,5.6,8.1,11.8,15.4,13.7-2.9,5.8-9.5,14.4-14.1,16ZM96.5,270.7c-12.6,20.4-34.9,37.9-55.4,45-15.1,5.2-26.6,2.9-32.2-11.8-8.1-21.6,3.2-53,31.4-79,19.2-17.5,39.5-27.8,63.7-36.2,2.9,3.6,4.5,7.4,6.3,12,8.7,23.1-1.5,50.1-13.8,70Z"/>
  <path class="st1" d="M364.3,147.6c14.4-5,30.7-20.6,39.2-32.1,1.8-2.6,3.4-4.7,4.4-6.6-.6-1.3-1.2-2.7-1.8-3.9-.1.3-.2.7-.4,1.1-1.2,2.3-1.9,3.4-3.9,6.2-8.9,11.9-25,26.9-38.1,31.4-4.8,1.7-10.1,2-11.9-2.8-1.5-4.1-1.3-8.2.2-12.3,1.4,0,3.2-.7,4.2-1.1,14.4-5,27.9-21.5,25-29.3-1.6-4.3-6.7-3.8-10.9-2.4-6.9,2.4-15.8,8.7-22.4,19.6-5.7,9.9-6.8,19.3-4.5,25.5,3.5,9.2,12.5,9.7,21,6.8ZM372.8,99.7c1.6-.6,3.3-.4,3.7.8,2,5.4-7.8,19.4-20.6,23.8-1.1.4-2.1.7-3.4,1,3.7-8.9,14.1-23.5,20.3-25.6Z"/>
  <path class="st1" d="M223,343.3c.3.2.6.3.8.3,0,0,.2,0,.3,0,1-.3,1.8-2.1,1.6-3.3-.2-1.1-.9-2.1-1.3-2.5h0c-.2-.3-.4-.5-.8-.4-.6.2-.6.6-.7,1,0,.2,0,.3,0,.5,0,.2-.2.5-.3.8-.3.7-.6,1.5-.5,2.2,0,.5.5,1.1,1,1.4Z"/>
  <path class="st1" d="M275,352.4c1.2-3.8,7.4-16.5,10.2-17.2,0,0,.1,0,.2,0,0,0,0,.1,0,.1,0,.3,0,.5-.2.8-.2.4-.3.8-.3,1.3,0,.4.6,2.2,1.3,2.7.2.1.4.1.5.1.9-.3,1.6-3.5,1.5-4.8-.1-1.1-.5-1.9-1-2.3-.4-.3-1-.4-1.6-.2-3,.8-6.4,6.9-8.7,10.9,0,0,0,0,0,0,.7-1.9,1.2-3.2,2.1-5.5,0-.3.2-.8.2-1.3,0-.6-.5-1.4-1.1-1.9-.3-.2-.7-.3-1-.2-.8.2-1.1.8-1.4,1.3v.2c-.9,1.4-1.5,3-1.3,4.6,0,.2,0,.4.1.5,0,.1,0,.3,0,.4.1.7,0,1.1-.3,2-.2.5-.6,1.9-1,3.5-2.1,2.7-5.4,5.8-7,6.3-.2,0-.5.1-.8,0-.1,0-.2-.2-.3-.5-.4-1.6.4-4.7.7-5,1.3-.3,1.5-3.3,1.3-4.3,0-.5-.8-2.1-1.6-2.6-.2-.2-.5-.2-.7-.2-.5.1-.8.8-1.1,1.7h0c-.3,1-.7,2.1-1.9,4.7-1.9,4-5.5,8.9-7.1,9.4-.6.2-1-.5-1.1-1-.3-1.1,1-5.7,3.7-9.5,2.5-3.5,4.4-5.3,6.2-5.8,2.2-.6,2.9.5,3.5,1.4.4.6.7,1.1,1.3.9.7-.2,1-1.2.9-1.6-.1-.7-.6-1.4-1.4-1.9-1.4-.9-3.3-1.1-5.2-.6-2.8.8-6,3-8.4,6.1-1.4,1.8-2.6,4.2-3.1,6.7h0c-.2,1-.3,1.9-.3,2.7-1,1.6-6.5,7.7-7.9,8.8.4-4.2,1-8.6,1.3-9.2,1-.4,1.2-3,.9-4.1-.2-1-.6-1.8-1.2-2.4-.2-.2-.5-.5-1-.4-.5.1-.6.9-.7,1.3h0c-.1.6-.6,2.2-1.9,5-1.6,3.4-5.3,8.9-7.3,9.5,0,0,0,0,0,0-.2,0-.5-.3-.6-.7-.5-1.6.3-4.8,2.1-8.1,2.1-3.9,4.9-6.9,6.9-7.5,1.6-.4,2.5-.1,3.2,1.1.4.6.9,1.5,1.7,1.3.5-.1.9-1,.8-1.6-.1-.7-.7-1.4-1.5-1.9-.8-.5-2.5-1.2-5-.5-5.5,1.5-10.2,8.3-11,13.5-1.5,2.9-5.2,7-7.4,7.7-.2,0-.5-.2-.6-.5-.7-2,.1-5.4.8-8.1.5-1.9.8-3.4.7-4.2,0-.3-.3-.9-.5-1.3-1-1.5-1.5-2-2-1.9-.4.1-.6.6-.8,1.1h0c-.4,1.2-.7,2.1-.8,2.9h0c0,.2,0,.3-.1.3-.2.4-.3.8-.4,1.3,0,.5-.2.9-.4,1.4-1.4,3-7.4,8.8-9.2,10.6-2.6,2.5-6,4.5-9,5.4-5,1.4-8.9.8-11.6-6.7-2.7-7.6.2-15.9,3.1-21.5,5.7-11,16.1-20.8,21.5-22.2.9-.2,2.1-.4,3,.3.7.5,1.2,1.5,1.3,2.9.2,3.2-1.3,7.5-2.5,9.5,0,0-.4.8-1.9,1.2-1.6.4-5.8,4.8-5.6,6.2,0,.3.2.6.5.8.8.5,2.4.6,2.8.4,2.7-.7,6-5.9,7-8.9,0-.1,0-.3.2-.5.6-1.7,1.9-5.8,1.6-9.4-.1-2-.8-3.4-2-4.3-1.3-.9-3.2-1.1-5.5-.5-8.3,2.2-19.2,12.3-24.8,23-3,5.8-6,14.5-2.9,23.1,2.9,8,8.6,11.4,15.8,9.3,3.5-1,7.3-3.3,10.3-6.2,3.5-3.4,7.3-8.5,9-11.3,0,.2,0,.5-.1.7-.3,2.1-.8,4.7-.1,6.6.5,1.4,1.8,2.2,3.2,1.8,2.7-.8,5.5-3.8,7.5-6.7,0,.4.1.8.2,1.2.5,1.5,1.8,2.7,3.3,2.3,3.4-1,6.7-6.9,7.7-9,0,.8,0,1.7,0,2.7,0,2.5,0,5.2-.8,6.6-.6,1-1.6,2-2.4,2.7l.3.4c1.1-.8,1.7-1.1,1.9-1.2-.2,1.5-.9,8.2-1.5,12.6-1,7.7-4.3,16.3-8.1,17.4-2,.6-4.2-.6-5.2-2.7-1.4-2.9-1.5-9,.4-12.7,2.2-4.3,7.8-9.4,9.4-10.8l-.3-.4c-.4.3-.8.6-1.2.9-3.5,2.6-7.5,5.5-9.5,9.4-2.5,4.8-2.8,10.5-.8,14.6,1.5,3.1,4.6,5.2,7.4,5.2.5,0,1.1,0,1.6-.2,5.5-1.6,8.4-11.6,9.4-20.4.2-1.8.3-4,.3-6,.1-3.7.2-7.1,1-8.6.7-1.2,2.3-2.6,4.1-4.2,1.6-1.4,3.2-2.9,4.4-4.3.6,1.6,2,2.4,3.5,2,3.1-.9,6.3-6.1,8.1-9.5-.5,2.3-.5,3.4-.2,4.6.2.6.6,1.2,1.2,1.5.6.4,1.4.4,2.1.3,2.6-.7,5.4-3.4,6.9-5.1,0,.3,0,.5,0,.6,0,.3.4,1.4,1.1,1.8.3.2.5.2.8.1.4,0,.6-.3.7-.8Z"/>
  <path class="st1" d="M327.5,335.4c4-6,8.7-15,7.9-23.4,0-.6-.2-1.4-.4-2.1-.1-.5-.3-1.1-.3-1.3.4-.2,2.9-.2,4.3-.2.3,0,.4.1.5.2.2.1.4.3.8.3.4,0,1,0,1.3,0,.5-.1.5-.8.5-1-.2-1.2-2.8-1.1-6-.8-.8,0-1.6.2-1.8,0-2-1.2-8.9-6.8-9.5-10.4-.8-4.7,7.3-11.2,10-12,1.2-.4,2-.4,2.5-.1.3.2.5.6.6,1.2.3,1.5-.4,4.3-1.3,5.3-.2.3-.7.5-1.3.7-1.8.5-4.1,3.7-3.8,5.3,0,.2.2.4.5.6.5.3,1.5.5,2,.3,3.1-.9,6.3-8.7,5.6-12.5-.2-1.2-.7-2-1.4-2.5-.9-.6-2-.6-3.8,0-4.5,1.2-14.8,9.1-13.7,15.4.4,2.3,4,4.9,6.8,6.9,1.3,1,3,2.2,3,2.5-.2.2-1.5.7-3,1.3-3.8,1.5-10.3,4.1-14.5,7.5-9.2,7.5-14.2,17.2-12.4,24.2.8,2.9,2.2,5,4.2,6.2,1.1.7,2.5,1,3.9,1,1,0,2.1-.1,3.2-.4,5.5-1.5,11.5-6.3,15.5-12.4ZM305.3,344.6c-1.3-.7-2.2-2.1-2.7-4.2-1.6-6.6,2.9-15.6,11.2-22.4,5.3-4.3,14-8.8,16.7-8.7.2,0,.4,0,.5.1.2.2.5,1.7.7,3.6.5,5.6-1.9,12.5-7.3,20.3-3.9,5.7-9.3,10.1-14.3,11.5-2,.6-3.6.5-4.9-.3Z"/>
  <path class="st1" d="M339,318.6c-.7,1.9-2.5,6.5-2.4,7.3,0,.7.4,1.4.8,1.7.2.2.4.2.6.1.5-.1.8-.9.9-1.1,1.1-3,8.8-14.3,11.6-15,.1,0,.3,0,.3,0,.1,0,.2.3.2.5,0,.6-.5,1.8-1.1,3.3-1,2.3-2.3,5.1-2.1,7.4,0,.6.3,1.1.8,1.4.5.4,1.2.4,2,.2,3.3-.9,6.6-4.1,8.5-6.2,0,0,0,0,0,0,.1,1.3.6,2.4,1.4,3,.5.4,1.2.5,1.9.3,1.4-.4,3-2.3,4.4-3.8.8-.9,1.5-1.7,1.9-1.9.2,0,.7,0,1.2,0,.7,0,1.6,0,2.2,0,.9-.3,1.9-.8,2.9-1.6-.2.6-.4,1.2-.6,1.7l-.2.5c-1.9,5.5-4,12.5-6.4,22.1v.6c-.1,0,.3-.3.3-.3.5-.4,1.1-.7,1.6-1.1.3-.2.6-.4.9-.6h0s0-.1,0-.1c2-8.2,4.4-16,6.2-20.4.4-.9,1-1.9,1.8-3.1l.3-.5c2.2-3.5,8.7-12.4,10.5-12.9.1,0,.2,0,.2,0,.1,0,.2.3.3.6.2,1.2-.5,4.7-1.5,5.5-.9.7-2,1.6-3.2,2.5l-.8.6.3.4c1.1-.8,2.1-1.5,2.8-1.9-1.7,2.4-5.1,6.8-6.3,7.1-.4.1-.8.1-1,0,0,0-.1-.1-.1-.3,0-.8,1.2-2.3,3.5-4.1l-.3-.3c-3.4,2.6-4.6,3.9-4.6,4.7,0,.6.3,1.1.7,1.3.7.5,1.9.3,2.6.1,2.6-.7,4.8-3.8,6.6-6.3,1-1.4,1.9-2.6,2.6-3.1.2-.2,1.2,0,3.1.6.3.1.4.3.5.5.1.2.3.5.6.7.8.5,1.1.5,1.3.4.3,0,.5-.5.5-.9-.1-1.3-2.4-1.9-4.9-2.4-.2,0-.4,0-.5-.1,0,0,0-.1,0-.2.3-1,1-3.7.8-4.9-.1-.9-.6-1.7-1.2-2.2-.5-.3-1-.4-1.5-.2-2.1.6-5.1,4.8-7.7,8.5-1.4,2-2.8,4-3.7,4.9.7-1.6,1.9-5.1,2.6-7.2,0-.2.2-.7.1-1.2,0-.6-.8-1.8-1.4-2.2-.2-.1-.4-.2-.6-.1-.5.1-.9.6-1.2,1.3-.2.4-.3.7-.4,1-.4.9-.7,1.6-.6,2.4,0,.3,0,.5.1.6,0,.1,0,.2,0,.3,0,.6-.2,1.4-.4,2.1,0,.3-.5,1.4-1,3-1.2,1.5-2.5,2.4-4,2.8-.8.2-1.9.2-2.3.2,0-.2.2-.5.4-.8,1.1-2,3.2-6.3,2.9-9.2-.2-1.3-.6-2.2-1.4-2.7-.6-.4-1.4-.5-2.2-.3-1.4.4-2.7,2.3-3.7,3.8-.2.3-.4.5-.5.8-.2.3-.6.7-1,1.1-.7.8-1.7,1.8-2.4,2.9-1.2,1.9-2.1,4-2.3,5.9-2.1,2.7-5.9,6-8.3,6.7-.2,0-.4,0-.5,0-.1,0-.2-.3-.2-.5,0-1,.8-2.8,1.7-4.7,1.3-2.6,2.7-5.5,2.5-7.9,0-.5-.3-1-.7-1.2-.4-.3-1-.4-1.5-.2-2.3.6-5.7,4.2-10.9,11.3.2-.5.4-1.2.7-2,1.9-5,5.7-15.3,7.7-22.5.5-1.8,1.2-4.1,1.6-5.6.2-.6.3-1.1.4-1.3,0-.2.1-.8,0-1.2-.1-.5-.8-1.7-1.4-2.1-.2-.1-.4-.2-.6-.1-.5.1-.8.5-1.2,1.2-.3.6-1.2,2.6-.9,4.2.3,1.4.3,1.9,0,3.5-.3,1-7.7,22.6-8.5,24.8ZM365.5,309.5c.3-1.2,3-3.2,4.3-3.5.4-.1.6-.4.6-.8,0-.2-.2-.4-.4-.5-.3-.1-.6-.2-1-.2-.5,0-.9,0-1.3.2-.2,0-.5.2-.8.3.6-.6,1.3-1.4,1.8-1.5.3,0,.7,0,1,.2.3.2.8.7.9,1.8.3,2.2-1.7,8.3-2.4,8.7-.5-.3-3.1-3.4-2.7-4.7ZM364.6,310.7c1.1,1.7,2.7,4.2,2.9,4.7-.2.5-3.4,4.1-4.6,4.4-.4,0-.6,0-.8,0-.2-.2-.4-.6-.5-1.2-.1-1.3,2.3-6.7,3-7.9Z"/>
  <path class="st1" d="M297.1,376.4c-.1,0-.2.1-.3.3-.1.3-.4.5-.8.7-.5.2-1.4.2-2.2.3-1,0-2.2.1-3.1.4-1.4.5-2.1,1.4-2.2,2.9,0,.2,0,.5,0,.6,0,0,0,.2.2.2.1,0,.3,0,.4,0,.1,0,.3-.2.3-.4,0-.5.5-.9.9-1,.5-.2,1.8-.4,2.4-.4-.8,1.5-6.1,9.5-10.4,10.9-1.5.5-2.7.5-3.6,0-.6-.3-1-.9-1.1-1.8-.6-3.3,4.7-8.5,7-9.6,1.1-.5,2.3-1.2,2.7-2.3.3-.8.2-1.6.1-1.9,0,0,0-.1-.2-.2-.2-.1-.7,0-1.2.2-.5.2-1,.4-1.4.5-.4.2-.8.3-1.2.5-2.7.9-4.8,1.6-6,1-.4-.2-.7-.5-.8-1.1-.9-2.7,4-7.4,7.3-8.5.2,0,.5-.2.8-.2.5-.1.8,0,1,0,.3,0,.6.2,1.2,0,.6-.2,2.1-.9,2.5-1.8.1-.2.1-.5,0-.7-.1-.3-.4-.7-.9-1-.8-.5-2,0-2.2,0-7.4,2.6-12.6,8.4-11.2,12.7.3.9.8,1.5,1.5,1.9,1.5.7,3.5.2,5-.3.7-.2,1.1-.4,1.5-.5-2.3,1.6-9.4,7.2-8.4,12.5.2,1.2.8,2.1,1.6,2.6.6.3,1.2.5,2,.5.9,0,1.9-.2,3.1-.5,4.1-1.4,7.5-6.1,10-9.5,1.1-1.5,2-2.8,2.7-3.3,0,0,.4,0,.6,0,.4,0,.9,0,1.3-.2,1.6-.6,1.8-2,1.9-2.5,0-.1,0-.4,0-.5,0-.2-.4-.3-.6-.3Z"/>
  <path class="st1" d="M340.9,386c-.2-.1-.5-.1-.7,0-.4.1-.7.6-.9,1-.2.3-.2.7-.3,1.2,0,.4-.1.8-.3,1.1-1.3,2-2.8,3.1-4.7,3.8-1.9.6-4.1,0-7.8-1.1-.7-.2-1.5-.4-2.3-.6-2.4-.7-4.3-1.1-5.6-1.4-1.3-.3-2.4-.5-2.5-.7,0-.2.2-1.8.6-3.6.5-2.7,1.3-6.9,1.9-11.8,1.5-12.9,1.1-17.6,1-19.1,0-.1,0-.3,0-.5,0-.4,0-.9-.2-1.3-.3-.7-1.5-.7-2.5-.3-.7.2-1.3.9-1.7,1.8-.5,1.2-.7,2.8-.3,3.6.2.4.4.7.5,1.1.2.3.4.6.5,1,.7,1.8,1.3,4.6.3,13.3-1.4,11.7-2.6,12.9-3.7,13.9-1.1,1-1.2,4.2-.9,5.2.2.6.7,1.3,1.3,1.6.4.2.8.3,1.1.1.5-.2.7-.7.9-1.1.2-.4.4-.8.7-.9,1-.3,3,.3,5.7,1.2.5.2,1.1.4,1.6.5,2.8.9,5,1.4,7,1.4,1.4,0,2.7-.2,3.9-.6,2.4-.8,4.5-2.4,6.6-4.9.8-1,1.6-2,1.3-2.9-.2-.5-.4-.9-.8-1Z"/>
  <path class="st1" d="M404.3,349.9h0c-.3,0-.5.4-.7,1-.1.3,0,.6,0,.9,0,.2,0,.5,0,.7-1.1,3.1-4.6,6.7-7.5,7.7-.9.3-2.1.4-2.7-.8-.5-1.1-.7-2.7-.6-3,0,0,.2,0,.3,0,.2,0,.4,0,.6-.1,1.9-.7,3.6-2.5,4.4-4.5.5-1.3.5-2.4,0-3.3-.6-1-1.7-1.4-3.1-.9-1.9.7-3.5,2.5-4.3,5-.5,1.5-.6,3.1-.4,4.7h0c-.1.4,0,.8,0,1.2,0,.3.2.6,0,.8-.6,1.2-4.3,6.2-5.4,7.2-.1-3.2-.1-6.5,0-7.1.1,0,.3-.2.4-.4.3-.7,0-2.2-.3-2.8-.4-.7-.9-1.4-1.5-1.8-.2-.1-.5-.4-.9-.2-.5.2-.3.8-.3,1.1h0c0,.2,0,1.4-.6,3.8-.7,2.5-3.2,7.1-4.8,7.7,0,0,0,0,0,0-.1,0-.4-.2-.5-.5-.7-1.5-.2-4.6,1.1-7.6,1.1-2.5,2.5-4.3,3.7-4.7,1.2-.4,2-.2,2.9.7.5.5,1.1,1.1,1.6.9.2,0,.3-.2.4-.4.1-.3.1-.7,0-.9-.6-1-3.1-2.5-5.9-1.5-4,1.4-6.6,6.8-6.6,11-1,2.4-3.5,5.6-5.4,6.3-.3.1-.7,0-.8-.2-.4-.9-.1-2.5.1-4.2.3-2.1.7-4.5,0-6.3-.6-1.2-1.5-1.6-2.6-1.2-1.6.6-3.7,3.8-6.6,10,.2-1.6.4-3.9.4-4.3,0-.2,0-.7-.2-1-.2-.5-1.4-1.7-2.1-1.7,0,0-.1,0-.2,0-.4.2-.6.6-.6,1,0,.3,0,.5-.1.8-.2.9-.3,1.6,0,2.3,0,.1.1.2.2.3,0,.1.1.2.2.4.2.4.2,1,0,1.9,0,.4-.2,1.5-.2,2.7-1.1,2.1-3.4,4.7-4.9,5.2-.2,0-.8.2-1-.2-.4-1.2-.1-3.6,0-4.7.1-.8.2-1.1.3-1.2.2,0,.4-.3.5-.6.4-.9.3-2.9,0-3.6-.1-.3-1.1-1.7-1.9-1.7,0,0-.1,0-.2,0-.7.2-.7,1-.7,2,0,3.4-4.5,11.9-6.2,12.5-.2,0-.3,0-.4-.2-.1-.4,0-1.3,0-2.4,0-.3,0-.8.2-1.3.3-2.9.6-5.5.4-6.1,0-.2-.2-.3-.3-.5l-.2-.2c-.8-.7-1.3-1.1-1.7-1-.4.1-.8.6-.9,1.2-.3,1.2-.5,2.5,0,3.6l.2.5c.4.9.1,2.2-.1,3.5,0,.2,0,.5-.1.7-.7,1.2-1.6,2.1-2.8,2.5-.6.2-1.6.3-2,.3,0-.2.1-.6.2-.9.5-1.9,1.3-5.3.4-7.6-.9-2.3-2.6-2.7-3.8-2.3-1.2.4-1.9,2.1-2.5,3.4-.1.2-.2.5-.3.7-.1.2-.3.6-.6.9-.5.7-1.1,1.6-1.5,2.7-.9,2.4-1.1,4.9-.4,6.9.6,1.7,1.9,3.1,3.6,2.6,1.2-.4,2.4-2.3,3.3-3.7.4-.7.8-1.4,1-1.5.1,0,.6,0,1,0,.7,0,1.4,0,1.9-.2.8-.3,1.5-.7,2.2-1.4,0,.5.1,1,.3,1.4.4,1.2,1.1,1.5,2.1,1.1,2.1-.7,5.6-6.2,6.9-9.2,0,.7,0,1.4,0,2,0,1.1-.1,2.2.2,3,.4,1,1.3,1.4,2.4,1,1.8-.6,3.7-2.3,5.3-4.6,0,.6,0,.8,0,.9.4.9,1.2,1.5,1.8,1.2.2,0,.5-.4.5-.7,0-3.8,4.2-12.7,6.5-13.5,0,0,.3,0,.4.4.3.5.1,1.7,0,3-.2,1.9-.4,4.3.4,6.1.4,1.1,1.5,1.5,2.7,1.2,2-.7,4.1-2.8,5.8-5.6,0,.3.2.6.3.8.5,1.1,1.7,2.1,2.9,1.7,2.7-.9,4.7-5.6,5.4-7.3,0,.5.1,1,.2,1.6.3,2,.6,4.4,0,5.6-.3.6-.9,1.3-1.7,2.2l.3.4c.7-.6,1.1-.9,1.3-1,0,1.3-.5,6.5-1.3,10.1-1.5,6.8-6.8,13.9-10.1,15-.9.3-1.7.2-2.4-.2-.6-.4-1-1-1.1-1.8-.4-2.3.8-7.4,2.8-10.7,1.5-2.4,4.4-5.8,7.8-8.9l-.3-.4-.9.7c-2.7,2.2-5.8,4.7-7.8,7.8-2.6,4.3-4,9-3.5,12.2.2,1.6,1,2.8,2.2,3.5.7.4,1.4.6,2.2.6.6,0,1.1,0,1.7-.3,4.8-1.6,10.3-9.6,12-17.6.4-2.1.5-4.5.5-6.7,0-2.2,0-4.2.5-5.1.4-.9,1.6-2.1,2.8-3.4,1.5-1.5,3-3.1,3.7-4.6,1.2,1.6,3,2,5,1.4,3.2-1.1,6.5-5,7.9-8.2.4-.9,1-2.4.6-3.2-.1-.2-.4-.6-.8-.5ZM396.1,349.1c0,0,.2,0,.3,0,.2,0,.3,0,.4.2.3.5.3,1.3,0,2.2-.4,1.2-1.6,2.9-3.3,3.5h0c0,0-.2.1-.3.1.3-1.2,2.1-5.6,3.2-6ZM330.8,369.6c.5-.2,1.3,0,1.9,1.2,0-.2-.2-.3-.4-.3-.2,0-.5,0-.7,0-.5,0-1,.1-1.4.2-.2,0-.4.2-.6.3.4-.6.8-1.1,1.1-1.3ZM329.2,383.5c-.5.2-1,.2-1.4-1-.4-1.1.5-5.5.9-6.7,1.7,1.6,3.4,3.4,3.5,3.7,0,.5-2.1,3.6-3,3.9ZM332.8,378.5c-.6-.3-3.5-2.7-3.4-3.7,0-.9,1.9-2.7,3-3.1.2,0,.3-.2.4-.3,0,0,0-.3,0-.5,0,.1.1.2.2.4.7,1.7.3,6.7,0,7.3Z"/>
  <path class="st4" d="M542.8,225.7c-2.9,3-1.6,4.2-1.5,11.7.2,8-1.9,12.9-4.9,15.7-3,2.8-8.5,9.8-13.8,18.8-5.3,9.1-11.5,13.1-11.6,22.9h0c0,.7,0,1.3,0,2,.2,10.8,1,21.1,1.5,27.2.2,2.4.3,4.1.3,5.1.1,3-1.2,6.1-3,8.9.8,2.4,2.8,9.4,2.9,12.6,0,0,3.9,9.9,19.6,17-.9-4-1.8-9-2-12.9-.1-3.6-1.1-7.9-2-12.2-1.1-5-2.1-9.7-1.6-12.5h0c4.2-21.8,19.7-71.9,22.3-77.6,2.4-5.3,4.9-15.2,3.5-19-1-3-4-5.4-9.4-7.6,0,0-.2,0-.3-.1ZM515.2,334.3c1-.3,2.7,3.5,3.8,9.1-4.5-5.1-4.8-8.8-3.8-9.1Z"/>
  <path class="st4" d="M481.2,189.5c-1.8-8.6-3.8-17.6-4.2-19.4-.4-1.8,1.3-5,4.5-10.4,2.2-3.7,4.7-8.1,6.4-12.3,0,0,0-.1-.1-.2-.2-.4-.4-.9-.6-1.3-3.8-.6-8.6-.8-13.6-.7-.4,1.8-1,3.5-1.7,5.2-.8,1.9-1.6,3.8-2.5,5.6-.9,1.7-1.8,3.4-2.8,5.1,5.8,9.5,11.5,21.2,14.3,27.9,0,.2.1.3.2.5ZM475.4,152.3c-.3-.9-.7-1.8-1-2.7.6.8,1.2,1.6,1.6,2.5.5.9.8,1.8,1.1,2.8.3,1,.5,1.9.6,2.9,0,1,0,2,0,3l-.6-2.8c-.2-.9-.5-1.9-.7-2.8-.3-.9-.6-1.8-.9-2.7Z"/>
  <path class="st4" d="M523.8,219.6c1.1,1.1,2.6,1.9,3.7,2.5,1,.5,1.6.9,1.8,1.3.3.7.3,1.3,0,1.7-.2.2-.4.4-.7.5,1.1.6,2.1,1.3,2.1,2.1,0,.6-.2,1.1-.6,1.5-.6.6-1.6.8-2.1.8-.4.5-1.5,1.2-4.2,1.1-2.7-.2-7.2-2.1-11.8-4.6,3.1,2.2,6.1,3.8,6.1,3.9l.3.2v.4c0,.1,0,.7-.5,1.2-.4.4-1.1.6-1.9.6-.5,0-1,0-1.7-.1-3.2-.5-9.7-4.4-13.3-6.5-.4-.2-.7-.4-1-.6-1-.6-2.8-1.2-4.9-2-1.5-.5-3.1-1.1-4.6-1.8-2.2-.6-6.5-1.6-7.4-2.1-1-.6-2.8-3.4-4.6-6.6-6.4,1-14.4,2.4-25.6,11.9-10.4,8.8-10.5,13.6-10.3,17.1,2.3.8,4.8,1.4,7.7,2.1,16.4,3.8,42.1.8,42.8.7.4-.4.9-.7,1.3-1,1-.7,2.1-1.4,3.1-2,1.1-.6,2.2-1.2,3.3-1.8,1.1-.6,2.2-1.1,3.4-1.5l-3.9,2.7c-.7.5-1.4,1-2.2,1.5-1,.7-2,1.5-2.9,2.2-.9.8-1.9,1.5-2.7,2.4-9.2,10.2-12.8,15.2-17.8,32.3-5.6,19.4-12.6,33.1-18.7,36.7-.6.4-1.2.7-1.8,1,.3,1.1.5,2.6.6,4.3,4.3.7,7.6,1.7,9.4,1.4-3.6,2.3-6.2,3.4-9.3,2.1,0,5.4-.5,11.6-.9,14.4-.6,4.6-2.5,17,5,22.3l1-1.5c.2-1,.5-2,.8-2.9,1.2-3.2,2.7-8,4.3-13.2,2.5-8.4,5.2-17,7.3-20.5,3.9-6.3,22.5-33.5,38.3-48.9,17.3-16.9,25.7-27.7,26.9-30.5,1.5-3.3.9-18.4-2.5-22.9-1.2-1.6-7.9-3.9-16.2-6.2.5.4,1,.9,1.5,1.3,1.4,1.2,2.6,2.2,3.4,3ZM500.4,261.6c-1.3,1.9-2.6,3.7-4.1,5.5-1.4,1.8-3,3.4-4.6,5-1.6,1.6-3.4,3.1-5.2,4.4,1.3-1.9,2.8-3.6,4.2-5.4,1.4-1.8,2.8-3.5,4.3-5.2,1.4-1.7,2.9-3.5,4.3-5.2,1.5-1.7,2.9-3.4,4.5-5.1-1,2.1-2.2,4-3.4,5.9ZM517.8,249.7s.3-7.8,0-9.7c-.3-1.9,2.5-5.7,3.7-5.2.9.3-3.7,14.9-3.7,14.9Z"/>
  <path class="st4" d="M470.4,149.7c.7-1.5,1.4-2.9,2-4.5-5.6.1-11.4.5-16.4,1h0c.2.7.5,1.1.7,1.6,2.6,2.3,5.8,6.6,9,11.7.6-1.5,1.3-3,2-4.4.9-1.8,1.8-3.6,2.7-5.4Z"/>
  <path class="st4" d="M444.3,173.1c-1.6-5.7-6.7-9.4-15-12.3,0,0,0,.1,0,.2-1.1,1.6-2.4,2.8-3.8,4.2-.6.5-1.1,1.1-1.7,1.7,5.9,1.3,13.5,3.7,20.7,6.3Z"/>
  <path class="st4" d="M467.3,40.5c0,.4-.1.8-.1,1.2,0,.8-.1,1.7-.5,2.6-.2.4-.4.8-.8,1.1-.3.3-.2.2,0,.8,0,.4,0,.7,0,1.1.8-1.1,1.3-2.5,1.6-4,.2-1.1.3-2.2.3-3.4-.1,0-.2-.1-.3-.2,0,.2-.2.4-.2.7Z"/>
  <path class="st4" d="M462.8,46.5l1.3,2.8c.6-.4,1.1-.9,1.5-1.5,0-.5,0-1-.2-1.4,0,0,0-.2-.1-.2,0,0-.1-.3-.1-.4,0-.2,0-.3,0-.5,0,0,.1-.2.2-.2h0c.3-.4.4-.7.6-1.1.2-.7.3-1.6.3-2.4,0-.8,0-1.6.4-2.4-.3-.2-.6-.5-.8-.8-.2-.2-.5-.5-.7-.7-.4-.6-.8-1.2-1.2-1.8-.2-.5-.4-1.1-.4-1.6,0,0-.2.2-.3.2-.2.1-.3.3-.5.5-.1.2-.2.4-.4.6,0,.2-.2.4-.2.6-.2.6-.2,1.2-.1,1.8.4,0,.8-.1,1.2,0,.2,0,.4.2.6.3.3.2.6.5.8.8.3.5.5.9.7,1.4.1.5.2,1,.2,1.5,0,1.1-.6,2-1.1,2.7-.5.7-1.1,1.4-1.8,1.8Z"/>
  <path class="st4" d="M471,88.9c.5-.2.9-.3,1.4-.4.5-.1.9-.3,1.3-.4.9-.3,1.7-.6,2.6-1,1.7-.7,3.4-1.5,5.1-2.2,1.1-.5,2.3-1,3.4-1.4.3-2.3.4-4.1.5-5.3-2-.1-4.7-.5-7.8-1.6-1.6-.6-3.4-1.4-5.3-2.3v.2c.2.6.4,1.1.6,1.7l.5,1.7c.2.6.4,1.1.5,1.7-.4-.5-.7-1-1-1.5-.3-.5-.6-1-.9-1.6-.5-1-1-2-1.4-3h0s0-.3,0-.3c0,0,0,0,0,0,0,0,0,0,0,0-.2-.6-2.6-7.2-4.7-13.6,0,1.4.2,2.7.2,4.1,0,1.8.2,3.6.2,5.5,0,1.8,0,3.6,0,5.5-.3-1.8-.6-3.6-.8-5.4-.3-1.8-.5-3.6-.7-5.4-.4-3.6-.8-7.2-.9-10.8-.2-.9-.4-1.7-.6-2.4v-.5c-.1,0,0,0,0,0l-1-5,.7,1.4c.4-.8.9-1.4,1.3-2.1.4-.8.7-1.6.7-2.4,0-.6-.2-1.3-.6-1.9-.4.2-.9.4-1.2.6.1.3.2.7.4,1-.7-.8-1.2-1.6-1.6-2.6-.1-.4-.2-.8-.3-1.2-.1-.7-.1-1.3,0-2,0-.3.2-.5.3-.8.2-.2.3-.5.5-.7.2-.2.4-.4.6-.6.2-.2.4-.3.7-.4.6-.3,1.3-.5,2-.6,0,0,0,0,0,0-.4-.5-.9-.9-1.4-1-.1,0-.2,0-.4,0-.1,0-.3,0-.5,0h-.5c-.1.2-.3.3-.4.3-.6.3-1,.8-1.3,1.4-.3.6-.5,1.3-.6,2,0,.7,0,1.5,0,2.3-.5-.6-.7-1.3-.9-2-.5,0-1.5.2-2.7.2.3.3.5.6.8,1,.3.4.5.9.7,1.3.2.5.3.9.3,1.4-.2-.4-.5-.8-.8-1.2-.3-.4-.6-.7-.9-1.1-.3-.3-.6-.7-.9-1-.2-.2-.4-.4-.6-.6-2-.1-4.6-.5-7.5-1.4-.2,0-.5-.1-.7-.2-.7.2-1.6.5-2.3.9-1.4.7-5.9,5.5-6.8,5.7-.2,0-1.3-.6,0-2.5,1-1.5,5.3-3.8,7.1-4.7-3.9-1.4-7.6-3.3-10.8-6.6.2.4.5.9.8,1.3.4.6.8,1.1,1.2,1.6-.7-.3-1.2-.7-1.7-1.2-.5-.5-.9-1-1.4-1.6-.4-.6-.8-1.2-1.1-1.8-.2-.5-.4-1-.5-1.5-1.9-.5-3.9,0-5.2.4,0,0,0,0,0,0,.2,0,.4,0,.6,0,1.2,0,2.3.4,3.2,1.1-2-.3-3.8,0-5.4.7-1.9,2.6-2.9,6.2-3,9.7,0,2.2.2,4.4.5,6.3,2.2-.3,4.7-.8,8,.4,2.4.8,2.6,1.6,2,1.7-.6.2-6.8-.9-9.7-.8.7,3.2,1.6,5.5,1.8,5.9h0c0,0,0,.2,0,.2,0,0,0,0,0,0,0-.5,0-1,0-1.6,0-.6.3-1.3.6-1.8.4-.5.8-.9,1.3-1.2.5-.3,1.1-.5,1.6-.7-.5.3-1,.6-1.4.9-.4.4-.8.8-1,1.3-.1.3-.2.7-.2,1,.1-.5.3-1.1.8-1.6.1-.1.2-.3.4-.4,0,0,.1-.1.2-.2h.2c.3-.3.7-.3.9-.4.6,0,1.2,0,1.8,0,.6.1,1.1.3,1.6.6,1,.6,1.8,1.3,2.5,2.1,0,0-.1,0-.2-.1,0,0-.5.4-1.1.7h0s0,0,0,0c-.3.2-.5.3-.8.5h0s0,0,0,0c-.3.2-.6.4-.9.5-.1,0-.3.1-.4.2,0,0,0,0,0,0-.8.4-1.6.7-2.5.9-.5,0-.9,0-1.4,0-.4,0-.8-.3-1.1-.6,0,0-.1,0-.2,0-.2,0-.3,0-.4,0,.3,1.8.8,3.5,1.5,5.1.5,1.2,1.2,2.3,2,3.2,3.2,3.9,9.3,9.9,14,13.3h0c1.2.8,2.4,1.7,3.6,2.3.6.3,1.1.4,1.7.2.2,0,.3,0,.5-.1,0,0,.2,0,.2,0h.2c.1-.1.3-.2.4-.3.1,0,.3-.2.4-.3,1.1-.8,2.2-1.8,3.3-2.8,1-1,2-2.1,3-3.2,1.9-2.2,3.7-4.6,5.1-7.1.7-1.3,1.3-2.6,1.7-4,.2-.7.4-1.4.5-2.1,0-.7,0-1.5,0-2.2.3.7.3,1.5.3,2.2,0,.8,0,1.5-.2,2.3-.3,1.5-.8,2.9-1.4,4.3-1.1,2.3-2.5,4.5-4,6.5-.5,2.7-1.8,6.5-3.6,9.8,0,.4.2.8.3,1.1.2.7.6,1.3,1,1.9.4.6.9,1.3,1.4,1.9.5.6,1,1.3,1.3,2.1-.5-.6-1.2-1-1.8-1.5-.7-.4-1.3-.9-2-1.4-.6-.5-1.2-1-1.7-1.6-.9,1.4-1.9,2.6-3,3.5,1.2.9,1.4,1.9,1.3,2.8l7.4,3.4c.6-.2,1.3-.3,2-.2.4,0,.8.2,1.2.3.4.2.8.4,1,.7.6.6.9,1.3,1.1,1.9.2.7.3,1.4.3,2.1-.6-.5-1-1-1.4-1.5-.4-.5-.8-.9-1.2-1.2-.4-.3-.8-.4-1.3-.5-.5-.1-1.1-.1-1.8-.3h0c-.1,0-.2,0-.3,0l-15.4-7.2c.9,1.3,1.8,2.7,2.8,4.2,3.8,5.8,8.2,12.3,12.1,18.5,6.6,10.7,11.4,20.6,12.7,23.4,0,0,0,0,.2,0h.2c.6-.3,1.2-.7,1.6-1.1,0-2.3-.2-4.5-.6-6.7-.1-.6-.2-1.1-.3-1.7-.1-.6-.2-1.1-.4-1.7-.3-1.1-.7-2.2-1.2-3.2-.3-.5-.5-1-.8-1.5-.3-.5-.6-1-.9-1.5-.2-.2-.3-.5-.5-.7-.2-.2-.3-.5-.5-.7l-.5-.7-.6-.7c-1.5-1.8-3.3-3.3-5.3-4.7,2.2,1,4.3,2.3,6.1,4l.7.6.6.7c.2.2.4.4.6.7.2.2.4.5.6.7.4.5.7,1,1.1,1.5.1.2.2.3.3.5,0-.8.3-1.5.5-2.2.4-1,.9-2,1.5-2.9.6-.9,1.4-1.7,2.3-2.3-.6.8-1.2,1.7-1.6,2.6-.5.9-.8,1.9-1.1,2.8-.3,1-.4,1.9-.5,2.9,0,.3,0,.6,0,.9.4.8.8,1.7,1.1,2.5.2.6.3,1.2.5,1.8.2.6.3,1.2.4,1.8.2,1.2.3,2.4.2,3.6,7.2-16.7,10.1-31.5,11.4-40.3-.9.4-1.9.7-2.8,1.1l-5.1,2.2c-.9.4-1.7.7-2.6,1-.9.3-1.7.7-2.5,1.1-.4.2-.8.4-1.2.5-.4.2-.7.4-1,.7-.6.5-1,1.4-1.2,2.3-.3-.9-.2-2,.4-2.9.6-.9,1.5-1.5,2.4-1.9ZM430.5,50.8c.5-.6,1.7-1.3,1.9-1,.1.3-1,1-1.9,1ZM439.6,52.8c.5-.5,1.9,1.2,1.9,1.2,0,0-.3.1-1,0-.6,0-1.3-.9-.9-1.3ZM443.9,55.8c0,0,0-.2,0-.3,0-.2.1-.5.2-.8l.2-.9c.3.2.4.5.5.9,0,.3,0,.7,0,1,0,.3-.3.7-.6.9-.3.2-.6.4-1,.3.2-.3.3-.5.4-.8,0,0,0-.2,0-.2-1.4-.2-1.9.8-1.9,1,0,.2-.4,1.1-1.4.7-1-.3,0-1.4.8-1.9.7-.4,1.7-.4,2.6,0ZM442.7,45.2c2-.1,3.5-.2,3.5.2,0,.4-1.5.7-3.5-.2ZM436.6,58c-.2-.1-.3-.3-.5-.6h0c0-.1,0-.2,0-.2,0-.7,0-1.5,0-2.2,0-.7,0-1.5-.1-2.2-.1-1.5-.4-3-.9-4.4.3.7.6,1.4.8,2.1.2.7.4,1.5.5,2.2.1.7.3,1.5.4,2.3,0,.7.1,1.4.1,2.1,0,0,0,0,.2.1.1,0,.3,0,.4.1.3,0,.6.2.8.4.6.3,1.2.6,1.8.9-.7.2-1.4.2-2.1,0-.3,0-.7-.1-1-.3-.2-.1-.3-.2-.5-.4ZM451.8,60c-.3.1-.6.2-.9.2,0,0,.2.8.1,1.6,0,.2-.1.5-.2.8-.2.8-.5,1.7-.8,2.5-.2.4-.4.9-.6,1.3-.2.4-.5.8-.9,1.2h0s0,0,0,0c-.4.3-.9.6-1.4.8-.5.2-1,.4-1.5.5-1,.2-2.1.2-3.1.1h0s0,0,0,0c-.9-.3-1.6-.9-2.1-1.5-.3-.3-.5-.7-.6-1.1-.2-.4-.3-.8-.3-1.2,0,0,0,0,0,0,0-.4,0-.9.2-1.2,0,0-.1,0-.2,0-.3,0-.7,0-1,0-.3,0-.7-.1-1-.4.4-.2.7-.3,1-.4,0-.4,0-.7,0-1.1,0-.2.1-.5.2-.8,0,0,0-.1.1-.2,0,0,.1-.1.2-.2,0,0,.2-.1.3-.1,0,0,.1,0,.2,0,.5-.1,1,0,1.5,0,.4,0,.8.1,1.2.2.1-.2.3-.5.5-.7.1-.2.3-.3.5-.5,0,0,.1,0,.2-.1,0,0,.2,0,.2,0,0,0,.2,0,.2,0h.2c.8,0,1.6,0,2.3,0,1.4.1,2.9.3,4.3.5.1,0,.2-.2.3-.2.3-.2.6-.4,1-.5.4,0,.8,0,1.1.3-.4.1-.6.2-.9.4ZM453,38.4c0,.2-.2.4-.4.5-.2.2-.5.2-.7.3,0,.3,0,.6,0,.9,0,.2-.2.4-.3.6-.1.2-.2.4-.4.6-.6.7-1.3,1.3-2.1,1.6-.8.4-1.6.7-2.4.8-.8.2-1.7.2-2.5,0-1,0-2,0-2,0,0-.6,0-1.2.1-1.9.1-.6.3-1.2.5-1.8.1-.3.3-.6.6-.9-.2,0-.4.2-.6.2l-.5.2c-.2,0-.2,0-.3.1,0,0-.2.2-.3.3,0,.1-.2.3-.3.4-.2.3-.4.5-.6.8-.4.5-.8,1-1.3,1.5.3-.6.6-1.2.9-1.8.2-.3.3-.6.5-.9,0-.1.2-.3.3-.4v-.2c.2,0,.2-.2.3-.3.2-.2.4-.3.6-.3l.5-.2c.3-.1.6-.2.9-.3.6-.2,1.2-.4,1.8-.5.2,0,.4-.1.7-.2,1.3-.3,2.7-.1,3.9.2.6.2,1.2.3,1.7.4.3,0,.6,0,.8,0,.1,0,.2,0,.3-.2,0-.1.2-.3.3-.4,0,.2,0,.3,0,.5ZM459.1,44.5c0,.9-.2,1.7-.4,2.6-.2.9-.4,1.7-.6,2.5-.2.8-.5,1.7-.9,2.5,0-.9,0-1.8.2-2.6.1-.9.3-1.7.4-2.6.4-1.7.8-3.4,1.3-5,0,.9,0,1.8,0,2.6Z"/>
  <path class="st4" d="M497.2,161.2l.6.8c6.8,8.7,13.3,17.2,14.1,19.7.3,1.1.7,2.9,1.2,5,.7,3,1.9,8.6,2.7,9.2.6.4,2.6.5,4.9.5,2.7.1,6.1.2,9.9.8,5.1.8,9.1,1.9,11.5,2.6.9.3,1.8.5,2,.5,0,0,.2-.2.3-.5,0-.3.1-.8-.4-1.4l-.3-.4c-.2-.2-.5-.5-.8-.7-.4-.3-.9-.6-1.4-.9-.9-.5-1.9-.9-2.8-1.2h0s0,0,0,0c0,0-.2,0-.3-.1-2.1-.7-4.4-1.3-6.6-1.2h-.3s-.1-.2-.1-.2c-.1-.2-.4-.3-.6-.5-.2-.2-.5-.3-.8-.5-.5-.3-1.1-.6-1.7-.8-1.1-.5-2.3-1-3.5-1.4,1.2.3,2.5.6,3.7.9.6.2,1.2.4,1.8.6.3.1.6.2.9.4.2.1.5.2.7.4,1.1,0,2.3,0,3.4.2.2,0,.3,0,.5,0-.2-.3-.5-.6-.7-.9-.6-.9-1.1-1.8-1.6-2.7.4.4.7.8,1.1,1.2.4.4.7.7,1.1,1.1.4.4.7.7,1.1,1l.8.8s0,0,0,0c-.2-.4-.3-.9-.4-1.4,0-.5-.2-1.1-.2-1.6,0-.5,0-1,.1-1.6.1.5.2,1,.4,1.5.1.5.3.9.5,1.4.2.4.4.9.7,1.2.3.4.6.7.9,1h0c.8.3,1.7.7,2.5,1.1.5.3,1.1.6,1.6.9.3.2.5.4.8.6,0,0,0,0,0,0,.1-.5,0-1.4-.7-3.7-1-3.3-2.4-6.1-2.4-6.2v-.2c0,0,0-.2,0-.2,0,0,0-.2-.2-.4-.2-.2-.5-.2-1-.2-.6,0-1.9.2-3.5.3-3.6.3-8.9.8-10.4,1h-.3s0,0,0,0c-.4,0-.7,0-1.1,0-.5,0-1-.2-1.5-.5-.4-.3-.8-.6-1.1-1-.3-.4-.6-.7-.9-1.1.5.2.9.4,1.3.6.4.2.8.4,1.1.4.3,0,.6,0,.9,0-2.9-4.1-8-15.7-9.9-21.3-1.7-4.9-7.2-18.7-11.9-27.8-4.1,2.5-12.1,13.9-5.8,24.2Z"/>
  <path class="st4" d="M505.2,207.8c-3.6-.2-13.4-1.6-13.8-1.6h-.2s-.1-.1-.1-.1c-.3-.2-6.6-5.1-11.4-16.4-4.8-11.4-16.9-34.8-24-40.8h-.1c0,0,0-.2,0-.2-.2-.5-.5-1-.7-1.6l-.5-1s0,0,0,0h0s0,0,0,0c0,0,0-.1,0-.2,0,0,0,0,0,0h0c0,0,0,0,0,0l-.5-1.2c0-.2-.2-.4-.3-.5,0-.1-.1-.3-.2-.4-3.8-8.2-9.7-21-12.1-26.1h0c0,0,0,0,0-.1v-.2c-.4-.6-.6-1.2-.9-1.7,0,0,0,0,0,0,0,0,0,0,0,0,0,0,0,0,0,0h0c-.1-.4-.3-.7-.4-1v-.2c0,0,0,0,0,0,0-.2-.2-.4-.3-.6v-.2c-.1,0-.2-.1-.2-.2h0c0,0,0-.2-.1-.2h0c0,0,0-.1,0-.1,0,0,0,0,0,0,0-.1-.1-.3-.2-.4h0c0,0,0-.1,0-.2,0,0,0,0,0,0h0c-.2-.2-.4-.3-.6-.5-.5-.3-1.2-.5-1.9-.8l-5.1-1.7c-5.7-1.6-12.4-2.8-15.4-2.1,2.4,5.2,5.8,12.4,9.1,19.4,3.5,7.4,6.8,14.5,8.7,18.5.4.8,1.1,1.5,1.9,2.1.8.6,1.7,1.1,2.6,1.6.9.4,1.9.8,2.8,1.3,1,.4,1.9.8,2.9,1.6.1,0,.2.2.4.4.1.1.2.3.3.4,0,.2.1.3.2.4,0,.1.1.3.1.4.2.6.2,1.1.3,1.6.2,1,.4,2,.7,2.9.6,1.9,1.8,3.6,3.2,5.1-.8-.6-1.6-1.3-2.3-2.1-.7-.8-1.2-1.7-1.7-2.7-.5-1-.8-2-1.1-3-.3-1-.6-2.1-1.1-2.3l-.3-.2-.3-.2c-.2-.1-.4-.2-.6-.3-.4-.2-.9-.4-1.4-.6-1-.4-1.9-.8-2.9-1.3-.2-.1-.4-.2-.7-.4.7.6,1.5,1.4,1.8,2.1.3.8.6,1.7.9,2.6,1.5,4.4,3.8,10.9,11.1,20.3,11.4,14.6,31.7,38.9,34.7,42.3,1.7,2,6.6,3.8,10.4,5.2,2.2.8,4.1,1.5,5.1,2.1.3.2.6.4,1,.6,3.2,1.9,9.8,5.8,12.8,6.3,1.4.2,2,0,2.3,0-2-1.2-8.2-4.9-11.3-8.5l-2.8-3.3,3.7,2.3c7.7,4.7,14.3,7.8,17.4,8,1.4,0,2.1,0,2.6-.2-1.8-1-3.6-2-5.4-3-1-.6-2-1.2-3.1-1.8l-3-1.9c-2-1.2-4-2.5-6-3.9-1.9-1.4-3.9-2.8-5.6-4.4,2,1.3,4,2.5,6,3.7l6.1,3.5,6.1,3.5,6,3.4c.4,0,1.1,0,1.4-.4,0,0,.2-.2.2-.5-.3-.6-3-1.8-3.8-2.1h0s0,0,0,0c0,0,0,0-.1,0h0c-1.7-.8-3.3-1.7-4.9-2.8-.8-.5-1.6-1.1-2.3-1.7-.4-.3-.7-.6-1.1-1-.2-.2-.3-.4-.5-.6l-.2-.3c0,0-.1-.2-.2-.2-.5-.6-1.3-1.2-2.1-1.7-.8-.5-1.6-.9-2.4-1.4-.8-.5-1.6-1-2.3-1.6-.4-.3-.7-.6-1-1-.3-.4-.6-.8-.7-1.3.2.4.5.8.9,1.1.4.3.7.5,1.1.8.8.5,1.6.9,2.5,1.3.9.4,1.7.9,2.5,1.4.8.5,1.6,1.1,2.3,1.8,0,0,.2.2.2.3l.2.3c.1.2.3.3.4.5.3.3.7.6,1,.9.7.6,1.5,1.1,2.3,1.6,1.5.9,3.1,1.7,4.7,2.4,1.9.2,2.3,0,2.3,0,0,0,0-.1-.1-.3-.2-.2-.8-.5-1.3-.8-1.2-.6-2.7-1.5-4-2.7-.8-.8-1.9-1.8-3.3-2.9-2.1-1.8-4.7-3.9-6.7-6.2-3.2-3.5-4.2-3.5-7.6-3.7ZM494.3,216.8c.6-.2,2.5,1.2,3.5,2.4-2.6,0-4.2-2.1-3.5-2.4ZM498.1,214c.4-.4,1.6.6,2.6,1.5-1.8,0-3-1.2-2.6-1.5Z"/>
  <path class="st4" d="M467.4,36.6c-.2-.7-.5-1.4-.8-2.1-.3-.5-.5-1-.9-1.5-.6.3-1.3.6-1.8,1,0,0,0,0,0,0,.2.5.5,1,.9,1.4.4.5.8,1.1,1.3,1.6.4.5.8,1,1.2,1.5.2.3.5.6.7.9,0-.3,0-.5,0-.8,0,0,0,0,0,0,0-.6-.2-1.4-.4-2Z"/>
  <path class="st1" d="M452.1,24.3c1.6-.3,3-.9,4.4-1.4,1.4-.5,2.8-1,4.2-1.1,1-.1,2,0,3,0,.4,0,.8.1,1.2.3,1.4.4,2.7,1,3.9,1.8.6.4,1.1.9,1.5,1.4.4.6.7,1.2,1,1.9.5,1.5,1.8,2.7,3.2,3.3-1.2-.9-2.2-2.1-2.6-3.5-.2-.7-.4-1.5-.9-2.2-.4-.7-1-1.3-1.6-1.8-.6-.5-1.3-.9-2-1.3-.7-.4-1.4-.7-2.2-.9-1.1-.3-2.2-.5-3.3-.5-.5,0-1,0-1.4,0-1.6.2-3.1.7-4.5,1.3-1.4.6-2.8,1.2-4.2,1.6-1.4.4-2.9.5-4.3.4-1.5,0-3-.4-4.4-.7,1.4.6,2.8,1.1,4.4,1.4,1.5.3,3.1.3,4.7,0Z"/>
  <path class="st5" d="M440.2,62.5c.6,0,1.1,0,1.6.2.5,0,1,.2,1.5.2,0,0,0,0,.1,0h0s0,0,0,0c0,0,0,0,.1-.1l.6-.5c.4-.3.8-.7,1.3-1,0,.3-.2.6-.4.8,1.3-.3,2.6-.7,3.8-1.2.3-.1.6-.3.9-.4.1,0,.3-.2.4-.2,0,0,0,0,0,0-.6,0-1.3,0-1.9,0h-2.3c-.8,0-1.5,0-2.3.1h-.1s0,0,0,0c0,0,0,0,0,0h0c0,.1-.2.3-.3.4-.2.3-.4.6-.5.9l-.2.3h0s0,0,0,0h-.4c-.4-.2-.8-.3-1.3-.3-.4,0-.9,0-1.3,0,0,0-.2,0-.2,0,0,0,0,0,0,0h0c-.1.2-.2.4-.3.6-.1.3-.3.6-.4.8.2,0,.5,0,.7-.1.5,0,1.1-.1,1.6-.2-.2-.1-.4-.2-.5-.4Z"/>
  <path class="st5" d="M450,60.6c-.6.7-1.2,1.4-1.9,1.9-.8.7-1.7,1.3-2.6,1.9-.5.3-1,.5-1.5.7-.3,0-.5.2-.9.2-.3,0-.6,0-.9,0-.6-.1-1.1-.4-1.6-.7-.3-.2-.5-.4-.8-.7-.2,0-.3,0-.5,0-.1.4-.2.8-.2,1.2.2.3.4.7.6,1,.2.3.5.6.7.9.5.5,1.2.9,1.9,1.1.5,0,.9,0,1.4,0,.5,0,1,0,1.4-.2.5-.1.9-.2,1.4-.4.4-.2.8-.4,1.2-.7.3-.3.6-.6.8-1,.3-.4.5-.8.8-1.1.5-.8.9-1.6,1.4-2.4,0,0,0,.2,0,.2.1-.3.2-.6.2-.8.1-.8-.1-1.5-.1-1.6,0,0,0,0,0,0-.3,0-.5.2-.8.4Z"/>
  <path class="st5" d="M443.4,62.8s0,0,0,0c0,0,0,0,0,0Z"/>
  <path class="st3" d="M446.4,43.1c.6-.3,1.2-.6,1.8-1-2.3-.2-2.5-1.9-2.3-3.1-.5,0-.9.2-1.2.5,0,0-.1,0-.2.1h-.2c-.1.2-.2.3-.3.4-.2.2-.4.4-.5.6-.3.5-.6,1-.8,1.6-.2.6-.4,1.1-.6,1.7,0,0,.9,0,2,0,0,0,0,0,0,0,.8-.2,1.6-.5,2.3-.8Z"/>
  <path class="st3" d="M433.5,47.8l-1.1.7c.6-.4,1-.7,1.1-.7,0,0,0,0,0,0Z"/>
  <path class="st3" d="M431.4,49.1c-2.6.2-3.2-1.5-3-2.9-.1,0-.2,0-.4,0-.3,0-.4,0-.6.2h-.1c0,0-.1.1-.1.1,0,0-.1.1-.2.2-.3.3-.5.7-.6,1.1,0,.2-.1.5-.2.7v.4c-.2.1-.2.2-.3.4.2,0,.3.2.5.2.4.1.7.2,1.1.2.8,0,1.6,0,2.4,0,.2,0,.3-.1.4-.2.3-.2.6-.3.9-.5Z"/>
  <path class="st3" d="M444.7,62.7c-.1.2-.3.4-.5.6,0,0,0,.1-.2.2h0c0,0-.1.2-.1.2,0,0-.1,0-.2,0,0,0-.1,0-.2,0,0,0-.2,0-.3,0-.5,0-.9-.2-1.3-.3,0,0,0,0,0,0l.4,1s0,0,0,0c.2,0,.5,0,.7,0,.2,0,.4-.1.6-.2.5-.2.9-.4,1.4-.7.9-.5,1.8-1.1,2.7-1.6.4-.3.9-.6,1.3-.9-1.2.6-2.5,1-3.8,1.4-.2,0-.4,0-.5.1Z"/>
  <path class="st1" d="M567.7,145l-1.5-.8c-.2,0-.4-.2-.8-.4-.5-.2-1.1-.5-1.8-.9l-1-.4h0c-6.7-3-18.8-7.3-30.9-5.7-2.2.3-7,1.4-14.5,3.3-2.7.7-5.6,1.5-8.8,2.3l-1.2.4c-1-2.3-2.1-4.4-3.1-6.4-1-1.9-1.8-3.5-2.6-4.7,1.3-1.4,2.4-3.1,3.2-5.2,2.3-5.9-.7-14.4-4.7-20.5,4-6.3,6.8-15.5,4.1-22.1-1.5-3.7-4.6-5.4-7.2-6.1.8-3.1,1.4-7.6-.3-11.5-1-2.3-2.6-4-4.9-5.2,5-1.7,7.9-6.4,7.5-12.3l-.2-2.1-1.1,1.8c-1.2,2-4.8,3.6-8.1,3.8,2.1-3.1,3.1-6.7,2.7-9.8-.2-1.9-1-3.5-2.3-4.9,1.3-.4,2.5-1.2,3.5-2.3,1.1-1.3,1.6-2.7,1.5-4v-1.3c-.1,0-1.1.8-1.1.8-1,.9-3,1.6-5.1,1.2-1.3-.2-3.1-.9-4.4-3-.4-.7-.8-1.3-1.2-2-2.1-3.6-4.2-7.1-9.6-9.9-5.4-2.8-11.4-1.9-13.1-1.5-1-1.7-2.4-3.8-3.9-5.8h0s0,0-.1-.1C453.3,4.8,448.5,0,443.9,0c-5.8,0-9.8,4.3-10.9,5.6-2.4-.4-5.2-.2-7.8.6,0,0,0,0,0,0h0c-2.7.8-5.1,2.2-6.7,4.2-7.9,2.5-10.5,6-14.2,12.8-2.6,4.9-.5,9.2,1.1,11.6-2,3.2-4.8,8.5,6.3,18.7-1.7,2.8-5.5,5.4-8.7,6.7-2.4,1-5.1,3.7-5.4,6.5-.1,1.4.2,3.3,2.6,5.2-4.1,2.7-5.3,6-3.9,10.1,1.1,3.1,6.4,7.2,11.1,9.3,0,.6-.1,1.2-.3,1.7l-3.1,7.6s0,0,0,0c0,0,0,0,0,0-.2.4-.1.9.1,1.4,1.1,2.4,7.3,5.7,11.2,7.2,2.3,5.1,5.4,11.5,8.4,17.9,3.3,7,6.5,13.7,8.4,17.8-.2,6.8-1.5,11.6-3.9,15.2-1,1.5-2.3,2.7-3.6,4-.7.7-1.5,1.5-2.4,2.3-2.5-.5-4.6-.7-6.1-.5h-.7c0,0,0,.7,0,.7,0,.6,0,1.3,0,1.9l-1.3.4-1,.3-6,1.7h0s-11.8,3.4-11.8,3.4v.4c-23.4,6.9-43.8,13-54.9,16.3-2,.6-4.3,1-6.7,1-3.2,0-8.2.9-13.8,4.1-1.4.8-2.7,1.4-3.9,1.7l-64.9,18.5c-1.7,0-6.4.4-11,1.2-2.2.4-4.3,1.7-6.5,3.1l-.9.6c-1.5.9-3,1.8-4.4,2.3-4.5,1.6-23.7,7.8-26.7,8.5-2.1.5-9.5,1.1-13.6,1.3-1.6,0-3,1.1-3.6,2.6-.3.8-.4,1.7-.1,2.5l-16.8,1.2h-1.3c0,.1-.8,1.1-.8,1.1-.1.2-2.9,3.4-8.9,5.6h0s0,0,0,0c-2,.7-4.3,1.3-6.9,1.7-2.6.4-4.6,2.7-4.4,5.3,0,.7,0,1.5-.1,2.4-.1,1.1-.4,2.2-.7,3.4h0c-.9,3.2-2.1,5.7-3,6.4l-.9.9v1.3c0,0,.1,2.2.5,4.5v.2c.3,1.1.5,2.1.8,2.9.3.8.7,1.6,1.2,2.2.3,2.5,1.3,4.8,2.8,6.7v.2c1.7,1.9,3.7,3.2,5.8,3.5.1,0,.3,0,.7.2.9.4,1.9,1.2,2.5,2.1h0c.3.6.5,1,.4,1.3,0,0,0,0,0,.1-2.4,5,1.2,11.7,5.9,14.2,4.3,2.2,8.8,2,15.2-.5h.2c0-.1.2-.1.3-.2h.2c1.6-.6,3.8-1.1,6-1.5.1,0,.3,0,.4,0,.8-.1,1.6-.3,2.5-.4h.2s.2,0,.2,0c4-.4,6-.1,6.5,0,0,0,0,0,.1,0l-1.1,6.9,6.1-5.7c3.1-2.9,20.7-7.8,29.1-10.2,1.5-.4,2.9-.8,4.1-1.2,2.2-.6,8.1-2.4,16.2-4.9,25-7.7,71.4-22,81.7-23.5,9.7-1.5,18.3-4.8,24.6-7.3,2.8-1.1,5.2-2.1,7.1-2.6,3.8-1.1,24.8-7.4,45.5-13.6h0s.6-.2.6-.2h0s1.3-.5,1.3-.5l3.4,11.9h.2c.4.2,1.1.5,2,.6.8,0,1.7.1,2.9,0,7.7-.3,22.5-3.8,26.4-9.3,2.2.7,4.5,1.3,7.1,1.9,14.2,3.3,35.3,1.6,41.5.9-8.9,9.9-13,15.3-18.1,32.8-5.6,19-12.3,32.5-18,35.9-1.2.7-2.4,1.3-3.5,1.9-.4.2-.9.4-1.3.7-11.6,3.8-9,7.5-10.1,14.2-1.2,7.3-9.7,16.5-9.7,16.5l2.5,2.9,12.3-12.3c1,3.7-3.6,23.8-3.6,23.8,2.5,7.8,18.9,19.8,18.9,19.8,2.6,0,3.7-2.6,3.7-2.6,0,0-3.1-9.3-3.1-11.8,0-1.5-.2-4.7-.3-6.9.2-1.1.5-2.2.9-3.3,1.2-3.2,2.7-8.1,4.3-13.3,2.4-7.9,5.1-16.8,7.2-20.2,3.7-6.1,21.1-31.5,36.5-47-.4,5.5-.5,12-.4,19.3.2,10.9,1,21.2,1.5,27.3.2,2.4.3,4.1.3,5,.1,2.7-1.2,5.6-2.9,8.3-7.1,2.2-8.9,13.5-8.9,13.5,3.4,14.7.3,20.8.3,20.8l3.6,2.1,5-13.2c4,4.3,5.8,10.8,6.6,14,.3,1.3,1.1,2.5,2.2,3.3,10.2,7.3,21.2,9.5,24.3,10.1.7.1,1.4-.3,1.7-.9.4-.9.7-2.2.9-3,.1-.5,0-1-.5-1.3-3.9-2.9-7-9.9-8.1-12.7-.2-.5-1.3-2.1-2.2-3.1-.9-3.9-1.7-8.7-1.9-12.3-.1-3.7-1.1-8.1-2-12.4-1.1-4.9-2.1-9.4-1.6-11.9,4.1-21.6,19.9-72.1,22.2-77.3,2.5-5.6,5.1-15.6,3.6-20-1.2-3.4-4.4-6.1-10.2-8.4-1.9-.8-4-1.5-6.4-2.2-.3-.6-.6-1.2-1-1.7-1.6-2.1-10.1-4.8-19.7-7.4-.8-.7-1.5-1.4-2.2-2.2l1.1-.4c3-.7,5.7-1.4,7.9-1.9,5.9-1.4,12.2-3.4,18.4-5.9,0,0-.2,0-.3,0l2.6-1.1s0,0,.1,0c.4,0,.7-.2,1-.5l2-.8c12.6-6.1,23.6-14.9,28.2-26.2l.4-.9-8.1-28.2ZM565.8,162.3c-2.3-.5-4.2-1.3-6.1-1.9-1-.3-1.9-.6-2.9-.8-1-.3-2-.4-3.2-.8,1-.6,2.2-1,3.3-1.1,1.2,0,2.4,0,3.5.4,1.1.4,2.1.9,3.1,1.5.9.7,1.8,1.5,2.3,2.5ZM532.5,142.5c2.5-.3,5-.3,7.4-.2,4.3,1.1,19,4.9,19.2,5-11.4,6-18.3,6.4-30.2,6.4,16.9,4,33.1-2.8,33.1-2.8l.7,2.4s-27.6,4.3-44.5,11.8c18.9-5.3,38.3-.5,39-.3-.6,0-19.9,1.3-37.4,5.7-1-2.3-1.8-4.5-2.4-6.2-1-2.9-3.4-9.2-6.2-15.7l.8-.4,1.6-.8c.7-.3,1.5-.7,2.2-1,1-.3,2-.5,2.9-.8,9-2.3,12.5-3,13.8-3.2ZM522.7,177c-.7-1.4-1.3-2.8-1.9-4.3,9.8-.8,17.1-.2,17.1-.2l-15.1,4.5ZM542.8,184.6c-.5-.4-1.2-.8-2.4-.8,4.7-2.2,9.7-4,15-5.3-3.8,1.8-8,3.7-12.6,6.1ZM514.8,164.8c1.9,5.6,7,17.2,9.9,21.3-.3,0-.6,0-.9,0-.4,0-.7-.2-1.1-.4-.4-.2-.8-.5-1.3-.6.3.4.6.7.9,1.1.3.4.7.7,1.1,1,.4.3,1,.4,1.5.5.4,0,.7,0,1.1,0h0s.3,0,.3,0c1.4-.2,6.8-.7,10.4-1,1.6-.1,2.9-.3,3.5-.3.4,0,.8,0,1,.2.2.1.2.4.2.4v.2s0,.2,0,.2c0,0,1.4,2.8,2.4,6.2.7,2.3.8,3.1.7,3.7,0,0,0,0,0,0-.2-.2-.5-.4-.8-.6-.5-.3-1-.6-1.6-.9-.8-.4-1.6-.7-2.5-1h0c-.3-.3-.6-.7-.9-1.1-.3-.4-.5-.8-.7-1.2-.2-.4-.4-.9-.5-1.4-.1-.5-.3-1-.4-1.5,0,.5-.1,1-.1,1.6,0,.5,0,1.1.2,1.6,0,.5.2.9.4,1.4,0,0,0,0,0,0l-.8-.8c-.4-.3-.7-.7-1.1-1-.4-.4-.7-.7-1.1-1.1-.3-.4-.7-.8-1.1-1.2.5.9,1,1.9,1.6,2.7.2.3.5.6.7.9-.2,0-.3,0-.5,0-1.1-.2-2.3-.3-3.4-.2-.2-.2-.5-.3-.7-.4-.3-.1-.6-.3-.9-.4-.6-.2-1.2-.4-1.8-.6-1.2-.3-2.4-.6-3.7-.9,1.2.4,2.4.9,3.5,1.4.6.3,1.1.5,1.7.8.3.1.5.3.8.5.2.2.5.3.6.5v.2c.1,0,.4,0,.4,0,2.2,0,4.5.5,6.6,1.2,0,0,.2,0,.3.1,0,0,0,0,0,0h0c1,.4,1.9.8,2.8,1.2.5.3,1,.5,1.4.9.3.2.6.4.8.7l.3.4c.5.6.5,1.2.4,1.4,0,.3-.3.5-.3.5-.2,0-1.1-.2-2-.5-2.4-.7-6.4-1.8-11.5-2.6-3.9-.6-7.2-.7-9.9-.8-2.3,0-4.3-.2-4.9-.5-.8-.6-2-6.2-2.7-9.2-.5-2.1-.9-3.9-1.2-5-.8-2.5-7.2-10.9-14.1-19.7l-.6-.8c-6.4-10.3,1.6-21.7,5.8-24.2,4.7,9.1,10.2,23,11.9,27.8ZM456.8,147.8c-.2-.4-.4-.9-.7-1.4h0c4.9-.6,10.7-1,16.4-1.1-.6,1.5-1.3,3-2,4.5-.9,1.8-1.8,3.6-2.7,5.4-.7,1.4-1.4,2.9-2,4.4-3.2-5.1-6.3-9.5-9-11.7ZM469.4,156c.9-1.8,1.8-3.7,2.5-5.6.7-1.7,1.3-3.4,1.7-5.2,5,0,9.9.1,13.6.7.2.4.4.9.6,1.3,0,0,0,.1.1.2-1.7,4.2-4.2,8.5-6.4,12.3-3.2,5.4-5,8.6-4.5,10.4.4,1.8,2.4,10.7,4.2,19.4,0-.2-.1-.3-.2-.5-2.8-6.7-8.6-18.4-14.3-27.9,1-1.7,1.9-3.4,2.8-5.1ZM489.3,153.7c.6,1.1,1.1,2.2,1.5,3-3.2,2.8-6.3,5.7-9.2,8.8.8-1.4,1.6-2.8,2.3-4,1.4-2.3,2.9-4.9,4.2-7.5.4-.1.8-.2,1.1-.3ZM479.7,170c1-.9,2-1.9,3.1-2.8,3.1-2.6,6.4-5.1,9.7-7.5.3.5.6,1,.9,1.3.3.5.8,1.1,1.4,1.8l.8,1.1s0,0,0,0c.2.3.4.6.7.9-6.3,3.6-11.3,7.4-15.4,11-.6-2.9-1.1-5-1.3-5.9ZM483.7,188.5c-.6-3-1.3-6-1.9-8.7,4.2-5.4,8.6-9.4,15.3-13.9,3.5,4.4,9.1,11.8,11.3,15.3l-24.8,7.3ZM468.2,93.7c.2-.9.6-1.7,1.2-2.3.3-.3.6-.5,1-.7.4-.2.8-.4,1.2-.5.8-.4,1.6-.8,2.5-1.1.9-.3,1.8-.7,2.6-1l5.1-2.2c.9-.4,1.8-.7,2.8-1.1-1.2,8.8-4.2,23.6-11.4,40.3,0-1.2,0-2.4-.2-3.6-.1-.6-.2-1.2-.4-1.8-.2-.6-.3-1.2-.5-1.8-.3-.9-.7-1.7-1.1-2.5,0-.3,0-.6,0-.9,0-1,.2-2,.5-2.9.3-1,.6-1.9,1.1-2.8.4-.9,1-1.8,1.6-2.6-.9.6-1.6,1.4-2.3,2.3-.6.9-1.1,1.8-1.5,2.9-.2.7-.4,1.5-.5,2.2-.1-.2-.2-.3-.3-.5-.3-.5-.7-1-1.1-1.5-.2-.2-.4-.5-.6-.7-.2-.2-.4-.4-.6-.7l-.6-.7-.7-.6c-1.8-1.6-3.9-3-6.1-4,2,1.4,3.7,3,5.3,4.7l.6.7.5.7c.2.2.4.5.5.7.2.2.3.5.5.7.3.5.6,1,.9,1.5.3.5.5,1,.8,1.5.5,1,.9,2.1,1.2,3.2.2.5.3,1.1.4,1.7.1.6.2,1.1.3,1.7.4,2.2.5,4.4.6,6.7-.4.5-1,.9-1.6,1.1h-.2c0,0-.1,0-.2,0-1.3-2.8-6-12.7-12.7-23.4-3.9-6.2-8.2-12.7-12.1-18.5-1-1.4-1.9-2.8-2.8-4.2l15.4,7.2c.1,0,.2,0,.3,0h0s0,0,0,0c.7.1,1.3.2,1.8.3.5.1.9.2,1.3.5.4.3.8.7,1.2,1.2.4.5.9,1,1.4,1.5,0-.7,0-1.4-.3-2.1-.2-.7-.5-1.3-1.1-1.9-.3-.3-.6-.6-1-.7-.4-.2-.8-.3-1.2-.3-.7,0-1.4,0-2,.2l-7.4-3.4c.2-1-.1-1.9-1.3-2.8,1.1-.9,2.1-2.2,3-3.5.5.6,1.1,1.1,1.7,1.6.7.5,1.4,1,2,1.4.7.4,1.3.9,1.8,1.5-.3-.7-.8-1.4-1.3-2.1-.5-.6-1-1.3-1.4-1.9-.4-.6-.8-1.3-1-1.9-.1-.4-.2-.8-.3-1.1,1.8-3.4,3-7.1,3.6-9.8,1.5-2.1,2.9-4.2,4-6.5.6-1.4,1.2-2.8,1.4-4.3.1-.7.2-1.5.2-2.3,0-.8,0-1.5-.3-2.2.2.7.1,1.5,0,2.2,0,.7-.2,1.4-.5,2.1-.4,1.4-1,2.7-1.7,4-1.5,2.5-3.2,4.9-5.1,7.1-.9,1.1-1.9,2.2-3,3.2-1,1-2.1,2-3.3,2.8-.1,0-.3.2-.4.3-.1,0-.3.2-.4.2h-.2c0,.1-.2.1-.2.1-.2,0-.3,0-.5.1-.6.1-1.1,0-1.7-.2-1.2-.6-2.4-1.5-3.6-2.2h0c-4.8-3.5-10.8-9.5-14-13.4-.8-1-1.5-2-2-3.2-.7-1.5-1.2-3.2-1.5-5.1.1,0,.3,0,.4,0,0,0,.1,0,.2,0,.3.3.7.5,1.1.6.5.1,1,0,1.4,0,.9-.1,1.7-.4,2.5-.9,0,0,0,0,0,0-.8.1-1.7.2-2.4,0-.4,0-.8-.1-1.1-.2-.2,0-.4-.1-.5-.2,0-.2.1-.3.2-.4v-.4c.2-.3.3-.5.3-.7.2-.5.4-.9.6-1.1,0,0,.1-.1.2-.2h.1c0,0,.1-.1.1-.1.2,0,.3-.1.6-.2.1,0,.2,0,.4,0-.1,1.3.5,3,3,2.9,0,0,0,0,0,0h0c.3-.2.6-.4.8-.5h0s0,0,0,0l1.1-.7s0,0,0,0c0,0,.1,0,.2.1-.7-.8-1.5-1.6-2.5-2.1-.5-.3-1-.5-1.6-.6-.6-.1-1.2-.1-1.8,0-.3,0-.6,0-.9.2h-.2c0,.2-.1.2-.2.3-.2,0-.3.2-.4.4-.4.5-.6,1.1-.8,1.6,0-.4,0-.7.2-1,.2-.5.6-.9,1-1.3.4-.4.9-.7,1.4-.9-.5.2-1.1.4-1.6.7-.5.3-1,.7-1.3,1.2-.4.5-.6,1.2-.6,1.8,0,.5,0,1.1,0,1.6,0,0,0,0,0,0h0c0,0,0-.2,0-.2-.2-.4-1.1-2.7-1.8-5.9,2.9,0,9.2,1,9.7.8.6-.2.4-.9-2-1.7-3.3-1.1-5.8-.7-8-.4-.3-1.9-.6-4-.5-6.3.1-3.5,1.1-7.1,3-9.7,1.6-.8,3.4-1.1,5.4-.7-.9-.7-2-1.1-3.2-1.1-.2,0-.4,0-.6,0,0,0,0,0,0,0,1.4-.5,3.3-.9,5.2-.4.1.5.3,1,.5,1.5.3.6.7,1.2,1.1,1.8.4.6.8,1.1,1.4,1.6.5.5,1.1.9,1.7,1.2-.5-.5-.8-1-1.2-1.6-.3-.4-.5-.9-.8-1.3,3.2,3.3,6.9,5.2,10.8,6.6-1.8.9-6.2,3.3-7.1,4.7-1.2,1.9-.1,2.5,0,2.5.9-.2,5.4-4.9,6.8-5.7.7-.4,1.6-.7,2.3-.9.2,0,.5.2.7.2,2.9.9,5.5,1.3,7.5,1.4.2.2.4.4.6.6.3.3.6.6.9,1,.3.3.6.7.9,1.1.3.4.5.8.8,1.2,0-.5-.1-1-.3-1.4-.2-.5-.4-.9-.7-1.3-.2-.3-.5-.7-.8-1,1.3,0,2.2,0,2.7-.2.2.7.5,1.4.9,2,0-.8-.1-1.6,0-2.3,0-.7.2-1.4.6-2,.3-.6.8-1.1,1.3-1.4.1,0,.3-.1.4-.2h.5c.2-.2.3-.2.5-.2.1,0,.3,0,.4,0,.5,0,1,.4,1.4,1,0,0,0,0,0,0-.7.1-1.4.3-2,.6-.2.1-.5.3-.7.4-.2.2-.4.4-.6.6-.2.2-.3.5-.5.7-.1.3-.2.5-.3.8-.2.7-.2,1.4,0,2,0,.4.2.8.3,1.2.4,1,.9,1.9,1.6,2.6-.1-.3-.3-.7-.4-1,.3-.3.8-.5,1.2-.6.3.5.6,1.2.6,1.9,0,.8-.3,1.6-.7,2.4-.4.7-.9,1.3-1.3,2.1l-.7-1.4,1,5h0s.1.5.1.5c.2.7.4,1.5.6,2.4.1,3.6.5,7.2.9,10.8.2,1.8.4,3.6.7,5.4.2,1.8.5,3.6.8,5.4,0-1.8,0-3.6,0-5.5,0-1.8-.1-3.6-.2-5.5,0-1.4-.1-2.7-.2-4.1,2.1,6.4,4.5,13,4.7,13.6,0,0,0,0,0,0,0,0,0,0,0,0v.3c0,0,.1,0,.1,0,.4,1.1.9,2.1,1.4,3,.3.5.6,1.1.9,1.6.3.5.6,1,1,1.5-.2-.6-.3-1.2-.5-1.7l-.5-1.7c-.2-.6-.3-1.1-.5-1.7v-.2c1.8.9,3.6,1.7,5.3,2.3,3.1,1.1,5.8,1.5,7.8,1.6,0,1.2-.2,3-.5,5.3-1.1.5-2.3.9-3.4,1.4-1.7.7-3.4,1.5-5.1,2.2-.8.4-1.7.7-2.6,1-.4.2-.9.3-1.3.4-.5.1-.9.2-1.4.4-.9.4-1.8,1-2.4,1.9-.6.9-.7,2-.4,2.9ZM459.5,34.5c-.6,0-1.9.2-3.8.1.7-.4,1.4-.8,2-1.4.8,0,1.6-.2,2.2-.4,0,0,0,0,0,.1-.2.5-.3,1-.3,1.5ZM465.6,40.4c-.1-.5-.3-1-.7-1.4-.2-.3-.5-.6-.8-.8-.2-.1-.4-.2-.6-.3-.4-.1-.8,0-1.2,0,0-.6,0-1.2.1-1.8,0-.2.2-.4.2-.6.1-.2.2-.4.4-.6.2-.2.3-.4.5-.5,0,0,.2-.1.3-.2,0,.6.2,1.1.4,1.6.3.7.7,1.3,1.2,1.8.2.3.4.5.7.7.3.3.5.5.8.8-.3.8-.4,1.7-.4,2.4,0,.8,0,1.7-.3,2.4-.1.4-.3.7-.6,1h0c0,.1-.1.2-.2.3,0,.2-.1.3,0,.5,0,.1,0,.3.1.4,0,0,0,.2.1.2.1.4.2.9.2,1.4-.4.6-.9,1-1.5,1.5l-1.3-2.8c.7-.5,1.3-1.1,1.8-1.8.6-.8,1-1.7,1.1-2.7,0-.5,0-1-.2-1.5ZM467.6,43.3c-.3,1.6-.9,2.9-1.6,4,0-.4,0-.7,0-1.1-.2-.6-.3-.5,0-.8.3-.3.6-.7.8-1.1.4-.9.4-1.8.5-2.6,0-.4,0-.8.1-1.2,0-.2.1-.5.2-.7.1,0,.2.1.3.2,0,1.2,0,2.3-.3,3.4ZM467.9,39.5c-.2-.3-.5-.6-.7-.9-.4-.5-.8-1-1.2-1.5-.4-.5-.9-1-1.3-1.6-.3-.5-.6-.9-.9-1.4,0,0,0,0,0,0,.5-.4,1.2-.7,1.8-1,.3.5.6,1,.9,1.5.3.7.6,1.4.8,2.1.2.7.4,1.4.4,2,0,0,0,0,0,0,0,.3,0,.5,0,.8ZM498,50.5c0,1.7-.5,3.1-1.1,4.5-4.4,2.4-8.2.8-11.5-1.9.6.2,1.3.3,2,.3h0s.4,0,.4,0c.3,0,.5,0,.8,0h0s0,0,0,0c0,0,0,0,0,0h0c3.3.2,7.1-1.1,9.3-3ZM406.7,35.2v-.2c.7-.9,1.5-1.7,2.3-2.6.8-.8,1.7-1.7,2.6-2.5.9-.8,1.7-1.7,2.6-2.6.4-.4.8-.9,1.2-1.3.4-.4.8-.9,1.2-1.4.8-1,1.4-2,2.1-2.8.7-.8,1.7-1.4,2.8-1.9.3-.1.6-.2.9-.3.8-.2,1.6-.5,2.5-.6,1.2-.2,2.4-.3,3.6-.5-1.6,0-3.2,0-4.9.2-.8.1-1.6.2-2.4.5-1.2.3-2.3,1-3.3,1.9-.9.9-1.6,1.9-2.3,2.8-.7.9-1.6,1.7-2.4,2.6-.9.8-1.7,1.6-2.6,2.5-.9.8-1.8,1.6-2.6,2.5-.4.4-.8.9-1.3,1.3-.2.2-.4.5-.6.7-.8-1.2-1.6-2.9-1.8-4.9.2-1.2.6-2.3,1.1-3.4.6-1.1,1.3-2.1,2.1-3.1.8-.9,1.8-1.7,2.8-2.4,1.1-.7,2.2-1.2,3.4-1.6,1.2-.4,2.4-.6,3.7-.7.6,0,1.3-.1,2-.2.3,0,.7-.1,1-.2.3-.1.7-.3,1-.4,1.2-.7,2.2-1.5,3.4-1.9,1.2-.5,2.5-.5,3.8-.2-.6-.2-1.3-.4-1.9-.5-.7,0-1.4,0-2,.2-1.3.3-2.5,1.1-3.6,1.6-.3.1-.6.2-.8.3-.3,0-.6.1-.9.1-.6,0-1.3,0-1.9.1-1.3,0-2.7.2-4,.6-1.3.4-2.6.9-3.8,1.6-.8.5-1.5,1.1-2.2,1.7,2.7-4.3,5.4-6.7,11.5-8.6,2.1-.6,4.4-.8,6.7-.6,1.1,0,2.3.3,3.4.6,1.1.3,2.2.8,3.1,1.5-.8-.9-1.8-1.5-2.9-2-1.1-.5-2.3-.8-3.4-1-1.2-.2-2.4-.3-3.6-.3-.5,0-.9,0-1.4.1,1.3-1,2.9-1.8,4.6-2.3h0c.7-.1,1.7,0,2.5.2.9.2,1.8.5,2.6.9.9.4,1.7.8,2.5,1.3.8.5,1.6,1,2.3,1.7-.5-.9-1.1-1.6-1.9-2.2-.7-.6-1.6-1.2-2.4-1.7-.5-.3-1.1-.6-1.7-.8.2,0,.3,0,.5,0,1.2,0,2.3,0,3.3.2h0c.8.1,1.5.3,2.2.7.7.4,1.3.9,1.8,1.5.3.3.5.6.7,1,.3.3.5.7.8,1,.4.3.8.4,1.2.5.4,0,.9,0,1.3,0-.4,0-.8-.2-1.2-.4-.4-.2-.7-.4-1-.6-.2-.2-.3-.6-.5-1-.2-.4-.4-.8-.6-1.2-.5-.8-1.1-1.5-1.9-2.1-.5-.3-1-.6-1.5-.7,1.5-1.5,4.8-4.5,9.2-4.4,2.2,0,4.6,1.4,6.8,3.4-.8-.4-1.6-.7-2.4-.9-1.7-.5-3.7-.7-5.4-.2-.4.1-.9.3-1.3.5l-.6.3-.6.4c-.7.5-1.4,1.1-1.9,1.8.8-.5,1.5-.9,2.3-1.2l.6-.2.6-.2c.4-.1.8-.2,1.2-.3,1.6-.2,3.2,0,4.8.4.8.3,1.5.6,2.2,1,.7.4,1.4.8,2.1,1.3,1.3,1,2.6,2.1,3.7,3.3h0c1.3,1.8,2.5,3.7,3.5,5.3-.7.2-1.4.3-2.1.5-.4.1-.8.2-1.2.3-.7.2-1.3.4-2,.5-.7.2-1.3.3-2,.4-.7,0-1.4.2-2,.2-.7,0-1.4,0-2.1,0-1.4,0-2.8-.2-4.3-.3,1.4.4,2.8.7,4.2,1,1.4.2,2.9.3,4.3.3,1.5,0,2.9-.3,4.3-.7.7-.2,1.5-.4,2.2-.6.6-.2,1.2-.4,1.9-.5h0c0,0,6.8-1.8,12.6,1.2,5,2.7,6.9,5.8,9,9.4.4.6.8,1.3,1.2,2,1.6,2.5,3.8,3.4,5.3,3.6,1.7.3,3.5,0,4.9-.7-.2.6-.5,1.1-1,1.7-1.1,1.3-2.5,2-4,2.1h0c-1.2.1-2.5,0-3.7-.4-1.2-.4-2.4-1.2-3.2-2.2.6,1.2,1.7,2.2,2.9,2.9,1.1.6,2.5,1,3.8,1.1,1.5,1.2,2.5,2.8,2.7,4.8.4,2.9-.8,6.5-3,9.6-1,0-1.9-.1-2.9-.4-1-.3-1.9-.6-2.8-1.1,0,0,0,0,0,0h0s0,0-.1,0c-1.9-1.1-3.4-2.7-4.7-4.5-1.3-1.8-2.3-3.8-3.1-5.9-.8-2.1-2.2-4-4-5.4,0,0,0,0,0,0,0,0,0,0,0,.1,1.5,1.6,2.7,3.5,3.4,5.6.7,2.2,1.7,4.3,2.9,6.2,1.2,1.9,2.8,3.6,4.8,4.9h0c3,3.1,6.8,6.2,11.3,6,.8,0,1.7-.2,2.6-.5-1.4,1.6-3.4,2.7-5.8,3.1-1.8,0-3.6-.3-5.3-.8-1.7-.6-3.4-1.4-4.9-2.6-1.5-1.1-2.7-2.6-3.8-4.1-1-1.6-1.8-3.3-2.6-5.1l.4,1.4c0,.2.1.5.2.7l.3.7c.2.4.3.9.5,1.3l.7,1.3c1,1.7,2.2,3.2,3.7,4.5,1.5,1.3,3.2,2.3,5.1,3,1.8.7,3.7,1,5.7,1,2.8,1,4.8,2.8,5.9,5.2,1.4,3.3,1,7.3.3,10.1-.9-.2-2.4-.5-3.8-.7-2-.2-7.3-2.2-11.2-3.2-3.9-1-6.8-4.6-6.8-4.6,0,0,3.8.2,6.8-.6-7-.7-9.5-3.4-9.5-3.4h0c.3.2.6.3.9.5,1.2.5,2.4.9,3.7,1.1,1.3.2,2.6,0,3.8-.2,1.2-.2,2.3-.4,3.5-.5,1.2,0,2.3,0,3.5.3,1.1.3,2.2.8,3.2,1.4,1,.7,1.8,1.6,2.5,2.5-.7-1-1.4-2-2.3-2.8-.9-.8-2-1.4-3.2-1.8-1.2-.4-2.4-.6-3.7-.7-1.2,0-2.5,0-3.7.1-5,.5-10.8-4.5-13.6-8.2-.3-.9-.5-1.8-.8-2.6,2.5-1.1,2.8-4.4,2.6-7,.4-.9.7-1.9.9-3,.3-1.6.4-3.2.3-4.9h0c0-.3,0-.6,0-.9,0-.5-.1-1.1-.3-1.6-.2-.8-.4-1.6-.8-2.3-.3-.8-.7-1.5-1.3-2.2-.3-.3-.6-.7-1-.9-.4-.3-.9-.5-1.4-.5-.3,0-.5,0-.8,0-.2,0-.4,0-.7.1-.2,0-.4.2-.6.2-.2.1-.4.2-.6.3-.3.2-.6.5-.9.8-.5.2-1.2.4-2,.5.6-.7,1.1-1.5,1.3-2.1.3-.2.7-.4,1-.5,1-.5,2-.9,3-1.1.3,0,.5,0,.8,0,.1,0,.3,0,.4,0h.4c.5.1,1,.3,1.5.5.9.5,1.8,1.2,2.6,2-.6-1-1.3-1.9-2.3-2.6-1-.7-2.3-1-3.5-.8-2.4.4-4.4,1.7-6.3,2.7-1.8.9-3.7,1.6-5.6,2,0,0,.2,0,.3,0l.6-.2c.2,0,.4-.2.6-.3.8-.4,1.5-.9,2.1-1.4.6-.6,1.2-1.3,1.6-2.1l.6-1.2-1.3.3c-1.8.4-3.6.6-5.4.5-1.8,0-3.6-.4-5.3-1.1-1.7-.6-3.3-1.5-4.8-2.7-1.5-1.1-2.8-2.5-3.9-4,.9,1.7,2,3.2,3.4,4.6l1.1.9c.4.3.8.6,1.2.8.4.2.8.5,1.3.7.4.2.9.4,1.3.6,1.8.8,3.7,1.2,5.7,1.4,1.4,0,2.8,0,4.2-.2-.1.2-.3.3-.4.5-.5.5-1.1,1-1.8,1.3-1.3.7-2.8,1.1-4.3,1.2-1.5,0-3.1,0-4.6-.3h-.6c-.2-.1-.4-.2-.6-.2h-.1c-4.5-2.1-8.1-4.9-10.8-9.9,0,0,0,0,0,0l-1.7-2.7.4,2.5c-.5,0-1.1.2-1.6.4h0c-2.9.7-5.6,2-8.1,3.6-1.2.8-2.4,1.7-3.6,2.6-.9.7-1.8,1.5-2.6,2.4-.2.2-.4.4-.6.6-1,1-2,2.2-2.9,3.4-.8,1.3-1.4,2.6-1.8,4.1-.7,2.9-.1,6.1,1.6,8.5-1.2-2.6-1.4-5.6-.6-8.2.4-1.3,1.1-2.5,1.8-3.7.7-1,1.5-1.9,2.4-2.7.1-.1.2-.2.4-.4,2.1-1.9,4.3-3.6,6.6-5.1-1.2.9-2.2,2-3.1,3.2-1.3,1.8-2.3,3.8-3.1,5.8,0,0,0,.2,0,.3-.7,2-1.2,4-1.1,6.1.4-1.6.9-3.1,1.6-4.6.2-.4.4-.9.6-1.3.9-1.9,2-3.7,3.3-5.3.7-.9,1.5-1.7,2.3-2.5-1,2.3-1.7,4.9-1.8,7.9-.2,7.1,2.4,13.4,2.7,14.1h0s0,0,0,0c.3,2,.8,3.8,1.6,5.5-1.9.4-2.9-.5-3.5-1.2,0-.1-.2-.2-.2-.3-.9-1.2-1.6-2.5-2.3-3.9-.6-1.4-1.2-2.8-1.4-4.3-.3-1.5-.3-3,0-4.5-.7,1.4-.9,3-.8,4.6,0,1.6.5,3.1,1.1,4.6.6,1.5,1.3,2.9,2.2,4.2,0,0,0,0,0,.1.3.4.9,1.7.3,2-.5.4-2,.2-3.1-.6-1-.8-2.1-1.8-3.6-3.2h0s-.4-.4-.4-.4c-11.1-9.9-8.2-14.5-6.3-17.6ZM397.6,81.5c-.9-2.5-1.2-5.9,4.2-9,1.2-.5,2.4-1,3.6-1.6,1.2-.6,2.4-1.2,3.6-1.8,1.2-.7,2.3-1.4,3.4-2.2,1.1-.8,2-1.7,2.8-2.8-1,.9-2,1.7-3.2,2.3-1.1.7-2.3,1.3-3.5,1.8-1.2.6-2.4,1.1-3.6,1.6l-2.5,1c-.3-.6-.5-1.1-.6-1.7,0-.7,0-1.5.5-2.1.2-.3.4-.6.7-.9.1-.1.3-.3.4-.4.1-.1.3-.2.5-.3.7-.4,1.5-.8,2.4-1.2,1.6-.7,3.4-1.3,5.1-1.8,1.7-.5,3.5-.9,5.3-1.2-1.8,0-3.7.1-5.5.4-1.8.3-3.6.7-5.4,1.3-.9.3-1.8.6-2.6,1.1-.4.2-.9.5-1.3.9-.4.4-.8.8-1,1.2-.6.9-.8,2.1-.6,3.2,0,.3,0,.5.2.8-.9-1-1.4-2.1-1.3-3.3.2-2.3,2.5-4.6,4.5-5.4,3.1-1.3,7.2-3.8,9.2-7,1.8,1.6,3.1,2.8,4.3,3.7.7.7,1.6,2.2,2,2.8.4.7,1.6,1.7,1.6,1.7v1.4c-.2.3-.4.6-.5.9-.3.5-.6.9-1.1,1.3-.4.4-.9.7-1.4.9-1.1.5-2.2,1-3.3,1.7-1.1.6-2.1,1.4-2.7,2.5.4-.5.9-.8,1.4-1.2.5-.3,1-.6,1.6-.8,1.1-.5,2.2-.9,3.4-1.3.6-.2,1.2-.5,1.7-1,.2-.2.4-.3.6-.5-.1,1-.2,2.3-.1,3.6-3.6.2-8.4,2.2-12,7.6-1.5,2.3-1.9,6-1.1,10.9,0,0-.2-.2-.2-.2-.7-.8-1.3-1.6-1.8-2.4-1.1-1.7-1.9-3.5-2.1-5.4,0-.9,0-1.9.2-2.8.3-.9.7-1.8,1.3-2.5,1.2-1.5,2.9-2.7,4.7-3.8-1,.2-2,.5-3,1-1,.5-1.8,1.2-2.6,2-.7.8-1.3,1.8-1.7,2.9-.4,1.1-.5,2.2-.4,3.3,0,1.1.4,2.2.8,3.2.4,1,.9,2,1.5,2.9.4.6.8,1.1,1.2,1.6-3.4-2.1-6.5-4.8-7.2-6.8ZM408.3,93.4c.4-.9.5-1.9.4-2.9v-.2c0,0,0-.1,0-.2,0-.1,0-.2,0-.3-1.1-5.3-.9-9.3.6-11.5,4.1-6.1,10.2-7.6,13.4-6.8,1.5,2.2,3.1,4.4,4.7,6.5l5.1,6.5c1.7,2.2,3.4,4.3,5.1,6.4,1.7,2.1,3.4,4.3,5.2,6.4-1.5-2.3-3.1-4.5-4.7-6.8-1.6-2.3-3.1-4.5-4.7-6.8l-4.8-6.7c-1.2-1.7-2.5-3.5-3.9-5.1,2.4.2,5.2-.3,7.3-1,.4-.1.8,0,1,.4,1.4,3,5.7,9.5,10.7,17,3.8,5.8,8.2,12.3,12,18.5,6.6,10.6,11.3,20.5,12.6,23.2.3.7,1.1,1,1.8.8h.2c1.3-.5,2.4-1.5,3-2.7,10.9-24.1,13-44.7,13.4-50.4,0-.3.2-.5.4-.7.2-.2.5-.2.8-.1,1.5.4,3.3,1,4.2,1.3-.5,2.3-1,4.6-1.4,7-.4,2.5-.9,5-1.3,7.6-.5,2.5-.9,5-1.5,7.5-.5,2.5-1.1,5-1.8,7.5l.7-1.8.6-1.8c.4-1.2.8-2.4,1.2-3.7.7-2.5,1.4-4.9,2-7.4.6-2.5,1.2-5,1.7-7.5.5-2.3.9-4.7,1.2-7,1.8,0,7.3.6,9.4,5.7,2,4.9.7,11.3-1.8,16.7,0,0,0,0,0,0,0-.3,0-.7,0-1,0-.6,0-1.3,0-1.9-.1-1.3-.3-2.5-.5-3.8-.3-1.2-.6-2.5-1-3.7,0,1.3,0,2.5,0,3.8v3.7c0,1.2,0,2.5-.1,3.7,0,.9,0,1.8,0,2.8,0,0,0,0,0,0-.3-.5-.7-1-1-1.5-.5-.8-1-1.6-1.4-2.5-.4-.8-.9-1.7-1.3-2.6-.2-.4-.4-.9-.6-1.3-.2-.4-.4-.9-.5-1.4,0,1,.2,2,.5,2.9.3.9.6,1.9,1,2.8.4.9.8,1.8,1.3,2.7.5.9,1,1.7,1.6,2.5,0,0,0,0,0,0,4,5.8,7.1,14.1,4.9,19.6-2.2,5.4-5.7,8-12.6,9.2-1,0-2.1,0-3.1,0-1.1,0-2.1-.1-3.1-.3-1-.2-2.1-.4-3.1-.7-1-.3-2-.7-3-1.1.8.8,1.7,1.4,2.7,1.9.7.4,1.5.6,2.3.9.8,2.3,2.9,4.2,6.5,5-.3,1.9-.8,3.4-1,4.2-3.9-.8-9.3-1.1-15-1,.3-1.8.5-3.8,0-5.5,0,1.9-.4,3.8-1,5.6-1.3,0-2.7,0-4,.1-4.7.2-9.4.5-13.5,1l-.7-1.6c0-.1-.1-.3-.2-.4,0-.2-.2-.4-.3-.6,2.2-.1,4.9-1.4,5.8-3.7,1.1-.5,2.1-1,3.1-1.7,1.1-.8,2.2-1.7,2.9-2.8-1,.8-2.2,1.5-3.4,2-1.2.6-2.4,1-3.6,1.4-1.2.4-2.5.6-3.7.6-1.2,0-2.3,0-3.3-.5-1.5-3.2-3.2-7-5-10.7l-4.7-10.1c0,0,0-.1,0-.1-.3-.7-.6-1.3-.9-1.9,0,0,0-.1,0-.1,0,0,0-.1-.1-.2.2.2.5.4.7.6,2.2,2,4.4,4.1,6.5,6.2-1.5-2.6-3.4-5-5.5-7.2-2.1-2.2-4.3-4.3-6.6-6.3-2.3-2-4.7-3.8-7.2-5.5-2.5-1.7-5-3.3-7.7-4.7,2.3,2,4.6,3.9,6.9,5.9,2.2,1.9,4.5,3.8,6.7,5.6l-21.8-7.3s0,0-.1,0h0c-2-.5-5.5-1.2-7.6-1.5l2.8-6.8ZM425.4,165.1c1.4-1.4,2.7-2.6,3.8-4.2,0,0,0-.1,0-.2,8.3,3,13.4,6.6,15,12.3-7.2-2.6-14.8-5-20.7-6.3.6-.6,1.2-1.2,1.7-1.7ZM416.9,167.3c5.3-.2,17.2,3.6,27.9,7.4.8,2.7,2.3,6.2,3.1,7.7-13.8-4.1-26.5-6.6-33.1-5.6.3-.9.8-2.2,1.2-3.6.5-.3,1.1-.6,1.6-.7.7-.1,1.3-.1,2.1,0,.7,0,1.4.2,2.2.4.8.2,1.5.3,2.2.5,1.5.4,3,.8,4.5,1.1,1.5.3,3.1.4,4.6.4-1.5-.3-3-.6-4.4-1.1-1.5-.4-2.9-1-4.3-1.5-.7-.2-1.5-.5-2.2-.7-.7-.2-1.5-.4-2.3-.5-.8-.1-1.6-.2-2.5,0-.3,0-.7.2-1,.3.3-1.4.5-2.8.4-4.2,0,0,0,0,0,0ZM251.4,222.3h.4s64.8-18.4,64.8-18.4c-.5.4-1,.7-1.4,1.1-5.4,4.2-10.6,8.6-15.7,13.1-5.1,4.5-10.1,9.1-15,13.9-4.8,4.8-9.6,9.7-14.1,14.7,4.8-4.8,9.8-9.4,14.9-13.8,5.1-4.4,10.3-8.8,15.7-12.9,5.3-4.2,10.8-8.2,16.3-12,2.8-1.9,5.6-3.8,8.4-5.6,2.3-1.4,4.6-2.8,6.9-4.1.5,0,.9,0,1.4,0,2.9,0,5.7-.5,8.2-1.3,6.8-2,17.1-5.1,29.5-8.8-2,1.6-4,3.3-5.8,5.2-.5.5-1,1.1-1.6,1.6-.5.6-1,1.1-1.5,1.7-1,1.1-1.9,2.3-2.8,3.5-1.8,2.4-3.5,4.7-5.1,7.1-3.4,4.8-6.5,9.7-10,14.3,2.1-2,4-4.3,5.9-6.5l5.6-6.7c1.9-2.2,3.8-4.4,5.7-6.6,1-1.1,2-2.1,2.9-3.1,1-1,2-1.9,3.1-2.9,4.3-3.7,9.1-6.8,14.1-9.4,2.5-1.3,5.1-2.5,7.7-3.6.2,0,.4-.1.5-.2,2.2-.6,4.4-1.3,6.7-2l3.6,12.7c-1.4,3.1-4.3,10.9-4,20.3,0,.3,0,.6,0,.9l-26.6,7.6,16.2-26.6c-.6.7-19.1,24.1-23.1,28.5-4.1,4.4-8,2.5-9.3,2.9-1.3.4-27,8.5-27,8.5,0,0,13.8-13.8,17-18.2,3.2-4.4,8.3-11.7,15.5-20.3-3.9,2.1-10.1,10.7-17.2,18.8-7.1,8.1-22.4,20.1-25.4,22.2-3,2-4.1,1.3-9.1,2.7-5.1,1.4-50.5,15.3-50.5,15.3-2.9-3.5-6.3,2.1-11.5,7.8,7.9-18.6,14.5-17.8,14.5-17.8,0,0,6.5-7.9,23.3-21.7-40.7,25.2-42,35.6-42,35.6l-33.8,9.6c-.9-4.4.7-10.9.7-10.9,0,0-2.4,1.8-4.5,6.1,1.3-11.7,10.1-17.4,12.3-18.8,2.2-1.4,5.4-5.2,15.7-14.7,3.7-3.4,7.3-5.8,10.5-7.6,4-.6,8-.8,9-.9ZM202.8,237.8c3.1-.7,20.1-6.3,26.1-8.3-2.6,2.4-6,5.5-10.5,9-7.5,5.9-13.2,10.4-16.2,12.7-.1-.1-.2-.2-.4-.4-1.7-1.5-4-3-6.1-4.3l7.7-2.2-7.6-3.2c-1-.4-2.2-1.2-3.5-2.2,4-.3,8.6-.7,10.5-1.2ZM150.7,256.5c.1-1,.2-1.9.2-2.8,1-.1,1.9-.3,2.8-.5,0,.8.2,1.5.5,2.2.4.9,1,1.6,1.7,2-.4-.8-.4-1.5-.2-2.2.1-.7.4-1.4.8-1.9.3-.4.6-.8.9-1.1.3-.1.7-.2,1-.4h0s0,0,0,0c.9-.3,1.8-.7,2.7-1.1.7,1.3,1.8,2.1,2.5,1.7.7-.3.8-1.7.1-3.1,1.1-.6,2-1.2,2.7-1.8.4.1.9.2,1.3.3,1.1.3,2.2.6,3.2.9,2.2.6,4.3,1.3,6.4,2.2-1.5-1.7-3.3-3.3-5-4.8-.4-.3-.8-.7-1.2-1l10.9-.8-2,.6,6.8,3.3s3.3,1.6,6.6,3.6l4.7,5.8c-.6,4.6-1.5,12.6-1,16.9-.9-.4-1.8-.8-2.6-1.4-.9-.6-1.8-1.3-2.5-2.2-.4-.4-.7-.8-1-1.3,0-.1-.2-.3-.3-.4.7,0,1.4,0,2.3-.3-.7-3.3-4.3-5.5-5.3-4.6-.7.6-.3,3.4,1.7,4.5-.2.5-.2,1-.2,1.4.1.7.3,1.3.6,2,.3.8.7,1.6,1.2,2.3-4.7-1.3-5.6-5.8-6-7.6-.5-2.2-2-7.5-9-10.6-7-3.1-7.6-5.3-7.5-6.8-.7,3,1.4,6.2,6.1,8.3,4.6,2.1,8.3,9.2,7,14.2-2.5-2.7-.3-8.4-7.4-13,1.6,1.6,1.8,7.1,1.8,7.1-2.5-5.5-8-6.4-11.8-5.2-3.3-1.6-6.6-4-5.2-6.9-1.6,2.6-.8,5.4,2.9,8.4v1.8s-2.2-1.1-5.5-.6c-2.6.3-5.3-1.5-6.2-3.8.3-1.2.5-2.3.7-3.4ZM174.1,288.5s4.3,4.6,6.7,6.6c-5.5-.3-6-3.3-6.7-6.6ZM180.9,284.2c-.9.3-1.9-.3-2.5-1.2-.7,0-3.9,1.3-5.2,1.3-3.3,0-6.1-3.6-6.6-5.9,1.8,2.3,10.7,2,11.7,1.9.3-.5.7-.9,1.2-1.1,1.2-.3,2.4.5,2.8,1.9.4,1.4-.2,2.8-1.4,3.1ZM173.5,294c-4.3.9-5.9-1.3-6.6-4.7,1,1.5,3.8,3.5,6.6,4.7ZM159.8,287.4v-.2c2,.6,4.1,1,6.4.2-.7,1.1-3.2,2-5.5,2-.2-.7-.5-1.4-.9-2ZM151.9,282c-.4-.2-.9-.5-1.4-1.1l-.2-.2c-1-1.2-1.6-2.9-1.7-4.6v-1.4c0,0-1.1-.7-1.1-.7-.2-.6-.2-1.2.3-1.3.8-.2,4.7,1.1,6.6,2.8-1.9.3-4.2,0-4.2,0,0,0,2.2,3.7,7.3,2.6-.5-1.7.2-2.9,1.7-3,1.4,0,2.7,2.1,1.4,3.1,1,2,4.8,5,4.8,5,0,0-6.7,3.8-8.7-4.2,0,0-2.6.1-3.1.5-.4.3-.9,1.9-1.6,2.5ZM160.2,271.2c.4-.3,1,0,1.4.6.4.6.4,1.3,0,1.5-.4.3-1,0-1.4-.6s-.4-1.3,0-1.5ZM165.7,271.6c-.5-.7-.5-1.6,0-1.9.5-.3,1.3,0,1.8.8.5.7.5,1.6,0,1.9-.5.3-1.3,0-1.8-.8ZM148.9,263.4c1,1.2,2.5,2.4,4.6,2.7,5,.8,5.1-.2,6.5,1.3-1.6,0-3.2,1.5-3.6,2.5-2-1.9-6.8-2.8-10.3-.7,0-.2,0-.3,0-.5,1.2-1.6,2.1-3.6,2.7-5.3ZM163.7,300.5c-1.9-1-3.3-3.3-3.5-5,1.3,1.8,3.2,3.4,5.8,4-2.4-2.5-2.6-5.2-2.6-5.2,0,0,4.6,4.6,9.3,5.1-1.3,1.1-3.9,1.5-3.9,1.5,0,0,.2.2.6.4-2.2.4-4,.1-5.6-.7ZM194.4,297.1c-2.3-.1-6-.4-6.4-1.1-.5-1,2.2-2.2.4-3-1.7-.8-4.9-6.1-1-5.7,3.9.5,3.4,7.9,3.4,7.9,0,0,3.7-.7,4.1-4.5.4-3.8-5.5-8-5.5-8l7.1,2.7-4.6-4.3,3-1.9c1.1.8,2.3,1.5,3.6,1.9v-.3c0,0,1.6,5.1,1.6,5.1-1.3,2.2-4,6.9-5.8,11.2ZM229.4,287.5c-1.2.3-2.6.7-4.1,1.1-.2,0-.4,0-.5.1.9-.5,1.7-1.1,2.5-1.8,1.6-1.2,3.1-2.6,4.6-4,1.5-1.4,2.8-3,4-4.6,1.2-1.7,2.3-3.4,2.8-5.5,0,2.1-.9,4.2-1.8,6.1-.9,1.9-2,3.8-3.3,5.5-.5.7-1.1,1.5-1.6,2.2-1.2.4-2.1.6-2.7.8ZM251.1,280.8c5.6-3.1,10.1-5.1,13.7-6.3,5.7-1.8,27.6-8.5,27.6-8.5,0,0,4.7-6.1,9.3-9.1,4.6-3,8.6-7.9,9.6-10.7-.7,4.4-8.1,11.4-12.3,15.7-1.9,1.9-3.5,4-4.7,5.8-14.2,4.2-30.1,9-43.2,13ZM328,258.9c-4.2.6-13.7,3.1-25.2,6.5l4.1-3.5,38.3-11.4s11.2-10.2,14.9-18.4c-.1,8.3-13.2,21.5-13.2,21.5l-6.6,2.5c-3.8,1.2-7.9,2.3-12.3,2.9ZM362.4,248.1c2.6-1.9,6-3.9,10-5.4,9.6-3.7,27.2-7.8,27.2-7.8l3,1.2c-16.4,4.9-32.8,9.8-40.1,12ZM407.2,232.8c1.1.4,3.2,1,4.6.5,0,0,.1.2.2.3.3.5.6,1.1.8,1.6.5,1.1.9,2.2,1.1,3.5.1.6.3,1.2.4,1.8.1.7.3,1.3.5,2,.5,1.3,1.1,2.5,1.9,3.5-.5-1.2-.9-2.4-1.2-3.7-.1-.6-.2-1.3-.3-1.9,0-.6,0-1.3-.2-1.9-.2-1.3-.5-2.6-.9-3.8-.4-1.2-1-2.4-1.6-3.6-.7-1.2-1.5-2.2-2.3-3.2-.8-1-1.7-2-2.5-3-1.7-2-3.3-3.9-4.5-6.1-2.2-4.1-3.3-8.6-3.1-13.3.4-11.1,12.5-25.5,13.9-27.2,2.9-.7,7.9-.4,14.3.7,3.3.8,15.4,4,16.9,5,1.5,1.1,3,3.4,3.8,6.9-1.7-.6-3.5-1-5.2-1.4-2.7-.5-5.4-.9-8.2-1.1-2.7-.2-5.5-.3-8.2-.3-2.7,0-5.5.2-8.2.5,2.7.1,5.5.3,8.2.5,2.7.3,5.4.6,8.1,1,2.7.4,5.3.9,8,1.4,1.2.3,2.4.5,3.5.8h-1.3c-2.5.4-5,.8-7.4,1.1-2.5.4-4.9.8-7.4,1.3-2.5.5-4.9,1-7.3,1.7,1.2-.2,2.5-.3,3.7-.5,1.2-.1,2.5-.3,3.7-.4,2.5-.2,5-.5,7.5-.7l11.9-1.1c1,1.4,1.5,2.9,1.5,2.9l3.8-.8c2,.8,4,1.4,5,2.2,2.3,1.5,13.3,10.3,16.1,12.5-6.5,2.1-13.6,5.4-17.2,7.1-.1-.1-.3-.3-.4-.4-.2-.2-.4-.3-.6-.4-.4-.2-.7-.4-1.1-.6-.7-.4-1.4-.6-2.1-.9l-4-1.7c-1.3-.6-2.6-1.2-3.9-1.8-1.3-.6-2.5-1.3-3.7-2.1-2.4-1.5-4.7-3.2-6.9-5-1.1-.9-2.1-1.9-3.1-3-1-1-2-2.1-2.9-3.2,1.4,2.6,3,5,5,7.3,2,2.2,4.2,4.2,6.6,6,2.4,1.8,5,3.3,7.7,4.6,1.3.7,2.7,1.3,4,1.8.7.3,1.3.6,1.9.9,0,0,0,0,0,0-.9.3-1.9.6-2.8.9-3.1,1-6.2,2-9.1,4.2-1.9,1.5-2.9,3.6-3.3,5.6-.5-.4-1-.9-1.4-1.4-.8-.9-1.6-2-2.3-3-1.5-2.1-2.8-4.4-4-6.8-1.2-2.3-2.4-4.7-3.5-7.1-1.1-2.4-2.2-4.8-3.2-7.3.8,2.6,1.6,5.1,2.4,7.6.9,2.5,1.8,5,2.8,7.5,1,2.5,2.1,4.9,3.4,7.3.7,1.2,1.4,2.4,2.2,3.5.8,1.1,1.8,2.3,3.2,3.2h0c0,.9,0,1.7.1,2.2-2.3.5-10.2,2.4-15.6,4.4-.7-3.4-1.3-6.8-1.8-10.3-.3-1.9-.7-3.8-1.1-5.7-.2-1-.5-1.9-.8-2.9l-.2-.7-.3-.7c0-.2-.2-.5-.3-.7-.1-.2-.2-.5-.3-.7-1-1.8-2.2-3.3-3.3-4.8-1.2-1.5-2.4-3-3.4-4.6-1.1-1.6-2.1-3.2-2.9-4.9-.4-.9-.7-1.8-.8-2.7-.1-.9-.1-1.9.2-2.8-.3.9-.4,1.9-.4,2.9,0,1,.3,1.9.6,2.8.6,1.8,1.6,3.6,2.6,5.2,1,1.7,2.1,3.3,3.1,4.9,1.1,1.6,2.1,3.2,2.9,4.8,0,.2.2.4.3.6,0,.2.1.4.2.6l.2.7.2.7c.2.9.4,1.8.5,2.8.3,1.9.5,3.8.7,5.7.4,3.7.7,7.5,1.3,11.2-4.5,2.3-4.6,5.2-4.4,6.5l-5.3,2.4-5.1-17.6ZM552.5,233.4c1.3,3.9-1.2,13.7-3.5,19-2.6,5.8-18.1,55.8-22.3,77.6h0c-.5,2.8.5,7.5,1.6,12.5.9,4.2,1.9,8.6,2,12.2.1,3.9,1.1,8.9,2,12.9-15.7-7.1-19.6-17-19.6-17,0-3.3-2.1-10.2-2.9-12.6,1.8-2.9,3.1-5.9,3-8.9,0-.9-.2-2.7-.3-5.1-.5-6.1-1.2-16.4-1.5-27.2,0-.7,0-1.3,0-1.9h0c0-9.9,6.3-13.9,11.6-22.9,5.3-9.1,10.8-16.1,13.8-18.8,3-2.8,5.1-7.7,4.9-15.7-.1-7.6-1.5-8.7,1.5-11.7,0,0,.2,0,.3.1,5.4,2.2,8.4,4.6,9.4,7.6ZM535.1,221.5c3.5,4.5,4,19.6,2.5,22.9-1.2,2.8-9.7,13.7-26.9,30.5-15.8,15.4-34.4,42.6-38.3,48.9-2.1,3.5-4.8,12.1-7.3,20.5-1.6,5.1-3,10-4.3,13.2-.4.9-.6,1.9-.8,2.9l-1,1.5c-7.5-5.3-5.6-17.7-5-22.3.4-2.8.9-9,.9-14.4,3.1,1.3,5.7.2,9.3-2.1-1.8.3-5.1-.8-9.4-1.4,0-1.7-.3-3.1-.6-4.3.6-.3,1.2-.7,1.8-1,6-3.6,13-17.3,18.7-36.7,5-17,8.6-22.1,17.8-32.3.8-.8,1.8-1.6,2.7-2.4,1-.8,1.9-1.5,2.9-2.2.7-.5,1.4-1,2.2-1.5l3.9-2.7c-1.2.5-2.3,1-3.4,1.5-1.1.5-2.2,1.1-3.3,1.8-1.1.6-2.1,1.3-3.1,2-.5.3-.9.7-1.3,1-.6,0-26.4,3.1-42.8-.7-2.9-.7-5.4-1.3-7.7-2.1-.2-3.6,0-8.3,10.3-17.1,11.1-9.4,19.2-10.9,25.6-11.9,1.9,3.1,3.6,6,4.6,6.6.9.5,5.2,1.5,7.4,2.1,1.5.6,3.1,1.2,4.6,1.8,2.1.8,4,1.5,4.9,2,.3.2.6.4,1,.6,3.5,2.1,10.1,6,13.3,6.5.6.1,1.2.1,1.7.1.8,0,1.5-.2,1.9-.6.6-.5.6-1.1.6-1.2v-.4s-.4-.2-.4-.2c0,0-3-1.7-6.1-3.9,4.6,2.4,9.1,4.4,11.8,4.6,2.7.2,3.8-.5,4.2-1.1.6,0,1.5-.2,2.1-.8.4-.4.6-.9.6-1.5,0-.7-1-1.5-2.1-2.1.3-.1.5-.3.7-.5.3-.5.3-1,0-1.7-.2-.5-.8-.8-1.8-1.3-1.1-.6-2.6-1.4-3.7-2.5-.8-.8-2-1.8-3.4-3-.5-.4-1-.8-1.5-1.3,8.3,2.3,15,4.6,16.2,6.2ZM519.5,217.6c1.4,1.1,2.5,2.1,3.3,2.9,1.2,1.2,2.8,2.1,4,2.7.5.3,1.1.6,1.3.8,0,.2,0,.3.1.3,0,0-.5.3-2.3,0-1.6-.7-3.2-1.5-4.7-2.4-.8-.5-1.6-1-2.3-1.6-.4-.3-.7-.6-1-.9-.2-.2-.3-.3-.4-.5l-.2-.3c0-.1-.2-.2-.2-.3-.7-.8-1.5-1.3-2.3-1.8-.8-.5-1.6-1-2.5-1.4-.8-.4-1.7-.8-2.5-1.3-.4-.2-.8-.5-1.1-.8-.4-.3-.7-.6-.9-1.1.1.5.4.9.7,1.3.3.4.7.7,1,1,.7.6,1.6,1.1,2.3,1.6.8.5,1.6.9,2.4,1.4.8.5,1.5,1,2.1,1.7,0,0,.1.2.2.2l.2.3c.2.2.3.4.5.6.3.4.7.7,1.1,1,.7.6,1.5,1.2,2.3,1.7,1.6,1,3.2,1.9,4.9,2.7h0s0,0,.1,0c0,0,0,0,0,0h0c.8.3,3.5,1.5,3.8,2.1,0,.3,0,.4-.2.5-.3.3-1,.4-1.4.4l-6-3.4-6.1-3.5-6.1-3.5c-2-1.2-4.1-2.4-6-3.7,1.7,1.7,3.6,3.1,5.6,4.4,1.9,1.4,3.9,2.6,6,3.9l3,1.9c1,.6,2,1.2,3.1,1.8,1.8,1,3.6,2,5.4,3-.4.2-1.2.3-2.6.2-3.1-.2-9.8-3.2-17.4-8l-3.7-2.3,2.8,3.3c3,3.6,9.3,7.3,11.3,8.5-.3.1-.9.3-2.3,0-2.9-.5-9.6-4.4-12.8-6.3-.4-.2-.7-.4-1-.6-1.1-.6-2.9-1.3-5.1-2.1-3.9-1.4-8.7-3.2-10.4-5.2-3-3.4-23.3-27.8-34.7-42.3-7.4-9.4-9.6-15.9-11.1-20.3-.3-.9-.6-1.8-.9-2.6-.3-.8-1-1.5-1.8-2.1.2.1.4.3.7.4,1,.5,1.9.9,2.9,1.3.5.2.9.4,1.4.6.2.1.5.2.6.3l.3.2.3.2c.5.3.8,1.4,1.1,2.3.3,1,.6,2,1.1,3,.5,1,1,1.9,1.7,2.7.7.8,1.5,1.5,2.3,2.1-1.4-1.5-2.5-3.3-3.2-5.1-.3-.9-.6-1.9-.7-2.9-.1-.5-.2-1-.3-1.6,0-.1,0-.3-.1-.4,0-.1-.1-.3-.2-.4,0-.2-.2-.3-.3-.4-.1-.1-.3-.3-.4-.4-1-.8-1.9-1.2-2.9-1.6-.9-.4-1.9-.8-2.8-1.3-.9-.5-1.8-.9-2.6-1.6-.8-.6-1.5-1.3-1.9-2.1-1.9-4.1-5.2-11.1-8.7-18.5-3.3-7-6.7-14.2-9.1-19.4,3-.8,9.8.5,15.4,2.1l5.1,1.7c.7.3,1.3.6,1.9.8.2.2.4.3.6.5h0s0,0,0,0c0,0,0,0,0,.1h0c0,.1.1.3.2.4,0,0,0,0,0,0,0,0,0,0,0,0h0c0,.2,0,.2.1.3h0c0,0,0,.1,0,.2v.2c.2.2.3.4.4.6h0s0,.2,0,.2c.1.3.3.6.4.9h0c0,.1,0,.1,0,.1,0,0,0,0,0,0,0,0,0,0,0,0,.3.5.5,1.1.8,1.7v.2c0,0,0,0,.1,0h0c2.4,5.2,8.2,18,12.1,26.2,0,.1.1.3.2.4,0,.2.2.4.3.5l.5,1.2h0s0,0,0,0c0,0,0,0,0,0,0,0,0,.1,0,.2,0,0,0,0,0,0h0s0,0,0,0l.5,1c.3.6.5,1.1.7,1.6h0c0,.1.1.2.1.2,7.1,6,19.2,29.4,24,40.8,4.8,11.3,11.1,16.2,11.4,16.4h.1c0,.1.2.1.2.1.4,0,10.2,1.4,13.8,1.6,3.4.2,4.4.2,7.6,3.7,2,2.2,4.6,4.4,6.7,6.2ZM509.8,206.1c-.7-.3-1.4-.4-2.3-.5,1.9-1.4,4.7-3.7,8.3-6.5,1.2.3,2.7.3,4.8.4.1,0,.3,0,.4,0-1.8,1.6-3.6,3.3-5.4,5.2-1.8.5-3.8.9-5.9,1.5ZM548.6,193.1c8-6.4,15.9-14.1,20.4-19.1-3.9,7.8-11.5,14.2-20.4,19.1Z"/>
  <path class="st1" d="M162.9,257.1c.4-.2.6-.8.3-1.3-.3-.5-.8-.8-1.2-.6-.4.2-.6.8-.3,1.3.3.5.8.8,1.2.6Z"/>
  <path class="st6" d="M172.7,299.3c-4.7-.4-9.3-5.1-9.3-5.1,0,0,.2,2.7,2.6,5.2-2.6-.6-4.5-2.2-5.8-4,.2,1.8,1.6,4.1,3.5,5,1.6.8,3.4,1.1,5.6.7-.4-.2-.6-.4-.6-.4,0,0,2.6-.4,3.9-1.5Z"/>
  <path class="st6" d="M166.2,287.4c-2.3.8-4.4.5-6.5-.2v.2c.5.7.8,1.3,1,2,2.4,0,4.8-.9,5.5-2Z"/>
  <path class="st6" d="M156.6,278.9c2.1,8.1,8.7,4.2,8.7,4.2,0,0-3.8-3-4.8-5,1.2-1,0-3.2-1.4-3.1-1.4,0-2.2,1.3-1.7,3-5.2,1.1-7.3-2.6-7.3-2.6,0,0,2.3.4,4.2,0-1.9-1.7-5.8-3-6.6-2.8-.5.1-.4.7-.3,1.3l1.1.7v1.4c.2,1.7.8,3.4,1.8,4.6l.2.2c.5.6,1,.9,1.4,1.1.8-.6,1.3-2.2,1.6-2.5.6-.4,3.1-.5,3.1-.5Z"/>
  <path class="st6" d="M161.6,273.4c.4-.3.4-.9,0-1.5-.4-.6-1-.9-1.4-.6-.4.3-.4.9,0,1.5s1,.9,1.4.6Z"/>
  <path class="st6" d="M156.2,263.7c3.3-.4,5.5.6,5.5.6v-1.8c-3.8-3.1-4.5-5.9-2.9-8.4-1.4,2.9,1.9,5.3,5.2,6.9,3.7-1.2,9.2-.2,11.8,5.2,0,0-.2-5.4-1.8-7.1,7.1,4.7,5,10.4,7.4,13,1.3-4.9-2.4-12-7-14.2-4.6-2.1-6.7-5.3-6.1-8.3-.1,1.5.5,3.7,7.5,6.8,7,3.1,8.5,8.4,9,10.6.4,1.9,1.4,6.3,6,7.6-.5-.8-.9-1.5-1.2-2.3-.3-.6-.5-1.3-.6-2,0-.5,0-1,.2-1.4-2-1.1-2.3-3.9-1.7-4.5.9-.9,4.6,1.3,5.3,4.6-.9.3-1.7.4-2.3.3.1.1.2.3.3.4.3.4.6.9,1,1.3.8.8,1.6,1.5,2.5,2.2.8.6,1.7,1.1,2.6,1.4-.4-4.3.4-12.3,1-16.9l-4.7-5.8c-3.3-2-6.5-3.6-6.6-3.6l-6.8-3.3,2-.6-10.9.8c.4.3.8.7,1.2,1,1.7,1.5,3.5,3.1,5,4.8-2.1-.9-4.2-1.6-6.4-2.2-1.1-.3-2.2-.6-3.2-.9-.4-.1-.9-.2-1.3-.3-.8.6-1.7,1.2-2.7,1.8.6,1.4.6,2.8-.1,3.1-.7.3-1.8-.4-2.5-1.7-.8.4-1.7.8-2.7,1.1,0,0,0,0,0,0h0c-.3.1-.7.2-1,.3-.3.3-.6.7-.9,1.1-.4.6-.7,1.2-.8,1.9-.1.7-.1,1.5.2,2.2-.7-.4-1.3-1.2-1.7-2-.3-.7-.5-1.5-.5-2.2-.9.2-1.8.4-2.8.5,0,.9,0,1.8-.2,2.8-.1,1.1-.4,2.2-.7,3.4.9,2.3,3.6,4.2,6.2,3.8ZM161.9,255.2c.4-.2,1,0,1.2.6.3.5.1,1.1-.3,1.3-.4.2-1,0-1.2-.6-.3-.5-.1-1.1.3-1.3Z"/>
  <path class="st6" d="M182.3,281.1c-.4-1.4-1.7-2.2-2.8-1.9-.6.2-1,.6-1.2,1.1-1,0-9.8.3-11.7-1.9.5,2.3,3.3,5.9,6.6,5.9,1.3,0,4.5-1.3,5.2-1.3.6.9,1.6,1.5,2.5,1.2,1.2-.3,1.8-1.7,1.4-3.1Z"/>
  <path class="st6" d="M174.1,288.5c.7,3.3,1.2,6.3,6.7,6.6-2.4-2-6.7-6.6-6.7-6.6Z"/>
  <path class="st6" d="M167.5,272.4c.5-.3.5-1.2,0-1.9-.5-.7-1.3-1.1-1.8-.8-.5.3-.5,1.2,0,1.9.5.7,1.3,1.1,1.8.8Z"/>
  <path class="st6" d="M166.9,289.3c.7,3.4,2.3,5.6,6.6,4.7-2.8-1.2-5.6-3.2-6.6-4.7Z"/>
  <path class="st6" d="M198.5,281.1c-1.4-.4-2.6-1.1-3.6-1.9l-3,1.9,4.6,4.3-7.1-2.7s5.9,4.3,5.5,8c-.4,3.8-4.1,4.5-4.1,4.5,0,0,.5-7.4-3.4-7.9-3.9-.5-.7,4.8,1,5.7,1.7.8-1,2.1-.4,3,.4.7,4.1,1,6.4,1.1,1.7-4.3,4.5-9,5.8-11.2l-1.5-5.1v.3Z"/>
  <path class="st6" d="M156.5,269.9c.3-1.1,2-2.5,3.6-2.5-1.5-1.5-1.6-.5-6.5-1.3-2.1-.3-3.6-1.5-4.6-2.7-.6,1.7-1.5,3.7-2.7,5.3,0,.1,0,.3,0,.5,3.4-2,8.3-1.1,10.3.7Z"/>
  <path class="st2" d="M495.7,164s0,0,0,0l-.8-1.1c-.6-.7-1.1-1.4-1.4-1.8-.3-.3-.6-.8-.9-1.3-3.3,2.4-6.6,4.9-9.7,7.5-1,.9-2.1,1.8-3.1,2.8.2.8.7,3,1.3,5.9,4-3.6,9.1-7.4,15.4-11-.2-.3-.5-.6-.7-.9Z"/>
  <path class="st2" d="M497.1,165.8c-6.7,4.6-11.1,8.5-15.3,13.9.6,2.7,1.2,5.7,1.9,8.7l24.8-7.3c-2.2-3.5-7.9-10.9-11.3-15.3Z"/>
  <path class="st2" d="M481.6,165.5c2.9-3.1,6-6,9.2-8.8-.5-.9-1-1.9-1.5-3-.4.1-.8.2-1.1.3-1.4,2.6-2.9,5.2-4.2,7.5-.7,1.2-1.5,2.6-2.3,4Z"/>
  <path class="st2" d="M203.4,244.4l-7.7,2.2c2.1,1.3,4.4,2.8,6.1,4.3.1.1.3.2.4.4,3-2.4,8.7-6.8,16.2-12.7,4.5-3.5,8-6.6,10.5-9-5.9,2-22.9,7.5-26.1,8.3-1.9.5-6.6.9-10.5,1.2,1.3,1,2.5,1.8,3.5,2.2l7.6,3.2Z"/>
  <path class="st2" d="M520.8,172.7c.6,1.4,1.3,2.9,1.9,4.3l15.1-4.5s-7.3-.6-17.1.2Z"/>
  <path class="st2" d="M216.2,245.5c-2.2,1.4-11,7.1-12.3,18.8,2.1-4.3,4.5-6.1,4.5-6.1,0,0-1.6,6.4-.7,10.9l33.8-9.6s1.2-10.4,42-35.6c-16.8,13.8-23.3,21.7-23.3,21.7,0,0-6.6-.8-14.5,17.8,5.2-5.7,8.6-11.3,11.5-7.8,0,0,45.4-13.9,50.5-15.3,5.1-1.4,6.1-.7,9.1-2.7,3-2,18.3-14.1,25.4-22.2,7.1-8.1,13.2-16.7,17.2-18.8-7.2,8.6-12.4,15.9-15.5,20.3-3.2,4.4-17,18.2-17,18.2,0,0,25.7-8.1,27-8.5,1.3-.4,5.2,1.5,9.3-2.9,4-4.4,22.5-27.7,23.1-28.5l-16.2,26.6,26.6-7.6c0-.3,0-.6,0-.9-.2-9.4,2.6-17.2,4-20.3l-3.6-12.7c-2.3.7-4.5,1.3-6.7,2-.2,0-.4.1-.5.2-2.6,1.1-5.2,2.3-7.7,3.6-5,2.6-9.8,5.7-14.1,9.4-1.1.9-2.1,1.9-3.1,2.9-1,1-2,2-2.9,3.1-1.9,2.1-3.8,4.3-5.7,6.6l-5.6,6.7c-1.9,2.2-3.8,4.5-5.9,6.5,3.6-4.6,6.7-9.5,10-14.3,1.7-2.4,3.4-4.8,5.1-7.1.9-1.2,1.8-2.3,2.8-3.5.5-.6,1-1.1,1.5-1.7.5-.5,1-1.1,1.6-1.6,1.8-1.8,3.8-3.5,5.8-5.2-12.4,3.7-22.7,6.7-29.5,8.8-2.5.8-5.3,1.2-8.2,1.3-.4,0-.9,0-1.4,0-2.3,1.2-4.6,2.6-6.9,4.1-2.8,1.8-5.6,3.7-8.4,5.6-5.5,3.8-11,7.9-16.3,12-5.3,4.2-10.5,8.5-15.7,12.9-5.1,4.5-10.1,9.1-14.9,13.8,4.6-5,9.3-9.9,14.1-14.7,4.9-4.7,9.9-9.4,15-13.9,5.1-4.5,10.3-8.9,15.7-13.1.5-.4,1-.7,1.4-1.1l-64.8,18.5h-.4c-1,0-5,.3-9,.9-3.1,1.7-6.8,4.2-10.5,7.6-10.4,9.6-13.5,13.3-15.7,14.7Z"/>
  <path class="st2" d="M518.6,145.7c-.9.2-1.9.5-2.9.8-.7.3-1.5.7-2.2,1l-1.6.8-.8.4c2.8,6.5,5.2,12.7,6.2,15.7.6,1.8,1.5,3.9,2.4,6.2,17.5-4.4,36.7-5.7,37.4-5.7-.7-.2-20.2-4.9-39,.3,16.8-7.6,44.5-11.8,44.5-11.8l-.7-2.4s-16.2,6.8-33.1,2.8c11.9,0,18.8-.5,30.2-6.4-.2,0-14.9-3.9-19.2-5-2.5-.2-5-.2-7.4.2-1.3.2-4.8.9-13.8,3.2Z"/>
  <path class="st2" d="M548.6,193.1c8.9-4.9,16.5-11.3,20.4-19.1-4.5,5-12.4,12.7-20.4,19.1Z"/>
  <path class="st2" d="M521.1,199.5c-.1,0-.3,0-.4,0-2.1,0-3.6-.1-4.8-.4-3.6,2.8-6.5,5.1-8.3,6.5.8.1,1.6.3,2.3.5,2.1-.5,4.1-1,5.9-1.5,1.8-1.8,3.6-3.6,5.4-5.2Z"/>
  <path class="st2" d="M555.4,178.5c-5.2,1.2-10.3,3.1-15,5.3,1.1,0,1.9.4,2.4.8,4.5-2.4,8.8-4.3,12.6-6.1Z"/>
  <path class="st2" d="M372.4,242.7c-3.9,1.5-7.3,3.6-10,5.4,7.4-2.2,23.7-7.1,40.1-12l-3-1.2s-17.6,4-27.2,7.8Z"/>
  <path class="st2" d="M360,232c-3.7,8.2-14.9,18.4-14.9,18.4l-38.3,11.4-4.1,3.5c11.6-3.3,21-5.8,25.2-6.5,4.4-.7,8.5-1.7,12.3-2.9l6.6-2.5s13-13.2,13.2-21.5Z"/>
  <path class="st2" d="M311.3,246.3c-1,2.8-5,7.7-9.6,10.7-4.6,3-9.3,9.1-9.3,9.1,0,0-21.9,6.7-27.6,8.5-3.6,1.2-8,3.2-13.7,6.3,13-4,29-8.9,43.2-13,1.2-1.7,2.9-3.8,4.7-5.8,4.2-4.3,11.6-11.3,12.3-15.7Z"/>
  <path class="st2" d="M237,279c.9-1.9,1.7-4,1.8-6.1-.5,2-1.6,3.8-2.8,5.5-1.2,1.7-2.6,3.2-4,4.6-1.5,1.4-3,2.8-4.6,4-.8.6-1.7,1.2-2.5,1.8.2,0,.4,0,.5-.1,1.5-.4,2.9-.8,4.1-1.1.6-.2,1.5-.4,2.7-.8.6-.7,1.1-1.4,1.6-2.2,1.2-1.8,2.3-3.6,3.3-5.5Z"/>
  <path class="st2" d="M560.4,158.3c-1.1-.4-2.3-.5-3.5-.4-1.2,0-2.3.4-3.3,1.1,1.2.3,2.2.5,3.2.8,1,.3,2,.5,2.9.8,1.9.6,3.8,1.3,6.1,1.9-.6-1-1.4-1.8-2.3-2.5-.9-.7-2-1.2-3.1-1.5Z"/>
  <path class="st2" d="M402.1,83.8c-.4-1-.7-2.1-.8-3.2,0-1.1,0-2.3.4-3.3.4-1.1.9-2.1,1.7-2.9.7-.8,1.6-1.5,2.6-2,1-.5,2-.8,3-1-1.8,1.1-3.5,2.3-4.7,3.8-.6.8-1.1,1.6-1.3,2.5-.2.9-.3,1.9-.2,2.8.2,1.9,1,3.7,2.1,5.4.5.8,1.2,1.6,1.8,2.4,0,0,.2.2.2.2-.8-4.9-.5-8.5,1.1-10.9,3.6-5.4,8.5-7.4,12-7.6,0-1.3,0-2.6.1-3.6-.2.2-.4.4-.6.5-.5.4-1.1.7-1.7,1-1.2.4-2.3.8-3.4,1.3-.6.2-1.1.5-1.6.8-.5.3-1,.7-1.4,1.2.6-1.1,1.7-1.8,2.7-2.5,1.1-.6,2.2-1.2,3.3-1.7.5-.3,1-.6,1.4-.9.4-.4.7-.8,1.1-1.3.2-.3.3-.6.5-.9v-1.4c0,0-1.1-1-1.5-1.7-.4-.7-1.2-2.2-2-2.8-1.2-.9-2.5-2.1-4.3-3.7-2,3.2-6.1,5.8-9.2,7-2,.8-4.3,3.1-4.5,5.4-.1,1.2.3,2.3,1.3,3.3,0-.3-.1-.5-.2-.8-.2-1.1,0-2.2.6-3.2.3-.5.7-.9,1-1.2.4-.3.9-.6,1.3-.9.9-.4,1.7-.8,2.6-1.1,1.8-.6,3.6-1,5.4-1.3,1.8-.3,3.7-.5,5.5-.4-1.8.3-3.6.7-5.3,1.2-1.7.5-3.5,1.1-5.1,1.8-.8.4-1.6.7-2.4,1.2-.2.1-.4.2-.5.3-.2.1-.3.2-.4.4-.3.3-.5.6-.7.9-.4.6-.5,1.4-.5,2.1,0,.6.3,1.2.6,1.7l2.5-1c1.2-.5,2.4-1,3.6-1.6,1.2-.6,2.4-1.1,3.5-1.8,1.1-.7,2.2-1.4,3.2-2.3-.8,1.1-1.8,2-2.8,2.8-1.1.8-2.2,1.5-3.4,2.2-1.2.7-2.3,1.3-3.6,1.8-1.2.6-2.4,1.1-3.6,1.6-5.4,3.2-5.1,6.5-4.2,9,.7,2,3.9,4.7,7.2,6.8-.4-.5-.8-1-1.2-1.6-.6-.9-1.1-1.9-1.5-2.9Z"/>
  <path class="st2" d="M488.6,53.6h0s0,0,0,0c0,0,0,0,0,0h0c-.3,0-.5,0-.8,0h-.4s0,0,0,0c-.7,0-1.3-.2-2-.3,3.3,2.7,7.1,4.3,11.5,1.9.7-1.3,1.1-2.8,1.1-4.5-2.2,1.9-6.1,3.2-9.3,3Z"/>
  <path class="st2" d="M413.4,53.1h0c1.5,1.4,2.6,2.4,3.6,3.2,1.1.8,2.6,1,3.1.6.5-.4,0-1.6-.3-2,0,0,0,0,0-.1-.9-1.3-1.6-2.7-2.2-4.2-.6-1.5-1-3-1.1-4.6-.1-1.6.1-3.2.8-4.6-.4,1.5-.4,3,0,4.5.3,1.5.8,2.9,1.4,4.3.6,1.4,1.4,2.7,2.3,3.9,0,.1.2.2.2.3.6.8,1.6,1.7,3.5,1.2-.8-1.6-1.3-3.5-1.6-5.5,0,0,0,0,0,0h0c-.3-.7-2.9-6.9-2.7-14.1,0-2.9.7-5.6,1.8-7.9-.8.8-1.6,1.6-2.3,2.5-1.3,1.6-2.4,3.4-3.3,5.3-.2.4-.4.9-.6,1.3-.7,1.5-1.2,3-1.6,4.6,0-2.1.4-4.2,1.1-6.1,0,0,0-.2,0-.3.8-2,1.8-4,3.1-5.8.9-1.2,1.9-2.3,3.1-3.2-2.3,1.5-4.6,3.2-6.6,5.1-.1.1-.2.2-.4.4-.9.9-1.7,1.7-2.4,2.7-.8,1.1-1.4,2.3-1.8,3.7-.8,2.6-.6,5.6.6,8.2-1.7-2.3-2.3-5.5-1.6-8.5.4-1.5,1-2.9,1.8-4.1.8-1.3,1.8-2.4,2.9-3.4.2-.2.4-.4.6-.6.8-.8,1.7-1.6,2.6-2.4,1.1-.9,2.3-1.8,3.6-2.6,2.5-1.6,5.2-2.9,8.1-3.6h0c.5-.2,1-.3,1.6-.4l-.4-2.5,1.7,2.7s0,0,0,0c2.7,5,6.3,7.8,10.8,9.9h.1c.2,0,.4.1.6.2h.6c1.5.4,3.1.5,4.6.4,1.5-.1,3-.5,4.3-1.2.7-.3,1.2-.8,1.8-1.3.2-.1.3-.3.4-.5-1.4.2-2.8.3-4.2.2-1.9-.1-3.9-.6-5.7-1.4-.4-.2-.9-.4-1.3-.6-.4-.2-.8-.5-1.3-.7-.4-.3-.8-.6-1.2-.8l-1.1-.9c-1.4-1.3-2.6-2.9-3.4-4.6,1.1,1.5,2.4,2.9,3.9,4,1.5,1.1,3.1,2,4.8,2.7,1.7.6,3.5,1,5.3,1.1,1.8.1,3.6,0,5.4-.5l1.3-.3-.6,1.2c-.4.8-.9,1.5-1.6,2.1-.6.6-1.3,1.1-2.1,1.4-.2,0-.4.2-.6.3l-.6.2c0,0-.2,0-.3,0,1.9-.3,3.8-1,5.6-2,2-1,3.9-2.3,6.3-2.7,1.2-.2,2.5,0,3.5.8,1,.7,1.7,1.6,2.3,2.6-.8-.8-1.7-1.5-2.6-2-.5-.3-1-.4-1.5-.5h-.4c-.1,0-.3,0-.4,0-.3,0-.5,0-.8,0-1,.2-2.1.6-3,1.1-.3.2-.7.4-1,.5-.2.6-.7,1.3-1.3,2.1.8-.1,1.5-.4,2-.5.3-.3.6-.5.9-.8.2-.1.4-.2.6-.3.2,0,.4-.2.6-.2.2,0,.4-.1.7-.1.3,0,.5,0,.8,0,.5,0,1,.3,1.4.5.4.3.7.6,1,.9.6.7,1,1.4,1.3,2.2.3.8.6,1.5.8,2.3.1.5.2,1,.3,1.6,0,.3,0,.6,0,.9h0c.1,1.7,0,3.3-.3,4.9-.2,1.1-.5,2.1-.9,3,.3,2.7,0,5.9-2.6,7,.2.8.5,1.7.8,2.6,2.8,3.7,8.5,8.7,13.6,8.2,1.2-.1,2.4-.2,3.7-.1,1.2,0,2.5.3,3.7.7,1.2.4,2.3,1,3.2,1.8.9.8,1.7,1.8,2.3,2.8-.7-.9-1.6-1.8-2.5-2.5-1-.7-2.1-1.2-3.2-1.4-1.1-.3-2.3-.4-3.5-.3-1.2,0-2.3.3-3.5.5-1.2.2-2.5.4-3.8.2-1.3-.2-2.5-.6-3.7-1.1-.3-.1-.6-.3-.9-.4h0s2.5,2.8,9.5,3.4c-3,.7-6.8.6-6.8.6,0,0,2.9,3.6,6.8,4.6,3.9,1,9.2,3,11.2,3.2,1.4.2,2.9.5,3.8.7.7-2.9,1.1-6.8-.3-10.1-1.1-2.5-3-4.2-5.9-5.2-1.9,0-3.9-.4-5.7-1-1.8-.7-3.6-1.7-5.1-3-1.5-1.3-2.7-2.8-3.7-4.5l-.7-1.3c-.2-.4-.4-.9-.5-1.3l-.3-.7c0-.2-.1-.5-.2-.7l-.4-1.4c.7,1.8,1.5,3.5,2.6,5.1,1.1,1.5,2.3,3,3.8,4.1,1.5,1.1,3.1,2,4.9,2.6,1.7.6,3.5.8,5.3.8,2.4-.4,4.4-1.5,5.8-3.1-.9.3-1.8.4-2.6.5-4.5.2-8.3-2.9-11.3-6h0c-1.9-1.3-3.5-3-4.8-4.9-1.3-2-2.2-4.1-2.9-6.2-.7-2.1-1.8-4-3.4-5.6,0,0,0,0,0-.1,0,0,0,0,0,0,1.8,1.3,3.2,3.2,4,5.4.8,2.1,1.8,4.1,3.1,5.9,1.3,1.8,2.8,3.4,4.7,4.5,0,0,0,0,.1,0h0s0,0,0,0c.9.5,1.8.9,2.8,1.1.9.2,1.9.4,2.9.4,2.2-3,3.4-6.6,3-9.6-.3-2-1.2-3.6-2.7-4.8-1.3-.1-2.6-.5-3.8-1.1-1.2-.7-2.3-1.6-2.9-2.9.8,1.1,2,1.8,3.2,2.2,1.2.4,2.5.5,3.7.4h0c1.4,0,2.9-.9,4-2.1.5-.5.8-1.1,1-1.7-1.5.7-3.3,1-4.9.7-1.6-.3-3.7-1.1-5.3-3.6-.4-.7-.8-1.3-1.2-2-2.1-3.6-4-6.7-9-9.4-5.8-3.1-12.6-1.3-12.6-1.3h0c-.6.2-1.2.4-1.9.6-.7.2-1.5.4-2.2.6-1.4.3-2.8.6-4.3.7-1.5,0-2.9,0-4.3-.3-1.4-.2-2.8-.6-4.2-1,1.4.1,2.9.3,4.3.3.7,0,1.4,0,2.1,0,.7,0,1.4,0,2-.2.7-.1,1.3-.2,2-.4.7-.1,1.3-.3,2-.5.4-.1.8-.2,1.2-.3.7-.2,1.4-.3,2.1-.5-1-1.6-2.2-3.5-3.5-5.3h0c-1.1-1.2-2.4-2.3-3.7-3.3-.7-.5-1.4-.9-2.1-1.3-.7-.4-1.5-.7-2.2-1-1.5-.5-3.2-.7-4.8-.4-.4,0-.8.1-1.2.3l-.6.2-.6.2c-.8.3-1.5.7-2.3,1.2.5-.7,1.2-1.3,1.9-1.8l.6-.4.6-.3c.4-.2.8-.3,1.3-.5,1.8-.5,3.7-.3,5.4.2.8.2,1.6.6,2.4.9-2.2-2-4.5-3.3-6.8-3.4-4.4,0-7.8,2.9-9.2,4.4.5.1,1,.4,1.5.7.8.6,1.4,1.3,1.9,2.1.2.4.4.8.6,1.2.2.4.3.8.5,1,.2.2.6.5,1,.6.4.2.8.3,1.2.4-.4,0-.9,0-1.3,0-.4,0-.9-.2-1.2-.5-.4-.3-.6-.7-.8-1-.2-.4-.5-.7-.7-1-.5-.6-1.1-1.2-1.8-1.5-.7-.4-1.4-.6-2.2-.7h0c-1-.2-2.1-.3-3.3-.2-.2,0-.3,0-.5,0,.6.2,1.2.5,1.7.8.9.5,1.7,1,2.4,1.7.7.6,1.4,1.4,1.9,2.2-.8-.6-1.5-1.2-2.3-1.7-.8-.5-1.6-.9-2.5-1.3-.9-.4-1.7-.7-2.6-.9-.9-.2-1.8-.3-2.5-.2h0c-1.7.5-3.3,1.3-4.6,2.3.5,0,.9,0,1.4-.1,1.2,0,2.4,0,3.6.3,1.2.2,2.3.5,3.4,1,1.1.5,2.1,1.1,2.9,2-.9-.7-2-1.1-3.1-1.5-1.1-.3-2.2-.5-3.4-.6-2.3-.2-4.6,0-6.7.6-6.1,1.9-8.8,4.3-11.5,8.6.7-.6,1.4-1.2,2.2-1.7,1.2-.7,2.4-1.3,3.8-1.6,1.3-.4,2.7-.5,4-.6.7,0,1.3,0,1.9-.1.3,0,.6,0,.9-.1.3,0,.6-.2.8-.3,1.1-.5,2.3-1.3,3.6-1.6.7-.2,1.4-.2,2-.2.7,0,1.3.2,1.9.5-1.3-.3-2.6-.3-3.8.2-1.2.4-2.2,1.3-3.4,1.9-.3.2-.6.3-1,.4-.3.1-.7.2-1,.2-.7.1-1.3.2-2,.2-1.3.1-2.5.3-3.7.7-1.2.4-2.3.9-3.4,1.6-1,.7-2,1.5-2.8,2.4-.8.9-1.5,2-2.1,3.1-.6,1.1-1,2.3-1.1,3.4.2,1.9,1,3.6,1.8,4.9.2-.2.4-.5.6-.7.4-.5.8-.9,1.3-1.3.9-.9,1.7-1.7,2.6-2.5.9-.8,1.7-1.6,2.6-2.5.8-.8,1.7-1.7,2.4-2.6.7-.9,1.4-1.9,2.3-2.8.9-.9,2.1-1.5,3.3-1.9.8-.2,1.6-.4,2.4-.5,1.6-.2,3.2-.2,4.9-.2-1.2.1-2.4.3-3.6.5-.9.1-1.7.3-2.5.6-.3,0-.6.2-.9.3-1.1.4-2,1-2.8,1.9-.8.8-1.4,1.9-2.1,2.8-.4.5-.8,1-1.2,1.4-.4.5-.8.9-1.2,1.3-.8.9-1.7,1.7-2.6,2.6-.9.8-1.7,1.7-2.6,2.5-.8.8-1.7,1.7-2.2,2.6v.2c-2,3-4.9,7.6,6.2,17.6l.4.3ZM447.5,23.7c1.5.1,2.9,0,4.3-.4,1.4-.4,2.7-1,4.2-1.6,1.4-.6,2.9-1.1,4.5-1.3.5,0,1,0,1.4,0,1.1,0,2.2.2,3.3.5.8.2,1.5.5,2.2.9.7.4,1.4.8,2,1.3.6.5,1.2,1.1,1.6,1.8.4.7.7,1.5.9,2.2.3,1.4,1.3,2.6,2.6,3.5-1.4-.6-2.6-1.7-3.2-3.3-.2-.7-.5-1.3-1-1.9-.4-.6-.9-1-1.5-1.4-1.2-.8-2.5-1.4-3.9-1.8-.4-.1-.8-.2-1.2-.3-1-.2-2-.2-3,0-1.4.2-2.8.6-4.2,1.1-1.4.5-2.8,1.1-4.4,1.4-1.5.3-3.1.3-4.7,0-1.5-.3-3-.8-4.4-1.4,1.5.3,3,.6,4.4.7Z"/>
  <path class="st2" d="M459.9,32.8c-.6.2-1.4.3-2.2.4-.6.5-1.2,1-2,1.4,1.9,0,3.2,0,3.8-.1,0-.5.1-1,.3-1.5,0,0,0,0,0-.1Z"/>
  <path class="st1" d="M515.2,334.3c-1,.3-.7,4,3.8,9.1-1.1-5.6-2.9-9.4-3.8-9.1Z"/>
  <path class="st1" d="M494.9,265.9c-1.4,1.7-2.8,3.5-4.3,5.2-1.4,1.8-2.8,3.5-4.2,5.4,1.9-1.3,3.6-2.8,5.2-4.4,1.6-1.6,3.2-3.3,4.6-5,1.4-1.8,2.8-3.6,4.1-5.5,1.3-1.9,2.4-3.8,3.4-5.9-1.6,1.6-3.1,3.3-4.5,5.1-1.5,1.7-2.9,3.4-4.3,5.2Z"/>
  <path class="st1" d="M517.8,240c.3,1.9,0,9.7,0,9.7,0,0,4.6-14.6,3.7-14.9-1.2-.4-4,3.4-3.7,5.2Z"/>
  <path class="st1" d="M494.3,216.8c-.7.3.9,2.4,3.5,2.4-1-1.2-3-2.6-3.5-2.4Z"/>
  <path class="st1" d="M498.1,214c-.4.4.9,1.6,2.6,1.5-1-.9-2.3-1.9-2.6-1.5Z"/>
  <path class="st1" d="M477.7,160.6c.1-1,.1-2,0-3,0-1-.3-2-.6-2.9-.3-.9-.6-1.9-1.1-2.8-.5-.9-1-1.7-1.6-2.5.3.9.7,1.8,1,2.7.3.9.6,1.8.9,2.7.3.9.5,1.8.7,2.8l.6,2.8Z"/>
  <path class="st1" d="M480,130.2c1-.8,2-1.7,2.8-2.6.8-1,1.7-2,2-3.3-.9,1-1.8,1.7-2.8,2.5-1,.8-2,1.5-2.9,2.3l-3,2.3c-1,.8-2,1.6-2.9,2.4,1.2-.4,2.4-.9,3.5-1.6,1.1-.6,2.2-1.3,3.2-2.1Z"/>
  <path class="st1" d="M428.4,96c1.4,1.5,2.9,2.9,4.3,4.4,1.4,1.5,2.9,2.9,4.3,4.4,1.4,1.5,2.8,3,4.3,4.4,2.8,3,5.7,5.9,8.4,9-2.2-3.5-4.7-6.8-7.4-9.9-.7-.8-1.3-1.6-2-2.4-.7-.8-1.4-1.5-2.1-2.3-.7-.8-1.4-1.5-2.1-2.3-.7-.8-1.4-1.5-2.1-2.2-1.4-1.5-2.9-2.9-4.4-4.4l-2.3-2.1c-.8-.7-1.5-1.4-2.3-2.1-3.1-2.7-6.3-5.3-9.8-7.6,3,2.9,5.9,5.7,8.8,8.6l4.3,4.4Z"/>
  <path class="st1" d="M482.9,131.3c.8-.2,1.6-.6,2.3-1,.7-.4,1.4-.9,2-1.4.6-.5,1.2-1.1,1.7-1.8.5-.6,1-1.3,1.3-2.1-1.3,1.1-2.4,2.2-3.6,3.2-.6.5-1.2,1-1.8,1.6-.6.5-1.3,1-1.9,1.6Z"/>
  <path class="st1" d="M457.8,46.9c-.2.8-.3,1.7-.4,2.6-.1.9-.2,1.7-.2,2.6.4-.8.7-1.6.9-2.5.2-.8.5-1.7.6-2.5.2-.9.3-1.7.4-2.6,0-.9.1-1.8,0-2.6-.6,1.7-1,3.3-1.3,5Z"/>
  <path class="st1" d="M440.2,58.6c-.6-.4-1.2-.7-1.8-.9-.3-.1-.6-.3-.8-.4-.1,0-.3,0-.4-.1,0,0-.1,0-.2-.1,0-.7,0-1.4-.1-2.1,0-.8-.2-1.5-.4-2.3-.1-.7-.3-1.5-.5-2.2-.2-.7-.5-1.4-.8-2.1.5,1.4.7,2.9.9,4.4,0,.7.1,1.5.1,2.2,0,.7,0,1.5,0,2.2h0c0,.1,0,.2,0,.2.1.3.3.4.5.6.2.1.3.3.5.4.3.2.7.3,1,.3.7,0,1.4.1,2.1,0Z"/>
  <path class="st1" d="M441.3,55.8c-.8.5-1.8,1.5-.8,1.9,1,.3,1.5-.5,1.4-.7,0-.2.5-1.2,1.9-1,0,0,0,.2,0,.2-.1.2-.2.5-.4.8.4,0,.7,0,1-.3.3-.2.5-.6.6-.9.1-.3.1-.7,0-1,0-.3-.2-.7-.5-.9l-.2.9c0,.3-.1.5-.2.8,0,0,0,.2,0,.3-.9-.3-1.9-.4-2.6,0Z"/>
  <path class="st1" d="M440.5,54.1c.6,0,1,0,1,0,0,0-1.4-1.7-1.9-1.2-.3.4.3,1.2.9,1.3Z"/>
  <path class="st1" d="M446.2,45.4c0-.4-1.4-.3-3.5-.2,1.9.9,3.5.6,3.5.2Z"/>
  <path class="st1" d="M430.5,50.8c.9,0,2-.7,1.9-1-.1-.3-1.4.4-1.9,1Z"/>
  <path class="st1" d="M452.7,38.3c0,.1-.2.2-.3.2-.2,0-.5,0-.8,0-.6,0-1.2-.2-1.7-.4-1.2-.4-2.5-.5-3.9-.2-.2,0-.4.1-.7.2-.6.1-1.2.3-1.8.5-.3,0-.6.2-.9.3l-.5.2c-.1,0-.4.1-.6.3,0,0-.2.2-.2.3v.2c-.2.1-.3.3-.4.4-.2.3-.3.6-.5.9-.3.6-.6,1.2-.9,1.8.5-.5.9-1,1.3-1.5.2-.3.4-.5.6-.8.1-.1.2-.3.3-.4,0-.1.2-.3.3-.3,0,0,.1,0,.3-.1l.5-.2c.2,0,.4-.2.6-.2-.2.3-.4.6-.6.9-.3.6-.4,1.2-.5,1.8,0,.6-.1,1.2-.1,1.9.2-.6.4-1.2.6-1.7.2-.6.5-1.1.8-1.6.2-.2.3-.4.5-.6,0,0,.2-.2.3-.3h.2c0-.2,0-.2.2-.2.4-.2.8-.4,1.2-.5-.2,1.2,0,2.8,2.3,3.1-.6.4-1.2.7-1.8,1-.7.3-1.5.6-2.3.8,0,0,0,0,0,0,.8.2,1.7.1,2.5,0,.8-.2,1.7-.5,2.4-.8.8-.4,1.5-.9,2.1-1.6.1-.2.3-.4.4-.6.1-.2.2-.4.3-.6.1-.3.1-.6,0-.9.2,0,.5,0,.7-.3.2-.1.3-.3.4-.5,0-.2,0-.4,0-.5-.1.1-.2.3-.3.4Z"/>
  <path class="st1" d="M449.5,64.8c-.2.4-.5.8-.8,1.1-.3.3-.5.7-.8,1-.4.3-.8.5-1.2.7-.4.2-.9.3-1.4.4-.5.1-.9.2-1.4.2-.5,0-.9,0-1.4,0-.7-.2-1.3-.6-1.9-1.1-.3-.3-.5-.6-.7-.9-.2-.3-.4-.6-.6-1,0,0,0,0,0,0,0,.4.2.8.3,1.2.2.4.4.8.6,1.1.5.7,1.2,1.3,2.1,1.5h0s0,0,0,0c1,.1,2.1,0,3.1-.1.5,0,1-.3,1.5-.5.5-.2,1-.5,1.4-.8h0s0,0,0,0c.4-.4.6-.8.9-1.2.2-.4.5-.8.6-1.3.4-.8.6-1.6.8-2.5,0,0,0-.2,0-.2-.5.8-.9,1.6-1.4,2.4Z"/>
  <path class="st1" d="M451.6,59.3c-.4,0-.7.2-1,.5-.1,0-.2.2-.3.2-1.4-.2-2.9-.3-4.3-.5-.8,0-1.5-.1-2.3,0h-.2c0,0-.1,0-.2,0,0,0-.2,0-.2,0,0,0-.1,0-.2.1-.2.2-.3.3-.5.5-.2.2-.3.5-.5.7-.4-.1-.8-.2-1.2-.2-.5,0-1,0-1.5,0,0,0-.1,0-.2,0,0,0-.2,0-.3.1,0,0-.1.1-.2.2,0,0,0,.1-.1.2-.1.3-.2.5-.2.8,0,.4,0,.7,0,1.1-.3,0-.6.2-1,.4.3.3.7.4,1,.4.4,0,.7,0,1,0,0,0,.1,0,.2,0,.2,0,.3,0,.5,0,.2.2.5.5.8.7.5.3,1,.6,1.6.7.3,0,.6,0,.9,0,.4,0,.6,0,.9-.2.5-.2,1-.4,1.5-.7.9-.5,1.8-1.2,2.6-1.9.7-.6,1.3-1.2,1.9-1.9.3-.2.5-.3.8-.4,0,0,0,0,0,0,.3,0,.6-.1.9-.2.3-.1.6-.2.9-.4-.3-.3-.7-.3-1.1-.3ZM439.2,63c-.2,0-.5,0-.7.1.1-.3.2-.6.4-.8,0-.2.2-.4.3-.5h0c0,0,0-.1,0-.1,0,0,.1,0,.2,0,.4,0,.9,0,1.3,0,.4,0,.9,0,1.3.2h.4c0,.1,0,.1,0,.1h0s.2-.3.2-.3c.2-.3.3-.6.5-.9,0-.1.2-.3.3-.4h0s0,0,0,0h0s.1,0,.1,0c.7,0,1.5,0,2.3,0h2.3c.6,0,1.3,0,1.9-.1,0,0,0,0,0,0-.1,0-.3.2-.4.2-.3.2-.6.3-.9.4-1.2.5-2.5.9-3.8,1.2.1-.3.3-.5.4-.8-.5.3-.9.6-1.3,1l-.6.5s0,0-.1.1h0s0,0,0,0c0,0,0,0-.1,0-.4,0-1-.1-1.5-.2-.5,0-1-.2-1.6-.2.2.1.3.3.5.4-.5,0-1.1.1-1.6.2ZM443.4,62.8s0,0,0,0c0,0,0,0,0,0ZM447.7,62c-.9.6-1.8,1.1-2.7,1.6-.5.2-.9.5-1.4.7-.2,0-.5.2-.6.2-.2,0-.5,0-.7,0,0,0,0,0,0,0l-.4-1s0,0,0,0c.4.1.8.3,1.3.3,0,0,.2,0,.3,0,0,0,0,0,.2,0,0,0,.2,0,.2,0h.1c0,0,0-.2,0-.2,0,0,.1-.1.2-.2.2-.2.3-.4.5-.6.2,0,.4,0,.5-.1,1.3-.4,2.6-.9,3.8-1.4-.4.3-.9.6-1.3.9Z"/>
  <path class="st5" d="M417.5,248c-.2-1.3,0-4.2,4.4-6.5-.5-3.8-.9-7.5-1.3-11.2-.2-1.9-.4-3.8-.7-5.7-.1-.9-.3-1.9-.5-2.8l-.2-.7-.2-.7c0-.2-.1-.4-.2-.6,0-.2-.2-.4-.3-.6-.8-1.6-1.8-3.3-2.9-4.8-1.1-1.6-2.1-3.2-3.1-4.9-1-1.7-1.9-3.4-2.6-5.2-.3-.9-.5-1.9-.6-2.8,0-1,0-2,.4-2.9-.3.9-.3,1.9-.2,2.8.1.9.4,1.9.8,2.7.7,1.8,1.8,3.4,2.9,4.9,1.1,1.6,2.3,3.1,3.4,4.6,1.2,1.5,2.4,3.1,3.3,4.8.1.2.2.5.3.7.1.2.2.5.3.7l.3.7.2.7c.3.9.5,1.9.8,2.9.4,1.9.8,3.8,1.1,5.7.6,3.5,1.1,6.9,1.8,10.3,5.4-2,13.3-3.9,15.6-4.4,0-.5-.1-1.3-.1-2.2h0c-1.4-.9-2.4-2-3.2-3.1-.8-1.1-1.5-2.3-2.2-3.5-1.3-2.4-2.4-4.8-3.4-7.3-1-2.5-1.9-5-2.8-7.5-.9-2.5-1.7-5.1-2.4-7.6,1,2.5,2.1,4.9,3.2,7.3,1.1,2.4,2.3,4.8,3.5,7.1,1.2,2.3,2.6,4.6,4,6.8.7,1.1,1.5,2.1,2.3,3,.5.5.9,1,1.4,1.4.4-2,1.4-4.1,3.3-5.6,2.9-2.2,6.1-3.2,9.1-4.2.9-.3,1.9-.6,2.8-.9,0,0,0,0,0,0-.6-.3-1.2-.6-1.9-.9-1.3-.6-2.7-1.2-4-1.8-2.7-1.3-5.3-2.8-7.7-4.6-2.4-1.7-4.6-3.8-6.6-6-2-2.2-3.6-4.7-5-7.3,1,1.1,1.9,2.2,2.9,3.2,1,1,2,2,3.1,3,2.1,1.9,4.4,3.6,6.9,5,1.2.7,2.5,1.4,3.7,2.1,1.3.6,2.6,1.2,3.9,1.8l4,1.7c.7.3,1.4.6,2.1.9.4.2.7.4,1.1.6.2.1.4.3.6.4.1,0,.3.2.4.4,3.6-1.7,10.7-5.1,17.2-7.1-2.8-2.2-13.7-10.9-16.1-12.5-1.1-.7-3-1.4-5-2.2l-3.8.8s-.6-1.5-1.5-2.9l-11.9,1.1c-2.5.2-5,.4-7.5.7-1.2.1-2.5.2-3.7.4-1.2.1-2.5.3-3.7.5,2.4-.8,4.9-1.3,7.3-1.7,2.5-.5,4.9-.9,7.4-1.3,2.5-.4,5-.7,7.4-1h1.3c-1.2-.4-2.3-.7-3.5-1-2.6-.6-5.3-1-8-1.4-2.7-.4-5.4-.7-8.1-1-2.7-.2-5.4-.4-8.2-.5,2.7-.4,5.5-.5,8.2-.5,2.7,0,5.5,0,8.2.3,2.7.2,5.5.6,8.2,1.1,1.8.4,3.5.8,5.2,1.4-.8-3.5-2.3-5.8-3.8-6.9-1.4-1-13.6-4.2-16.9-5-6.4-1.1-11.4-1.4-14.3-.7-1.4,1.7-13.5,16-13.9,27.2-.2,4.7.9,9.2,3.1,13.3,1.2,2.2,2.9,4.1,4.5,6.1.8,1,1.7,2,2.5,3,.8,1,1.6,2,2.3,3.2.6,1.1,1.2,2.3,1.6,3.6.4,1.2.7,2.5.9,3.8,0,.6.1,1.3.2,1.9,0,.6.1,1.3.3,1.9.3,1.3.7,2.5,1.2,3.7-.8-1.1-1.4-2.2-1.9-3.5-.2-.6-.4-1.3-.5-2-.1-.7-.2-1.2-.4-1.8-.3-1.2-.7-2.3-1.1-3.5-.2-.6-.5-1.1-.8-1.6,0,0-.1-.2-.2-.3-1.5.6-3.5,0-4.6-.5l5.1,17.6,5.3-2.4Z"/>
  <path class="st5" d="M416.4,171.5c.3-.1.6-.2,1-.3.9-.2,1.7-.1,2.5,0,.8.1,1.6.3,2.3.5.7.2,1.5.4,2.2.7,1.5.5,2.9,1,4.3,1.5,1.4.5,2.9.8,4.4,1.1-1.5,0-3.1-.1-4.6-.4-1.5-.3-3-.7-4.5-1.1-.7-.2-1.5-.4-2.2-.5-.7-.2-1.5-.3-2.2-.4-.7,0-1.4,0-2.1,0-.6.1-1.1.3-1.6.7-.4,1.5-.8,2.8-1.2,3.6,6.6-1,19.3,1.5,33.1,5.6-.7-1.5-2.3-5-3.1-7.7-10.7-3.9-22.6-7.6-27.9-7.4,0,0,0,0,0,0,0,1.4-.1,2.8-.4,4.2Z"/>
  <path class="st5" d="M413.2,101.7s0,0,.1,0l21.8,7.3c-2.2-1.9-4.5-3.8-6.7-5.6-2.3-1.9-4.6-3.8-6.9-5.9,2.7,1.4,5.3,3,7.7,4.7,2.5,1.7,4.9,3.6,7.2,5.5,2.3,2,4.5,4.1,6.6,6.3,2.1,2.2,4,4.6,5.5,7.2-2.1-2.2-4.3-4.2-6.5-6.2-.2-.2-.5-.4-.7-.6,0,0,0,.1.1.2,0,0,0,0,0,.1.3.6.6,1.2.9,1.9,0,0,0,0,0,.1l4.7,10.1c1.7,3.7,3.5,7.5,5,10.7,1,.4,2.1.5,3.3.5,1.2,0,2.5-.3,3.7-.6,1.2-.4,2.4-.8,3.6-1.4,1.2-.6,2.3-1.2,3.4-2-.7,1.1-1.8,2-2.9,2.8-1,.7-2,1.2-3.1,1.7-.9,2.3-3.7,3.5-5.8,3.7,0,.2.2.4.3.6,0,.1.1.3.2.4l.7,1.6c4.1-.4,8.8-.8,13.5-1,1.4,0,2.7,0,4-.1.6-1.8,1.1-3.6,1-5.6.5,1.8.3,3.7,0,5.5,5.7,0,11.1.2,15,1,.3-.8.7-2.3,1-4.2-3.6-.8-5.6-2.7-6.5-5-.8-.2-1.5-.5-2.3-.9-1-.5-1.9-1.1-2.7-1.9,1,.5,2,.8,3,1.1,1,.3,2.1.5,3.1.7,1,.2,2.1.3,3.1.3,1,0,2.1,0,3.1,0,6.9-1.2,10.4-3.8,12.6-9.2,2.2-5.5-.9-13.8-4.9-19.6,0,0,0,0,0,0-.6-.8-1.1-1.6-1.6-2.5-.5-.9-.9-1.8-1.3-2.7-.4-.9-.7-1.8-1-2.8-.2-.9-.5-1.9-.5-2.9.1.5.3.9.5,1.4.2.4.4.9.6,1.3.4.9.9,1.7,1.3,2.6.5.8.9,1.7,1.4,2.5.3.5.6,1,1,1.5,0,0,0,0,0,0,0-.9,0-1.8,0-2.8,0-1.2.1-2.4.1-3.7v-3.7c0-1.3,0-2.5,0-3.8.4,1.2.8,2.4,1,3.7.2,1.3.4,2.5.5,3.8,0,.6,0,1.3,0,1.9,0,.3,0,.6,0,1,0,0,0,0,0,0,2.5-5.4,3.7-11.9,1.8-16.7-2.1-5.1-7.6-5.7-9.4-5.7-.3,2.4-.7,4.7-1.2,7-.5,2.5-1.1,5-1.7,7.5-.6,2.5-1.3,5-2,7.4-.3,1.2-.7,2.5-1.2,3.7l-.6,1.8-.7,1.8c.7-2.5,1.3-5,1.8-7.5.5-2.5,1-5,1.5-7.5.5-2.5.9-5,1.3-7.6.4-2.3.8-4.7,1.4-7-.9-.3-2.7-.9-4.2-1.3-.3,0-.6,0-.8.1-.2.2-.4.4-.4.7-.4,5.8-2.5,26.4-13.4,50.4-.6,1.3-1.6,2.2-3,2.7h-.2c-.7.3-1.5,0-1.8-.7-1.3-2.8-6-12.6-12.6-23.2-3.9-6.2-8.2-12.7-12-18.5-5-7.5-9.4-14-10.7-17-.2-.4-.6-.6-1-.4-2.1.7-4.8,1.2-7.3,1,1.3,1.7,2.6,3.4,3.9,5.1l4.8,6.7c1.6,2.2,3.1,4.5,4.7,6.8,1.6,2.3,3.1,4.5,4.7,6.8-1.7-2.1-3.5-4.3-5.2-6.4-1.7-2.1-3.4-4.3-5.1-6.4l-5.1-6.5c-1.6-2.1-3.2-4.2-4.7-6.5-3.2-.9-9.3.6-13.4,6.8-1.5,2.2-1.7,6.2-.6,11.5,0,.1,0,.2,0,.3,0,0,.1.1.2.2v.2c0,1-.2,2-.5,2.9l-2.8,6.8c2.1.2,5.6,1,7.6,1.5h0ZM486.6,128.2c1.2-1,2.4-2.1,3.6-3.2-.3.8-.8,1.5-1.3,2.1-.5.6-1.1,1.3-1.7,1.8-.6.5-1.3,1-2,1.4-.7.4-1.5.8-2.3,1,.6-.6,1.3-1.1,1.9-1.6.6-.5,1.2-1,1.8-1.6ZM476.2,131.4l3-2.3c1-.8,2-1.5,2.9-2.3,1-.8,1.9-1.6,2.8-2.5-.4,1.3-1.2,2.3-2,3.3-.9,1-1.8,1.8-2.8,2.6-1,.8-2.1,1.5-3.2,2.1-1.1.6-2.3,1.2-3.5,1.6,1-.9,2-1.7,2.9-2.4ZM425.1,90.6c.8.7,1.5,1.4,2.3,2.1l2.3,2.1c1.5,1.4,2.9,2.9,4.4,4.4.7.7,1.4,1.5,2.1,2.2.7.7,1.4,1.5,2.1,2.3.7.8,1.4,1.5,2.1,2.3.7.8,1.4,1.6,2,2.4,2.6,3.2,5.2,6.4,7.4,9.9-2.8-3-5.6-6-8.4-9-1.4-1.5-2.8-3-4.3-4.4-1.4-1.5-2.8-3-4.3-4.4-1.4-1.5-2.9-2.9-4.3-4.4l-4.3-4.4c-2.9-2.9-5.8-5.8-8.8-8.6,3.4,2.3,6.7,4.9,9.8,7.6Z"/>
</svg>